<svg id="Layer_1" data-name="Layer 1" xmlns="http://www.w3.org/2000/svg" viewBox="0 0 720 792"><defs><style>.cls-1,.cls-2{fill:#231815;}.cls-2{font-size:99.05px;font-family:NanumBrush, Nanum Brush Script;}</style></defs><title>logo</title><path class="cls-1" d="M220.21,360.92a4.71,4.71,0,0,1-2.9,2.22,14.14,14.14,0,0,0-3.58,1.54,17.86,17.86,0,0,0-3.42,2.73,17.78,17.78,0,0,1-3.42,2.73q4.79,18.45,7.52,32.11t3.41,20.49q.69,6.84,1,15t.34,15a55.92,55.92,0,0,1-.51,8.37,39.64,39.64,0,0,1-1.54,6.32,49.61,49.61,0,0,1-6.66-10.93q-2.56-5.81-5.29-11.62-5.82-17.42-11.1-36.54t-10.42-38.94q-9.57-.33-20.49-.34H141.32q-10.94,0-20.67.17t-16.9.51q-.69,2.06-1.37,4.78A56.54,56.54,0,0,0,99,384.32q-1.38,5.3-2.39,11.27t-2.4,12.47q-1.37,6.48-3.41,13a15.32,15.32,0,0,0,8.71-2.91,15.36,15.36,0,0,1,8.71-2.9,34.44,34.44,0,0,0-5.3,6.83A41.46,41.46,0,0,0,99,432a7.85,7.85,0,0,1-2,3.59,25.7,25.7,0,0,0-2.39,2.9c-.46.92-.92,1.88-1.37,2.91a5.14,5.14,0,0,1-1.71,2.22,10.74,10.74,0,0,1-4.1,1.53,2.35,2.35,0,0,1-2.39-.85,23.07,23.07,0,0,1-3.58-8.71c-.58-3.07-1.09-6.32-1.54-9.73a154.53,154.53,0,0,1,2.39-23.91q2.38-14.69,6.15-31.42a16.83,16.83,0,0,1-5.47-2.57,20.49,20.49,0,0,0-4.78-2.56A19.54,19.54,0,0,0,72,363.48a9,9,0,0,1-5.12-2.56l20.83-5.46a19,19,0,0,0,4.44-.69q4.11-16,8.2-30.73t7.86-24.94q2.73-7.85,6.66-18.1a146.74,146.74,0,0,1,9.22-19.64,78,78,0,0,1,12-16.22q6.66-6.82,14.52-8.54a35.44,35.44,0,0,1,4.78-1,35.82,35.82,0,0,1,5.12-.35,4.4,4.4,0,0,1,4.1,2.57,57,57,0,0,0,4.1,6.31q1.71,3.07,3.25,5.3t3.24,9q8.19,24.93,15.37,50t12.64,47.3L224,360.24ZM150.54,251.29a150.06,150.06,0,0,0-10.93,17.24q-5.13,9.41-10.25,21.52t-10.24,27.67q-5.13,15.54-10.59,35,17.76-2.06,35.52-2.4a302.29,302.29,0,0,1,35.18,1.37q-7.17-27.66-14-53.79A449.31,449.31,0,0,0,150.54,251.29Z"/><path class="cls-1" d="M304.23,367.16q-1.28,3.84-2,5.89c-.52,1.37-1.29,1.53-2.31.51a106.77,106.77,0,0,0-8.71-7.68,25.27,25.27,0,0,0-12.55-5.13,26.47,26.47,0,0,0-10.38,1.15,13.6,13.6,0,0,0-8.32,7.05c-1.71,3.07-2,6.75-.77,11a14,14,0,0,0,6.79,9.61,48.2,48.2,0,0,0,11.78,4.61q6.54,1.67,13.32,2.95a30.31,30.31,0,0,1,11.66,4.61,5.59,5.59,0,0,1,2.43,2.43,20.31,20.31,0,0,0,1.92,2.95,23.54,23.54,0,0,0,2.44,2.56,10.27,10.27,0,0,1,2.17,3.07c.52,1,1.11,2.27,1.8,3.72a7.46,7.46,0,0,1,.51,4.74q-.77,3.33-6.41,7.17a121.19,121.19,0,0,1-25.87,12.68A53.3,53.3,0,0,1,253,442.72q-1.78-.51-4.1-3.46a19,19,0,0,0-3.84-4,12.36,12.36,0,0,1-5.63-5.89,49.3,49.3,0,0,1-2.05-14.6c0-1.7.29-2.52.89-2.43a11.3,11.3,0,0,0,1.67.13c1,0,2.18.68,3.46,2.05s2.64,2.94,4.1,4.73,2.81,3.42,4.09,4.87,2.35,2.18,3.21,2.18a26.93,26.93,0,0,0,10.5,2.3,47,47,0,0,0,12.42-1.15,41.17,41.17,0,0,0,11.78-4.61,26.69,26.69,0,0,0,8.84-8.07c0-.85-1-1.88-2.94-3.07s-4.49-2.52-7.56-4-6.45-2.95-10.12-4.49-7.17-3.15-10.5-4.86a58.54,58.54,0,0,1-8.71-5.38,15.68,15.68,0,0,1-5-5.64q-.76-2-1.79-4.22a20,20,0,0,1-1.28-3.21,29.39,29.39,0,0,1-.51-10.88,26.9,26.9,0,0,1,3.07-9.35,20.47,20.47,0,0,1,14.86-10.25,71.45,71.45,0,0,1,16.52-.13,31.36,31.36,0,0,1,15.76,6,14.51,14.51,0,0,1,2.94,3.33,13.58,13.58,0,0,1,1.41,3.59c.17.86.34,1.66.51,2.43A2.88,2.88,0,0,1,304.23,367.16Z"/><path class="cls-1" d="M392.35,361q3.33,8.21,6.28,17.67a108.44,108.44,0,0,1,4.1,18.83,70.86,70.86,0,0,1,0,18.06,31.27,31.27,0,0,1-6,15.11,4.82,4.82,0,0,1-4.87,2.05,3.18,3.18,0,0,1-1.79-1.28,7.08,7.08,0,0,0-2.05-1.79,11.42,11.42,0,0,0-2.18-1.28,5.41,5.41,0,0,1-2.18-2.05,32.8,32.8,0,0,0-7.55,3.71q-3.72,2.44-7.56,5t-7.94,5a29.62,29.62,0,0,1-8.45,3.46q-4.62,1.29-6.79-.38t-4.74-3.72q-1.8-1.53-2.31-1.92c-.34-.25-.68-1.32-1-3.2a52.27,52.27,0,0,1-.13-12.17,56.91,56.91,0,0,1,3-13.19q6.39-19.47,26.12-26.13a9.88,9.88,0,0,1,4.74-.38,18.7,18.7,0,0,1,4.74,1.41,26,26,0,0,1,4.49,2.56c1.44,1,2.77,2.05,4,3.07l4.09,3.33a16.65,16.65,0,0,0-.12-9.35,36.22,36.22,0,0,0-4.23-9.48,46.69,46.69,0,0,0-6.4-8.06,20.7,20.7,0,0,0-6.92-4.87,45.88,45.88,0,0,0-23.44,6A98.37,98.37,0,0,0,327,382.78a3.33,3.33,0,0,1-1.15.77c-.43.17-.81.34-1.15.51a2.15,2.15,0,0,1-1.8.26c-.51-.17-.6-.68-.25-1.54a37,37,0,0,1,6.15-14.73,55,55,0,0,1,10.75-11.4,70.07,70.07,0,0,1,13.07-8.19,64.78,64.78,0,0,1,13.57-4.87,6.52,6.52,0,0,1,1.93-.64,14.85,14.85,0,0,1,2.17-.13,5.89,5.89,0,0,1,3.33,1c1,.68,2.22,1.45,3.59,2.3a55,55,0,0,1,5.12,3,22.63,22.63,0,0,1,4.61,4,32.27,32.27,0,0,1,3.08,4.1C390.9,358.53,391.67,359.82,392.35,361Zm-8.71,45.59a18.6,18.6,0,0,0-4.74-6.14,21.51,21.51,0,0,0-7.3-4.23,18,18,0,0,0-8.83-.64,21.08,21.08,0,0,0-9.61,4.61c-1,2.22-2.05,4.66-3.07,7.3a46,46,0,0,0-2.31,7.94,35.52,35.52,0,0,0-.64,7.94,18.43,18.43,0,0,0,1.67,7.3A182.69,182.69,0,0,0,367.76,423q9.23-4.35,15.88-7.69a6.35,6.35,0,0,0,1.8-2.56,2.62,2.62,0,0,0-.13-1.79c-.26-.51-.6-1.11-1-1.79A4.82,4.82,0,0,1,383.64,406.6Z"/><path class="cls-1" d="M442.3,387.14a48.62,48.62,0,0,1,14.09-14,30.21,30.21,0,0,1,18.95-4.49,11.75,11.75,0,0,1,3.33,1.16l3.33,1.66a24.45,24.45,0,0,1,7.18,6,54.18,54.18,0,0,1,6,9,66.1,66.1,0,0,1,4.48,10.37,66.88,66.88,0,0,1,2.56,10A61.75,61.75,0,0,1,503,414c.17,2.91.26,5.55.26,7.94-.35,0-.52.09-.52.26s-.17.17-.51,0a8.8,8.8,0,0,1-3.33-2.82,9.54,9.54,0,0,0-1.53-1.15,2.68,2.68,0,0,1-1.29-1.67c-.34-1.7-.72-4-1.15-6.78a60.36,60.36,0,0,0-2.18-9.1,69.62,69.62,0,0,0-3.84-9.6,34.34,34.34,0,0,0-5.63-8.33,19.36,19.36,0,0,0-2.18-1.92c-.6-.42-1.33-.9-2.18-1.41a8.18,8.18,0,0,0-3.84-1.41,10.52,10.52,0,0,0-4.36.13,30.42,30.42,0,0,0-9.22,4.87,36.34,36.34,0,0,0-8.45,8.84A34.56,34.56,0,0,0,447.94,404a26.58,26.58,0,0,0,1.28,14.86,29.22,29.22,0,0,1,1,3.71,9.89,9.89,0,0,1,.13,2.69,8.12,8.12,0,0,1-.9,2.82q-.77,1.54-2.05,4.1a12,12,0,0,1-4.74,4.36,27.61,27.61,0,0,0-4.73,2.81,288.33,288.33,0,0,1-11.4-42.52,295.58,295.58,0,0,1-4.87-40.22,197.16,197.16,0,0,1,1.15-34.71q2.06-15.75,6.41-26.25.76-3.07,3.33-2.56a4,4,0,0,1,2.05,1c.51.51,1.19,1.2,2.05,2.05.68.86,1.28,1.58,1.79,2.18a4.93,4.93,0,0,1,1,2.43c.17.86.6,1.28,1.28,1.28s.94.43.77,1.28q-2.29,14.1-3.07,26.13t-.39,22.29a175.18,175.18,0,0,0,1.67,18.95Q441,379.46,442.3,387.14Z"/><path class="cls-1" d="M543.61,407.25q-.37-4.49-1.28-9.35t-2.43-10.76a2.88,2.88,0,0,0-2.44-2.18,8.27,8.27,0,0,1-3.46-1.15c-1.36-.86-2.77-1.71-4.22-2.57a5,5,0,0,0-4-.76,7.15,7.15,0,0,0-2.82,1.79c-.86.86-1,2.48-.51,4.87a81.16,81.16,0,0,1,1.92,13.7q.39,7.05.77,14a107.72,107.72,0,0,0,1.54,13.32,28.53,28.53,0,0,0,4.48,11.27,20.24,20.24,0,0,1,6.4-4.35,13.15,13.15,0,0,0,2.18-1.28,8.7,8.7,0,0,0,1.66-2.82,7.21,7.21,0,0,1,1.67-2.43,3.24,3.24,0,0,0,1.15-2.18q0-5.38-.13-10T543.61,407.25Z"/><path class="cls-1" d="M461,651.54c-2,.31-.93,1.79-1.17,2.16C463,652.57,460.79,651.14,461,651.54Z"/><path class="cls-1" d="M491.11,638.71l-.29.83,1.94-1.59c.64-.53,1.26-1.12,1.88-1.68l-1.74,1.27Z"/><path class="cls-1" d="M518.48,626.15c-1.93-.58-4.2.89-6.8,2.48s-5.34,3.63-8,4.32l-1.08-.25-1.31,3a100.33,100.33,0,0,0,9.16-5.34c1.5-.92,3-1.77,4.33-2.48A21.31,21.31,0,0,1,518.48,626.15Z"/><path class="cls-1" d="M535.63,623.23c-1.46-.4,2.5-2.69-3.44,1.73a7.27,7.27,0,0,1,.73-.13C533.48,624.47,534.26,624,535.63,623.23Z"/><path class="cls-1" d="M532.92,624.83c-2.72,1.79,2.3-.33,0,0Z"/><path class="cls-1" d="M545.08,616.05l-3,3.25c1.1,0,4.33-2,3.44-.83C548.89,615.51,547.74,615.51,545.08,616.05Z"/><path class="cls-1" d="M547.17,612.05l-1.56,1.6C546.09,613.65,546.63,613.39,547.17,612.05Z"/><path class="cls-1" d="M542.29,617l3.32-3.38c-.77,0-1.35-.75-1.57,1.48C543.87,614.22,543.58,615.41,542.29,617Z"/><path class="cls-1" d="M539.87,618.18c-2.29.86-5.07,2.18-2.09-1l-2,1.6a14.44,14.44,0,0,0-1.32,1.2c-.63.68-.79,1.1-.53,1.23s.94,0,2-.51c.52-.24,1.12-.56,1.81-1S539.06,618.8,539.87,618.18Z"/><path class="cls-1" d="M518.4,622.82l-3.1.76c-.63.71-1.25,1.43-1.89,2.13C514.36,624.66,519,623.51,518.4,622.82Z"/><path class="cls-1" d="M566.91,600.75c-.19-.63-2.16-.29-2.9-.68l-1.94,2.57C563.56,601.91,566.15,600.21,566.91,600.75Z"/><path class="cls-1" d="M564,600.07c1-1.28,1.94-2.52,2.85-3.84C563.65,598.9,563.36,599.73,564,600.07Z"/><path class="cls-1" d="M545.9,609.05c-1.61,2.07-3.3,4.08-5,6.15l3.1-3.51,1.54-1.74c.5-.59,1-1.21,1.47-1.82Z"/><polygon class="cls-1" points="580.12 588.41 579.24 591.33 581.07 586.4 580.12 588.41"/><path class="cls-1" d="M588.18,579.54c-.46,2.28,3.28-.72,2.41,1.34a29.82,29.82,0,0,0,4.1-7.82A20.23,20.23,0,0,1,588.18,579.54Z"/><path class="cls-1" d="M596.31,569a34.37,34.37,0,0,0-1.62,4.1A17,17,0,0,0,596.31,569Z"/><path class="cls-1" d="M572.88,591c.51,0,1.69.25,3.89-1.28-.84,0-1.69,0-2.53,0Z"/><path class="cls-1" d="M574.15,589.78h.09c1.5-1.31,2.45-2.33,2.89-2.72C576.74,587.38,575.93,588.29,574.15,589.78Z"/><path class="cls-1" d="M572.53,591.33l.35-.32C572.63,591,572.51,591.05,572.53,591.33Z"/><path class="cls-1" d="M556.44,602.84c1.48-2.51,5.1-6.93,0-4.52C555.72,600.48,558.65,599.08,556.44,602.84Z"/><path class="cls-1" d="M569.41,591.33l-3.86,3.07c.37.27,1.46.15.79,1.43Z"/><polygon class="cls-1" points="570.79 589.28 569.4 591.33 570.84 590.18 570.79 589.28"/><path class="cls-1" d="M589.58,574.45c.86-2.1,2.39-3.86,3.92-6-2,2-4.12,4.06-6,6.15C587.7,575.22,587.6,576.78,589.58,574.45Z"/><path class="cls-1" d="M582.13,582c.07-.13.19-.28.26-.41C582.08,581.67,581.88,581.8,582.13,582Z"/><path class="cls-1" d="M609.05,547.53c-.16.07-.32.11-.49.17.07.09.14.16.2.25Z"/><path class="cls-1" d="M587,574.72a7.43,7.43,0,0,0-2.6,3.86c.93-1.31,2-2.64,3.15-4C587.49,574.28,587.39,574.15,587,574.72Z"/><path class="cls-1" d="M600.28,562.75c-1,.65-2,1.45-3.06,2.31C598.32,564.55,600.38,563.33,600.28,562.75Z"/><path class="cls-1" d="M583.24,581.36a2.61,2.61,0,0,1-.17.28C583.83,581.39,583.63,581.33,583.24,581.36Z"/><path class="cls-1" d="M583.24,581.36a11.6,11.6,0,0,0,1.16-2.78c-.75,1.08-1.47,2-2,3A3.34,3.34,0,0,1,583.24,581.36Z"/><path class="cls-1" d="M604.09,535.11c1.18,1.14-.61,6.47-4.59,9.42-1.6,4.46,4.36,5.05,9.06,3.17-.49-.5-1-.87.88-5.43-1.68,1-7.59,7.82-6.54,3.62,2.82-5.74,3.33-4,5.75-6.16-1.58.56-1-1.47-.63-3.79s.76-4.75-.84-4.91l-1.93,5.23C604.81,536.11,605.22,534,604.09,535.11Z"/><path class="cls-1" d="M603.09,555.25l-1,1.74a25.86,25.86,0,0,1,5.87-4.39c1.25-3.25,1.13-4.16.83-4.65-1,1.35-1.86,2.74-2.87,4l-3,4Z"/><path class="cls-1" d="M596.58,564.18c-.34-2.29,2-6.48-1.26-5.32-3.55,4.6-1.43,4.07-3,7.26,5.6-7.64-1,2.73,4.1-2a43.93,43.93,0,0,1-2.88,4.3c1.24-1.21,2.49-2.34,3.72-3.36l-.23.11,0,0s0,0,0,0c-.43.19-.62.21-.23-.07a.54.54,0,0,1,.1-.18,1.62,1.62,0,0,1-.24-.74c2-1.93.62-.06.24.74,0,.08.06.19.13.25h0l2.63-4,2.44-4.15C600.66,558.47,599.29,560.6,596.58,564.18Z"/><path class="cls-1" d="M557.84,592.28a.42.42,0,0,1,.48.11C558.64,591.85,558.72,591.59,557.84,592.28Z"/><path class="cls-1" d="M561.41,590.58a5,5,0,0,1-2.1,2.8c-1.79.85-.54-.63-1-1-.69,1.2-2.72,3.94,1,1.88l.35-.6a22.32,22.32,0,0,1,2.67-1.38c.9-.45,1.81-.85,2.61-1.16,1.6-.62,2.78-.9,2.62-.59A13.4,13.4,0,0,0,561.41,590.58Z"/><path class="cls-1" d="M579.32,577.75c.82-1,1.57-2.09,2.33-3.17l2.27-3.2-3.73,2,.79.45c-1.58,1.55-2,2.31-2.08,2.79S579.26,577.32,579.32,577.75Z"/><polygon class="cls-1" points="610.27 547.24 611.2 549.14 611.6 543.87 610.27 547.24"/><polygon class="cls-1" points="615.66 538.38 616.82 539.53 617.41 536.68 615.66 538.38"/><path class="cls-1" d="M417,113.06l-2.21.29A12.39,12.39,0,0,0,417,113.06Z"/><path class="cls-1" d="M432.81,114.67l.48-.73C432.51,114.27,432.18,114.55,432.81,114.67Z"/><path class="cls-1" d="M651.06,294.19c.61-3.63,1.89-7.94.27-7.08l-1.42,1.45A15.21,15.21,0,0,1,651.06,294.19Z"/><path class="cls-1" d="M553.48,156.93c.08.35.17.71.26,1.06l2.72.53Z"/><path class="cls-1" d="M546.65,160.12c-.68-1.31-1.38-2.58-2.09-3.85A25,25,0,0,0,546.65,160.12Z"/><path class="cls-1" d="M331.2,120.18l-2.13,2.22C332.94,121.63,331.06,121.09,331.2,120.18Z"/><path class="cls-1" d="M652.65,440.07a38.47,38.47,0,0,0,2.34-7C653.38,436.39,651.4,438.87,652.65,440.07Z"/><path class="cls-1" d="M424.93,95.2c-1.44.17-2.07.48-2.06.87C424.34,95.89,425.19,95.67,424.93,95.2Z"/><path class="cls-1" d="M656.35,424.76c-.25.48-.41,1-.63,1.46,0,1.08,0,2.16-.13,3.29a32.6,32.6,0,0,1-.6,3.58,17.47,17.47,0,0,0,1.46-3.94A10,10,0,0,0,656.35,424.76Z"/><path class="cls-1" d="M116.38,322.83c-.15.2-.27.45-.41.62C116.18,323.59,116.27,323.28,116.38,322.83Z"/><path class="cls-1" d="M83.45,412.26a31.45,31.45,0,0,1,0-4A13.16,13.16,0,0,0,83.45,412.26Z"/><path class="cls-1" d="M635.29,501.66c-.77,2.06,0,.4,0,0Z"/><path class="cls-1" d="M624.75,508.53a1.18,1.18,0,0,0-.4-1.13A1.49,1.49,0,0,1,624.75,508.53Z"/><path class="cls-1" d="M648.19,402.25l0-.19C647.82,402.66,647.89,402.56,648.19,402.25Z"/><path class="cls-1" d="M633.25,504.38a22.62,22.62,0,0,0,1.59-2.37A21,21,0,0,0,633.25,504.38Z"/><path class="cls-1" d="M634.18,504.3c-.37.66-.65,1.19-.92,1.69C633.41,506.36,633.68,506.21,634.18,504.3Z"/><path class="cls-1" d="M636.42,498.82a27.07,27.07,0,0,1-1.58,3.19c.28-.35.44-.48.45-.35Z"/><path class="cls-1" d="M198.88,177.22l-.44.17C197.41,179.36,198,178.63,198.88,177.22Z"/><path class="cls-1" d="M615.94,248.15c.06.08.12.11.17.18L616,248Z"/><path class="cls-1" d="M611.48,242.23c3.33,1.76,4,3.43,4.56,5.8,1.15-1.46,2.35-2.95,3.44-4.42Q615.44,242.86,611.48,242.23Z"/><path class="cls-1" d="M379.11,113.06c1.75.45,3.48.86,5.22,1.35-6.13,2.81-10.58,2.16-5.7,4.12.23-2.73,5.21-3.16,10.2-3.32s10-.24,10.39-3l3.39,1.19c-1-.07-1.14.25-2.1.19a6.38,6.38,0,0,0,3.67.58,5.9,5.9,0,0,0,2.36-1.29c1.52-1.12,3.32-2.56,7.59-1.89,3,.63,5,1.56,2.91,2.06,2.24-.27,4.5-.62,6.75-.81,1.92.3,1.36,1.19-.55.89,3.38.23,6.77.34,10.15.65l-.1.15a46,46,0,0,1,6.67-1.87c2.47,1.11-1.37.4-.81,1.15,1.93-.21,3.86-.32,5.79-.45,1,.88.33,1.47-1.1,1.74a17.69,17.69,0,0,1-5.49-.12c2.23,3,3.4,2.87,5.39,2.56a14,14,0,0,1,3.8-.19,13.74,13.74,0,0,1,2.76.54,24.26,24.26,0,0,1,3.5,1.46c-1.77-.1-3.53-.26-5.31-.29a10.9,10.9,0,0,0,5.23,3.4,35.1,35.1,0,0,1,7.15,3,19.5,19.5,0,0,0-2-1.69c-.95-.73-2-1.56-2.93-2.38-1.76-1.61-2.63-3.1.5-3.19a11.08,11.08,0,0,0,2.92.89,15.45,15.45,0,0,0,4.3.14c-.39,1.91,2.84,2.08,6.76,3l-.88,2.41c4.33.37,4.34-1,7.1-1.45,4.61,1.51,5,3.76,5.6,5.66,7.24,2.54-4.19-4.54,4.7-2.44a32.49,32.49,0,0,0,8.36,2.89c2.84.64,5.91,1.11,9.81,1.71,3.87,2.49-1.29,1.16-.05,2.44l4.45-.4c.89.41.36.87.09,1.11a2.33,2.33,0,0,0,2.54-.77,2,2,0,0,1,1.17-.5,6.41,6.41,0,0,1,2.6.39c1.16-1,3.13,1,5.29,3.48a45.77,45.77,0,0,0,3.59,3.67,10.6,10.6,0,0,0,4.51,2.37c.77,1.51-1.56.77-1.8,1.84,2,.83,3.38,1.65,4.5,2.2l2.69,1.4c.78.4,1.54.75,2.56,1.19l1.77.74,2.35,1L543,153.4l1.58,2.87c-.91-2.34.06-2.85,1.9-2.43a18,18,0,0,1,3.27,1.19c1.21.56,2.5,1.24,3.75,1.9-.46-1.86-.85-3.48-1.22-4.46,2.26,1.78,4.55,3.56,6.78,5.38.37,1.05-.86,1-2.58.67.54.29,1.07.56,1.5.75,1.33,2.9-.83,2.7-3.34,2-.32-1.1-.6-2.24-.88-3.33-2.57-.49-5.14-.74-6,.59a8.73,8.73,0,0,1,2.37,1.56c-.68-.12-1.19-.12-1.21.24s1,.65,2.42,1.22l-.84,3.34,1.15-.41,6,9.45c7.49,4,15.24,6.6,25.11,14.47-3.64-.7-2.83,2-4.67,3.66-.21-2.1-2.28-3.7-4.75-5.36s-5.31-3.56-7.36-6.2c2.17,2.74.79,3-.12,2.62,3.29,2.39,6.69,4.74,10.17,7-.81.62-.55,1.39,0,2.26s1.45,1.91,2.18,3.24c1.23-4.41,7.91,4,11.7,6.78-.84,1.1-2.57,1.15-6-3.22,1,3.3,3.08,4,5.33,4.69a12.23,12.23,0,0,1,3.24,1.33,4.72,4.72,0,0,1,1.33,1.24,6.49,6.49,0,0,1,.89,2c-.88-1.07-1.15-1.81-2-1.78,2.92,1.77,7,8.62,4.89,7.84l-.85-1.06c.64.93,1.39,2,2.21,3.08s1.57,2.38,2.44,3.63,1.77,2.52,2.7,3.77l1.4,1.86,1.3,1.87a52.37,52.37,0,0,0,5,6.15,19.52,19.52,0,0,0,2,1.82,2.44,2.44,0,0,0,1.59.59,17.09,17.09,0,0,1-5,.76c5.82,2.92,11.93,6,17.66,9.64-1.64-.07-3.44,1.93-5.44,3.13s-4.17,1.6-6.49-1.45a20.53,20.53,0,0,0,4,8.47c-.21-1.5,2.32-5.07,3.43-3.32-.13,1.6-.27,2.69-.33,3.51a13.14,13.14,0,0,0,0,2,58.53,58.53,0,0,1,.25,6.2c-.12-1.14,1.12-1.56,2.53-1.27a4.6,4.6,0,0,1,3.56,3c-.83-.29-4.15,1.84-5,.79q3.54,3.33,7.13,6.82c-1.49-1.84-3.73.85-4.3,3.08.63-1.16,2.08,7.24,3.19,9.33l-.06-3.84a13.83,13.83,0,0,0,2.35,5.42,18.58,18.58,0,0,0,3.09,3.32,20.79,20.79,0,0,1,3.18,3.34,13.13,13.13,0,0,1,2.29,5.56c-1.16-1-6.18-1.63-5.71,3.38a67.43,67.43,0,0,1,7.94,5.63,28.9,28.9,0,0,1,8.19,11c-.34.63-.71,1.27-1.07,1.91l2.38,6.69c-1-1-2.3-2.39-3.74-4l-4.67-5.48c-1.65-1.93-3.29-3.91-4.75-5.75-.73-.92-1.42-1.81-2-2.65s-1.26-1.61-1.77-2.32c-.28,3.82-1.26,1.29-.23,6.72-.9,2.12-2.31-2.64-2.7-4.21q.72,6.36,1.33,12.71c2.59-1,3.93,9.36,6.09,8.63l-2.28-6.79c-.39-1.12-.74-2.25-1.16-3.37L636,319.48c1.26-.49,3.53,1.18,5.49,4.21A26.16,26.16,0,0,1,644,329.1a27.2,27.2,0,0,1,.9,3.22,17.59,17.59,0,0,1,.44,3.42c-.85,2.46-4.92-1.25-5.79-.95,1,1.07,2.55,8.5,2,9.4l-1.79-3.75c-.29,2.58.84,4.56,1.67,6.73a10.16,10.16,0,0,1,.34,7.61c0,2.14-3.22,6.44-1.63,6.75,3-3.51,12.47-4.63,14.82-2.31-.2.8-2.62,11.59-4.27,14-2.45,3.52-5.68-5.34-7.78-2.32.73.12,1.62,2.07,1.9,2.88-.65,2.24-2.26-.94-2,3.91,2.79.87-.54,9.89,2.28,2.36.61,4.8-.77,5.05-.89,10.65.91-.85,2.4.49,3.61,2.67a20.68,20.68,0,0,1,2.44,7.68c-.67-.34-1.65.67-2.1,1.16-.22,2.46-.66,4.62-1,6.63s-.76,3.86-1.14,5.68c-.8,3.64-1.69,7.18-2.35,11.73-.75.74-2.38,4.95-3.18,2.9.24,1.37.93,2.72.49,5.52-3.3,4.92.77-6.25-2.77-2.67.75.31,1,2.2,1,4.53s-.2,5.07-.12,7.15c1.32-.34,2-2.6,2.21-5.29a66.53,66.53,0,0,0-.13-7.88c3.29.54,5.68,8.18,5,18.12-.41,3.92-1.23,4.59-1.79,4.49s-1-1-.95-.28a27.44,27.44,0,0,0-1.1,13.42,16.35,16.35,0,0,1,.09,4.71,17.55,17.55,0,0,1-2.49,6.53c-3.61,3.91-4.13-1.15-6-.63a21.59,21.59,0,0,1,1.24-4,26.41,26.41,0,0,1,1.47-3.19,27.68,27.68,0,0,0,2.66-5.69l-2.48,4.75a18.92,18.92,0,0,1,1.77-8.31,21.2,21.2,0,0,0-2.45,5.2c-.45,1.24-.92,2.65-1.41,4.15s-1,3.12-1.58,4.76c-1.18,3.28-2.36,6.8-3.71,10.07a81.55,81.55,0,0,1-4.25,8.7c0,2.1-.77,5.5.68,4.36.37-1.12.78-2.22,1.11-3.36,1.38-1.19,1.38.6,1.21,2.18s-.36,3,.91,1.06c-.8,4.84-1.11,10.67-5.06,16.32l-2.75.07c.7.19,3.24-3.34,3.39-5.37-.12,1.5-2,3.48-3.65,5.58a15.92,15.92,0,0,0-2.06,3.21,4.19,4.19,0,0,0-.37,3.19c1.24-1.13,2.53-2.24,3.7-3.43-.24,1.24-.51,2.55-.78,3.91s-.57,2.8-.94,4.24a21.18,21.18,0,0,1-3.71,8.19c1.76-.58,1.88-.93,2.14-1.41s.69-1.08,2.95-2.32c-4.86,1.62,7.54-13.72,1.41-10.1a11.74,11.74,0,0,0,4.77-4.58,23.47,23.47,0,0,1,4.88-5.78c-.81-.17-2.24,1.26.18-3.29a5.36,5.36,0,0,1-.21-1.32l.2-.29-.2.22c0-.25,0-.28-.08.08a6.06,6.06,0,0,1-2.16,1.89c-.69-3.08,2.63-10.42,2.62-13.35,1.44-2.66.41,1.51,1.8.3l.13-4.32c.92.13,2.34-1.47,3.34-2.25s1.58-.7.77,2.82c.83-2,1.54-4,2.26-6,2.18-3.25,4.3-8.1,4.44-11.43,1.25-2.81.29-7.91.88-5,.67-3.32,1.06-6.69,1.57-10l.46,0c1.43-4.77,1.7-10,2.5-15.18a80.14,80.14,0,0,1,1.38-7.92,48.67,48.67,0,0,1,2.76-8c0-1.69,0-3.4.17-5.38a64.6,64.6,0,0,1,1-6.95l1.67-.9c0-2.17.72-5.33,1.27-8.22s.8-5.5.06-6.48a9.91,9.91,0,0,0,2.32-5.2,50.48,50.48,0,0,0,.53-7.81c0-1.4,0-2.83,0-4.24s-.13-2.8-.19-4.13a49.88,49.88,0,0,1,.06-7l-2-.28a65.36,65.36,0,0,0-.44-7.83c-.15-1.34-.32-2.72-.52-4.17s-.51-2.95-.8-4.55l-1.76.48c-.92-2.72-.71-6.27-.58-10.24.06-2,.15-4.08.16-6.23a38.63,38.63,0,0,0-.38-6.51c.77.51.87,2.75.58,4.36a19.11,19.11,0,0,0,.34-8.13,39.77,39.77,0,0,0-.82-4,40.64,40.64,0,0,0-1.17-4c-1.78-5.21-3.55-10.21-3.16-15.15a10.07,10.07,0,0,1-1.16-5.64,2,2,0,0,0,.21.56c0-.25-.1-.6-.18-1a31.57,31.57,0,0,0,.17-3.44,18.21,18.21,0,0,0-.28,2.93,47.93,47.93,0,0,0-2.46-6.95l1.59-1.61c-.08-.21-.12-.38-.21-.6,0-2.79-1.41-1.85-2.46-.1a15.22,15.22,0,0,0-2-3.17c2.37-2.93-3-6.5-.71-10.31-1-.66-2.42-3.79-4-6.8s-3.37-5.88-5.28-5.92c.38-.24.28-1.05.85.29-.76-2.92-1.53-5.88-3.42-8l1.78-2.14c-.9-.82-1.88-1.59-2.84-2.37l-2.88-2.3c-.3-4.23-.24-6.16,3.15-3.32-1.68-1.89-2.76-3.25-3.59-4.31s-1.42-1.8-2-2.52a33.79,33.79,0,0,0-5.2-5.65l1.57-.42a22.67,22.67,0,0,0-3.37-3.95c-1.23-1.32-2.22-2.58-2.11-3.67a13.55,13.55,0,0,0-.94-3.3,32.45,32.45,0,0,0-2.24-4.26,97.69,97.69,0,0,0-7.12-10.56l-4.39-5.8c-1.57-1.9-3.18-3.81-4.73-5.73-3-3.94-6.26-7.49-8.77-11-.46,2.83-1.49,1.06-2.78-1.16s-2.55-4.5-4.07-3.46c.14-1.44-.92-3.44,1.52-2.29-6.34-5-7-10-13-12.25.2-1.44,2.39.26,2.31-.81-.62-.34-2.46-1.34-2.55-2.42s1.5.3,2.73,1c-5.78-6.23-8.93-4.66-11.72-3-1.77-4.24-3.44-5.73-7.11-6.62-.28-1.82-1.23-4.44,2.72-.75-.48-.59-1.43-1.79-2.68-3.24s-2.69-3.15-4.25-4.69c-.76-.78-1.53-1.53-2.26-2.2a24.2,24.2,0,0,0-2.14-1.68c-1.31-.92-2.34-1.34-2.83-.92-.26-1.14-3.16-3-4-3.3-5.37-4.5-5.72-5.13-11.83-8.66l1.47,1.35a4.92,4.92,0,0,1-4.78-1c-.71-.55-1.57-1.07-2.52-1.69a16.2,16.2,0,0,0-3.36-1.67l.27-.24c-10.63-6.65-5.25-1.09-15.81-7.66l0,2c-.61.88-1.49.94-2.58.53a19.52,19.52,0,0,1-3.9-2.18c-1.48-1-3.12-2.09-4.84-3A14.72,14.72,0,0,0,485.6,111l2.13,1.77c-2.05.14-4.21-2-6.38-4.29s-4.37-4.78-6.21-5.52c-.74-.56,1.45-.22,2.68-.18-4.7-2.49-5.2-1.91-5.43-.94s-.25,2.39-4,1.84c-1.08-1.63,2.55-3-2.45-4.35-1.13-.86-5.06-.49-9.45-.4-1.09,0-2.22,0-3.34,0s-2.26,0-3.34-.16a15.13,15.13,0,0,1-5.85-1.62c1.38,1.28,2.71,2.55-.88,2.77-2.7-.17-6.18-1.62-9.68-2.71s-7-1.59-9.6-.2c-.66-.36-.9-.64-.9-.9-2.1.28-5.48.39-8.65.63s-6.14.79-7.4,1.61c-1.77-3.44-8.26-2.74-14.17-1.91s-11.28,2-11.35-1c-4.24.32-8.47.56-12.69,1l.29-.64a27.66,27.66,0,0,0-8.84,1.31,20.37,20.37,0,0,0-4.71,2.47c-1.9-.21-.61-.92-.49-1.26-3,0-5.29.16-7.22.29a32.73,32.73,0,0,0-5,.73c-2.94.8-5.57,2-10.17,4.39L331.13,102a10,10,0,0,1-3.92.81c-1.92.18-4.37.27-7.08.6a72.77,72.77,0,0,0-8.67,1.37,40.66,40.66,0,0,0-8.58,3c.05-.24.17-.7,1-1.2a43.94,43.94,0,0,1-10.07,3.19c-3.55.86-7.22,1.49-10.6,2.23a41.79,41.79,0,0,0-8.76,2.9c-2.33,1.25-3.92,2.84-4.35,5l-3.67,2.44-3.59,2.55c5.2-2,5.13-1.06,4.33.19s-2.26,3,0,2.61c-3.75,2.13-11.12,2.54-6.4,0h.91c.07-1.06-.72-1.32-2-1.14a14.11,14.11,0,0,0-2.14.53c-.78.28-1.62.63-2.47,1-3.38,1.43-6.9,3.08-7.34,1.89-9.79,5.07-19.43,10.16-28.7,15.66-2.3,1.42-4.63,2.74-6.88,4.22l-6.69,4.47c-4.3,3.14-8.59,6.27-12.5,9.74l3.72.64-5.54,4.62c-.92.39-1.77.41-1.91-.11s.42-1.58,2.43-3.23a4.34,4.34,0,0,0-2.21,1.31,10.81,10.81,0,0,0-1.67,2.43c-.92,1.74-1.39,3.45-1.22,3.73-4.07,3-4,1.77-3.1,0s2.48-4.12,1.32-3.06l-2.94,3.08.94-.42c-1.65,3.23-.9,4.39-5.34,8.7-1.59,1.2-2.24,1.28-2.67,1.16s-.61-.41-1.17.13c-.15-.15-.57.17-1.66,1.7-2.1,2.21-4.26,4.39-6.25,6.7,1.38-.43,2.72-.87,4.11-1.27-1.76,3.81-5.59,6.43-.91,4.93-1.73.53-4.11,2.3-6.55,4.84-1.22,1.28-2.49,2.72-3.77,4.24l-1.92,2.33-1.83,2.46c-2.41,3.28-4.73,6.55-6.49,9.24a31.51,31.51,0,0,1-4,5.24,36.75,36.75,0,0,1-3.37,8c-1.43,2.57-3,5.23-4.84,8.11,1.29-1.22,4-.77.79,4.12-1.81-2.27-3.62-.2-5.69,2.74-1,1.47-2.17,3.14-3.32,4.63a10.81,10.81,0,0,1-3.82,3.4c2.14-1.32.3,2.49-1.16,6.12s-2.59,7.06.49,4.83c-2.51,4.25-1.94-.59-4.7,2.25-1.5,5.79-4.44,11.55-7.46,17.7-1.57,3.05-3,6.24-4.49,9.5a80.41,80.41,0,0,0-3.74,10.16c.6.44,2.41-1.5,2.38,1.77-2,2-3.81,4.11-5.72,6.2-.28,1.42.49,2.36.84,3.47s.26,2.38-1.62,4.56c.77-.55,1.93-1.35,1.62.56C94.91,334.56,92.21,349,90,363.34s-4,28.83-8,43.19c1.59-3.86,1.57-1.22,1.45,1.77.44-1.93,1.73.13,2.71-.2-.58,2-1.07,4-1.56,6l-1.5,6c1.31,1.12,1.38,4.37,1.42,7.5s.19,6.15,1.46,6.73l-.59-3.81c1.6,2.51,3.13.68,4.9-1.63s3.62-5.11,5.54-4.74a6.71,6.71,0,0,1-.7-4.75,49,49,0,0,1,1.51-5.69c.3-1,.58-2,.82-3.1a20.44,20.44,0,0,0,.55-3.22,13.46,13.46,0,0,0-1.15-6.8c.95-1.93,1.1,1.79,2.07.79-1.45-2.39-1.54-5.2-.36-10.23l.35.62c.29-3.59.69-6.64,1.13-9.46s1.08-5.38,1.7-8,1.39-5.25,2.19-8.22c.41-1.48.84-3.05,1.3-4.73s1-3.46,1.52-5.4l-2.09.79a17.11,17.11,0,0,1,2.47-5.43c-.94-2.24-1.58.11-2.12,2.54s-1.19,4.87-2.38,2.78c1.18-1,2.06-2.92,2.84-5.37s1.53-5.37,2.23-8.25a64.8,64.8,0,0,1,2.45-7.9,13.71,13.71,0,0,1,1.46-2.8,4,4,0,0,1,1.77-1.46c1.49-5.1-2.55.9-1.05-4.21l1.53-1-1.09-1.73c1.22-3.3,3.23-4.52,4.21-4.34a18.52,18.52,0,0,0-.65,3.25c1.35-1.94,2.2-5,2.82-7.74s1.14-5.15,1.59-5.81c-.78,1.53-1.59,3.05-2.35,4.59.91-3.52,2.06-7.17,3.33-10.88.68-1.84,1.37-3.7,2.07-5.56s1.4-3.75,2.17-5.59c1.5-3.7,2.9-7.43,4.32-11,.69-1.8,1.33-3.6,1.91-5.37s1.19-3.5,1.67-5.21l-1.26.58a38.63,38.63,0,0,1,2.12-5.73,22.73,22.73,0,0,1,2-3.19c.68-.93,1.4-1.88,2.25-3.28.42-.69.87-1.51,1.38-2.47s1.09-2.08,1.72-3.42l0,.48a19.56,19.56,0,0,1,1.09-4q.41-1.06.93-2.13c.36-.7.76-1.4,1.2-2.08-.61,3.08,4.61-3.79,3.62.15,1.09-2.71,1.75-4.43,2.13-5.6a7.54,7.54,0,0,0,.57-2.31,22.75,22.75,0,0,1,.34-6l2.2-.69c.32-2.94-.11-3.5,2.91-8.64-1.69,4.74,4-1.82,2.31,3.62a33.76,33.76,0,0,0,3.11-3.11,26.94,26.94,0,0,0,2.34-3,54.2,54.2,0,0,0,3.14-5.53c1.81-3.31,3.25-5.92,6.85-6.61.25-3.44-2-1.83-3.91.44s-3.82,5-3.19,3.47c-1.35.64-1.24-.75-.43-2.66a18.66,18.66,0,0,1,3.71-5.74c2.68-3,8.28-1.87,14.85-9.13-.67.72-.49,1-1.16,1.69,3.18-2,3.95-6.21,8.29-8.26,0-3.57,4.32-3.93,2.66-6.74l-3,3.38c-1,1.12-2,2.33-2.93,3.48a28.4,28.4,0,0,0,2-3.48c.64-1.22,1.29-2.5,2.08-3.8a23.21,23.21,0,0,1,2.91-3.9,20.52,20.52,0,0,1,4.65-3.49c-.09.92-1.44,3.22-2.43,4.71,2.49-.94,3.19-3.61,5.75-4.58.75,1.45-1.19,3.38-3.65,5.62s-5.24,5-6.39,7.75c2.82-.83,5.92-8.77,6.26-4.37-.07-3,1.91-4.41,4.13-6a39.23,39.23,0,0,0,3.45-2.67,11.73,11.73,0,0,0,3-3.94l.84,1.76c.63-.87,1.73-3,3.32-4.09-.45,1.32-.83,2.73-1.23,4.09,1.39-2.53,3.8-3.63,6.16-4.67,1.19-.51,2.38-1,3.49-1.59a10.83,10.83,0,0,0,3.11-2.19,24.87,24.87,0,0,1-4.27,2.51c-.78.28-1.06.08-1.21-.28-.3-.71-.07-2-2.31-1.25a15.76,15.76,0,0,1,5.6-4.31,9.43,9.43,0,0,1,4-.6c2.52,0,5.37.23,11.4-4-1.57,1.24-7,3-4.79.57a39,39,0,0,1,4.31-1.67,14.74,14.74,0,0,1,3.88-.73c8.3-5.21-2.27-1,.79-4.05a4,4,0,0,0,2.34-.39,4.5,4.5,0,0,0,1.51-1.38,17.26,17.26,0,0,1,3.48-4.07l.91,1.7c2.62-1.07,4-1.79,4.77-2.49a2.54,2.54,0,0,0,.89-1.85c.14-1.12.13-2.24,5.1-3.7-1,1.37-1.86,2.83-2.77,4.25l2.24-1.46,2.28-1.39-.09,2.44c4.57-3.79,6.38-4.21,11.85-5.7-1.72-.76-.65-3.57,4-5.43,3.63-.11-1.15,2.37,5.44-.33-1.11,1.69-2.21,3.71-5.73,3.1-.07.7-1,1.72-1.1,2.42a19,19,0,0,0,6.09-1.61c2-.81,3.79-1.78,5-2.19a10.73,10.73,0,0,1-2.75.51c1.45-1,2.92-2,4.41-2.94l4.47-2.88c1.76.18.71,1.14-.32,2.08,1.91-.87,3-2.12,5.93-3.14-.31,1.74.31,3.21-3.56,5.17,2.91-1.51,5.86-3,8.81-4.44.82.46,5.32.54,4.25,1.41,2.71-.22,5.68-1.86,9-3.3,1.64-.74,3.33-1.5,5.07-2.09a18.69,18.69,0,0,1,5.37-1,5.46,5.46,0,0,1,2.44-1.32,41.63,41.63,0,0,1,5-.41c1.64-.08,3.28-.14,4.94-.29a33.21,33.21,0,0,0,10.59-2.37c1.61.74,3.22,1.54,4.81,2.3,6.15-1.29-6.5-2.87,3.79-5,7.33-1.53,3,2.16,5.61,2.73a38.5,38.5,0,0,1,7.08-2.89,17.35,17.35,0,0,1,9.62,0C383,113.05,381.2,112.78,379.11,113.06Zm77.16,4.49c-1.56.11-4.71.77-5.59-.56C452.76,115.14,453.88,116.44,456.27,117.55Zm102.28,50.57c-1.24-.43-2.18-2-3-3.94A13,13,0,0,1,558.55,168.12Zm83.72,310.55a.9.9,0,0,0,0-.19C644.1,475.35,643.41,476.45,642.27,478.67Zm-3.18,6.7c0,.79.28.83.63.63-.29-.66.22-2.23,1-4C640,482.36,639.39,483.14,639.09,485.37ZM173.66,184l1.33-.72C173.23,186.07,173.47,185.06,173.66,184Z"/><path class="cls-1" d="M547.46,159.78a1.84,1.84,0,0,1,.33-1.2C547.15,158.37,546.87,158.61,547.46,159.78Z"/><path class="cls-1" d="M331.6,119.77a1.81,1.81,0,0,0-.23,0,.75.75,0,0,0-.17.38Z"/><path class="cls-1" d="M641.91,373.72a7.27,7.27,0,0,1,1-2.78C642.46,370.86,642.05,371.52,641.91,373.72Z"/><path class="cls-1" d="M626.41,522.65c.63-1.46,1.15-3,1.7-4.49a9.53,9.53,0,0,1-2.48,3.55C626.08,521.83,627.09,521.32,626.41,522.65Z"/><path class="cls-1" d="M594.87,550.9c-.2.68-.81,1.16-1,1.84l.83.39C596.33,550.78,596.92,548.75,594.87,550.9Z"/><path class="cls-1" d="M618.66,523.51c-1.61-.45-2.48,2.39-3.81,5.39a3.58,3.58,0,0,1,.3-.49C616.66,530.38,617.67,526.92,618.66,523.51Z"/><path class="cls-1" d="M614.51,529.58A20.5,20.5,0,0,1,613,532.2C613.58,533,613.79,531.24,614.51,529.58Z"/><path class="cls-1" d="M636.77,494.49c-1,1.31,1.57,1.69.63,2.28C638.69,499.16,638.87,486.06,636.77,494.49Z"/><polygon class="cls-1" points="612.72 523.26 615.03 523.21 614.47 520.85 612.72 523.26"/><path class="cls-1" d="M625.26,501.11l-2.56,4.5c.34.07.24.75,0,1.53C624.14,504.3,625.83,501.23,625.26,501.11Z"/><path class="cls-1" d="M622.72,507.14a13.3,13.3,0,0,0-1.51,3.88A30.72,30.72,0,0,0,622.72,507.14Z"/><path class="cls-1" d="M615.52,516.81l1.08-1.14,1.71-3.2C617.38,513.92,616.53,515.41,615.52,516.81Z"/><path class="cls-1" d="M643,448.65l.65-5.62c-.55-.7-1.28.7-1.47,2.8C642.33,447.24,642.14,449.34,643,448.65Z"/><path class="cls-1" d="M633.4,463.59c.83-1.31,1.29-1.29,2.16-1.92l-2.34-.83Z"/><path class="cls-1" d="M636.93,447.86c-.55-.71-.21-8.24-1.55-1.41a11.44,11.44,0,0,1,.36,2.77C635.81,450.08,636.12,450.28,636.93,447.86Z"/><polygon class="cls-1" points="648.68 365.14 648.74 366.56 652.81 366.3 648.68 365.14"/><path class="cls-1" d="M629.66,294.25c.61,6.42,2.83.87,3,6.78,1.31,1.25-.17-4.84,1-3.53C631.76,294,631.82,291.86,629.66,294.25Z"/><path class="cls-1" d="M633.7,297.5a20.52,20.52,0,0,0,1.09,1.79A9.14,9.14,0,0,0,633.7,297.5Z"/><path class="cls-1" d="M81.06,428.29l-.41,2.21-.35,2.22c.43-1,.83-1.93,1.29-2.88Z"/><path class="cls-1" d="M84.31,436.62l-2.56,1.14,2.44,2.52C84,439.3,83.75,437.4,84.31,436.62Z"/><path class="cls-1" d="M466.32,125.07l.45-.54c-.46-.79-1.38-1-3.23-1.58Z"/><path class="cls-1" d="M411.69,115.24c.32,0,.64.06,1,.1-.55-.83-1.11-1.62-1.67-2.43Z"/><path class="cls-1" d="M365.18,119c1.89,0,4.07-.74,6-.78C367.08,119,364.41,116.14,365.18,119Z"/><text class="cls-2" transform="translate(123.21 548.11)">sushi&amp;teriyaki</text><path class="cls-1" d="M621.84,353.85c.2.12.31-.5.37-.6C621.82,353.26,621.8,354,621.84,353.85Z"/><polygon class="cls-1" points="617.79 353.91 617.95 353.7 617.19 354.05 617.79 353.91"/><path class="cls-1" d="M614.49,352.41c-.16,1.11,1.27.39,1.7,1v.27l.61-.67C616,352.81,614.86,352.91,614.49,352.41Z"/><path class="cls-1" d="M613.87,349.45c-.09.42-.52.12.33.32a.34.34,0,0,1,0-.13A1.59,1.59,0,0,1,613.87,349.45Z"/><path class="cls-1" d="M614.18,349.64c.33.15,0-.42,0,0Z"/><path class="cls-1" d="M612.56,349l.61-.09c0-.27-.32-.52-.09-.6C612.55,348.3,612.51,348.56,612.56,349Z"/><path class="cls-1" d="M611.76,349.5l.3,0C612.07,349.37,612,349.31,611.76,349.5Z"/><path class="cls-1" d="M612.7,349.45l-.64,0c0,.19-.19.49.28,0C612.14,349.75,612.39,349.54,612.7,349.45Z"/><path class="cls-1" d="M612.89,349.74c.13.33.38.63-.24.72C613.56,350.78,613.79,350.05,612.89,349.74Z"/><path class="cls-1" d="M613.83,353.31c.06.16.13.31.2.46l.47-.19C614.26,353.68,614,353,613.83,353.31Z"/><path class="cls-1" d="M610.24,347a4.86,4.86,0,0,0-.31.87l.45,0C610.3,347.58,610.07,347.27,610.24,347Z"/><path class="cls-1" d="M609.93,347.84l-.68,0C609.64,348.18,609.82,348.07,609.93,347.84Z"/><path class="cls-1" d="M611.08,350.48c.41-.08.81-.19,1.21-.28-.45.07-.92.16-1.36.19Z"/><polygon class="cls-1" points="608.51 345.81 609.06 345.55 608.16 345.89 608.51 345.81"/><path class="cls-1" d="M607.32,345.09c.43-.22.16-.78.52-.86a2.16,2.16,0,0,0-1.27.08C606.93,344.33,607.17,344.56,607.32,345.09Z"/><path class="cls-1" d="M605.88,344.42a2.39,2.39,0,0,0,.69-.11A1.92,1.92,0,0,0,605.88,344.42Z"/><path class="cls-1" d="M608.51,347.28a1,1,0,0,0,0-.79l-.18.66Z"/><path class="cls-1" d="M608.33,347.17v0l-.37-.3Z"/><path class="cls-1" d="M608.56,347.32l0,0C608.5,347.35,608.5,347.37,608.56,347.32Z"/><path class="cls-1" d="M610.14,349.2c-.47.14-1.26.09-1,.91C609.59,349.87,609.43,349.4,610.14,349.2Z"/><path class="cls-1" d="M608.35,348.13l.42.44c.08-.15.12-.41.36-.48Z"/><polygon class="cls-1" points="607.99 348.14 608.35 348.13 608.19 347.97 607.99 348.14"/><path class="cls-1" d="M606.36,345.49a1.28,1.28,0,0,1-.91-.2,3.21,3.21,0,0,0,.73.74C606.34,345.89,606.67,345.68,606.36,345.49Z"/><path class="cls-1" d="M607.28,346.35h-.06C607.21,346.41,607.23,346.44,607.28,346.35Z"/><path class="cls-1" d="M603,343.39l0,.12.07-.08Z"/><path class="cls-1" d="M606.16,346.16c.14.24.35.2.59.12a1.8,1.8,0,0,1-.57-.25C606.11,346.09,606.07,346.13,606.16,346.16Z"/><path class="cls-1" d="M605,344.14a2.61,2.61,0,0,0,.14.55C605.17,344.45,605.14,344,605,344.14Z"/><path class="cls-1" d="M607.25,346.15h0C607.3,346,607.27,346.05,607.25,346.15Z"/><path class="cls-1" d="M607.25,346.15a2.3,2.3,0,0,0-.5.13,1.25,1.25,0,0,0,.47.07A.75.75,0,0,1,607.25,346.15Z"/><path class="cls-1" d="M599.65,346.05a.78.78,0,0,1,1.39.41c.74,0,1.61-1.78,1.88-2.95-.18.19-.32.38-1,.3,0,.38.59,1.4-.14,1.53-.82-.24-.39-.57-.51-1-.19.8-1.46.22-2,1.18l.79.14C600,345.75,599.59,345.8,599.65,346.05Z"/><path class="cls-1" d="M603.78,344.24l.24.09a2.1,2.1,0,0,1-.18-1.15,1.06,1.06,0,0,0-.85.25l.91.79Z"/><path class="cls-1" d="M604.89,345c-.53.41-1.17.27-1.3,1,.61.41.73-.12,1.24-.09-1-.57.48-.09,0-.89a2.14,2.14,0,0,1,.59.24,3.36,3.36,0,0,1-.3-.6v.05h0c0,.09,0,.14,0,.07h0l-.19.16c-.18-.31.06-.17.19-.16l.07-.07h0l-1.13-.41A2.32,2.32,0,0,0,604.89,345Z"/><path class="cls-1" d="M607.89,351a.23.23,0,0,1,.05-.15C607.83,350.84,607.78,350.87,607.89,351Z"/><path class="cls-1" d="M607.68,350.37c.13,0,.33-.21.53,0s-.17.26-.27.44c.23-.05.74-.08.46-.62l-.11,0a2.11,2.11,0,0,1-.24-1.46A5.57,5.57,0,0,0,607.68,350.37Z"/><path class="cls-1" d="M606.11,347.8l-1-.3.09.75.17-.29C605.77,348.38,605.91,348,606.11,347.8Z"/><polygon class="cls-1" points="603.06 343.07 603.57 342.6 602.54 343.03 603.06 343.07"/><polygon class="cls-1" points="602.02 342.36 602.42 341.93 601.94 342 602.02 342.36"/><path class="cls-1" d="M536,319.73l-.26.19A.73.73,0,0,0,536,319.73Z"/><path class="cls-1" d="M538,319.65l0-.3C538,319.52,538,319.64,538,319.65Z"/><path class="cls-1" d="M576.94,322.52c-.05-.72,0-1.71-.34-1.11l-.23.62A.71.71,0,0,1,576.94,322.52Z"/><path class="cls-1" d="M555,317.48l.08.22.42-.56Z"/><path class="cls-1" d="M554.18,320.06l-.45-.51A1.72,1.72,0,0,0,554.18,320.06Z"/><path class="cls-1" d="M525.29,322l-.17.72C525.61,322.63,525.32,322.35,525.29,322Z"/><path class="cls-1" d="M591.82,334.19a2,2,0,0,0-.45-.89C591.47,333.87,591.38,334.53,591.82,334.19Z"/><path class="cls-1" d="M536.36,312.77a.44.44,0,0,0-.23.42C536.31,313.06,536.41,312.92,536.36,312.77Z"/><path class="cls-1" d="M590.56,332.61a2.21,2.21,0,0,0,.05.25,1.6,1.6,0,0,1,.76.44C591.3,332.87,591.12,332.5,590.56,332.61Z"/><path class="cls-1" d="M488.34,337.83h-.12C488.26,337.9,488.3,337.88,488.34,337.83Z"/><path class="cls-1" d="M474.61,339.16a1.84,1.84,0,0,1,.38-.33C474.89,338.84,474.77,338.93,474.61,339.16Z"/><path class="cls-1" d="M598.25,338.94c.24.14.08,0,0,0Z"/><path class="cls-1" d="M597.62,341.76a.53.53,0,0,0-.28.18A.74.74,0,0,1,597.62,341.76Z"/><path class="cls-1" d="M585.86,334h0C585.82,334.11,585.83,334.08,585.86,334Z"/><path class="cls-1" d="M598.38,339.42a1.44,1.44,0,0,0-.15-.37A1.38,1.38,0,0,0,598.38,339.42Z"/><path class="cls-1" d="M598.53,339.15l.14.2C598.77,339.29,598.79,339.22,598.53,339.15Z"/><path class="cls-1" d="M597.94,338.72a1,1,0,0,1,.29.33c0-.06,0-.11,0-.11Z"/><path class="cls-1" d="M506.8,325.82l-.08,0C506.59,326.15,506.68,326.06,506.8,325.82Z"/><path class="cls-1" d="M567.39,324.83l0,0,0,0Z"/><path class="cls-1" d="M566.35,324.84c.71-.55.87-.36,1.06-.07L568,323Z"/><path class="cls-1" d="M531.25,320.43l.73.5c-.65,1.05-1.24.79-.53,1.53-.19-2,2.45-.52,2.31-2.56l.48.39c-.13,0-.13.11-.26.1.93.9.48-1.51,1.6-1.32.4.12.68.4.44.66l.81-.58a.18.18,0,1,1,0,.36l1.28-.22v.06a6.26,6.26,0,0,1,.76-1.06c.34.28-.16.23-.06.48l.7-.53c.31.52-.27,1.06-.76,1,.73,2,.58-.57,2,.63l-.66.25c.45,1.16.95.74,1.69,1.46-.16-.38-1.5-1.81-.74-2.32.22.15.51.23.93-.19,0,.73.4.55.91.51l0,1c.54-.26.51-.75.85-1.16.61.12.7.87.81,1.5,1,.19-.61-1.22.55-1.35.79.39,1.37.06,2.4-.43.54.39-.15.58,0,.87l.58-.71c.12,0,.05.26,0,.37.46-.25.13-.95.84-1.15.32-1,1.19,1.73,2.17.65.16.3-.19.57-.18.94a7.84,7.84,0,0,0,2.17-1.29l.67.77c-.44-.82.46-1.51,1.28-2.07a6.33,6.33,0,0,0-.36-.88l1.2-.29c.1.19-.08.48-.34.83l.24-.18c.31.45,0,.94-.4,1.39l-.26-.65a3.78,3.78,0,0,0-.81,1.66.8.8,0,0,1,.39-.19.69.69,0,0,0-.16.38c0,.1.17-.09.39-.29v1.09l.14-.4,1.18,1c.6-.41,1.21-.94,1.9-1.38a4,4,0,0,1,2.26-.68c-.62.63-.47,1.2-.76,2.08-.13-1.06-1.28,0-2-.37.38.2.17.62,0,.73l1.62-.44c-.25.72.13.63.39,1,.18-1.51,1.34-.66,2-.86-.14.49-.44.92-1.07.57.36,1.33,1.54-1.32,2-.14-.17-.05-.23-.16-.39.06.55-.28,1.37.4,1,.73l-.16,0c1,.56,3.22,1.39,3.94.3a17.72,17.72,0,0,1-1,1.53c1.22-1,2.48-1.95,3.79-2.89-.66.9-1.23,3.54-2.37,3.65a1,1,0,0,0,1.08.5c-.09-.22.32-1.62.6-1.58a6.94,6.94,0,0,0,.42,2.11c-.14-.33,1-1.7,1.34-1.41-.18.19-.8,1.5-1,1.57l1.81-.88c-.4.11-.76,1.21-.79,1.74.07-.34.8.52,1.14.53l-.2-.58c.94.87,2.35-1.38,3.38-.57-.33.2-1.49,1.58-1.08,2.12.71-.57,3.41-2.72,4.78-2.6l-.1.53,1.05.08a45.73,45.73,0,0,1-5.31,2.52c.17.59-.22.56.39.91-.06.52-.71.37-.9.28l1.18,1.15c.52-.88,1.6-.08,2-.8-.69-.07-1.37-.15-2.07-.19.52-.88,2.52-1.76,3.38-.88,0,.5-1.24,1.31-1.42,1.6.33-.19,1.3.13,1.24.4l-.73.13c.3.69,1.67-.43,1.72.81.18.22-.15,1.53.26,1.09a14,14,0,0,1,3.22-4.56,9.48,9.48,0,0,1,.39,2.43c-.2,1-1.88,1.26-2.05,2.11a1.45,1.45,0,0,1,.74-.33c.08.36-.62.59,0,.88.72-.73.95.87.77-.49.67.16.39.57,1,1a3,3,0,0,1,2.59-1.15,1.58,1.58,0,0,0-.34.69c.93.89,1.16,1.68,2.06,2.46-.07.26.18.86-.3,1,.25,0,.6-.19.89,0,0,1.13-.71-.43-1,.74.42-.43,1.25,0,1.89,0,.47-.8-.81-.92-1.45-1a3.74,3.74,0,0,1,3.71-1c1,.4-.21.9,0,.88,1.28,1.37,2.64-.66,3.23,1-.05,1-1,1.25-1.29,1.78-.81-.29-.61-1.19-1-1.52l.27.72c-.37,0-.92-.15-1-.52-.08.89,2.31,2.15,3,3.58.37-.05.89,0,.94-.36l-.43-.21c.1-.76,1.24-.14,1-.74.76,0,1.73-.08,2.16.74l-.46.81c.16-.22-.08-.77-.45-.71.53-.08.24,1.79,1.3,1.1l-.07-.87c.77,0,2-.27,2.36.42.3-.92-.2,0,0-1.19-.47,1.32-1.45-1.23-1.75.31.36-1.3-.4-1-.29-2.27-.17.25-.17.61-.56.09a1.13,1.13,0,0,1-.28.12v0s-.06,0,0,0a1,1,0,0,1,0,.56c-.68.34-1.44-.32-1.93-.27-.2-.35.34-.16.39-.54l-.74.09c.4-.55,0-1.5.89-1.24l-.59-.53c-.12-.59-.51-1.13-1-1.17-.2-.36-1.21-.05-.62-.24l-1.23-.49.1-.14c-.89-.87-2.69-.81-3-2.66a2.28,2.28,0,0,1-1.33-.87l.27-.54c-.55-.19-.9-1.49-1.46-1.17.55-1.6-1.86-2-2.46-2.77l-.5.57a5,5,0,0,0-2-.94l-.37.56c-.91,0-1.19-1.47-2.15-2.1.21-.16.4.07.48.31-.2-2.06-3-.76-3.38-2.36a.53.53,0,0,1-.62-.42.14.14,0,0,0,.09,0l-.1-.08c-.05-.17-.1-.36-.17-.54a1.55,1.55,0,0,0,.11.51,2.46,2.46,0,0,0-.94-.31l.26-.69-.09,0c-.16-.4-.42.15-.55.7a1.91,1.91,0,0,0-.63.13c.36-1.14-1-.14-.69-1.4-.52.39-1.78-.53-2.56.49.07-.15,0-.28.19-.19-.27-.32-.56-.62-1-.47l.28-.88-1.33.7c-.21-.74-.27-1.13.52-1.52-1.61.4-1.1-.11-2.51.39l.3-.52c-.37-.13-1.25.35-1.26-.19-.33-1.41-3.83-1.78-5.62-3.4-.11,1.8-.76-1-1.24.22,0-.43-.24-.75.21-1-1.19.05-1.5-1.08-2.54-.17,0-.44.39-.53.33-.8-.11.07-.44.26-.5,0s.25-.3.47-.43c-1.17-.22-1.56,1-1.9,2.15-.44-.7-.75-.65-1.31,0-.12-.42-.37-.89.36-.89-.38-.13-2.31-1-2.51-.09-.08-.26-.54-.15-.66-.05a7.63,7.63,0,0,0-1.81-.31l.22.19c-.49,1.11-.75.14-1.47.21l0-.11c-1.52-1-.72.33-2.23-.76l0,.73c-.25,1.51-1.33-1-2.29-.46l.31.43c-.52.5-1.32-2.17-1.85-2.38-.11-.14.18-.21.34-.3-1.34-.95-.19.93-1.2,1.14-.18-.51.26-1.29-.43-1.39-.35-.39-2,1.63-2.89.72.22.38.43.76,0,1.08-.69.17-2-1.4-2.56-.13a.48.48,0,0,1-.15-.29c-.52.36-1.72.67-2,1.37-.77-2.47-3.17,1.59-3.44-.69-.54.1-1.09.22-1.63.36V314a1.61,1.61,0,0,0-1.62,1.23c-.27-.11-.14-.35-.14-.47-1.6-.2-1.75,0-2.77,1.34l-.29-.7c-.25.47-2.45-.64-3.73.57a.59.59,0,0,1,.08-.36c-1.4,1.27-4.56-.87-4.35,1.93l-.86,1c1.43-.24.16,1.19.86,1.43-.48.33-1.64-.33-1-.67l.14.09c-.2-1.42-1.85.09-2.13-.82-2.66,1-5.53,1.32-8,2.33l.72.88-.88.31c-.32-.13-.65-.65,0-.88-.58-.43-.8.94-.72,1.16-1.37.14-.07-1.38-.44-1.23l-.46.3.17.06c-.22.59-.06,1-.8,1.32-.55,0-.52-.5-.72-.46,0-.07-.11-.07-.3.1l-1.09.43.79.58c-.28.61-1,.44-.09,1.09-1.38-1-4.12,1.46-4.76,1.27a2.84,2.84,0,0,1-1.78,1.59c.28.05.86.84.14,1.1-.73-1.9-1.64-.1-2.89-1,1,.56-1.76,1.29-.33,2-.63.18-.41-.63-1.07-.8-.9,1.45-3.13,1.27-4.58,2.49.11.24.59.42.46,1l-1.54-.6c-.25.31.52,1.46-.53,1.06.2.13.5.34.33.54-3.79.89-5.62,5-10,5.1.7.13.46.36.15.6.28-.05.37.53.62.8l-1.84.08c.35,1-1.31,1-.89,1.88l.3-.42c.12,1.28,2.19,1.49,2.94,2.72-.15-1.46,2.63.45,2.55-1.72.38.09.08.51.39.7-.11-.67.12-1,.82-1.14l0,.16c1.46-1.17,2.46-1.14,4.43-2l-.52-.51a1.4,1.4,0,0,1,.91,0c-.17-1.19-1.09.65-1.36-.6,1.3.86,2.68-1.74,3.92-.57.58-.37-.62-.59,0-.95l.39.27-.16-.58a1.09,1.09,0,0,1,1.14.5c-.11,0-.21.25-.29.34.78.13,1.31-1,1.57-1l-.71.12c1.38-1.36,3.65-2,4.77-3.74l-.29-.22c.9-1.23,1.15-.24,2.34-1.24v.1a1.35,1.35,0,0,1,.77-1c-.15.53,1,.33.77,1,1-1.31.4-.82.69-2.39l.46.38c.07-.6,0-.85.59-1.33-.34.71.82.53.49,1.41,2,.34,1.56-2.18,3-.91,0-1.7-1.62-.16-1.4-.63-.53-.3,0-1.3.56-1.38s1.65,1.37,2.79.8c-.12.05-.08.16-.2.21.6.15.63-.88,1.43-.54-.09-1,.71-.27.31-1.39l-1,.74c.48-.55.48-2.11,1.78-1.92a2.21,2.21,0,0,1-.3.92c.44.19.48-.46.93-.26.38,1.12-1.21.8-1.48,1.93.51.32.87-1.34,1.07,0-.2-1.71,1.23-.3,1.53-1.79l.22.68c.08-.16.21-.58.45-.66l-.06,1c.34-1,1.49.12,2-.51-1.29.52-.61-.69-1.36-1,1.26-1.52,1.62,1.36,3.27.35-.21.19-1.06-.05-.8-.5a2.13,2.13,0,0,1,1.28.36c1.14-.56-.44-.62-.08-1.21.71.67.47-.54.91-1l.24.68c1.53,0-.13-1.57,1.31-1.45l-.21,1.13.57-.46.12.82c.51-.8.78-.72,1.54-.73-.31-.43-.3-1.28.31-1.5.55.29,0,.72.81.38-.07.49-.12,1.09-.69.57,0,.24-.06.49,0,.73.59.32,1.16-.22,1.47-.32a.65.65,0,0,1-.39-.07l1-1.32c.28.2.17.46.08.71.23-.15.32-.52.68-.69.06.59.24,1.17-.21,1.59.33-.32.67-.65,1-1,.15.23.79.53.69.78.74.18,1.36-1.52,2.36-1.27a.57.57,0,0,1,.26-.37c.88,0,1.75.5,2.6-.47l.75.94c.74-.36-1-1.18.24-1.79.88-.49.49.83.86,1.07.37-.61,1-1.81,2-1.06C531.75,320.45,531.51,320.32,531.25,320.43Zm9.76-1.18c-.19.15-.56.62-.7.19C540.51,318.61,540.69,319,541,319.25Zm15.16-.08c-.2.2-.39,0-.57-.3A.67.67,0,0,1,556.17,319.17Zm39.43,18.32h0C595.41,337,595.46,337.18,595.6,337.49Zm.5.83a.26.26,0,0,0,.23-.2c-.16.1-.33,0-.48-.22C595.78,338.09,595.79,338.27,596.1,338.32Zm-94-15.71.25.09C502.07,323.06,502.1,322.85,502.11,322.61Z"/><path class="cls-1" d="M554.28,319.76a1.08,1.08,0,0,1,0-.4A.27.27,0,0,0,554.28,319.76Z"/><path class="cls-1" d="M525.32,321.89h0a.28.28,0,0,0,0,.13Z"/><path class="cls-1" d="M581.22,333.89a.88.88,0,0,1-.05-.52C581.05,333.51,581,333.68,581.22,333.89Z"/><path class="cls-1" d="M600.61,340.45l-.57-.22c.24.15.22.33.25.51C600.39,340.6,600.46,340.34,600.61,340.45Z"/><path class="cls-1" d="M601.84,347.09c.12,0,.15.11.27.09l.18-.29C602,346.69,601.62,346.75,601.84,347.09Z"/><path class="cls-1" d="M599.51,342.65c-.34.51.08.58.47.75,0,0-.05,0-.06,0C600.54,342.76,600,342.71,599.51,342.65Z"/><path class="cls-1" d="M600.06,343.44a.79.79,0,0,1,.31.23C600.62,343.43,600.29,343.51,600.06,343.44Z"/><path class="cls-1" d="M597.25,338.75c0,.25.6-.52.52-.26C598.43,338,596.17,338.38,597.25,338.75Z"/><polygon class="cls-1" points="598.52 344.43 598.87 343.75 598.31 344.07 598.52 344.43"/><path class="cls-1" d="M596.33,341.93l.38.59c.07-.11.18-.11.3-.09C596.71,342.15,596.46,341.75,596.33,341.93Z"/><path class="cls-1" d="M597,342.43a.64.64,0,0,0,.49.25A1.49,1.49,0,0,0,597,342.43Z"/><polygon class="cls-1" points="597.67 344.03 597.62 343.79 597.29 343.45 597.67 344.03"/><path class="cls-1" d="M591,337.23l-.69-.3c-.22.15-.17.4.1.49S590.91,337.49,591,337.23Z"/><path class="cls-1" d="M591.32,340.22c-.05-.25,0-.38.12-.64l-.61.69Z"/><path class="cls-1" d="M589.57,339c-.22.15-1.28-.11-.55.43C589.25,339.3,589.94,339.61,589.57,339Z"/><polygon class="cls-1" points="581.93 331.2 582.08 331.3 583 330.08 581.93 331.2"/><path class="cls-1" d="M572.19,328.72c.49.75.67-.69,1,.1.36-.19-.3-.65,0-.8C572.65,328.05,572.54,327.76,572.19,328.72Z"/><path class="cls-1" d="M573.26,328a2.54,2.54,0,0,0,.34,0A.86.86,0,0,0,573.26,328Z"/><polygon class="cls-1" points="472.47 339.67 471.83 339.73 472.42 339.94 472.47 339.67"/><path class="cls-1" d="M472.26,341.21l-.67-.72.24.91C471.91,341.3,472.06,341.09,472.26,341.21Z"/><path class="cls-1" d="M542.45,321.2l0-.23c-.08-.25-.2-.27-.44-.31Z"/><polygon class="cls-1" points="535.44 320.74 535.57 320.74 535.26 319.89 535.44 320.74"/><path class="cls-1" d="M529.75,322.58c.24,0,.49-.24.73-.25C530,322.58,529.51,321.51,529.75,322.58Z"/><path class="cls-1" d="M616.67,290c.24-.15-.27-.53-.32-.64C616.12,289.82,616.8,290.15,616.67,290Z"/><polygon class="cls-1" points="614.52 294.21 614.39 293.97 614.39 294.88 614.52 294.21"/><path class="cls-1" d="M611.63,297.2c1,.45.92-1.21,1.71-1.48l.26.08-.39-.84C612.69,295.71,612.29,297,611.63,297.2Z"/><path class="cls-1" d="M608.43,297.23c.4.19-.07.6.45-.29h-.14A1.84,1.84,0,0,1,608.43,297.23Z"/><path class="cls-1" d="M608.74,296.94c.28-.34-.45,0,0,0Z"/><path class="cls-1" d="M607.53,298.59l.12-.68c-.26-.08-.65.26-.66,0C606.74,298.49,607,298.56,607.53,298.59Z"/><path class="cls-1" d="M607.73,299.52l.09-.33C607.71,299.16,607.63,299.2,607.73,299.52Z"/><path class="cls-1" d="M608,298.5l-.19.69c.18.06.44.29.11-.29C608.13,299.15,608,298.85,608,298.5Z"/><path class="cls-1" d="M608.37,298.35c.39-.08.79-.28.66.39C609.68,297.83,609,297.44,608.37,298.35Z"/><path class="cls-1" d="M612.29,298.11l.53-.09v-.52C612.82,297.76,612,297.9,612.29,298.11Z"/><path class="cls-1" d="M604.69,300.87c.14.18.58.27.83.43l.09-.49C605.35,300.87,605,301.08,604.69,300.87Z"/><path class="cls-1" d="M605.52,301.3l-.14.74C605.79,301.65,605.73,301.44,605.52,301.3Z"/><polygon class="cls-1" points="608.53 300.4 608.64 299.08 608.4 300.56 608.53 300.4"/><polygon class="cls-1" points="603.03 302.66 602.88 302.04 603.04 303.05 603.03 302.66"/><path class="cls-1" d="M602,303.93c-.15-.49-.8-.22-.81-.61a2.44,2.44,0,0,0-.17,1.38C601.14,304.31,601.43,304.06,602,303.93Z"/><path class="cls-1" d="M601,305.45a3.66,3.66,0,0,0,0-.75A1.56,1.56,0,0,0,601,305.45Z"/><path class="cls-1" d="M604.56,302.76a1,1,0,0,0-.82-.06l.65.24Z"/><path class="cls-1" d="M604.41,303h0l-.39.38Z"/><path class="cls-1" d="M604.61,302.72l-.05,0C604.63,302.79,604.65,302.79,604.61,302.72Z"/><path class="cls-1" d="M607,301.24c0,.52-.22,1.35.69,1.16C607.52,301.91,607,302,607,301.24Z"/><path class="cls-1" d="M605.41,303l.56-.4c-.13-.1-.39-.18-.4-.43Z"/><polygon class="cls-1" points="605.34 303.41 605.41 303.02 605.2 303.17 605.34 303.41"/><path class="cls-1" d="M602.26,305a1.56,1.56,0,0,1-.39.95,3.74,3.74,0,0,0,.92-.74C602.67,305,602.51,304.66,602.26,305Z"/><path class="cls-1" d="M603.34,304v.08C603.39,304.11,603.43,304.1,603.34,304Z"/><path class="cls-1" d="M599.52,308.59l.13,0-.08-.08Z"/><path class="cls-1" d="M602.92,305.23c.28-.13.28-.37.25-.62a3,3,0,0,1-.38.59C602.84,305.28,602.88,305.32,602.92,305.23Z"/><path class="cls-1" d="M600.6,306.39a4.34,4.34,0,0,0,.6-.14C601,306.22,600.51,306.24,600.6,306.39Z"/><path class="cls-1" d="M603.13,304.06a.09.09,0,0,1,0-.05C603,304,603,304,603.13,304.06Z"/><path class="cls-1" d="M603.13,304.06a1.73,1.73,0,0,0,0,.55,2.63,2.63,0,0,0,.16-.5Z"/><path class="cls-1" d="M601.9,312.11a.84.84,0,0,1,.59-1.43c.09-.78-1.65-1.76-2.84-2.06.18.19.36.35.18,1.08.4,0,1.54-.61,1.58.17-.35.86-.64.4-1.15.52.79.21.07,1.55,1,2.12l.22-.83C601.63,311.78,601.65,312.17,601.9,312.11Z"/><path class="cls-1" d="M600.53,307.71l.12-.25a2.41,2.41,0,0,1-1.23.18c-.08.53,0,.75.15.9l.95-1Z"/><path class="cls-1" d="M601.47,306.54c.34.58.11,1.26.9,1.42.5-.63,0-.78.08-1.32-.74,1.07,0-.52-.92-.06a2.26,2.26,0,0,1,.34-.64,4.49,4.49,0,0,1-.67.31h.06c.1,0,.15,0,.07.05v0a.66.66,0,0,1,.14.2c-.35.2-.16-.06-.14-.2l-.06-.08h0l-.6,1.21A3.25,3.25,0,0,0,601.47,306.54Z"/><path class="cls-1" d="M608.23,303.85a.26.26,0,0,1-.14-.07C608.1,303.9,608.11,304,608.23,303.85Z"/><path class="cls-1" d="M607.58,304c0-.13-.14-.36.12-.54s.23.21.39.34c0-.25.09-.79-.53-.57v.12c-.52.24-1.57.2-1.57.07A5,5,0,0,0,607.58,304Z"/><path class="cls-1" d="M604.62,305.39l-.48,1,.78,0-.27-.21C605.16,305.79,604.76,305.62,604.62,305.39Z"/><polygon class="cls-1" points="599.2 308.47 598.78 307.91 599.09 309.02 599.2 308.47"/><polygon class="cls-1" points="598.33 309.58 597.92 309.15 597.94 309.66 598.33 309.58"/><path class="cls-1" d="M542.4,365.45l-.28.25A1,1,0,0,0,542.4,365.45Z"/><path class="cls-1" d="M544.72,364.81l0-.29C544.63,364.7,544.62,364.83,544.72,364.81Z"/><path class="cls-1" d="M575.45,335c-.71-.07-1.68-.32-1.16.11l.55.37A.82.82,0,0,1,575.45,335Z"/><path class="cls-1" d="M560.47,353.18l.23.08c0-.25-.08-.48-.11-.69Z"/><path class="cls-1" d="M561.75,355.58H561A2,2,0,0,0,561.75,355.58Z"/><path class="cls-1" d="M529.75,368.72l-.29.7C530.05,369.35,529.75,369,529.75,368.72Z"/><path class="cls-1" d="M589.06,320.51a2.32,2.32,0,0,0-.95.48C588.71,320.88,589.38,321,589.06,320.51Z"/><path class="cls-1" d="M541.35,358.56a.44.44,0,0,0-.13.45C541.37,358.85,541.44,358.7,541.35,358.56Z"/><path class="cls-1" d="M587.35,321.84l.26,0a1.8,1.8,0,0,1,.5-.8C587.67,321.07,587.27,321.25,587.35,321.84Z"/><path class="cls-1" d="M484.6,356.24a.56.56,0,0,1,0-.12C484.5,356.18,484.53,356.21,484.6,356.24Z"/><path class="cls-1" d="M478.16,342.89a2.68,2.68,0,0,1,.45.3A.88.88,0,0,0,478.16,342.89Z"/><path class="cls-1" d="M594.4,313.64c.16-.26,0-.09,0,0Z"/><path class="cls-1" d="M597.29,314.24a.45.45,0,0,0,.16.3A.63.63,0,0,1,597.29,314.24Z"/><path class="cls-1" d="M588.41,326.74l0,0C588.54,326.78,588.51,326.77,588.41,326.74Z"/><path class="cls-1" d="M594.92,313.49a2,2,0,0,0-.4.16A1.49,1.49,0,0,0,594.92,313.49Z"/><path class="cls-1" d="M594.64,313.34l.22-.16C594.81,313.08,594.73,313.06,594.64,313.34Z"/><path class="cls-1" d="M594.15,314a1.61,1.61,0,0,1,.37-.32c-.07,0-.12,0-.12,0Z"/><path class="cls-1" d="M507.76,366.31l-.05-.07C507.34,366.42,507.48,366.41,507.76,366.31Z"/><path class="cls-1" d="M574.63,345.18s0,0,0,0h0Z"/><path class="cls-1" d="M574.15,346.28c-.2-.91.06-1,.43-1.13L573.05,344Z"/><path class="cls-1" d="M536.86,367l.89.42c-.72,1.13-1.48.94-.58,1.6-.31-2,3-.88,2.61-2.89l.6.29c-.14,0-.14.14-.29.16,1.22.69.37-1.59,1.68-1.65.47,0,.86.22.63.54l.82-.77c.29,0,.33.32,0,.36l1.43-.58v.06a8,8,0,0,1,.58-1.28c.46.15-.11.27.06.48L546,363c.5.39,0,1.1-.58,1.22,1.41,1.67.5-.71,2.53-.16l-.69.51c.89.91,1.36.33,2.49.63-.35-.24-2.38-1-1.68-1.83.3.06.65,0,1-.58.27.67.66.32,1.22.05l.33.9c.52-.51.27-.94.47-1.48.71-.21,1.15.39,1.57.89,1.16-.38-1.24-.74,0-1.5,1.05-.09,1.54-.73,2.29-1.8.76,0,.17.57.52.7l.17-1c.14-.06.21.17.25.29.31-.5-.42-.86.15-1.47-.33-1,2.19.5,2.43-1,.35.1.21.56.47.84a6.44,6.44,0,0,0,1-2.61H561c-1-.23-.71-1.4-.52-2.41a8,8,0,0,0-.92-.32l.66-1.11c.21,0,.3.38.38.82,0-.11,0-.22,0-.32.55,0,.7.62.76,1.24l-.69-.23a3.44,3.44,0,0,0,.61,1.77.84.84,0,0,1,.17-.45.64.64,0,0,0,.15.38c.1.05.08-.19.1-.51l.85.71-.2-.39,1.71-.41c.27-1.57.1-3.41,1.19-4.87.15.89.73,1.05,1.3,1.79-1-.45-.83,1.21-1.71,1.63a.42.42,0,0,1,.64.39c.26-.58.53-1.15.77-1.74.44.62.63.22,1.17.18-1.21-.95.33-1.56.55-2.35.36.36.57.86-.15,1.3,1.44.28-.23-2.11,1.06-1.95-.14.14-.27.15-.17.39.07-.64,1.17-1.12,1.25-.61l-.14.14c1.14-.72,3.06-2.71,2.35-3.78a13.46,13.46,0,0,1,1,1.5c-.36-1.59-.74-3.17-1.16-4.76.59.95,3,2.3,2.58,3.52a1.27,1.27,0,0,0,1-1c-.26,0-1.48-.78-1.33-1.05,1.43.33.85.09,2.3.14-.4.06-1.32-1.43-.92-1.74.12.24,1.21,1.19,1.2,1.45l-.25-2.1c0,.44.95,1.06,1.49,1.2-.32-.14.81-.76.93-1.12l-.66.11c1.21-.84-.66-2.69.4-3.62.13.36,1.23,1.8,1.89,1.44-.38-.85-1.95-4-1.57-5.32l.52.17.25-1.07a28.06,28.06,0,0,1,1.46,5.84c.65-.12.52.3,1.05-.32.53.12.2.81,0,1l1.53-1.15c-.79-.64.27-1.74-.39-2.27l-.67,2.2c-.78-.65-1.24-2.84-.2-3.67.52,0,1.14,1.42,1.4,1.63-.14-.36.38-1.38.64-1.3v.79c.78-.29-.15-1.8,1.16-1.79.25-.18,1.57.21,1.17-.24a12.83,12.83,0,0,1-4.27-3.59,10.78,10.78,0,0,1,2.54-.3c1,.24,1.08,2,1.94,2.22a1.47,1.47,0,0,1-.26-.79c.39-.08.54.67.92.07-.67-.77,1-1-.41-.83.24-.7.64-.39,1.15-1-.66-.26-1.19-2-.95-2.74a1.54,1.54,0,0,0,.69.36c1-1,1.84-1.22,2.71-2.19.26.08.91-.19,1.06.3,0-.26-.16-.62.09-.94,1.18,0-.49.77.7,1-.41-.44.07-1.33.17-2-.8-.48-1,.87-1.11,1.55a3.78,3.78,0,0,1-.82-3.87c.48-1,.92.19.91-.07,1.5-1.37-.52-2.75,1.27-3.41,1.05,0,1.23,1,1.77,1.31-.35.86-1.28.68-1.65,1.14l.77-.3c0,.39-.21,1-.6,1,.92.06,2.36-2.48,3.89-3.22,0-.38.09-.93-.3-1l-.25.44c-.78-.08-.06-1.29-.7-1,.09-.8,0-1.83.94-2.29l.8.47c-.21-.16-.81.1-.77.48,0-.56,1.88-.26,1.25-1.37l-.91.07c.09-.8-.1-2.07.67-2.5-.94-.32,0,.21-1.24-.05,1.33.49-1.44,1.56.15,1.86-1.33-.36-1.08.44-2.4.35.25.18.62.17.05.59a1,1,0,0,1,.1.29l0,0H595c0,.05,0,.06,0,0a1,1,0,0,1,.58,0c.29.72-.45,1.54-.42,2.06-.38.21-.15-.36-.54-.41l0,.78c-.54-.4-1.56.09-1.22-.9l-.6.63a1.56,1.56,0,0,0-1.27,1.09c-.38.21-.13,1.27-.29.65l-.59,1.3-.13-.1c-1,1-1,2.83-2.93,3.17a2.5,2.5,0,0,1-1,1.37l-.54-.27c-.23.56-1.59.91-1.31,1.5-1.58-.59-2.14,1.84-3,2.41l.53.54a5.94,5.94,0,0,0-1.17,2l.53.42c-.11.92-1.67,1.09-2.43,2-.13-.23.13-.4.38-.45-2.07,0-1.27,2.91-3,3.07a.56.56,0,0,1-.55.55.13.13,0,0,0,0-.08s-.06.05-.1.08l-.57.06a1.45,1.45,0,0,0,.52,0,2.9,2.9,0,0,0-.5.89l-.63-.4a.43.43,0,0,0,0,.07c-.44.06,0,.44.56.69a1.8,1.8,0,0,0,0,.65c-1-.62-.4,1-1.56.36.26.61-1,1.61-.25,2.66-.13-.11-.26-.1-.12-.24-.4.18-.8.35-.81.87l-.76-.55.2,1.51c-.78,0-1.16-.12-1.25-1-.2,1.69-.49,1-.58,2.55l-.36-.48c-.28.28-.22,1.29-.72,1.09-1.39-.26-3.39,2.79-5.81,3.38,1.44,1.08-1.29.06-.52,1.16-.36-.25-.74-.24-.69-.74-.64,1-1.73.52-1.66,1.9-.35-.25-.17-.63-.41-.75,0,.13-.07.49-.31.36s-.08-.37,0-.62c-.87.72-.22,1.82.41,2.84-.81-.11-1,.12-.9,1-.39-.21-.9-.35-.39-.88-.37.2-2.36.89-1.88,1.72-.24-.13-.51.25-.54.4a7.7,7.7,0,0,0-1.64.92H555c.27,1.17-.51.62-1.08,1.07l0-.11c-1.85,0-.45.69-2.32.61l.4.6c.55,1.46-1.72-.2-2.31.74l.48.23c-.26.72-2.17-1.33-2.7-1.33-.15-.09.08-.27.18-.42-1.56-.35.21.94-.63,1.51-.35-.4-.26-1.29-.9-1.13-.42-.24-1.23,2.21-2.42,1.6.31.3.63.6.29,1-.64.39-2.28-.84-2.54.53a.5.5,0,0,1-.21-.26c-.44.46-1.56,1-1.73,1.72-1.09-2.3-3.07,2-3.58-.27l-1.64.45v-.24a1.74,1.74,0,0,0-1.65,1.28c-.28-.11-.13-.35-.13-.47-1.66-.22-1.78-.1-3,1.24l-.24-.72c-.3.51-2.44-.87-3.89.18a.55.55,0,0,1,.14-.35c-1.67,1.1-4.38-1.68-4.8,1.1l-1.12.76c1.53.08-.15,1.19.51,1.59-.6.22-1.59-.77-.87-.91l.12.13c.18-1.42-1.86-.45-1.84-1.42-.35,0-.7,0-1,0l-1-.14c-.69-.12-1.37-.23-2-.4l-3.85-1.14.05,1.14-.89-.27c-.18-.31-.1-.91.52-.72-.18-.68-1.19.26-1.28.48-1.12-.79.82-1.09.45-1.23a4.51,4.51,0,0,1-.53-.07l.08.16c-.54.3-.71.74-1.46.45-.41-.36,0-.72-.21-.82,0-.08,0-.13-.27-.12-.36-.15-.71-.29-1.06-.47l.14,1c-.63.21-1-.45-.86.67-.11-.87-1.08-1.38-2.06-1.8s-2-.8-2.07-1.12a2.74,2.74,0,0,1-2.37-.63c.11.26-.23,1.19-.88.7.62-.81.4-1.17.06-1.53a1.73,1.73,0,0,1-.7-1.53c0,1.12-2-.95-2,.66-.49-.48.36-.65.19-1.32-1.74-.21-2.62-2.31-4.34-3.24-.18.2-.15.72-.72.79l-.07-1.67c-.39-.12-1.19,1-1.21-.14-.06.23-.13.59-.39.51-2.33-3.32-6.95-4-8.55-8.4.1.74-.21.55-.54.31.13.26-.41.51-.6.82l-.67-1.82c-.86.58-1.44-1.07-2.17-.44l.52.2c-1.25.43-.79,2.56-1.77,3.61,1.4-.5.43,2.77,2.58,2.16,0,.41-.48.21-.57.56.64-.27,1-.13,1.43.55l-.16.07c1.72,1.16,2,2.2,3.62,4l.3-.67a1.61,1.61,0,0,1,.37.91c1.11-.5-1.08-.91.06-1.53-.36,1.56,2.78,2.18,2.17,3.75.62.47.31-.79.93-.32l-.1.48.5-.34a1.1,1.1,0,0,1,0,1.29c-.07-.11-.35-.12-.47-.18.21.83,1.63,1,1.72,1.23l-.46-.66c2,.91,3.83,2.88,6.08,3.22l0-.36c1.68.29.9,1,2.54,1.63l-.1,0a1.77,1.77,0,0,1,1.37.22c-.58.13.37,1.07-.35,1.17,1.85.24,1,0,2.58-.62v.61c.57-.28.72-.51,1.56-.27-.85.13.14,1-.86,1.23,1.18,1.94,3,0,3.12,2,1.35-1.11-1.18-1.39-.61-1.52-.17-.6,1.09-.8,1.55-.45s.2,2.25,1.68,2.67c-.14-.05-.19.06-.33,0,.43.55,1.22-.16,1.7.66.63-.77.86.31,1.28-.81-.47,0-.92-.08-1.39-.13.84,0,1.89-1.22,2.94-.28a2.24,2.24,0,0,1-.89.54c.29.43.76-.06,1.05.38-.37,1.12-1.69-.11-2.75.52.26.62,1.79-.44,1.05.71,1-1.45,1.45.56,2.72-.43l-.2.68c.18-.08.58-.36.88-.3l-.72.83c1-.65,1.54.93,2.43.63-1.72-.24-.27-.91-.91-1.53,2.17-.65.95,2.08,3.41,1.89-.34.08-1.19-.5-.66-.8a3.07,3.07,0,0,1,1.29.88c1.6-.06-.22-.75.47-1.15.51.91.78-.31,1.45-.61v.73c1.79.42.44-1.52,2-1l-.62,1,.82-.28-.13.82a1.89,1.89,0,0,1,2-.35,1,1,0,0,1,.74-1.4c.53.38-.22.71.81.51-.2.48-.41,1.06-.92.44,0,.24-.19.47-.22.71.58.44,1.37,0,1.75,0a.69.69,0,0,1-.43-.13l1.42-1.13c.27.25.1.49-.07.72.3-.11.48-.45.92-.57-.05.59,0,1.21-.58,1.54.47-.26.93-.54,1.39-.81.12.24.82.61.66.85.85.24,1.84-1.36,3-1.05a.65.65,0,0,1,.35-.36c1,0,2,.55,3.08-.43l.85.93c.89-.41-1.14-1.13.33-1.82,1-.54.58.8,1,1,.46-.63,1.17-1.88,2.35-1.23C537.45,367,537.16,366.85,536.86,367ZM548,363.34c-.17.22-.44.81-.74.46C547.24,362.94,547.56,363.24,548,363.34Zm14.62-10c0,.29-.27.34-.67.29A.8.8,0,0,1,562.64,353.33Zm30.06-36.86a.06.06,0,0,0,0,0C592.18,316.69,592.38,316.63,592.7,316.47Zm.9-.55a.26.26,0,0,0-.2-.24c.1.18,0,.36-.25.51C593.34,316.27,593.52,316.25,593.6,315.92Zm-87.48,44.84.12.23C505.78,361.07,506,360.92,506.12,360.76Z"/><path class="cls-1" d="M561.61,355.29a1.06,1.06,0,0,1-.3-.26C561.3,355.18,561.38,355.29,561.61,355.29Z"/><path class="cls-1" d="M529.8,368.58h0a.34.34,0,0,0,0,.14Z"/><path class="cls-1" d="M587.82,331.64a.9.9,0,0,1-.55,0C587.39,331.81,587.57,331.84,587.82,331.64Z"/><path class="cls-1" d="M596.18,311.11l-.28.6c.18-.25.37-.23.56-.28C596.32,311.33,596.06,311.26,596.18,311.11Z"/><path class="cls-1" d="M603.24,309.86c0-.13.12-.16.11-.29l-.26-.2C602.84,309.69,602.86,310.08,603.24,309.86Z"/><path class="cls-1" d="M598.38,312.24c.49.36.6-.08.82-.49l-.06.06C598.59,311.15,598.49,311.7,598.38,312.24Z"/><path class="cls-1" d="M599.25,311.66a1.06,1.06,0,0,1,.26-.33C599.29,311.07,599.35,311.41,599.25,311.66Z"/><path class="cls-1" d="M594.13,314.7c.26-.06-.5-.62-.23-.54C593.48,313.47,593.67,315.85,594.13,314.7Z"/><polygon class="cls-1" points="600.13 313.29 599.46 312.92 599.75 313.5 600.13 313.29"/><path class="cls-1" d="M597.37,315.6l.63-.4a.27.27,0,0,1-.06-.32C597.62,315.2,597.19,315.47,597.37,315.6Z"/><path class="cls-1" d="M597.94,314.88a.76.76,0,0,0,.28-.51A1.71,1.71,0,0,0,597.94,314.88Z"/><polygon class="cls-1" points="599.65 314.18 599.39 314.24 599.02 314.58 599.65 314.18"/><path class="cls-1" d="M592.15,321.33l-.35.73c.14.23.4.17.51-.11S592.42,321.4,592.15,321.33Z"/><path class="cls-1" d="M595.27,320.9c-.26.06-.39,0-.66-.11l.69.63Z"/><path class="cls-1" d="M593.92,322.77c.14.23-.2,1.35.41.56C594.19,323.1,594.55,322.37,593.92,322.77Z"/><polygon class="cls-1" points="585.11 330.81 585.24 330.65 584.1 329.64 585.11 330.81"/><path class="cls-1" d="M580.47,341c.94-.42-.51-.83.42-1.11-.1-.41-.76.23-.82-.15C579.94,340.36,579.57,340.42,580.47,341Z"/><path class="cls-1" d="M580.07,339.69a1.4,1.4,0,0,0,0-.37A1.16,1.16,0,0,0,580.07,339.69Z"/><polygon class="cls-1" points="476.96 340.88 476.69 340.25 476.67 340.89 476.96 340.88"/><path class="cls-1" d="M475.35,341l.5-.85-.83.46C475.15,340.7,475.41,340.8,475.35,341Z"/><path class="cls-1" d="M550.38,364.5l0-.24c-.19-.19-.33-.15-.63-.08Z"/><polygon class="cls-1" points="541.88 366.59 542.03 366.57 541.53 365.8 541.88 366.59"/><path class="cls-1" d="M535.08,369.26c.29,0,.6-.28.9-.3C535.37,369.24,534.8,368.19,535.08,369.26Z"/><path class="cls-1" d="M495.33,340.78a3.7,3.7,0,0,1-.67.17A2.14,2.14,0,0,1,495.33,340.78Z"/><polygon class="cls-1" points="496.7 340.34 496.45 340.34 497.07 340.36 496.7 340.34"/><path class="cls-1" d="M496.67,340.48c1.06,0-.16-.06.22-.07h.25l-.86,0C496.41,340.41,497,340.47,496.67,340.48Z"/><path class="cls-1" d="M494.36,340.42c.41,0,.35,0,.13,0h-.13Z"/><path class="cls-1" d="M494.39,340.42Z"/><path class="cls-1" d="M494.61,340.45l-.36,0-.47,0Z"/><path class="cls-1" d="M495.37,340.52l-.15,0Z"/><path class="cls-1" d="M494.9,340.47l.32,0c.17,0,.5,0-.12,0C495.41,340.51,495.11,340.49,494.9,340.47Z"/><path class="cls-1" d="M495.06,340.47c.23,0,.38,0,.74,0A4.12,4.12,0,0,0,495.06,340.47Z"/><path class="cls-1" d="M497.76,340.53h.32l-.35,0C497.9,340.51,497.43,340.52,497.76,340.53Z"/><path class="cls-1" d="M494.05,340.44l.86.08-.24,0Z"/><path class="cls-1" d="M494.91,340.52l.37.05Z"/><polygon class="cls-1" points="496.52 340.61 495.74 340.52 496.53 340.61 496.52 340.61"/><polygon class="cls-1" points="494.01 340.45 493.51 340.39 494.26 340.49 494.01 340.45"/><path class="cls-1" d="M494.08,340.48l-.93-.13.72.1Z"/><path class="cls-1" d="M494.32,340.52l-.45-.07Z"/><path class="cls-1" d="M495.16,340.58l-.62-.07.61.07Z"/><path class="cls-1" d="M495.17,340.58h0Z"/><path class="cls-1" d="M495.16,340.58Z"/><path class="cls-1" d="M495.93,340.6c.34,0,.69.1,1.24.13Z"/><path class="cls-1" d="M495.93,340.66h.15l-.57-.06Z"/><polygon class="cls-1" points="496.12 340.68 495.93 340.66 495.87 340.65 496.12 340.68"/><path class="cls-1" d="M494.89,340.59l.31.06h.19Z"/><path class="cls-1" d="M495.08,340.59h0C495.16,340.61,495.18,340.61,495.08,340.59Z"/><path class="cls-1" d="M495.13,340.69l.11,0-.1,0Z"/><path class="cls-1" d="M495.51,340.67c.12,0,0,0-.21,0a.25.25,0,0,1,.09,0Z"/><path class="cls-1" d="M494.59,340.57l.32.05Z"/><path class="cls-1" d="M494.94,340.58h0C494.79,340.56,494.85,340.57,494.94,340.58Z"/><path class="cls-1" d="M494.94,340.58l.36.05-.19,0Z"/><path class="cls-1" d="M498.84,341.36c-.66-.12-1.07-.21-.46-.14-.39-.08-2.16-.35-3.14-.51.23,0,.44.07.74.13s.72.09,1.18.18c.24.07-.21,0-.51,0,.34,0,.57.1.83.16l1.11.21-.37-.09C498.39,341.28,498.67,341.34,498.84,341.36Z"/><path class="cls-1" d="M495.31,340.7h-.06l-.74-.11.63.11h.17Z"/><path class="cls-1" d="M495.27,340.67l1.47.23s-.48-.08-.72-.13c.12,0-.32-.06-.68-.09l-.14,0-.29,0h.14l.22,0-.22,0-.09,0h0l.3.07C495.34,340.7,495.33,340.69,495.27,340.67Z"/><path class="cls-1" d="M498.48,340.88h0Z"/><path class="cls-1" d="M498.09,340.86c-.08,0-.33,0-.25,0l.5.05a5,5,0,0,0-.75-.08h.09c-.23,0-1-.06-1.1-.08Z"/><path class="cls-1" d="M496.81,340.82l.27.07.53.05-.31,0C497.44,340.9,497.05,340.85,496.81,340.82Z"/><polygon class="cls-1" points="494.84 340.64 494.23 340.54 495.08 340.69 494.84 340.64"/><polygon class="cls-1" points="494.89 340.67 494.37 340.57 494.68 340.63 494.89 340.67"/><path class="cls-1" d="M502.56,339.24h0Z"/><path class="cls-1" d="M502.5,339.12l-.3,0Z"/><path class="cls-1" d="M494.55,340.41c-.38,0-1-.05-.51,0l.44,0C494.4,340.39,494.45,340.4,494.55,340.41Z"/><path class="cls-1" d="M498.08,339.56l.19,0-.58.1Z"/><path class="cls-1" d="M500.76,339.12l-.39.05Z"/><path class="cls-1" d="M503.23,340.25l.67,0C503.89,340.22,503.56,340.25,503.23,340.25Z"/><path class="cls-1" d="M494.81,340.75l-.31-.08C494.78,340.74,495.21,340.84,494.81,340.75Z"/><path class="cls-1" d="M495.61,340.05,496,340Z"/><path class="cls-1" d="M494.48,340.66l.12,0-.1,0C494.29,340.62,494.16,340.59,494.48,340.66Z"/><path class="cls-1" d="M501.31,342.73l-.1,0Z"/><path class="cls-1" d="M494.69,340.8h0Z"/><path class="cls-1" d="M494.56,340.65Z"/><path class="cls-1" d="M496.75,341.09l.26.06Z"/><path class="cls-1" d="M497.34,341.3h0C497.49,341.33,497.46,341.33,497.34,341.3Z"/><path class="cls-1" d="M494.81,340.7l-.17,0Z"/><path class="cls-1" d="M494.55,340.65h0Z"/><path class="cls-1" d="M494.58,340.66h.06l-.08,0Z"/><path class="cls-1" d="M500.29,341.45h-.07C500.5,341.5,500.46,341.49,500.29,341.45Z"/><path class="cls-1" d="M500.4,340h0Z"/><path class="cls-1" d="M500.81,339.85c-.82.09-.75.09-.47.11l-2,.08Z"/><path class="cls-1" d="M502.79,339.66l.58-.11a5,5,0,0,0,1.45,0c-2,.14-.2-.28-2.23-.1l.43-.09s.1,0,.08,0c.69-.13-.33,0-.88,0h0c-.23,0-.38,0-.32,0a4,4,0,0,1,.67-.11H502a1.7,1.7,0,0,1,.35,0l-.23,0h.06l-1.06.1c.27-.05.23,0,.47-.06l-.53,0a5.15,5.15,0,0,1,1-.1c2-.31-.54.05.55-.18h.3a11.59,11.59,0,0,0,1.33-.3c-.36.06-1.7.35-2.25.38.14,0,.2-.06-.24,0,.72-.11.52-.09.45-.1l.95-.15c-.31,0-.79.11-1.24.17.05,0,.78-.15,1.39-.26.09,0-1.13.2-1.39.22.31-.07-.11,0-.74.09l.85-.15-.79.13.36-.06-1.24.21c-1.06.18,1.44-.24.2,0l.95-.16-1.72.32.57-.08-2.29.39-.65.1-.48.09.74-.12-.2,0,1.35-.21-.57.08,1.79-.3-.27,0,.39-.07-.36.07,1-.16-.42.07.58,0c-1.11.2-2.73.46-3.24.58l2.2-.3c-1,.12.47-.12.31-.13.08,0,.52-.06.68-.09l-1,.2a5.47,5.47,0,0,1,.84-.08,7,7,0,0,0-1.53.28,3.84,3.84,0,0,0,.93-.16c1.09-.09-1.8.27-.88.2,0,0-.05,0,.21,0-.47.07-.16.09.29,0h0c.12.05-.13.26-1.41.35l1.8-.15-2.18.22-1.8.15c.39,0,3.71-.13,4.06-.24s.55,0,.26.11-1.88,0-2,.05h1.15l1.12,0c-.36,0-2.45.06-2.37.08l2.43-.05-1.07.07-1.13.06c.41,0,1.9,0,2.53,0-.44,0,0,.11-.21.14l-.51-.06c.31.15-3.18.06-3.08.14.47,0,2.85.08,3.12.17l-5-.16.33,0h-.38l.81.05,1.26.07c1.29.07,2.56.1,3.27.09.5.09.77.07.69.15a2.31,2.31,0,0,0,1,0l.34.27c-1.32-.12-1.36,0-2.45-.08l1.41-.09a24.74,24.74,0,0,0-3.55-.11c.51.09,2.33.25,2.77.3-.46,0-.88,0-.57.07l.71,0c.47.16-1.74-.11-.52.15.08,0,1.64.36.88.24s-2.22-.4-3.68-.63l-2.21-.35,1.16.28.72.14,1,.17c.65.11,1.29.2,1.78.31l-.91-.14c.29.08,1.07.19.91.22-1.28-.24.1.13-1.08-.19-.36,0,.26.11.21.15-.54-.12-1.7-.34-2.35-.46h0l-.37-.08.59.14c.17.06.75.21.82.23l1.18.28-.62-.14,1.39.33-1.32-.32c-1.06-.24-.27-.05.15,0l-2.82-.67.51.12c.27.05-1.66-.4-.89-.23l1.76.4c.2.05-.47-.09-.47-.09l.33.07c.2.05.32.08.13,0l.35.07.16,0a4.2,4.2,0,0,1,.57.07l-.85-.2.07,0-1-.22c-.35-.08-.94-.22-.6-.16l.79.15c-.23,0-.49-.08-.26,0-.33-.08,1.12.19.11,0l-.57-.1a9.36,9.36,0,0,1-.93-.21l-.85-.15c1.15.21-.08,0,1.12.23l-1.37-.26c.26.05.5.1.36.08l.22,0h0s.05,0,0,0l.39.08c.58.12.53.13.81.19l-.55-.12.42.1-1.23-.27h0l-.22-.05c-.12,0,.56.14.16,0l.29.08-.13,0c-.08,0,.77.19-.15,0,.11,0,.25.06.1,0l-.42-.1c.14,0-.43-.1,0,0l-.22-.05h0c-.75-.17,0,0-.23-.08l.52.1s.12,0,.32,0l.46.07c.36,0-.34-.1-.29-.12-.17,0-.13,0,0,0-1-.12.75,0,0-.09.17,0,.11,0,0,0H495l-.5,0h.93c-.8,0,.28,0-.57,0,.42,0,.33,0,1.23-.07h-.18c-.09,0-.19,0,.07,0l-.64,0,.89-.06c-.39,0-.62,0-1.13,0l1.11-.12-.43,0s.62-.07.27-.05c-.82.05,0-.11-.76,0,1.35-.18-.59.06.48-.08l-.79.11c.34-.07-.5.06.44-.09l-.69.1c.07,0,.29,0,.1,0l-.44.06,2.1-.33c-.44.06-.37,0,.3-.07l-.79.13s-.41.06.41-.08c-.21,0,0,0,.06,0s-.09,0,0,0l.13,0c1-.18.25,0,.4-.08l-.1,0c-.69.12.39-.06-.41.08l.65-.11c1.43-.24-.77.14-.2.05l.37-.07c.53-.07-1.91.33-2.09.36l-.31.05c-.84.14.9-.14,1.13-.17l-1.32.21c-.4.06,1.64-.22.71-.08l1.07-.14c.17,0-1.43.22-.18.07l-.3,0,.87-.06h0l.39,0c-2.54.26,1.22,0-1.12.22l.11,0H496a4.16,4.16,0,0,0,.94,0l-.5,0c-.48.07-.37.05.75.08h-.75c.42,0-1.18.07-.35.11h-.33c.81.08-2,0,.54.14l.61.07c.24,0,1.11.08,1.56.08a3.93,3.93,0,0,1-.94,0h.14c-1.33-.1-.53,0-1.43-.05,0,.07-.78,0-.89.07l1,.13h-.09l-.69-.11c-.55-.08.42.09.62.12-.41,0-1.08-.18-1.11-.18l.05,0h.12a4,4,0,0,1,.7.15l-.62-.1c-.06,0-.09,0,0,0h-.1l.73.12a3.78,3.78,0,0,0,.75.15c-1.27-.22-.59,0-1-.09.46.11.42.12.33.11a7.58,7.58,0,0,1,.77.19c-1.5-.36-.72-.14-1.8-.4.72.17.11.05,1.12.3l-.9-.23c.5.16-.45-.08-.31,0l.69.2-.89-.25c.08,0,1,.28.36.11l.41.12c-.47-.13-.35-.08-.35-.08l-.12,0-.65-.2.3.09.54.16-.56-.18c.5.14,0,0,.46.11H495l3.59,1c-1.65-.47,2.5.81.16.13l1,.3c-.79-.23-.94-.27-.57-.15l.19.06a8.2,8.2,0,0,0,1.21.38l-.88-.27.64.19-1.56-.47c1.79.55.15,0,2.15.6,0,0-1-.29-.95-.29l.54.15-.68-.2,1.25.35.15.05c.64.18-.16-.09.05,0l-.35-.07c-.41-.19.36-.06-.6-.4l-.39-.1c-.65-.21.47.08.21-.05l.09,0c-.36-.11-.53-.17-.47-.17.43.12.9.17,1.37.31a17.9,17.9,0,0,0-1.92-.52l.64.13a6.58,6.58,0,0,1-1-.26c.5.14,1,.19,1.64.37,1.42.2-1.26-.38.75,0a4.5,4.5,0,0,0-1.36-.21,3.86,3.86,0,0,1-1-.26c.06,0,2.21.38,2.23.3s.12,0,.1,0c.45,0-.54-.16.18-.07-1-.18.09,0-1.2-.25l.25.11c-.31-.1-1.79-.35-1-.29l.77.15c.39.05-.23-.07.18,0,1.28.19.22.11,1.17.31.56.07-.88-.22.51,0-1.76-.31.27-.06-1-.3l.77.11a3.79,3.79,0,0,1-.44-.11l1,.16c-.83-.16.78,0,.35-.1a8.69,8.69,0,0,1-1.52-.13c-.95-.22,2,.18,1.73,0a2.59,2.59,0,0,1-.82-.05c.17,0,.47,0,.88,0-.12-.12-.79-.06-1.23-.15.93.06-.36-.08-.63-.14l.77.07c.53-.07-1.58-.16-.95-.2l1,.11-.25-.07.86.08c-.62-.11-.45-.11-.18-.16a7.42,7.42,0,0,1-1.38-.13c.47,0,.72.06.63,0,.47,0,1.06.09.35.08l.71.06c.53,0,.14-.1.15-.12a.66.66,0,0,1-.19,0l-1-.15a5.4,5.4,0,0,1,.73,0c-.08,0-.42,0-.47-.08a12.21,12.21,0,0,1,1.51.1l-.65-.13c.26,0,.74-.05,1,0s-1.18-.18-.71-.26a1.48,1.48,0,0,1-.31,0c.14-.08.85-.18.07-.25l1.06-.11c-.22-.07-1.34.14-1.71,0s.9-.08,1.2-.13c-.52,0-1.59,0-.73-.16C502.87,339.61,502.71,339.64,502.79,339.66ZM502,339c.16,0,.65-.07.23,0C501.4,339.14,501.78,339.07,502,339Zm-2.62.36c.24-.05.14,0-.12,0C499.19,339.4,499.21,339.41,499.38,339.39Zm-4.4,1.38h0C494.77,340.72,494.86,340.74,495,340.77Zm.27.05-.24-.05.1,0Zm.32,0,.16,0C495.89,340.84,495.74,340.81,495.57,340.78Z"/><path class="cls-1" d="M500.45,339.17l-.39.06Z"/><path class="cls-1" d="M503.1,340.25h0Z"/><path class="cls-1" d="M500.8,341.78l-.46-.12A1.65,1.65,0,0,1,500.8,341.78Z"/><path class="cls-1" d="M494.32,340.58l.16,0,.21,0Z"/><path class="cls-1" d="M498.45,341.2l-.09,0-.3,0A2.33,2.33,0,0,0,498.45,341.2Z"/><path class="cls-1" d="M496.41,341c.52.1.36.06.28,0h0C496,340.87,496.18,340.92,496.41,341Z"/><path class="cls-1" d="M496.67,341s0,0,0,0C496.38,340.94,496.61,341,496.67,341Z"/><path class="cls-1" d="M495,340.74l-.43-.09C493.89,340.51,495.26,340.82,495,340.74Z"/><polygon class="cls-1" points="498.15 341.3 497.5 341.18 498.01 341.29 498.15 341.3"/><path class="cls-1" d="M497.51,341.27l.21,0-.21,0S497.32,341.23,497.51,341.27Z"/><path class="cls-1" d="M497.51,341.25s0,0-.08,0Z"/><polygon class="cls-1" points="498.35 341.37 498.17 341.34 498.08 341.34 498.35 341.37"/><path class="cls-1" d="M497,341.26l.13,0,.25.06Z"/><path class="cls-1" d="M499.21,341.75l-.66-.14,1.05.24Z"/><path class="cls-1" d="M499.36,341.81l.77.19Z"/><polygon class="cls-1" points="497.59 341.11 497.58 341.12 496.31 340.9 497.59 341.11"/><path class="cls-1" d="M502.48,340.62c.47.14-1.25,0-.66.11-.49,0-.48-.1-.9-.09A5.78,5.78,0,0,1,502.48,340.62Z"/><path class="cls-1" d="M500.92,340.64l-.32,0Z"/><polygon class="cls-1" points="494.22 340.65 494.05 340.6 494.31 340.68 494.22 340.65"/><path class="cls-1" d="M494.77,340.79l-.49-.13.43.11S494.65,340.76,494.77,340.79Z"/><path class="cls-1" d="M503.85,338.68l-.24,0a1.3,1.3,0,0,0-.28.06Z"/><polygon class="cls-1" points="503.55 339.18 503.56 339.17 502.7 339.28 503.55 339.18"/><path class="cls-1" d="M504.65,339.74s-.16-.05-.11-.08S503.55,339.81,504.65,339.74Z"/><path class="cls-1" d="M530,356.31c-.11,0,.24.53.28.63C530.33,356.74,529.9,356.17,530,356.31Z"/><polygon class="cls-1" points="530.56 354.32 530.67 354.56 530.54 353.9 530.56 354.32"/><path class="cls-1" d="M531.78,353.62c-.66-.85-.35.41-.76.21l-.16-.19.34.8C531.39,354.16,531.44,353.47,531.78,353.62Z"/><path class="cls-1" d="M533.61,355.23c-.25-.34,0-.39-.22,0l.08.07A.27.27,0,0,1,533.61,355.23Z"/><path class="cls-1" d="M533.47,355.28c-.11.1.27.25,0,0Z"/><path class="cls-1" d="M534,354.72l0,.42c.16.19.34.15.37.34C534.41,355.2,534.25,355,534,354.72Z"/><path class="cls-1" d="M533.7,354v.19C533.77,354.22,533.81,354.24,533.7,354Z"/><path class="cls-1" d="M533.68,354.54l0-.4c-.12-.13-.3-.43,0,.15C533.53,354,533.65,354.3,533.68,354.54Z"/><path class="cls-1" d="M533.49,354.46c-.21-.14-.41-.2-.43-.61C532.82,354.16,533.25,354.78,533.49,354.46Z"/><path class="cls-1" d="M531.28,352.63l-.29-.2.08.38C531,352.62,531.46,352.91,531.28,352.63Z"/><path class="cls-1" d="M535.29,354.56c-.11-.2-.37-.48-.54-.73v.3A1.28,1.28,0,0,1,535.29,354.56Z"/><path class="cls-1" d="M534.75,353.83v-.44C534.55,353.45,534.61,353.62,534.75,353.83Z"/><polygon class="cls-1" points="533.12 352.92 533.24 353.8 533.18 352.87 533.12 352.92"/><polygon class="cls-1" points="536.02 354.15 536.19 354.66 535.97 353.87 536.02 354.15"/><path class="cls-1" d="M536.45,353.77c.15.42.5.57.55.85a1.66,1.66,0,0,0-.07-.88C536.92,354,536.78,354,536.45,353.77Z"/><path class="cls-1" d="M536.84,353.22a2.69,2.69,0,0,0,.09.52A1.86,1.86,0,0,0,536.84,353.22Z"/><path class="cls-1" d="M535.12,353.29a1.42,1.42,0,0,0,.48.46l-.41-.5Z"/><path class="cls-1" d="M535.18,353.24h0l.18-.07Z"/><path class="cls-1" d="M535.1,353.3h0C535.08,353.24,535.06,353.22,535.1,353.3Z"/><path class="cls-1" d="M533.91,353.12a1.44,1.44,0,0,0-.55-1.17C533.51,352.37,533.8,352.56,533.91,353.12Z"/><path class="cls-1" d="M534.59,352.67h-.28a1.81,1.81,0,0,1,.3.52Z"/><polygon class="cls-1" points="534.58 352.44 534.59 352.67 534.69 352.67 534.58 352.44"/><path class="cls-1" d="M536.18,352.92a.47.47,0,0,1,.1-.48.62.62,0,0,0-.44.05C535.93,352.67,536.07,353,536.18,352.92Z"/><path class="cls-1" d="M535.66,353v0S535.61,352.93,535.66,353Z"/><path class="cls-1" d="M537.32,351.79l-.07-.08,0,.09Z"/><path class="cls-1" d="M535.76,352.4c-.15,0-.12.11-.07.31a.44.44,0,0,1,.15-.22C535.8,352.41,535.77,352.36,535.76,352.4Z"/><path class="cls-1" d="M537,352.78a3.49,3.49,0,0,0-.33-.21C536.79,352.72,537,352.93,537,352.78Z"/><path class="cls-1" d="M535.79,353.11v0C535.89,353.25,535.85,353.19,535.79,353.11Z"/><path class="cls-1" d="M535.79,353.11a2.9,2.9,0,0,0-.1-.4,1.06,1.06,0,0,0,0,.27A.8.8,0,0,1,535.79,353.11Z"/><path class="cls-1" d="M535.43,348.13c.3.5.38,1.11-.15.69a10,10,0,0,0,2,2.89,1.34,1.34,0,0,1-.26-.85c-.24-.23-.83-.37-1-.92.09-.42.32,0,.62.23-.51-.56-.26-1.12-.9-2l0,.47C535.64,348.5,535.57,348.22,535.43,348.13Z"/><path class="cls-1" d="M536.84,351.89l0,.11c.15,0,.34.19.71.51a1.49,1.49,0,0,0-.21-.71l-.44.18Z"/><path class="cls-1" d="M536.44,352.23c-.28-.59-.23-.94-.72-1.46-.21.19.12.56.13.89.29-.37.08.37.55.51a.49.49,0,0,1-.12.27,2.28,2.28,0,0,1,.36.13l0,0h0c-.06-.06-.09-.1-.05-.07v0a2.12,2.12,0,0,1-.11-.21c.18,0,.11.13.11.21l.05.09h0l.19-.54C536.67,352,536.58,352.06,536.44,352.23Z"/><path class="cls-1" d="M532.84,350.64a.31.31,0,0,1,.09.12C532.92,350.67,532.9,350.62,532.84,350.64Z"/><path class="cls-1" d="M533.2,350.88c0,.09.13.32,0,.32s-.16-.26-.28-.44a.81.81,0,0,0,.39.67l0-.09a3,3,0,0,1,.9.76A11.8,11.8,0,0,0,533.2,350.88Z"/><path class="cls-1" d="M534.74,351.41l.15-.46-.46-.38.19.28C534.37,350.85,534.63,351.18,534.74,351.41Z"/><polygon class="cls-1" points="537.53 352.04 537.86 352.65 537.52 351.71 537.53 352.04"/><polygon class="cls-1" points="537.9 351.71 538.21 352.22 538.12 351.85 537.9 351.71"/><path class="cls-1" d="M546.7,340.08l-.06.19A.82.82,0,0,0,546.7,340.08Z"/><path class="cls-1" d="M547.5,339.88l-.07-.29C547.44,339.76,547.46,339.88,547.5,339.88Z"/><path class="cls-1" d="M547.71,344.34c.49.3,1.21.81.75.33l-.48-.45C548,344.39,547.86,344.39,547.71,344.34Z"/><path class="cls-1" d="M550.54,335.63l-.18-.08.43.46Z"/><path class="cls-1" d="M548.46,333.91l.45.1A2.11,2.11,0,0,0,548.46,333.91Z"/><path class="cls-1" d="M542.51,341.83v.68C542.72,342.46,542.56,342.16,542.51,341.83Z"/><path class="cls-1" d="M542,348.69a.8.8,0,0,0,.52.11C542.12,348.6,541.68,348.22,542,348.69Z"/><path class="cls-1" d="M545.09,333.35a.82.82,0,0,0,0,.41A.59.59,0,0,0,545.09,333.35Z"/><path class="cls-1" d="M542.81,348.56l-.15-.08c0,.15,0,.28-.18.32C542.74,349,543,349,542.81,348.56Z"/><path class="cls-1" d="M526.27,343s0,0,0-.08S526.24,343,526.27,343Z"/><path class="cls-1" d="M522,336.21a.32.32,0,0,1,.18,0C522.19,336.13,522.14,336.13,522,336.21Z"/><path class="cls-1" d="M539.72,350.87c-.07.09,0,.07,0,0Z"/><path class="cls-1" d="M537.88,349a1,1,0,0,0-.14-.29A1.71,1.71,0,0,1,537.88,349Z"/><path class="cls-1" d="M541.23,344.69h0C541.14,344.6,541.16,344.62,541.23,344.69Z"/><path class="cls-1" d="M539.42,350.71l.22.09A.69.69,0,0,0,539.42,350.71Z"/><path class="cls-1" d="M539.61,351h-.11C539.55,351.05,539.6,351.1,539.61,351Z"/><path class="cls-1" d="M539.82,350.76a.21.21,0,0,1-.18,0,.19.19,0,0,1,.08.07Z"/><path class="cls-1" d="M534.76,340.8l0-.06C534.66,341,534.7,341,534.76,340.8Z"/><path class="cls-1" d="M545,337.62l0,0h0Z"/><path class="cls-1" d="M544.88,337c.47.67.34.66.14.61l1.41,1.25Z"/><path class="cls-1" d="M544.85,340.77l.41.49c-.08,1-.39.76.06,1.49-.47-2,1-.48.49-2.45l.28.36c-.06,0,0,.12-.09.11.6.85-.14-1.49.36-1.32a.69.69,0,0,1,.34.63l.19-.59c.1,0,.18.36.07.35l.46-.3v0a9.08,9.08,0,0,1,0-1.07c.21.24,0,.23.1.46l.13-.56c.27.48.19,1,0,1,.85,1.87.08-.56,1,.41l-.19.32c.51,1.05.6.6,1.12,1.18-.19-.33-1.15-1.54-1-2.12.13.13.26.16.3-.29.22.69.33.47.51.37l.28.91c.13-.33,0-.79,0-1.24.27,0,.55.7.81,1.27.44,0-.64-1-.25-1.36.43.24.53-.2.71-.88.33.23.16.56.33.79l-.07-.79c.06,0,.12.23.15.34.07-.34-.31-.9-.15-1.24-.3-1,1.06,1.26,1,0a5.13,5.13,0,0,1,.32.9,1,1,0,0,0,0-.43L548.91,333a3.79,3.79,0,0,0,.69,1.15l-.69-.15a3.8,3.8,0,0,1,1.63,1.62c.33.15.61.28.76.33l.16.64a2.54,2.54,0,0,1-.67-.59l.14.2a2.92,2.92,0,0,1-1.13-.91l.56.25a8.38,8.38,0,0,0-1.32-1.22.53.53,0,0,1,.13.26,1.68,1.68,0,0,0-.3-.27c-.09-.05.06.11.21.31l-.9-.58.33.27-.82,0c.62.93,1.64,2.18,1.59,2.94a11.63,11.63,0,0,0-1.66-1.47c.85.52,0-.61.3-.7-.18.05-.5-.25-.59-.38l.35,1c-.57-.5-.5-.29-.83-.39,1.21.9.52,1,.71,1.42-.39-.33-.73-.71-.47-.82-1-.53,1.07,1.44.16,1,0-.06.11,0-.06-.22.23.41-.28.44-.54.08l0-.05c-.41.19-.87.93,0,1.86-.12-.11-1.06-1.11-1.23-1.31.85,1.18,1.69,2.37,2.5,3.58-.72-.83-2.74-2.5-2.93-3.18-.18,0-.4-.09-.27.34a5.86,5.86,0,0,1,1.23,1.14,11.82,11.82,0,0,0-1.53-.86c.24.1,1.34,1.42,1.18,1.49-.16-.2-1.18-1.21-1.26-1.38l.86,1.5a6.66,6.66,0,0,0-1.36-1.34c.26.21-.28.21-.24.41l.39.17c-.51.12,1.27,2.06.85,2.32-.19-.3-1.32-1.69-1.64-1.7.5.71,2.38,3.43,2.47,4.23l-.38-.32.1.65c-.67-1.13-2-3.58-2.5-4.57-.39-.18-.42-.4-.59-.2a.69.69,0,0,1-.32-.69l-.63.15c.68.75.31,1.06.87,1.69l-.19-1.21c.68.74,1.58,2.42,1.13,2.57a15,15,0,0,1-1.31-1.68c.18.3.11.76-.08.6l-.2-.53c-.43-.15.54,1.28-.29.71-.12,0-1-.83-.68-.35a39.4,39.4,0,0,1,3.55,4.29,8.63,8.63,0,0,1-1.56-.88c-.68-.61-1.13-1.85-1.72-2.37a2.4,2.4,0,0,1,.34.65c-.22-.12-.49-.69-.59-.46.6.83-.42.21.44.75,0,.37-.31,0-.5.17a5.7,5.7,0,0,1,1.16,2.31,3.66,3.66,0,0,0-.5-.56c-.43.21-.91,0-1.27.23-.18-.17-.52-.3-.71-.7.06.18.21.49.12.59-.73-.57.16-.28-.62-1,.33.49.2.86.26,1.28.58.71.46-.12.4-.53a5.67,5.67,0,0,1,1.19,3.05c-.12.48-.6-.57-.55-.38-.7.21.77,2.15-.24,1.73a9.23,9.23,0,0,1-1.28-1.77c.08-.42.67.16.82,0l-.42-.17c-.07-.28,0-.56.2-.43-.57-.49-1,.55-1.85.29a1.54,1.54,0,0,0,.33.82l.08-.18c.49.45.23.92.58,1.06.06.5.24,1.24-.23,1.11l-.56-.73c.16.22.48.34.4.06.11.41-1.09-.78-.56.31l.54.41c.06.51.35,1.5-.05,1.41.6.69,0-.12.75.66-.87-1,.65-.37-.35-1.37.85.91.59.23,1.4,1-.17-.25-.4-.43-.11-.44a2.16,2.16,0,0,1-.1-.25h0l0,0c0-.05,0-.06,0,0a1.76,1.76,0,0,1-.36-.32c-.28-.65.05-.84,0-1.21.2,0,.15.32.39.55l-.14-.56c.39.55.94.71.88,1.23l.27-.15c.37.21.66.19.63-.13.2,0-.12-.82.07-.31l.17-.62.1.13c.44-.21.15-1.48,1.31-.81,0-.24,0-.5.38-.51l.38.44c.05-.29.86.08.57-.46,1.13,1.11,1-.34,1.49-.36L545,347c.23-.12.28-.45.34-.88l-.44-.51c-.14-.6.85-.06,1.13-.4.14.22,0,.24-.14.17,1.37.82.1-1.55,1.18-1-.07-.26,0-.25.22-.18a0,0,0,0,0,0,0,.05.05,0,0,0,0,0l.36.16a1.49,1.49,0,0,0-.34-.17.7.7,0,0,0,.09-.45l.52.5s0,0,0,0c.28.11-.15-.32-.56-.68a2.07,2.07,0,0,0-.17-.44c.87.79,0-.52.94.29-.35-.5.18-.79-.65-1.76.12.12.2.15.16.21.21,0,.41,0,.25-.35l.69.61L548,341a2.2,2.2,0,0,1,1.18,1.07c-.44-1.11,0-.57-.51-1.6l.41.43c.09-.12-.32-.83.09-.55,1,.53,1.19-1,2.51-1-1.44-1,.85.21-.17-.69.35.23.61.29.79.62,0-.59.93-.09.23-1,.36.22.42.45.64.57,0-.09-.2-.33,0-.22s.24.27.33.44c.23-.4-.75-1.23-1.68-2,.58.17.58,0,0-.56.36.17.76.32.71.62.14-.09,1-.41.26-1,.18.09.19-.06.14-.17l-2-4.79-.32,1.76V333c-.31.05-.37,0-.62.17l.13.12c.29,1.12-.15.33-.33.54l0-.11c-.81-.6-.1.46-.94-.25l.27.67c.46,1.48-.77-.71-.88,0l.24.35c0,.56-1.14-1.84-1.35-2s0-.23,0-.34c-.71-.72.24.92,0,1.23-.22-.46-.32-1.25-.57-1.27-.22-.35-.13,1.76-.71.92a1.71,1.71,0,0,1,.29,1c-.2.21-1-1.23-.91,0a1.38,1.38,0,0,1-.13-.28c-.08.36-.43.66-.36,1.34-.82-2.35-.82,1.47-1.4-.74l-.52.25,0-.23c-.39-.06-.38.5-.38,1.07a.92.92,0,0,1-.13-.48c-.63-.32-.65-.21-.84,1l-.21-.72c0,.45-1-1-1.33,0a1.29,1.29,0,0,1,0-.34c-.42,1-1.75-1.78-1.48.93l-.27.73c.54.11.12,1.17.41,1.57-.18.2-.66-.71-.43-.89l.06.13c-.15-1.41-.71-.39-.85-1.35-1,.23-2-.42-3-.38l.23,1.08-.33,0c-.11-.25-.2-.84,0-.82-.19-.61-.33.56-.31.8-.49-.4,0-1.29-.1-1.3l-.18.1.06.12c-.1.46-.07.93-.35.9-.2-.2-.16-.66-.23-.7s0-.11-.11,0l-.41-.06.24.85c-.14.44-.38,0-.11.95-.41-1.47-1.57-.42-1.77-.88-.22.65-.47.65-.79.59.09.18.19,1.15-.09,1,0-2-.54-.85-.81-2.29.23.95-.74.27-.4,1.62-.23-.16,0-.76-.22-1.22-.51.8-1.17-.49-1.81-.22a3,3,0,0,1,0,1.06l-.34-1.32c-.13.13-.13,1.52-.36.6,0,.23.08.56,0,.64-1.24-1.3-2.7,1-3.84-1.52.13.52,0,.56-.12.57.08.13-.05.65-.06,1l-.47-1c-.18,1-.58,0-.73,1l.19-.15c-.33,1.09.11,2.5,0,3.93.37-1.25.58,1.94,1.16.16.08.3-.11.45-.08.79.16-.6.3-.73.54-.44l0,.15c.73-.11,1,.52,1.82,1l0-.72c.17.1.2.33.28.51.23-1.07-.49-.08-.27-1.26.19,1.45,1.22,0,1.35,1.7.27,0-.07-.83.2-.81l.07.45.08-.58c.17.1.26.66.26,1,0,0-.13.1-.17.13.23.53.65-.18.73,0l-.26-.27c.74-.42,1.66.17,2.35-.77l-.07-.33c.52-.64.45.35,1,0l0,.08c.11-.33.26-.51.42-.48-.13.41.32.75.15,1.19.55-.7.26-.54.57-1.8l.13.55c.1-.52.09-.78.37-.94-.21.49.25.83,0,1.48.71,1.17.82-1.29,1.25.46.16-1.56-.6-.8-.47-1.15-.17-.49.14-1.17.34-1s.5,1.93,1,1.86c0,0,0,.11-.09.11.23.37.32-.56.61.05,0-.94.31,0,.22-1.16l-.43.32c.23-.34.32-1.74.81-1.13a2.83,2.83,0,0,1-.17.76c.17.33.22-.26.39.08.09,1.19-.53.33-.71,1.26.19.49.44-.92.44.38,0-1.65.52.14.71-1.14l.06.71c0-.12.11-.47.21-.46l-.06.94c.18-.82.62.62.83.16-.55.09-.23-.84-.53-1.32.54-1,.63,1.8,1.36,1.34-.09.12-.45-.36-.34-.71a1.69,1.69,0,0,1,.55.72c.48-.22-.19-.71,0-1.18.3.83.2-.39.37-.69l.11.71c.65.37-.08-1.51.52-1l-.06,1,.23-.3.08.82c.19-.65.31-.51.63-.34-.15-.49-.19-1.3.06-1.37.25.4,0,.7.36.53,0,.46,0,1-.26.41,0,.24,0,.46,0,.69.27.46.49,0,.62,0a.25.25,0,0,1-.17-.14l.33-1.08a1.17,1.17,0,0,1,.09.7c.09-.1.1-.43.24-.53a3.18,3.18,0,0,1,0,1.5l.37-.75c.09.25.4.64.38.86.35.28.44-1.26.9-.89a.58.58,0,0,1,.07-.32c.37.06.84.68,1.06-.2l.48,1c.26-.31-.62-1.22-.19-1.73s.35.84.55,1.09c.07-.56.12-1.68.67-.94C545.07,340.79,544.94,340.66,544.85,340.77Zm3.72-1.55c0,.17,0,.66-.22.27C548.19,338.67,548.37,339,548.57,339.22Zm.55-4c-.16-.19,0-.18.25-.08C549.38,335.22,549.31,335.26,549.12,335.21Zm-8.78,14.53v0C540.63,349.84,540.52,349.78,540.34,349.74Zm-.47-.06a.71.71,0,0,0,.16.26c-.08-.17,0-.22.08-.23C540,349.56,539.87,349.48,539.87,349.68Zm-6.67-13.62.08.18C533.16,336.46,533.18,336.27,533.2,336.06Z"/><path class="cls-1" d="M548.7,334.11c.11.06.22.14.34.22A.67.67,0,0,0,548.7,334.11Z"/><path class="cls-1" d="M542.51,341.71h0l0,.13Z"/><path class="cls-1" d="M540.55,341.62a1,1,0,0,1,.33.21C540.77,341.69,540.66,341.59,540.55,341.62Z"/><path class="cls-1" d="M539,351.74l.09-.29c-.07.09-.19,0-.3-.08C538.87,351.51,539,351.69,539,351.74Z"/><path class="cls-1" d="M535,349c0,.09-.05.05,0,.14l.19.28A.28.28,0,0,0,535,349Z"/><path class="cls-1" d="M537.51,349.83c-.35-.5-.35-.25-.42-.07h0C537.53,350.49,537.52,350.16,537.51,349.83Z"/><path class="cls-1" d="M537.07,349.8c0,.05-.06.09-.11.09C537.13,350.18,537,349.92,537.07,349.8Z"/><path class="cls-1" d="M539.73,350.26c-.15-.08.39.68.22.49C540.31,351.45,539.84,349.69,539.73,350.26Z"/><polygon class="cls-1" points="536.31 348.22 536.77 348.82 536.51 348.26 536.31 348.22"/><path class="cls-1" d="M537.63,348l-.32,0a.35.35,0,0,1,.08.25C537.54,348.16,537.76,348.2,537.63,348Z"/><path class="cls-1" d="M537.39,348.23c-.07,0-.12.08-.09.21A.29.29,0,0,0,537.39,348.23Z"/><polygon class="cls-1" points="536.47 347.85 536.62 347.94 536.79 347.89 536.47 347.85"/><path class="cls-1" d="M539.9,346.64l.09-.33c-.13-.22-.28-.31-.3-.17A.84.84,0,0,0,539.9,346.64Z"/><path class="cls-1" d="M538.06,345.41a2.26,2.26,0,0,1,.42.41l-.52-.77Z"/><path class="cls-1" d="M538.56,344.8c-.12-.23-.12-.83-.35-.59C538.33,344.44,538.25,344.77,538.56,344.8Z"/><polygon class="cls-1" points="542.44 343.37 542.4 343.42 543.36 344.61 542.44 343.37"/><path class="cls-1" d="M542.68,338.39c-.46-.08.58.75.08.59.19.31.41.13.56.41C543.2,339,543.41,339.08,542.68,338.39Z"/><path class="cls-1" d="M543.32,339.39c0,.06,0,.14.09.23A.61.61,0,0,0,543.32,339.39Z"/><polygon class="cls-1" points="521.4 335.34 521.24 335.01 521.31 335.53 521.4 335.34"/><path class="cls-1" d="M520.93,336.44l0-1-.2.87C520.82,336.29,520.91,336.22,520.93,336.44Z"/><path class="cls-1" d="M549.74,340.9l-.06-.22c-.11-.24-.16-.24-.27-.24Z"/><polygon class="cls-1" points="546.7 341.06 546.75 341.07 546.42 340.25 546.7 341.06"/><path class="cls-1" d="M544.58,342.78c.1,0,.17-.21.28-.2C544.68,342.79,544.29,341.72,544.58,342.78Z"/></svg>