<svg id="Layer_1" data-name="Layer 1" xmlns="http://www.w3.org/2000/svg" viewBox="0 0 720 792"><defs><style>.cls-1{fill:#231815;}</style></defs><title>logo 2020.09.16-11</title><path class="cls-1" d="M647.07,317.68c.45-3.68,1.41-8-.15-7.09l-1.32,1.53A14.35,14.35,0,0,1,647.07,317.68Z"/><path class="cls-1" d="M651.79,463.89a38.17,38.17,0,0,0,2.53-6.94C652.61,460.22,650.59,462.67,651.79,463.89Z"/><path class="cls-1" d="M655.85,448.6c-.25.48-.44,1-.67,1.46a35.49,35.49,0,0,1-.86,6.89C655.55,454.53,656.53,451.63,655.85,448.6Z"/><path class="cls-1" d="M648,425.9v-.18C647.58,426.31,647.66,426.21,648,425.9Z"/><path class="cls-1" d="M371.52,127.82c1.71.55,3.4,1.13,5.09,1.74-6.29,2.3-10.66,1.37-5.95,3.67.42-2.71,5.4-2.74,10.37-2.56s9.92.48,10.55-2.18l3.26,1.48c-1-.15-1.15.15-2.1,0,3.14,1.63,4.44.81,6.05-.22s3.5-2.24,7.69-1.22c2.9.85,4.8,2,2.7,2.31,2.25-.07,4.51-.17,6.77-.17,1.88.47,1.24,1.31-.63.84l5,.76,5,.86-.11.14a40.26,40.26,0,0,1,6.81-1.18c2.33,1.37-1.41.25-.92,1.06,1.93,0,3.87,0,5.8.13,1.85,2-3,2-6.72.94,1.9,3.27,3.09,3.17,5.09,3.09a14.24,14.24,0,0,1,3.8.21,16.51,16.51,0,0,1,2.67.83,24.39,24.39,0,0,1,3.33,1.82c-1.75-.29-3.48-.62-5.24-.83a10.92,10.92,0,0,0,4.82,3.91,35,35,0,0,1,6.77,3.76c-.5-.71-2.9-2.82-4.48-4.58s-2.28-3.37.84-3.12a12,12,0,0,0,2.8,1.2,14.55,14.55,0,0,0,4.25.6c-.29.92.35,1.53,1.55,2s2.95,1,4.83,1.65l-1.14,2.3c4.27.83,4.42-.5,7.23-.67,4.39,2,4.52,4.31,4.91,6.27,3.43,1.66,2.54.43,1.84-.85s-1.21-2.6,3.1-1c5.44,3.59,10,4.44,17.51,6.7,3.6,2.85-1.43,1-.33,2.41,1.48,0,3,0,4.49.07.83.53.25.92,0,1.12,3.31,1,1.47-2.11,6.46-.06.66-.44,1.46-.09,2.41.68a16.23,16.23,0,0,1,1.51,1.43l1.67,1.88c2.35,2.66,5.25,5.52,8.88,6,.93,1.53-1.51.86-1.65,2,4.26,1.68,6.08,2.48,7.77,3.08s3.32,1,7.11,2.13l4,5.2c-1.26-2.17-.37-2.81,1.52-2.68a18.24,18.24,0,0,1,3.44.69c1.31.35,2.64.89,4,1.38a33.45,33.45,0,0,0-1.83-4.27c2.52,1.42,5,3,7.46,4.45.52,1-.72,1.09-2.47,1,.58.21,1.13.41,1.59.54,1.72,2.7-.47,2.78-3,2.48-.46-1-.9-2.13-1.31-3.18-2.6-.16-5.15-.07-5.77,1.37a8.51,8.51,0,0,1,2.53,1.24c-.68,0-1.18,0-1.15.4s1.06.51,2.52.9l-.39,3.4,1.08-.57,3.55,4.17c1.16,1.42,2.3,2.83,3.4,4.28,1.9.78,3.82,1.48,5.76,2.24s3.93,1.54,6,2.5A49.46,49.46,0,0,1,577,212.67c-3.65-.94-3,1.77-5,3.29-.31-4.29-7.23-6.39-11.35-11.23,2.15,2.56.78,2.86-.1,2.55,1.62,1,3.2,2.15,4.79,3.26s3.19,2.22,4.74,3.38c-1.68,1.17.51,2.8,1.83,5.59,1.54-4.35,7.58,4.7,11.39,7.63-.88,1.07-2.64,1-6-3.56.81,3.38,3,4.2,5.19,5s4.44,1.65,5.3,4.87c-.87-1.09-1.16-1.82-2-1.84a16.53,16.53,0,0,1,4.3,5c1,1.9,1.5,3.44.48,3l-.82-1.11c1.22,1.95,2.87,4.33,4.64,6.86s3.6,5.2,5.45,7.59c3.52,4.9,7,8.71,8.79,8.51a17,17,0,0,1-5,.87c5.93,2.82,12.1,5.78,18,9.13-1.64,0-3.36,2.07-5.31,3.34s-4.1,1.78-6.55-1.22a20.59,20.59,0,0,0,4.41,8.38c-.29-1.5,2.09-5.19,3.27-3.47-.07,1.61-.14,2.69-.16,3.52a14.8,14.8,0,0,0,.08,2,58.72,58.72,0,0,1,.57,6.21c-.38-2.28,4.91-1.93,6.18,1.45-.84-.25-4,2.05-5,1.05l7.5,6.45c-1.59-1.76-3.68,1.06-4.13,3.33.53-1.18,2.66,7.08,3.79,9.15-.09-1.28-.15-2.58-.27-3.86,1.36,4.78,3.64,6.58,6,8.42a18.69,18.69,0,0,1,3.38,3.15,14.13,14.13,0,0,1,2.61,5.42c-1.23-.92-6.31-1.23-5.47,3.72a63.77,63.77,0,0,1,8.23,5.16c3.48,2.64,7,6.25,8.83,10.53l-.94,2q1.44,3.26,2.77,6.57c-2.07-1.85-5.48-5.4-8.95-9.06s-7-7.48-9.17-10.19c-.11,3.84-1.23,1.37.18,6.71-.75,2.17-2.5-2.48-3-4,.8,4.18,1.47,8.39,2.07,12.59,1.26-.55,2.42,1.7,3.47,4s2,4.65,3.1,4.22q-2.54-6.67-5.43-13.17c1.24-.57,3.57,1,5.7,3.89a24.69,24.69,0,0,1,4.56,11.81c-.7,2.48-5-1-5.86-.66,1.13,1,3,8.31,2.42,9.24-.61-1.23-1.26-2.44-1.91-3.65-.14,2.57.94,4.51,1.87,6.62a9.46,9.46,0,0,1,.64,7.56c0,2.14-3,6.48-1.4,6.75,2.9-3.56,12.24-5,14.75-2.72-.07.39-.69,3.34-1.44,6.48a36.08,36.08,0,0,1-2.53,7.71c-1.18,1.8-2.63.46-4-.91s-2.78-2.78-3.79-1.28c.74.11,1.67,2,2,2.84-.61,2.24-2.25-.9-1.93,3.92,2.71.83-.4,9.86,2.27,2.32a12.94,12.94,0,0,1-.08,5,26.54,26.54,0,0,0-.73,5.61c.91-.84,2.38.49,3.62,2.67a20.73,20.73,0,0,1,2.44,7.7c-.66-.35-1.68.66-2.14,1.14-.32,2.46-.65,4.63-1,6.64s-.83,3.84-1.25,5.66-.88,3.61-1.29,5.51c-.21,1-.42,1.94-.62,3s-.44,2.09-.65,3.22c-.8.73-2.39,4.92-3.2,2.85a11.9,11.9,0,0,1,.37,5.53c-3.42,4.84.92-6.23-2.7-2.74.74.34.91,2.22.9,4.55s-.29,5.08-.26,7.16c1.33-.31,2-2.56,2.28-5.25a57.56,57.56,0,0,0,.09-7.88c3.29.61,5.46,8.31,4.52,18.25-.55,3.9-1.33,4.57-1.91,4.45s-1-1-.93-.3a34.35,34.35,0,0,0-1.69,8.15A29.75,29.75,0,0,0,641,490a17,17,0,0,1,0,4.73,19.69,19.69,0,0,1-2.67,6.46c-3.7,3.82-4.1-1.25-5.93-.77a23.75,23.75,0,0,1,2.9-7.16,28.11,28.11,0,0,0,2.79-5.63l-2.59,4.69a19.23,19.23,0,0,1,2-8.28c-1.49,1.64-3.37,7.43-5.78,14s-5.39,13.86-8.43,18.59c-.11,2.1-.84,5.52.61,4.4.39-1.12.79-2.23,1.16-3.35,1.43-1.16,1.34.61,1.16,2.2s-.4,3,.9,1.09c-.82,4.86-1.37,10.62-5.36,16.24H619c.71.21,3.32-3.27,3.49-5.31-.14,1.5-2,3.46-3.75,5.52s-3.23,4.23-2.58,6.36q1.89-1.66,3.77-3.37c-.59,2.43-1.07,5.28-1.9,8.15a22.64,22.64,0,0,1-3.95,8.08c3.51-1.1.48-1.32,5.19-3.58-2.5.72-.42-2.6,1.36-5.79s3.34-6.13.29-4.34c5-2.38,4.82-6.14,9.88-10.18-.82-.19-2.27,1.21.27-3.27a5.31,5.31,0,0,1-.17-1.32l.2-.29-.2.22c0-.26,0-.29-.08.08a6.15,6.15,0,0,1-2.21,1.84c-.58-3.08,2.76-10.41,2.91-13.3,1.52-2.61.37,1.52,1.8.34l.21-4.31c1.84.33,5.72-6.38,4.09.66l2.42-6a31.71,31.71,0,0,0,3.1-5.62,21.25,21.25,0,0,0,1.62-5.7c1.31-2.78.48-7.91,1-5,.35-1.65.64-3.33,1-5s.61-3.32.87-5h.46a53.5,53.5,0,0,0,1.67-7.4c.2-1.27.41-2.55.61-3.84s.37-2.6.58-3.91c.85-5.24,1.92-10.56,4.52-15.89.1-1.69.07-3.43.27-5.41a57.29,57.29,0,0,1,1.12-7l1.68-.89a25,25,0,0,1,.48-3.86c.24-1.44.56-3,.84-4.41.59-2.91.88-5.55.15-6.54a9.84,9.84,0,0,0,2.3-5.25,50.81,50.81,0,0,0,.56-7.89c0-2.84-.2-5.77-.29-8.47a52.44,52.44,0,0,1-.11-7.09l-2-.24A80.72,80.72,0,0,0,658,376.37l-1.75.54c-.9-2.71-1-6.27-1-10.29a65.37,65.37,0,0,0-.81-12.81c.78.48,1,2.73.8,4.36,1.21-5.55-.56-11-2.55-16.1s-4.22-10-4-15a10.68,10.68,0,0,1-1.53-5.56,2.2,2.2,0,0,0,.25.54,4.69,4.69,0,0,0-.24-.95v-3.44a16,16,0,0,0-.12,2.94,47.51,47.51,0,0,0-2.82-6.8l1.47-1.7c-.1-.2-.15-.37-.25-.58-.17-2.78-1.54-1.76-2.47,0a16.39,16.39,0,0,0-2.24-3c1.11-1.52.27-3.12-.57-4.82s-1.76-3.45-.73-5.43c-1.06-.58-2.67-3.63-4.42-6.54s-3.7-5.67-5.59-5.62c.37-.26.23-1.06.86.25-.9-2.89-1.8-5.79-3.79-7.82l1.67-2.22c-1.91-1.52-3.94-3-5.89-4.41-.47-4.21-.47-6.12,3-3.43a85.68,85.68,0,0,1-5.76-6.59,32.91,32.91,0,0,0-5.33-5.48l1.57-.46c-1.55-2.48-5.78-5.31-5.57-7.5-.17-1.8-1.42-4.36-3.2-7.48s-4.25-6.72-6.92-10.56c-5.43-7.61-12-15.91-16.53-23.15-.66,2.75-1.57,1-2.71-1.29s-2.55-5-4.11-4c.14-1.46-1-3.6,1.55-2.27-6.67-5.52-7.86-10.57-14.3-12.45,0-1.49,2.45.08,2.26-1-.68-.3-2.67-1.18-2.9-2.27s1.57.17,2.91.77c-3.33-3-5.79-3.91-7.7-3.85A7.67,7.67,0,0,0,554,183c-2.37-4-4.22-5.28-8-5.68-.57-1.72-1.89-4.21,2.58-1.12-2.22-2-13.88-12.64-15.72-10.56-.41-1.08-3.39-2.59-4.21-2.8-1.39-1-2.43-1.8-3.35-2.44l-2.46-1.66c-1.53-1-3.08-2-6-3.67l1.36,1.34c-1.94.62-3.18,0-4.57-1a33.16,33.16,0,0,0-5.38-3.63l.29-.2c-4.8-4.07-6.17-4.38-7.44-4.79s-2.48-.83-7.36-4.74l-.25,2c-1.42,1.59-3.57-.07-6.28-2.36a49.16,49.16,0,0,0-4.47-3.53,14.78,14.78,0,0,0-5.15-2.23l1.92,2c-2-.09-4-2.44-5.87-5s-3.81-5.23-5.57-6.17c-.68-.64,1.47-.06,2.69.12-4.41-3-5-2.51-5.3-1.56s-.52,2.35-4.22,1.39c-.9-1.74,2.86-2.66-2-4.58a7.22,7.22,0,0,0-3.44-1c-1.67-.17-3.75-.29-5.95-.48a59,59,0,0,1-6.65-.88,16.17,16.17,0,0,1-5.68-2.21c.63.69,1.24,1.38,1.25,1.9s-.6.8-2.41.77c-2.68-.45-6-2.33-9.4-3.67s-6.86-2.3-9.57-1.15c-.63-.41-.84-.73-.82-1-2.13.08-5.51-.18-8.71-.17s-6.21.2-7.55.94c-1.48-3.54-8-3.47-14-3s-11.43,1.19-11.28-1.88h-6.39c-2.13,0-4.26.06-6.39.14l.33-.63a43.31,43.31,0,0,0-5.22.08,21.21,21.21,0,0,0-3.71.66,17.85,17.85,0,0,0-4.87,2.16c-1.9-.32-.56-1-.42-1.29-1.49-.07-2.82-.14-4-.17s-2.26,0-3.23,0a27.93,27.93,0,0,0-5,.46,30.15,30.15,0,0,0-4.57,1.3c-1.64.61-3.5,1.44-5.87,2.48l-1.28-1.84a10.65,10.65,0,0,1-4,.59c-1.94.07-4.4.06-7.13.23-1.37.07-2.8.16-4.28.29s-3,.38-4.48.64a37.58,37.58,0,0,0-8.75,2.57c.06-.24.22-.67,1.06-1.15a48.89,48.89,0,0,1-10.23,2.73c-1.81.31-3.63.64-5.44.91s-3.59.53-5.29.88c-6.81,1.26-12.42,3.14-13.47,7.31l-7.46,4.73c5.32-1.72,5.2-.84,4.36.41s-2.39,2.84-.06,2.59a14.38,14.38,0,0,1-3.32,1.1,15,15,0,0,1-3.13.43c-1.71,0-2.37-.52,0-1.72h.91c.2-2.12-3.12-1.1-6.59.15s-7,2.92-7.39,1.69c-10,4.74-19.8,9.5-29.25,14.68l-7,4L196.68,161,190,165.3c-2.16,1.49-4.22,3.12-6.29,4.7l3.67.84-5.77,4.31c-1.91.64-3.45-.2.7-3.3-1.58.19-3.08,1.81-4.13,3.44a7.24,7.24,0,0,0-1.44,3.64c-4.16,2.86-4,1.58-3-.2s2.64-4,1.45-3l-3,3,.94-.37c-1.79,3.17-1.17,4.32-5.92,8.3-1.68,1.06-2.3,1.14-2.73,1s-.58-.45-1.17,0c-.14-.15-.58.14-1.76,1.61l-6.72,6.23,4.25-.93a33.66,33.66,0,0,1-3.25,4.18c-.63.93-.47,1.18,1.93.61-1.8.37-4.15,2.11-6.8,4.46-1.32,1.18-2.7,2.52-4.1,3.94-.71.7-1.39,1.45-2,2.23l-2,2.34L139,217,137.18,219c-.56.7-1.06,1.4-1.55,2a30.6,30.6,0,0,1-4.3,5,34.15,34.15,0,0,1-1.79,3.95c-.63,1.29-1.32,2.56-2.08,3.82-1.52,2.54-3.39,5-5.35,7.83,1.32-1.18,4-.59.62,4.19-1.68-2.36-3.62-.39-5.87,2.44-1.16,1.39-2.29,3.06-3.52,4.51a11,11,0,0,1-4,3.23c1.1-.62,1.15,0,.71,1.24a17.69,17.69,0,0,1-1,2.2l-1.18,2.66c-1.59,3.61-2.91,7,.28,4.86-2.7,4.16-1.94-.69-4.79,2.09a53.91,53.91,0,0,1-3.48,8.65c-1.33,2.94-3,5.87-4.54,9L93,291.39c-.79,1.59-1.53,3.21-2.28,4.85s-1.44,3.32-2.09,5a53,53,0,0,0-1.71,5.22c.59.44,2.38-1.53,2.39,1.78-1.92,2.05-3.86,4.13-5.78,6.25-.49,2.91,3.15,3.72-.67,8.12.78-.56,2-1.38,1.63.54-5.51,13.3-7.75,27.93-9.23,42.49s-2.19,29.16-5.11,43.86c1.3-4,1.47-1.35,1.58,1.66.28-2,1.73,0,2.68-.42-.72,4.06-1.46,8.15-2,12.27,1.37,1,1.68,4.26,2,7.38s.7,6.12,2,6.6l-.87-3.76c1.76,2.38,3.21.41,4.72-2s3.17-5.4,5.11-5.19a6.74,6.74,0,0,1-1.07-4.68,39.16,39.16,0,0,1,1-5.79c.86-4.13,1.68-8.58-.79-13.08.8-2,1.23,1.69,2.12.62a8.05,8.05,0,0,1-1.47-4,21,21,0,0,1,.39-6.13l.38.59A94.15,94.15,0,0,1,87.62,376c.53-2.62,1-5.3,1.72-8.29.35-1.49.71-3.07,1.1-4.76s.74-3.5,1.24-5.44l-2.07.87a17.94,17.94,0,0,1,2.28-5.48c-2.16-4.41-1.8,9.52-4.32,5.46,1.15-1,2-3,2.67-5.45.35-1.23.61-2.59,1-4s.65-2.85,1-4.29.65-2.87,1-4.22a30.32,30.32,0,0,1,1.21-3.71c.88-2.21,1.88-3.83,3.12-4.3,1.32-5.11-2.54.94-1.14-4.17l1.53-1-1.1-1.7c1.21-3.29,3.12-4.54,4.11-4.37a19,19,0,0,0-.55,3.26,14.65,14.65,0,0,0,1.57-3.58c.41-1.35.84-2.76,1.15-4.12.66-2.71,1.08-5.12,1.54-5.78l-2.29,4.57A141.53,141.53,0,0,1,110,293.66c.74-1.84,1.53-3.66,2.31-5.46l2.25-5.39c1.53-3.52,2.76-7.07,3.93-10.41l-1.29.52c1.82-5.1,3-6.94,4.47-8.71.73-.9,1.5-1.81,2.41-3.16a23.24,23.24,0,0,0,1.5-2.4c.5-.95,1.13-2,1.85-3.34v.48a23.39,23.39,0,0,1,3.63-8c-.36,1.54.82.63,1.94-.16s2.27-1.42,1.64.49c2.55-5.23,3.09-6.62,3.18-7.71.05-.54,0-1,0-1.86a18.61,18.61,0,0,1,.65-4.13l2.27-.53c.51-2.9.09-3.51,3.38-8.48-1.94,4.66,4-1.6,2.09,3.76.63-.48,1.2-1,1.76-1.46s1.08-1,1.57-1.42a26.09,26.09,0,0,0,2.53-2.83,45.6,45.6,0,0,0,3.47-5.34c2-3.2,3.7-5.63,7.33-6.09.84-7-8.91,6.31-7.41,3.39-2.83,1.08.91-5.52,3.88-8.13,2.73-3,8.48-1.22,15.42-8.16-.71.67-.55,1-1.26,1.62,3.28-1.88,4.36-6,8.87-7.68.28-3.56,4.5-3.77,3-6.68L179,193c1.66-2,2.8-4.52,4.49-7.08l.66-1c.25-.31.5-.61.77-.91a21.36,21.36,0,0,1,1.78-1.78,21.07,21.07,0,0,1,4.85-3.24c-.14.92-1.62,3.15-2.7,4.59,2.54-.81,3.4-3.45,6-4.29.67,1.49-1.38,3.33-4,5.45-1.29,1.07-2.71,2.2-4,3.4a15.22,15.22,0,0,0-2.9,4,5.27,5.27,0,0,0,2.18-1.58c.73-.77,1.42-1.7,2.09-2.39,1.31-1.43,2.25-2.23,2.25,0,.18-2.91,2.19-4.31,4.52-5.8a29.66,29.66,0,0,0,3.58-2.53,13.44,13.44,0,0,0,3.21-3.79l.74,1.8a17.46,17.46,0,0,1,3.59-3.89l-1.46,4c1.59-2.38,4-3.49,6.41-4.47s4.91-1.74,6.77-3.58a20.45,20.45,0,0,1-4.4,2.35c-.78.27-1,0-1.19-.31-.27-.73,0-2.06-2.26-1.32.6-.61,1.16-1.15,1.69-1.62a15,15,0,0,1,1.54-1.15,12.57,12.57,0,0,1,2.56-1.36,9.21,9.21,0,0,1,4-.47,14.9,14.9,0,0,0,4.42-.26,15.91,15.91,0,0,0,3.08-1.1,46.43,46.43,0,0,0,4.07-2.28,7.28,7.28,0,0,1-1.77.87,11.84,11.84,0,0,1-2.1.64c-1.29.25-2.09.06-1-1.11a24.82,24.82,0,0,1,8.28-2.14c8.5-4.92-2.25-1,.92-4,4,.54,3.91-3,7.52-5.62l.86,1.74c5.39-1.77,5.65-3,5.81-4.14s.21-2.24,5.24-3.5l-2.93,4.12,4.62-2.67-.17,2.45a31.93,31.93,0,0,1,3.07-2.22,16.17,16.17,0,0,1,2.64-1.3,47.73,47.73,0,0,1,6.31-1.79c-1.7-.85-.49-3.53,4.27-5.24,3.61,0-1.26,2.29,5.44-.11-1.18,1.64-2.37,3.54-5.84,2.89-.09.7-1.09,1.66-1.19,2.36,3.85,0,8.78-2.57,11.21-3.36a9.25,9.25,0,0,1-2.76.39c3-1.91,6-3.64,9.1-5.44,1.75.26.66,1.17-.41,2.07,1.94-.79,3.12-2,6-2.88-.39,1.72.18,3.24-3.78,5l4.48-2c1.49-.68,3-1.37,4.51-2,.8.52,5.27.74,4.16,1.58a16.88,16.88,0,0,0,4.31-1c1.52-.52,3.11-1.23,4.78-1.9,3.33-1.3,6.93-2.62,10.55-2.48a5.67,5.67,0,0,1,2.51-1.19c6.75-.48,12.78.82,20.59-1.81l4.65,2.58c3.08-.44,1.53-1.26.48-2.17s-1.6-1.89,3.62-2.58c7.4-1.06,2.81,2.35,5.4,3.08,3.6-1.48,10.11-4.32,16.82-1.7C375.36,128.15,373.62,127.65,371.52,127.82Zm76.13,11.41c-1.56,0-4.76.27-5.48-1.14,2.25-1.62,3.23-.21,5.48,1.14Zm104.69,54c-1.25-.3-2.39-1.64-3.42-3.48a11.8,11.8,0,0,1,3.42,3.44Zm88.1,309.1a.67.67,0,0,0,0-.2c1.86-3.13,1.17-2,0,.16Zm-3.37,6.6c0,.79.25.84.62.65-.28-.66.32-2.2,1.08-3.93-.65.28-1.3,1-1.7,3.24ZM163.13,188.69l1.37-.63C162.58,190.72,162.88,189.72,163.13,188.69Z"/><path class="cls-1" d="M641.58,397.46a7.26,7.26,0,0,1,1-2.78C642.07,394.61,641.68,395.27,641.58,397.46Z"/><path class="cls-1" d="M634.58,518c-1,1.28,1.52,1.72.56,2.28.6,1.22,1.08-1.45,1.06-3.37S635.72,513.79,634.58,518Z"/><path class="cls-1" d="M641.91,472.26c.27-1.87.58-3.73.8-5.61-.55-.72-1.26.68-1.53,2.77C641.31,470.84,641.05,472.93,641.91,472.26Z"/><polygon class="cls-1" points="648.18 388.78 648.27 390.19 652.34 389.84 648.18 388.78"/></svg>