<svg id="Layer_1" data-name="Layer 1" xmlns="http://www.w3.org/2000/svg" viewBox="0 0 720 792"><defs><style>.cls-1,.cls-2,.cls-3{fill:#231815;}.cls-2{font-size:80px;font-family:NanumBrush, Nanum Brush Script;}.cls-3{font-size:15px;font-family:MyriadPro-Regular, Myriad Pro;}</style></defs><title>Untitled-2</title><path class="cls-1" d="M211,364.15a4.76,4.76,0,0,1-2.91,2.22,13.79,13.79,0,0,0-3.58,1.54,17.48,17.48,0,0,0-3.42,2.73,17.78,17.78,0,0,1-3.42,2.73q4.79,18.45,7.52,32.11T208.57,426c.46,4.56.8,9.56,1,15s.34,10.47.34,15a55.68,55.68,0,0,1-.51,8.36,39.38,39.38,0,0,1-1.54,6.32,49.15,49.15,0,0,1-6.66-10.93q-2.56-5.8-5.29-11.61-5.82-17.42-11.1-36.55t-10.42-38.93q-9.57-.35-20.49-.34H132.07q-10.93,0-20.67.17c-6.48.11-12.12.29-16.9.51-.46,1.37-.91,3-1.37,4.78a56.25,56.25,0,0,0-3.41,9.74q-1.38,5.29-2.39,11.27t-2.4,12.46q-1.37,6.5-3.41,13a15.31,15.31,0,0,0,8.71-2.9,15.36,15.36,0,0,1,8.71-2.9,34.16,34.16,0,0,0-5.3,6.83,41.12,41.12,0,0,0-3.92,9.9,7.9,7.9,0,0,1-2,3.59,25.7,25.7,0,0,0-2.39,2.9c-.46.91-.92,1.88-1.37,2.9a5,5,0,0,1-1.71,2.22,10.62,10.62,0,0,1-4.1,1.54,2.35,2.35,0,0,1-2.39-.85,23.14,23.14,0,0,1-3.58-8.71c-.58-3.08-1.09-6.32-1.54-9.74A156,156,0,0,1,73,405.13q2.38-14.67,6.15-31.42a16.79,16.79,0,0,1-5.47-2.56,20.11,20.11,0,0,0-4.78-2.56,19.28,19.28,0,0,0-6.15-1.88,9.07,9.07,0,0,1-5.12-2.56l20.83-5.47a19,19,0,0,0,4.45-.68q4.1-16,8.19-30.74t7.86-24.93q2.73-7.86,6.66-18.1a146.16,146.16,0,0,1,9.22-19.64,77.7,77.7,0,0,1,12-16.22q6.66-6.84,14.52-8.54a35.49,35.49,0,0,1,4.78-1,37.39,37.39,0,0,1,5.12-.34,4.39,4.39,0,0,1,4.1,2.56,56,56,0,0,0,4.1,6.32,61,61,0,0,0,3.25,5.29c1,1.49,2.1,4.5,3.24,9.06q8.2,24.93,15.37,50T193.89,359l20.83,4.44ZM141.29,254.51a150.21,150.21,0,0,0-10.93,17.25q-5.13,9.4-10.25,21.52t-10.24,27.66q-5.13,15.56-10.59,35,17.76-2,35.52-2.39A302.29,302.29,0,0,1,170,354.93q-7.17-27.68-14-53.8A450.86,450.86,0,0,0,141.29,254.51Z"/><path class="cls-1" d="M295,370.38c-.85,2.56-1.53,4.53-2,5.89s-1.29,1.54-2.31.52a108.66,108.66,0,0,0-8.71-7.69A25.17,25.17,0,0,0,269.37,364,26.28,26.28,0,0,0,259,365.13a13.57,13.57,0,0,0-8.32,7.05q-2.56,4.6-.77,11,1.54,6.66,6.79,9.61a48.6,48.6,0,0,0,11.78,4.61q6.54,1.66,13.32,2.94A30.63,30.63,0,0,1,293.45,405a5.67,5.67,0,0,1,2.43,2.44,19.66,19.66,0,0,0,1.92,2.94,23.71,23.71,0,0,0,2.44,2.57,10.14,10.14,0,0,1,2.17,3.07c.52,1,1.11,2.26,1.8,3.71a7.48,7.48,0,0,1,.51,4.74q-.77,3.33-6.41,7.17a120.25,120.25,0,0,1-25.87,12.68A53.2,53.2,0,0,1,243.75,446q-1.78-.51-4.1-3.46a19,19,0,0,0-3.84-4,12.45,12.45,0,0,1-5.63-5.89,49.35,49.35,0,0,1-2.05-14.6c0-1.71.29-2.52.89-2.44a11.3,11.3,0,0,0,1.67.13c1,0,2.18.69,3.46,2s2.64,3,4.1,4.74,2.81,3.42,4.09,4.87,2.35,2.18,3.21,2.18a27.29,27.29,0,0,0,10.5,2.3,47.44,47.44,0,0,0,12.42-1.15,41.64,41.64,0,0,0,11.79-4.61,27,27,0,0,0,8.83-8.07q0-1.27-2.94-3.08t-7.56-4q-4.6-2.16-10.12-4.48T258,401.63a56.93,56.93,0,0,1-8.71-5.38,15.58,15.58,0,0,1-5-5.63c-.51-1.37-1.11-2.77-1.79-4.23a20,20,0,0,1-1.28-3.2,29.43,29.43,0,0,1-.51-10.89,27,27,0,0,1,3.07-9.35,20.49,20.49,0,0,1,14.86-10.24,70.9,70.9,0,0,1,16.52-.13,31.36,31.36,0,0,1,15.76,6,14.31,14.31,0,0,1,2.94,3.33,13.45,13.45,0,0,1,1.41,3.59q.25,1.28.51,2.43A2.85,2.85,0,0,1,295,370.38Z"/><path class="cls-1" d="M383.1,364.23q3.33,8.2,6.28,17.68a108.44,108.44,0,0,1,4.1,18.83,70.87,70.87,0,0,1,0,18.06,31.34,31.34,0,0,1-6,15.11,4.84,4.84,0,0,1-4.87,2,3.23,3.23,0,0,1-1.79-1.28,7.08,7.08,0,0,0-2.05-1.79,11.47,11.47,0,0,0-2.18-1.29,5.38,5.38,0,0,1-2.18-2,32.4,32.4,0,0,0-7.55,3.71q-3.72,2.43-7.56,5t-7.94,5a29.91,29.91,0,0,1-8.45,3.46c-3.08.85-5.34.73-6.79-.39s-3-2.34-4.74-3.71q-1.8-1.55-2.31-1.92c-.34-.26-.68-1.32-1-3.2a52.29,52.29,0,0,1-.13-12.17,56.8,56.8,0,0,1,3-13.19Q337.24,392.67,357,386a10,10,0,0,1,4.74-.39,19.12,19.12,0,0,1,4.74,1.41,27.35,27.35,0,0,1,4.49,2.56c1.44,1,2.77,2.05,4,3.08L379,396a16.65,16.65,0,0,0-.12-9.35,36.22,36.22,0,0,0-4.23-9.48,46.29,46.29,0,0,0-6.4-8.07,20.84,20.84,0,0,0-6.92-4.87,45.88,45.88,0,0,0-23.44,6A98.78,98.78,0,0,0,317.78,386a3.47,3.47,0,0,1-1.15.77c-.43.17-.81.34-1.15.51a2.18,2.18,0,0,1-1.8.26c-.51-.17-.6-.69-.25-1.54a36.91,36.91,0,0,1,6.15-14.73,54.71,54.71,0,0,1,10.75-11.4,70.12,70.12,0,0,1,13.07-8.2A65.29,65.29,0,0,1,357,346.82a6.33,6.33,0,0,1,1.93-.64,14.85,14.85,0,0,1,2.17-.13,5.88,5.88,0,0,1,3.33,1c1,.69,2.22,1.46,3.59,2.31a52.72,52.72,0,0,1,5.12,2.94,23.27,23.27,0,0,1,4.61,4,33,33,0,0,1,3.08,4.1Q382.07,362.45,383.1,364.23Zm-8.71,45.6a18.54,18.54,0,0,0-4.74-6.15,21.65,21.65,0,0,0-7.3-4.22,17.83,17.83,0,0,0-8.83-.64,21.08,21.08,0,0,0-9.61,4.61c-1,2.22-2.05,4.65-3.07,7.3a45.74,45.74,0,0,0-2.31,7.94,35.48,35.48,0,0,0-.64,7.94,18.48,18.48,0,0,0,1.67,7.3,184.93,184.93,0,0,0,18.95-7.68q9.23-4.37,15.88-7.69a6.41,6.41,0,0,0,1.8-2.56,2.62,2.62,0,0,0-.13-1.79c-.26-.52-.6-1.11-1-1.8A4.79,4.79,0,0,1,374.39,409.83Z"/><path class="cls-1" d="M433.05,390.36a48.74,48.74,0,0,1,14.09-14,30.22,30.22,0,0,1,19-4.48,12.24,12.24,0,0,1,3.33,1.15l3.33,1.67a24.55,24.55,0,0,1,7.17,6,54.08,54.08,0,0,1,6,9,69.1,69.1,0,0,1,7,20.37,61.75,61.75,0,0,1,.77,7.17c.17,2.91.26,5.55.26,7.94-.35,0-.52.09-.52.26s-.17.17-.51,0a8.8,8.8,0,0,1-3.33-2.82,9.54,9.54,0,0,0-1.53-1.15,2.71,2.71,0,0,1-1.29-1.67c-.34-1.7-.72-4-1.15-6.79a60.54,60.54,0,0,0-2.18-9.09,70.25,70.25,0,0,0-3.84-9.61A34.18,34.18,0,0,0,474,386a19.36,19.36,0,0,0-2.18-1.92c-.6-.43-1.33-.9-2.18-1.41a8.18,8.18,0,0,0-3.84-1.41,10.36,10.36,0,0,0-4.36.13,30.37,30.37,0,0,0-9.22,4.86,36.52,36.52,0,0,0-8.45,8.84,34.61,34.61,0,0,0-5.12,12.17A26.58,26.58,0,0,0,440,422.13a28.34,28.34,0,0,1,1,3.71,9.89,9.89,0,0,1,.13,2.69,8.18,8.18,0,0,1-.9,2.82l-2.05,4.1a11.93,11.93,0,0,1-4.74,4.35,27.63,27.63,0,0,0-4.73,2.82,288.66,288.66,0,0,1-11.4-42.52,295.77,295.77,0,0,1-4.87-40.22,197.09,197.09,0,0,1,1.15-34.71q2.06-15.75,6.41-26.26.76-3.07,3.33-2.56a3.89,3.89,0,0,1,2.05,1l2.05,2.05c.68.85,1.28,1.58,1.79,2.17a4.92,4.92,0,0,1,1,2.44c.17.85.6,1.28,1.28,1.28s.94.43.77,1.28q-2.29,14.08-3.07,26.13T428.82,355a175.15,175.15,0,0,0,1.67,19Q431.77,382.68,433.05,390.36Z"/><path class="cls-1" d="M534.36,410.47q-.37-4.47-1.28-9.35t-2.43-10.76a2.86,2.86,0,0,0-2.44-2.17,8.21,8.21,0,0,1-3.45-1.16q-2.06-1.27-4.23-2.56a5,5,0,0,0-4-.77,7.18,7.18,0,0,0-2.82,1.8c-.86.85-1,2.47-.51,4.86a81.28,81.28,0,0,1,1.92,13.71q.39,7.05.77,14a107.94,107.94,0,0,0,1.54,13.32,28.53,28.53,0,0,0,4.48,11.27,20.27,20.27,0,0,1,6.4-4.36,12.47,12.47,0,0,0,2.18-1.28,8.73,8.73,0,0,0,1.66-2.81,7.25,7.25,0,0,1,1.67-2.44,3.22,3.22,0,0,0,1.15-2.17q0-5.38-.13-10T534.36,410.47Z"/><text class="cls-2" transform="translate(139.18 550.61)">A healthy choice</text><path class="cls-1" d="M612.59,357.07c.2.13.31-.5.37-.59C612.57,356.48,612.55,357.23,612.59,357.07Z"/><polygon class="cls-1" points="608.54 357.14 608.7 356.93 607.94 357.27 608.54 357.14"/><path class="cls-1" d="M605.24,355.64c-.16,1.1,1.27.38,1.7,1v.27l.61-.67C606.79,356,605.61,356.14,605.24,355.64Z"/><path class="cls-1" d="M604.62,352.68c-.09.42-.52.12.33.32a.34.34,0,0,1,0-.13A1.59,1.59,0,0,1,604.62,352.68Z"/><path class="cls-1" d="M604.93,352.87c.33.15,0-.43,0,0Z"/><path class="cls-1" d="M603.31,352.27l.61-.1c0-.26-.32-.51-.09-.59C603.3,351.52,603.26,351.78,603.31,352.27Z"/><path class="cls-1" d="M602.51,352.72h.3C602.82,352.6,602.78,352.54,602.51,352.72Z"/><path class="cls-1" d="M603.45,352.68l-.64,0c0,.18-.19.49.28,0C602.9,353,603.14,352.76,603.45,352.68Z"/><path class="cls-1" d="M603.64,353c.13.34.38.64-.24.73C604.31,354,604.54,353.28,603.64,353Z"/><path class="cls-1" d="M604.58,356.54a3.1,3.1,0,0,0,.21.45l.46-.18C605,356.91,604.7,356.24,604.58,356.54Z"/><path class="cls-1" d="M601,350.2a4.86,4.86,0,0,0-.31.87l.45,0C601.05,350.81,600.82,350.5,601,350.2Z"/><path class="cls-1" d="M600.68,351.07l-.68,0C600.39,351.41,600.57,351.3,600.68,351.07Z"/><path class="cls-1" d="M601.83,353.7c.41-.08.81-.18,1.21-.27-.45.06-.92.15-1.36.19Z"/><polygon class="cls-1" points="599.26 349.04 599.81 348.78 598.91 349.12 599.26 349.04"/><path class="cls-1" d="M598.07,348.32c.43-.23.16-.79.52-.87a2.17,2.17,0,0,0-1.27.09C597.68,347.56,597.92,347.78,598.07,348.32Z"/><path class="cls-1" d="M596.63,347.65a2.79,2.79,0,0,0,.69-.11A1.56,1.56,0,0,0,596.63,347.65Z"/><path class="cls-1" d="M599.26,350.51a1,1,0,0,0,0-.79l-.18.66Z"/><path class="cls-1" d="M599.09,350.4v0l-.37-.3Z"/><path class="cls-1" d="M599.31,350.54l0,0C599.25,350.57,599.25,350.6,599.31,350.54Z"/><path class="cls-1" d="M600.89,352.43c-.47.13-1.26.09-1,.91C600.34,353.09,600.18,352.63,600.89,352.43Z"/><path class="cls-1" d="M599.1,351.36l.42.44c.08-.15.12-.42.36-.48Z"/><polygon class="cls-1" points="598.74 351.37 599.1 351.36 598.94 351.2 598.74 351.37"/><path class="cls-1" d="M597.11,348.72a1.23,1.23,0,0,1-.91-.21,3,3,0,0,0,.73.74C597.09,349.11,597.42,348.9,597.11,348.72Z"/><path class="cls-1" d="M598,349.58H598C598,349.64,598,349.67,598,349.58Z"/><path class="cls-1" d="M593.7,346.61l0,.13.07-.08Z"/><path class="cls-1" d="M596.91,349.38c.14.25.35.21.59.13a2.09,2.09,0,0,1-.57-.26C596.86,349.31,596.82,349.36,596.91,349.38Z"/><path class="cls-1" d="M595.76,347.37a2.78,2.78,0,0,0,.14.55C595.92,347.67,595.9,347.26,595.76,347.37Z"/><path class="cls-1" d="M598,349.38h0C598.05,349.22,598,349.28,598,349.38Z"/><path class="cls-1" d="M598,349.38a1.54,1.54,0,0,0-.5.13,1.49,1.49,0,0,0,.47.07A.75.75,0,0,1,598,349.38Z"/><path class="cls-1" d="M590.4,349.27a.78.78,0,0,1,1.39.42c.74,0,1.61-1.79,1.88-2.95-.18.19-.32.38-1,.3,0,.38.59,1.4-.14,1.52-.82-.24-.39-.56-.51-1-.19.79-1.46.21-2,1.17l.79.15C590.71,349,590.34,349,590.4,349.27Z"/><path class="cls-1" d="M594.53,347.47l.24.08a2.1,2.1,0,0,1-.18-1.15,1.06,1.06,0,0,0-.85.26l.91.78Z"/><path class="cls-1" d="M595.64,348.21c-.53.41-1.17.27-1.3,1.05.61.4.73-.13,1.24-.09-1-.57.48-.09,0-.89a1.86,1.86,0,0,1,.59.23,3,3,0,0,1-.3-.59V348h0c0,.1,0,.15,0,.08h0a1,1,0,0,1-.19.17c-.18-.31.06-.17.19-.17l.07-.07h0l-1.13-.42A2.42,2.42,0,0,0,595.64,348.21Z"/><path class="cls-1" d="M598.64,354.19a.23.23,0,0,1,.05-.15C598.58,354.07,598.53,354.1,598.64,354.19Z"/><path class="cls-1" d="M598.43,353.6c.13,0,.33-.21.53,0s-.17.26-.27.45c.23-.06.74-.08.46-.63l-.11,0a2.13,2.13,0,0,1-.24-1.47A5.56,5.56,0,0,0,598.43,353.6Z"/><path class="cls-1" d="M596.87,351l-1-.3.08.74.17-.29C596.52,351.61,596.66,351.2,596.87,351Z"/><polygon class="cls-1" points="593.81 346.29 594.32 345.83 593.29 346.26 593.81 346.29"/><polygon class="cls-1" points="592.77 345.59 593.17 345.15 592.69 345.23 592.77 345.59"/><path class="cls-1" d="M526.77,323l-.26.19A.87.87,0,0,0,526.77,323Z"/><path class="cls-1" d="M528.78,322.87l0-.29C528.73,322.74,528.7,322.86,528.78,322.87Z"/><path class="cls-1" d="M567.69,325.75c-.05-.72,0-1.71-.34-1.11l-.23.62A.71.71,0,0,1,567.69,325.75Z"/><path class="cls-1" d="M545.76,320.71l.08.21.42-.55Z"/><path class="cls-1" d="M544.93,323.29l-.45-.51A2,2,0,0,0,544.93,323.29Z"/><path class="cls-1" d="M516,325.25l-.17.71C516.36,325.86,516.07,325.58,516,325.25Z"/><path class="cls-1" d="M582.57,337.42a2.15,2.15,0,0,0-.45-.9C582.22,337.1,582.13,337.76,582.57,337.42Z"/><path class="cls-1" d="M527.11,316a.44.44,0,0,0-.23.41C527.06,316.29,527.16,316.15,527.11,316Z"/><path class="cls-1" d="M581.31,335.84a1.69,1.69,0,0,0,.05.24,1.69,1.69,0,0,1,.76.44C582.05,336.1,581.87,335.73,581.31,335.84Z"/><path class="cls-1" d="M479.09,341.06a.6.6,0,0,1-.12,0C479,341.12,479.05,341.1,479.09,341.06Z"/><path class="cls-1" d="M465.36,342.38a2.72,2.72,0,0,1,.38-.33C465.64,342.07,465.52,342.16,465.36,342.38Z"/><path class="cls-1" d="M589,342.16c.24.14.08,0,0,0Z"/><path class="cls-1" d="M588.37,345a.48.48,0,0,0-.28.18A.74.74,0,0,1,588.37,345Z"/><path class="cls-1" d="M576.61,337.2l0,0C576.57,337.33,576.58,337.31,576.61,337.2Z"/><path class="cls-1" d="M589.13,342.65a1.31,1.31,0,0,0-.15-.37A1.85,1.85,0,0,0,589.13,342.65Z"/><path class="cls-1" d="M589.28,342.38l.14.2C589.52,342.52,589.54,342.45,589.28,342.38Z"/><path class="cls-1" d="M588.69,342a1,1,0,0,1,.29.33c0-.07,0-.11,0-.12Z"/><path class="cls-1" d="M497.55,329.05l-.08,0C497.34,329.37,497.43,329.28,497.55,329.05Z"/><path class="cls-1" d="M558.14,328.05h0l0,0Z"/><path class="cls-1" d="M557.1,328.06c.71-.55.87-.35,1.06-.06l.56-1.82Z"/><path class="cls-1" d="M522,323.66l.72.5c-.65,1-1.24.79-.53,1.53-.19-2,2.45-.52,2.32-2.56l.47.39c-.12,0-.13.11-.26.1.93.9.48-1.52,1.6-1.32.4.12.68.39.44.66l.81-.58a.18.18,0,1,1,0,.36l1.28-.22v.06a5.88,5.88,0,0,1,.76-1.06c.34.28-.16.22-.06.47l.7-.52c.31.51-.27,1-.76,1,.73,2,.58-.57,2,.62l-.66.26c.45,1.16.95.74,1.69,1.46-.16-.38-1.5-1.82-.74-2.32.22.15.51.22.93-.19,0,.73.4.55.91.51l0,.95c.54-.25.51-.74.85-1.16.61.12.7.87.81,1.5,1,.2-.61-1.22.55-1.35.79.39,1.37.07,2.4-.42.54.38-.15.58,0,.87l.58-.72c.12,0,.05.26,0,.38.46-.26.13-.95.84-1.15.32-1,1.19,1.72,2.17.65.16.29-.18.56-.18.94a8.09,8.09,0,0,0,2.17-1.29l.67.77c-.44-.82.46-1.52,1.28-2.07a6.33,6.33,0,0,0-.36-.88c.4-.1.8-.21,1.2-.29.1.19-.08.48-.34.83l.24-.18c.31.44,0,.93-.4,1.39l-.26-.66a3.81,3.81,0,0,0-.81,1.67.72.72,0,0,1,.39-.19.64.64,0,0,0-.16.37c0,.11.17-.08.39-.29v1.1l.14-.4,1.18,1c.6-.41,1.21-.94,1.9-1.38a4,4,0,0,1,2.26-.68c-.62.63-.47,1.19-.76,2.07-.13-1.06-1.28,0-2-.36.38.2.17.61,0,.73l1.62-.45c-.25.72.13.64.39,1.05.18-1.52,1.34-.66,2-.86-.14.49-.44.92-1.07.56.36,1.34,1.54-1.31,2-.14-.17,0-.23-.15-.39.07.55-.28,1.37.4,1,.73l-.17-.05c1,.56,3.22,1.38,3.94.3a17.72,17.72,0,0,1-1,1.53c1.22-1,2.48-1.95,3.79-2.89-.66.89-1.23,3.54-2.37,3.65a1,1,0,0,0,1.08.5c-.09-.22.32-1.62.6-1.59a7,7,0,0,0,.42,2.12c-.14-.34,1-1.71,1.34-1.41-.18.19-.8,1.49-1,1.57l1.81-.89c-.4.12-.76,1.21-.79,1.75.07-.34.8.52,1.14.53l-.2-.58c.94.86,2.35-1.39,3.38-.58-.33.21-1.49,1.59-1.08,2.12.71-.56,3.41-2.71,4.78-2.59l-.1.53,1.05.08a46.61,46.61,0,0,1-5.31,2.52c.17.58-.22.55.39.91-.06.52-.71.36-.9.27l1.18,1.16c.52-.88,1.6-.08,2-.8-.69-.08-1.37-.16-2.07-.19.52-.88,2.52-1.76,3.38-.88,0,.5-1.24,1.31-1.42,1.6.33-.19,1.3.13,1.24.39l-.73.14c.3.69,1.67-.43,1.72.8.18.22-.15,1.54.26,1.1a14,14,0,0,1,3.22-4.56,9.4,9.4,0,0,1,.39,2.43c-.2,1-1.88,1.26-2.05,2.11a1.48,1.48,0,0,1,.74-.34c.08.37-.62.6,0,.89.72-.73.95.86.77-.49.67.16.39.57,1,1a3,3,0,0,1,2.59-1.15,1.58,1.58,0,0,0-.34.69c.93.89,1.16,1.68,2.07,2.46-.08.26.17.86-.3,1,.24,0,.59-.19.88,0,0,1.13-.71-.43-1,.73.42-.42,1.25,0,1.89.05.47-.81-.81-.92-1.45-1a3.72,3.72,0,0,1,3.71-1c1,.4-.21.9,0,.87,1.28,1.38,2.64-.66,3.23,1-.05,1-1,1.24-1.29,1.78-.81-.29-.61-1.2-1-1.53l.27.73c-.37,0-.92-.16-1-.52-.07.88,2.31,2.14,3,3.57.37,0,.89,0,.94-.36l-.43-.2c.1-.77,1.24-.14,1-.75.76,0,1.73-.07,2.16.75l-.46.81c.16-.22-.08-.77-.45-.71.53-.09.24,1.79,1.3,1.1l-.07-.87c.77,0,2-.28,2.36.42.3-.93-.2,0,0-1.19-.47,1.32-1.45-1.24-1.75.3.36-1.29-.4-1-.28-2.26-.18.25-.18.61-.57.09a1.69,1.69,0,0,1-.28.12v0s-.06,0,0,0a1.15,1.15,0,0,1,0,.56c-.69.34-1.45-.33-1.94-.27-.2-.35.34-.16.39-.54l-.74.08c.4-.55,0-1.49.89-1.23l-.59-.53c-.12-.59-.51-1.13-1-1.17-.2-.36-1.21-.05-.62-.24l-1.23-.5.1-.13c-.89-.87-2.69-.82-3-2.67a2.21,2.21,0,0,1-1.33-.86l.27-.54c-.55-.19-.9-1.5-1.46-1.18.55-1.59-1.86-1.95-2.46-2.77l-.5.58a5.17,5.17,0,0,0-2-.95l-.37.57c-.91,0-1.19-1.48-2.15-2.1.21-.16.4.06.48.31-.2-2.06-3-.76-3.38-2.36a.52.52,0,0,1-.61-.43.11.11,0,0,0,.08,0,.27.27,0,0,0-.1-.08,5.6,5.6,0,0,0-.17-.54,1.43,1.43,0,0,0,.11.5,2.86,2.86,0,0,0-.94-.31l.26-.68-.08,0c-.17-.41-.43.14-.56.7a1.91,1.91,0,0,0-.63.13c.36-1.14-1-.14-.69-1.41-.52.4-1.78-.53-2.56.49.07-.15,0-.27.19-.18-.27-.32-.56-.62-1-.47l.28-.89-1.33.7c-.21-.73-.26-1.12.52-1.51-1.61.39-1.1-.12-2.51.38l.3-.51c-.37-.14-1.25.35-1.26-.19-.33-1.41-3.83-1.79-5.62-3.4-.11,1.79-.76-1.05-1.24.22,0-.43-.24-.75.21-1-1.19,0-1.5-1.08-2.54-.17,0-.44.39-.53.33-.8-.11.06-.44.26-.49,0s.24-.29.46-.43c-1.17-.21-1.56,1-1.9,2.15-.44-.7-.75-.65-1.31,0-.12-.42-.37-.88.36-.88-.38-.14-2.31-1-2.51-.09-.08-.26-.54-.15-.66-.06a7.61,7.61,0,0,0-1.81-.3l.22.18c-.49,1.11-.75.14-1.47.22l0-.12c-1.52-1-.72.34-2.23-.75l0,.72c-.25,1.52-1.33-1-2.29-.45l.31.42c-.52.51-1.32-2.16-1.85-2.38-.11-.14.18-.21.34-.3-1.34-.94-.19.94-1.2,1.15-.18-.51.26-1.29-.43-1.39-.35-.4-2,1.62-2.89.72.22.38.43.76,0,1.07-.69.18-2-1.4-2.56-.12a.48.48,0,0,1-.15-.3c-.52.37-1.72.68-2,1.38-.77-2.47-3.17,1.58-3.44-.7-.54.11-1.09.22-1.63.36v-.24a1.62,1.62,0,0,0-1.62,1.24c-.27-.12-.13-.36-.14-.48-1.6-.19-1.75,0-2.77,1.34l-.29-.7c-.25.47-2.45-.63-3.73.58a.58.58,0,0,1,.08-.36c-1.4,1.27-4.56-.88-4.35,1.92l-.86,1c1.43-.24.16,1.18.86,1.43-.48.32-1.64-.33-1-.67l.14.09c-.2-1.43-1.85.09-2.13-.82-2.66,1-5.53,1.31-8,2.32l.72.89-.88.31c-.32-.13-.65-.66,0-.88-.58-.44-.8.94-.72,1.16-1.37.13-.07-1.38-.44-1.24l-.46.3.17.07c-.22.59-.06,1-.8,1.32-.55,0-.52-.5-.72-.46,0-.07-.11-.08-.3.1l-1.09.43.79.57c-.28.62-1,.45-.09,1.09-1.38-1-4.12,1.46-4.76,1.28a2.8,2.8,0,0,1-1.78,1.58c.28,0,.86.85.14,1.1-.73-1.89-1.64-.09-2.89-1,1,.56-1.76,1.28-.33,2-.63.17-.41-.63-1.07-.8-.9,1.44-3.13,1.26-4.58,2.49.11.24.59.42.46,1l-1.54-.59c-.25.3.52,1.46-.53,1.05.2.14.5.34.33.55-3.79.89-5.62,4.95-10,5.09.7.13.46.37.15.6.28,0,.37.54.62.8l-1.84.08c.35,1-1.31,1-.89,1.89l.3-.43c.13,1.29,2.19,1.5,2.94,2.73-.15-1.46,2.63.44,2.55-1.72.38.09.09.5.39.7-.11-.68.12-1,.82-1.15l0,.17c1.46-1.18,2.46-1.15,4.43-2l-.52-.51a1.41,1.41,0,0,1,.91,0c-.17-1.18-1.09.66-1.36-.59,1.3.86,2.68-1.74,3.92-.58.58-.36-.62-.58,0-1l.39.28-.16-.58a1.06,1.06,0,0,1,1.14.49c-.11,0-.2.26-.29.35.78.13,1.31-1,1.57-1l-.71.12c1.38-1.36,3.65-2.05,4.77-3.74l-.29-.22c.9-1.23,1.15-.24,2.34-1.24v.09a1.33,1.33,0,0,1,.77-.95c-.15.53,1,.32.77.95,1-1.31.4-.82.69-2.4l.46.39c.07-.6,0-.85.59-1.33-.34.71.82.52.49,1.41,2,.34,1.56-2.19,3-.91,0-1.71-1.62-.16-1.4-.64-.53-.29,0-1.29.56-1.38s1.65,1.38,2.79.81c-.12.05-.08.16-.2.2.6.16.63-.87,1.43-.53-.09-1,.71-.27.31-1.39l-1,.74c.48-.55.48-2.11,1.78-1.92a2.21,2.21,0,0,1-.3.92c.44.19.48-.46.93-.26.38,1.12-1.21.8-1.48,1.93.51.32.87-1.35,1.07,0-.2-1.71,1.23-.3,1.53-1.79l.22.68c.08-.16.21-.58.45-.66l-.06,1c.34-1,1.49.11,2-.52-1.29.53-.61-.68-1.36-.95,1.26-1.51,1.62,1.37,3.27.35-.21.19-1.06,0-.8-.5a2.14,2.14,0,0,1,1.28.37c1.14-.57-.44-.62-.08-1.21.71.66.47-.55.91-1l.24.68c1.53,0-.13-1.57,1.31-1.45l-.21,1.12.57-.45.12.82c.51-.81.79-.73,1.54-.73-.31-.43-.3-1.28.31-1.5.55.29,0,.72.81.37-.07.5-.12,1.09-.69.57,0,.24-.06.5,0,.74.59.31,1.16-.23,1.47-.33a.58.58,0,0,1-.39-.06l1-1.33c.28.21.17.46.08.71.23-.14.32-.52.68-.68.06.59.24,1.17-.21,1.59.33-.32.67-.66,1-1,.15.23.79.53.69.78.74.18,1.36-1.53,2.36-1.27a.57.57,0,0,1,.26-.37c.88,0,1.75.5,2.6-.48l.75,1c.74-.37-1-1.18.24-1.79.88-.49.49.83.87,1.06.36-.61,1-1.8,2-1.05C522.5,323.67,522.26,323.55,522,323.66Zm9.76-1.19c-.2.15-.57.62-.71.2C531.26,321.84,531.44,322.23,531.77,322.47Zm15.15-.07c-.2.2-.39,0-.57-.3A.65.65,0,0,1,546.92,322.4Zm39.43,18.31,0,0C586.16,340.22,586.21,340.41,586.35,340.71Zm.5.83a.24.24,0,0,0,.23-.2c-.16.1-.33,0-.48-.21C586.53,341.32,586.54,341.49,586.85,341.54Zm-94-15.7.25.09C492.82,326.29,492.85,326.07,492.86,325.84Z"/><path class="cls-1" d="M545,323a1.08,1.08,0,0,1,0-.4A.27.27,0,0,0,545,323Z"/><path class="cls-1" d="M516.07,325.12h0a.29.29,0,0,0,0,.13Z"/><path class="cls-1" d="M572,337.12a.88.88,0,0,1-.05-.52C571.8,336.73,571.78,336.9,572,337.12Z"/><path class="cls-1" d="M591.36,343.67l-.57-.21c.24.14.22.33.25.51C591.14,343.83,591.21,343.57,591.36,343.67Z"/><path class="cls-1" d="M592.59,350.32c.12,0,.15.1.27.08l.18-.28C592.74,349.92,592.37,350,592.59,350.32Z"/><path class="cls-1" d="M590.26,345.88c-.34.5.08.57.47.74,0,0-.05,0-.06,0C591.29,346,590.78,345.93,590.26,345.88Z"/><path class="cls-1" d="M590.81,346.67a.77.77,0,0,1,.31.22C591.37,346.65,591,346.74,590.81,346.67Z"/><path class="cls-1" d="M588,342c0,.24.6-.52.52-.26C589.18,341.27,586.93,341.61,588,342Z"/><polygon class="cls-1" points="589.27 347.65 589.62 346.97 589.06 347.3 589.27 347.65"/><path class="cls-1" d="M587.08,345.16l.38.58c.07-.1.18-.1.3-.08C587.46,345.38,587.21,345,587.08,345.16Z"/><path class="cls-1" d="M587.76,345.66a.64.64,0,0,0,.49.24A1.72,1.72,0,0,0,587.76,345.66Z"/><polygon class="cls-1" points="588.42 347.26 588.37 347.02 588.04 346.68 588.42 347.26"/><path class="cls-1" d="M581.73,340.46l-.69-.3c-.22.15-.17.39.1.49S581.66,340.72,581.73,340.46Z"/><path class="cls-1" d="M582.07,343.45c-.05-.25,0-.39.13-.65l-.62.7Z"/><path class="cls-1" d="M580.32,342.24c-.22.15-1.28-.11-.55.44C580,342.53,580.69,342.84,580.32,342.24Z"/><polygon class="cls-1" points="572.68 334.43 572.83 334.53 573.75 333.31 572.68 334.43"/><path class="cls-1" d="M562.94,331.94c.49.75.67-.69,1,.11.36-.19-.3-.65,0-.8C563.4,331.28,563.29,331,562.94,331.94Z"/><path class="cls-1" d="M564,331.25a1.66,1.66,0,0,0,.33-.06A.73.73,0,0,0,564,331.25Z"/><polygon class="cls-1" points="463.22 342.89 462.58 342.96 463.18 343.17 463.22 342.89"/><path class="cls-1" d="M463,344.44l-.67-.72.24.91C462.66,344.52,462.81,344.31,463,344.44Z"/><path class="cls-1" d="M533.2,324.43l0-.23c-.08-.26-.2-.27-.44-.31Z"/><polygon class="cls-1" points="526.19 323.96 526.32 323.97 526.01 323.11 526.19 323.96"/><path class="cls-1" d="M520.5,325.81c.25,0,.49-.25.73-.25C520.75,325.8,520.26,324.73,520.5,325.81Z"/><path class="cls-1" d="M607.42,293.27c.24-.16-.27-.54-.32-.65C606.87,293,607.55,293.37,607.42,293.27Z"/><polygon class="cls-1" points="605.27 297.44 605.14 297.2 605.14 298.11 605.27 297.44"/><path class="cls-1" d="M602.38,300.42c1,.46.92-1.2,1.71-1.47l.26.08-.39-.84C603.44,298.94,603,300.17,602.38,300.42Z"/><path class="cls-1" d="M599.18,300.46c.4.18-.07.6.45-.29h-.14A1.84,1.84,0,0,1,599.18,300.46Z"/><path class="cls-1" d="M599.49,300.17c.28-.35-.45,0,0,0Z"/><path class="cls-1" d="M598.28,301.82l.12-.68c-.26-.08-.65.26-.65,0C597.49,301.71,597.75,301.79,598.28,301.82Z"/><path class="cls-1" d="M598.48,302.75l.09-.33C598.46,302.39,598.38,302.42,598.48,302.75Z"/><path class="cls-1" d="M598.76,301.73l-.19.69c.18.06.44.29.11-.29C598.88,302.38,598.74,302.08,598.76,301.73Z"/><path class="cls-1" d="M599.12,301.58c.39-.08.79-.29.66.39C600.43,301.06,599.77,300.67,599.12,301.58Z"/><path class="cls-1" d="M603,301.34l.53-.1v-.51C603.57,301,602.78,301.13,603,301.34Z"/><path class="cls-1" d="M595.44,304.1c.15.18.58.26.83.43l.09-.49C596.1,304.09,595.71,304.3,595.44,304.1Z"/><path class="cls-1" d="M596.27,304.53l-.14.73C596.54,304.87,596.48,304.67,596.27,304.53Z"/><polygon class="cls-1" points="599.28 303.63 599.39 302.3 599.16 303.78 599.28 303.63"/><polygon class="cls-1" points="593.78 305.89 593.63 305.27 593.8 306.28 593.78 305.89"/><path class="cls-1" d="M592.78,307.15c-.15-.49-.8-.22-.81-.61a2.47,2.47,0,0,0-.17,1.39C591.89,307.54,592.18,307.28,592.78,307.15Z"/><path class="cls-1" d="M591.79,308.68a3.67,3.67,0,0,0,0-.75A1.69,1.69,0,0,0,591.79,308.68Z"/><path class="cls-1" d="M595.31,306a.93.93,0,0,0-.82-.06l.65.24Z"/><path class="cls-1" d="M595.16,306.18h0l-.39.38Z"/><path class="cls-1" d="M595.36,306l-.05,0C595.38,306,595.4,306,595.36,306Z"/><path class="cls-1" d="M597.73,304.47c0,.51-.22,1.35.69,1.16C598.27,305.14,597.75,305.25,597.73,304.47Z"/><path class="cls-1" d="M596.16,306.25l.56-.4c-.13-.1-.39-.18-.4-.44Z"/><polygon class="cls-1" points="596.09 306.63 596.16 306.25 595.95 306.4 596.09 306.63"/><path class="cls-1" d="M593,308.21a1.51,1.51,0,0,1-.39,1,4,4,0,0,0,.92-.74C593.42,308.25,593.26,307.89,593,308.21Z"/><path class="cls-1" d="M594.09,307.26v.07C594.14,307.34,594.18,307.33,594.09,307.26Z"/><path class="cls-1" d="M590.27,311.82l.13,0-.08-.08Z"/><path class="cls-1" d="M593.67,308.46c.28-.14.28-.37.25-.63a2.75,2.75,0,0,1-.38.6C593.59,308.51,593.63,308.55,593.67,308.46Z"/><path class="cls-1" d="M591.35,309.62a3.29,3.29,0,0,0,.6-.15C591.7,309.45,591.26,309.46,591.35,309.62Z"/><path class="cls-1" d="M593.88,307.29a.07.07,0,0,1,0-.05C593.72,307.21,593.78,307.25,593.88,307.29Z"/><path class="cls-1" d="M593.88,307.29a1.66,1.66,0,0,0,0,.54,1.82,1.82,0,0,0,.16-.5A.71.71,0,0,1,593.88,307.29Z"/><path class="cls-1" d="M592.65,315.34a.85.85,0,0,1,.59-1.44c.09-.77-1.65-1.75-2.84-2,.18.19.36.35.18,1.08.4,0,1.54-.61,1.58.17-.35.86-.64.4-1.15.51.79.22.07,1.55,1,2.13l.22-.83C592.38,315,592.4,315.4,592.65,315.34Z"/><path class="cls-1" d="M591.28,310.94l.13-.25a2.5,2.5,0,0,1-1.24.17c-.08.54,0,.75.15.91l.95-1Z"/><path class="cls-1" d="M592.22,309.76c.34.59.11,1.27.9,1.43.5-.63,0-.78.08-1.33-.74,1.08,0-.51-.92-.06a2.34,2.34,0,0,1,.34-.63,4.43,4.43,0,0,1-.67.3H592c.1,0,.15,0,.07,0v0a.66.66,0,0,1,.14.2c-.35.19-.16-.07-.14-.2l-.06-.08h0l-.59,1.21A3.35,3.35,0,0,0,592.22,309.76Z"/><path class="cls-1" d="M599,307.08a.26.26,0,0,1-.14-.07C598.85,307.12,598.86,307.18,599,307.08Z"/><path class="cls-1" d="M598.33,307.21c0-.13-.14-.36.12-.54s.23.2.39.34c0-.25.09-.79-.53-.58v.13c-.52.24-1.57.2-1.57.07A5.21,5.21,0,0,0,598.33,307.21Z"/><path class="cls-1" d="M595.37,308.61l-.48,1,.78,0-.27-.2C595.91,309,595.51,308.84,595.37,308.61Z"/><polygon class="cls-1" points="589.95 311.7 589.53 311.14 589.84 312.24 589.95 311.7"/><polygon class="cls-1" points="589.08 312.81 588.67 312.38 588.69 312.89 589.08 312.81"/><path class="cls-1" d="M533.15,368.68l-.28.25A1.21,1.21,0,0,0,533.15,368.68Z"/><path class="cls-1" d="M535.47,368l0-.3C535.38,367.93,535.37,368.05,535.47,368Z"/><path class="cls-1" d="M566.2,338.18c-.71-.07-1.68-.32-1.16.11l.55.36A.82.82,0,0,1,566.2,338.18Z"/><path class="cls-1" d="M551.22,356.4l.23.08-.11-.69C551.3,356,551.26,356.19,551.22,356.4Z"/><path class="cls-1" d="M552.5,358.8h-.76A2,2,0,0,0,552.5,358.8Z"/><path class="cls-1" d="M520.5,371.94l-.29.71C520.8,372.57,520.5,372.27,520.5,371.94Z"/><path class="cls-1" d="M579.81,323.74a2.33,2.33,0,0,0-.95.47C579.46,324.11,580.13,324.19,579.81,323.74Z"/><path class="cls-1" d="M532.1,361.78a.46.46,0,0,0-.13.46C532.12,362.08,532.19,361.93,532.1,361.78Z"/><path class="cls-1" d="M578.1,325.07a2,2,0,0,0,.26-.06,1.92,1.92,0,0,1,.5-.8C578.42,324.29,578,324.48,578.1,325.07Z"/><path class="cls-1" d="M475.35,359.47a.5.5,0,0,1,0-.13C475.25,359.41,475.28,359.44,475.35,359.47Z"/><path class="cls-1" d="M468.91,346.12a2.68,2.68,0,0,1,.45.3C469.31,346.32,469.18,346.22,468.91,346.12Z"/><path class="cls-1" d="M585.15,316.86c.16-.25,0-.08,0,0Z"/><path class="cls-1" d="M588,317.47a.47.47,0,0,0,.16.3A.63.63,0,0,1,588,317.47Z"/><path class="cls-1" d="M579.16,330l0,0C579.29,330,579.26,330,579.16,330Z"/><path class="cls-1" d="M585.67,316.72a1.52,1.52,0,0,0-.4.16A1.49,1.49,0,0,0,585.67,316.72Z"/><path class="cls-1" d="M585.4,316.56l.21-.15C585.56,316.31,585.48,316.29,585.4,316.56Z"/><path class="cls-1" d="M584.9,317.2a1.24,1.24,0,0,1,.37-.32c-.07,0-.11,0-.12,0Z"/><path class="cls-1" d="M498.51,369.54a.35.35,0,0,0-.05-.08C498.09,369.65,498.24,369.64,498.51,369.54Z"/><path class="cls-1" d="M565.38,348.41v-.05l0,0Z"/><path class="cls-1" d="M564.9,349.5c-.2-.9.06-1,.43-1.12l-1.53-1.13Z"/><path class="cls-1" d="M527.61,370.21l.89.42c-.72,1.12-1.48.93-.58,1.6-.31-2,3-.88,2.61-2.89l.61.29c-.15,0-.15.14-.3.15,1.22.7.37-1.58,1.68-1.64.47,0,.86.22.63.54l.82-.77c.29,0,.33.31,0,.36l1.43-.59v.06a8.39,8.39,0,0,1,.58-1.28c.46.16-.11.27.06.48l.64-.74c.5.38,0,1.1-.58,1.22,1.41,1.67.5-.71,2.53-.16l-.69.51c.89.91,1.36.33,2.5.63-.36-.24-2.39-1-1.69-1.83.3.05.65,0,1-.58.27.67.66.32,1.22.05l.33.9c.52-.51.28-.94.47-1.48.71-.21,1.15.39,1.57.88,1.16-.37-1.24-.73,0-1.49,1-.1,1.53-.73,2.28-1.8.76,0,.17.57.52.7l.17-1c.14,0,.21.18.25.3.31-.51-.42-.87.15-1.47-.33-1,2.19.5,2.43-1,.35.11.21.56.47.84a6.4,6.4,0,0,0,1-2.6h1.13c-1-.22-.71-1.39-.52-2.41-.39-.14-.73-.27-.92-.32L551,355c.21,0,.3.38.38.82a1.88,1.88,0,0,0,0-.31c.55,0,.7.62.76,1.23a6.2,6.2,0,0,1-.69-.23,3.4,3.4,0,0,0,.61,1.77.84.84,0,0,1,.17-.44c0,.17.07.32.15.37s.08-.19.1-.5l.85.7-.2-.38,1.71-.41c.27-1.58.1-3.41,1.19-4.87.15.89.73,1,1.3,1.79-1-.45-.83,1.2-1.71,1.63a.42.42,0,0,1,.64.39c.26-.58.53-1.16.77-1.74.44.61.63.21,1.17.18-1.21-1,.33-1.56.55-2.35.36.36.57.86-.15,1.29,1.44.29-.23-2.1,1.06-2-.14.14-.27.15-.17.4.07-.65,1.17-1.12,1.25-.61l-.14.14c1.14-.72,3.06-2.72,2.35-3.78a12.59,12.59,0,0,1,1,1.5c-.36-1.59-.74-3.17-1.16-4.76.59.95,3,2.3,2.58,3.51a1.24,1.24,0,0,0,1-1c-.26,0-1.48-.78-1.33-1.06,1.43.33.85.09,2.3.15-.4.06-1.32-1.43-.92-1.74.12.24,1.21,1.19,1.2,1.44l-.25-2.09c0,.44.95,1.06,1.49,1.2-.32-.14.81-.76.93-1.12l-.66.1c1.21-.84-.66-2.68.4-3.62.13.37,1.23,1.81,1.89,1.44-.38-.85-1.95-4-1.57-5.31l.52.17.25-1.08a28.15,28.15,0,0,1,1.46,5.85c.65-.12.52.29,1.05-.32.53.11.2.81,0,1l1.53-1.16c-.79-.64.27-1.74-.39-2.26l-.66,2.19c-.79-.64-1.25-2.83-.21-3.66.52,0,1.14,1.42,1.4,1.63-.14-.37.38-1.38.64-1.3v.78c.78-.28-.15-1.79,1.16-1.79.25-.18,1.57.21,1.17-.23a12.85,12.85,0,0,1-4.27-3.6,10.9,10.9,0,0,1,2.55-.29c1,.24,1.07,2,1.93,2.22a1.4,1.4,0,0,1-.25-.8c.38-.07.53.68.91.08-.67-.78,1-1-.41-.83.24-.7.64-.39,1.15-1-.66-.25-1.19-2-.95-2.73a1.54,1.54,0,0,0,.69.36c1-1,1.84-1.23,2.71-2.19.26.07.91-.2,1.06.3,0-.26-.16-.62.09-.94,1.18,0-.49.76.7,1-.41-.43.07-1.32.17-2-.8-.48-1,.87-1.11,1.54a3.76,3.76,0,0,1-.82-3.86c.48-1,.92.19.91-.07,1.51-1.37-.52-2.75,1.27-3.41,1.05,0,1.23,1,1.77,1.3-.35.87-1.28.68-1.65,1.15l.77-.3c0,.39-.21,1-.6,1.05.92.06,2.36-2.49,3.89-3.22,0-.39.09-.93-.3-1l-.25.45c-.78-.09-.06-1.29-.7-1,.09-.8,0-1.83.94-2.3l.8.48c-.21-.16-.81.1-.77.48,0-.56,1.88-.26,1.25-1.37l-.91.07c.09-.81-.1-2.07.67-2.5-.94-.32,0,.21-1.24-.05,1.33.49-1.44,1.56.15,1.86-1.33-.36-1.08.44-2.4.34.25.18.62.17.05.6a.84.84,0,0,1,.1.29l0,0h.05s0,.06,0,0a1.12,1.12,0,0,1,.58,0c.29.72-.45,1.54-.42,2.05-.38.22-.15-.35-.54-.4l0,.78c-.54-.41-1.56.08-1.22-.91l-.6.64A1.56,1.56,0,0,0,582.3,320c-.38.21-.13,1.27-.29.65l-.59,1.3-.13-.1c-1,.95-1,2.83-2.93,3.16a2.55,2.55,0,0,1-1,1.38l-.54-.28c-.23.57-1.59.92-1.31,1.5-1.58-.59-2.14,1.85-3,2.42l.53.54a6,6,0,0,0-1.17,2l.53.42c-.11.93-1.66,1.09-2.43,2-.13-.24.13-.41.38-.46-2.07,0-1.27,2.92-3,3.08a.54.54,0,0,1-.55.54.11.11,0,0,0,0-.08l-.1.09c-.18,0-.38,0-.57.06a1.45,1.45,0,0,0,.52,0,3.05,3.05,0,0,0-.5.88l-.63-.4s0,.05,0,.08c-.44.06,0,.44.56.69a1.77,1.77,0,0,0,0,.65c-1-.62-.4,1-1.56.35.26.62-1,1.61-.25,2.66-.13-.11-.26-.09-.12-.23-.4.17-.8.35-.81.86l-.76-.55.2,1.52c-.78,0-1.16-.12-1.25-1-.2,1.7-.49,1-.58,2.55l-.36-.47c-.28.28-.22,1.29-.72,1.08-1.39-.25-3.39,2.8-5.81,3.39,1.44,1.08-1.29,0-.52,1.15-.36-.24-.74-.23-.68-.73-.65,1-1.74.51-1.67,1.9-.35-.25-.17-.63-.41-.76,0,.13-.07.5-.31.37s-.07-.37,0-.62c-.87.72-.22,1.82.41,2.84-.81-.11-1,.12-.9,1-.39-.2-.9-.34-.39-.87-.37.19-2.36.88-1.88,1.72-.24-.14-.51.25-.54.39a8.16,8.16,0,0,0-1.64.92h.29c.27,1.18-.51.63-1.08,1.08l0-.11c-1.85,0-.45.69-2.32.61l.4.6c.55,1.46-1.72-.2-2.31.73l.48.23c-.26.73-2.16-1.32-2.69-1.33-.16-.08.07-.26.17-.41-1.56-.35.21.93-.63,1.51-.35-.4-.26-1.29-.9-1.13-.42-.24-1.23,2.21-2.42,1.59.31.31.63.61.29,1-.64.4-2.28-.83-2.54.54a.5.5,0,0,1-.21-.26c-.44.46-1.56,1-1.73,1.72-1.09-2.3-3.07,2-3.58-.27l-1.64.45v-.24a1.73,1.73,0,0,0-1.65,1.28c-.28-.12-.13-.36-.13-.48-1.66-.21-1.78-.09-3,1.24l-.24-.71c-.3.51-2.44-.87-3.89.18a.53.53,0,0,1,.14-.35c-1.67,1.1-4.38-1.68-4.8,1.09l-1.12.77c1.53.08-.15,1.19.51,1.59-.6.21-1.59-.77-.87-.92l.12.14c.18-1.42-1.86-.46-1.84-1.42a9.2,9.2,0,0,1-1.05,0c-.35,0-.7-.08-1-.14a19.87,19.87,0,0,1-2-.4l-3.85-1.13.06,1.14-.9-.28c-.18-.3-.1-.9.52-.71-.18-.68-1.19.26-1.28.48-1.12-.79.82-1.09.45-1.24a3.07,3.07,0,0,1-.53-.06l.08.16c-.53.3-.71.74-1.46.45-.41-.37,0-.73-.21-.83,0-.07,0-.12-.27-.12a9,9,0,0,1-1.06-.47l.14,1c-.63.21-1-.46-.86.67-.11-.87-1.08-1.39-2.06-1.81s-2-.79-2.07-1.11a2.71,2.71,0,0,1-2.37-.64c.11.27-.23,1.19-.88.7.62-.8.4-1.17.06-1.52a1.73,1.73,0,0,1-.7-1.53c0,1.11-2-1-2,.66-.49-.48.36-.66.19-1.32-1.74-.21-2.62-2.32-4.34-3.24-.18.19-.15.71-.72.79l-.07-1.67c-.39-.13-1.19,1-1.21-.15-.06.24-.13.6-.39.51-2.33-3.31-6.95-4-8.55-8.39.1.74-.21.55-.54.31.13.26-.41.5-.6.81l-.67-1.81c-.86.58-1.44-1.07-2.17-.44l.52.19c-1.25.44-.79,2.56-1.77,3.62,1.4-.5.43,2.77,2.58,2.15,0,.41-.48.21-.57.57.64-.28,1-.13,1.43.55l-.16.06c1.72,1.17,2,2.2,3.62,4l.3-.67a1.56,1.56,0,0,1,.37.91c1.11-.5-1.08-.91.06-1.53-.36,1.55,2.78,2.17,2.17,3.75.62.47.31-.8.93-.33l-.1.49.5-.35a1.11,1.11,0,0,1,0,1.3c-.07-.11-.35-.13-.47-.18.21.83,1.63,1,1.72,1.23l-.46-.66c2,.91,3.83,2.88,6.08,3.22l0-.37c1.68.29.9,1,2.54,1.63l-.1,0a1.69,1.69,0,0,1,1.37.22c-.58.13.37,1.07-.35,1.17,1.85.24,1,0,2.58-.62v.61c.57-.29.72-.51,1.56-.27-.85.12.14,1-.86,1.23,1.18,1.94,3,0,3.12,2,1.35-1.12-1.18-1.39-.61-1.52-.17-.61,1.09-.8,1.55-.45s.2,2.25,1.68,2.67c-.14-.06-.19.05-.33,0,.43.55,1.22-.17,1.7.66.63-.77.86.31,1.28-.82-.47,0-.92-.08-1.39-.12.84,0,1.89-1.22,2.94-.28a2.24,2.24,0,0,1-.89.54c.29.42.76-.06,1.06.38-.37,1.12-1.7-.12-2.76.52.26.62,1.8-.45,1.05.71,1-1.45,1.45.56,2.72-.44l-.2.69c.18-.08.58-.36.88-.3l-.72.82c1-.64,1.54.94,2.43.64-1.72-.24-.27-.91-.91-1.53,2.17-.65.95,2.07,3.41,1.89-.34.08-1.19-.51-.66-.8a3,3,0,0,1,1.29.87c1.6-.05-.22-.74.47-1.14.51.91.78-.31,1.45-.61V372c1.79.42.44-1.52,2-1l-.62,1,.82-.28-.13.83a1.87,1.87,0,0,1,2-.35,1,1,0,0,1,.74-1.41c.53.39-.22.71.81.52-.2.47-.41,1.06-.92.43,0,.24-.19.48-.22.71.58.45,1.37,0,1.75,0a.75.75,0,0,1-.43-.13l1.42-1.13c.27.25.1.48-.07.71.3-.1.48-.45.92-.57-.05.6,0,1.21-.58,1.55.47-.26.93-.55,1.39-.81.12.24.82.61.66.84.85.25,1.84-1.36,3-1a.67.67,0,0,1,.35-.37c1,0,2,.56,3.08-.42l.85.93c.89-.42-1.14-1.13.33-1.82,1-.55.58.8,1,1,.46-.63,1.17-1.87,2.35-1.23C528.2,370.17,527.91,370.07,527.61,370.21Zm11.16-3.64c-.17.21-.44.8-.74.46C538,366.16,538.31,366.47,538.77,366.57Zm14.62-10c0,.29-.27.35-.67.29A.83.83,0,0,1,553.39,356.55Zm30.06-36.85s0,0,0,0C582.93,319.91,583.13,319.86,583.45,319.7Zm.9-.55a.26.26,0,0,0-.2-.24c.1.17,0,.35-.25.51C584.09,319.49,584.27,319.48,584.35,319.15ZM496.87,364l.12.23C496.53,364.29,496.7,364.15,496.87,364Z"/><path class="cls-1" d="M552.36,358.52a1,1,0,0,1-.3-.27C552.05,358.4,552.13,358.52,552.36,358.52Z"/><path class="cls-1" d="M520.55,371.81h0a.3.3,0,0,0,0,.13Z"/><path class="cls-1" d="M578.57,334.86a.91.91,0,0,1-.55.05C578.14,335,578.32,335.07,578.57,334.86Z"/><path class="cls-1" d="M586.93,314.33l-.28.61c.18-.26.37-.24.56-.28C587.07,314.56,586.81,314.49,586.93,314.33Z"/><path class="cls-1" d="M594,313.09c0-.13.12-.16.11-.29l-.26-.2C593.59,312.91,593.61,313.3,594,313.09Z"/><path class="cls-1" d="M589.13,315.47c.49.36.6-.08.82-.49l-.06.06C589.34,314.38,589.24,314.92,589.13,315.47Z"/><path class="cls-1" d="M590,314.88a1,1,0,0,1,.26-.32C590,314.3,590.1,314.64,590,314.88Z"/><path class="cls-1" d="M584.88,317.93c.26-.06-.49-.62-.23-.55C584.23,316.69,584.42,319.07,584.88,317.93Z"/><polygon class="cls-1" points="590.88 316.51 590.21 316.14 590.5 316.73 590.88 316.51"/><path class="cls-1" d="M588.12,318.83l.63-.4a.27.27,0,0,1-.06-.32C588.37,318.43,587.94,318.7,588.12,318.83Z"/><path class="cls-1" d="M588.69,318.11a.76.76,0,0,0,.28-.52A1.78,1.78,0,0,0,588.69,318.11Z"/><polygon class="cls-1" points="590.4 317.4 590.14 317.46 589.77 317.81 590.4 317.4"/><path class="cls-1" d="M582.9,324.55l-.35.74c.14.23.4.17.51-.12S583.17,324.63,582.9,324.55Z"/><path class="cls-1" d="M586,324.13c-.26.06-.39,0-.66-.12l.69.64Z"/><path class="cls-1" d="M584.67,326c.14.23-.2,1.34.41.56C584.94,326.33,585.31,325.59,584.67,326Z"/><polygon class="cls-1" points="575.86 334.04 575.99 333.88 574.85 332.87 575.86 334.04"/><path class="cls-1" d="M571.22,344.17c.94-.41-.51-.82.42-1.1-.1-.41-.76.23-.82-.15C570.69,343.59,570.33,343.65,571.22,344.17Z"/><path class="cls-1" d="M570.82,342.92a2,2,0,0,0,0-.37A1,1,0,0,0,570.82,342.92Z"/><polygon class="cls-1" points="467.71 344.1 467.44 343.48 467.42 344.12 467.71 344.1"/><path class="cls-1" d="M466.1,344.26l.5-.84-.83.46C465.9,343.93,466.16,344,466.1,344.26Z"/><path class="cls-1" d="M541.13,367.73l0-.24c-.19-.2-.33-.16-.63-.08Z"/><polygon class="cls-1" points="532.63 369.82 532.78 369.8 532.29 369.02 532.63 369.82"/><path class="cls-1" d="M525.83,372.48c.29,0,.6-.28.9-.3C526.12,372.46,525.55,371.42,525.83,372.48Z"/><path class="cls-1" d="M486.08,344a3.7,3.7,0,0,1-.67.17A1.87,1.87,0,0,1,486.08,344Z"/><polygon class="cls-1" points="487.45 343.57 487.2 343.57 487.82 343.59 487.45 343.57"/><path class="cls-1" d="M487.42,343.71c1.06,0-.16-.06.22-.07h.25l-.86,0C487.16,343.64,487.72,343.69,487.42,343.71Z"/><path class="cls-1" d="M485.11,343.65c.41,0,.35,0,.13,0h-.13Z"/><path class="cls-1" d="M485.14,343.64Z"/><path class="cls-1" d="M485.36,343.68l-.36,0-.47,0Z"/><path class="cls-1" d="M486.12,343.74h0Z"/><path class="cls-1" d="M485.65,343.69l.32,0c.17,0,.5,0-.12,0Z"/><path class="cls-1" d="M485.81,343.7c.23,0,.38,0,.74,0A3.76,3.76,0,0,0,485.81,343.7Z"/><path class="cls-1" d="M488.51,343.75h.32l-.35,0C488.65,343.73,488.18,343.74,488.51,343.75Z"/><path class="cls-1" d="M484.8,343.67l.86.08-.24,0Z"/><path class="cls-1" d="M485.66,343.75l.37.05C486.08,343.79,485.9,343.77,485.66,343.75Z"/><polygon class="cls-1" points="487.27 343.83 486.49 343.75 487.28 343.84 487.27 343.83"/><polygon class="cls-1" points="484.76 343.68 484.26 343.62 485.01 343.71 484.76 343.68"/><path class="cls-1" d="M484.83,343.7l-.93-.12.73.1C484.45,343.65,484.5,343.66,484.83,343.7Z"/><path class="cls-1" d="M485.07,343.75l-.44-.07Z"/><path class="cls-1" d="M485.91,343.8l-.62-.06.61.07Z"/><path class="cls-1" d="M485.92,343.81h0Z"/><path class="cls-1" d="M485.91,343.8Z"/><path class="cls-1" d="M486.68,343.83c.34,0,.69.09,1.24.12Z"/><path class="cls-1" d="M486.68,343.88h.15l-.57-.06Z"/><polygon class="cls-1" points="486.87 343.91 486.68 343.88 486.62 343.88 486.87 343.91"/><path class="cls-1" d="M485.64,343.82l.31.05c.12,0,.19,0,.19,0Z"/><path class="cls-1" d="M485.83,343.82h0C485.91,343.83,485.93,343.83,485.83,343.82Z"/><path class="cls-1" d="M485.88,343.91l.11,0-.1,0Z"/><path class="cls-1" d="M486.26,343.9c.12,0,0,0-.21,0l.09,0Z"/><path class="cls-1" d="M485.34,343.8l.32,0C485.48,343.82,485.18,343.77,485.34,343.8Z"/><path class="cls-1" d="M485.69,343.81h0C485.54,343.79,485.6,343.8,485.69,343.81Z"/><path class="cls-1" d="M485.69,343.81l.36.05-.19,0Z"/><path class="cls-1" d="M489.59,344.59c-.66-.12-1.07-.22-.46-.14-.39-.09-2.16-.36-3.14-.52l.74.14c.29.05.72.09,1.18.18.24.07-.21,0-.51-.06l.83.16,1.11.22-.37-.09C489.14,344.5,489.42,344.57,489.59,344.59Z"/><path class="cls-1" d="M486.06,343.93l-.06,0-.74-.11.63.11h.1Z"/><path class="cls-1" d="M486,343.9l1.47.23a5.8,5.8,0,0,0-.72-.13c.12,0-.32-.06-.68-.09l-.14,0-.29,0h.14l.22,0-.22,0h-.1l.3.06C486.09,343.92,486.08,343.91,486,343.9Z"/><path class="cls-1" d="M489.23,344.11l-.14,0Z"/><path class="cls-1" d="M488.84,344.09c-.08,0-.33,0-.25,0l.5,0a7.43,7.43,0,0,0-.75-.07h.09c-.23,0-1-.07-1.1-.08Z"/><path class="cls-1" d="M487.56,344l.27.07.53.06-.31,0C488.19,344.12,487.8,344.08,487.56,344Z"/><polygon class="cls-1" points="485.59 343.87 484.99 343.76 485.83 343.92 485.59 343.87"/><polygon class="cls-1" points="485.64 343.89 485.12 343.8 485.43 343.86 485.64 343.89"/><path class="cls-1" d="M493.31,342.47h0Z"/><path class="cls-1" d="M493.25,342.34l-.3,0Z"/><path class="cls-1" d="M485.3,343.63c-.38,0-1,0-.51,0l.44,0C485.15,343.62,485.2,343.62,485.3,343.63Z"/><path class="cls-1" d="M488.83,342.78l.19,0-.58.1Z"/><path class="cls-1" d="M491.51,342.34l-.39.06Z"/><path class="cls-1" d="M494,343.48l.67,0C494.64,343.45,494.31,343.48,494,343.48Z"/><path class="cls-1" d="M485.56,344l-.31-.07Z"/><path class="cls-1" d="M486.36,343.27l.41,0Z"/><path class="cls-1" d="M485.23,343.89l.12,0-.1,0C485,343.85,484.91,343.82,485.23,343.89Z"/><path class="cls-1" d="M492.06,346l-.1,0Z"/><path class="cls-1" d="M485.44,344h0Z"/><path class="cls-1" d="M485.31,343.88Z"/><path class="cls-1" d="M487.5,344.32l.26.05Z"/><path class="cls-1" d="M488.09,344.52h0C488.24,344.56,488.21,344.55,488.09,344.52Z"/><path class="cls-1" d="M485.56,343.93l-.17,0Z"/><path class="cls-1" d="M485.3,343.87h0Z"/><path class="cls-1" d="M485.33,343.89h.06l-.08,0Z"/><path class="cls-1" d="M491,344.68H491C491.25,344.73,491.21,344.72,491,344.68Z"/><path class="cls-1" d="M491.15,343.19h0Z"/><path class="cls-1" d="M491.56,343.08c-.82.08-.75.09-.47.11l-2,.08Z"/><path class="cls-1" d="M493.54,342.89l.58-.11a4.94,4.94,0,0,0,1.45,0c-2,.14-.2-.29-2.22-.1l.42-.09s.1,0,.08,0c.69-.13-.33,0-.88,0h0c-.23,0-.38,0-.31,0a3.88,3.88,0,0,1,.66-.1h-.54a1.2,1.2,0,0,1,.35,0l-.23-.06H493l-1.06.1a4.66,4.66,0,0,1,.47-.06l-.53,0a3.76,3.76,0,0,1,1-.1c2-.31-.54,0,.55-.19h.3a11.59,11.59,0,0,0,1.33-.3c-.36.06-1.7.34-2.25.38.14,0,.2-.06-.24,0,.72-.11.52-.1.45-.1l.95-.15c-.31,0-.79.1-1.24.17.05,0,.78-.16,1.39-.26.09,0-1.13.2-1.39.21.31-.06-.11,0-.74.09l.85-.14-.79.13.36-.06-1.24.21c-1.06.18,1.44-.24.2,0l.95-.16-1.72.32.57-.08-2.29.38-.65.1-.48.09.74-.12-.2,0,1.35-.22-.57.08,1.79-.29-.27.05.39-.07-.36.07,1-.16-.42.07.58-.05c-1.11.21-2.72.47-3.24.59l2.2-.3c-1,.11.47-.12.31-.13.08,0,.52-.06.68-.09l-1,.2a4.29,4.29,0,0,1,.84-.08,7.46,7.46,0,0,0-1.53.27,3.61,3.61,0,0,0,.93-.15c1.09-.1-1.8.27-.88.2,0,0-.05,0,.21,0-.47.07-.16.09.29,0h0c.12,0-.13.25-1.41.34l1.8-.14-2.18.21-1.8.15c.39,0,3.71-.12,4.06-.23s.55,0,.26.1-1.88,0-2,.06h1.15l1.12,0c-.36,0-2.45.06-2.37.09l2.43-.06-1.07.07-1.13.06c.41,0,1.9,0,2.53,0-.44,0,0,.12-.21.15l-.51-.06c.31.15-3.18.05-3.08.13.47,0,2.85.09,3.12.18l-5-.16.33,0h-.38l.81.06,1.26.07c1.29.07,2.56.1,3.27.09.51.09.77.06.69.15a2.21,2.21,0,0,0,1,0l.34.28c-1.32-.13-1.36.05-2.45-.08.46,0,.93-.05,1.41-.1a24,24,0,0,0-3.55-.1c.51.09,2.33.25,2.77.29-.45,0-.88,0-.57.08l.71,0c.47.16-1.74-.11-.52.15.08,0,1.64.35.88.24s-2.22-.4-3.68-.63l-2.21-.35,1.16.28.72.14,1,.17c.66.1,1.29.2,1.78.31l-.91-.14c.29.08,1.07.19.91.22-1.28-.24.1.12-1.08-.19-.36,0,.26.1.21.15-.54-.13-1.7-.34-2.35-.47h0l-.37-.07.59.13c.17.06.76.22.82.24l1.18.28-.62-.14,1.39.32-1.32-.31c-1.06-.25-.27-.06.15,0l-2.82-.66.51.12c.27.05-1.66-.4-.89-.23l1.76.39c.2.06-.47-.08-.47-.08l.33.07c.2,0,.32.08.13,0l.35.07.16,0a2.2,2.2,0,0,1,.57.07l-.85-.2.07,0-1-.22c-.35-.09-.94-.22-.6-.16l.79.15c-.23,0-.48-.09-.26,0-.33-.07,1.12.2.11,0l-.57-.1c-.37-.09-1.2-.26-.93-.22l-.85-.15c1.16.22-.08,0,1.12.24l-1.37-.26.36.07.22.05h0s.05,0,0,0l.39.07c.58.13.53.13.81.2l-.55-.12.42.1-1.23-.27h0l-.22,0,.16,0,.29.08-.13,0c-.08,0,.77.19-.15,0,.11,0,.25.06.1,0l-.42-.1c.14,0-.43-.1,0,0l-.22-.05h0c-.74-.17,0,0-.23-.08l.52.09.32,0,.46.07c.37,0-.34-.1-.29-.12-.17,0-.13,0,0,0-1-.13.75,0,0-.1.17,0,.11,0,0,0h0l-.24,0,.24,0,.19,0h-.48l.61,0h.3c-.8,0,.28,0-.57,0,.42,0,.33,0,1.23-.07h-.18c-.09,0-.19,0,.07,0l-.64,0,.89-.07c-.39,0-.62,0-1.13.05l1.11-.12-.43,0s.62-.07.27-.05c-.82.05,0-.11-.76,0,1.36-.17-.59.07.48-.08l-.79.11c.34-.06-.5.06.44-.09l-.69.11.1,0-.44.07,2.1-.34c-.44.07-.37.05.3-.06l-.79.13s-.41.05.41-.08c-.2,0,0,0,.06,0s-.09,0,0,0l.13,0,.4-.07-.1,0a3.06,3.06,0,0,0-.41.08l.65-.11c1.43-.24-.77.13-.2,0l.37-.07c.53-.07-1.91.33-2.09.36l-.31.05c-.84.14.9-.14,1.13-.17l-1.32.21c-.4.05,1.64-.23.71-.08l1.07-.15c.17,0-1.43.23-.18.08l-.3,0,.87-.06h0l.39,0c-2.54.26,1.22,0-1.12.21l.11,0h-.23c-.17,0,.39,0,.94,0-.16,0-.37,0-.5,0-.48.06-.37.05.75.08h-.75c.42,0-1.18.06-.35.1h-.33c.82.09-2,0,.55.14l.6.07c.24,0,1.11.08,1.56.09a3.93,3.93,0,0,1-.94,0h.14c-1.33-.11-.53,0-1.43-.06,0,.08-.78.05-.89.07l1,.14H487l-.69-.11c-.55-.08.42.08.62.12-.41,0-1.08-.19-1.11-.18h.05l.12,0c.37.07.77.14.7.14l-.62-.1H486l.73.13a5,5,0,0,0,.75.15c-1.27-.22-.59,0-1-.1.46.12.42.12.33.12a7.58,7.58,0,0,1,.77.19c-1.5-.36-.72-.14-1.8-.41.72.18.11.06,1.12.3l-.9-.22c.5.16-.45-.09-.31,0l.69.2-.89-.25.36.11.41.12c-.47-.12-.35-.08-.35-.08l-.12,0-.65-.2.3.09.54.15-.56-.17c.5.14,0,0,.46.11l-.07,0,3.59,1c-1.65-.46,2.5.81.16.13l1,.31c-.79-.23-.94-.27-.57-.15l.19,0a8.2,8.2,0,0,0,1.21.38l-.88-.26.64.19-1.56-.47c1.79.55.16,0,2.15.6,0,0-1-.29-.95-.3l.54.16-.68-.21,1.25.35c-.06,0,.11,0,.15.06.64.17-.16-.09.05,0l-.35-.08c-.41-.18.36,0-.6-.39l-.39-.1c-.65-.22.47.08.22-.05l.08,0c-.36-.1-.53-.16-.47-.16.43.12.9.17,1.37.31a15.71,15.71,0,0,0-1.92-.52l.64.13a8.37,8.37,0,0,1-1-.26c.5.14,1,.18,1.64.36,1.42.2-1.26-.38.75,0-1.67-.36-1-.13-1.36-.21a3.86,3.86,0,0,1-1-.26c.06,0,2.21.38,2.23.3l.1,0c.45.05-.54-.15.18-.06-1-.19.09,0-1.2-.25l.25.11c-.31-.1-1.79-.36-1-.29.26,0,.59.11.77.15.39,0-.23-.07.18,0,1.28.2.22.12,1.17.32.56.06-.88-.23.51,0-1.76-.3.27-.05-1-.3l.77.11a2.72,2.72,0,0,1-.44-.1l1,.16c-.83-.16.78,0,.35-.11,0,.11-.93-.09-1.52-.12-.95-.23,2,.18,1.73,0a2.14,2.14,0,0,1-.82,0,6.64,6.64,0,0,1,.88,0c-.12-.12-.79-.07-1.23-.15.93.05-.36-.08-.63-.14l.77.06c.53-.07-1.58-.16-.95-.2l1,.12-.25-.07.86.07c-.62-.1-.45-.11-.18-.15a8.47,8.47,0,0,1-1.38-.13c.47,0,.72,0,.63,0,.47,0,1.06.09.35.08l.71.06c.53,0,.14-.1.15-.13l-.19,0-1-.15a5.4,5.4,0,0,1,.73,0c-.08,0-.42-.05-.47-.08a10.5,10.5,0,0,1,1.51.1l-.65-.14c.27,0,.74,0,1,0s-1.18-.17-.71-.25l-.31,0c.14-.08.85-.18.07-.26l1.06-.1c-.22-.07-1.34.14-1.71,0s.9-.08,1.2-.13c-.52,0-1.59,0-.73-.17C493.62,342.84,493.46,342.87,493.54,342.89Zm-.79-.64c.16,0,.65-.06.23,0C492.15,342.36,492.53,342.3,492.75,342.25Zm-2.62.36c.24,0,.14,0-.12,0C489.94,342.63,490,342.63,490.13,342.61Zm-4.4,1.38h0C485.52,344,485.61,344,485.73,344Zm.27.06-.24-.06c.14,0,.15,0,.1,0Zm.32-.05.16,0C486.64,344.07,486.49,344,486.32,344Z"/><path class="cls-1" d="M491.2,342.4l-.39.06Z"/><path class="cls-1" d="M493.85,343.47h0Z"/><path class="cls-1" d="M491.55,345a2.35,2.35,0,0,0-.46-.12A1.65,1.65,0,0,1,491.55,345Z"/><path class="cls-1" d="M485.07,343.81l.16,0,.21,0Z"/><path class="cls-1" d="M489.2,344.42c-.09,0,0,0-.09,0l-.3,0A1.19,1.19,0,0,0,489.2,344.42Z"/><path class="cls-1" d="M487.16,344.2c.52.11.36.06.28,0h0C486.7,344.1,486.93,344.15,487.16,344.2Z"/><path class="cls-1" d="M487.42,344.23h0C487.13,344.17,487.36,344.22,487.42,344.23Z"/><path class="cls-1" d="M485.7,344l-.43-.1C484.64,343.74,486,344.05,485.7,344Z"/><polygon class="cls-1" points="488.9 344.53 488.25 344.41 488.76 344.51 488.9 344.53"/><path class="cls-1" d="M488.26,344.5l.21,0-.21,0S488.07,344.46,488.26,344.5Z"/><path class="cls-1" d="M488.26,344.47s0,0-.08,0S488.19,344.46,488.26,344.47Z"/><polygon class="cls-1" points="489.1 344.6 488.92 344.57 488.83 344.57 489.1 344.6"/><path class="cls-1" d="M487.77,344.49l.13,0,.25.06Z"/><path class="cls-1" d="M490,345l-.66-.15,1.05.25Z"/><path class="cls-1" d="M490.11,345c.29.07.8.2.77.18Z"/><polygon class="cls-1" points="488.34 344.34 488.33 344.35 487.06 344.13 488.34 344.34"/><path class="cls-1" d="M493.23,343.85c.47.13-1.25,0-.66.1-.49,0-.48-.09-.9-.08A5.34,5.34,0,0,1,493.23,343.85Z"/><path class="cls-1" d="M491.67,343.87h0Z"/><polygon class="cls-1" points="484.97 343.88 484.8 343.83 485.06 343.9 484.97 343.88"/><path class="cls-1" d="M485.52,344l-.49-.13.43.11Z"/><path class="cls-1" d="M494.6,341.91l-.24,0a1.3,1.3,0,0,0-.28.06Z"/><polygon class="cls-1" points="494.3 342.4 494.31 342.39 493.45 342.51 494.3 342.4"/><path class="cls-1" d="M495.4,343s-.15-.05-.11-.08S494.3,343,495.4,343Z"/><path class="cls-1" d="M520.74,359.54c-.11,0,.24.52.28.63C521.08,360,520.65,359.4,520.74,359.54Z"/><polygon class="cls-1" points="521.31 357.55 521.42 357.79 521.29 357.13 521.31 357.55"/><path class="cls-1" d="M522.53,356.85c-.66-.86-.35.4-.76.2l-.16-.19.34.8C522.14,357.39,522.19,356.7,522.53,356.85Z"/><path class="cls-1" d="M524.36,358.45c-.25-.33,0-.39-.22,0l.08.08A.38.38,0,0,1,524.36,358.45Z"/><path class="cls-1" d="M524.22,358.51c-.11.1.27.25,0,0Z"/><path class="cls-1" d="M524.7,358l0,.42c.16.19.34.14.37.33C525.16,358.42,525,358.23,524.7,358Z"/><path class="cls-1" d="M524.46,357.18v.19C524.52,357.45,524.56,357.46,524.46,357.18Z"/><path class="cls-1" d="M524.43,357.76l0-.39c-.11-.14-.3-.43,0,.15C524.28,357.24,524.4,357.52,524.43,357.76Z"/><path class="cls-1" d="M524.24,357.69c-.21-.15-.41-.2-.43-.62C523.57,357.39,524,358,524.24,357.69Z"/><path class="cls-1" d="M522,355.86l-.29-.2.08.37C521.78,355.85,522.21,356.14,522,355.86Z"/><path class="cls-1" d="M526,357.79c-.11-.2-.37-.49-.54-.73v.3A1.13,1.13,0,0,1,526,357.79Z"/><path class="cls-1" d="M525.5,357.06v-.45C525.3,356.67,525.36,356.85,525.5,357.06Z"/><polygon class="cls-1" points="523.87 356.14 523.99 357.03 523.93 356.1 523.87 356.14"/><polygon class="cls-1" points="526.77 357.37 526.94 357.89 526.72 357.09 526.77 357.37"/><path class="cls-1" d="M527.2,357c.15.42.5.56.55.84a1.67,1.67,0,0,0-.07-.88C527.67,357.19,527.53,357.22,527.2,357Z"/><path class="cls-1" d="M527.59,356.44a2.57,2.57,0,0,0,.09.52A1.91,1.91,0,0,0,527.59,356.44Z"/><path class="cls-1" d="M525.87,356.51a1.54,1.54,0,0,0,.48.47l-.41-.5Z"/><path class="cls-1" d="M525.93,356.46v0l.18-.07Z"/><path class="cls-1" d="M525.85,356.52h0S525.81,356.45,525.85,356.52Z"/><path class="cls-1" d="M524.66,356.35a1.46,1.46,0,0,0-.55-1.18C524.26,355.6,524.55,355.79,524.66,356.35Z"/><path class="cls-1" d="M525.34,355.9h-.28a1.58,1.58,0,0,1,.3.52Z"/><polygon class="cls-1" points="525.33 355.66 525.34 355.89 525.44 355.9 525.33 355.66"/><path class="cls-1" d="M526.93,356.14a.45.45,0,0,1,.1-.47.57.57,0,0,0-.44.05C526.68,355.9,526.82,356.24,526.93,356.14Z"/><path class="cls-1" d="M526.41,356.25v0S526.36,356.16,526.41,356.25Z"/><path class="cls-1" d="M528.08,355l-.08-.09,0,.1Z"/><path class="cls-1" d="M526.51,355.63c-.15-.06-.12.11-.07.31a.4.4,0,0,1,.15-.22C526.55,355.64,526.52,355.58,526.51,355.63Z"/><path class="cls-1" d="M527.72,356a2.56,2.56,0,0,0-.33-.21C527.54,355.94,527.79,356.16,527.72,356Z"/><path class="cls-1" d="M526.54,356.34v0C526.64,356.47,526.6,356.42,526.54,356.34Z"/><path class="cls-1" d="M526.54,356.34a2.59,2.59,0,0,0-.1-.4,1,1,0,0,0,0,.27A.8.8,0,0,1,526.54,356.34Z"/><path class="cls-1" d="M526.18,351.35c.3.51.38,1.11-.15.69a9.91,9.91,0,0,0,2,2.89,1.35,1.35,0,0,1-.26-.84c-.24-.23-.83-.37-1-.93.09-.42.32,0,.62.23-.51-.55-.26-1.11-.9-2l0,.46C526.39,351.72,526.32,351.44,526.18,351.35Z"/><path class="cls-1" d="M527.59,355.12l0,.11c.15,0,.34.19.71.51a1.49,1.49,0,0,0-.21-.71l-.44.18Z"/><path class="cls-1" d="M527.19,355.46c-.28-.59-.23-.94-.72-1.46-.21.18.12.56.13.88.29-.37.08.38.55.52a.49.49,0,0,1-.12.27,2.28,2.28,0,0,1,.36.13l0,0h0c-.06-.06-.09-.1-.05-.07v0l-.11-.22c.18.05.11.13.11.22l.05.09h0l.19-.54C527.42,355.2,527.33,355.28,527.19,355.46Z"/><path class="cls-1" d="M523.59,353.86a.31.31,0,0,1,.09.12C523.67,353.9,523.65,353.85,523.59,353.86Z"/><path class="cls-1" d="M524,354.1c0,.1.13.33,0,.33s-.16-.27-.28-.45a.83.83,0,0,0,.39.68l0-.09a3,3,0,0,1,.9.76A13.09,13.09,0,0,0,524,354.1Z"/><path class="cls-1" d="M525.49,354.64l.15-.46-.46-.38.19.28C525.12,354.08,525.38,354.41,525.49,354.64Z"/><polygon class="cls-1" points="528.28 355.27 528.61 355.87 528.27 354.94 528.28 355.27"/><polygon class="cls-1" points="528.65 354.94 528.96 355.45 528.87 355.08 528.65 354.94"/><path class="cls-1" d="M537.45,343.3l-.06.19A.6.6,0,0,0,537.45,343.3Z"/><path class="cls-1" d="M538.25,343.11l-.07-.29C538.19,343,538.21,343.1,538.25,343.11Z"/><path class="cls-1" d="M538.46,347.57c.49.3,1.21.8.75.32l-.47-.44C538.73,347.61,538.61,347.62,538.46,347.57Z"/><path class="cls-1" d="M541.29,338.86l-.18-.09.43.47Z"/><path class="cls-1" d="M539.21,337.14l.45.1A1.64,1.64,0,0,0,539.21,337.14Z"/><path class="cls-1" d="M533.26,345.06v.68C533.48,345.69,533.31,345.38,533.26,345.06Z"/><path class="cls-1" d="M532.71,351.91a.77.77,0,0,0,.52.12C532.87,351.82,532.43,351.45,532.71,351.91Z"/><path class="cls-1" d="M535.84,336.58a.78.78,0,0,0,0,.4A.56.56,0,0,0,535.84,336.58Z"/><path class="cls-1" d="M533.56,351.78l-.15-.08c0,.15,0,.29-.18.33C533.49,352.18,533.71,352.23,533.56,351.78Z"/><path class="cls-1" d="M517,346.2l0-.08C517,346.21,517,346.21,517,346.2Z"/><path class="cls-1" d="M512.79,339.44s.11,0,.18,0S512.89,339.36,512.79,339.44Z"/><path class="cls-1" d="M530.47,354.09c-.07.1,0,.07,0,0Z"/><path class="cls-1" d="M528.63,352.22a1,1,0,0,0-.14-.28A1.4,1.4,0,0,1,528.63,352.22Z"/><path class="cls-1" d="M532,347.91h0C531.89,347.83,531.91,347.84,532,347.91Z"/><path class="cls-1" d="M530.17,353.93a.64.64,0,0,0,.22.09A.69.69,0,0,0,530.17,353.93Z"/><path class="cls-1" d="M530.36,354.18h-.11C530.3,354.27,530.35,354.33,530.36,354.18Z"/><path class="cls-1" d="M530.57,354a.21.21,0,0,1-.18,0,.3.3,0,0,1,.08.07A.91.91,0,0,1,530.57,354Z"/><path class="cls-1" d="M525.52,344l0-.06C525.41,344.25,525.45,344.2,525.52,344Z"/><path class="cls-1" d="M535.73,340.84l0,0h0Z"/><path class="cls-1" d="M535.63,340.26c.47.67.34.66.14.62l1.41,1.24Z"/><path class="cls-1" d="M535.6,344l.41.5c-.07,1-.39.75.06,1.49-.47-2,1-.48.49-2.46l.28.37c-.06,0,0,.11-.09.11.6.85-.14-1.49.36-1.32a.68.68,0,0,1,.34.62l.19-.58c.1,0,.18.36.07.35l.46-.31v.06a9,9,0,0,1,0-1.07c.21.24,0,.22.1.46l.13-.56c.27.47.19,1,0,1,.85,1.86.08-.56,1,.4l-.19.33c.51,1.05.6.59,1.12,1.18-.19-.33-1.15-1.54-1-2.12.13.12.26.15.3-.29.22.69.33.47.51.36l.28.92c.13-.34,0-.79,0-1.25.27,0,.56.7.81,1.28.44,0-.64-1-.25-1.37.43.25.53-.2.71-.88.33.23.16.57.33.8l-.07-.79c.06,0,.12.23.15.34.07-.34-.31-.91-.14-1.24-.31-1,1.05,1.25,1,0a5.58,5.58,0,0,1,.32.91,1,1,0,0,0,0-.43l-3.55-4.6a3.57,3.57,0,0,0,.69,1.15l-.69-.14a3.75,3.75,0,0,1,1.63,1.62c.33.14.61.27.76.32l.16.65a2.75,2.75,0,0,1-.67-.59l.14.2a3,3,0,0,1-1.13-.91l.56.24a9.45,9.45,0,0,0-1.32-1.22.63.63,0,0,1,.13.26,2,2,0,0,0-.3-.26c-.09-.05.06.11.21.31l-.9-.59.33.28-.82,0c.62.93,1.64,2.18,1.59,2.93a12.25,12.25,0,0,0-1.66-1.46c.85.51,0-.61.3-.7-.18.05-.5-.26-.59-.38l.35,1c-.57-.49-.5-.28-.83-.38,1.21.9.52.95.71,1.41-.39-.32-.73-.7-.47-.81-1-.54,1.07,1.44.16,1,0-.06.11,0-.06-.22.23.41-.28.44-.54.08l0-.05c-.41.19-.87.93,0,1.86-.12-.11-1.06-1.11-1.23-1.31.85,1.17,1.69,2.37,2.5,3.57-.72-.82-2.74-2.49-2.93-3.18-.18,0-.4-.08-.27.34a6.18,6.18,0,0,1,1.23,1.15,10.74,10.74,0,0,0-1.53-.86c.24.1,1.34,1.41,1.18,1.49-.16-.2-1.18-1.22-1.26-1.39l.86,1.51a6.19,6.19,0,0,0-1.36-1.34c.26.21-.28.21-.24.4l.39.18c-.51.11,1.27,2.06.85,2.32-.19-.3-1.32-1.69-1.64-1.7.5.71,2.38,3.43,2.47,4.23l-.38-.32.1.65c-.67-1.14-2-3.58-2.5-4.57-.39-.18-.42-.41-.59-.21-.37-.29-.35-.62-.31-.69l-.64.16c.68.75.31,1.06.87,1.69l-.19-1.22c.68.74,1.58,2.42,1.13,2.58a15.11,15.11,0,0,1-1.31-1.69c.18.31.11.77-.08.61l-.2-.53c-.43-.15.54,1.27-.29.71-.12,0-1-.83-.68-.36a37.46,37.46,0,0,1,3.55,4.3,9.22,9.22,0,0,1-1.56-.89c-.68-.6-1.13-1.84-1.72-2.36a2.4,2.4,0,0,1,.34.65c-.22-.12-.49-.7-.59-.46.6.83-.42.21.44.75,0,.36-.31,0-.5.17a5.64,5.64,0,0,1,1.16,2.31,3.8,3.8,0,0,0-.5-.57c-.43.22-.91,0-1.27.24-.18-.18-.52-.3-.71-.71.06.19.21.5.12.6-.73-.57.16-.29-.62-1,.33.49.2.86.26,1.28.58.71.46-.12.4-.53a5.64,5.64,0,0,1,1.19,3.05c-.12.48-.6-.57-.55-.39-.7.22.77,2.16-.24,1.74a9.55,9.55,0,0,1-1.28-1.77c.08-.43.67.16.82,0l-.42-.18c-.07-.27,0-.55.2-.42-.57-.49-1,.54-1.85.28a1.54,1.54,0,0,0,.33.83l.08-.19c.49.46.23.93.58,1.06.06.51.24,1.25-.23,1.12l-.56-.74c.16.22.48.35.4.06.11.42-1.09-.77-.56.32l.54.41c.06.51.35,1.49-.05,1.4.6.7,0-.12.75.66-.87-1,.65-.36-.35-1.37.85.92.59.24,1.4,1-.17-.25-.4-.43-.11-.44a1.72,1.72,0,0,1-.1-.26h0l0,0s0-.05,0,0a1.45,1.45,0,0,1-.36-.31c-.28-.65.05-.84,0-1.21.2,0,.15.32.39.54l-.14-.55c.39.55.95.71.88,1.23l.27-.15c.37.21.66.19.63-.13.2,0-.12-.82.08-.32l.16-.61.1.13c.44-.21.15-1.48,1.31-.82,0-.23,0-.49.38-.5l.39.44c0-.29.85.08.56-.46,1.13,1.11,1-.34,1.49-.36l-.46-.61c.23-.13.28-.45.34-.89l-.44-.51c-.14-.6.85-.05,1.13-.39.14.21,0,.23-.14.16,1.37.83.1-1.54,1.18-1-.07-.26,0-.25.22-.18a0,0,0,0,0,0,.05l0,0,.36.16a1.64,1.64,0,0,0-.34-.18.67.67,0,0,0,.09-.44l.53.5v0c.28.11-.15-.32-.56-.68a2.07,2.07,0,0,0-.17-.44c.87.79,0-.53.94.29-.35-.51.18-.79-.65-1.76.12.12.2.15.16.2.21,0,.41,0,.25-.34l.69.61-.64-1.11a2.2,2.2,0,0,1,1.18,1.07c-.44-1.1,0-.56-.51-1.59l.42.42c.08-.12-.33-.82.08-.55,1,.53,1.19-1,2.51-1-1.44-1,.85.21-.17-.69.35.23.61.28.79.62,0-.59.93-.09.23-1,.36.22.42.45.64.56,0-.08-.2-.33,0-.21s.24.27.33.43c.23-.4-.75-1.22-1.68-2,.58.18.58,0,0-.56.36.18.76.32.71.62.14-.08,1-.4.26-1,.19.08.19-.07.14-.17l-2-4.79-.32,1.75v.06c-.31.06-.37,0-.62.17l.13.12c.29,1.13-.15.33-.33.55l0-.12c-.81-.59-.1.46-.94-.24l.27.67c.46,1.48-.77-.71-.88-.05l.24.35c0,.56-1.14-1.83-1.35-2s0-.22,0-.33c-.71-.73.24.91,0,1.23-.22-.46-.32-1.26-.57-1.28-.22-.35-.13,1.77-.71.93a1.71,1.71,0,0,1,.29,1c-.2.2-1-1.23-.91,0a1.23,1.23,0,0,1-.13-.29c-.08.36-.43.67-.36,1.35-.82-2.36-.82,1.47-1.4-.75l-.52.26,0-.23c-.39-.07-.38.5-.38,1.06a.86.86,0,0,1-.13-.47c-.63-.33-.65-.21-.84,1l-.21-.72c0,.45-1-1-1.32,0a1,1,0,0,1,0-.34c-.42,1-1.75-1.77-1.48.94l-.27.72c.54.12.12,1.17.41,1.58-.18.19-.66-.71-.43-.89l.06.12c-.15-1.4-.71-.39-.85-1.34-1,.22-2-.42-3-.38l.23,1.08-.33,0c-.11-.25-.2-.84,0-.83-.19-.6-.32.57-.31.81-.49-.4,0-1.29-.1-1.31l-.18.1.06.13c-.1.46-.07.93-.35.9-.2-.2-.16-.66-.23-.7s0-.11-.11,0l-.41-.06.24.85c-.14.44-.38,0-.11.95-.41-1.47-1.57-.42-1.77-.88-.22.64-.47.65-.79.59.09.17.19,1.15-.09,1,0-2-.54-.85-.81-2.29.23.95-.74.26-.4,1.61-.23-.15,0-.75-.22-1.22-.51.81-1.17-.49-1.81-.22a3,3,0,0,1,0,1.06l-.34-1.31c-.13.13-.13,1.52-.36.6,0,.22.08.56,0,.64-1.24-1.3-2.7,1-3.84-1.53.13.53,0,.57-.12.58.08.13-.05.65-.06,1l-.47-1c-.18,1-.58,0-.73,1l.19-.16c-.33,1.1.11,2.51,0,3.94.37-1.25.58,1.94,1.17.16.07.3-.12.45-.09.79.16-.61.3-.73.54-.44l0,.15c.73-.11,1,.52,1.82,1l0-.71c.17.1.2.32.28.5.23-1.07-.49-.07-.27-1.25.19,1.45,1.22.05,1.35,1.7.27,0-.07-.83.2-.81l.07.44.08-.57c.17.1.26.66.26,1,0,0-.12.11-.17.14.23.53.66-.18.73,0l-.26-.27c.74-.43,1.66.17,2.35-.77l-.07-.34c.52-.63.45.36,1,.05l0,.08c.11-.34.26-.51.42-.48-.13.4.32.75.15,1.19.55-.7.26-.54.57-1.81l.13.55c.1-.51.09-.77.37-.94-.21.5.25.84,0,1.48.71,1.18.83-1.28,1.25.47.16-1.57-.6-.81-.47-1.15-.17-.49.14-1.17.34-1s.5,1.93,1,1.85c0,0,0,.12-.09.11.23.38.32-.56.61.06,0-.94.31,0,.22-1.17l-.43.32c.23-.33.32-1.74.81-1.12a3.4,3.4,0,0,1-.16.76c.16.33.21-.26.38.08.09,1.18-.53.33-.71,1.25.19.49.44-.91.44.38,0-1.65.52.15.71-1.13l.06.71c0-.12.11-.47.21-.46l-.06.94c.18-.82.62.61.83.16-.55.09-.23-.84-.53-1.33.54-1,.63,1.8,1.36,1.35-.09.12-.45-.36-.34-.72a1.8,1.8,0,0,1,.55.73c.48-.23-.19-.72,0-1.18.3.83.2-.39.37-.7l.11.72c.65.37-.08-1.51.52-1l-.06,1,.23-.3.08.82c.19-.66.31-.52.63-.34-.15-.49-.19-1.3.06-1.37.25.39,0,.7.36.53,0,.46,0,1-.26.41,0,.23,0,.46,0,.69.27.45.49,0,.62,0a.28.28,0,0,1-.17-.14l.33-1.08a1.16,1.16,0,0,1,.09.7c.09-.1.1-.44.24-.53a3.14,3.14,0,0,1,0,1.49L532,345c.09.24.4.64.38.86.35.28.45-1.26.9-.89a.64.64,0,0,1,.07-.33c.37.07.84.69,1.06-.19l.48,1c.26-.31-.62-1.22-.19-1.73s.35.84.55,1.09c.07-.56.12-1.68.67-.94C535.82,344,535.69,343.89,535.6,344Zm3.72-1.54c0,.17,0,.66-.22.27C538.94,341.9,539.12,342.26,539.32,342.45Zm.55-4c-.16-.19,0-.18.25-.08C540.13,338.44,540.06,338.49,539.87,338.44ZM531.09,353v0C531.38,353.07,531.27,353,531.09,353Zm-.47-.06a.57.57,0,0,0,.16.26c-.08-.16,0-.22.08-.23C530.73,352.79,530.62,352.71,530.62,352.9ZM524,339.29l.08.18C523.91,339.69,523.93,339.5,524,339.29Z"/><path class="cls-1" d="M539.45,337.34l.34.21A.66.66,0,0,0,539.45,337.34Z"/><path class="cls-1" d="M533.26,344.94h0l0,.13Z"/><path class="cls-1" d="M531.3,344.84a.87.87,0,0,1,.33.22C531.52,344.91,531.41,344.82,531.3,344.84Z"/><path class="cls-1" d="M529.74,355l.09-.28c-.07.09-.19,0-.3-.09C529.62,354.73,529.79,354.91,529.74,355Z"/><path class="cls-1" d="M525.7,352.23c0,.09-.05,0,0,.14l.19.28A.28.28,0,0,0,525.7,352.23Z"/><path class="cls-1" d="M528.26,353.06c-.35-.5-.35-.25-.42-.07l0,0C528.28,353.71,528.27,353.39,528.26,353.06Z"/><path class="cls-1" d="M527.82,353s-.06.08-.11.08C527.88,353.41,527.79,353.14,527.82,353Z"/><path class="cls-1" d="M530.48,353.49c-.15-.09.39.67.22.49C531.06,354.67,530.59,352.92,530.48,353.49Z"/><polygon class="cls-1" points="527.06 351.44 527.52 352.05 527.26 351.49 527.06 351.44"/><path class="cls-1" d="M528.38,351.24l-.32,0a.36.36,0,0,1,.08.25C528.29,351.39,528.51,351.42,528.38,351.24Z"/><path class="cls-1" d="M528.14,351.45c-.07,0-.12.09-.09.22A.32.32,0,0,0,528.14,351.45Z"/><polygon class="cls-1" points="527.22 351.07 527.37 351.16 527.54 351.12 527.22 351.07"/><path class="cls-1" d="M530.65,349.87l.09-.33c-.13-.23-.28-.31-.3-.17A.84.84,0,0,0,530.65,349.87Z"/><path class="cls-1" d="M528.81,348.64a2,2,0,0,1,.42.41l-.52-.77Z"/><path class="cls-1" d="M529.31,348c-.12-.23-.12-.83-.35-.59C529.09,347.66,529,348,529.31,348Z"/><polygon class="cls-1" points="533.19 346.6 533.15 346.65 534.11 347.84 533.19 346.6"/><path class="cls-1" d="M533.43,341.62c-.46-.08.58.74.08.58.19.32.41.13.56.41C534,342.21,534.16,342.31,533.43,341.62Z"/><path class="cls-1" d="M534.07,342.61c0,.07,0,.14.09.24A.6.6,0,0,0,534.07,342.61Z"/><polygon class="cls-1" points="512.15 338.57 511.99 338.23 512.06 338.75 512.15 338.57"/><path class="cls-1" d="M511.68,339.66l0-1-.2.87C511.57,339.52,511.66,339.44,511.68,339.66Z"/><path class="cls-1" d="M540.49,344.13l-.06-.23c-.11-.23-.16-.23-.27-.24Z"/><polygon class="cls-1" points="537.45 344.29 537.5 344.3 537.17 343.47 537.45 344.29"/><path class="cls-1" d="M535.33,346c.1,0,.17-.2.28-.19C535.43,346,535,344.94,535.33,346Z"/><text class="cls-3" transform="translate(549.33 501.09)">TM</text></svg>