<svg id="Layer_1" data-name="Layer 1" xmlns="http://www.w3.org/2000/svg" viewBox="0 0 582.47 558.49"><defs><style>.cls-1{fill:none;stroke:#fff;stroke-miterlimit:10;}.cls-2{fill:#231815;}</style></defs><title>circle</title><path class="cls-1" d="M407.41,366.21" transform="translate(-71.05 -98.43)"/><path class="cls-2" d="M451.72,654.77c-2,.31-.94,1.79-1.18,2.15C453.74,655.8,451.54,654.36,451.72,654.77Z" transform="translate(-71.05 -98.43)"/><path class="cls-2" d="M481.87,641.94l-.3.83,1.94-1.59c.64-.54,1.26-1.13,1.88-1.68l-1.74,1.27Z" transform="translate(-71.05 -98.43)"/><path class="cls-2" d="M509.23,629.38c-1.93-.58-4.2.89-6.8,2.47s-5.34,3.64-8,4.33l-1.08-.25-1.31,3a100.18,100.18,0,0,0,9.16-5.33c1.5-.92,3-1.77,4.33-2.48A21.31,21.31,0,0,1,509.23,629.38Z" transform="translate(-71.05 -98.43)"/><path class="cls-2" d="M526.38,626.45c-1.46-.4,2.5-2.68-3.44,1.74a5.2,5.2,0,0,1,.73-.13C524.23,627.69,525,627.21,526.38,626.45Z" transform="translate(-71.05 -98.43)"/><path class="cls-2" d="M523.67,628.06c-2.72,1.79,2.3-.33,0,0Z" transform="translate(-71.05 -98.43)"/><path class="cls-2" d="M535.83,619.27l-3,3.26c1.1,0,4.33-2,3.44-.83C539.64,618.73,538.49,618.73,535.83,619.27Z" transform="translate(-71.05 -98.43)"/><path class="cls-2" d="M537.92,615.28l-1.56,1.59C536.84,616.88,537.38,616.62,537.92,615.28Z" transform="translate(-71.05 -98.43)"/><path class="cls-2" d="M533,620.26l3.32-3.39c-.77,0-1.35-.74-1.57,1.49C534.62,617.45,534.33,618.63,533,620.26Z" transform="translate(-71.05 -98.43)"/><path class="cls-2" d="M530.62,621.41c-2.29.86-5.07,2.17-2.09-1l-2,1.61a14.44,14.44,0,0,0-1.32,1.2c-.63.67-.79,1.09-.53,1.23s.94,0,2-.51a20.08,20.08,0,0,0,1.81-1C529.08,622.56,529.81,622,530.62,621.41Z" transform="translate(-71.05 -98.43)"/><path class="cls-2" d="M509.15,626.05l-3.1.76c-.63.7-1.25,1.43-1.89,2.13C505.11,627.89,509.75,626.73,509.15,626.05Z" transform="translate(-71.05 -98.43)"/><path class="cls-2" d="M557.66,604c-.19-.63-2.16-.28-2.9-.67l-1.94,2.57C554.31,605.14,556.9,603.44,557.66,604Z" transform="translate(-71.05 -98.43)"/><path class="cls-2" d="M554.76,603.3c1-1.29,1.94-2.52,2.85-3.84C554.4,602.12,554.11,603,554.76,603.3Z" transform="translate(-71.05 -98.43)"/><path class="cls-2" d="M536.65,612.27c-1.61,2.08-3.3,4.09-5,6.16l3.1-3.51,1.54-1.74c.5-.59,1-1.22,1.47-1.82Z" transform="translate(-71.05 -98.43)"/><polygon class="cls-2" points="499.82 493.2 498.94 496.13 500.77 491.2 499.82 493.2"/><path class="cls-2" d="M578.93,582.77c-.46,2.27,3.28-.72,2.41,1.33a29.78,29.78,0,0,0,4.1-7.81A20.23,20.23,0,0,1,578.93,582.77Z" transform="translate(-71.05 -98.43)"/><path class="cls-2" d="M587.06,572.18a35.24,35.24,0,0,0-1.62,4.11A17.26,17.26,0,0,0,587.06,572.18Z" transform="translate(-71.05 -98.43)"/><path class="cls-2" d="M563.63,594.24c.51,0,1.69.25,3.89-1.29-.83,0-1.69,0-2.53,0Z" transform="translate(-71.05 -98.43)"/><path class="cls-2" d="M564.9,593H565c1.5-1.31,2.45-2.33,2.89-2.73C567.49,590.61,566.68,591.51,564.9,593Z" transform="translate(-71.05 -98.43)"/><path class="cls-2" d="M563.28,594.55l.35-.31C563.38,594.24,563.26,594.27,563.28,594.55Z" transform="translate(-71.05 -98.43)"/><path class="cls-2" d="M547.19,606.07c1.48-2.51,5.1-6.93,0-4.52C546.47,603.7,549.4,602.31,547.19,606.07Z" transform="translate(-71.05 -98.43)"/><path class="cls-2" d="M560.16,594.55l-3.86,3.08c.37.27,1.46.14.79,1.42Z" transform="translate(-71.05 -98.43)"/><polygon class="cls-2" points="490.49 494.08 489.11 496.12 490.54 494.98 490.49 494.08"/><path class="cls-2" d="M580.33,577.68c.86-2.1,2.39-3.87,3.92-6-2,2-4.12,4.05-6,6.15C578.45,578.45,578.35,580,580.33,577.68Z" transform="translate(-71.05 -98.43)"/><path class="cls-2" d="M572.88,585.19c.07-.13.19-.28.26-.41C572.83,584.89,572.63,585,572.88,585.19Z" transform="translate(-71.05 -98.43)"/><path class="cls-2" d="M599.8,550.76c-.16.06-.32.1-.49.17a2.43,2.43,0,0,1,.2.25Z" transform="translate(-71.05 -98.43)"/><path class="cls-2" d="M577.75,577.94a7.52,7.52,0,0,0-2.6,3.87,49.93,49.93,0,0,1,3.15-4C578.24,577.51,578.14,577.38,577.75,577.94Z" transform="translate(-71.05 -98.43)"/><path class="cls-2" d="M591,566c-1,.65-2,1.45-3.06,2.31C589.07,567.78,591.13,566.56,591,566Z" transform="translate(-71.05 -98.43)"/><path class="cls-2" d="M574,584.59c-.06.09-.1.18-.17.28C574.58,584.62,574.38,584.56,574,584.59Z" transform="translate(-71.05 -98.43)"/><path class="cls-2" d="M574,584.59a11.21,11.21,0,0,0,1.16-2.78c-.74,1.07-1.47,2.05-2,3A3.34,3.34,0,0,1,574,584.59Z" transform="translate(-71.05 -98.43)"/><path class="cls-2" d="M594.84,538.34c1.18,1.14-.61,6.47-4.59,9.41-1.6,4.46,4.36,5,9.06,3.18-.49-.5-1-.87.88-5.43-1.67,1-7.59,7.81-6.54,3.62,2.82-5.74,3.33-4,5.75-6.16-1.58.56-1-1.48-.63-3.79s.76-4.76-.84-4.92L596,539.49C595.56,539.34,596,537.25,594.84,538.34Z" transform="translate(-71.05 -98.43)"/><path class="cls-2" d="M593.84,558.48l-1,1.74a26.16,26.16,0,0,1,5.87-4.4c1.25-3.24,1.13-4.16.83-4.64-1,1.35-1.86,2.74-2.87,4.05l-3,3.94Z" transform="translate(-71.05 -98.43)"/><path class="cls-2" d="M587.33,567.41c-.34-2.29,2-6.49-1.26-5.32-3.55,4.6-1.43,4.06-3,7.26,5.6-7.64-1,2.73,4.1-2a43.93,43.93,0,0,1-2.88,4.3c1.24-1.21,2.49-2.34,3.72-3.36l-.23.1,0,0v0c-.43.18-.62.21-.23-.08a.62.62,0,0,1,.1-.17,1.62,1.62,0,0,1-.24-.74c2-1.94.62-.07.24.74a1,1,0,0,0,.13.25l0,0,2.63-4,2.44-4.14C591.41,561.7,590,563.83,587.33,567.41Z" transform="translate(-71.05 -98.43)"/><path class="cls-2" d="M548.59,595.51c.32-.07.39,0,.48.11C549.39,595.07,549.47,594.82,548.59,595.51Z" transform="translate(-71.05 -98.43)"/><path class="cls-2" d="M552.16,593.81a4.93,4.93,0,0,1-2.1,2.8c-1.79.84-.54-.63-1-1-.69,1.19-2.72,3.94,1,1.88l.35-.61a25.69,25.69,0,0,1,2.67-1.38c.9-.45,1.81-.84,2.61-1.15,1.6-.62,2.78-.91,2.62-.59A13.4,13.4,0,0,0,552.16,593.81Z" transform="translate(-71.05 -98.43)"/><path class="cls-2" d="M570.07,581c.82-1,1.57-2.1,2.33-3.17l2.27-3.2-3.73,2,.79.45c-1.58,1.55-2,2.3-2.08,2.79S570,580.54,570.07,581Z" transform="translate(-71.05 -98.43)"/><polygon class="cls-2" points="529.97 452.04 530.9 453.94 531.3 448.66 529.97 452.04"/><polygon class="cls-2" points="535.36 443.18 536.52 444.33 537.11 441.48 535.36 443.18"/><path class="cls-2" d="M407.79,116.29l-2.21.29A13.25,13.25,0,0,0,407.79,116.29Z" transform="translate(-71.05 -98.43)"/><path class="cls-2" d="M423.56,117.89l.48-.72C423.26,117.5,422.93,117.77,423.56,117.89Z" transform="translate(-71.05 -98.43)"/><path class="cls-2" d="M641.81,297.42c.61-3.63,1.89-7.94.27-7.09l-1.42,1.46A15.13,15.13,0,0,1,641.81,297.42Z" transform="translate(-71.05 -98.43)"/><path class="cls-2" d="M544.23,160.16l.26,1.06,2.72.53Z" transform="translate(-71.05 -98.43)"/><path class="cls-2" d="M537.4,163.34c-.68-1.3-1.38-2.57-2.09-3.84A25,25,0,0,0,537.4,163.34Z" transform="translate(-71.05 -98.43)"/><path class="cls-2" d="M322,123.41l-2.13,2.22C323.69,124.86,321.82,124.32,322,123.41Z" transform="translate(-71.05 -98.43)"/><path class="cls-2" d="M643.4,443.29a38.15,38.15,0,0,0,2.34-7C644.13,439.62,642.15,442.1,643.4,443.29Z" transform="translate(-71.05 -98.43)"/><path class="cls-2" d="M415.68,98.43c-1.44.16-2.07.47-2.06.87C415.09,99.12,415.94,98.89,415.68,98.43Z" transform="translate(-71.05 -98.43)"/><path class="cls-2" d="M647.1,428c-.25.49-.41,1-.63,1.47,0,1.08,0,2.16-.13,3.29a33,33,0,0,1-.6,3.58,17.66,17.66,0,0,0,1.46-3.94A10.09,10.09,0,0,0,647.1,428Z" transform="translate(-71.05 -98.43)"/><path class="cls-2" d="M107.13,326.06c-.15.19-.26.44-.41.62C106.93,326.81,107,326.51,107.13,326.06Z" transform="translate(-71.05 -98.43)"/><path class="cls-2" d="M74.2,415.49a31.44,31.44,0,0,1,0-4A13.15,13.15,0,0,0,74.2,415.49Z" transform="translate(-71.05 -98.43)"/><path class="cls-2" d="M626,504.89c-.77,2.06,0,.39,0,0Z" transform="translate(-71.05 -98.43)"/><path class="cls-2" d="M615.5,511.75a1.17,1.17,0,0,0-.4-1.12A1.46,1.46,0,0,1,615.5,511.75Z" transform="translate(-71.05 -98.43)"/><path class="cls-2" d="M638.94,405.47l0-.18C638.57,405.89,638.64,405.78,638.94,405.47Z" transform="translate(-71.05 -98.43)"/><path class="cls-2" d="M624,507.6a22.42,22.42,0,0,0,1.59-2.36A21.58,21.58,0,0,0,624,507.6Z" transform="translate(-71.05 -98.43)"/><path class="cls-2" d="M624.93,507.52c-.37.67-.65,1.2-.92,1.7C624.16,509.59,624.43,509.44,624.93,507.52Z" transform="translate(-71.05 -98.43)"/><path class="cls-2" d="M627.17,502.05a27.07,27.07,0,0,1-1.58,3.19c.28-.35.44-.48.45-.35Z" transform="translate(-71.05 -98.43)"/><path class="cls-2" d="M189.63,180.44c-.14.05-.29.13-.44.18C188.16,182.59,188.74,181.86,189.63,180.44Z" transform="translate(-71.05 -98.43)"/><path class="cls-2" d="M606.69,251.38c.06.08.12.1.17.17l-.07-.3Z" transform="translate(-71.05 -98.43)"/><path class="cls-2" d="M602.23,245.46c3.33,1.76,4,3.43,4.56,5.79,1.15-1.45,2.35-2.95,3.44-4.41Q606.19,246.08,602.23,245.46Z" transform="translate(-71.05 -98.43)"/><path class="cls-2" d="M369.86,116.29c1.75.45,3.48.86,5.22,1.34-6.13,2.81-10.58,2.16-5.69,4.12.22-2.72,5.2-3.15,10.19-3.31s10-.25,10.39-3l3.39,1.18c-1-.06-1.14.26-2.1.19a6.41,6.41,0,0,0,3.67.59,6.08,6.08,0,0,0,2.36-1.29c1.52-1.13,3.32-2.57,7.59-1.9,3,.63,5,1.57,2.91,2.07,2.24-.28,4.5-.63,6.75-.81,1.92.3,1.36,1.19-.55.89,3.38.22,6.77.34,10.15.65l-.1.15a47.27,47.27,0,0,1,6.67-1.88c2.47,1.11-1.37.4-.81,1.16,1.93-.21,3.86-.32,5.79-.45,1,.88.33,1.47-1.1,1.73a17.39,17.39,0,0,1-5.49-.12c2.23,3,3.4,2.87,5.39,2.57a14,14,0,0,1,3.8-.2,14.58,14.58,0,0,1,2.76.55,25.28,25.28,0,0,1,3.5,1.45c-1.77-.09-3.53-.25-5.31-.28a10.89,10.89,0,0,0,5.23,3.39,36.28,36.28,0,0,1,7.15,3,22.51,22.51,0,0,0-2-1.69c-.95-.72-2-1.56-2.93-2.37-1.76-1.62-2.63-3.11.5-3.19a11.43,11.43,0,0,0,2.93.89,15,15,0,0,0,4.29.13c-.39,1.92,2.84,2.09,6.76,3l-.88,2.41c4.33.36,4.34-1,7.1-1.46,4.61,1.52,5,3.77,5.6,5.66,7.24,2.55-4.19-4.54,4.7-2.43A32.49,32.49,0,0,0,486,131.9c2.84.63,5.91,1.11,9.81,1.71,3.88,2.49-1.29,1.16-.05,2.44l4.45-.4c.89.41.36.87.09,1.1a2.34,2.34,0,0,0,2.55-.76,1.9,1.9,0,0,1,1.16-.5,6.08,6.08,0,0,1,2.6.39c1.16-1,3.13,1,5.29,3.47a44.26,44.26,0,0,0,3.59,3.68,10.48,10.48,0,0,0,4.51,2.36c.77,1.52-1.56.77-1.8,1.84,2,.84,3.38,1.66,4.5,2.21l2.69,1.39c.78.41,1.54.76,2.57,1.2l1.76.74,2.35,1,1.64,2.82,1.58,2.87c-.91-2.35.06-2.85,1.9-2.44a18.13,18.13,0,0,1,3.27,1.2c1.21.56,2.5,1.24,3.75,1.9-.46-1.87-.85-3.48-1.22-4.46,2.26,1.78,4.55,3.56,6.78,5.37.37,1.05-.86,1-2.58.68.54.29,1.07.56,1.5.75,1.33,2.89-.83,2.7-3.34,2.05-.32-1.11-.6-2.24-.88-3.33-2.57-.49-5.14-.75-6,.59a8.89,8.89,0,0,1,2.37,1.55c-.68-.11-1.19-.11-1.21.25s1,.64,2.42,1.22l-.84,3.34,1.15-.42,6,9.46c7.49,4,15.24,6.59,25.11,14.47-3.64-.7-2.83,2-4.67,3.66-.21-2.1-2.28-3.7-4.75-5.37s-5.31-3.55-7.36-6.2c2.17,2.75.79,3-.12,2.62,3.29,2.4,6.69,4.75,10.17,7-.81.63-.55,1.4,0,2.27s1.45,1.91,2.18,3.24c1.23-4.41,7.91,4,11.7,6.77-.84,1.11-2.57,1.16-6-3.21.95,3.3,3.07,4,5.32,4.68a12.93,12.93,0,0,1,3.24,1.33,4.91,4.91,0,0,1,1.33,1.25,6.49,6.49,0,0,1,.89,2c-.88-1.07-1.15-1.81-2-1.78,2.92,1.77,7,8.62,4.89,7.84l-.85-1.07c.64.94,1.39,2,2.21,3.08s1.57,2.39,2.44,3.64,1.77,2.52,2.7,3.77l1.4,1.86c.44.63.88,1.25,1.3,1.87a52.18,52.18,0,0,0,5,6.14,19.77,19.77,0,0,0,2,1.83,2.5,2.5,0,0,0,1.59.59,17.1,17.1,0,0,1-5,.75c5.82,2.92,11.93,6,17.66,9.65-1.64-.07-3.44,1.93-5.44,3.12s-4.17,1.61-6.49-1.45a20.55,20.55,0,0,0,4,8.48c-.21-1.5,2.32-5.07,3.43-3.32-.13,1.6-.27,2.68-.33,3.51a13.14,13.14,0,0,0,0,2,58.27,58.27,0,0,1,.25,6.19c-.12-1.13,1.12-1.56,2.53-1.26a4.6,4.6,0,0,1,3.56,3c-.83-.29-4.15,1.83-5,.79q3.54,3.33,7.13,6.81c-1.49-1.83-3.73.86-4.3,3.08.63-1.15,2.09,7.25,3.19,9.34l-.06-3.84a14,14,0,0,0,2.35,5.42,18.18,18.18,0,0,0,3.09,3.31,21.22,21.22,0,0,1,3.18,3.34,13.24,13.24,0,0,1,2.29,5.56c-1.16-1-6.18-1.62-5.71,3.39a66.22,66.22,0,0,1,7.94,5.63,28.86,28.86,0,0,1,8.19,11c-.34.64-.71,1.28-1.07,1.92l2.38,6.69c-1-1-2.3-2.39-3.74-4l-4.67-5.48c-1.65-1.93-3.29-3.9-4.75-5.74-.73-.92-1.42-1.81-2-2.65s-1.26-1.61-1.77-2.32c-.28,3.82-1.26,1.29-.23,6.71-.9,2.13-2.31-2.64-2.7-4.2q.72,6.36,1.33,12.71c2.59-1,3.93,9.36,6.09,8.63l-2.28-6.79c-.39-1.13-.74-2.26-1.16-3.37l-1.26-3.33c1.26-.49,3.53,1.18,5.5,4.2a27.82,27.82,0,0,1,3.46,8.63,17.69,17.69,0,0,1,.44,3.43c-.85,2.45-4.92-1.26-5.79-1,1,1.07,2.55,8.5,2,9.4l-1.79-3.75c-.29,2.58.84,4.56,1.67,6.72a10.19,10.19,0,0,1,.34,7.62c0,2.13-3.22,6.43-1.63,6.75,3-3.52,12.47-4.64,14.82-2.31-.2.8-2.62,11.59-4.27,14-2.45,3.52-5.68-5.35-7.78-2.32.73.12,1.62,2.06,1.9,2.88-.65,2.23-2.26-.95-2,3.91,2.79.87-.54,9.89,2.28,2.35.61,4.8-.77,5.06-.89,10.65.91-.84,2.4.5,3.61,2.68a20.62,20.62,0,0,1,2.44,7.68c-.67-.35-1.65.66-2.1,1.15-.22,2.47-.66,4.63-1,6.64s-.76,3.85-1.14,5.68c-.8,3.64-1.69,7.17-2.35,11.73-.75.74-2.37,4.94-3.18,2.9.24,1.37.93,2.72.49,5.52-3.3,4.92.77-6.25-2.77-2.68.75.32,1,2.2,1,4.53s-.2,5.08-.12,7.16c1.32-.34,2-2.6,2.21-5.29a66.49,66.49,0,0,0-.13-7.88c3.29.53,5.68,8.18,5,18.12-.41,3.91-1.23,4.59-1.79,4.49s-1-1-.95-.28a27.53,27.53,0,0,0-1.1,13.41,16.43,16.43,0,0,1,.09,4.72,17.62,17.62,0,0,1-2.49,6.53c-3.61,3.9-4.13-1.16-6-.63a21.59,21.59,0,0,1,1.24-4,26.41,26.41,0,0,1,1.47-3.19,27.93,27.93,0,0,0,2.66-5.69L627.63,472a18.87,18.87,0,0,1,1.77-8.3,21.2,21.2,0,0,0-2.45,5.2c-.45,1.24-.92,2.64-1.41,4.15s-1,3.12-1.58,4.76c-1.18,3.28-2.36,6.8-3.71,10.07a82.51,82.51,0,0,1-4.25,8.7c0,2.09-.77,5.5.68,4.36.37-1.12.78-2.23,1.11-3.36,1.38-1.19,1.38.6,1.21,2.17s-.36,3,.91,1.07c-.8,4.84-1.11,10.66-5.06,16.32l-2.75.06c.7.2,3.24-3.33,3.39-5.36-.12,1.5-2,3.48-3.65,5.58a15.38,15.38,0,0,0-2.06,3.21,4.18,4.18,0,0,0-.37,3.19c1.24-1.13,2.53-2.25,3.7-3.43-.24,1.23-.51,2.55-.78,3.91s-.57,2.8-.94,4.23a21,21,0,0,1-3.71,8.19c1.76-.58,1.88-.92,2.14-1.4s.69-1.09,2.95-2.32c-4.86,1.61,7.54-13.73,1.41-10.11a11.74,11.74,0,0,0,4.77-4.58,23.86,23.86,0,0,1,4.88-5.77c-.81-.17-2.24,1.25.18-3.29a5.36,5.36,0,0,1-.21-1.32l.2-.3-.2.22c0-.25,0-.28-.08.09a6.06,6.06,0,0,1-2.16,1.89c-.69-3.09,2.63-10.43,2.62-13.36,1.44-2.66.41,1.52,1.8.3l.13-4.31c.92.13,2.34-1.48,3.34-2.25s1.58-.7.77,2.82c.83-2,1.54-4,2.26-6,2.18-3.25,4.3-8.1,4.44-11.43,1.25-2.81.29-7.91.88-5,.67-3.31,1.06-6.69,1.57-10l.46,0c1.43-4.77,1.7-10,2.5-15.17a80.14,80.14,0,0,1,1.38-7.92,48.67,48.67,0,0,1,2.76-8c0-1.69,0-3.41.17-5.38a67.23,67.23,0,0,1,1-6.95l1.67-.9c0-2.17.73-5.33,1.27-8.22s.8-5.5.06-6.48a10,10,0,0,0,2.32-5.21,50.34,50.34,0,0,0,.53-7.8c0-1.41,0-2.83,0-4.24s-.13-2.8-.19-4.14a49.74,49.74,0,0,1,.06-7l-2-.28a65.25,65.25,0,0,0-.44-7.83c-.15-1.35-.32-2.73-.52-4.17s-.51-3-.8-4.55l-1.76.48c-.92-2.72-.71-6.27-.58-10.24.06-2,.15-4.09.16-6.23a38.57,38.57,0,0,0-.38-6.51c.77.51.87,2.75.58,4.36a19.16,19.16,0,0,0,.34-8.14,40.93,40.93,0,0,0-.82-4,39.65,39.65,0,0,0-1.17-3.95c-1.78-5.22-3.55-10.22-3.16-15.15a10.07,10.07,0,0,1-1.16-5.64,2,2,0,0,0,.21.55c0-.24-.1-.6-.18-1a31.26,31.26,0,0,0,.17-3.43,18.1,18.1,0,0,0-.28,2.92,48.35,48.35,0,0,0-2.46-6.95l1.59-1.6c-.08-.21-.12-.39-.21-.6,0-2.79-1.41-1.86-2.46-.11a15.4,15.4,0,0,0-2-3.16c2.37-2.93-3-6.51-.71-10.32-1-.65-2.42-3.78-4-6.79s-3.37-5.88-5.28-5.92c.38-.24.28-1.05.85.29-.76-2.93-1.53-5.88-3.42-8l1.78-2.14c-.9-.82-1.88-1.6-2.84-2.37l-2.88-2.31c-.3-4.23-.24-6.16,3.15-3.31-1.68-1.9-2.75-3.26-3.59-4.31s-1.42-1.8-2-2.53a33.86,33.86,0,0,0-5.2-5.64l1.57-.42a22.64,22.64,0,0,0-3.37-4c-1.22-1.31-2.22-2.57-2.11-3.67a13.8,13.8,0,0,0-.94-3.3,32.45,32.45,0,0,0-2.24-4.26,97.65,97.65,0,0,0-7.12-10.55c-1.43-1.88-2.9-3.84-4.38-5.81s-3.19-3.8-4.74-5.73c-3-3.93-6.26-7.49-8.77-11-.46,2.84-1.49,1.07-2.78-1.15s-2.55-4.5-4.06-3.46c.13-1.45-.93-3.45,1.51-2.29-6.34-5-7-10-13-12.25.2-1.45,2.39.25,2.31-.82-.62-.33-2.46-1.33-2.55-2.41s1.5.29,2.74.95c-5.79-6.23-8.94-4.66-11.73-3-1.77-4.25-3.44-5.73-7.11-6.62-.28-1.82-1.23-4.45,2.72-.75-.48-.59-1.43-1.8-2.68-3.24s-2.69-3.15-4.25-4.7c-.76-.77-1.53-1.52-2.26-2.19a24.45,24.45,0,0,0-2.14-1.69c-1.31-.91-2.34-1.33-2.83-.91-.26-1.15-3.16-3-4-3.3-5.37-4.5-5.72-5.13-11.83-8.66l1.47,1.35a4.92,4.92,0,0,1-4.78-1c-.71-.56-1.57-1.07-2.52-1.69a16.2,16.2,0,0,0-3.36-1.68l.27-.23c-10.63-6.66-5.25-1.1-15.81-7.67l0,2c-.61.87-1.49.94-2.58.53a19.52,19.52,0,0,1-3.9-2.18c-1.48-1-3.12-2.09-4.84-3a14.53,14.53,0,0,0-5.36-1.62l2.13,1.76c-2.05.15-4.21-2-6.38-4.28s-4.37-4.78-6.21-5.52c-.74-.57,1.45-.22,2.68-.18-4.7-2.49-5.2-1.92-5.43-.94s-.25,2.39-4,1.84c-1.08-1.64,2.55-3-2.45-4.35-1.13-.86-5.06-.49-9.45-.41-1.09,0-2.22,0-3.34,0s-2.26-.05-3.34-.16a15.13,15.13,0,0,1-5.85-1.62c1.38,1.28,2.71,2.55-.88,2.77-2.7-.17-6.18-1.62-9.68-2.71s-7-1.6-9.6-.2c-.66-.36-.9-.64-.9-.9-2.1.27-5.48.38-8.65.63s-6.14.78-7.4,1.61c-1.77-3.45-8.26-2.75-14.17-1.91s-11.28,2-11.35-1c-4.24.32-8.47.56-12.69,1l.29-.65a27.61,27.61,0,0,0-8.84,1.32,20,20,0,0,0-4.71,2.47c-1.9-.22-.61-.93-.49-1.26-3,0-5.29.15-7.22.29a32.73,32.73,0,0,0-5,.73c-2.94.8-5.57,2-10.17,4.39l-1.37-1.75A10.21,10.21,0,0,1,318,106c-1.92.18-4.37.27-7.08.6a70.7,70.7,0,0,0-8.67,1.36,40.69,40.69,0,0,0-8.58,3c.05-.25.17-.7,1-1.2a43.94,43.94,0,0,1-10.07,3.19c-3.55.85-7.22,1.49-10.6,2.23a42.4,42.4,0,0,0-8.76,2.89c-2.33,1.26-3.92,2.85-4.35,5l-3.67,2.43L253.59,128c5.2-2,5.13-1.07,4.33.19s-2.26,3,0,2.61c-3.75,2.12-11.12,2.54-6.4,0h.92c.06-1.06-.73-1.32-2-1.15a14.25,14.25,0,0,0-2.14.54c-.78.28-1.62.63-2.47,1-3.38,1.44-6.9,3.09-7.34,1.89-9.79,5.08-19.43,10.16-28.7,15.67-2.3,1.42-4.63,2.74-6.88,4.22l-6.69,4.47c-4.3,3.14-8.59,6.26-12.5,9.74l3.72.63L182,172.47c-.92.4-1.77.42-1.91-.1s.42-1.58,2.43-3.23a4.27,4.27,0,0,0-2.21,1.31,10.38,10.38,0,0,0-1.67,2.43c-.92,1.74-1.39,3.45-1.22,3.73-4.07,3-4,1.76-3.1,0s2.48-4.12,1.32-3.07l-2.93,3.08.93-.41c-1.65,3.23-.9,4.39-5.34,8.7-1.59,1.19-2.24,1.28-2.67,1.16s-.61-.41-1.17.12c-.15-.14-.57.18-1.66,1.71-2.1,2.21-4.26,4.39-6.25,6.69,1.38-.42,2.72-.86,4.11-1.26-1.76,3.8-5.59,6.43-.91,4.93-1.73.53-4.1,2.3-6.55,4.84-1.22,1.27-2.49,2.71-3.77,4.24l-1.92,2.33-1.83,2.46c-2.41,3.28-4.72,6.55-6.49,9.24a32,32,0,0,1-4,5.24,36.75,36.75,0,0,1-3.37,8c-1.43,2.57-3,5.23-4.84,8.11,1.29-1.22,4-.77.79,4.11-1.81-2.27-3.62-.2-5.69,2.74-1,1.48-2.17,3.15-3.32,4.64a10.87,10.87,0,0,1-3.81,3.4c2.13-1.32.29,2.48-1.17,6.11s-2.59,7.07.49,4.84c-2.51,4.25-1.94-.6-4.7,2.25-1.5,5.79-4.44,11.54-7.46,17.7-1.57,3.05-3,6.24-4.49,9.5a80.41,80.41,0,0,0-3.74,10.16c.6.44,2.41-1.5,2.38,1.77-2,2-3.81,4.11-5.72,6.19-.28,1.43.49,2.37.84,3.47s.26,2.39-1.62,4.56c.77-.54,1.93-1.34,1.62.56-5.67,13.13-8.37,27.53-10.57,41.92s-4,28.83-8,43.19c1.59-3.86,1.57-1.23,1.45,1.77.44-1.93,1.73.13,2.71-.21-.58,2-1.07,4-1.56,6l-1.5,6c1.31,1.13,1.38,4.38,1.42,7.51s.19,6.14,1.46,6.73l-.59-3.81c1.6,2.51,3.13.68,4.9-1.63s3.62-5.11,5.54-4.74a6.71,6.71,0,0,1-.7-4.75,49.15,49.15,0,0,1,1.51-5.7c.3-1,.58-2,.82-3.09a20.64,20.64,0,0,0,.55-3.22,13.44,13.44,0,0,0-1.15-6.8c.95-1.93,1.1,1.78,2.07.78-1.45-2.39-1.54-5.19-.36-10.22l.35.61c.29-3.58.69-6.64,1.13-9.46s1.08-5.38,1.7-8,1.39-5.25,2.19-8.22l1.3-4.73c.48-1.68,1-3.47,1.52-5.41l-2.09.79a16.91,16.91,0,0,1,2.47-5.42c-.94-2.25-1.58.11-2.12,2.53s-1.18,4.88-2.38,2.78c1.18-.94,2.06-2.91,2.84-5.36s1.53-5.38,2.23-8.26a65.16,65.16,0,0,1,2.45-7.89,13.46,13.46,0,0,1,1.46-2.8,4,4,0,0,1,1.77-1.47c1.49-5.1-2.55.91-1.05-4.2l1.53-1-1.09-1.73c1.22-3.29,3.23-4.51,4.21-4.34a18.45,18.45,0,0,0-.65,3.26c1.35-1.95,2.2-5,2.82-7.74s1.14-5.15,1.59-5.81c-.78,1.52-1.59,3-2.35,4.58.91-3.51,2.06-7.17,3.33-10.87l2.07-5.57c.7-1.86,1.4-3.74,2.17-5.58,1.5-3.7,2.9-7.43,4.32-11q1-2.71,1.91-5.38c.61-1.76,1.19-3.49,1.67-5.21l-1.26.58a38.86,38.86,0,0,1,2.12-5.72,22.16,22.16,0,0,1,2-3.19c.68-.94,1.4-1.89,2.25-3.28.42-.7.87-1.51,1.38-2.48s1.09-2.07,1.72-3.41l0,.48a19.64,19.64,0,0,1,1.09-4q.41-1,.93-2.13c.36-.7.76-1.39,1.2-2.08-.61,3.09,4.61-3.78,3.62.16,1.09-2.71,1.75-4.43,2.13-5.6a7.58,7.58,0,0,0,.57-2.32,22.68,22.68,0,0,1,.34-6l2.2-.7c.32-2.94-.11-3.49,2.91-8.63-1.69,4.74,4-1.82,2.31,3.61a32.56,32.56,0,0,0,3.11-3.11,26,26,0,0,0,2.34-3,53.45,53.45,0,0,0,3.14-5.54c1.81-3.31,3.25-5.92,6.85-6.61.25-3.43-2-1.83-3.91.45s-3.82,5-3.19,3.47c-1.35.64-1.24-.75-.43-2.67a18.73,18.73,0,0,1,3.71-5.73c2.68-3,8.28-1.87,14.85-9.13-.67.71-.49,1-1.16,1.68,3.18-2,3.95-6.2,8.29-8.25,0-3.58,4.32-3.93,2.66-6.75l-3,3.39c-1,1.12-2,2.33-2.93,3.48a27.81,27.81,0,0,0,2-3.49c.64-1.21,1.29-2.49,2.08-3.79a23.21,23.21,0,0,1,2.91-3.9,20,20,0,0,1,4.65-3.49c-.09.92-1.44,3.22-2.43,4.7,2.49-.93,3.19-3.61,5.75-4.57.75,1.45-1.19,3.38-3.65,5.62s-5.24,5-6.39,7.74c2.82-.82,5.92-8.77,6.26-4.36-.07-3,1.91-4.41,4.13-6a41.24,41.24,0,0,0,3.45-2.67,11.67,11.67,0,0,0,3-3.95L203,174c.63-.87,1.73-3,3.32-4.08-.45,1.32-.83,2.73-1.23,4.08,1.39-2.53,3.8-3.62,6.16-4.66,1.19-.51,2.38-1,3.49-1.59a10.83,10.83,0,0,0,3.11-2.19,25.6,25.6,0,0,1-4.27,2.51c-.78.28-1.06.07-1.21-.28-.3-.72-.07-2-2.31-1.25a15.76,15.76,0,0,1,5.6-4.31,9.43,9.43,0,0,1,4-.6c2.52,0,5.37.22,11.4-4-1.57,1.24-7,3-4.79.57a39,39,0,0,1,4.31-1.67,15.24,15.24,0,0,1,3.88-.74c8.3-5.21-2.27-1,.79-4a3.94,3.94,0,0,0,2.34-.4,4.47,4.47,0,0,0,1.51-1.37,17.28,17.28,0,0,1,3.48-4.08l.91,1.71c2.62-1.07,4-1.79,4.77-2.49a2.56,2.56,0,0,0,.89-1.85c.14-1.12.13-2.24,5.1-3.71-1,1.38-1.86,2.84-2.77,4.26l2.24-1.46,2.28-1.4-.09,2.44c4.57-3.79,6.39-4.21,11.85-5.7-1.72-.75-.65-3.56,4.06-5.42,3.62-.11-1.16,2.37,5.43-.33-1.11,1.69-2.21,3.7-5.73,3.1-.07.7-1,1.72-1.1,2.41a19,19,0,0,0,6.09-1.6c2-.82,3.79-1.78,5-2.19a11.11,11.11,0,0,1-2.75.5c1.45-1,2.92-2,4.41-2.93l4.47-2.89c1.77.19.71,1.15-.32,2.09,1.91-.87,3-2.12,5.93-3.14-.31,1.73.31,3.2-3.56,5.16,2.91-1.51,5.86-2.95,8.82-4.44.81.47,5.31.54,4.24,1.41,2.72-.21,5.68-1.85,9-3.29a53.92,53.92,0,0,1,5.07-2.09,19,19,0,0,1,5.37-1,5.58,5.58,0,0,1,2.44-1.31,43.86,43.86,0,0,1,5-.42c1.64-.07,3.28-.13,4.94-.28a33.21,33.21,0,0,0,10.59-2.37c1.61.73,3.22,1.53,4.81,2.3,6.15-1.29-6.5-2.88,3.8-5,7.32-1.53,3,2.16,5.6,2.73a38.5,38.5,0,0,1,7.08-2.89,17.35,17.35,0,0,1,9.62,0C373.72,116.27,372,116,369.86,116.29ZM447,120.78c-1.56.11-4.71.77-5.59-.56C443.51,118.37,444.63,119.67,447,120.78ZM549.3,171.35c-1.24-.43-2.18-2-3-3.95A13.06,13.06,0,0,1,549.3,171.35ZM633,481.89a1.29,1.29,0,0,0,0-.19C634.85,478.57,634.16,479.68,633,481.89Zm-3.18,6.7c0,.79.28.84.63.63-.29-.65.22-2.22,1-4C630.78,485.59,630.14,486.37,629.84,488.59ZM164.41,187.24l1.33-.71C164,189.29,164.22,188.28,164.41,187.24Z" transform="translate(-71.05 -98.43)"/><path class="cls-2" d="M538.21,163a1.81,1.81,0,0,1,.33-1.19C537.9,161.59,537.62,161.84,538.21,163Z" transform="translate(-71.05 -98.43)"/><path class="cls-2" d="M322.35,123l-.23,0a.82.82,0,0,0-.17.39Z" transform="translate(-71.05 -98.43)"/><path class="cls-2" d="M632.66,376.94a7.28,7.28,0,0,1,1-2.77C633.21,374.09,632.8,374.74,632.66,376.94Z" transform="translate(-71.05 -98.43)"/><path class="cls-2" d="M617.16,525.88c.63-1.47,1.15-3,1.7-4.49a9.61,9.61,0,0,1-2.48,3.55C616.83,525.06,617.84,524.55,617.16,525.88Z" transform="translate(-71.05 -98.43)"/><path class="cls-2" d="M585.62,554.13c-.2.68-.81,1.16-1,1.84l.83.39C587.08,554,587.67,552,585.62,554.13Z" transform="translate(-71.05 -98.43)"/><path class="cls-2" d="M609.41,526.74c-1.61-.45-2.48,2.39-3.81,5.39a5.09,5.09,0,0,1,.3-.5C607.41,533.61,608.42,530.15,609.41,526.74Z" transform="translate(-71.05 -98.43)"/><path class="cls-2" d="M605.26,532.81a19.71,19.71,0,0,1-1.51,2.61C604.33,536.21,604.54,534.46,605.26,532.81Z" transform="translate(-71.05 -98.43)"/><path class="cls-2" d="M627.52,497.72c-1,1.31,1.57,1.69.63,2.28C629.44,502.39,629.62,489.28,627.52,497.72Z" transform="translate(-71.05 -98.43)"/><polygon class="cls-2" points="532.42 428.06 534.73 428 534.17 425.64 532.42 428.06"/><path class="cls-2" d="M616,504.34l-2.56,4.5c.34.07.24.74,0,1.53C614.89,507.52,616.58,504.46,616,504.34Z" transform="translate(-71.05 -98.43)"/><path class="cls-2" d="M613.47,510.37a13.48,13.48,0,0,0-1.51,3.88A31.34,31.34,0,0,0,613.47,510.37Z" transform="translate(-71.05 -98.43)"/><path class="cls-2" d="M606.27,520l1.08-1.15,1.72-3.19C608.13,517.15,607.28,518.64,606.27,520Z" transform="translate(-71.05 -98.43)"/><path class="cls-2" d="M633.72,451.87l.65-5.62c-.55-.7-1.28.71-1.47,2.8C633.08,450.47,632.89,452.57,633.72,451.87Z" transform="translate(-71.05 -98.43)"/><path class="cls-2" d="M624.15,466.82c.83-1.32,1.29-1.29,2.16-1.92l-2.34-.84Z" transform="translate(-71.05 -98.43)"/><path class="cls-2" d="M627.69,451.08c-.56-.7-.22-8.24-1.56-1.4a11.36,11.36,0,0,1,.36,2.77C626.56,453.31,626.88,453.5,627.69,451.08Z" transform="translate(-71.05 -98.43)"/><polygon class="cls-2" points="568.38 269.93 568.44 271.35 572.51 271.09 568.38 269.93"/><path class="cls-2" d="M620.41,297.48c.61,6.42,2.83.87,3,6.77,1.31,1.25-.17-4.83,1-3.52C622.51,297.19,622.57,295.09,620.41,297.48Z" transform="translate(-71.05 -98.43)"/><path class="cls-2" d="M624.45,300.73a19,19,0,0,0,1.09,1.78A9.28,9.28,0,0,0,624.45,300.73Z" transform="translate(-71.05 -98.43)"/><path class="cls-2" d="M71.81,431.52l-.41,2.21-.35,2.21c.43-1,.83-1.92,1.29-2.87Z" transform="translate(-71.05 -98.43)"/><path class="cls-2" d="M75.06,439.85,72.5,441l2.44,2.52C74.79,442.53,74.5,440.62,75.06,439.85Z" transform="translate(-71.05 -98.43)"/><path class="cls-2" d="M457.08,128.3l.44-.54c-.46-.8-1.38-1.06-3.23-1.58Z" transform="translate(-71.05 -98.43)"/><path class="cls-2" d="M402.44,118.46l1,.11c-.55-.83-1.11-1.62-1.67-2.43Z" transform="translate(-71.05 -98.43)"/><path class="cls-2" d="M355.93,122.24c1.89,0,4.07-.73,6-.78C357.83,122.2,355.16,119.36,355.93,122.24Z" transform="translate(-71.05 -98.43)"/></svg>