<svg id="Layer_1" data-name="Layer 1" xmlns="http://www.w3.org/2000/svg" viewBox="0 0 720 792"><defs><style>.cls-1{fill:#231815;}</style></defs><title>logo 2020.09.16-11</title><path class="cls-1" d="M211.08,364.12a4.73,4.73,0,0,1-2.9,2.22,13.9,13.9,0,0,0-3.59,1.54,17.69,17.69,0,0,0-3.42,2.73,17.93,17.93,0,0,1-3.41,2.73q4.77,18.45,7.51,32.11t3.42,20.49q.67,6.84,1,15c.21,5.44.34,10.47.34,15a55.61,55.61,0,0,1-.51,8.36,38.08,38.08,0,0,1-1.54,6.32,48.9,48.9,0,0,1-6.66-10.93q-2.55-5.81-5.29-11.61-5.81-17.41-11.1-36.55T174.51,372.6q-9.56-.35-20.49-.34H132.18q-10.94,0-20.66.17c-6.49.11-12.13.29-16.91.51-.46,1.37-.91,3-1.37,4.78a58,58,0,0,0-3.41,9.74q-1.36,5.3-2.39,11.27t-2.39,12.46q-1.36,6.49-3.42,13a15.33,15.33,0,0,0,8.71-2.9,15.41,15.41,0,0,1,8.71-2.9,34,34,0,0,0-5.29,6.83,41.48,41.48,0,0,0-3.93,9.9,7.76,7.76,0,0,1-2,3.59,27.68,27.68,0,0,0-2.39,2.9c-.46.91-.91,1.88-1.37,2.9a4.91,4.91,0,0,1-1.7,2.22,10.8,10.8,0,0,1-4.1,1.54,2.34,2.34,0,0,1-2.39-.85,23.23,23.23,0,0,1-3.59-8.71c-.57-3.08-1.08-6.32-1.54-9.74a155.72,155.72,0,0,1,2.39-23.9q2.39-14.69,6.15-31.43a16.56,16.56,0,0,1-5.46-2.56A20.57,20.57,0,0,0,69,368.56a19.25,19.25,0,0,0-6.15-1.88,9,9,0,0,1-5.13-2.56l20.84-5.46A19.61,19.61,0,0,0,83,358q4.09-16,8.2-30.74t7.85-24.93q2.73-7.86,6.66-18.1a148.2,148.2,0,0,1,9.22-19.64,77.52,77.52,0,0,1,12-16.22q6.66-6.84,14.51-8.54a35.42,35.42,0,0,1,4.79-1,38.18,38.18,0,0,1,5.12-.34,4.41,4.41,0,0,1,4.1,2.56,54.55,54.55,0,0,0,4.09,6.32c1.14,2,2.23,3.82,3.25,5.29s2.1,4.5,3.24,9.06q8.21,24.93,15.37,50T194,359l20.84,4.44ZM141.4,254.48a151.08,151.08,0,0,0-10.93,17.25q-5.11,9.4-10.24,21.52T110,320.91q-5.11,15.55-10.59,35,17.76-2,35.52-2.39a301.64,301.64,0,0,1,35.18,1.37q-7.17-27.67-14-53.8A447.52,447.52,0,0,0,141.4,254.48Z"/><path class="cls-1" d="M295.1,370.35c-.86,2.56-1.54,4.53-2.05,5.89s-1.28,1.54-2.31.52a105.91,105.91,0,0,0-8.71-7.69A25.08,25.08,0,0,0,269.48,364a26.38,26.38,0,0,0-10.37,1.15,13.59,13.59,0,0,0-8.33,7q-2.57,4.61-.77,11a14.06,14.06,0,0,0,6.79,9.61,49,49,0,0,0,11.79,4.61q6.53,1.67,13.32,2.94a30.69,30.69,0,0,1,11.65,4.61,5.56,5.56,0,0,1,2.43,2.44,19.1,19.1,0,0,0,1.93,2.94,21.86,21.86,0,0,0,2.43,2.57,10.23,10.23,0,0,1,2.18,3.07c.51,1,1.11,2.26,1.79,3.71a7.51,7.51,0,0,1,.51,4.74q-.76,3.33-6.4,7.17a120.56,120.56,0,0,1-25.87,12.68,53.14,53.14,0,0,1-28.69,1.67c-1.2-.34-2.56-1.49-4.1-3.46a19.42,19.42,0,0,0-3.84-4,12.49,12.49,0,0,1-5.64-5.89,49.4,49.4,0,0,1-2-14.6q0-2.56.9-2.43a11.48,11.48,0,0,0,1.66.12c1,0,2.18.69,3.46,2.05s2.65,2.95,4.1,4.74,2.82,3.42,4.1,4.87,2.34,2.18,3.2,2.18a27.13,27.13,0,0,0,10.5,2.3,47.62,47.62,0,0,0,12.43-1.15A41.63,41.63,0,0,0,280.42,426a27.11,27.11,0,0,0,8.84-8.07c0-.85-1-1.88-2.95-3.08s-4.48-2.51-7.56-4-6.44-2.94-10.11-4.48-7.18-3.16-10.51-4.87a57.33,57.33,0,0,1-8.71-5.38,15.57,15.57,0,0,1-5-5.63c-.51-1.37-1.11-2.77-1.79-4.23a17.66,17.66,0,0,1-1.28-3.2,29.36,29.36,0,0,1-.52-10.89,27.11,27.11,0,0,1,3.08-9.35,20.16,20.16,0,0,1,6.14-6.78,20.59,20.59,0,0,1,8.71-3.46,70.85,70.85,0,0,1,16.53-.13,31.29,31.29,0,0,1,15.75,6,14.44,14.44,0,0,1,3,3.42,14,14,0,0,1,1.4,3.59c.17.85.34,1.66.52,2.43A2.92,2.92,0,0,1,295.1,370.35Z"/><path class="cls-1" d="M383.22,364.2q3.31,8.21,6.27,17.68a109,109,0,0,1,4.1,18.83,70.89,70.89,0,0,1,0,18.06,31.4,31.4,0,0,1-6,15.11,4.83,4.83,0,0,1-4.87,2.05,3.22,3.22,0,0,1-1.79-1.28,7.18,7.18,0,0,0-2.05-1.79,11.69,11.69,0,0,0-2.18-1.29,5.3,5.3,0,0,1-2.17-2,32.37,32.37,0,0,0-7.56,3.71q-3.72,2.45-7.56,5t-7.94,5a29.69,29.69,0,0,1-8.45,3.46c-3.07.85-5.34.73-6.79-.39s-3-2.34-4.74-3.71l-2.3-1.92c-.3-.25-.69-1.32-1-3.2A52.58,52.58,0,0,1,328,425.3a57.34,57.34,0,0,1,3-13.19q6.4-19.47,26.13-26.13a10,10,0,0,1,4.74-.39,19.16,19.16,0,0,1,4.74,1.41,27.58,27.58,0,0,1,4.48,2.56c1.45,1,2.77,2.05,4,3.08l4.1,3.33a16.62,16.62,0,0,0-.13-9.35,36.18,36.18,0,0,0-4.23-9.48,47,47,0,0,0-6.4-8.07,20.75,20.75,0,0,0-6.92-4.87,45.94,45.94,0,0,0-23.44,6A98.88,98.88,0,0,0,317.9,386a3.62,3.62,0,0,1-1.16.77c-.42.17-.81.34-1.15.51a2.17,2.17,0,0,1-1.79.26c-.52-.17-.6-.68-.26-1.54a36.88,36.88,0,0,1,6.15-14.73,54.39,54.39,0,0,1,10.76-11.4,69.71,69.71,0,0,1,13.06-8.2,64.87,64.87,0,0,1,13.58-4.86,6.21,6.21,0,0,1,1.92-.64,14.42,14.42,0,0,1,2.18-.13,5.92,5.92,0,0,1,3.33,1c1,.69,2.21,1.46,3.58,2.31a51.11,51.11,0,0,1,5.13,2.94,23.75,23.75,0,0,1,4.61,4,33.94,33.94,0,0,1,3.07,4.1Q382.18,362.42,383.22,364.2Zm-8.71,45.6a18.74,18.74,0,0,0-4.74-6.15,21.7,21.7,0,0,0-7.3-4.22,17.93,17.93,0,0,0-8.84-.64A21.21,21.21,0,0,0,344,403.4q-1.53,3.33-3.07,7.3a46.54,46.54,0,0,0-2.3,7.94,35.84,35.84,0,0,0-.65,7.94,18.8,18.8,0,0,0,1.67,7.3,185.83,185.83,0,0,0,19-7.68q9.21-4.36,15.88-7.69A6.36,6.36,0,0,0,376.3,416a2.52,2.52,0,0,0-.13-1.79c-.25-.52-.6-1.11-1-1.8a4.69,4.69,0,0,1-.66-2.61Z"/><path class="cls-1" d="M433.16,390.33a48.82,48.82,0,0,1,14.09-14,30.25,30.25,0,0,1,19-4.48,12.29,12.29,0,0,1,3.33,1.15l3.33,1.67a24.51,24.51,0,0,1,7.17,6,53.2,53.2,0,0,1,6,9,65.28,65.28,0,0,1,4.48,10.38,66.09,66.09,0,0,1,2.57,10,61.59,61.59,0,0,1,.76,7.17c.17,2.91.26,5.55.26,7.94-.34,0-.51.09-.51.26s-.17.17-.51,0a8.91,8.91,0,0,1-3.33-2.82,9.64,9.64,0,0,0-1.54-1.15,2.66,2.66,0,0,1-1.28-1.67c-.35-1.7-.73-4-1.15-6.79a61.67,61.67,0,0,0-2.18-9.09,72.42,72.42,0,0,0-3.85-9.61,33.79,33.79,0,0,0-5.63-8.32,19.83,19.83,0,0,0-2.18-1.92c-.6-.43-1.32-.9-2.18-1.41a8.07,8.07,0,0,0-3.84-1.41,10.29,10.29,0,0,0-4.35.13,30.21,30.21,0,0,0-9.22,4.86,36.44,36.44,0,0,0-8.46,8.84,34.62,34.62,0,0,0-5.12,12.17,26.64,26.64,0,0,0,1.28,14.86,29.41,29.41,0,0,1,1,3.71,10.11,10.11,0,0,1,.12,2.69,8,8,0,0,1-.89,2.82q-.78,1.53-2,4.1a12,12,0,0,1-4.74,4.35,28,28,0,0,0-4.74,2.82,290.5,290.5,0,0,1-11.4-42.52,295.59,295.59,0,0,1-4.87-40.22,196.39,196.39,0,0,1,1.16-34.71q2-15.75,6.4-26.26c.51-2,1.62-2.9,3.33-2.56a3.89,3.89,0,0,1,2,1l2,2c.68.85,1.28,1.58,1.79,2.17a5,5,0,0,1,1,2.44c.16.85.59,1.28,1.28,1.28s.93.43.77,1.28q-2.31,14.08-3.08,26.13a220.81,220.81,0,0,0-.38,22.28,175.2,175.2,0,0,0,1.66,19Q431.88,382.67,433.16,390.33Z"/><path class="cls-1" d="M534.48,410.44q-.39-4.47-1.29-9.35c-.6-3.24-1.4-6.83-2.43-10.76a2.86,2.86,0,0,0-2.43-2.17,8.17,8.17,0,0,1-3.46-1.16c-1.37-.85-2.78-1.71-4.23-2.56a5,5,0,0,0-4-.77,7.25,7.25,0,0,0-2.82,1.8q-1.27,1.27-.51,4.86a78.86,78.86,0,0,1,2,13.67q.39,7,.77,14a110.18,110.18,0,0,0,1.54,13.32,28.62,28.62,0,0,0,4.48,11.27,20.06,20.06,0,0,1,6.41-4.35,13.21,13.21,0,0,0,2.17-1.29,8.62,8.62,0,0,0,1.67-2.81,7.26,7.26,0,0,1,1.7-2.44,3.23,3.23,0,0,0,1.16-2.17c0-3.59,0-6.92-.13-10S534.73,413.43,534.48,410.44Z"/><path class="cls-1" d="M100.33,325.38c-.14.19-.25.45-.4.62C100.14,326.13,100.24,325.83,100.33,325.38Z"/><path class="cls-1" d="M72,416.15c-.15-.95-.22-2.5-.3-4A15.78,15.78,0,0,0,72,416.15Z"/><path class="cls-1" d="M188.79,184.54a2.37,2.37,0,0,0-.45.15C187.14,186.54,187.79,185.88,188.79,184.54Z"/><path class="cls-1" d="M609.48,274.44c0,.08.12.1.18.17a1.14,1.14,0,0,0-.09-.3Z"/><path class="cls-1" d="M630,323a20.13,20.13,0,0,0,1.18,1.72A8.08,8.08,0,0,0,630,323Z"/><path class="cls-1" d="M71,432.38c-.15,1.49-.25,3-.38,4.48l1-3A7.5,7.5,0,0,1,71,432.38Z"/><path class="cls-1" d="M74.89,440.42l-2.44,1.36,2.66,2.3C74.87,443.12,74.4,441.24,74.89,440.42Z"/><path class="cls-1" d="M176.42,522.67a1.17,1.17,0,0,1-.68.51,2.87,2.87,0,0,0-.84.37,4.44,4.44,0,0,0-.8.63,4.55,4.55,0,0,1-.8.65c.75,2.88,1.33,5.38,1.76,7.51s.69,3.74.8,4.8.19,2.24.24,3.53.08,2.45.08,3.51a13.34,13.34,0,0,1-.12,2,9.51,9.51,0,0,1-.36,1.49,11.54,11.54,0,0,1-1.56-2.56c-.4-.91-.82-1.82-1.24-2.73-.91-2.71-1.77-5.57-2.6-8.55s-1.64-6-2.44-9.12c-1.49-.06-3.1-.08-4.8-.08h-10c-1.52,0-2.84.06-4,.12a11,11,0,0,0-.32,1.12,13,13,0,0,0-.8,2.27c-.22.83-.4,1.71-.56,2.65s-.35,1.9-.56,2.92a28.86,28.86,0,0,1-.8,3,3.59,3.59,0,0,0,2-.68,3.53,3.53,0,0,1,2-.69,8.42,8.42,0,0,0-1.24,1.61,9.21,9.21,0,0,0-.92,2.31,1.82,1.82,0,0,1-.48.84,7.34,7.34,0,0,0-.56.69,6,6,0,0,0-.32.68,1.14,1.14,0,0,1-.4.52,2.4,2.4,0,0,1-1,.35.55.55,0,0,1-.56-.2,5.21,5.21,0,0,1-.84-2c-.14-.72-.26-1.47-.36-2.27a36.4,36.4,0,0,1,.56-5.61q.56-3.43,1.44-7.35a3.87,3.87,0,0,1-1.28-.61,7.64,7.64,0,0,0-2.56-1,2,2,0,0,1-1.2-.59l4.88-1.29a4.26,4.26,0,0,0,1-.16l1.92-7.19c.64-2.3,1.25-4.24,1.84-5.85q.65-1.83,1.56-4.23a32.77,32.77,0,0,1,2.16-4.61,17.62,17.62,0,0,1,2.8-3.79,6.72,6.72,0,0,1,3.4-2,8.62,8.62,0,0,1,1.12-.25,9.67,9.67,0,0,1,1.2-.08,1,1,0,0,1,1,.61,13.12,13.12,0,0,0,1,1.47c.27.49.52.9.76,1.25a7.27,7.27,0,0,1,.76,2.12q1.92,5.84,3.6,11.71t3,11.09l4.88,1ZM160.1,497a33.5,33.5,0,0,0-2.56,4c-.88,1.63-1.68,3.29-2.4,5q-1.2,2.83-2.4,6.48c-.8,2.42-1.63,5.16-2.48,8.2,2.77-.33,5.54-.51,8.32-.57a70.87,70.87,0,0,1,8.24.33c-1.12-4.33-2.21-8.52-3.28-12.6A105.74,105.74,0,0,0,160.1,497Z"/><path class="cls-1" d="M211.22,521.55a15.27,15.27,0,0,1,4.4-4.37,9.49,9.49,0,0,1,5.92-1.39,4,4,0,0,1,1,.35l1,.53a7.64,7.64,0,0,1,2.24,1.88,16.43,16.43,0,0,1,1.88,2.79,20.29,20.29,0,0,1,1.4,3.25,21,21,0,0,1,.8,3.12,16.85,16.85,0,0,1,.24,2.24c0,.9.08,1.73.08,2.47-.11,0-.16,0-.16.09s0,0-.16,0a2.82,2.82,0,0,1-1-.88,3.41,3.41,0,0,0-.48-.37.82.82,0,0,1-.4-.51c-.11-.54-.23-1.24-.36-2.12a18.62,18.62,0,0,0-.68-2.84,20.4,20.4,0,0,0-1.2-3,11,11,0,0,0-1.76-2.61,6.39,6.39,0,0,0-.68-.59c-.22-.16-.45-.31-.68-.45a2.6,2.6,0,0,0-1.2-.43,3.12,3.12,0,0,0-1.36,0,9.23,9.23,0,0,0-2.88,1.51,11.4,11.4,0,0,0-2.64,2.77,10.55,10.55,0,0,0-1.6,3.8,8.36,8.36,0,0,0,.4,4.64,9.5,9.5,0,0,1,.32,1.16,3,3,0,0,1,0,.84,2.69,2.69,0,0,1-.28.87l-.64,1.29a3.87,3.87,0,0,1-1.48,1.36,8.5,8.5,0,0,0-1.48.88,89.4,89.4,0,0,1-5-25.83,61.47,61.47,0,0,1,.36-10.85,32.06,32.06,0,0,1,2-8.19c.16-.65.5-.91,1-.81a1.2,1.2,0,0,1,.64.33l.64.63c.21.27.4.5.56.69a1.43,1.43,0,0,1,.32.76.38.38,0,0,0,.4.4q.31,0,.24.39-.72,4.41-1,8.17a68.13,68.13,0,0,0-.12,7,53.15,53.15,0,0,0,.52,5.91C210.69,518.24,211,520,211.22,521.55Z"/><path class="cls-1" d="M251.46,512.34a10,10,0,0,1,1,1.25A8,8,0,0,1,254,518a7.06,7.06,0,0,1-1.16,3.56,12.71,12.71,0,0,1-3.48,3.75,10.64,10.64,0,0,1-4.6,1.92,9.06,9.06,0,0,1-3.52,0,8.4,8.4,0,0,1-3.36-1.55,2.51,2.51,0,0,0-.76,1.16,2.88,2.88,0,0,0-.2,1.39,7.58,7.58,0,0,0,.84,2.45,4.3,4.3,0,0,0,1.48,1.79,6.64,6.64,0,0,0,3.8.09,37.58,37.58,0,0,0,5.2-1.48c1.84-.67,3.65-1.41,5.44-2.24l4.6-2.12a.77.77,0,0,1-.2.63,3.52,3.52,0,0,0-.52.57c-.31.32-.6.65-.88,1a4.84,4.84,0,0,1-1.12,1,3,3,0,0,0-1.2,1.24,3.77,3.77,0,0,1-1.52,1.39l-3.08,1.65c-1,.56-2.07,1.06-3.08,1.52a17.58,17.58,0,0,1-3.08,1,9.67,9.67,0,0,1-3.08.2,4.78,4.78,0,0,1-1.72-.57,12,12,0,0,1-1.64-1.19,12.75,12.75,0,0,0-1.12-.81,3.5,3.5,0,0,1-1-.79,11.79,11.79,0,0,1-1.84-4.29,13.63,13.63,0,0,1-.2-4.55,17.88,17.88,0,0,1,1.16-4.49,16.31,16.31,0,0,1,2.32-4,17.34,17.34,0,0,1,2-2.11A14.51,14.51,0,0,1,241,512.2a13.16,13.16,0,0,1,3-1.32,9.14,9.14,0,0,1,3.16-.41,3.35,3.35,0,0,1,1.16.37l1.16.59,1,.45A4.81,4.81,0,0,1,251.46,512.34Zm-2.32,4.73a2.22,2.22,0,0,0-.88-1.28,6.52,6.52,0,0,0-1.6-.92,6.6,6.6,0,0,0-1.76-.45,3.07,3.07,0,0,0-1.28.09,6.94,6.94,0,0,0-1.48.83,11.29,11.29,0,0,0-1.6,1.41,15.8,15.8,0,0,0-1.44,1.72,7.51,7.51,0,0,0-1,1.71,2.38,2.38,0,0,0-.28.77,1,1,0,0,0,0,.76,3.48,3.48,0,0,0,2.88,1.2,10.58,10.58,0,0,0,4-.88,8.48,8.48,0,0,0,3-1.85,5.21,5.21,0,0,1,.36-.55,7.81,7.81,0,0,0,.52-.88c.16-.33.3-.65.44-1A1.15,1.15,0,0,0,249.14,517.07Z"/><path class="cls-1" d="M279.78,513.38c.67,1.71,1.33,3.56,2,5.53a33.89,33.89,0,0,1,1.28,5.88,22.1,22.1,0,0,1,0,5.63,9.8,9.8,0,0,1-1.88,4.72,1.52,1.52,0,0,1-1.52.65,1,1,0,0,1-.56-.41,2.25,2.25,0,0,0-.64-.55,3.62,3.62,0,0,0-.68-.41,1.65,1.65,0,0,1-.68-.63,9.84,9.84,0,0,0-2.4,1.21c-.78.5-1.56,1-2.36,1.56s-1.63,1-2.48,1.56a9.33,9.33,0,0,1-2.64,1.07,2.43,2.43,0,0,1-2.12-.11c-.46-.35-1-.74-1.48-1.16l-.72-.61a2.07,2.07,0,0,1-.32-1,16,16,0,0,1,0-3.79,17.75,17.75,0,0,1,.92-4.13,12.26,12.26,0,0,1,8.16-8.16,3.22,3.22,0,0,1,1.48-.11,5.15,5.15,0,0,1,1.48.44,9.16,9.16,0,0,1,1.4.79,14.22,14.22,0,0,1,1.24,1l1.28,1a5.36,5.36,0,0,0,0-2.92,11.66,11.66,0,0,0-1.32-3,14.23,14.23,0,0,0-2-2.51,6.59,6.59,0,0,0-2.16-1.53,14.35,14.35,0,0,0-7.32,1.88,30.86,30.86,0,0,0-6.28,4.92.88.88,0,0,1-.36.24l-.36.17a.73.73,0,0,1-.56.08c-.16-.06-.19-.22-.08-.49A11.5,11.5,0,0,1,260,515.6a16.76,16.76,0,0,1,3.28-3.6,21.34,21.34,0,0,1,4.08-2.56,19.33,19.33,0,0,1,4.24-1.52,1.85,1.85,0,0,1,.6-.2,3.86,3.86,0,0,1,.68,0,1.77,1.77,0,0,1,1,.32l1.12.72a14.1,14.1,0,0,1,1.6.92,6.56,6.56,0,0,1,1.44,1.24,10.15,10.15,0,0,1,1,1.27Zm-2.72,14.25a5.79,5.79,0,0,0-1.48-1.92,6.8,6.8,0,0,0-2.28-1.33,5.74,5.74,0,0,0-2.76-.2,6.62,6.62,0,0,0-3,1.45c-.32.67-.65,1.43-1,2.28a15.18,15.18,0,0,0-.72,2.47,11,11,0,0,0-.2,2.49,5.58,5.58,0,0,0,.52,2.27,59.52,59.52,0,0,0,5.92-2.39c1.92-.91,3.59-1.72,5-2.41a1.94,1.94,0,0,0,.56-.79.77.77,0,0,0,0-.56c-.08-.16-.19-.35-.32-.57A1.39,1.39,0,0,1,277.06,527.63Z"/><path class="cls-1" d="M294.74,498.91c.64,2.88,1.14,5.76,1.52,8.64s.72,5.75,1,8.63.65,5.77,1,8.65.81,5.76,1.4,8.64c-.11.69-.19,1.25-.24,1.67a1,1,0,0,1-.4.81,5.67,5.67,0,0,0-.76.52,3.59,3.59,0,0,1-.76.44.84.84,0,0,0-.32.27,1.12,1.12,0,0,1-.36.29.45.45,0,0,1-.36,0,1.43,1.43,0,0,1-.4-.48q-1.53-4.56-2.76-9.2a90.77,90.77,0,0,1-2-9.37,78.47,78.47,0,0,1-1-9.55,72.55,72.55,0,0,1,.28-10c0-.81.24-1.31.72-1.53.21-.1.49,0,.84.25a3.74,3.74,0,0,0,.92.55,4,4,0,0,0,.88.29A1.33,1.33,0,0,1,294.74,498.91Z"/><path class="cls-1" d="M334.66,519.3c.1.11.18.17.24.17s.08,0,.08.16a1.54,1.54,0,0,1-.36.36,2.2,2.2,0,0,1-1,.27,5.24,5.24,0,0,0-.64.29c-.27.13-.48.22-.64.28-1.44.31-3.14.61-5.08.88s-4,.5-6,.71c-.11,1.87-.15,3.61-.12,5.21s.09,3,.2,4.16c.1.9.53,1.34,1.28,1.31a8.34,8.34,0,0,0,2.32-.43,17.6,17.6,0,0,0,1.72-.76l3.28-1.61c1.25-.61,2.57-1.27,4-2l3.76-2a3,3,0,0,1-1.2,2.17,13.7,13.7,0,0,1-1.4,1c-.51.32-1,.66-1.56,1a3.14,3.14,0,0,0-1.2,1.2A4,4,0,0,1,330.9,533a36.25,36.25,0,0,1-4.48,2.49,23.81,23.81,0,0,1-4.32,1.59,5.36,5.36,0,0,1-1.32.16,3.73,3.73,0,0,0-1.32.25,1.22,1.22,0,0,1-1.48-.16,3,3,0,0,1-.68-1.6c-.22-2-.36-4.08-.44-6.32s-.1-4.51,0-6.8c-1.61.1-3.08.14-4.44.12a21.77,21.77,0,0,1-3.32-.28,11,11,0,0,1-2.2-.52,4.85,4.85,0,0,1-1.8-1.16c-.48,0-.63-.23-.44-.69s.33-.84.44-1.15c1.12-.06,2.76-.12,4.92-.2l7-.28q.32-6.65,1.12-12.33a38.37,38.37,0,0,1,1.92-8.47,1,1,0,0,1,.6-1,13.56,13.56,0,0,0,1.24-.69,4.34,4.34,0,0,0,.68-.43,1.55,1.55,0,0,1,1-.29,6.84,6.84,0,0,1,1,.69.9.9,0,0,1,.32.68,2.45,2.45,0,0,1-.24,1c-.16.37-.35.85-.56,1.43a8.7,8.7,0,0,0-.48,2c-.22,1.18-.44,2.66-.68,4.45s-.5,3.81-.76,6.08-.48,4.54-.64,6.84h5c1.56,0,3,.09,4.24.2Z"/><path class="cls-1" d="M345.85,521.55a15.27,15.27,0,0,1,4.4-4.37,9.49,9.49,0,0,1,5.92-1.39,3.93,3.93,0,0,1,1.05.35l1,.53a7.49,7.49,0,0,1,2.24,1.88,16.49,16.49,0,0,1,1.89,2.79,22.26,22.26,0,0,1,1.4,3.25,21,21,0,0,1,.79,3.12,16.85,16.85,0,0,1,.24,2.24c.06.9.08,1.73.08,2.47-.1,0-.16,0-.16.09s-.05,0-.16,0a2.82,2.82,0,0,1-1-.88,3,3,0,0,0-.49-.37.85.85,0,0,1-.4-.51c-.1-.54-.22-1.24-.35-2.12a21.33,21.33,0,0,0-.68-2.84,21.62,21.62,0,0,0-1.21-3,10.69,10.69,0,0,0-1.76-2.61,5.43,5.43,0,0,0-.68-.59c-.22-.16-.44-.31-.67-.45a2.63,2.63,0,0,0-1.21-.43,3.12,3.12,0,0,0-1.36,0,9.8,9.8,0,0,0-2.88,1.51,11.17,11.17,0,0,0-2.63,2.77,10.55,10.55,0,0,0-1.6,3.8,8.35,8.35,0,0,0,.39,4.64,8,8,0,0,1,.32,1.16,3,3,0,0,1,.05.84,2.48,2.48,0,0,1-.29.87l-.63,1.29A3.87,3.87,0,0,1,346,537a8.5,8.5,0,0,0-1.48.88A94.85,94.85,0,0,1,339.41,512a62.45,62.45,0,0,1,.37-10.85,32.06,32.06,0,0,1,2-8.19c.15-.65.5-.91,1-.81a1.23,1.23,0,0,1,.65.33l.63.63.56.69a1.43,1.43,0,0,1,.32.76c.06.26.19.4.41.4s.29.13.24.39c-.47,2.7-.8,5.43-1,8.17a68.13,68.13,0,0,0-.11,7,58.4,58.4,0,0,0,.51,5.91C345.32,518.24,345.59,520,345.85,521.55Z"/><path class="cls-1" d="M385.93,546.75a15.19,15.19,0,0,1-.47,1.63c-.16.46-.33.87-.49,1.25a6.55,6.55,0,0,1-.56,1c-.21.32-.45.71-.71,1.2a3.58,3.58,0,0,0-.85,1.23,2.3,2.3,0,0,1-1.23,1.24,34,34,0,0,1-4.84,1.53,12.62,12.62,0,0,1-4.45.39.56.56,0,0,0-.36,0,.21.21,0,0,1-.27-.12,1,1,0,0,1,.19-1.31,2.18,2.18,0,0,0,.76-1.16c.12-.3.23-.61.32-.92a1.69,1.69,0,0,1,.57-.84,11,11,0,0,1,2.31-.77,16.77,16.77,0,0,0,3-1,9.94,9.94,0,0,0,2.72-1.72,5.25,5.25,0,0,0,1.65-3q.48-2.48.79-5.43c.22-2,.39-4,.53-6s.24-4,.31-6,.15-3.82.2-5.53a17.17,17.17,0,0,1-1.35,2.21c-.59.82-1.23,1.63-1.92,2.44a28.12,28.12,0,0,1-2.08,2.15,10.41,10.41,0,0,1-1.92,1.45,10.31,10.31,0,0,0-1.69,1.08c-.42.34-.85.7-1.28,1.08a1.13,1.13,0,0,1-1.27,0,3.74,3.74,0,0,1-1.45-1.45,20.07,20.07,0,0,1-1.36-3.16c-.42-1.25-.85-2.58-1.27-4s-.86-2.88-1.29-4.39-.85-3-1.28-4.36c-.37-1-.34-1.74.08-2.17a1.77,1.77,0,0,1,1.28-.55c.43,0,.68.12.76.35s.34.39.77.45a1.28,1.28,0,0,1,.84.4,3,3,0,0,0,.68.56,2.12,2.12,0,0,1,.67.63,4.92,4.92,0,0,1,.44,1.12c.27,1,.5,2,.68,2.84s.38,1.75.56,2.61.4,1.71.65,2.59.51,1.83.83,2.84a22.48,22.48,0,0,0,3.8-3.15,34.63,34.63,0,0,0,3-3.52c.89-1.21,1.67-2.38,2.36-3.52s1.34-2.26,1.92-3.32c.22-.33.48-.78.8-1.37a6.54,6.54,0,0,1,.88-1.27,2.25,2.25,0,0,0,.4-.52,1.13,1.13,0,0,1,.4-.44,1.27,1.27,0,0,1,.4.72c.06.26.11.55.17.88a9,9,0,0,1-.21,2.92,12.59,12.59,0,0,0-.36,2.28v7.35q0,3.77-.24,7.53c-.16,2.51-.42,5-.79,7.55A51.8,51.8,0,0,1,385.93,546.75Z"/><path class="cls-1" d="M434.49,517.47a1.17,1.17,0,0,1,.2.75,2.13,2.13,0,0,1-.12.61,5.26,5.26,0,0,1-1,1c-.26.16-.72.39-1.36.72l-.44.32a.7.7,0,0,1-.44.16,2.57,2.57,0,0,1-1.24-.65c-.56-.42-1.16-.85-1.8-1.27a7.5,7.5,0,0,0-2-1,2.31,2.31,0,0,0-2,.24,16.42,16.42,0,0,0-1.68,3.08,22.32,22.32,0,0,0-1.24,4,15.56,15.56,0,0,0-.28,4.25,9,9,0,0,0,1.28,4,13.57,13.57,0,0,0,8.24-1.56,31,31,0,0,0,6.64-5.08,1.78,1.78,0,0,1-.28,1c-.18.29-.36.6-.52.92s-.44.94-.68,1.39a5.4,5.4,0,0,1-1,1.33,24.06,24.06,0,0,1-2.52,2.32,20.87,20.87,0,0,1-3,2,14.72,14.72,0,0,1-3.2,1.27,9.07,9.07,0,0,1-3.24.29,2.15,2.15,0,0,1-1.24-.44,4.68,4.68,0,0,0-1.24-.77,5.1,5.1,0,0,0-1.24-.55,2.88,2.88,0,0,1-1.16-.64,6.67,6.67,0,0,1-1.2-2.32,12.8,12.8,0,0,1-.56-3.84,29.77,29.77,0,0,1,.28-4,23,23,0,0,1,.8-3.57c.35-1.06.66-1.89.92-2.47a4.78,4.78,0,0,1,1.44-1.8,13.64,13.64,0,0,1,2.12-1.4c.78-.43,1.56-.83,2.36-1.21l2.24-1Q430.41,513.39,434.49,517.47Z"/><path class="cls-1" d="M448.25,521.55a15.27,15.27,0,0,1,4.4-4.37,9.49,9.49,0,0,1,5.92-1.39,4,4,0,0,1,1,.35l1,.53a7.49,7.49,0,0,1,2.24,1.88,16.43,16.43,0,0,1,1.88,2.79,20.29,20.29,0,0,1,1.4,3.25,19.84,19.84,0,0,1,.8,3.12,16.85,16.85,0,0,1,.24,2.24c.06.9.08,1.73.08,2.47-.1,0-.16,0-.16.09s-.05,0-.16,0a2.92,2.92,0,0,1-1-.88,2.46,2.46,0,0,0-.48-.37.85.85,0,0,1-.4-.51c-.1-.54-.22-1.24-.36-2.12a18.62,18.62,0,0,0-.68-2.84,20.4,20.4,0,0,0-1.2-3,10.69,10.69,0,0,0-1.76-2.61,5.43,5.43,0,0,0-.68-.59,8,8,0,0,0-.68-.45,2.6,2.6,0,0,0-1.2-.43,3.12,3.12,0,0,0-1.36,0,9.35,9.35,0,0,0-2.88,1.51,11.4,11.4,0,0,0-2.64,2.77,10.91,10.91,0,0,0-1.6,3.8,8.36,8.36,0,0,0,.4,4.64,9.5,9.5,0,0,1,.32,1.16,3,3,0,0,1,0,.84,2.4,2.4,0,0,1-.28.87l-.64,1.29a3.73,3.73,0,0,1-1.48,1.36,8.5,8.5,0,0,0-1.48.88,91,91,0,0,1-3.56-13.28A94.55,94.55,0,0,1,441.81,512a63.44,63.44,0,0,1,.36-10.85,33,33,0,0,1,2-8.19c.16-.65.51-.91,1-.81a1.2,1.2,0,0,1,.64.33l.64.63.56.69a1.43,1.43,0,0,1,.32.76c.06.26.19.4.4.4s.29.13.24.39q-.72,4.41-1,8.17a68.13,68.13,0,0,0-.12,7,55.66,55.66,0,0,0,.52,5.91C447.72,518.24,448,520,448.25,521.55Z"/><path class="cls-1" d="M480.89,513.87l-1.36,1.35c.43-.05,1.08-.17,2-.35a12,12,0,0,1,2.6-.28,3.55,3.55,0,0,1,1.6.63,2.64,2.64,0,0,1,.8,1.85,24.55,24.55,0,0,0,1,3.88,26,26,0,0,1,1,3.88,8.59,8.59,0,0,1,0,3.64,5.51,5.51,0,0,1-2.16,3.08,21.51,21.51,0,0,1-4,4.67,8.76,8.76,0,0,1-4.6,2.2,7.28,7.28,0,0,1-3.52-.43,4.88,4.88,0,0,1-2.8-2.36c-.16.1-.29.12-.4,0l-.32-.29c-.1-.1-.2-.13-.28-.08s-.15,0-.2-.08a1.91,1.91,0,0,1-.08-.63v-.33a46,46,0,0,1,.52-5.63A33.47,33.47,0,0,1,472,523.1a24.46,24.46,0,0,1,2.4-5,16.54,16.54,0,0,1,3.8-4.2,2.52,2.52,0,0,1,1.76-.32h.4A.83.83,0,0,1,480.89,513.87Zm-2.72,5.43a.56.56,0,0,1-.56-.31,1.06,1.06,0,0,1,0-.61c.08-.24.19-.51.32-.83a2.32,2.32,0,0,0,.2-1,10.46,10.46,0,0,0-2.6,3.67,20.33,20.33,0,0,0-1.32,4.45,23.51,23.51,0,0,0-.36,4.43c0,1.45.1,2.7.2,3.77a7.14,7.14,0,0,0,.56,2.19,1.67,1.67,0,0,0,1.2,1,3.49,3.49,0,0,0,2.32-.47,8.9,8.9,0,0,0,3.36-2.88,18.42,18.42,0,0,0,2.08-3.92,17.51,17.51,0,0,0,.52-2.69,8,8,0,0,0-.12-2.92,3.73,3.73,0,0,0-2-2.67A14,14,0,0,0,478.17,519.3Z"/><path class="cls-1" d="M503.61,510.67c.43.42.6.77.52,1a.41.41,0,0,1-.48.33h0a14.51,14.51,0,0,0-2.28.19c-.83.14-1.7.25-2.64.33a20.33,20.33,0,0,1-2.92,0,13.24,13.24,0,0,1-3-.56c-.43-.43-.41-.82,0-1.16a3.5,3.5,0,0,0,1.08-1.57,1.88,1.88,0,0,1,.68-1,2.34,2.34,0,0,1,.92-.35,9.18,9.18,0,0,1,2.2.35,13.85,13.85,0,0,0,2.2.45,12.14,12.14,0,0,1,2.24.43A2.79,2.79,0,0,1,503.61,510.67Zm-1.68,10.88c.32,1.22.57,2.34.76,3.36a28.85,28.85,0,0,1,.4,2.92c.08.93.13,1.88.16,2.84s0,2,0,3.12a1,1,0,0,1-.36.68,2.3,2.3,0,0,0-.52.75,2.31,2.31,0,0,1-.52.88,4.23,4.23,0,0,1-.68.41,6.23,6.23,0,0,0-2,1.36,9,9,0,0,1-1.4-3.53,32.31,32.31,0,0,1-.48-4.16c-.08-1.43-.16-2.89-.24-4.35a25.79,25.79,0,0,0-.6-4.28c-.16-.75-.11-1.26.16-1.52a2.11,2.11,0,0,1,.88-.56,1.56,1.56,0,0,1,1.24.24c.45.26.89.53,1.32.8a2.61,2.61,0,0,0,1.08.36A.88.88,0,0,1,501.93,521.55Z"/><path class="cls-1" d="M528.17,517.47a1.17,1.17,0,0,1,.2.75,3.14,3.14,0,0,1-.12.61,5.26,5.26,0,0,1-1,1c-.26.16-.72.39-1.36.72l-.44.32a.7.7,0,0,1-.44.16,2.57,2.57,0,0,1-1.24-.65c-.56-.42-1.16-.85-1.8-1.27a7.5,7.5,0,0,0-2-1,2.31,2.31,0,0,0-2,.24,16.42,16.42,0,0,0-1.68,3.08,21.54,21.54,0,0,0-1.24,4,15.56,15.56,0,0,0-.28,4.25,9,9,0,0,0,1.28,4,13.57,13.57,0,0,0,8.24-1.56,31,31,0,0,0,6.64-5.08,1.78,1.78,0,0,1-.28,1c-.18.29-.36.6-.52.92s-.44.94-.68,1.39a5.4,5.4,0,0,1-1,1.33,24.06,24.06,0,0,1-2.52,2.32,20.87,20.87,0,0,1-3,2,14.72,14.72,0,0,1-3.2,1.27,9.07,9.07,0,0,1-3.24.29,2.15,2.15,0,0,1-1.24-.44,4.68,4.68,0,0,0-1.24-.77,5.1,5.1,0,0,0-1.24-.55,2.88,2.88,0,0,1-1.16-.64,6.67,6.67,0,0,1-1.2-2.32,12.8,12.8,0,0,1-.56-3.84,29.77,29.77,0,0,1,.28-4,23,23,0,0,1,.8-3.57c.35-1.06.66-1.89.92-2.47a4.78,4.78,0,0,1,1.44-1.8,13.64,13.64,0,0,1,2.12-1.4c.78-.43,1.56-.83,2.36-1.21l2.24-1Q524.09,513.39,528.17,517.47Z"/><path class="cls-1" d="M553.21,512.34a9.29,9.29,0,0,1,1,1.25,8.44,8.44,0,0,1,.8,1.4,8,8,0,0,1,.68,3,7.06,7.06,0,0,1-1.16,3.56,12.46,12.46,0,0,1-3.48,3.75,10.52,10.52,0,0,1-4.6,1.92,9.06,9.06,0,0,1-3.52,0,8.4,8.4,0,0,1-3.36-1.55,2.67,2.67,0,0,0-.76,1.16,3.14,3.14,0,0,0-.2,1.39,8.18,8.18,0,0,0,.84,2.45,4.3,4.3,0,0,0,1.48,1.79,6.73,6.73,0,0,0,3.8.09A38.8,38.8,0,0,0,550,531c1.84-.67,3.66-1.42,5.44-2.24l4.6-2.12c0,.32-.06.53-.2.63a5.57,5.57,0,0,0-.52.57,9.68,9.68,0,0,0-.88,1,4.84,4.84,0,0,1-1.12,1,3,3,0,0,0-1.2,1.24,3.7,3.7,0,0,1-1.52,1.39l-3.08,1.65c-1,.56-2.06,1.06-3.08,1.52a17.58,17.58,0,0,1-3.08,1,9.67,9.67,0,0,1-3.08.2,4.78,4.78,0,0,1-1.72-.57,12,12,0,0,1-1.64-1.19,8.85,8.85,0,0,0-1.12-.81,4,4,0,0,1-1-.79,11.79,11.79,0,0,1-1.84-4.29,13.91,13.91,0,0,1-.2-4.55,17.88,17.88,0,0,1,1.16-4.49,16.5,16.5,0,0,1,2.32-4,19,19,0,0,1,2-2.11,15,15,0,0,1,2.56-1.92,13.61,13.61,0,0,1,3-1.32,9.14,9.14,0,0,1,3.16-.41,3.35,3.35,0,0,1,1.16.37l1.16.59c.27.11.6.26,1,.45A4.34,4.34,0,0,1,553.21,512.34Zm-2.32,4.73a2.22,2.22,0,0,0-.88-1.28,5.79,5.79,0,0,0-1.6-.92,6.24,6.24,0,0,0-1.76-.45,3.08,3.08,0,0,0-1.28.09,7.68,7.68,0,0,0-1.48.83,11.29,11.29,0,0,0-1.6,1.41,16.82,16.82,0,0,0-1.44,1.72,8.14,8.14,0,0,0-1,1.71,2.38,2.38,0,0,0-.28.77,1,1,0,0,0,0,.76,3.48,3.48,0,0,0,2.88,1.2,10.58,10.58,0,0,0,4-.88,8.48,8.48,0,0,0,3-1.85c.06-.1.18-.29.36-.55a6,6,0,0,0,.52-.88c.16-.33.31-.65.44-1A1.15,1.15,0,0,0,550.89,517.07Z"/><path class="cls-1" d="M612.71,357c.19.13.3-.5.37-.59C612.68,356.45,612.67,357.2,612.71,357Z"/><polygon class="cls-1" points="608.65 357.11 608.81 356.9 608.05 357.24 608.65 357.11"/><path class="cls-1" d="M605.35,355.61c-.16,1.11,1.28.38,1.7,1v.27l.62-.67C606.91,356,605.72,356.11,605.35,355.61Z"/><path class="cls-1" d="M604.74,352.65c-.1.42-.53.12.32.32v-.13A1.5,1.5,0,0,1,604.74,352.65Z"/><path class="cls-1" d="M603.42,352.24l.61-.1c0-.26-.31-.51-.09-.59C603.41,351.49,603.37,351.75,603.42,352.24Z"/><path class="cls-1" d="M602.62,352.69h.31C602.94,352.57,602.9,352.51,602.62,352.69Z"/><path class="cls-1" d="M603.57,352.65h-.64c0,.18-.19.49.28,0C603,353,603.26,352.73,603.57,352.65Z"/><path class="cls-1" d="M603.76,352.93c.13.34.37.64-.24.73C604.43,354,604.65,353.25,603.76,352.93Z"/><path class="cls-1" d="M604.69,356.51q.1.24.21.45l.46-.18C605.13,356.88,604.81,356.21,604.69,356.51Z"/><path class="cls-1" d="M601.1,350.17a5.29,5.29,0,0,0-.31.87h.45C601.16,350.78,600.94,350.47,601.1,350.17Z"/><path class="cls-1" d="M600.79,351h-.68C600.51,351.38,600.68,351.27,600.79,351Z"/><path class="cls-1" d="M602,353.67l1.2-.27c-.44.06-.91.15-1.36.19Z"/><polygon class="cls-1" points="599.38 349.01 599.92 348.75 599.02 349.09 599.38 349.01"/><path class="cls-1" d="M598.18,348.29c.44-.23.17-.78.52-.87a2.12,2.12,0,0,0-1.27.09C597.8,347.53,598,347.75,598.18,348.29Z"/><path class="cls-1" d="M596.74,347.62a2.69,2.69,0,0,0,.69-.11A1.48,1.48,0,0,0,596.74,347.62Z"/><path class="cls-1" d="M599.38,350.48a1,1,0,0,0,0-.79l-.18.66Z"/><path class="cls-1" d="M599.2,350.37h0l-.36-.3Z"/><path class="cls-1" d="M599.42,350.51h0C599.36,350.54,599.36,350.57,599.42,350.51Z"/><path class="cls-1" d="M601,352.4c-.46.13-1.26.09-1,.91C600.46,353.06,600.3,352.6,601,352.4Z"/><path class="cls-1" d="M599.21,351.33l.42.44c.08-.15.13-.42.36-.48Z"/><polygon class="cls-1" points="598.85 351.34 599.21 351.33 599.05 351.17 598.85 351.34"/><path class="cls-1" d="M597.22,348.69a1.2,1.2,0,0,1-.9-.21,2.71,2.71,0,0,0,.73.74C597.2,349.09,597.53,348.87,597.22,348.69Z"/><path class="cls-1" d="M598.15,349.55h-.07C598.08,349.61,598.09,349.64,598.15,349.55Z"/><path class="cls-1" d="M593.81,346.58v.13l.08-.08Z"/><path class="cls-1" d="M597,349.35c.14.25.36.21.59.13a2.2,2.2,0,0,1-.56-.26C597,349.28,596.94,349.33,597,349.35Z"/><path class="cls-1" d="M595.87,347.34a2.64,2.64,0,0,0,.15.55C596,347.64,596,347.23,595.87,347.34Z"/><path class="cls-1" d="M598.11,349.35h0C598.17,349.19,598.14,349.25,598.11,349.35Z"/><path class="cls-1" d="M598.11,349.35a1.76,1.76,0,0,0-.5.13,1.49,1.49,0,0,0,.47.07A.69.69,0,0,1,598.11,349.35Z"/><path class="cls-1" d="M590.51,349.24a.78.78,0,0,1,1.1-.13.77.77,0,0,1,.29.55c.74,0,1.61-1.79,1.88-3-.17.19-.32.38-1,.3,0,.38.6,1.4-.13,1.52-.83-.24-.4-.56-.51-1-.2.79-1.46.21-2,1.17l.79.15C590.82,349,590.46,349,590.51,349.24Z"/><path class="cls-1" d="M594.64,347.44l.24.08a2.27,2.27,0,0,1-.18-1.15,1,1,0,0,0-.84.26l.9.78Z"/><path class="cls-1" d="M595.76,348.18c-.54.41-1.17.27-1.3,1.05.6.4.72-.13,1.23-.09-1-.57.48-.09,0-.89a1.82,1.82,0,0,1,.6.23,3.27,3.27,0,0,1-.3-.59v.05h0V348h0a1.45,1.45,0,0,1-.18.17c-.19-.31.06-.17.18-.17a.23.23,0,0,0,.07-.07h0l-1.13-.42A2.29,2.29,0,0,0,595.76,348.18Z"/><path class="cls-1" d="M598.75,354.16a.38.38,0,0,1,0-.15C598.69,354,598.64,354.07,598.75,354.16Z"/><path class="cls-1" d="M598.55,353.57c.12,0,.32-.21.52,0s-.17.26-.27.45c.24-.06.75-.08.47-.62h-.12a2.15,2.15,0,0,1-.23-1.47A4.89,4.89,0,0,0,598.55,353.57Z"/><path class="cls-1" d="M597,351l-1-.3.09.74.17-.29C596.64,351.58,596.78,351.17,597,351Z"/><polygon class="cls-1" points="593.92 346.26 594.44 345.8 593.41 346.23 593.92 346.26"/><polygon class="cls-1" points="592.88 345.56 593.28 345.12 592.8 345.2 592.88 345.56"/><path class="cls-1" d="M526.89,322.93l-.27.19A1,1,0,0,0,526.89,322.93Z"/><path class="cls-1" d="M528.89,322.84v-.29C528.84,322.71,528.81,322.84,528.89,322.84Z"/><path class="cls-1" d="M567.81,325.72c-.06-.72,0-1.71-.35-1.11l-.23.62A.73.73,0,0,1,567.81,325.72Z"/><path class="cls-1" d="M545.88,320.68a1.8,1.8,0,0,0,.08.21c.15-.19.28-.38.41-.55Z"/><path class="cls-1" d="M545,323.26l-.44-.51A2,2,0,0,0,545,323.26Z"/><path class="cls-1" d="M516.15,325.22l-.17.71C516.47,325.83,516.18,325.55,516.15,325.22Z"/><path class="cls-1" d="M582.68,337.39a2,2,0,0,0-.44-.89C582.33,337.07,582.24,337.73,582.68,337.39Z"/><path class="cls-1" d="M527.22,316a.49.49,0,0,0-.23.41C527.17,316.26,527.27,316.12,527.22,316Z"/><path class="cls-1" d="M581.42,335.81a.4.4,0,0,0,.05.24,1.67,1.67,0,0,1,.77.45C582.16,336.07,582,335.7,581.42,335.81Z"/><path class="cls-1" d="M479.21,341h-.12C479.13,341.09,479.16,341.07,479.21,341Z"/><path class="cls-1" d="M465.47,342.35a3.09,3.09,0,0,1,.39-.33C465.76,342,465.63,342.13,465.47,342.35Z"/><path class="cls-1" d="M588.49,345a.47.47,0,0,0-.29.18A.68.68,0,0,1,588.49,345Z"/><path class="cls-1" d="M576.72,337.17h0C576.69,337.3,576.69,337.28,576.72,337.17Z"/><path class="cls-1" d="M589.24,342.62a1.66,1.66,0,0,0-.14-.37A1.28,1.28,0,0,0,589.24,342.62Z"/><path class="cls-1" d="M589.39,342.35l.14.2C589.63,342.49,589.65,342.42,589.39,342.35Z"/><path class="cls-1" d="M588.81,341.92a1.32,1.32,0,0,1,.29.33v-.12Z"/><path class="cls-1" d="M497.67,329h-.08C497.45,329.34,497.54,329.25,497.67,329Z"/><path class="cls-1" d="M557.22,328c.7-.55.86-.35,1-.06l.56-1.82Z"/><path class="cls-1" d="M522.12,323.63l.73.5c-.65,1.05-1.25.79-.54,1.53-.19-2,2.45-.52,2.32-2.56l.47.39c-.12,0-.13.11-.25.1.93.9.47-1.52,1.6-1.32.39.12.68.39.44.66l.8-.58a.18.18,0,0,1,0,.36h0l1.28-.22v.06a6.67,6.67,0,0,1,.77-1.06c.34.28-.16.22-.07.47l.71-.52c.3.51-.28,1.05-.77,1,.73,2,.58-.57,2,.62l-.67.26c.45,1.16,1,.74,1.69,1.46-.16-.38-1.49-1.82-.73-2.32.22.15.5.22.92-.19,0,.73.41.55.91.51l-.05,1c.55-.25.52-.74.85-1.16.61.12.71.87.82,1.5.95.2-.62-1.21.54-1.35.8.39,1.38.07,2.41-.42.54.38-.16.58,0,.87l.58-.72c.12,0,.06.26,0,.38.45-.26.13-.95.83-1.15.32-1,1.19,1.72,2.17.65.17.29-.18.56-.17.94a8,8,0,0,0,2.16-1.29l.68.77c-.45-.82.45-1.52,1.28-2.07a7.39,7.39,0,0,0-.36-.88c.39-.1.8-.21,1.2-.29.09.19-.09.48-.35.83l.25-.18c.3.44,0,.93-.4,1.39l-.26-.66a3.74,3.74,0,0,0-.82,1.67.75.75,0,0,1,.4-.19.7.7,0,0,0-.17.37c0,.11.17-.08.39-.29v1.1l.15-.4,1.17,1c.6-.41,1.22-.94,1.9-1.38a4,4,0,0,1,2.26-.68c-.62.63-.46,1.19-.76,2.07-.13-1.06-1.28,0-2-.36.39.2.17.61,0,.73l1.62-.45c-.25.72.13.64.39,1.05.18-1.52,1.34-.66,2-.86-.13.49-.44.92-1.06.56.36,1.34,1.54-1.31,2-.13-.17-.05-.23-.16-.38.06.54-.28,1.36.4,1,.73l-.17-.05c1,.56,3.23,1.38,4,.3a17.48,17.48,0,0,1-1,1.53c1.22-1,2.48-1.95,3.79-2.89-.66.89-1.23,3.54-2.36,3.65a1,1,0,0,0,1.08.5c-.09-.22.31-1.62.59-1.59a7.32,7.32,0,0,0,.42,2.12c-.14-.34,1-1.71,1.35-1.41-.19.19-.81,1.49-1,1.57l1.8-.89c-.39.12-.76,1.21-.79,1.75.07-.34.81.52,1.15.53l-.2-.58c.94.87,2.34-1.39,3.37-.57-.32.2-1.49,1.58-1.07,2.11.71-.56,3.4-2.71,4.77-2.59l-.09.53,1.05.08a47.85,47.85,0,0,1-5.32,2.52c.17.59-.22.55.39.91,0,.52-.71.37-.9.27L566,334.5c.53-.88,1.6-.08,2.05-.8-.69-.08-1.38-.16-2.07-.19.51-.88,2.51-1.76,3.37-.88,0,.5-1.24,1.31-1.42,1.6.33-.19,1.3.13,1.24.39l-.72.14c.29.69,1.66-.43,1.72.8.18.23-.15,1.54.25,1.1a14.06,14.06,0,0,1,3.22-4.56,8.4,8.4,0,0,1,.39,2.43c-.2,1-1.87,1.26-2.05,2.11a1.47,1.47,0,0,1,.75-.34c.08.37-.63.6-.06.89.72-.73.95.86.78-.49.66.16.38.57,1,1a3,3,0,0,1,2.6-1.15,1.62,1.62,0,0,0-.35.69c.93.89,1.17,1.68,2.07,2.46-.08.26.17.86-.3,1,.25,0,.59-.19.89,0,0,1.13-.72-.43-1,.73.42-.42,1.26,0,1.9.05.47-.81-.82-.92-1.45-1a3.7,3.7,0,0,1,3.7-1c1,.4-.2.9.05.87,1.27,1.38,2.64-.66,3.22,1,0,1-1,1.24-1.28,1.78-.82-.29-.62-1.2-1.06-1.53l.27.73c-.37,0-.91-.16-1-.52-.07.88,2.31,2.14,3,3.57.36,0,.88,0,.93-.36l-.42-.2c.09-.77,1.23-.14,1-.75.76,0,1.74-.07,2.16.75l-.45.81c.15-.22-.09-.77-.45-.71.53-.09.23,1.79,1.29,1.1l-.06-.87c.76,0,2-.28,2.35.42.3-.93-.2,0,0-1.19-.46,1.32-1.45-1.24-1.74.3.35-1.29-.41-1-.29-2.26-.18.25-.18.61-.57.09a1.59,1.59,0,0,1-.27.12v0h0a1.06,1.06,0,0,1,0,.56c-.69.34-1.45-.33-1.94-.27-.2-.35.34-.16.39-.54l-.73.08c.39-.55,0-1.49.88-1.23l-.59-.53c-.11-.59-.51-1.13-1-1.17-.19-.36-1.21,0-.62-.24l-1.23-.5.1-.13c-.89-.87-2.68-.81-3-2.67a2.19,2.19,0,0,1-1.32-.86l.26-.54c-.55-.19-.89-1.5-1.46-1.18.55-1.59-1.86-2-2.45-2.77l-.5.58a5.14,5.14,0,0,0-2-1l-.37.57c-.9,0-1.19-1.48-2.15-2.1.21-.16.41.07.48.31-.2-2.06-3-.76-3.37-2.36a.54.54,0,0,1-.62-.42h.08a.39.39,0,0,0-.1-.08,5.52,5.52,0,0,0-.16-.54,1.71,1.71,0,0,0,.1.5,2.81,2.81,0,0,0-.94-.31l.26-.68h-.08c-.16-.41-.43.15-.56.7a1.91,1.91,0,0,0-.63.13c.37-1.14-1-.14-.69-1.41-.52.4-1.77-.52-2.56.49.08-.15,0-.27.19-.18-.26-.32-.56-.62-1-.47l.29-.89-1.34.7c-.2-.73-.26-1.12.53-1.51-1.62.39-1.1-.12-2.52.38l.3-.51c-.36-.14-1.25.35-1.26-.19-.33-1.41-3.82-1.79-5.62-3.4-.11,1.79-.76-1.05-1.23.22,0-.43-.24-.75.2-1-1.19.05-1.49-1.08-2.53-.17,0-.44.38-.53.33-.8-.12.06-.44.26-.5,0s.24-.29.47-.42c-1.17-.22-1.57,1-1.91,2.14-.43-.7-.75-.65-1.31,0-.11-.43-.37-.89.36-.89-.38-.14-2.31-1-2.5-.09-.09-.26-.54-.15-.66-.06a8,8,0,0,0-1.82-.3l.22.18c-.49,1.11-.75.14-1.46.22v-.12c-1.52-1-.72.34-2.22-.75v.72c-.26,1.52-1.34-1-2.3-.45l.31.42c-.51.51-1.32-2.16-1.85-2.38-.11-.14.19-.21.35-.3-1.35-.94-.2.94-1.2,1.15-.19-.51.25-1.29-.43-1.39-.36-.4-2,1.62-2.9.72.22.38.43.76,0,1.07-.69.18-2-1.4-2.56-.12a.51.51,0,0,1-.15-.3c-.52.37-1.71.68-2,1.38-.76-2.47-3.16,1.58-3.43-.7-.55.11-1.09.22-1.63.36v-.23a1.62,1.62,0,0,0-1.62,1.23c-.27-.12-.13-.36-.13-.48-1.61-.19-1.75,0-2.78,1.34l-.29-.7c-.24.47-2.45-.63-3.72.58a.5.5,0,0,1,.08-.36c-1.41,1.27-4.57-.88-4.36,1.92l-.86,1c1.43-.24.16,1.18.86,1.43-.48.32-1.63-.33-1-.67l.14.09c-.2-1.43-1.85.09-2.12-.82-2.67,1-5.53,1.31-8,2.33l.72.88-.87.31c-.33-.13-.66-.66,0-.88-.58-.44-.81.94-.73,1.16-1.36.13-.06-1.38-.43-1.24l-.46.3.16.07c-.22.59,0,1-.8,1.32-.55,0-.52-.5-.72-.46,0-.07-.11-.07-.29.1l-1.1.43.8.57c-.28.62-1,.45-.1,1.09-1.38-1-4.12,1.46-4.76,1.28a2.8,2.8,0,0,1-1.78,1.58c.28.05.86.85.14,1.1-.73-1.89-1.64-.09-2.88-1,1,.56-1.77,1.28-.34,2-.63.18-.41-.63-1.06-.8-.91,1.44-3.14,1.27-4.59,2.49.11.24.59.42.46,1L476,334.7c-.24.3.53,1.46-.53,1,.2.14.5.35.34.55-3.8.89-5.63,4.95-10,5.09.7.13.46.37.16.6.27,0,.37.54.61.8l-1.83.08c.34,1-1.32,1-.89,1.89l.29-.43c.13,1.29,2.19,1.5,2.94,2.73-.15-1.46,2.64.44,2.56-1.72.38.09.08.5.38.7-.1-.68.12-1,.82-1.15V345c1.47-1.18,2.47-1.15,4.44-2l-.52-.51a1.27,1.27,0,0,1,.9,0c-.16-1.19-1.09.65-1.35-.6,1.29.86,2.68-1.74,3.91-.58.59-.36-.61-.58,0-.95l.4.28-.16-.58a1.08,1.08,0,0,1,1.14.49c-.12,0-.21.26-.29.35.77.13,1.3-1,1.57-1l-.71.12c1.38-1.36,3.64-2,4.76-3.74l-.29-.22c.91-1.23,1.15-.24,2.34-1.24v.09a1.37,1.37,0,0,1,.77-.95c-.15.53,1,.32.77.95,1-1.31.4-.82.69-2.4l.47.39c.06-.6,0-.85.58-1.33-.34.71.83.53.49,1.41,2,.34,1.56-2.19,3-.91,0-1.71-1.63-.16-1.4-.64-.54-.29,0-1.29.56-1.38s1.64,1.38,2.78.81c-.12.05-.08.16-.19.2.6.16.62-.87,1.42-.53-.08-1,.72-.27.32-1.39l-1,.74c.47-.55.47-2.11,1.77-1.92a2.31,2.31,0,0,1-.29.92c.43.19.47-.46.92-.26.39,1.12-1.21.8-1.48,1.93.52.32.87-1.34,1.07,0-.19-1.71,1.23-.3,1.53-1.79l.22.68c.09-.16.22-.58.45-.66l-.06,1c.34-1,1.5.11,2-.52-1.28.53-.61-.68-1.36-1,1.27-1.51,1.62,1.37,3.27.36-.2.18-1.06-.05-.8-.5a2,2,0,0,1,1.28.36c1.14-.57-.43-.62-.07-1.21.7.66.46-.55.9-1l.25.68c1.52,0-.14-1.57,1.3-1.45l-.21,1.12.57-.45.13.82c.51-.81.78-.73,1.54-.73a1,1,0,0,1,.16-1.4l.15-.1c.54.29,0,.72.81.37-.07.5-.12,1.09-.69.57a3.05,3.05,0,0,0,0,.74c.59.31,1.15-.22,1.47-.33a.54.54,0,0,1-.39-.06l1-1.33c.27.21.17.46.07.71.23-.14.32-.52.69-.68,0,.59.23,1.17-.22,1.59.34-.32.68-.66,1-1,.14.23.79.53.69.78.74.18,1.35-1.53,2.35-1.27a.54.54,0,0,1,.27-.37c.87,0,1.74.5,2.59-.47l.75.94c.74-.37-1-1.18.25-1.79.87-.49.49.83.86,1.06.37-.61,1-1.8,2-1C522.62,323.64,522.37,323.52,522.12,323.63Zm9.76-1.19c-.19.15-.56.62-.71.2C531.38,321.81,531.55,322.2,531.88,322.44Zm15.15-.07c-.2.2-.38,0-.57-.3a.66.66,0,0,1,.54.3Zm39.44,18.31h0c-.2-.49-.15-.3,0,0Zm.5.84a.29.29,0,0,0,.23-.21c-.17.1-.34,0-.48-.21-.07.19-.07.36.28.42Zm-94-15.71.25.09c-.28.36-.22.1-.22-.09Z"/><path class="cls-1" d="M545.14,323a1.34,1.34,0,0,1,0-.4.27.27,0,0,0,0,.38Z"/><path class="cls-1" d="M572.08,337.09a.84.84,0,0,1-.05-.52C571.92,336.7,571.89,336.87,572.08,337.09Z"/><path class="cls-1" d="M591.47,343.64l-.57-.21c.24.14.22.33.26.51C591.25,343.8,591.32,343.54,591.47,343.64Z"/><path class="cls-1" d="M592.7,350.29c.12,0,.15.11.27.08l.19-.28C592.85,349.89,592.48,350,592.7,350.29Z"/><path class="cls-1" d="M590.38,345.85c-.35.5.07.57.46.74h-.06C591.41,346,590.89,345.9,590.38,345.85Z"/><path class="cls-1" d="M590.93,346.64a.73.73,0,0,1,.3.22C591.48,346.62,591.16,346.71,590.93,346.64Z"/><path class="cls-1" d="M588.12,342c0,.24.59-.52.51-.26C589.3,341.24,587,341.58,588.12,342Z"/><polygon class="cls-1" points="589.38 347.62 589.74 346.94 589.18 347.27 589.38 347.62"/><path class="cls-1" d="M587.19,345.13l.38.58a.28.28,0,0,1,.3-.08C587.57,345.35,587.33,345,587.19,345.13Z"/><path class="cls-1" d="M587.87,345.63a.63.63,0,0,0,.49.24A1.49,1.49,0,0,0,587.87,345.63Z"/><polygon class="cls-1" points="588.53 347.23 588.48 346.99 588.15 346.65 588.53 347.23"/><path class="cls-1" d="M581.85,340.43l-.7-.3c-.22.15-.17.39.1.49S581.77,340.69,581.85,340.43Z"/><path class="cls-1" d="M582.18,343.42a1.93,1.93,0,0,1,.13-.65l-.62.7Z"/><path class="cls-1" d="M580.43,342.21c-.22.16-1.28-.11-.54.44C580.11,342.5,580.8,342.81,580.43,342.21Z"/><polygon class="cls-1" points="572.8 334.39 572.95 334.5 573.87 333.28 572.8 334.39"/><path class="cls-1" d="M563.06,331.91c.48.76.67-.68,1,.11.35-.19-.3-.65,0-.8C563.51,331.25,563.4,331,563.06,331.91Z"/><path class="cls-1" d="M564.13,331.22l.34-.05A.66.66,0,0,0,564.13,331.22Z"/><polygon class="cls-1" points="463.34 342.86 462.7 342.93 463.29 343.14 463.34 342.86"/><path class="cls-1" d="M463.13,344.41l-.68-.72.24.91C462.77,344.49,462.92,344.28,463.13,344.41Z"/><path class="cls-1" d="M533.31,324.4v-.23c-.07-.26-.19-.27-.43-.31Z"/><polygon class="cls-1" points="526.31 323.93 526.43 323.94 526.13 323.08 526.31 323.93"/><path class="cls-1" d="M520.62,325.78c.24,0,.48-.25.73-.25C520.86,325.77,520.38,324.7,520.62,325.78Z"/><path class="cls-1" d="M607.54,293.24c.23-.16-.28-.54-.33-.65C607,293,607.66,293.34,607.54,293.24Z"/><polygon class="cls-1" points="605.39 297.41 605.26 297.17 605.25 298.08 605.39 297.41"/><path class="cls-1" d="M602.5,300.39c1,.46.92-1.2,1.7-1.47l.27.08-.39-.84C603.55,298.91,603.15,300.14,602.5,300.39Z"/><path class="cls-1" d="M599.29,300.43c.4.18-.06.6.45-.29h-.14A1.42,1.42,0,0,1,599.29,300.43Z"/><path class="cls-1" d="M598.39,301.79l.13-.68c-.27-.08-.66.26-.66,0C597.6,301.68,597.87,301.76,598.39,301.79Z"/><path class="cls-1" d="M598.59,302.72l.09-.33C598.57,302.36,598.49,302.39,598.59,302.72Z"/><path class="cls-1" d="M598.87,301.7l-.19.69c.19.06.45.29.11-.29C599,302.35,598.85,302.05,598.87,301.7Z"/><path class="cls-1" d="M599.24,301.55c.39-.08.78-.29.66.39C600.54,301,599.88,300.64,599.24,301.55Z"/><path class="cls-1" d="M603.16,301.31l.52-.1v-.51C603.68,301,602.89,301.1,603.16,301.31Z"/><path class="cls-1" d="M595.55,304.07c.15.18.58.26.83.43l.09-.49C596.21,304.06,595.82,304.27,595.55,304.07Z"/><path class="cls-1" d="M596.38,304.5l-.14.73C596.66,304.84,596.59,304.64,596.38,304.5Z"/><polygon class="cls-1" points="599.4 303.6 599.51 302.27 599.27 303.75 599.4 303.6"/><polygon class="cls-1" points="593.9 305.86 593.74 305.24 593.91 306.25 593.9 305.86"/><path class="cls-1" d="M592.89,307.12c-.15-.49-.79-.22-.81-.61a2.46,2.46,0,0,0-.17,1.39C592,307.51,592.3,307.25,592.89,307.12Z"/><path class="cls-1" d="M591.9,308.65a3.14,3.14,0,0,0,0-.75A1.59,1.59,0,0,0,591.9,308.65Z"/><path class="cls-1" d="M595.43,306a1,1,0,0,0-.82-.06l.64.24Z"/><path class="cls-1" d="M595.27,306.15h0l-.39.38Z"/><path class="cls-1" d="M595.47,305.92h0C595.49,306,595.52,306,595.47,305.92Z"/><path class="cls-1" d="M597.85,304.44c0,.51-.23,1.35.68,1.16C598.39,305.11,597.87,305.22,597.85,304.44Z"/><path class="cls-1" d="M596.28,306.22l.56-.4c-.14-.1-.4-.18-.41-.44Z"/><polygon class="cls-1" points="596.21 306.6 596.28 306.22 596.07 306.37 596.21 306.6"/><path class="cls-1" d="M593.12,308.18a1.48,1.48,0,0,1-.39,1,4.1,4.1,0,0,0,.92-.74C593.54,308.22,593.38,307.86,593.12,308.18Z"/><path class="cls-1" d="M594.21,307.23v.07S594.29,307.3,594.21,307.23Z"/><path class="cls-1" d="M590.38,311.79h.13l-.07-.08Z"/><path class="cls-1" d="M593.78,308.43c.29-.14.29-.37.25-.62a2.83,2.83,0,0,1-.38.59C593.7,308.48,593.74,308.52,593.78,308.43Z"/><path class="cls-1" d="M591.47,309.59a3,3,0,0,0,.59-.15C591.81,309.42,591.38,309.43,591.47,309.59Z"/><path class="cls-1" d="M594,307.26v-.05C593.84,307.19,593.89,307.22,594,307.26Z"/><path class="cls-1" d="M594,307.26a1.69,1.69,0,0,0,0,.55,1.78,1.78,0,0,0,.16-.51Z"/><path class="cls-1" d="M592.77,315.31a.84.84,0,0,1,0-1.19.82.82,0,0,1,.57-.24c.1-.78-1.65-1.76-2.84-2.06.18.19.36.35.18,1.08.4,0,1.55-.61,1.58.17-.35.86-.63.4-1.15.51.8.22.07,1.55,1,2.13l.22-.83C592.49,315,592.51,315.37,592.77,315.31Z"/><path class="cls-1" d="M591.39,310.91l.13-.25a2.46,2.46,0,0,1-1.23.17,1,1,0,0,0,.15.91l.95-1Z"/><path class="cls-1" d="M592.33,309.73c.34.59.11,1.27.9,1.43.5-.63,0-.78.08-1.32-.74,1.07,0-.52-.92-.07a2.56,2.56,0,0,1,.34-.63,4,4,0,0,1-.67.3h.06c.1,0,.15,0,.07.05h0a.9.9,0,0,1,.14.2c-.35.19-.17-.07-.14-.2s0-.06-.07-.08h0l-.59,1.21A3,3,0,0,0,592.33,309.73Z"/><path class="cls-1" d="M599.1,307.05a.31.31,0,0,1-.1-.05C599,307.09,599,307.15,599.1,307.05Z"/><path class="cls-1" d="M598.45,307.18c0-.13-.14-.36.11-.54s.23.2.4.34c0-.25.09-.79-.53-.58v.13c-.52.24-1.57.2-1.57.07A5,5,0,0,0,598.45,307.18Z"/><path class="cls-1" d="M595.49,308.58l-.49,1h.79l-.27-.2C596,309,595.63,308.81,595.49,308.58Z"/><polygon class="cls-1" points="590.06 311.67 589.64 311.11 589.96 312.21 590.06 311.67"/><polygon class="cls-1" points="589.19 312.78 588.78 312.35 588.81 312.86 589.19 312.78"/><path class="cls-1" d="M533.26,368.65l-.28.25A1.12,1.12,0,0,0,533.26,368.65Z"/><path class="cls-1" d="M535.58,368v-.3C535.49,367.9,535.48,368,535.58,368Z"/><path class="cls-1" d="M566.32,338.15c-.72-.07-1.68-.32-1.17.11l.56.36A.8.8,0,0,1,566.32,338.15Z"/><path class="cls-1" d="M551.34,356.37l.22.09a3.79,3.79,0,0,0-.11-.7C551.42,356,551.38,356.16,551.34,356.37Z"/><path class="cls-1" d="M552.61,358.77h-.76A1.94,1.94,0,0,0,552.61,358.77Z"/><path class="cls-1" d="M520.61,371.91l-.29.71C520.92,372.54,520.61,372.24,520.61,371.91Z"/><path class="cls-1" d="M579.92,323.71a2.14,2.14,0,0,0-.95.48C579.57,324.08,580.25,324.16,579.92,323.71Z"/><path class="cls-1" d="M532.22,361.76a.45.45,0,0,0-.14.45C532.23,362.05,532.3,361.9,532.22,361.76Z"/><path class="cls-1" d="M578.22,325l.25-.06a1.94,1.94,0,0,1,.5-.79C578.53,324.26,578.14,324.45,578.22,325Z"/><path class="cls-1" d="M475.46,359.44v-.12C475.36,359.38,475.4,359.41,475.46,359.44Z"/><path class="cls-1" d="M469,346.09a2.21,2.21,0,0,1,.45.3C469.43,346.29,469.3,346.19,469,346.09Z"/><path class="cls-1" d="M588.15,317.44a.45.45,0,0,0,.16.3A.59.59,0,0,1,588.15,317.44Z"/><path class="cls-1" d="M579.27,329.94h0C579.4,330,579.38,330,579.27,329.94Z"/><path class="cls-1" d="M585.78,316.69a2,2,0,0,0-.4.16A1.4,1.4,0,0,0,585.78,316.69Z"/><path class="cls-1" d="M585.51,316.53l.22-.15C585.67,316.28,585.6,316.26,585.51,316.53Z"/><path class="cls-1" d="M585,317.17a1.22,1.22,0,0,1,.36-.32h-.12Z"/><path class="cls-1" d="M498.63,369.51a.22.22,0,0,1-.05-.08C498.2,369.62,498.35,369.61,498.63,369.51Z"/><path class="cls-1" d="M565,349.47c-.21-.9.06-1,.42-1.12l-1.53-1.13Z"/><path class="cls-1" d="M527.73,370.18l.89.42c-.73,1.13-1.49.93-.59,1.6-.31-2,3-.88,2.61-2.89l.61.29c-.15,0-.14.14-.29.15,1.22.7.37-1.58,1.67-1.64.48,0,.86.22.63.54l.83-.77c.29,0,.32.31,0,.36l1.42-.59v.06a8.71,8.71,0,0,1,.59-1.28c.46.16-.12.27.06.48l.64-.74c.49.38,0,1.1-.59,1.22,1.41,1.67.5-.71,2.53-.16l-.68.51c.89.91,1.36.33,2.49.63-.35-.24-2.39-1-1.69-1.83a1,1,0,0,0,1-.58c.27.67.66.32,1.21.05l.33.9c.52-.51.28-.94.47-1.48.71-.21,1.15.39,1.58.88,1.15-.37-1.25-.73,0-1.49,1-.09,1.53-.73,2.29-1.8.76,0,.16.57.51.7l.18-1c.14-.05.21.18.24.3.31-.51-.42-.87.16-1.47-.34-1,2.18.5,2.42-1,.36.11.21.56.47.84a6.27,6.27,0,0,0,1-2.6h1.13c-1-.22-.71-1.39-.51-2.41-.4-.14-.73-.27-.93-.32l.66-1.11c.21.05.31.38.38.82a1.61,1.61,0,0,0,0-.31c.56,0,.7.62.76,1.23-.22-.06-.46-.14-.69-.22a3.58,3.58,0,0,0,.61,1.76.78.78,0,0,1,.18-.44.43.43,0,0,0,.15.37c.09,0,.07-.19.09-.5l.85.7-.19-.38,1.71-.41c.27-1.58.09-3.41,1.18-4.87.15.89.73,1.05,1.3,1.79-1-.45-.83,1.2-1.7,1.63a.41.41,0,0,1,.57.15.35.35,0,0,1,.06.24c.26-.58.53-1.15.77-1.74.45.61.63.21,1.17.18-1.2-1,.33-1.56.56-2.35.35.36.56.86-.16,1.29,1.44.29-.23-2.1,1.07-1.95-.15.14-.28.15-.17.4.06-.65,1.16-1.12,1.25-.61l-.15.14c1.14-.72,3.06-2.72,2.35-3.78a13.48,13.48,0,0,1,1,1.5c-.37-1.59-.75-3.17-1.17-4.76.6.95,3,2.3,2.58,3.51a1.26,1.26,0,0,0,1-1c-.27,0-1.48-.78-1.34-1,1.43.32.86.08,2.31.14-.4.06-1.33-1.43-.92-1.74.12.24,1.21,1.19,1.19,1.44l-.25-2.09c0,.44,1,1.06,1.5,1.2-.33-.14.8-.76.93-1.12l-.66.1c1.2-.84-.67-2.68.39-3.62.13.37,1.23,1.81,1.9,1.44-.39-.85-2-4-1.58-5.31l.52.17.26-1.08a28,28,0,0,1,1.45,5.85c.66-.12.52.29,1-.32.53.12.2.81,0,1l1.53-1.16c-.78-.64.27-1.74-.39-2.26l-.66,2.19c-.78-.64-1.24-2.83-.2-3.66.52,0,1.13,1.42,1.39,1.63-.13-.36.38-1.38.64-1.3v.78c.78-.28-.15-1.79,1.16-1.79.26-.18,1.58.21,1.18-.23a12.75,12.75,0,0,1-4.27-3.59,9.86,9.86,0,0,1,2.54-.3c1,.24,1.08,2,1.93,2.22a1.4,1.4,0,0,1-.25-.8c.39-.07.54.68.92.08-.68-.78,1-1-.42-.83.24-.7.64-.39,1.15-1-.66-.25-1.18-2-.94-2.73a1.5,1.5,0,0,0,.68.36c1-1,1.84-1.23,2.71-2.19.27.07.91-.2,1.06.3,0-.26-.15-.62.09-.94,1.18,0-.49.76.7,1-.41-.43.07-1.32.17-2-.8-.48-1,.87-1.1,1.54a3.76,3.76,0,0,1-.83-3.86c.48-1,.93.19.91-.07,1.51-1.37-.52-2.75,1.28-3.41,1,0,1.22,1,1.76,1.3-.35.87-1.27.68-1.64,1.15l.77-.3c0,.39-.22,1-.61,1.05.92.06,2.36-2.48,3.9-3.22,0-.39.08-.93-.31-1l-.24.45c-.79-.09-.07-1.29-.71-1,.1-.8,0-1.83.94-2.3l.81.48c-.22-.16-.82.1-.78.48,0-.56,1.88-.26,1.26-1.37l-.92.07c.1-.81-.1-2.07.67-2.5-.93-.32,0,.21-1.24-.05,1.34.49-1.43,1.56.15,1.86-1.32-.36-1.08.44-2.39.34.24.18.62.17,0,.6a1.42,1.42,0,0,1,.1.29h0a1.14,1.14,0,0,1,.58,0c.3.72-.45,1.54-.42,2-.38.22-.15-.35-.54-.4v.78c-.55-.41-1.57.08-1.22-.91l-.6.64a1.58,1.58,0,0,0-1.28,1.09c-.38.21-.12,1.27-.28.65l-.59,1.3-.14-.1c-1,.95-1,2.83-2.93,3.16a2.48,2.48,0,0,1-1,1.38l-.53-.28c-.24.57-1.6.92-1.31,1.5-1.59-.59-2.15,1.85-3,2.42l.54.54a5.79,5.79,0,0,0-1.18,2l.53.41c-.11.93-1.66,1.09-2.43,2-.13-.24.13-.4.39-.46-2.08,0-1.27,2.92-3,3.08a.54.54,0,0,1-.54.54h0a.11.11,0,0,0,0-.08l-.1.09-.56.06a1.51,1.51,0,0,0,.52,0,3,3,0,0,0-.51.88l-.62-.4,0,.08c-.44.06,0,.44.56.69a1.78,1.78,0,0,0,0,.65c-1-.62-.41,1-1.56.35.25.62-1,1.61-.26,2.66-.12-.11-.26-.09-.12-.23-.4.17-.79.35-.81.86l-.76-.54.2,1.51c-.78,0-1.16-.12-1.25-1-.2,1.7-.49,1-.58,2.55l-.36-.47c-.28.28-.22,1.29-.72,1.08-1.39-.25-3.39,2.8-5.8,3.39,1.43,1.08-1.3.05-.52,1.15-.36-.24-.75-.23-.69-.73-.65,1-1.74.51-1.66,1.9-.36-.25-.18-.63-.41-.76,0,.13-.08.5-.32.37s-.07-.37,0-.62c-.87.72-.22,1.82.41,2.84-.81-.11-1,.12-.89,1-.4-.2-.91-.34-.4-.87-.37.19-2.36.88-1.87,1.72-.24-.14-.51.25-.55.39a8.05,8.05,0,0,0-1.64.93h.29c.28,1.18-.5.63-1.07,1.08v-.11c-1.86,0-.45.69-2.33.61l.41.6c.54,1.46-1.72-.2-2.31.73l.48.23c-.26.73-2.17-1.32-2.7-1.33-.15-.08.08-.26.18-.41-1.56-.35.21.93-.63,1.51-.36-.4-.27-1.29-.91-1.13-.42-.24-1.23,2.21-2.42,1.59.32.31.64.61.29,1-.64.4-2.28-.83-2.54.54a.49.49,0,0,1-.21-.26c-.43.46-1.56,1-1.72,1.72-1.09-2.3-3.08,2-3.58-.27l-1.64.45v-.24a1.74,1.74,0,0,0-1.66,1.28c-.27-.12-.13-.36-.13-.48-1.65-.21-1.78-.09-2.94,1.24l-.25-.71c-.3.51-2.44-.87-3.88.18a.51.51,0,0,1,.13-.35c-1.67,1.1-4.38-1.68-4.8,1.09l-1.12.77c1.53.08-.14,1.19.51,1.59-.6.21-1.59-.77-.87-.92l.12.14c.18-1.42-1.86-.46-1.83-1.42a9.37,9.37,0,0,1-1.06,0,5.24,5.24,0,0,1-1-.14,19.65,19.65,0,0,1-2-.4l-3.85-1.13,0,1.14-.9-.28c-.17-.3-.1-.9.52-.71-.17-.68-1.19.26-1.28.48-1.12-.79.83-1.09.45-1.24a2.33,2.33,0,0,1-.53-.06l.08.16c-.53.3-.71.74-1.45.45-.42-.37,0-.73-.21-.83,0-.07,0-.12-.28-.12a8.21,8.21,0,0,1-1.05-.47l.13,1c-.63.21-1-.46-.85.67-.12-.87-1.09-1.39-2.07-1.81s-1.95-.79-2.07-1.11a2.7,2.7,0,0,1-2.37-.64c.12.27-.23,1.19-.88.7.62-.8.41-1.17.06-1.52a1.76,1.76,0,0,1-.7-1.53c0,1.11-2-1-2,.66-.48-.48.36-.66.19-1.32-1.74-.21-2.61-2.31-4.34-3.24-.18.19-.14.71-.72.79l-.07-1.67c-.38-.13-1.18,1-1.21-.15-.05.24-.13.6-.39.51-2.33-3.31-6.95-4-8.54-8.39.1.74-.21.55-.55.31.14.26-.41.5-.59.81l-.68-1.81c-.86.58-1.44-1.07-2.17-.44l.52.19c-1.25.44-.79,2.56-1.77,3.62,1.41-.5.43,2.77,2.58,2.15,0,.41-.47.21-.56.57.64-.28,1-.13,1.43.55L468,352c1.71,1.17,2,2.21,3.62,4l.3-.67a1.61,1.61,0,0,1,.36.91c1.11-.5-1.08-.91.06-1.53-.36,1.55,2.78,2.17,2.18,3.75.62.47.3-.8.92-.32l-.1.48.5-.35a1.11,1.11,0,0,1,0,1.3c-.07-.11-.34-.13-.47-.18.22.83,1.63,1,1.72,1.23l-.46-.66c2,.91,3.83,2.88,6.08,3.22l.05-.37c1.68.3.89,1,2.53,1.63h-.09a1.72,1.72,0,0,1,1.36.22c-.58.13.37,1.07-.35,1.17,1.85.24,1,0,2.58-.62v.61c.58-.29.72-.51,1.56-.27-.85.13.15,1-.85,1.23,1.18,1.94,3,0,3.11,2,1.36-1.12-1.17-1.39-.6-1.52-.17-.61,1.08-.8,1.54-.45s.2,2.25,1.69,2.67c-.15,0-.19.05-.34,0,.43.55,1.23-.17,1.71.66.62-.77.85.31,1.28-.82-.48,0-.93-.08-1.39-.12.83,0,1.88-1.22,2.93-.28a2.23,2.23,0,0,1-.88.54c.28.42.75-.06,1.05.38-.37,1.12-1.7-.12-2.75.52.25.62,1.79-.45,1,.71,1-1.45,1.45.56,2.72-.44l-.2.69c.19-.08.59-.36.88-.3l-.71.83c1-.65,1.53.93,2.43.63-1.73-.24-.27-.91-.91-1.53,2.16-.65.94,2.07,3.4,1.89-.34.08-1.19-.51-.65-.8a2.9,2.9,0,0,1,1.28.87c1.6,0-.21-.74.48-1.14.5.91.78-.31,1.44-.61v.72c1.78.42.43-1.52,2-1l-.62,1,.82-.28-.13.83a1.88,1.88,0,0,1,2-.35,1,1,0,0,1,.48-1.33,1,1,0,0,1,.25-.08c.54.39-.22.71.81.52-.19.47-.41,1.06-.91.44,0,.23-.2.47-.23.7.58.45,1.37,0,1.75,0a.7.7,0,0,1-.42-.13l1.42-1.13c.26.25.09.48-.07.71.3-.1.47-.45.92-.56-.06.59,0,1.2-.58,1.54L517,372c.12.24.82.61.66.84.85.25,1.84-1.36,3-1a.74.74,0,0,1,.35-.37c1,0,2,.56,3.08-.42l.86.93c.88-.42-1.14-1.13.33-1.82,1-.55.57.8,1,1,.45-.63,1.17-1.87,2.35-1.23C528.32,370.14,528,370,527.73,370.18Zm11.15-3.64c-.16.21-.43.8-.74.46,0-.87.29-.56.74-.46Zm14.62-10c0,.29-.27.35-.66.29a.81.81,0,0,1,.66-.31Zm30.06-36.85h0c-.56.2-.32.14,0,0Zm.9-.55a.26.26,0,0,0-.19-.24c.09.17,0,.35-.26.51.19,0,.38,0,.45-.29ZM497,364l.11.23C496.64,364.26,496.81,364.12,497,364Z"/><path class="cls-1" d="M552.47,358.49a1,1,0,0,1-.3-.27C552.17,358.37,552.25,358.49,552.47,358.49Z"/><path class="cls-1" d="M520.67,371.78h0v0Z"/><path class="cls-1" d="M578.68,334.83a.94.94,0,0,1-.55.05C578.26,335,578.43,335,578.68,334.83Z"/><path class="cls-1" d="M587,314.3l-.28.61c.18-.26.37-.24.56-.28C587.19,314.53,586.92,314.46,587,314.3Z"/><path class="cls-1" d="M594.1,313.06c0-.13.12-.16.12-.29l-.27-.2C593.7,312.88,593.72,313.27,594.1,313.06Z"/><path class="cls-1" d="M589.25,315.44c.49.36.6-.08.81-.49V315C589.45,314.35,589.35,314.89,589.25,315.44Z"/><path class="cls-1" d="M590.11,314.85a.84.84,0,0,1,.27-.32C590.16,314.27,590.21,314.61,590.11,314.85Z"/><path class="cls-1" d="M585,317.9c.26-.06-.5-.62-.23-.55C584.34,316.66,584.53,319,585,317.9Z"/><polygon class="cls-1" points="590.99 316.49 590.32 316.11 590.61 316.7 590.99 316.49"/><path class="cls-1" d="M588.23,318.8l.63-.4a.29.29,0,0,1-.06-.32C588.49,318.4,588.05,318.67,588.23,318.8Z"/><path class="cls-1" d="M588.8,318.08a.76.76,0,0,0,.29-.52A1.48,1.48,0,0,0,588.8,318.08Z"/><polygon class="cls-1" points="590.51 317.38 590.26 317.43 589.88 317.78 590.51 317.38"/><path class="cls-1" d="M583,324.52l-.36.74c.14.23.4.17.52-.12S583.28,324.6,583,324.52Z"/><path class="cls-1" d="M586.14,324.1a.88.88,0,0,1-.66-.12l.68.64Z"/><path class="cls-1" d="M584.78,326c.14.23-.2,1.34.42.56C585.06,326.3,585.42,325.56,584.78,326Z"/><polygon class="cls-1" points="575.98 334.01 576.1 333.85 574.96 332.84 575.98 334.01"/><path class="cls-1" d="M571.34,344.14c.93-.41-.51-.82.42-1.1-.1-.41-.76.23-.82-.15C570.8,343.56,570.44,343.62,571.34,344.14Z"/><path class="cls-1" d="M570.94,342.89a2.29,2.29,0,0,0,0-.37A.77.77,0,0,0,570.94,342.89Z"/><polygon class="cls-1" points="467.82 344.07 467.55 343.45 467.53 344.09 467.82 344.07"/><path class="cls-1" d="M466.21,344.23l.5-.84-.83.46C466,343.9,466.27,344,466.21,344.23Z"/><path class="cls-1" d="M541.25,367.7v-.24c-.19-.2-.34-.16-.64-.08Z"/><polygon class="cls-1" points="532.75 369.79 532.89 369.76 532.4 368.99 532.75 369.79"/><path class="cls-1" d="M525.94,372.45c.3,0,.6-.28.9-.3C526.24,372.43,525.66,371.39,525.94,372.45Z"/><path class="cls-1" d="M486.19,344c.07,0-.55.14-.66.17A1.7,1.7,0,0,1,486.19,344Z"/><polygon class="cls-1" points="487.57 343.54 487.31 343.54 487.94 343.56 487.57 343.54"/><path class="cls-1" d="M487.53,343.68c1.07,0-.16-.06.23-.07h-.62C487.27,343.61,487.83,343.66,487.53,343.68Z"/><path class="cls-1" d="M485.92,343.67h.74A4.57,4.57,0,0,0,485.92,343.67Z"/><path class="cls-1" d="M488.62,343.72h0C488.76,343.7,488.29,343.71,488.62,343.72Z"/><path class="cls-1" d="M484.91,343.64l.87.08h-.25Z"/><path class="cls-1" d="M485.78,343.72h.36C486.19,343.76,486,343.74,485.78,343.72Z"/><polygon class="cls-1" points="487.39 343.8 486.6 343.72 487.39 343.81 487.39 343.8"/><polygon class="cls-1" points="484.87 343.65 484.38 343.59 485.12 343.68 484.87 343.65"/><path class="cls-1" d="M485,343.67l-.94-.12.73.1Z"/><path class="cls-1" d="M485.19,343.72l-.45-.07Z"/><path class="cls-1" d="M486,343.77l-.62-.06.61.07Z"/><path class="cls-1" d="M486.8,343.8c.34,0,.69.09,1.23.12Z"/><path class="cls-1" d="M486.79,343.85h.15l-.56-.06Z"/><polygon class="cls-1" points="486.98 343.88 486.79 343.85 486.74 343.85 486.98 343.88"/><path class="cls-1" d="M485.75,343.79h0Z"/><path class="cls-1" d="M485.94,343.79Z"/><path class="cls-1" d="M485.81,343.78Z"/><path class="cls-1" d="M485.81,343.78l.36.05H486Z"/><path class="cls-1" d="M489.71,344.56c-.66-.12-1.07-.22-.47-.14-.38-.09-2.15-.36-3.14-.52l.74.14a7.41,7.41,0,0,1,1.18.18c.24.07-.21,0-.5-.06l.82.16,1.11.22-.36-.09C489.25,344.47,489.54,344.54,489.71,344.56Z"/><path class="cls-1" d="M486.18,343.9h-.06l-.74-.11.62.12h.18Z"/><path class="cls-1" d="M486.14,343.87l1.46.23a6,6,0,0,0-.72-.13,3.43,3.43,0,0,0-.68-.09h-.38l.3.06C486.2,343.89,486.19,343.88,486.14,343.87Z"/><path class="cls-1" d="M489,344.06c-.09,0-.33,0-.26-.05l.5.05a6.17,6.17,0,0,0-.74-.07h.08c-.23,0-1-.07-1.09-.08Z"/><path class="cls-1" d="M487.67,344l.27.06.54.06h-.32C488.31,344.09,487.91,344.05,487.67,344Z"/><polygon class="cls-1" points="485.7 343.84 485.1 343.73 485.95 343.88 485.7 343.84"/><polygon class="cls-1" points="485.76 343.86 485.23 343.77 485.54 343.83 485.76 343.86"/><path class="cls-1" d="M485.41,343.6h-.06C485.27,343.59,485.32,343.59,485.41,343.6Z"/><path class="cls-1" d="M489,342.75h.19l-.59.1Z"/><path class="cls-1" d="M491.62,342.32l-.38.05Z"/><path class="cls-1" d="M494.09,343.45h.67A4.31,4.31,0,0,0,494.09,343.45Z"/><path class="cls-1" d="M485.67,343.94l-.31-.07Z"/><path class="cls-1" d="M485.35,343.86h0C485.15,343.82,485,343.79,485.35,343.86Z"/><path class="cls-1" d="M491.15,344.65h-.07C491.36,344.7,491.32,344.69,491.15,344.65Z"/><path class="cls-1" d="M491.68,343.05c-.83.08-.76.09-.48.11l-2,.08Z"/><path class="cls-1" d="M493.65,342.86l.59-.11a5,5,0,0,0,1.44,0c-2,.14-.19-.29-2.22-.1l.43-.09H494c.69-.13-.34,0-.89,0h-.32a3.74,3.74,0,0,1,.67-.1h-.55a1.09,1.09,0,0,1,.36,0l-.23-.06h.06l-1.06.1c.27-.05.22,0,.47-.06h-.54a4.19,4.19,0,0,1,1-.1c2-.31-.55,0,.54-.19h.3a10.36,10.36,0,0,0,1.34-.3c-.36.06-1.71.34-2.25.38.13,0,.19-.06-.24,0,.71-.11.51-.1.44-.1L494,342a10.3,10.3,0,0,0-1.24.17c.06,0,.78-.16,1.39-.26.09,0-1.13.2-1.38.21.31-.06-.12,0-.74.09l.84-.14-.79.13.37-.06-1.25.21c-1.05.18,1.44-.24.21,0l.94-.16-1.72.32.58-.08-2.29.38-.66.1-.48.09.74-.12h-.2l1.35-.22-.56.08,1.79-.29-.28.05.4-.07-.37.07,1-.16-.42.07.59-.05c-1.12.21-2.73.47-3.25.59l2.2-.3c-.95.11.47-.12.31-.13.08,0,.53-.06.69-.09l-1,.2a4.78,4.78,0,0,1,.84-.08,8,8,0,0,0-1.52.27,3.61,3.61,0,0,0,.92-.15c1.09-.1-1.79.27-.87.2h.2c-.46.07-.15.09.3,0h0c.12,0-.12.25-1.41.34l1.8-.14-2.18.21-1.79.15c.38,0,3.71-.12,4.06-.23s.54,0,.26.11-1.88,0-2,.05h2.27c-.36,0-2.44.06-2.37.09l2.43-.06-1.06.07-1.13.06H492c-.43,0,0,.12-.21.15l-.51-.06c.32.15-3.18.05-3.07.13.46,0,2.84.09,3.11.18l-5-.16h0l.8.06,1.26.07c1.29.07,2.56.1,3.27.09.51.09.77.06.69.15a2.41,2.41,0,0,0,1,0l.34.27c-1.32-.13-1.36.05-2.45-.08a13.36,13.36,0,0,0,1.41-.1,24.77,24.77,0,0,0-3.55-.1c.52.09,2.34.25,2.78.29-.46,0-.89,0-.57.08H492c.46.16-1.75-.11-.52.15.08,0,1.63.35.87.24s-2.22-.4-3.67-.63l-2.22-.35,1.16.28.72.14,1,.17c.65.1,1.29.2,1.77.31l-.91-.14c.3.08,1.07.19.91.22-1.27-.24.11.12-1.07-.19-.36,0,.26.1.2.15-.54-.13-1.7-.34-2.34-.47h0l-.38-.07.59.13c.18.07.76.22.83.24l1.17.28-.61-.14,1.38.32-1.31-.31c-1.07-.25-.27-.05.14,0l-2.81-.66.51.12c.26.05-1.66-.4-.89-.23l1.75.39c.2.06-.47-.08-.47-.08l.33.07c.2,0,.33.08.13,0l.35.07h.17a2.78,2.78,0,0,1,.57.07l-.86-.2h.07l-1-.22c-.35-.09-.93-.22-.59-.16l.79.15c-.23,0-.49-.09-.26,0-.34-.08,1.12.19.1,0L487,344c-.37-.09-1.2-.26-.93-.22l-.85-.15c1.16.22-.08,0,1.13.24l-1.37-.26.35.07h.22l.39.08c.57.12.52.12.81.19l-.56-.12.43.1-1.24-.27h-.22c-.12,0,.57.14.16,0l.3.08h-.13c-.08,0,.77.18-.16,0,.12,0,.26.06.11,0l-.42-.1c.13,0-.44-.1,0,0l-.22-.05h0c-.74-.17,0,0-.22-.08l.52.09h.31l.46.07c.37,0-.33-.1-.28-.12h0c-1-.13.75,0,0-.1h.05a10.85,10.85,0,0,0,1.23-.07h-.75l.89-.07a9.58,9.58,0,0,0-1.13,0l1.11-.12h-.43s.62-.07.27,0c-.82,0,0-.11-.75-.05,1.35-.17-.59.07.47-.08l-.79.11c.35-.06-.5.06.44-.09l-.69.11h.1l-.43.07,2.1-.34c-.45.07-.38.05.29-.06l-.79.13s-.41.05.41-.08h.19l.41-.07h-.11c-.68.12.39-.06-.41.08l.66-.11c1.42-.24-.78.13-.2,0l.37-.07c.52-.07-1.92.33-2.1.36h-.31c-.84.14.9-.14,1.14-.17l-1.32.21c-.4,0,1.64-.23.71-.08l1.06-.15c.17,0-1.43.23-.17.08h-.31l.87-.06h.39c-2.55.26,1.21,0-1.13.21h-.12a4.92,4.92,0,0,0,.94,0h-.49c-.48.06-.38,0,.74.08h-.75c.42,0-1.18.07-.35.11h-.32c.81.08-2.05,0,.54.13l.61.07c.24,0,1.11.08,1.55.09a3.62,3.62,0,0,1-.93,0h.13c-1.33-.11-.52,0-1.42-.06,0,.08-.79.05-.89.08l1,.13h-.08l-.7-.11c-.54-.08.42.08.63.12a7.72,7.72,0,0,1-1.12-.18h.17c.37.07.77.14.7.14l-.61-.1h-.14l.73.13a5,5,0,0,0,.75.15c-1.27-.22-.59,0-1-.1.47.12.43.12.34.12a6.49,6.49,0,0,1,.76.19c-1.5-.36-.71-.14-1.79-.41.71.18.1.06,1.11.3l-.9-.22c.5.16-.45-.09-.31,0l.7.2-.9-.25.37.11.41.12c-.48-.12-.36-.08-.36-.08h-.12l-.65-.2.31.09.53.16-.56-.18a3.74,3.74,0,0,0,.46.11h-.07l3.59,1c-1.65-.46,2.51.81.16.13l1,.31c-.79-.23-.94-.27-.57-.15l.2.05a6.56,6.56,0,0,0,1.21.39l-.88-.27.63.19-1.56-.47c1.79.55.16,0,2.16.6l-1-.3.54.16-.68-.21,1.25.35.15.06c.64.17-.16-.09.06,0l-.35-.08c-.41-.18.35-.05-.61-.39l-.39-.1c-.64-.22.48.08.22-.05h.09c-.37-.1-.54-.16-.48-.16.43.12.9.17,1.37.31a15.37,15.37,0,0,0-1.91-.52l.63.13a8.64,8.64,0,0,1-1-.26c.5.14,1,.18,1.64.36,1.43.2-1.25-.38.75,0a4.43,4.43,0,0,0-1.35-.21,4.25,4.25,0,0,1-1.05-.26c.07,0,2.22.38,2.24.3h.1c.45.05-.54-.15.18-.06-1-.19.09,0-1.2-.25l.24.11c-.31-.1-1.79-.36-1-.29l.76.15c.4,0-.22-.07.18,0,1.29.2.22.12,1.18.32.56.06-.88-.23.5,0-1.75-.3.27-.05-1.05-.3l.77.11a2.16,2.16,0,0,1-.44-.1l1,.16c-.82-.16.79,0,.35-.11,0,.11-.93-.09-1.51-.12-.95-.23,2,.18,1.73,0a2.32,2.32,0,0,1-.83,0,6.46,6.46,0,0,1,.88,0c-.11-.12-.78-.07-1.23-.15.94,0-.35-.08-.62-.14l.76.06c.54-.07-1.58-.16-.94-.2l1,.12-.26-.07.87.07c-.63-.1-.45-.11-.19-.15a9,9,0,0,1-1.16,0c.46,0,.71.06.63,0,.46,0,1.05.09.34.08l.71.06c.53,0,.15-.1.15-.13h-.18l-1-.15a4.33,4.33,0,0,1,.72,0,2.43,2.43,0,0,1-.47-.08,10.84,10.84,0,0,1,1.51.1l-.65-.14h1c.26,0-1.17-.17-.7-.25h-.31c.13-.08.85-.18.07-.25l1.06-.11a14,14,0,0,1-1.72,0c-.38-.14.91-.08,1.21-.13-.53,0-1.59,0-.74-.17C493.73,342.81,493.57,342.84,493.65,342.86Zm-.79-.64c.17,0,.65-.06.24,0-.84.11-.45,0-.24,0Zm-2.62.36h-.12c-.06,0-.05,0,.12,0Zm-4.4,1.38h0c-.21,0-.12,0,0,0Zm.28.06-.25-.06H486Zm.31,0h0Z"/><path class="cls-1" d="M491.31,342.37l-.38.06Z"/><path class="cls-1" d="M491.67,345a3.59,3.59,0,0,0-.47-.12A1.91,1.91,0,0,1,491.67,345Z"/><path class="cls-1" d="M489.31,344.39h-.08l-.31-.05A1.31,1.31,0,0,0,489.31,344.39Z"/><path class="cls-1" d="M487.27,344.18c.53.1.36.05.28,0h0C486.81,344.07,487,344.12,487.27,344.18Z"/><path class="cls-1" d="M487.54,344.2h0C487.24,344.14,487.47,344.19,487.54,344.2Z"/><path class="cls-1" d="M485.82,343.94l-.44-.09C484.75,343.71,486.13,344,485.82,343.94Z"/><polygon class="cls-1" points="489.02 344.5 488.36 344.38 488.87 344.49 489.02 344.5"/><path class="cls-1" d="M488.37,344.47h.21l-.2-.05C488.33,344.45,488.19,344.43,488.37,344.47Z"/><polygon class="cls-1" points="489.21 344.57 489.03 344.54 488.94 344.54 489.21 344.57"/><path class="cls-1" d="M487.88,344.46H488l.26.06Z"/><path class="cls-1" d="M490.07,345l-.66-.15,1,.25Z"/><path class="cls-1" d="M490.22,345c.29.07.81.2.77.18Z"/><polygon class="cls-1" points="488.45 344.31 488.44 344.32 487.17 344.1 488.45 344.31"/><path class="cls-1" d="M493.35,343.82c.46.13-1.26,0-.67.1-.48,0-.48-.09-.9-.08A5.51,5.51,0,0,1,493.35,343.82Z"/><polygon class="cls-1" points="485.08 343.85 484.91 343.8 485.18 343.87 485.08 343.85"/><path class="cls-1" d="M485.63,344l-.49-.13.43.11Z"/><path class="cls-1" d="M494.71,341.88h-.23a1.27,1.27,0,0,0-.28.06Z"/><polygon class="cls-1" points="494.41 342.38 494.42 342.37 493.56 342.48 494.41 342.38"/><path class="cls-1" d="M495.51,342.94s-.15-.05-.11-.08S494.41,343,495.51,342.94Z"/><path class="cls-1" d="M520.85,359.51c-.1,0,.24.52.29.63C521.2,359.94,520.77,359.37,520.85,359.51Z"/><polygon class="cls-1" points="521.43 357.52 521.53 357.75 521.41 357.1 521.43 357.52"/><path class="cls-1" d="M522.64,356.82c-.65-.86-.35.4-.76.2l-.16-.19.34.8C522.26,357.36,522.31,356.67,522.64,356.82Z"/><path class="cls-1" d="M524.47,358.43c-.25-.34,0-.4-.21,0l.08.08A.22.22,0,0,1,524.47,358.43Z"/><path class="cls-1" d="M524.81,357.92v.42c.16.19.34.15.38.33C525.28,358.39,525.12,358.2,524.81,357.92Z"/><path class="cls-1" d="M524.57,357.15v.19C524.63,357.42,524.67,357.43,524.57,357.15Z"/><path class="cls-1" d="M524.55,357.73v-.39c-.11-.14-.29-.43,0,.15C524.39,357.21,524.51,357.49,524.55,357.73Z"/><path class="cls-1" d="M524.36,357.66c-.22-.15-.41-.2-.43-.62C523.68,357.36,524.11,358,524.36,357.66Z"/><path class="cls-1" d="M522.14,355.83l-.28-.2.07.37C521.89,355.82,522.32,356.11,522.14,355.83Z"/><path class="cls-1" d="M526.15,357.76c-.1-.2-.37-.49-.53-.73v.3A1.18,1.18,0,0,1,526.15,357.76Z"/><path class="cls-1" d="M525.62,357v-.45C525.41,356.64,525.48,356.82,525.62,357Z"/><polygon class="cls-1" points="523.99 356.11 524.1 357 524.04 356.07 523.99 356.11"/><polygon class="cls-1" points="526.89 357.34 527.05 357.86 526.83 357.06 526.89 357.34"/><path class="cls-1" d="M527.31,357c.15.42.5.56.56.84.09-.14,0-.53-.08-.88C527.79,357.16,527.65,357.19,527.31,357Z"/><path class="cls-1" d="M527.7,356.41a4.34,4.34,0,0,0,.09.52A1.54,1.54,0,0,0,527.7,356.41Z"/><path class="cls-1" d="M526,356.49c.09.1.3.39.49.46l-.41-.5Z"/><path class="cls-1" d="M526,356.43h0l.18-.07Z"/><path class="cls-1" d="M526,356.49Z"/><path class="cls-1" d="M524.77,356.32c-.07-.38,0-.84-.55-1.18C524.37,355.57,524.66,355.76,524.77,356.32Z"/><path class="cls-1" d="M525.45,355.87h-.27a1.78,1.78,0,0,1,.29.52Z"/><polygon class="cls-1" points="525.44 355.63 525.45 355.87 525.55 355.87 525.44 355.63"/><path class="cls-1" d="M527,356.11a.44.44,0,0,1,.11-.47.64.64,0,0,0-.45.05C526.79,355.87,526.93,356.21,527,356.11Z"/><path class="cls-1" d="M526.53,356.22Z"/><path class="cls-1" d="M528.19,355l-.08-.09v.1Z"/><path class="cls-1" d="M526.62,355.6c-.15-.05-.12.11-.06.31a.37.37,0,0,1,.14-.22C526.66,355.61,526.63,355.55,526.62,355.6Z"/><path class="cls-1" d="M527.83,356a1.85,1.85,0,0,0-.33-.21C527.65,355.92,527.91,356.13,527.83,356Z"/><path class="cls-1" d="M526.65,356.31Z"/><path class="cls-1" d="M526.65,356.31a1.37,1.37,0,0,0-.09-.4.61.61,0,0,0,0,.27Z"/><path class="cls-1" d="M526.29,351.32c.31.51.38,1.11-.15.69a10.11,10.11,0,0,0,2,2.89,1.49,1.49,0,0,1-.26-.84c-.24-.23-.83-.37-1-.93.09-.42.32.05.61.23-.5-.55-.26-1.11-.9-2v.46C526.5,351.69,526.44,351.41,526.29,351.32Z"/><path class="cls-1" d="M527.71,355.09l-.05.11c.15,0,.34.19.71.51a1.5,1.5,0,0,0-.21-.71l-.44.18Z"/><path class="cls-1" d="M527.3,355.43c-.27-.59-.23-.94-.72-1.46-.21.18.13.56.13.89.3-.38.08.37.55.51a.39.39,0,0,1-.11.27,2.09,2.09,0,0,1,.35.13h0c-.06-.06-.09-.1,0-.07h0a1.51,1.51,0,0,1-.11-.22c.18,0,.1.13.11.22v.09h0l.19-.54C527.54,355.18,527.44,355.25,527.3,355.43Z"/><path class="cls-1" d="M523.71,353.83l.09.12C523.78,353.87,523.76,353.82,523.71,353.83Z"/><path class="cls-1" d="M524.07,354.07c0,.1.13.33,0,.33s-.16-.27-.27-.45a.79.79,0,0,0,.38.68v-.09a3,3,0,0,1,.9.76A13.2,13.2,0,0,0,524.07,354.07Z"/><path class="cls-1" d="M525.6,354.61l.15-.46-.45-.38.18.28C525.23,354.05,525.49,354.38,525.6,354.61Z"/><polygon class="cls-1" points="528.4 355.24 528.72 355.84 528.39 354.91 528.4 355.24"/><polygon class="cls-1" points="528.77 354.91 529.07 355.42 528.99 355.05 528.77 354.91"/><path class="cls-1" d="M537.56,343.27l-.06.19A.33.33,0,0,0,537.56,343.27Z"/><path class="cls-1" d="M538.36,343.08l-.06-.29C538.31,343,538.32,343.07,538.36,343.08Z"/><path class="cls-1" d="M538.58,347.54c.49.3,1.21.8.74.32l-.47-.44C538.84,347.58,538.72,347.59,538.58,347.54Z"/><path class="cls-1" d="M541.41,338.83l-.19-.09.43.47Z"/><path class="cls-1" d="M539.33,337.11l.45.1A1.73,1.73,0,0,0,539.33,337.11Z"/><path class="cls-1" d="M533.37,345v.68C533.59,345.66,533.43,345.35,533.37,345Z"/><path class="cls-1" d="M532.83,351.88a.76.76,0,0,0,.51.12C533,351.79,532.55,351.42,532.83,351.88Z"/><path class="cls-1" d="M536,336.55a.9.9,0,0,0,0,.4A.68.68,0,0,0,536,336.55Z"/><path class="cls-1" d="M533.67,351.75l-.15-.08c0,.15,0,.29-.18.33C533.61,352.15,533.83,352.2,533.67,351.75Z"/><path class="cls-1" d="M517.13,346.17v-.08C517.09,346.18,517.11,346.18,517.13,346.17Z"/><path class="cls-1" d="M512.9,339.41a.28.28,0,0,1,.18,0C513.05,339.33,513,339.33,512.9,339.41Z"/><path class="cls-1" d="M528.74,352.19a1,1,0,0,0-.14-.28A1.47,1.47,0,0,1,528.74,352.19Z"/><path class="cls-1" d="M532.09,347.88Z"/><path class="cls-1" d="M530.29,353.9a.47.47,0,0,0,.22.09A.85.85,0,0,0,530.29,353.9Z"/><path class="cls-1" d="M530.48,354.15h-.12C530.41,354.24,530.46,354.3,530.48,354.15Z"/><path class="cls-1" d="M530.69,354a.19.19,0,0,1-.18,0s.07.05.07.08Z"/><path class="cls-1" d="M525.63,344v-.06C525.53,344.22,525.57,344.17,525.63,344Z"/><path class="cls-1" d="M535.74,340.23c.48.67.35.66.15.62l1.41,1.24Z"/><path class="cls-1" d="M535.72,344l.4.49c-.07,1-.39.75.06,1.49-.46-2,1-.48.49-2.46l.28.37c-.05,0,0,.11-.08.11.59.85-.14-1.49.35-1.32a.65.65,0,0,1,.34.62l.19-.58c.11,0,.18.36.08.35l.45-.31v.06a9.55,9.55,0,0,1,0-1.07c.21.24,0,.22.11.46l.13-.56c.26.47.19,1,0,1,.85,1.86.08-.56,1,.4l-.19.33c.52,1.05.6.6,1.12,1.18-.19-.33-1.15-1.54-1-2.12.13.12.27.15.3-.29.23.69.33.47.51.36l.29.92a4,4,0,0,0,0-1.25c.26,0,.55.7.81,1.28.43,0-.65-1-.26-1.37.44.25.54-.2.71-.88.33.24.16.57.33.8l-.06-.79s.12.23.15.34c.06-.34-.31-.91-.15-1.24-.3-1,1,1.25,1,0a7,7,0,0,1,.33.91,1,1,0,0,0,0-.43l-3.55-4.59a3.39,3.39,0,0,0,.68,1.14l-.68-.14a3.86,3.86,0,0,1,1.63,1.62l.75.32.16.65a2.9,2.9,0,0,1-.67-.59l.14.2a2.84,2.84,0,0,1-1.12-.91l.55.24a8.9,8.9,0,0,0-1.32-1.21.6.6,0,0,1,.13.25,1.48,1.48,0,0,0-.3-.26c-.08,0,.06.11.22.31l-.9-.59.32.28h-.82c.62.93,1.64,2.18,1.59,2.93a11.5,11.5,0,0,0-1.66-1.46c.85.51,0-.61.3-.7-.18,0-.5-.26-.59-.38l.36,1c-.58-.49-.51-.28-.83-.38,1.2.9.51,1,.71,1.41-.39-.32-.74-.7-.48-.81-1-.54,1.07,1.44.16,1,0-.06.12,0-.06-.22.24.41-.28.44-.54.08v-.05c-.41.19-.87.93,0,1.86-.12-.11-1.06-1.11-1.23-1.31.85,1.17,1.68,2.37,2.49,3.58-.72-.83-2.74-2.5-2.93-3.19-.18,0-.39-.08-.27.34a6.44,6.44,0,0,1,1.24,1.15,10.09,10.09,0,0,0-1.54-.86c.24.1,1.35,1.42,1.18,1.49-.15-.2-1.18-1.22-1.26-1.39l.86,1.51a6,6,0,0,0-1.36-1.34c.26.21-.27.21-.24.4l.39.18c-.5.12,1.27,2.06.85,2.32-.18-.3-1.32-1.69-1.64-1.7.5.71,2.38,3.43,2.47,4.23l-.38-.32.11.65c-.67-1.14-2-3.58-2.51-4.57-.39-.18-.42-.41-.58-.21-.37-.29-.36-.62-.32-.69l-.64.16c.68.75.32,1.06.87,1.69L533,342.7c.68.74,1.57,2.42,1.12,2.58a13.39,13.39,0,0,1-1.31-1.69c.18.31.11.77-.08.61l-.2-.53c-.42-.15.55,1.27-.28.71-.12,0-1-.83-.68-.36a38.41,38.41,0,0,1,3.55,4.3,9.19,9.19,0,0,1-1.56-.88c-.69-.61-1.13-1.85-1.73-2.37a3.13,3.13,0,0,1,.35.65c-.23-.12-.49-.7-.6-.46.6.83-.42.21.45.75,0,.36-.32,0-.5.17a5.73,5.73,0,0,1,1.16,2.31,3.46,3.46,0,0,0-.51-.57c-.43.22-.9,0-1.27.24-.17-.18-.52-.3-.71-.71.06.19.22.5.12.6-.72-.57.16-.29-.62-1,.34.49.2.86.26,1.28.58.71.46-.12.4-.53a5.78,5.78,0,0,1,1.2,3c-.13.48-.61-.57-.56-.39-.69.22.77,2.16-.23,1.74a8.86,8.86,0,0,1-1.28-1.77c.07-.42.67.16.82,0l-.43-.18c-.07-.27,0-.55.2-.42-.57-.49-1,.54-1.85.28a1.59,1.59,0,0,0,.33.83l.08-.19c.49.46.23.93.58,1.06.07.51.24,1.25-.23,1.12l-.55-.74c.15.22.47.35.39.06.12.42-1.09-.77-.55.32l.53.41c.06.51.35,1.49,0,1.4.6.7,0-.12.75.66-.87-1,.65-.36-.34-1.37.85.92.59.24,1.4,1-.18-.25-.4-.43-.12-.44a2,2,0,0,1-.1-.26h0a1.34,1.34,0,0,1-.36-.31c-.29-.65,0-.84,0-1.21.19,0,.14.32.38.54l-.14-.55c.4.55.95.71.89,1.23l.27-.15c.36.21.65.19.62-.13.21,0-.12-.82.08-.32l.16-.61.1.13c.45-.21.15-1.48,1.31-.82,0-.23,0-.49.38-.5l.39.44c0-.29.85.08.56-.46,1.13,1.11,1-.34,1.49-.36l-.46-.61c.23-.13.29-.45.34-.89l-.44-.51c-.14-.6.85,0,1.13-.39.15.21,0,.23-.14.16,1.38.83.11-1.54,1.18-1-.07-.26,0-.25.22-.18v.05h.05a2.83,2.83,0,0,0,.36.16,2.31,2.31,0,0,0-.35-.18.62.62,0,0,0,.09-.44l.53.5h0c.28.11-.15-.32-.57-.68a2.32,2.32,0,0,0-.16-.44c.86.79,0-.52.94.29-.35-.51.18-.79-.65-1.76.11.12.2.15.15.2.21,0,.41,0,.26-.34l.68.61-.64-1.11a2.24,2.24,0,0,1,1.18,1.07c-.43-1.1,0-.56-.5-1.59l.41.42c.08-.12-.33-.82.08-.55,1,.53,1.19-1,2.51-1-1.43-1,.85.21-.16-.69.34.23.6.29.79.62,0-.59.93-.09.22-1,.36.22.42.45.64.56,0-.08-.19-.32,0-.21s.23.27.33.43c.22-.4-.76-1.22-1.68-2,.57.18.58,0,0-.56.35.18.76.32.71.62.13-.08,1-.4.25-1,.19.08.19-.07.14-.17l-2-4.79-.31,1.75v.06c-.31.06-.36,0-.62.17l.14.12c.29,1.13-.15.33-.34.55V337c-.81-.59-.1.46-.93-.24l.26.67c.46,1.48-.77-.71-.88,0l.24.36c0,.55-1.13-1.84-1.35-2s0-.22,0-.33c-.71-.73.24.91,0,1.23-.21-.46-.32-1.26-.56-1.27-.22-.36-.13,1.76-.72.92a1.7,1.7,0,0,1,.29,1c-.19.2-1-1.23-.9,0A1.33,1.33,0,0,1,536,337c-.09.37-.44.67-.37,1.35-.81-2.36-.81,1.47-1.39-.75l-.52.26-.05-.23c-.38-.07-.38.5-.38,1.06a.85.85,0,0,1-.13-.47c-.62-.33-.64-.21-.84,1l-.2-.72c0,.45-1-1-1.33,0a1,1,0,0,1,0-.34c-.42,1-1.74-1.77-1.47.94l-.28.72c.54.12.13,1.17.41,1.58-.18.19-.65-.71-.43-.89l.06.12c-.14-1.4-.71-.39-.85-1.34-1,.22-2-.42-2.94-.38l.23,1.08h-.33c-.12-.25-.21-.84,0-.83-.18-.6-.32.57-.3.81-.5-.4,0-1.29-.11-1.31l-.17.1v.13c-.1.46-.07.93-.35.9-.19-.2-.15-.66-.22-.7s0-.11-.11,0l-.41-.06.24.85c-.15.44-.39,0-.12.95-.4-1.47-1.57-.42-1.77-.88-.21.64-.47.65-.78.59.08.18.18,1.15-.1,1,0-2-.54-.85-.8-2.29.22.95-.75.26-.41,1.61-.23-.15,0-.75-.22-1.22-.51.81-1.17-.49-1.81-.22a3.14,3.14,0,0,1,0,1.06l-.34-1.31c-.13.13-.13,1.52-.36.6,0,.22.08.56,0,.64-1.24-1.3-2.7,1-3.84-1.53.14.53,0,.57-.12.58.08.13-.05.65-.06,1l-.46-1c-.19,1-.59,0-.73,1l.19-.16c-.34,1.1.1,2.51,0,3.94.37-1.25.58,1.94,1.17.16.08.3-.12.45-.09.79.16-.6.3-.73.54-.44v.15c.73-.11,1,.52,1.81,1v-.71c.18.1.2.32.28.5.24-1.07-.49-.07-.26-1.25.18,1.45,1.22.05,1.34,1.7.28,0-.06-.83.21-.81l.06.44L517,345c.17.1.26.66.26,1a1.8,1.8,0,0,1-.17.14c.23.53.66-.18.74,0l-.26-.27c.73-.43,1.65.17,2.34-.77l-.06-.34c.52-.63.44.36,1,.05v.08c.1-.34.25-.51.42-.48-.14.4.32.75.14,1.19.56-.7.27-.54.58-1.81l.12.55c.1-.51.09-.77.37-.94-.2.5.25.84,0,1.48.72,1.18.83-1.28,1.26.47.15-1.56-.61-.81-.48-1.15-.17-.49.14-1.17.35-1s.5,1.93,1,1.85c0,0,0,.12-.09.12.22.37.31-.57.6,0,0-.94.31,0,.22-1.17l-.43.32c.23-.33.32-1.74.81-1.12a2.46,2.46,0,0,1-.16.76c.16.33.21-.26.38.08.1,1.18-.52.33-.71,1.25.19.49.44-.91.44.38,0-1.65.52.15.71-1.13l.07.71c0-.12.11-.47.21-.46l-.07.94c.18-.82.62.61.84.16-.56.09-.24-.84-.54-1.33.55-1,.64,1.8,1.36,1.35-.09.12-.45-.36-.33-.72a1.93,1.93,0,0,1,.54.73c.49-.23-.19-.72,0-1.18.31.83.2-.39.37-.7l.12.72c.65.37-.09-1.51.51-1v1l.22-.3.08.82c.2-.66.31-.52.64-.34-.16-.49-.19-1.3,0-1.37.25.39,0,.7.37.53,0,.46,0,1-.26.41v.69c.28.45.49,0,.62,0a.29.29,0,0,1-.17-.14l.33-1.08a1.06,1.06,0,0,1,.09.7c.09-.1.1-.44.24-.53a3.13,3.13,0,0,1,0,1.49l.38-.74c.08.24.39.64.37.86.35.28.45-1.26.91-.89a.55.55,0,0,1,.07-.33c.37.07.83.69,1.06-.19l.47,1c.26-.31-.62-1.22-.19-1.73s.36.84.56,1.09c.06-.56.11-1.68.66-.94C535.93,344,535.8,343.86,535.72,344Zm3.71-1.55c0,.17,0,.66-.22.27-.16-.85,0-.49.22-.3Zm.55-4c-.16-.19,0-.18.26-.08,0,.05-.06.09-.24,0ZM531.21,353h0c.28,0,.17,0,0,0Zm-.47-.06a.61.61,0,0,0,.15.26c-.08-.16,0-.22.08-.23-.12-.18-.24-.26-.23-.07Zm-6.68-13.61.09.18c-.15.18-.15,0-.09-.22Z"/><path class="cls-1" d="M539.57,337.31l.33.22A.57.57,0,0,0,539.57,337.31Z"/><path class="cls-1" d="M531.41,344.81a.83.83,0,0,1,.33.22C531.64,344.88,531.52,344.79,531.41,344.81Z"/><path class="cls-1" d="M529.85,354.93l.09-.28c-.07.09-.19,0-.3-.09C529.74,354.7,529.91,354.88,529.85,354.93Z"/><path class="cls-1" d="M525.82,352.2c0,.09-.06,0,0,.14l.18.28a.28.28,0,0,0-.09-.38Z"/><path class="cls-1" d="M528.37,353c-.34-.5-.35-.25-.42-.07h0C528.4,353.69,528.39,353.36,528.37,353Z"/><path class="cls-1" d="M527.93,353a.12.12,0,0,1-.11.08C528,353.38,527.91,353.11,527.93,353Z"/><path class="cls-1" d="M530.59,353.46c-.15-.09.4.67.22.49C531.17,354.64,530.71,352.89,530.59,353.46Z"/><polygon class="cls-1" points="527.18 351.42 527.63 352.02 527.37 351.46 527.18 351.42"/><path class="cls-1" d="M528.49,351.21h-.32a.38.38,0,0,1,.09.25C528.4,351.36,528.62,351.39,528.49,351.21Z"/><path class="cls-1" d="M528.26,351.42c-.08,0-.13.09-.1.22A.32.32,0,0,0,528.26,351.42Z"/><polygon class="cls-1" points="527.33 351.04 527.48 351.13 527.65 351.09 527.33 351.04"/><path class="cls-1" d="M530.76,349.84l.1-.33c-.13-.23-.28-.31-.3-.17A.59.59,0,0,0,530.76,349.84Z"/><path class="cls-1" d="M528.92,348.61a2.33,2.33,0,0,1,.42.41l-.52-.77Z"/><path class="cls-1" d="M529.43,348c-.13-.23-.12-.83-.36-.59C529.2,347.64,529.11,348,529.43,348Z"/><polygon class="cls-1" points="533.31 346.57 533.26 346.62 534.22 347.81 533.31 346.57"/><path class="cls-1" d="M533.54,341.59c-.45-.08.58.74.08.58.19.32.41.13.57.41C534.07,342.18,534.28,342.28,533.54,341.59Z"/><path class="cls-1" d="M534.19,342.58a1.17,1.17,0,0,0,.09.24A1.17,1.17,0,0,0,534.19,342.58Z"/><polygon class="cls-1" points="512.26 338.54 512.1 338.2 512.18 338.73 512.26 338.54"/><path class="cls-1" d="M511.79,339.63v-1l-.2.87A.13.13,0,0,1,511.79,339.63Z"/><path class="cls-1" d="M540.6,344.1l-.06-.23c-.11-.23-.16-.23-.27-.24Z"/><polygon class="cls-1" points="537.56 344.26 537.62 344.27 537.29 343.44 537.56 344.26"/><path class="cls-1" d="M535.44,346c.11,0,.18-.2.29-.19C535.55,346,535.15,344.91,535.44,346Z"/><path class="cls-1" d="M552.5,492.06h-3.07V491h7.48v1.11h-3.09v9H552.5Z"/><path class="cls-1" d="M566.56,496.62c-.08-1.41-.17-3.12-.17-4.36h0c-.36,1.17-.76,2.44-1.27,3.84L563.3,501h-1l-1.65-4.81c-.48-1.44-.87-2.73-1.15-3.93h0c0,1.26-.11,2.94-.2,4.47l-.27,4.33h-1.24l.7-10.11h1.67l1.72,4.89c.42,1.25.75,2.36,1,3.41h0c.27-1,.63-2.13,1.08-3.41l1.8-4.89h1.67l.63,10.11H566.8Z"/></svg>