<svg id="Layer_1" data-name="Layer 1" xmlns="http://www.w3.org/2000/svg" viewBox="0 0 720 579.1"><defs><style>.cls-1{fill:#231815;}</style></defs><title>mainlogo</title><path class="cls-1" d="M215.08,273.28a4.74,4.74,0,0,1-2.9,2.22,14.21,14.21,0,0,0-3.59,1.54,17.78,17.78,0,0,0-3.42,2.73,17.74,17.74,0,0,1-3.41,2.73q4.77,18.45,7.51,32.11t3.42,20.49c.45,4.56.79,9.56,1,15s.34,10.48.34,15a55.92,55.92,0,0,1-.51,8.37,38.48,38.48,0,0,1-1.54,6.31,49.15,49.15,0,0,1-6.66-10.93q-2.55-5.79-5.29-11.61-5.81-17.42-11.1-36.54t-10.42-38.94q-9.56-.33-20.49-.34H136.18q-10.94,0-20.66.17t-16.91.51c-.46,1.37-.91,3-1.37,4.78a58.29,58.29,0,0,0-3.41,9.74Q92.47,302,91.44,308t-2.39,12.47q-1.36,6.48-3.42,13a15.31,15.31,0,0,0,8.71-2.9,15.38,15.38,0,0,1,8.71-2.9,34.39,34.39,0,0,0-5.29,6.83,41.44,41.44,0,0,0-3.93,9.9,7.76,7.76,0,0,1-2,3.59,26.88,26.88,0,0,0-2.39,2.9c-.46.92-.91,1.88-1.37,2.91a5.12,5.12,0,0,1-1.7,2.22,10.86,10.86,0,0,1-4.1,1.53,2.33,2.33,0,0,1-2.39-.85,23.09,23.09,0,0,1-3.59-8.71c-.57-3.07-1.08-6.32-1.54-9.73a155.79,155.79,0,0,1,2.39-23.91q2.39-14.68,6.15-31.43a16.64,16.64,0,0,1-5.46-2.56A20.5,20.5,0,0,0,73,277.72a19.54,19.54,0,0,0-6.15-1.88,9,9,0,0,1-5.13-2.56l20.84-5.46a19.14,19.14,0,0,0,4.44-.69q4.09-16,8.2-30.74t7.85-24.93q2.73-7.85,6.66-18.1a148,148,0,0,1,9.22-19.64,78,78,0,0,1,12-16.22q6.66-6.83,14.51-8.54a36.88,36.88,0,0,1,4.79-1,37.29,37.29,0,0,1,5.12-.34,4.42,4.42,0,0,1,4.1,2.56,54.37,54.37,0,0,0,4.09,6.32c1.14,2.05,2.23,3.82,3.25,5.3s2.1,4.5,3.24,9q8.2,24.93,15.37,50T198,268.16l20.84,4.44ZM145.4,163.65a150.06,150.06,0,0,0-10.93,17.24q-5.11,9.41-10.24,21.52T114,230.08q-5.12,15.54-10.59,35,17.76-2,35.52-2.39a302.29,302.29,0,0,1,35.18,1.37q-7.17-27.66-14-53.79A446.91,446.91,0,0,0,145.4,163.65Z"/><path class="cls-1" d="M299.1,279.51c-.86,2.57-1.54,4.53-2.05,5.9s-1.28,1.53-2.31.51a106.94,106.94,0,0,0-8.71-7.69,25.22,25.22,0,0,0-12.55-5.12,26.25,26.25,0,0,0-10.37,1.15,13.59,13.59,0,0,0-8.33,7.05c-1.71,3.07-2,6.75-.77,11q1.55,6.68,6.79,9.61a48.52,48.52,0,0,0,11.79,4.61q6.53,1.66,13.32,2.95a30.27,30.27,0,0,1,11.65,4.61,5.54,5.54,0,0,1,2.43,2.43,19.54,19.54,0,0,0,1.93,3,23.53,23.53,0,0,0,2.43,2.56,10.28,10.28,0,0,1,2.18,3.07c.51,1,1.11,2.27,1.79,3.72a7.46,7.46,0,0,1,.51,4.74q-.76,3.33-6.4,7.17a121.42,121.42,0,0,1-25.87,12.68,53.31,53.31,0,0,1-28.69,1.66c-1.2-.34-2.56-1.49-4.1-3.46a19.47,19.47,0,0,0-3.84-4,12.43,12.43,0,0,1-5.64-5.89,49.3,49.3,0,0,1-2-14.6c0-1.7.3-2.52.9-2.43a11.07,11.07,0,0,0,1.66.13c1,0,2.18.68,3.46,2s2.65,3,4.1,4.74,2.82,3.42,4.1,4.87,2.34,2.18,3.2,2.18a27.11,27.11,0,0,0,10.5,2.3,47.13,47.13,0,0,0,12.43-1.15,41.28,41.28,0,0,0,11.78-4.61,26.89,26.89,0,0,0,8.84-8.07c0-.85-1-1.88-2.95-3.07a80.47,80.47,0,0,0-7.56-4q-4.6-2.17-10.11-4.49t-10.51-4.86a59.07,59.07,0,0,1-8.71-5.38,15.63,15.63,0,0,1-5-5.64q-.76-2-1.79-4.22a18.2,18.2,0,0,1-1.28-3.21,29.4,29.4,0,0,1-.52-10.88,26.9,26.9,0,0,1,3.08-9.35A20.29,20.29,0,0,1,254,265.3a20.64,20.64,0,0,1,8.71-3.46,71.54,71.54,0,0,1,16.53-.13,31.33,31.33,0,0,1,15.75,6,14.59,14.59,0,0,1,2.95,3.33,13.93,13.93,0,0,1,1.4,3.59c.17.85.34,1.66.52,2.43A2.91,2.91,0,0,1,299.1,279.51Z"/><path class="cls-1" d="M387.22,273.37q3.31,8.19,6.27,17.67a108.44,108.44,0,0,1,4.1,18.83,70.86,70.86,0,0,1,0,18.06,31.27,31.27,0,0,1-6,15.11,4.82,4.82,0,0,1-4.87,2,3.18,3.18,0,0,1-1.79-1.28,7.08,7.08,0,0,0-2.05-1.79,11.12,11.12,0,0,0-2.18-1.28,5.46,5.46,0,0,1-2.17-2.05A32.46,32.46,0,0,0,371,342.4c-2.48,1.63-5,3.29-7.56,5s-5.21,3.37-7.94,5a29.62,29.62,0,0,1-8.45,3.46c-3.07.86-5.34.73-6.79-.38s-3-2.35-4.74-3.72c-1.19-1-2-1.66-2.3-1.92s-.69-1.32-1-3.2a52.84,52.84,0,0,1-.13-12.17A57.43,57.43,0,0,1,335,321.27q6.41-19.47,26.13-26.13a9.87,9.87,0,0,1,4.74-.38,18.82,18.82,0,0,1,4.74,1.41,25.89,25.89,0,0,1,4.48,2.56c1.45,1,2.77,2,4,3.07l4.1,3.33a16.65,16.65,0,0,0-.13-9.35,36.22,36.22,0,0,0-4.23-9.48,46.67,46.67,0,0,0-6.4-8.07,20.56,20.56,0,0,0-6.92-4.86,45.88,45.88,0,0,0-23.44,6,98.32,98.32,0,0,0-20.1,15.75,3.36,3.36,0,0,1-1.16.77c-.42.17-.81.34-1.15.51a2.12,2.12,0,0,1-1.79.26c-.52-.17-.6-.68-.26-1.54a37.11,37.11,0,0,1,6.15-14.73A54.74,54.74,0,0,1,334.45,269a70,70,0,0,1,13.06-8.19A64.85,64.85,0,0,1,361.09,256a6.46,6.46,0,0,1,1.92-.64,15,15,0,0,1,2.18-.13,5.93,5.93,0,0,1,3.33,1c1,.69,2.21,1.46,3.58,2.31a53.89,53.89,0,0,1,5.13,2.95,22.9,22.9,0,0,1,4.61,4,33.82,33.82,0,0,1,3.07,4.09Q386.18,271.58,387.22,273.37ZM378.51,319a18.87,18.87,0,0,0-4.74-6.14,21.6,21.6,0,0,0-7.3-4.23,18,18,0,0,0-8.84-.64,21.17,21.17,0,0,0-9.61,4.61q-1.53,3.33-3.07,7.3a46.85,46.85,0,0,0-2.3,7.94,35.54,35.54,0,0,0-.65,7.94,18.83,18.83,0,0,0,1.67,7.3,184.19,184.19,0,0,0,19-7.68q9.21-4.35,15.88-7.69a6.3,6.3,0,0,0,1.79-2.56,2.51,2.51,0,0,0-.13-1.79c-.25-.51-.6-1.11-1-1.79A4.76,4.76,0,0,1,378.51,319Z"/><path class="cls-1" d="M437.16,299.5a48.9,48.9,0,0,1,14.09-14,30.32,30.32,0,0,1,19-4.48,12.24,12.24,0,0,1,3.33,1.15l3.33,1.67a24.55,24.55,0,0,1,7.17,6,53.28,53.28,0,0,1,6,9,65.28,65.28,0,0,1,4.48,10.38,67,67,0,0,1,2.57,10,62,62,0,0,1,.76,7.17c.17,2.91.26,5.55.26,7.94-.34,0-.51.09-.51.26s-.17.17-.51,0a8.8,8.8,0,0,1-3.33-2.82,9.7,9.7,0,0,0-1.54-1.15A2.66,2.66,0,0,1,491,329c-.35-1.7-.73-4-1.15-6.78a61.6,61.6,0,0,0-2.18-9.1,71,71,0,0,0-3.85-9.6,33.78,33.78,0,0,0-5.63-8.33,19.36,19.36,0,0,0-2.18-1.92c-.6-.42-1.32-.9-2.18-1.41A8.09,8.09,0,0,0,470,290.4a10.47,10.47,0,0,0-4.35.13,30.3,30.3,0,0,0-9.22,4.87,36.32,36.32,0,0,0-8.46,8.83,34.69,34.69,0,0,0-5.12,12.17,26.67,26.67,0,0,0,1.28,14.86,31.4,31.4,0,0,1,1,3.71,9.87,9.87,0,0,1,.12,2.69,8.08,8.08,0,0,1-.89,2.82c-.52,1-1.2,2.39-2,4.1a12,12,0,0,1-4.74,4.35,28.4,28.4,0,0,0-4.74,2.82,289.57,289.57,0,0,1-11.4-42.52A295.58,295.58,0,0,1,416.54,269a197.1,197.1,0,0,1,1.16-34.71q2-15.75,6.4-26.25c.51-2.05,1.62-2.91,3.33-2.56a3.91,3.91,0,0,1,2.05,1l2,2.05c.68.86,1.28,1.58,1.79,2.18a5,5,0,0,1,1,2.43c.16.86.59,1.28,1.28,1.28s.93.43.77,1.28q-2.31,14.1-3.08,26.13a220.82,220.82,0,0,0-.38,22.29,175.29,175.29,0,0,0,1.66,19Q435.88,291.82,437.16,299.5Z"/><path class="cls-1" d="M538.48,319.6q-.39-4.47-1.29-9.35c-.6-3.24-1.4-6.82-2.43-10.75a2.86,2.86,0,0,0-2.43-2.18,8.32,8.32,0,0,1-3.46-1.15c-1.37-.86-2.78-1.71-4.23-2.57a5,5,0,0,0-4-.76,7.29,7.29,0,0,0-2.82,1.79q-1.27,1.29-.51,4.87a79.18,79.18,0,0,1,1.92,13.7q.39,7.05.77,14a109.91,109.91,0,0,0,1.54,13.32,28.68,28.68,0,0,0,4.48,11.27,20.12,20.12,0,0,1,6.41-4.35,13.4,13.4,0,0,0,2.17-1.28,8.66,8.66,0,0,0,1.67-2.82,7.31,7.31,0,0,1,1.66-2.44,3.22,3.22,0,0,0,1.16-2.17c0-3.59,0-6.92-.13-10S538.73,322.59,538.48,319.6Z"/><path class="cls-1" d="M455.83,563.9c-2,.31-.94,1.79-1.17,2.15C457.86,564.93,455.65,563.5,455.83,563.9Z"/><path class="cls-1" d="M486,551.07l-.3.83,1.94-1.59c.64-.53,1.26-1.12,1.89-1.68l-1.74,1.27Z"/><path class="cls-1" d="M513.35,538.51c-1.93-.58-4.21.89-6.81,2.48s-5.34,3.63-8,4.32l-1.08-.25-1.3,3.05a101.56,101.56,0,0,0,9.15-5.34c1.51-.92,3-1.77,4.34-2.48A21.31,21.31,0,0,1,513.35,538.51Z"/><path class="cls-1" d="M530.49,535.59c-1.46-.41,2.51-2.69-3.44,1.73.38-.09.51-.09.74-.13C528.34,536.82,529.12,536.34,530.49,535.59Z"/><path class="cls-1" d="M527.79,537.19c-2.72,1.79,2.3-.33,0,0Z"/><path class="cls-1" d="M539.94,528.4l-3,3.26c1.11,0,4.34-2,3.44-.83C543.75,527.87,542.61,527.87,539.94,528.4Z"/><path class="cls-1" d="M542,524.41l-1.55,1.6C541,526,541.49,525.75,542,524.41Z"/><path class="cls-1" d="M537.15,529.39l3.33-3.38c-.78,0-1.36-.75-1.57,1.48C538.73,526.58,538.45,527.77,537.15,529.39Z"/><path class="cls-1" d="M534.74,530.54c-2.3.86-5.08,2.18-2.09-1l-2,1.6a12.17,12.17,0,0,0-1.32,1.2c-.64.67-.8,1.1-.53,1.23s.93,0,2-.51c.51-.24,1.12-.56,1.8-1S533.93,531.16,534.74,530.54Z"/><path class="cls-1" d="M513.27,535.18l-3.1.76c-.63.71-1.26,1.43-1.9,2.13C509.22,537,513.86,535.87,513.27,535.18Z"/><path class="cls-1" d="M561.78,513.11c-.2-.63-2.16-.29-2.91-.68L556.93,515C558.43,514.27,561,512.57,561.78,513.11Z"/><path class="cls-1" d="M558.87,512.43c1-1.28,2-2.52,2.85-3.84C558.51,511.25,558.22,512.09,558.87,512.43Z"/><path class="cls-1" d="M540.76,521.41c-1.61,2.07-3.3,4.08-5,6.15l3.1-3.51,1.54-1.74c.5-.59,1-1.21,1.47-1.82Z"/><polygon class="cls-1" points="574.98 500.77 574.1 503.69 575.93 498.76 574.98 500.77"/><path class="cls-1" d="M583.05,491.9c-.46,2.28,3.27-.72,2.41,1.34a29.93,29.93,0,0,0,4.09-7.82A20.19,20.19,0,0,1,583.05,491.9Z"/><path class="cls-1" d="M591.18,481.31a35.2,35.2,0,0,0-1.63,4.11A17.37,17.37,0,0,0,591.18,481.31Z"/><path class="cls-1" d="M567.74,503.37c.51,0,1.7.25,3.89-1.28-.83,0-1.69,0-2.53,0Z"/><path class="cls-1" d="M569,502.14h.08c1.51-1.31,2.45-2.33,2.89-2.72C571.61,499.74,570.79,500.65,569,502.14Z"/><path class="cls-1" d="M567.4,503.68l.34-.31C567.49,503.37,567.38,503.4,567.4,503.68Z"/><path class="cls-1" d="M551.3,515.2c1.49-2.51,5.1-6.93,0-4.52C550.59,512.84,553.51,511.44,551.3,515.2Z"/><path class="cls-1" d="M564.27,503.68l-3.86,3.08c.37.27,1.47.15.79,1.43Z"/><polygon class="cls-1" points="565.65 501.64 564.27 503.68 565.7 502.54 565.65 501.64"/><path class="cls-1" d="M584.44,486.81c.86-2.1,2.39-3.86,3.93-6-2,2-4.13,4.06-6,6.15C582.56,487.58,582.46,489.14,584.44,486.81Z"/><path class="cls-1" d="M577,494.32a4.65,4.65,0,0,0,.26-.41C576.94,494,576.75,494.16,577,494.32Z"/><path class="cls-1" d="M603.92,459.89c-.16.07-.33.11-.49.17.06.09.13.16.19.25Z"/><path class="cls-1" d="M581.86,487.07a7.62,7.62,0,0,0-2.6,3.87,50.14,50.14,0,0,1,3.16-4C582.35,486.64,582.25,486.51,581.86,487.07Z"/><path class="cls-1" d="M595.14,475.11c-1,.65-2,1.45-3.06,2.31C593.18,476.91,595.25,475.69,595.14,475.11Z"/><path class="cls-1" d="M578.1,493.72a1.61,1.61,0,0,1-.17.28C578.69,493.75,578.5,493.69,578.1,493.72Z"/><path class="cls-1" d="M578.1,493.72a11.21,11.21,0,0,0,1.16-2.78c-.74,1.08-1.46,2.05-2,3A3.54,3.54,0,0,1,578.1,493.72Z"/><path class="cls-1" d="M599,447.47c1.18,1.14-.61,6.47-4.59,9.42-1.6,4.46,4.36,5,9.07,3.17-.5-.5-1-.87.87-5.43-1.67,1-7.59,7.82-6.53,3.62,2.81-5.74,3.32-4,5.74-6.16-1.58.56-1-1.47-.63-3.79s.76-4.75-.83-4.91l-1.94,5.23C599.68,448.47,600.08,446.39,599,447.47Z"/><path class="cls-1" d="M598,467.61l-1,1.74a25.7,25.7,0,0,1,5.87-4.4c1.24-3.24,1.12-4.15.82-4.64-1,1.35-1.86,2.74-2.86,4.05l-3,3.95Z"/><path class="cls-1" d="M591.44,476.54c-.34-2.29,2-6.48-1.26-5.32-3.55,4.6-1.42,4.06-3,7.26,5.61-7.64-1,2.73,4.1-2a45.81,45.81,0,0,1-2.87,4.3c1.24-1.21,2.48-2.34,3.71-3.36l-.22.11,0,0v0c-.43.19-.61.21-.23-.07a.81.81,0,0,1,.1-.18,1.62,1.62,0,0,1-.24-.74c2-1.93.63-.06.24.74,0,.08.06.19.13.25h0l2.62-4,2.45-4.15C595.53,470.83,594.15,473,591.44,476.54Z"/><path class="cls-1" d="M552.7,504.64a.44.44,0,0,1,.49.11C553.51,504.2,553.58,504,552.7,504.64Z"/><path class="cls-1" d="M556.28,502.94a5,5,0,0,1-2.11,2.8c-1.79.85-.53-.63-1-1-.7,1.19-2.73,3.94,1,1.88l.35-.61a23.85,23.85,0,0,1,2.67-1.37c.9-.45,1.81-.85,2.61-1.16,1.61-.62,2.78-.9,2.62-.59A13.35,13.35,0,0,0,556.28,502.94Z"/><path class="cls-1" d="M574.18,490.11c.83-1,1.58-2.1,2.34-3.17l2.27-3.2-3.74,2,.8.45c-1.59,1.55-2,2.31-2.09,2.79S574.12,489.68,574.18,490.11Z"/><polygon class="cls-1" points="605.13 459.6 606.06 461.5 606.46 456.23 605.13 459.6"/><polygon class="cls-1" points="610.52 450.74 611.68 451.89 612.27 449.04 610.52 450.74"/><path class="cls-1" d="M411.91,25.42l-2.22.29A12.53,12.53,0,0,0,411.91,25.42Z"/><path class="cls-1" d="M427.68,27l.48-.72C427.38,26.63,427,26.91,427.68,27Z"/><path class="cls-1" d="M645.93,206.55c.61-3.63,1.88-7.94.26-7.09l-1.42,1.46A15.45,15.45,0,0,1,645.93,206.55Z"/><path class="cls-1" d="M548.34,69.29c.09.35.18.71.26,1.06l2.72.53Z"/><path class="cls-1" d="M541.51,72.48c-.68-1.31-1.38-2.58-2.08-3.85A24.72,24.72,0,0,0,541.51,72.48Z"/><path class="cls-1" d="M326.07,32.54l-2.14,2.22C327.81,34,325.93,33.45,326.07,32.54Z"/><path class="cls-1" d="M647.52,352.43a38.47,38.47,0,0,0,2.34-7C648.24,348.75,646.27,351.23,647.52,352.43Z"/><path class="cls-1" d="M419.79,7.56c-1.43.17-2.07.48-2.06.87C419.21,8.25,420.05,8,419.79,7.56Z"/><path class="cls-1" d="M651.21,337.12c-.24.48-.4,1-.62,1.46,0,1.08,0,2.16-.14,3.29a32.47,32.47,0,0,1-.59,3.58,18.14,18.14,0,0,0,1.45-3.94A10,10,0,0,0,651.21,337.12Z"/><path class="cls-1" d="M111.24,235.19c-.14.19-.26.45-.4.62C111,236,111.14,235.64,111.24,235.19Z"/><path class="cls-1" d="M78.32,324.62a33.2,33.2,0,0,1,0-4A13.64,13.64,0,0,0,78.32,324.62Z"/><path class="cls-1" d="M630.15,414c-.77,2.06,0,.39,0,0Z"/><path class="cls-1" d="M619.61,420.89a1.18,1.18,0,0,0-.39-1.13A1.51,1.51,0,0,1,619.61,420.89Z"/><path class="cls-1" d="M643.05,314.6l0-.18C642.68,315,642.76,314.92,643.05,314.6Z"/><path class="cls-1" d="M628.11,416.74a21.16,21.16,0,0,0,1.59-2.37A22.59,22.59,0,0,0,628.11,416.74Z"/><path class="cls-1" d="M629,416.66l-.92,1.69C628.27,418.72,628.54,418.57,629,416.66Z"/><path class="cls-1" d="M631.28,411.18a25.61,25.61,0,0,1-1.58,3.19c.28-.35.44-.48.45-.35C630.39,413.42,630.73,412.58,631.28,411.18Z"/><path class="cls-1" d="M193.74,89.57a4.48,4.48,0,0,1-.44.18C192.28,91.72,192.85,91,193.74,89.57Z"/><path class="cls-1" d="M610.8,160.51c.06.08.12.11.18.18,0-.1-.05-.22-.08-.3Z"/><path class="cls-1" d="M606.34,154.59c3.33,1.76,4,3.43,4.56,5.8,1.16-1.46,2.35-2.95,3.45-4.42Q610.31,155.22,606.34,154.59Z"/><path class="cls-1" d="M374,25.42c1.75.45,3.49.86,5.22,1.34-6.12,2.81-10.57,2.16-5.69,4.13.22-2.73,5.21-3.16,10.2-3.32s10-.24,10.38-3l3.39,1.19c-1-.07-1.14.25-2.1.18a6.35,6.35,0,0,0,3.68.59,6,6,0,0,0,2.36-1.29c1.51-1.12,3.31-2.56,7.59-1.89,3,.63,5,1.56,2.91,2.06,2.24-.27,4.49-.62,6.75-.81,1.92.3,1.35,1.19-.55.89,3.37.23,6.77.34,10.14.65l-.09.15a47.14,47.14,0,0,1,6.66-1.88c2.47,1.11-1.37.41-.8,1.16,1.93-.21,3.85-.32,5.79-.45,1,.88.32,1.47-1.1,1.74a17.78,17.78,0,0,1-5.5-.13c2.23,3,3.4,2.88,5.39,2.57a13.61,13.61,0,0,1,6.56.35,23.87,23.87,0,0,1,3.51,1.46c-1.78-.1-3.53-.26-5.31-.29a10.83,10.83,0,0,0,5.22,3.39,36.08,36.08,0,0,1,7.16,3,23.38,23.38,0,0,0-2-1.7c-.95-.72-2.06-1.56-2.94-2.37-1.75-1.61-2.62-3.11.5-3.19a11.16,11.16,0,0,0,2.93.89,15.38,15.38,0,0,0,4.29.14c-.39,1.91,2.85,2.08,6.76,3l-.88,2.41c4.34.37,4.34-1,7.11-1.45,4.6,1.51,5,3.76,5.6,5.66,7.24,2.54-4.2-4.54,4.69-2.44A32.75,32.75,0,0,0,490.13,41c2.84.64,5.91,1.11,9.82,1.71,3.87,2.49-1.29,1.16-.06,2.44l4.45-.4c.89.41.36.87.09,1.11a2.36,2.36,0,0,0,2.55-.77,1.9,1.9,0,0,1,1.16-.5,6.24,6.24,0,0,1,2.6.39c1.17-1,3.14,1,5.29,3.48a49.44,49.44,0,0,0,3.59,3.67,10.57,10.57,0,0,0,4.52,2.36c.76,1.52-1.57.78-1.8,1.85,2,.83,3.38,1.65,4.49,2.2l2.7,1.39c.78.41,1.54.76,2.56,1.2l1.77.74,2.34,1,1.64,2.82,1.59,2.87c-.91-2.34.05-2.85,1.89-2.43a17.81,17.81,0,0,1,3.28,1.19c1.21.56,2.5,1.24,3.74,1.9a45.09,45.09,0,0,0-1.22-4.46c2.26,1.78,4.55,3.56,6.78,5.38.38,1-.85,1-2.58.67.55.29,1.07.56,1.5.75,1.33,2.9-.83,2.7-3.34,2.05-.32-1.1-.59-2.24-.88-3.33-2.57-.49-5.14-.74-5.94.59A8.88,8.88,0,0,1,545,72.5c-.68-.12-1.19-.12-1.21.24s1,.64,2.41,1.22l-.84,3.34,1.16-.42,6,9.46c7.49,4,15.25,6.59,25.12,14.47-3.65-.7-2.83,2-4.68,3.66-.21-2.1-2.28-3.7-4.75-5.36s-5.31-3.56-7.35-6.2c2.16,2.74.78,3-.13,2.62,3.29,2.39,6.69,4.74,10.18,7-.82.62-.56,1.39,0,2.26s1.46,1.91,2.19,3.24c1.22-4.41,7.9,4,11.69,6.78-.84,1.1-2.57,1.15-6-3.22,1,3.3,3.07,4,5.32,4.69a12.4,12.4,0,0,1,3.24,1.32,5.1,5.1,0,0,1,1.34,1.25,6.73,6.73,0,0,1,.88,2c-.87-1.07-1.14-1.81-2-1.78,2.93,1.77,7,8.62,4.9,7.84l-.86-1.07c.65.94,1.39,2,2.21,3.09s1.58,2.38,2.44,3.63,1.78,2.52,2.7,3.77l1.4,1.86,1.3,1.87a54.27,54.27,0,0,0,5,6.15,18.58,18.58,0,0,0,2,1.82,2.45,2.45,0,0,0,1.6.59,17.14,17.14,0,0,1-5,.76c5.82,2.92,11.92,6,17.65,9.64-1.64-.07-3.44,1.93-5.43,3.12s-4.18,1.61-6.49-1.44a20.32,20.32,0,0,0,4,8.47c-.21-1.5,2.32-5.07,3.42-3.32-.13,1.6-.27,2.69-.33,3.51a16.47,16.47,0,0,0,0,2,60.34,60.34,0,0,1,.26,6.2c-.12-1.14,1.11-1.57,2.53-1.27a4.6,4.6,0,0,1,3.55,3c-.83-.29-4.15,1.84-5,.79q3.54,3.33,7.14,6.82c-1.5-1.84-3.74.85-4.31,3.08.63-1.16,2.09,7.24,3.19,9.33l-.06-3.84a14.13,14.13,0,0,0,2.35,5.42,19.34,19.34,0,0,0,3.09,3.32,20,20,0,0,1,3.18,3.34,13,13,0,0,1,2.29,5.55c-1.16-1-6.18-1.62-5.71,3.39a68.16,68.16,0,0,1,7.95,5.63,29,29,0,0,1,8.18,11c-.33.63-.71,1.27-1.06,1.91l2.37,6.69c-1-1-2.3-2.39-3.74-4l-4.67-5.49c-1.65-1.92-3.28-3.9-4.75-5.74-.73-.92-1.42-1.81-2-2.65s-1.26-1.61-1.77-2.32c-.27,3.82-1.26,1.29-.22,6.71-.91,2.13-2.32-2.63-2.7-4.2q.72,6.36,1.32,12.71c2.59-1,3.93,9.36,6.09,8.63l-2.28-6.79c-.38-1.13-.74-2.25-1.15-3.37l-1.27-3.33c1.26-.49,3.53,1.18,5.5,4.21a26.16,26.16,0,0,1,2.57,5.41,26.66,26.66,0,0,1,.89,3.22,17.6,17.6,0,0,1,.45,3.42c-.85,2.46-4.93-1.26-5.8-.95,1,1.07,2.56,8.5,2,9.4l-1.79-3.75c-.29,2.58.85,4.56,1.67,6.72a10.14,10.14,0,0,1,.34,7.62c0,2.14-3.22,6.43-1.62,6.75,3-3.51,12.46-4.63,14.82-2.31-.21.8-2.62,11.59-4.28,14-2.44,3.52-5.68-5.34-7.78-2.32.74.12,1.62,2.07,1.91,2.88-.65,2.24-2.27-.94-2,3.91,2.79.87-.54,9.89,2.28,2.35.61,4.81-.77,5.06-.88,10.66.9-.85,2.39.49,3.61,2.67a20.79,20.79,0,0,1,2.43,7.68c-.67-.35-1.65.67-2.1,1.15-.21,2.47-.66,4.63-1,6.64s-.76,3.85-1.14,5.68c-.8,3.64-1.69,7.18-2.35,11.73-.75.74-2.37,5-3.18,2.9.24,1.37.94,2.72.49,5.52-3.29,4.92.77-6.25-2.76-2.67.75.31,1,2.19,1,4.53s-.19,5.07-.12,7.15c1.33-.34,2-2.6,2.21-5.29a66.49,66.49,0,0,0-.13-7.88c3.29.54,5.68,8.18,5,18.12-.4,3.92-1.23,4.59-1.79,4.49s-1-1-.94-.28a27.48,27.48,0,0,0-1.11,13.42,16,16,0,0,1,.09,4.71,17.62,17.62,0,0,1-2.49,6.53c-3.61,3.9-4.13-1.15-5.94-.63a21.62,21.62,0,0,1,1.23-4,26.4,26.4,0,0,1,1.48-3.19,28.17,28.17,0,0,0,2.65-5.69l-2.48,4.75a19.17,19.17,0,0,1,1.77-8.31,20.9,20.9,0,0,0-2.44,5.2c-.46,1.24-.93,2.64-1.41,4.15s-1,3.12-1.59,4.76c-1.18,3.28-2.35,6.8-3.71,10.07a84.59,84.59,0,0,1-4.24,8.7c0,2.1-.78,5.5.68,4.36.37-1.12.78-2.22,1.11-3.36,1.37-1.19,1.38.6,1.2,2.18s-.36,3,.91,1.06c-.79,4.84-1.1,10.67-5,16.32l-2.76.06c.7.2,3.24-3.33,3.4-5.36-.13,1.5-2,3.48-3.65,5.58a16.43,16.43,0,0,0-2.07,3.21,4.24,4.24,0,0,0-.37,3.19c1.24-1.13,2.53-2.24,3.71-3.43-.25,1.24-.51,2.55-.78,3.91s-.58,2.8-1,4.24a21,21,0,0,1-3.71,8.19c1.76-.59,1.88-.93,2.15-1.41s.68-1.08,2.94-2.32c-4.86,1.62,7.54-13.73,1.41-10.1a11.81,11.81,0,0,0,4.77-4.58,23.92,23.92,0,0,1,4.88-5.78c-.81-.17-2.23,1.25.18-3.29a5.37,5.37,0,0,1-.2-1.32l.19-.29-.2.22c0-.26,0-.28-.07.08a6.07,6.07,0,0,1-2.17,1.89c-.69-3.08,2.64-10.42,2.62-13.35,1.45-2.66.41,1.51,1.81.29l.13-4.31c.91.13,2.33-1.47,3.33-2.25s1.59-.7.78,2.82c.83-2,1.54-4,2.25-6,2.19-3.25,4.31-8.1,4.44-11.43,1.25-2.81.3-7.91.89-5,.66-3.32,1.05-6.69,1.56-10l.46,0c1.44-4.77,1.7-10,2.5-15.18.4-2.61.72-5.27,1.39-7.92a47.76,47.76,0,0,1,2.76-8c0-1.69,0-3.4.17-5.38a62.17,62.17,0,0,1,1-6.95l1.66-.9c0-2.17.73-5.33,1.27-8.22s.8-5.5.06-6.48a10,10,0,0,0,2.32-5.21,50.18,50.18,0,0,0,.54-7.8c0-1.4,0-2.83,0-4.24s-.13-2.8-.19-4.13a51.63,51.63,0,0,1,.05-7l-2-.28a63.35,63.35,0,0,0-.44-7.83c-.14-1.34-.32-2.73-.52-4.17s-.51-3-.79-4.55l-1.77.48c-.92-2.72-.71-6.27-.57-10.24.06-2,.15-4.08.16-6.23a39.7,39.7,0,0,0-.38-6.51c.76.51.87,2.75.57,4.36a19,19,0,0,0,.34-8.13,39.73,39.73,0,0,0-.81-4c-.33-1.34-.72-2.66-1.18-4C648.26,226,646.5,221,646.88,216a10.24,10.24,0,0,1-1.16-5.64,2,2,0,0,0,.22.55c0-.24-.1-.59-.18-.95.1-1.1.17-2.23.17-3.44a17,17,0,0,0-.28,2.92,49.61,49.61,0,0,0-2.46-6.95l1.58-1.6c-.08-.21-.12-.39-.21-.6,0-2.79-1.41-1.85-2.46-.1a15.22,15.22,0,0,0-2-3.17c2.37-2.93-3-6.5-.71-10.32-1-.65-2.43-3.78-4-6.79s-3.38-5.88-5.29-5.92c.38-.24.28-1.05.85.29-.75-2.93-1.52-5.88-3.42-8l1.78-2.14c-.9-.82-1.87-1.59-2.84-2.37l-2.87-2.31c-.31-4.22-.25-6.15,3.14-3.31-1.68-1.89-2.75-3.25-3.59-4.31s-1.42-1.8-2-2.52a33.85,33.85,0,0,0-5.2-5.65l1.57-.42a22.33,22.33,0,0,0-3.38-4c-1.22-1.32-2.21-2.58-2.11-3.68a12.76,12.76,0,0,0-.94-3.29,32.45,32.45,0,0,0-2.24-4.26,96.72,96.72,0,0,0-7.12-10.56l-4.38-5.8c-1.58-1.9-3.19-3.81-4.74-5.74-3-3.93-6.26-7.48-8.76-11-.47,2.83-1.49,1.06-2.79-1.16s-2.55-4.5-4.06-3.46c.14-1.44-.93-3.44,1.52-2.29-6.35-5-7-10-13.06-12.25.2-1.44,2.39.25,2.32-.81-.62-.34-2.47-1.34-2.55-2.42s1.5.29,2.73,1c-5.79-6.24-8.94-4.66-11.73-3-1.77-4.25-3.43-5.73-7.1-6.62-.29-1.82-1.24-4.44,2.72-.75-.49-.59-1.44-1.79-2.68-3.24s-2.7-3.15-4.25-4.69c-.77-.78-1.53-1.53-2.27-2.2a26,26,0,0,0-2.13-1.69c-1.32-.91-2.35-1.33-2.83-.91-.27-1.15-3.17-3-4-3.3-5.37-4.5-5.71-5.13-11.83-8.66l1.48,1.35a4.94,4.94,0,0,1-4.79-1c-.71-.55-1.57-1.07-2.52-1.69a16.1,16.1,0,0,0-3.35-1.67l.26-.24c-10.63-6.66-5.25-1.09-15.81-7.67v2c-.61.88-1.49.94-2.59.53a19.52,19.52,0,0,1-3.9-2.18,56.51,56.51,0,0,0-4.84-3,14.66,14.66,0,0,0-5.36-1.62l2.13,1.76c-2,.15-4.2-2-6.38-4.28S471.85,16,470,15.29c-.74-.56,1.45-.22,2.68-.18-4.7-2.49-5.19-1.91-5.43-.94s-.25,2.39-4,1.84c-1.08-1.63,2.54-3-2.45-4.35-1.14-.86-5.07-.49-9.45-.41-1.1,0-2.22,0-3.35,0s-2.25-.05-3.34-.16a15.13,15.13,0,0,1-5.85-1.62c1.38,1.28,2.72,2.55-.88,2.77-2.7-.17-6.18-1.62-9.68-2.71s-7-1.6-9.6-.2c-.65-.36-.89-.64-.9-.9-2.1.27-5.48.39-8.65.63s-6.13.79-7.4,1.61c-1.76-3.44-8.26-2.74-14.17-1.91s-11.28,2-11.35-1c-4.23.32-8.47.56-12.68,1l.28-.65a27.61,27.61,0,0,0-8.84,1.32,20.08,20.08,0,0,0-4.7,2.47c-1.91-.21-.62-.92-.5-1.26-3,0-5.28.16-7.22.29a33.12,33.12,0,0,0-5,.73c-2.94.8-5.57,2-10.17,4.39L326,14.33a10,10,0,0,1-3.91.81c-1.92.18-4.38.27-7.08.6a74.1,74.1,0,0,0-8.67,1.36,41.55,41.55,0,0,0-8.59,3c.05-.24.17-.7,1-1.2a43.71,43.71,0,0,1-10.06,3.19c-3.55.85-7.23,1.49-10.6,2.23a42.09,42.09,0,0,0-8.77,2.9c-2.32,1.25-3.91,2.84-4.35,5l-3.67,2.44-3.59,2.55c5.2-2,5.14-1.06,4.34.19s-2.26,3,0,2.61c-3.76,2.13-11.13,2.54-6.4,0h.91c.06-1.06-.72-1.32-2-1.14a13,13,0,0,0-2.14.53c-.78.28-1.62.63-2.46,1-3.39,1.44-6.91,3.09-7.35,1.9-9.78,5.07-19.43,10.16-28.7,15.66-2.29,1.42-4.63,2.74-6.87,4.22l-6.69,4.47c-4.31,3.14-8.59,6.27-12.5,9.74l3.72.64-5.55,4.62c-.91.39-1.76.41-1.91-.11s.42-1.58,2.43-3.23a4.34,4.34,0,0,0-2.21,1.31A11.51,11.51,0,0,0,182.73,82c-.91,1.74-1.38,3.45-1.21,3.73-4.07,3-4,1.77-3.1,0s2.47-4.12,1.31-3.07l-2.93,3.09.93-.42c-1.65,3.23-.89,4.39-5.34,8.7-1.59,1.2-2.24,1.28-2.67,1.16s-.6-.41-1.17.13c-.14-.15-.57.17-1.66,1.7-2.1,2.21-4.25,4.39-6.25,6.7,1.38-.43,2.73-.87,4.11-1.27-1.76,3.8-5.58,6.43-.91,4.93-1.73.53-4.1,2.3-6.55,4.84-1.22,1.27-2.49,2.72-3.77,4.24l-1.92,2.33-1.82,2.46c-2.42,3.28-4.73,6.55-6.5,9.24a31.54,31.54,0,0,1-4,5.24,37.76,37.76,0,0,1-3.37,8c-1.43,2.57-3,5.23-4.85,8.11,1.29-1.22,4-.77.79,4.12-1.8-2.27-3.61-.2-5.69,2.74-1,1.47-2.16,3.14-3.31,4.63a10.9,10.9,0,0,1-3.82,3.4c2.13-1.32.3,2.49-1.17,6.12s-2.58,7.06.5,4.83c-2.52,4.25-1.94-.59-4.7,2.25-1.51,5.79-4.45,11.55-7.46,17.7-1.58,3.05-3,6.24-4.5,9.5A80.37,80.37,0,0,0,98,217.23c.59.44,2.4-1.5,2.37,1.77-2,2-3.81,4.11-5.72,6.2-.27,1.42.5,2.36.84,3.47s.27,2.38-1.62,4.56c.78-.55,1.94-1.35,1.62.56-5.66,13.13-8.36,27.52-10.57,41.91s-4,28.83-8,43.19c1.59-3.86,1.58-1.22,1.45,1.77.44-1.93,1.74.13,2.71-.2-.58,2-1.06,4-1.56,6l-1.49,6c1.31,1.12,1.37,4.37,1.41,7.5s.19,6.15,1.46,6.73l-.59-3.81c1.6,2.51,3.14.68,4.91-1.63s3.62-5.11,5.53-4.74a6.76,6.76,0,0,1-.7-4.75,49.17,49.17,0,0,1,1.52-5.69c.3-1,.57-2,.81-3.1a20.44,20.44,0,0,0,.55-3.22,13.45,13.45,0,0,0-1.14-6.8c.94-1.93,1.09,1.78,2.06.79-1.44-2.39-1.54-5.2-.36-10.23l.35.62c.3-3.59.7-6.65,1.13-9.47s1.08-5.38,1.7-8,1.39-5.25,2.2-8.22c.4-1.48.83-3.05,1.29-4.73s1-3.46,1.53-5.41l-2.1.8A17.11,17.11,0,0,1,102,263.7c-.94-2.24-1.58.11-2.12,2.53s-1.18,4.88-2.37,2.79c1.18-.95,2-2.92,2.83-5.37s1.53-5.37,2.23-8.26a65.16,65.16,0,0,1,2.45-7.89,13.45,13.45,0,0,1,1.47-2.8,3.93,3.93,0,0,1,1.76-1.46c1.5-5.1-2.54.9-1-4.21l1.53-1-1.09-1.72c1.21-3.3,3.23-4.52,4.2-4.34a18.16,18.16,0,0,0-.65,3.25c1.35-1.94,2.2-5,2.82-7.74s1.15-5.15,1.6-5.81c-.78,1.53-1.59,3.05-2.36,4.58.91-3.51,2.06-7.16,3.33-10.87.69-1.84,1.38-3.7,2.07-5.56s1.4-3.75,2.17-5.59c1.5-3.7,2.91-7.43,4.33-11,.68-1.8,1.33-3.6,1.91-5.37s1.19-3.5,1.67-5.21l-1.27.57a40.06,40.06,0,0,1,2.12-5.72,22.73,22.73,0,0,1,2-3.19,38.36,38.36,0,0,0,2.25-3.28c.43-.69.87-1.51,1.38-2.47s1.1-2.08,1.73-3.42l0,.48a18.37,18.37,0,0,1,1.09-4c.27-.71.57-1.42.92-2.13s.77-1.4,1.2-2.08c-.61,3.08,4.61-3.79,3.62.15,1.09-2.71,1.75-4.43,2.14-5.6a8.17,8.17,0,0,0,.57-2.32,22.68,22.68,0,0,1,.34-6l2.2-.69c.31-2.94-.12-3.5,2.9-8.64-1.69,4.74,4-1.82,2.31,3.62a33.76,33.76,0,0,0,3.11-3.11,28.33,28.33,0,0,0,2.35-3,56.24,56.24,0,0,0,3.14-5.54c1.8-3.3,3.25-5.91,6.85-6.6.25-3.44-2-1.84-3.92.44s-3.82,5-3.19,3.47c-1.35.64-1.24-.75-.43-2.66a18.84,18.84,0,0,1,3.71-5.74c2.68-3,8.28-1.87,14.85-9.13-.67.71-.49,1-1.15,1.69,3.17-2.05,3.94-6.21,8.28-8.26,0-3.57,4.32-3.93,2.66-6.74l-3,3.38c-1,1.12-2,2.33-2.94,3.48a26.61,26.61,0,0,0,2-3.49c.65-1.21,1.3-2.49,2.08-3.79a23.77,23.77,0,0,1,2.91-3.9,20.45,20.45,0,0,1,4.65-3.49c-.08.92-1.44,3.22-2.43,4.7,2.49-.93,3.19-3.6,5.76-4.57.75,1.45-1.2,3.38-3.65,5.62s-5.25,5-6.4,7.74c2.82-.82,5.92-8.76,6.26-4.36-.06-3,1.91-4.41,4.13-6a37.8,37.8,0,0,0,3.45-2.67,11.73,11.73,0,0,0,3-3.94l.84,1.75c.64-.86,1.74-3,3.33-4.08-.46,1.32-.83,2.73-1.23,4.09,1.39-2.54,3.79-3.63,6.16-4.67,1.18-.51,2.38-1,3.49-1.59a10.65,10.65,0,0,0,3.1-2.19,24.87,24.87,0,0,1-4.27,2.51c-.77.28-1,.07-1.2-.28-.3-.71-.08-2-2.32-1.25a15.69,15.69,0,0,1,5.61-4.31,9.41,9.41,0,0,1,4-.6c2.53,0,5.37.23,11.4-4-1.57,1.24-7,3-4.78.57a38.26,38.26,0,0,1,4.31-1.67,14.6,14.6,0,0,1,3.88-.73c8.3-5.21-2.27-1,.78-4a3.92,3.92,0,0,0,2.34-.4,4.37,4.37,0,0,0,1.51-1.37A17.5,17.5,0,0,1,246.66,55l.91,1.7c2.62-1.07,4-1.79,4.77-2.49a2.52,2.52,0,0,0,.9-1.85c.13-1.12.13-2.24,5.1-3.7-1,1.37-1.87,2.83-2.77,4.25l2.23-1.46,2.28-1.39L260,52.49c4.58-3.8,6.39-4.22,11.85-5.71-1.72-.75-.64-3.56,4.06-5.42,3.63-.11-1.16,2.37,5.43-.33-1.1,1.69-2.2,3.71-5.73,3.1-.07.7-1,1.72-1.1,2.42a19.13,19.13,0,0,0,6.1-1.61c2-.82,3.79-1.78,5-2.19a11,11,0,0,1-2.74.5c1.44-1,2.92-2,4.4-2.93l4.48-2.88c1.76.18.71,1.14-.32,2.08,1.9-.87,3-2.12,5.92-3.14-.31,1.74.32,3.2-3.56,5.17,2.91-1.51,5.86-3,8.82-4.44.81.46,5.32.53,4.24,1.41,2.72-.22,5.68-1.86,9-3.3a52.84,52.84,0,0,1,5.07-2.09,19,19,0,0,1,5.36-1,5.65,5.65,0,0,1,2.44-1.31,42,42,0,0,1,5-.41c1.64-.08,3.28-.14,4.94-.29a33.09,33.09,0,0,0,10.59-2.37c1.62.74,3.22,1.54,4.82,2.3,6.14-1.29-6.5-2.87,3.79-5,7.32-1.53,3,2.16,5.61,2.73a38.07,38.07,0,0,1,7.07-2.89,17.35,17.35,0,0,1,9.62,0C377.84,25.41,376.07,25.14,374,25.42Zm77.16,4.49c-1.56.11-4.71.77-5.58-.56C447.62,27.5,448.75,28.8,451.13,29.91ZM553.41,80.48c-1.24-.43-2.18-2-3-3.94A13,13,0,0,1,553.41,80.48ZM637.13,391a1,1,0,0,0,0-.19C639,387.71,638.27,388.81,637.13,391Zm-3.18,6.7c0,.79.28.83.64.62-.29-.65.21-2.22.95-4C634.89,394.72,634.26,395.5,634,397.73ZM168.53,96.38l1.33-.72C168.1,98.43,168.33,97.42,168.53,96.38Z"/><path class="cls-1" d="M542.33,72.14a1.78,1.78,0,0,1,.33-1.2C542,70.72,541.73,71,542.33,72.14Z"/><path class="cls-1" d="M326.47,32.13l-.24,0a.79.79,0,0,0-.16.39Z"/><path class="cls-1" d="M636.77,286.08a7.27,7.27,0,0,1,1-2.78C637.32,283.22,636.92,283.88,636.77,286.08Z"/><path class="cls-1" d="M621.27,435c.64-1.46,1.15-3,1.7-4.49a9.53,9.53,0,0,1-2.48,3.55C620.94,434.19,622,433.68,621.27,435Z"/><path class="cls-1" d="M589.74,463.26c-.21.68-.82,1.16-1,1.84l.83.39C591.2,463.14,591.79,461.1,589.74,463.26Z"/><path class="cls-1" d="M613.53,435.87c-1.62-.45-2.48,2.39-3.82,5.39a4.94,4.94,0,0,1,.3-.49C611.52,442.74,612.54,439.28,613.53,435.87Z"/><path class="cls-1" d="M609.37,441.94a20.5,20.5,0,0,1-1.51,2.62C608.45,445.35,608.65,443.6,609.37,441.94Z"/><path class="cls-1" d="M631.63,406.85c-1,1.31,1.58,1.69.64,2.28C633.56,411.52,633.74,398.41,631.63,406.85Z"/><polygon class="cls-1" points="607.59 435.62 609.89 435.57 609.33 433.21 607.59 435.62"/><path class="cls-1" d="M620.12,413.47l-2.56,4.5c.34.07.24.74,0,1.53C619,416.66,620.69,413.59,620.12,413.47Z"/><path class="cls-1" d="M617.59,419.5a13.55,13.55,0,0,0-1.52,3.88A30.61,30.61,0,0,0,617.59,419.5Z"/><path class="cls-1" d="M610.38,429.17l1.09-1.15,1.71-3.19C612.24,426.28,611.39,427.77,610.38,429.17Z"/><path class="cls-1" d="M637.84,361l.65-5.62c-.55-.71-1.29.7-1.47,2.79C637.2,359.6,637,361.7,637.84,361Z"/><path class="cls-1" d="M628.26,376c.83-1.31,1.29-1.29,2.17-1.92l-2.35-.83Z"/><path class="cls-1" d="M631.8,360.22c-.55-.71-.21-8.24-1.56-1.41a11.36,11.36,0,0,1,.37,2.77C630.68,362.44,631,362.63,631.8,360.22Z"/><polygon class="cls-1" points="643.54 277.5 643.61 278.91 647.67 278.65 643.54 277.5"/><path class="cls-1" d="M624.52,206.61c.61,6.42,2.83.87,3,6.78,1.32,1.25-.17-4.84,1-3.53C626.62,206.32,626.68,204.22,624.52,206.61Z"/><path class="cls-1" d="M628.56,209.86a20.52,20.52,0,0,0,1.09,1.79A8.22,8.22,0,0,0,628.56,209.86Z"/><path class="cls-1" d="M75.93,340.65l-.42,2.21-.35,2.21c.43-1,.83-1.92,1.29-2.87Z"/><path class="cls-1" d="M79.17,349l-2.55,1.14,2.43,2.52C78.9,351.66,78.61,349.76,79.17,349Z"/><path class="cls-1" d="M461.19,37.43l.45-.54c-.46-.79-1.39-1-3.24-1.58Z"/><path class="cls-1" d="M406.56,27.6c.32,0,.63.06.95.1-.55-.83-1.11-1.62-1.67-2.43Z"/><path class="cls-1" d="M360,31.38c1.9-.05,4.08-.74,6-.78C362,31.33,359.27,28.5,360,31.38Z"/><path class="cls-1" d="M180.42,431.83a1.14,1.14,0,0,1-.68.52,3.28,3.28,0,0,0-.84.36,4.08,4.08,0,0,0-.8.64,4.87,4.87,0,0,1-.8.64c.75,2.88,1.33,5.39,1.76,7.52s.69,3.73.8,4.8.19,2.24.24,3.52.08,2.45.08,3.52a13,13,0,0,1-.12,2,9.39,9.39,0,0,1-.36,1.48,11.7,11.7,0,0,1-1.56-2.56c-.4-.91-.82-1.81-1.24-2.72-.91-2.72-1.77-5.58-2.6-8.56s-1.64-6-2.44-9.12c-1.49-.06-3.1-.08-4.8-.08h-5.12c-1.71,0-3.32,0-4.84,0s-2.84.06-4,.12a11.31,11.31,0,0,0-.32,1.12,13,13,0,0,0-.8,2.28c-.22.82-.4,1.7-.56,2.64s-.35,1.9-.56,2.92-.48,2-.8,3a3.63,3.63,0,0,0,2-.68,3.51,3.51,0,0,1,2-.68,8.06,8.06,0,0,0-1.24,1.6,9.63,9.63,0,0,0-.92,2.32,1.93,1.93,0,0,1-.48.84,5.17,5.17,0,0,0-.56.68c-.11.21-.22.44-.32.68a1.22,1.22,0,0,1-.4.52,2.75,2.75,0,0,1-1,.36.56.56,0,0,1-.56-.2,5.33,5.33,0,0,1-.84-2q-.21-1.08-.36-2.28a35.53,35.53,0,0,1,.56-5.6q.56-3.45,1.44-7.36a4.11,4.11,0,0,1-1.28-.6,7.12,7.12,0,0,0-2.56-1,2.13,2.13,0,0,1-1.2-.6l4.88-1.28a5,5,0,0,0,1-.16q1-3.76,1.92-7.2c.64-2.3,1.25-4.24,1.84-5.84.43-1.23.95-2.64,1.56-4.24a33.33,33.33,0,0,1,2.16-4.6,17.73,17.73,0,0,1,2.8-3.8,6.66,6.66,0,0,1,3.4-2,7.21,7.21,0,0,1,1.12-.24,9,9,0,0,1,1.2-.08,1,1,0,0,1,1,.6,12.61,12.61,0,0,0,1,1.48c.27.48.52.89.76,1.24a7.38,7.38,0,0,1,.76,2.12q1.92,5.84,3.6,11.72t3,11.08l4.88,1ZM164.1,406.15a34.47,34.47,0,0,0-2.56,4c-.8,1.46-1.6,3.15-2.4,5s-1.6,4-2.4,6.48-1.63,5.16-2.48,8.2q4.16-.48,8.32-.56a68.4,68.4,0,0,1,8.24.32q-1.68-6.48-3.28-12.6A107,107,0,0,0,164.1,406.15Z"/><path class="cls-1" d="M215.22,430.71a15.09,15.09,0,0,1,4.4-4.36,9.38,9.38,0,0,1,5.92-1.4,3.49,3.49,0,0,1,1,.36l1,.52a7.59,7.59,0,0,1,2.24,1.88,16.48,16.48,0,0,1,1.88,2.8,20.18,20.18,0,0,1,1.4,3.24,21.11,21.11,0,0,1,.8,3.12,17.66,17.66,0,0,1,.24,2.24c0,.9.08,1.73.08,2.48-.11,0-.16,0-.16.08s0,.05-.16,0a2.8,2.8,0,0,1-1-.88,2.7,2.7,0,0,0-.48-.36.88.88,0,0,1-.4-.52c-.11-.53-.23-1.24-.36-2.12A18.39,18.39,0,0,0,231,435a21.33,21.33,0,0,0-1.2-3,10.52,10.52,0,0,0-1.76-2.6,5.19,5.19,0,0,0-.68-.6c-.19-.14-.41-.28-.68-.44a2.47,2.47,0,0,0-1.2-.44,3.18,3.18,0,0,0-1.36,0,9.17,9.17,0,0,0-2.88,1.52,11,11,0,0,0-2.64,2.76A10.74,10.74,0,0,0,217,436a8.29,8.29,0,0,0,.4,4.64,9.8,9.8,0,0,1,.32,1.16,3,3,0,0,1,0,.84,2.69,2.69,0,0,1-.28.88l-.64,1.28a3.79,3.79,0,0,1-1.48,1.36,9,9,0,0,0-1.48.88,91.06,91.06,0,0,1-3.56-13.28,92.56,92.56,0,0,1-1.52-12.56,61.09,61.09,0,0,1,.36-10.84,32.25,32.25,0,0,1,2-8.2c.16-.64.5-.91,1-.8a1.18,1.18,0,0,1,.64.32l.64.64.56.68a1.48,1.48,0,0,1,.32.76c0,.26.19.4.4.4s.29.13.24.4q-.72,4.4-1,8.16a69,69,0,0,0-.12,7,54.37,54.37,0,0,0,.52,5.92C214.69,427.4,215,429.11,215.22,430.71Z"/><path class="cls-1" d="M255.46,421.51a9.1,9.1,0,0,1,1,1.24,8,8,0,0,1,1.48,4.4,7.17,7.17,0,0,1-1.16,3.56,12.88,12.88,0,0,1-3.48,3.76,10.88,10.88,0,0,1-4.6,1.92,9.26,9.26,0,0,1-3.52,0,8.35,8.35,0,0,1-3.36-1.56,2.56,2.56,0,0,0-.76,1.16,2.84,2.84,0,0,0-.2,1.4,7.55,7.55,0,0,0,.84,2.44,4.28,4.28,0,0,0,1.48,1.8,6.83,6.83,0,0,0,3.8.08,36.51,36.51,0,0,0,5.2-1.48q2.76-1,5.44-2.24l4.6-2.12a.81.81,0,0,1-.2.64,3,3,0,0,0-.52.56,12.73,12.73,0,0,0-.88,1,4.94,4.94,0,0,1-1.12,1,3,3,0,0,0-1.2,1.24,3.87,3.87,0,0,1-1.52,1.4c-1,.53-2,1.08-3.08,1.64s-2.07,1.06-3.08,1.52a17.19,17.19,0,0,1-3.08,1,9.47,9.47,0,0,1-3.08.2,5,5,0,0,1-1.72-.56,13.15,13.15,0,0,1-1.64-1.2,9.53,9.53,0,0,0-1.12-.8,3.89,3.89,0,0,1-1-.8,11.91,11.91,0,0,1-1.84-4.28,13.73,13.73,0,0,1-.2-4.56,17.41,17.41,0,0,1,1.16-4.48,16,16,0,0,1,2.32-4,16.34,16.34,0,0,1,2-2.12,14.88,14.88,0,0,1,2.56-1.92,13.31,13.31,0,0,1,3-1.32,9,9,0,0,1,3.16-.4,3.21,3.21,0,0,1,1.16.36l1.16.6c.26.1.6.25,1,.44A4.48,4.48,0,0,1,255.46,421.51Zm-2.32,4.72a2.25,2.25,0,0,0-.88-1.28,6.66,6.66,0,0,0-1.6-.92,6.06,6.06,0,0,0-1.76-.44,2.82,2.82,0,0,0-1.28.08,6.64,6.64,0,0,0-1.48.84,11.54,11.54,0,0,0-1.6,1.4,16.18,16.18,0,0,0-1.44,1.72,7.29,7.29,0,0,0-1,1.72,2.29,2.29,0,0,0-.28.76,1,1,0,0,0,0,.76,3.47,3.47,0,0,0,2.88,1.2,10.51,10.51,0,0,0,4-.88,8.67,8.67,0,0,0,3-1.84,3.83,3.83,0,0,1,.36-.56,8.17,8.17,0,0,0,.52-.88c.16-.32.3-.64.44-1A1.16,1.16,0,0,0,253.14,426.23Z"/><path class="cls-1" d="M283.78,422.55q1,2.55,2,5.52A33.85,33.85,0,0,1,287,434a22.17,22.17,0,0,1,0,5.64,9.84,9.84,0,0,1-1.88,4.72,1.54,1.54,0,0,1-1.52.64,1,1,0,0,1-.56-.4,2.35,2.35,0,0,0-.64-.56,3.37,3.37,0,0,0-.68-.4,1.69,1.69,0,0,1-.68-.64,9.74,9.74,0,0,0-2.36,1.16c-.78.5-1.56,1-2.36,1.56s-1.63,1.05-2.48,1.56a9.94,9.94,0,0,1-2.64,1.08,2.45,2.45,0,0,1-2.12-.12c-.46-.35-1-.74-1.48-1.16l-.72-.6a2,2,0,0,1-.32-1,16,16,0,0,1,0-3.8,17.67,17.67,0,0,1,.92-4.12,12.22,12.22,0,0,1,8.16-8.16,3.09,3.09,0,0,1,1.48-.12,5.71,5.71,0,0,1,1.48.44,8.24,8.24,0,0,1,1.4.8c.45.32.86.64,1.24,1l1.28,1a5.28,5.28,0,0,0,0-2.92,11.71,11.71,0,0,0-1.32-3,14.31,14.31,0,0,0-2-2.52,6.36,6.36,0,0,0-2.16-1.52,14.25,14.25,0,0,0-7.32,1.88,30.39,30.39,0,0,0-6.28,4.92,1.41,1.41,0,0,1-.36.24,2,2,0,0,0-.36.16.71.71,0,0,1-.56.08c-.16-.06-.19-.22-.08-.48a11.55,11.55,0,0,1,1.92-4.6,17,17,0,0,1,3.36-3.56,21.28,21.28,0,0,1,4.08-2.56,19.89,19.89,0,0,1,4.24-1.52,1.7,1.7,0,0,1,.6-.2,4.36,4.36,0,0,1,.68,0,1.8,1.8,0,0,1,1,.32l1.12.72a15.55,15.55,0,0,1,1.6.92,7.06,7.06,0,0,1,1.44,1.24,9.93,9.93,0,0,1,1,1.28Q283.45,422,283.78,422.55Zm-2.72,14.24a5.78,5.78,0,0,0-1.48-1.92,6.68,6.68,0,0,0-2.28-1.32,5.55,5.55,0,0,0-2.76-.2,6.57,6.57,0,0,0-3,1.44q-.48,1-1,2.28a14.24,14.24,0,0,0-.72,2.48,10.93,10.93,0,0,0-.2,2.48,5.77,5.77,0,0,0,.52,2.28,61.06,61.06,0,0,0,5.92-2.4q2.88-1.37,5-2.4a2.08,2.08,0,0,0,.56-.8.81.81,0,0,0,0-.56c-.08-.16-.19-.35-.32-.56A1.42,1.42,0,0,1,281.06,436.79Z"/><path class="cls-1" d="M298.74,408.07c.64,2.88,1.14,5.76,1.52,8.64s.72,5.76,1,8.64.65,5.76,1,8.64.81,5.76,1.4,8.64q-.17,1-.24,1.68c-.06.42-.19.69-.4.8a6.79,6.79,0,0,0-.76.52,3.65,3.65,0,0,1-.76.44.82.82,0,0,0-.32.28,1,1,0,0,1-.36.28.45.45,0,0,1-.36,0,1.3,1.3,0,0,1-.4-.48q-1.53-4.56-2.76-9.2a92.3,92.3,0,0,1-2-9.36,80,80,0,0,1-1-9.56,72.84,72.84,0,0,1,.28-10c0-.8.24-1.31.72-1.52q.31-.17.84.24a4.19,4.19,0,0,0,.92.56,3.56,3.56,0,0,0,.88.28A1.31,1.31,0,0,1,298.74,408.07Z"/><path class="cls-1" d="M338.66,428.47c.1.1.18.16.24.16s.08.05.08.16a1.5,1.5,0,0,1-.36.36,2.27,2.27,0,0,1-1,.28,3.78,3.78,0,0,0-.64.28c-.27.13-.48.22-.64.28-1.44.32-3.14.61-5.08.88s-4,.51-6,.72c-.11,1.86-.15,3.6-.12,5.2s.09,3,.2,4.16c.1.9.53,1.34,1.28,1.32a8.68,8.68,0,0,0,2.32-.44,17.05,17.05,0,0,0,1.72-.76l3.28-1.6c1.25-.62,2.57-1.28,4-2l3.76-2a2.94,2.94,0,0,1-1.2,2.16,12.4,12.4,0,0,1-1.4,1c-.51.32-1,.67-1.56,1a3.11,3.11,0,0,0-1.2,1.2,4,4,0,0,1-1.44,1.36,37.56,37.56,0,0,1-4.48,2.48,24.94,24.94,0,0,1-4.32,1.6,5.81,5.81,0,0,1-1.32.16,3.68,3.68,0,0,0-1.32.24,1.23,1.23,0,0,1-1.48-.16,2.92,2.92,0,0,1-.68-1.6c-.22-2-.36-4.08-.44-6.32s-.1-4.51,0-6.8c-1.61.1-3.08.14-4.44.12a21.23,21.23,0,0,1-3.32-.28,10.75,10.75,0,0,1-2.2-.52,4.84,4.84,0,0,1-1.8-1.16c-.48,0-.63-.23-.44-.68s.33-.84.44-1.16c1.12-.06,2.76-.12,4.92-.2l7-.28q.32-6.64,1.12-12.32a38.47,38.47,0,0,1,1.92-8.48,1,1,0,0,1,.6-1c.4-.19.81-.42,1.24-.68a5.14,5.14,0,0,0,.68-.44,1.57,1.57,0,0,1,1-.28,6,6,0,0,1,1,.68.88.88,0,0,1,.32.68,2.58,2.58,0,0,1-.24,1c-.16.37-.35.85-.56,1.44a8.68,8.68,0,0,0-.48,2c-.22,1.17-.44,2.65-.68,4.44s-.5,3.81-.76,6.08-.48,4.55-.64,6.84c1.76,0,3.44,0,5,0s3,.09,4.24.2Z"/><path class="cls-1" d="M349.85,430.71a15.21,15.21,0,0,1,4.4-4.36,9.4,9.4,0,0,1,5.92-1.4,3.64,3.64,0,0,1,1.05.36l1,.52a7.47,7.47,0,0,1,2.24,1.88,16.51,16.51,0,0,1,1.89,2.8,22.15,22.15,0,0,1,1.4,3.24,21,21,0,0,1,.79,3.12,17.66,17.66,0,0,1,.24,2.24c.06.9.08,1.73.08,2.48-.1,0-.16,0-.16.08s-.05.05-.16,0a2.85,2.85,0,0,1-1-.88,2.49,2.49,0,0,0-.49-.36.92.92,0,0,1-.4-.52c-.1-.53-.22-1.24-.35-2.12a21,21,0,0,0-.68-2.84,21.38,21.38,0,0,0-1.21-3,10.25,10.25,0,0,0-1.76-2.6,4.62,4.62,0,0,0-.68-.6,7.84,7.84,0,0,0-.67-.44,2.48,2.48,0,0,0-1.21-.44,3.19,3.19,0,0,0-1.36,0,9.38,9.38,0,0,0-2.88,1.52,11,11,0,0,0-2.63,2.76,10.56,10.56,0,0,0-1.6,3.8,8.37,8.37,0,0,0,.39,4.64,8.18,8.18,0,0,1,.32,1.16,3,3,0,0,1,.05.84,2.74,2.74,0,0,1-.29.88c-.16.32-.37.74-.63,1.28a3.75,3.75,0,0,1-1.49,1.36,9,9,0,0,0-1.48.88,92.35,92.35,0,0,1-3.56-13.28,94.17,94.17,0,0,1-1.52-12.56,62,62,0,0,1,.37-10.84,32.25,32.25,0,0,1,2-8.2c.15-.64.5-.91,1-.8a1.21,1.21,0,0,1,.65.32l.63.64.56.68a1.48,1.48,0,0,1,.32.76c.06.26.19.4.41.4s.29.13.24.4a80.85,80.85,0,0,0-1,8.16,68.88,68.88,0,0,0-.11,7,57.11,57.11,0,0,0,.51,5.92C349.32,427.4,349.59,429.11,349.85,430.71Z"/><path class="cls-1" d="M389.93,455.91a16.31,16.31,0,0,1-.47,1.64c-.16.45-.33.87-.49,1.24a6.09,6.09,0,0,1-.56,1c-.21.32-.45.72-.71,1.2a3.57,3.57,0,0,0-.85,1.24,2.36,2.36,0,0,1-1.23,1.24,35.44,35.44,0,0,1-4.84,1.52,12.67,12.67,0,0,1-4.45.4.48.48,0,0,0-.36,0,.23.23,0,0,1-.27-.12,1,1,0,0,1,.19-1.32,2.2,2.2,0,0,0,.76-1.16,9.73,9.73,0,0,0,.32-.92,1.67,1.67,0,0,1,.57-.84,10.87,10.87,0,0,1,2.31-.76,18.21,18.21,0,0,0,3-1,10.34,10.34,0,0,0,2.72-1.72,5.27,5.27,0,0,0,1.65-3q.48-2.49.79-5.44c.22-2,.39-4,.53-6s.24-4,.31-6,.15-3.82.2-5.52a18.06,18.06,0,0,1-1.35,2.2c-.59.82-1.23,1.64-1.92,2.44a28.87,28.87,0,0,1-2.08,2.16,10.39,10.39,0,0,1-1.92,1.44,10.37,10.37,0,0,0-1.69,1.08c-.42.34-.85.7-1.28,1.08a1.12,1.12,0,0,1-1.27,0,3.75,3.75,0,0,1-1.45-1.44,20.58,20.58,0,0,1-1.36-3.16c-.42-1.26-.85-2.59-1.27-4s-.86-2.88-1.29-4.4-.85-3-1.28-4.36c-.37-1-.34-1.74.08-2.16a1.76,1.76,0,0,1,1.28-.56c.43,0,.68.12.76.36s.34.38.77.44a1.29,1.29,0,0,1,.84.4,2.72,2.72,0,0,0,.68.56,2.07,2.07,0,0,1,.67.64,4.57,4.57,0,0,1,.44,1.12c.27,1,.5,2,.68,2.84s.38,1.74.56,2.6.4,1.72.65,2.6.51,1.82.83,2.84a22.54,22.54,0,0,0,3.8-3.16,35.18,35.18,0,0,0,3-3.52c.89-1.2,1.67-2.38,2.36-3.52s1.34-2.26,1.92-3.32c.22-.32.48-.78.8-1.36a6.39,6.39,0,0,1,.88-1.28,2.41,2.41,0,0,0,.4-.52,1.22,1.22,0,0,1,.4-.44,1.3,1.3,0,0,1,.4.72c.06.26.11.56.17.88a8.73,8.73,0,0,1-.21,2.92,12.26,12.26,0,0,0-.36,2.28v7.36q0,3.75-.24,7.52c-.16,2.51-.42,5-.79,7.56A52.16,52.16,0,0,1,389.93,455.91Z"/><path class="cls-1" d="M438.49,426.63a1.18,1.18,0,0,1,.2.76,2.27,2.27,0,0,1-.12.6,4.88,4.88,0,0,1-1,1c-.26.16-.72.4-1.36.72a5,5,0,0,0-.44.32.72.72,0,0,1-.44.16,2.64,2.64,0,0,1-1.24-.64c-.56-.43-1.16-.86-1.8-1.28a7.31,7.31,0,0,0-2-1,2.24,2.24,0,0,0-2,.24,16.31,16.31,0,0,0-1.68,3.08,22,22,0,0,0-1.24,4,15.38,15.38,0,0,0-.28,4.24,9,9,0,0,0,1.28,4,13.48,13.48,0,0,0,8.24-1.56,31,31,0,0,0,6.64-5.08,1.82,1.82,0,0,1-.28,1c-.18.29-.36.6-.52.92-.21.48-.44.94-.68,1.4a5.61,5.61,0,0,1-1,1.32,22.72,22.72,0,0,1-2.52,2.32,20,20,0,0,1-3,2,15.06,15.06,0,0,1-3.2,1.28,9.18,9.18,0,0,1-3.24.28,2,2,0,0,1-1.24-.44,4.18,4.18,0,0,0-1.24-.76,4.64,4.64,0,0,0-1.24-.56,3,3,0,0,1-1.16-.64,6.55,6.55,0,0,1-1.2-2.32,12.77,12.77,0,0,1-.56-3.84,29.56,29.56,0,0,1,.28-4,22.06,22.06,0,0,1,.8-3.56c.35-1.07.66-1.9.92-2.48a4.79,4.79,0,0,1,1.44-1.8,14.68,14.68,0,0,1,2.12-1.4c.78-.43,1.56-.83,2.36-1.2l2.24-1Q434.41,422.55,438.49,426.63Z"/><path class="cls-1" d="M452.25,430.71a15.21,15.21,0,0,1,4.4-4.36,9.4,9.4,0,0,1,5.92-1.4,3.49,3.49,0,0,1,1,.36l1,.52a7.47,7.47,0,0,1,2.24,1.88,15.91,15.91,0,0,1,1.88,2.8,20.18,20.18,0,0,1,1.4,3.24,19.93,19.93,0,0,1,.8,3.12,17.66,17.66,0,0,1,.24,2.24c.06.9.08,1.73.08,2.48-.1,0-.16,0-.16.08s-.05.05-.16,0a3,3,0,0,1-1-.88,2.11,2.11,0,0,0-.48-.36.92.92,0,0,1-.4-.52c-.1-.53-.22-1.24-.36-2.12A18.39,18.39,0,0,0,468,435a21.33,21.33,0,0,0-1.2-3,10.25,10.25,0,0,0-1.76-2.6,4.62,4.62,0,0,0-.68-.6,6.77,6.77,0,0,0-.68-.44,2.4,2.4,0,0,0-1.2-.44,3.19,3.19,0,0,0-1.36,0,9.27,9.27,0,0,0-2.88,1.52,11.21,11.21,0,0,0-2.64,2.76A10.93,10.93,0,0,0,454,436a8.38,8.38,0,0,0,.4,4.64,8.18,8.18,0,0,1,.32,1.16,2.67,2.67,0,0,1,0,.84,2.47,2.47,0,0,1-.28.88l-.64,1.28a3.73,3.73,0,0,1-1.48,1.36,9,9,0,0,0-1.48.88,92.35,92.35,0,0,1-3.56-13.28,94.17,94.17,0,0,1-1.52-12.56,63,63,0,0,1,.36-10.84,33.12,33.12,0,0,1,2-8.2c.16-.64.51-.91,1-.8a1.18,1.18,0,0,1,.64.32l.64.64.56.68a1.48,1.48,0,0,1,.32.76c.06.26.19.4.4.4s.29.13.24.4q-.72,4.4-1,8.16a69,69,0,0,0-.12,7,57,57,0,0,0,.52,5.92C451.72,427.4,452,429.11,452.25,430.71Z"/><path class="cls-1" d="M484.89,423l-1.36,1.36c.43-.05,1.08-.18,2-.36a12.31,12.31,0,0,1,2.6-.28,3.51,3.51,0,0,1,1.6.64,2.58,2.58,0,0,1,.8,1.84,24.9,24.9,0,0,0,1,3.88,26.3,26.3,0,0,1,1,3.88,8.73,8.73,0,0,1,0,3.64,5.52,5.52,0,0,1-2.16,3.08,22,22,0,0,1-4,4.68,8.85,8.85,0,0,1-4.6,2.2,7.34,7.34,0,0,1-3.52-.44,4.88,4.88,0,0,1-2.8-2.36c-.16.1-.29.12-.4,0l-.32-.28c-.1-.11-.2-.13-.28-.08s-.15,0-.2-.08a2.22,2.22,0,0,1-.08-.64v-.32a45.13,45.13,0,0,1,.52-5.64,32.74,32.74,0,0,1,1.36-5.52,24.31,24.31,0,0,1,2.4-5,16.59,16.59,0,0,1,3.8-4.2,2.5,2.5,0,0,1,1.76-.32h.4A.84.84,0,0,1,484.89,423Zm-2.72,5.44c-.32-.05-.5-.16-.56-.32a1,1,0,0,1,0-.6c.08-.24.19-.52.32-.84a2.36,2.36,0,0,0,.2-1,10.43,10.43,0,0,0-2.6,3.68,20.58,20.58,0,0,0-1.32,4.44,24.31,24.31,0,0,0-.36,4.44c0,1.44.1,2.69.2,3.76a7.17,7.17,0,0,0,.56,2.2,1.68,1.68,0,0,0,1.2,1,3.42,3.42,0,0,0,2.32-.48,8.89,8.89,0,0,0,3.36-2.88,18.42,18.42,0,0,0,2.08-3.92,17.23,17.23,0,0,0,.52-2.68,8.07,8.07,0,0,0-.12-2.92,3.75,3.75,0,0,0-2-2.68A13.57,13.57,0,0,0,482.17,428.47Z"/><path class="cls-1" d="M507.61,419.83c.43.42.6.77.52,1a.41.41,0,0,1-.52.32,13.71,13.71,0,0,0-2.28.2c-.83.13-1.7.24-2.64.32a21.68,21.68,0,0,1-2.92,0,12.5,12.5,0,0,1-3-.56c-.43-.43-.41-.81,0-1.16a3.56,3.56,0,0,0,1.08-1.56,1.8,1.8,0,0,1,.68-1,2.33,2.33,0,0,1,.92-.36,8.65,8.65,0,0,1,2.2.36,13.89,13.89,0,0,0,2.2.44,11.5,11.5,0,0,1,2.24.44A2.74,2.74,0,0,1,507.61,419.83Zm-1.68,10.88c.32,1.22.57,2.34.76,3.36a29.11,29.11,0,0,1,.4,2.92c.08.93.13,1.88.16,2.84s0,2,0,3.12a1,1,0,0,1-.36.68,2.3,2.3,0,0,0-.52.76,2.57,2.57,0,0,1-.52.88,3.78,3.78,0,0,1-.68.4,6.4,6.4,0,0,0-2,1.36,9.07,9.07,0,0,1-1.4-3.52,34.33,34.33,0,0,1-.48-4.16c-.08-1.44-.16-2.9-.24-4.36a24.93,24.93,0,0,0-.6-4.28c-.16-.75-.11-1.26.16-1.52a2.16,2.16,0,0,1,.88-.56,1.54,1.54,0,0,1,1.24.24c.45.26.89.53,1.32.8a2.7,2.7,0,0,0,1.08.36C505.52,430.05,505.77,430.28,505.93,430.71Z"/><path class="cls-1" d="M532.17,426.63a1.18,1.18,0,0,1,.2.76,2.75,2.75,0,0,1-.12.6,4.88,4.88,0,0,1-1,1c-.26.16-.72.4-1.36.72a5,5,0,0,0-.44.32.72.72,0,0,1-.44.16,2.64,2.64,0,0,1-1.24-.64c-.56-.43-1.16-.86-1.8-1.28a7.31,7.31,0,0,0-2-1,2.24,2.24,0,0,0-2,.24,16.31,16.31,0,0,0-1.68,3.08,21.24,21.24,0,0,0-1.24,4,15.38,15.38,0,0,0-.28,4.24,9,9,0,0,0,1.28,4,13.48,13.48,0,0,0,8.24-1.56,31,31,0,0,0,6.64-5.08,1.82,1.82,0,0,1-.28,1c-.18.29-.36.6-.52.92-.21.48-.44.94-.68,1.4a5.61,5.61,0,0,1-1,1.32,22.72,22.72,0,0,1-2.52,2.32,20,20,0,0,1-3,2,15.06,15.06,0,0,1-3.2,1.28,9.18,9.18,0,0,1-3.24.28,2,2,0,0,1-1.24-.44,4.18,4.18,0,0,0-1.24-.76,4.64,4.64,0,0,0-1.24-.56,3,3,0,0,1-1.16-.64,6.55,6.55,0,0,1-1.2-2.32,12.77,12.77,0,0,1-.56-3.84,29.56,29.56,0,0,1,.28-4,22.06,22.06,0,0,1,.8-3.56c.35-1.07.66-1.9.92-2.48a4.79,4.79,0,0,1,1.44-1.8,14.68,14.68,0,0,1,2.12-1.4c.78-.43,1.56-.83,2.36-1.2l2.24-1Q528.09,422.55,532.17,426.63Z"/><path class="cls-1" d="M557.21,421.51a8.43,8.43,0,0,1,1,1.24,7.87,7.87,0,0,1,.8,1.4,8,8,0,0,1,.68,3,7.07,7.07,0,0,1-1.16,3.56,12.61,12.61,0,0,1-3.48,3.76,10.83,10.83,0,0,1-4.6,1.92,9.26,9.26,0,0,1-3.52,0,8.41,8.41,0,0,1-3.36-1.56,2.64,2.64,0,0,0-.76,1.16,3.09,3.09,0,0,0-.2,1.4,8.06,8.06,0,0,0,.84,2.44,4.43,4.43,0,0,0,1.48,1.8,6.84,6.84,0,0,0,3.8.08,36.14,36.14,0,0,0,5.2-1.48c1.84-.67,3.66-1.42,5.44-2.24l4.6-2.12a.78.78,0,0,1-.2.64,3.79,3.79,0,0,0-.52.56c-.26.26-.56.58-.88,1a4.94,4.94,0,0,1-1.12,1,3.17,3.17,0,0,0-1.2,1.24,3.8,3.8,0,0,1-1.52,1.4l-3.08,1.64c-1,.56-2.06,1.06-3.08,1.52a16.93,16.93,0,0,1-3.08,1,9.46,9.46,0,0,1-3.08.2,5,5,0,0,1-1.72-.56,13.94,13.94,0,0,1-1.64-1.2,8.76,8.76,0,0,0-1.12-.8,4.31,4.31,0,0,1-1-.8,11.91,11.91,0,0,1-1.84-4.28,14,14,0,0,1-.2-4.56,18.26,18.26,0,0,1,1.16-4.48,16.33,16.33,0,0,1,2.32-4,17.89,17.89,0,0,1,2-2.12,15.28,15.28,0,0,1,2.56-1.92,13.52,13.52,0,0,1,3-1.32,9,9,0,0,1,3.16-.4,3.09,3.09,0,0,1,1.16.36l1.16.6c.27.1.6.25,1,.44A4.27,4.27,0,0,1,557.21,421.51Zm-2.32,4.72A2.21,2.21,0,0,0,554,425a6.48,6.48,0,0,0-1.6-.92,6,6,0,0,0-1.76-.44,2.83,2.83,0,0,0-1.28.08,6.86,6.86,0,0,0-1.48.84,11.54,11.54,0,0,0-1.6,1.4,17.47,17.47,0,0,0-1.44,1.72,7.65,7.65,0,0,0-1,1.72,2.29,2.29,0,0,0-.28.76,1,1,0,0,0,0,.76,3.47,3.47,0,0,0,2.88,1.2,10.47,10.47,0,0,0,4-.88,8.48,8.48,0,0,0,3-1.84c.06-.11.18-.3.36-.56a6.8,6.8,0,0,0,.52-.88c.16-.32.31-.64.44-1A1.09,1.09,0,0,0,554.89,426.23Z"/><path class="cls-1" d="M616.71,266.21c.19.12.3-.5.37-.6C616.68,265.62,616.67,266.36,616.71,266.21Z"/><polygon class="cls-1" points="612.65 266.27 612.81 266.06 612.05 266.4 612.65 266.27"/><path class="cls-1" d="M609.35,264.77c-.16,1.11,1.28.38,1.7,1V266l.62-.67C610.91,265.17,609.72,265.27,609.35,264.77Z"/><path class="cls-1" d="M608.74,261.81c-.1.42-.53.12.32.32a.83.83,0,0,1,0-.13A1.34,1.34,0,0,1,608.74,261.81Z"/><path class="cls-1" d="M609,262c.34.15,0-.42,0,0Z"/><path class="cls-1" d="M607.42,261.4l.61-.09c0-.27-.31-.52-.09-.6C607.41,260.66,607.37,260.91,607.42,261.4Z"/><path class="cls-1" d="M606.62,261.86l.31,0C606.94,261.73,606.9,261.67,606.62,261.86Z"/><path class="cls-1" d="M607.57,261.81l-.64,0c0,.19-.19.49.28,0C607,262.11,607.26,261.9,607.57,261.81Z"/><path class="cls-1" d="M607.76,262.1c.13.33.37.63-.24.72C608.43,263.14,608.65,262.41,607.76,262.1Z"/><path class="cls-1" d="M608.69,265.67l.21.46.46-.19C609.13,266,608.81,265.37,608.69,265.67Z"/><path class="cls-1" d="M605.1,259.33a4.86,4.86,0,0,0-.31.87l.45,0C605.16,259.94,604.94,259.63,605.1,259.33Z"/><path class="cls-1" d="M604.79,260.2l-.68,0C604.51,260.54,604.68,260.43,604.79,260.2Z"/><path class="cls-1" d="M606,262.84c.4-.08.81-.19,1.2-.28-.44.06-.91.16-1.36.19Z"/><polygon class="cls-1" points="603.38 258.17 603.92 257.91 603.02 258.25 603.38 258.17"/><path class="cls-1" d="M602.18,257.45c.44-.23.17-.78.52-.86a2.17,2.17,0,0,0-1.27.08C601.8,256.69,602,256.92,602.18,257.45Z"/><path class="cls-1" d="M600.74,256.78a2.79,2.79,0,0,0,.69-.11A1.72,1.72,0,0,0,600.74,256.78Z"/><path class="cls-1" d="M603.38,259.64a1,1,0,0,0,0-.79l-.18.66Z"/><path class="cls-1" d="M603.2,259.53v0l-.36-.3Z"/><path class="cls-1" d="M603.42,259.68l0,0C603.36,259.71,603.36,259.73,603.42,259.68Z"/><path class="cls-1" d="M605,261.56c-.46.14-1.26.09-1,.91C604.46,262.22,604.3,261.76,605,261.56Z"/><path class="cls-1" d="M603.21,260.49l.42.44c.08-.15.13-.41.36-.48Z"/><polygon class="cls-1" points="602.85 260.5 603.21 260.49 603.05 260.33 602.85 260.5"/><path class="cls-1" d="M601.22,257.85a1.21,1.21,0,0,1-.9-.21,2.58,2.58,0,0,0,.73.74C601.2,258.25,601.53,258,601.22,257.85Z"/><path class="cls-1" d="M602.15,258.71h-.07C602.08,258.77,602.09,258.8,602.15,258.71Z"/><path class="cls-1" d="M597.81,255.75l0,.12.08-.08Z"/><path class="cls-1" d="M601,258.51c.14.25.36.21.59.13a1.89,1.89,0,0,1-.56-.26C601,258.45,600.94,258.49,601,258.51Z"/><path class="cls-1" d="M599.87,256.5a2.64,2.64,0,0,0,.15.55C600,256.81,600,256.39,599.87,256.5Z"/><path class="cls-1" d="M602.11,258.51h0C602.17,258.35,602.14,258.41,602.11,258.51Z"/><path class="cls-1" d="M602.11,258.51a2,2,0,0,0-.5.13,1.53,1.53,0,0,0,.47.07A.75.75,0,0,1,602.11,258.51Z"/><path class="cls-1" d="M594.51,258.41a.77.77,0,0,1,1.39.41c.74,0,1.61-1.78,1.88-2.95-.17.19-.32.38-1,.3,0,.38.6,1.4-.13,1.52-.83-.24-.4-.56-.51-1-.2.79-1.46.21-2,1.18l.79.14C594.82,258.11,594.46,258.16,594.51,258.41Z"/><path class="cls-1" d="M598.64,256.6l.24.09a2.2,2.2,0,0,1-.18-1.15,1,1,0,0,0-.84.25l.9.79Z"/><path class="cls-1" d="M599.76,257.34c-.54.41-1.17.27-1.3,1.05.6.41.72-.12,1.23-.09-1-.57.48-.09,0-.89a2.43,2.43,0,0,1,.6.23,3,3,0,0,1-.3-.59v.05h0c0,.09,0,.14,0,.07h0l-.18.16c-.19-.31.06-.17.18-.16l.07-.07h0l-1.13-.41A2.39,2.39,0,0,0,599.76,257.34Z"/><path class="cls-1" d="M602.75,263.32a.3.3,0,0,1,0-.15C602.69,263.2,602.64,263.23,602.75,263.32Z"/><path class="cls-1" d="M602.55,262.73c.12,0,.32-.21.52,0s-.17.27-.27.45c.24-.05.75-.08.47-.62l-.12,0a2.14,2.14,0,0,1-.23-1.46A5,5,0,0,0,602.55,262.73Z"/><path class="cls-1" d="M601,260.16l-1-.3.09.74.17-.28C600.64,260.74,600.78,260.33,601,260.16Z"/><polygon class="cls-1" points="597.92 255.43 598.44 254.96 597.41 255.39 597.92 255.43"/><polygon class="cls-1" points="596.88 254.72 597.28 254.28 596.8 254.36 596.88 254.72"/><path class="cls-1" d="M530.89,232.09l-.27.19A.89.89,0,0,0,530.89,232.09Z"/><path class="cls-1" d="M532.89,232l0-.3C532.84,231.88,532.81,232,532.89,232Z"/><path class="cls-1" d="M571.81,234.88c-.06-.72,0-1.71-.35-1.11l-.23.62A.73.73,0,0,1,571.81,234.88Z"/><path class="cls-1" d="M549.88,229.84c0,.07,0,.14.08.22l.41-.56Z"/><path class="cls-1" d="M549,232.42l-.44-.51A1.79,1.79,0,0,0,549,232.42Z"/><path class="cls-1" d="M520.15,234.38l-.17.72C520.47,235,520.18,234.71,520.15,234.38Z"/><path class="cls-1" d="M586.68,246.55a2,2,0,0,0-.44-.89C586.33,246.23,586.24,246.89,586.68,246.55Z"/><path class="cls-1" d="M531.22,225.13a.48.48,0,0,0-.23.41C531.17,225.42,531.27,225.28,531.22,225.13Z"/><path class="cls-1" d="M585.42,245c0,.09,0,.16.05.24a1.65,1.65,0,0,1,.77.45C586.16,245.23,586,244.86,585.42,245Z"/><path class="cls-1" d="M483.21,250.19h-.12C483.13,250.25,483.16,250.24,483.21,250.19Z"/><path class="cls-1" d="M469.47,251.51a2.88,2.88,0,0,1,.39-.33C469.76,251.2,469.63,251.29,469.47,251.51Z"/><path class="cls-1" d="M593.12,251.3c.23.14.08,0,0,0Z"/><path class="cls-1" d="M592.49,254.12a.55.55,0,0,0-.29.18A.69.69,0,0,1,592.49,254.12Z"/><path class="cls-1" d="M580.72,246.33h0C580.69,246.47,580.69,246.44,580.72,246.33Z"/><path class="cls-1" d="M593.24,251.78a1.4,1.4,0,0,0-.14-.37A1.26,1.26,0,0,0,593.24,251.78Z"/><path class="cls-1" d="M593.39,251.51l.14.2C593.63,251.65,593.65,251.58,593.39,251.51Z"/><path class="cls-1" d="M592.81,251.08a1.3,1.3,0,0,1,.29.33c0-.06,0-.11,0-.11Z"/><path class="cls-1" d="M501.67,238.18l-.08,0C501.45,238.51,501.54,238.42,501.67,238.18Z"/><path class="cls-1" d="M562.26,237.18h0l0,0Z"/><path class="cls-1" d="M561.22,237.2c.7-.55.86-.36,1-.07l.56-1.82Z"/><path class="cls-1" d="M526.12,232.79l.73.5c-.65,1.05-1.25.79-.54,1.53-.19-2,2.45-.52,2.32-2.56l.47.39c-.12,0-.13.11-.25.1.93.9.47-1.51,1.6-1.32.39.12.68.39.44.66l.8-.58a.18.18,0,1,1,0,.36l1.28-.22v.06a6.44,6.44,0,0,1,.77-1.06c.34.28-.16.23-.07.48l.71-.53c.3.52-.28,1.05-.77,1,.73,2,.58-.57,2,.62l-.67.26c.45,1.16,1,.74,1.69,1.46-.16-.38-1.49-1.81-.73-2.32.22.15.5.22.92-.19,0,.73.41.55.91.51l-.05,1c.55-.26.52-.75.85-1.16.61.12.71.86.82,1.5.95.19-.62-1.22.54-1.35.8.38,1.38.06,2.41-.43.54.38-.16.58,0,.87l.58-.71c.12,0,.06.25,0,.37.45-.26.13-1,.83-1.15.32-1,1.19,1.73,2.17.65.17.3-.18.57-.17.94a7.79,7.79,0,0,0,2.16-1.29l.68.77c-.45-.82.45-1.52,1.28-2.07a7.9,7.9,0,0,0-.36-.88c.39-.1.8-.21,1.2-.29.09.19-.09.48-.35.83l.25-.18c.3.44,0,.93-.4,1.39l-.26-.65a3.7,3.7,0,0,0-.82,1.66.79.79,0,0,1,.4-.19.72.72,0,0,0-.17.38c0,.1.17-.09.39-.29v1.09l.15-.4,1.17,1c.6-.41,1.22-.94,1.9-1.38a4,4,0,0,1,2.26-.68c-.62.63-.46,1.2-.76,2.08-.13-1.06-1.28,0-2-.37.39.2.17.61,0,.73l1.62-.44c-.25.71.13.63.39,1,.18-1.51,1.34-.66,2-.86-.13.49-.44.92-1.06.57.36,1.33,1.54-1.32,2-.14-.17-.05-.23-.16-.38.06.54-.28,1.36.4,1,.73l-.17,0c1,.56,3.23,1.38,4,.3a18,18,0,0,1-1,1.53c1.22-1,2.48-1.95,3.79-2.89-.66.9-1.23,3.54-2.36,3.65a.94.94,0,0,0,1.08.5c-.09-.22.31-1.62.59-1.59a7.26,7.26,0,0,0,.42,2.12c-.14-.33,1-1.7,1.35-1.41-.19.19-.81,1.5-1,1.57l1.8-.89c-.39.12-.76,1.21-.79,1.75.07-.34.81.52,1.15.53l-.2-.58c.94.87,2.34-1.38,3.37-.57-.32.2-1.49,1.58-1.07,2.12.71-.57,3.4-2.72,4.77-2.6l-.09.53,1.05.08a46.74,46.74,0,0,1-5.32,2.52c.17.59-.22.55.39.91,0,.52-.71.37-.9.28l1.18,1.15c.53-.88,1.6-.08,2.05-.8-.69-.07-1.38-.15-2.07-.19.51-.88,2.51-1.76,3.37-.88,0,.5-1.24,1.31-1.42,1.6.33-.19,1.3.13,1.24.4l-.72.13c.29.69,1.66-.43,1.72.81.18.22-.15,1.53.25,1.09a14.17,14.17,0,0,1,3.22-4.56,8.68,8.68,0,0,1,.39,2.43c-.2,1-1.87,1.26-2.05,2.11a1.48,1.48,0,0,1,.75-.33c.08.36-.63.59-.06.88.72-.73.95.86.78-.49.66.16.38.57,1,1a3,3,0,0,1,2.6-1.15,1.61,1.61,0,0,0-.35.69c.93.89,1.17,1.68,2.07,2.46-.08.26.17.86-.3,1,.25,0,.59-.19.89,0,0,1.13-.72-.43-1,.74.42-.43,1.26,0,1.9,0,.47-.81-.82-.92-1.45-1a3.72,3.72,0,0,1,3.7-1c1,.4-.2.9.05.88,1.27,1.37,2.64-.66,3.22,1,0,1-1,1.25-1.28,1.78-.82-.29-.62-1.2-1.06-1.53l.27.73c-.37,0-.91-.15-1-.52-.07.88,2.31,2.14,3,3.58.36-.05.88,0,.93-.36l-.42-.21c.09-.77,1.23-.14,1-.74.76,0,1.74-.08,2.16.74l-.45.81c.15-.22-.09-.77-.45-.71.53-.08.23,1.79,1.29,1.1l-.06-.87c.76,0,1.95-.27,2.35.42.3-.92-.2,0,0-1.19-.46,1.32-1.45-1.24-1.74.31.35-1.3-.41-1-.29-2.27-.18.25-.18.61-.57.09a1.59,1.59,0,0,1-.27.12l0-.05v.05s0,0,0,0a1,1,0,0,1,0,.56c-.69.34-1.45-.32-1.94-.27-.2-.35.34-.16.39-.54l-.73.08c.39-.54,0-1.49.88-1.23l-.59-.53c-.11-.59-.51-1.13-1-1.17-.19-.36-1.21-.05-.62-.24l-1.23-.5.1-.13c-.89-.87-2.68-.81-3-2.67a2.19,2.19,0,0,1-1.32-.86l.26-.54c-.55-.19-.89-1.49-1.46-1.17.55-1.6-1.86-2-2.45-2.77l-.5.57a5.07,5.07,0,0,0-2-.94l-.37.56c-.9,0-1.19-1.47-2.15-2.1.21-.16.41.07.48.31-.2-2.06-3-.76-3.37-2.36a.53.53,0,0,1-.62-.42h.08a.44.44,0,0,0-.1-.08c-.05-.17-.09-.36-.16-.54a1.74,1.74,0,0,0,.1.5,2.59,2.59,0,0,0-.94-.3l.26-.69-.08,0c-.16-.4-.43.15-.56.7a2,2,0,0,0-.63.13c.37-1.14-1-.14-.69-1.4-.52.39-1.77-.53-2.56.49.08-.15,0-.28.19-.19-.26-.32-.56-.62-1-.47l.29-.88-1.34.7c-.2-.74-.26-1.13.53-1.52-1.62.39-1.1-.12-2.52.39l.3-.52c-.36-.13-1.25.35-1.26-.19-.33-1.41-3.82-1.79-5.62-3.4-.11,1.8-.76-1-1.23.22,0-.43-.24-.75.2-1-1.19,0-1.49-1.08-2.53-.17,0-.44.38-.53.33-.8-.12.07-.44.26-.5,0s.24-.3.47-.43c-1.17-.22-1.57,1-1.91,2.14-.43-.69-.75-.65-1.31,0-.11-.42-.37-.89.36-.89-.38-.13-2.31-1-2.5-.09-.09-.26-.54-.15-.66,0a7.63,7.63,0,0,0-1.82-.31l.22.19c-.49,1.1-.75.13-1.46.21l0-.11c-1.52-1-.72.33-2.22-.76l0,.72c-.26,1.52-1.34-1-2.3-.45l.31.43c-.51.5-1.32-2.17-1.85-2.38-.11-.14.19-.21.35-.31-1.35-.94-.2.94-1.2,1.15-.19-.51.25-1.29-.43-1.39-.36-.39-2,1.62-2.9.72.22.38.43.76,0,1.08-.69.17-2-1.4-2.56-.13a.48.48,0,0,1-.15-.3c-.52.37-1.71.68-2,1.38-.76-2.47-3.16,1.59-3.43-.7-.55.11-1.09.23-1.63.37v-.24a1.62,1.62,0,0,0-1.62,1.23c-.27-.11-.13-.35-.13-.47-1.61-.2-1.75,0-2.78,1.34l-.29-.7c-.24.46-2.45-.64-3.72.57a.48.48,0,0,1,.08-.36c-1.41,1.27-4.57-.87-4.36,1.92l-.86,1c1.43-.24.16,1.19.86,1.43-.48.32-1.63-.33-1-.67l.14.09c-.2-1.42-1.85.09-2.12-.82-2.67,1-5.53,1.31-8,2.33l.72.88-.87.31c-.33-.13-.66-.66,0-.88-.58-.43-.81.94-.73,1.16-1.36.14-.06-1.38-.43-1.24l-.46.31.16.06c-.22.59-.05,1-.8,1.32-.55,0-.52-.5-.72-.46,0-.07-.11-.07-.29.1l-1.1.43.8.58c-.28.61-1,.44-.1,1.08-1.38-1-4.12,1.47-4.76,1.28a2.8,2.8,0,0,1-1.78,1.58c.28.06.86.85.14,1.11-.73-1.9-1.64-.1-2.88-1,.95.56-1.77,1.28-.34,2-.63.18-.41-.63-1.06-.8-.91,1.45-3.14,1.27-4.59,2.49.11.24.59.42.46,1l-1.54-.59c-.24.3.53,1.46-.53,1.06.2.13.5.34.34.54-3.8.89-5.63,5-10,5.1.7.13.46.36.16.59.27,0,.37.54.61.81l-1.83.08c.34,1-1.32,1-.89,1.88l.29-.42c.13,1.28,2.19,1.49,2.94,2.72-.15-1.46,2.64.44,2.56-1.72.38.09.08.51.38.7-.1-.68.12-1,.82-1.14l0,.16c1.47-1.17,2.47-1.14,4.44-2l-.52-.51a1.37,1.37,0,0,1,.9,0c-.16-1.19-1.09.65-1.35-.6,1.29.86,2.68-1.74,3.91-.57.59-.37-.61-.59,0-1l.4.27-.16-.58c.43-.17.92.19,1.14.49-.12,0-.21.26-.29.35.77.13,1.3-1,1.57-1l-.71.12c1.38-1.36,3.64-2,4.76-3.74l-.29-.22c.91-1.23,1.15-.24,2.34-1.24v.09a1.4,1.4,0,0,1,.77-1c-.15.53,1,.33.77,1,1-1.31.4-.82.69-2.39l.47.38c.06-.6,0-.85.58-1.33-.34.71.83.53.49,1.41,2,.34,1.56-2.19,3-.91,0-1.7-1.63-.16-1.4-.63-.54-.3,0-1.3.56-1.39s1.64,1.38,2.78.81c-.12.05-.08.16-.19.21.6.15.62-.88,1.42-.54-.08-1,.72-.27.32-1.39l-1,.74c.47-.55.47-2.11,1.77-1.92a2.19,2.19,0,0,1-.29.92c.43.19.47-.46.92-.26.39,1.12-1.21.8-1.48,1.93.52.32.87-1.34,1.07,0-.19-1.71,1.23-.3,1.53-1.79l.22.68c.09-.16.22-.58.45-.66l-.06,1c.34-1,1.5.12,1.95-.52-1.28.53-.61-.68-1.36-.94,1.27-1.52,1.62,1.36,3.27.35-.2.19-1.06,0-.8-.5a2.12,2.12,0,0,1,1.28.36c1.14-.56-.43-.62-.07-1.21.7.67.46-.55.9-1l.25.68c1.52,0-.14-1.57,1.3-1.45l-.21,1.12.57-.45.13.82c.51-.8.78-.73,1.54-.73a1,1,0,0,1,.31-1.5c.54.29,0,.72.81.37-.07.5-.12,1.09-.69.58,0,.23-.06.49,0,.73.59.32,1.15-.22,1.47-.32a.64.64,0,0,1-.39-.07l1-1.33c.27.21.17.47.07.72.23-.15.32-.52.69-.69.05.59.23,1.17-.22,1.59.34-.32.68-.66,1-1,.14.23.79.53.69.78.74.18,1.35-1.53,2.35-1.27a.55.55,0,0,1,.27-.37c.87,0,1.74.5,2.59-.47l.75.94c.74-.37-1-1.18.25-1.79.87-.49.49.83.86,1.07.37-.62,1-1.81,2-1.06C526.62,232.81,526.37,232.68,526.12,232.79Zm9.76-1.19c-.19.16-.56.63-.71.2C535.38,231,535.55,231.37,535.88,231.6Zm15.15-.07c-.2.2-.38,0-.57-.3A.67.67,0,0,1,551,231.53Zm39.44,18.31,0,0C590.27,249.36,590.32,249.54,590.47,249.84Zm.5.84a.28.28,0,0,0,.23-.2c-.17.09-.34,0-.48-.22C590.65,250.45,590.65,250.63,591,250.68ZM497,235l.25.09C496.94,235.42,497,235.21,497,235Z"/><path class="cls-1" d="M549.14,232.12a1.34,1.34,0,0,1,0-.4A.27.27,0,0,0,549.14,232.12Z"/><path class="cls-1" d="M520.18,234.25h0v.13Z"/><path class="cls-1" d="M576.08,246.25a.88.88,0,0,1-.05-.52A.36.36,0,0,0,576.08,246.25Z"/><path class="cls-1" d="M595.47,252.81l-.57-.22c.24.15.22.33.26.51C595.25,253,595.32,252.7,595.47,252.81Z"/><path class="cls-1" d="M596.7,259.45c.12,0,.15.11.27.09l.19-.29C596.85,259.05,596.48,259.11,596.7,259.45Z"/><path class="cls-1" d="M594.38,255c-.35.51.07.58.46.74l-.06,0C595.41,255.12,594.89,255.07,594.38,255Z"/><path class="cls-1" d="M594.93,255.8a.93.93,0,0,1,.3.22C595.48,255.79,595.16,255.87,594.93,255.8Z"/><path class="cls-1" d="M592.12,251.11c0,.25.59-.52.51-.26C593.3,250.4,591,250.74,592.12,251.11Z"/><polygon class="cls-1" points="593.38 256.79 593.74 256.11 593.18 256.43 593.38 256.79"/><path class="cls-1" d="M591.19,254.29l.38.59a.27.27,0,0,1,.3-.09C591.57,254.51,591.33,254.11,591.19,254.29Z"/><path class="cls-1" d="M591.87,254.79a.61.61,0,0,0,.49.24A1.72,1.72,0,0,0,591.87,254.79Z"/><polygon class="cls-1" points="592.53 256.39 592.48 256.15 592.15 255.81 592.53 256.39"/><path class="cls-1" d="M585.85,249.59l-.7-.3c-.22.15-.17.4.1.49S585.77,249.85,585.85,249.59Z"/><path class="cls-1" d="M586.18,252.58c0-.25.05-.38.13-.64l-.62.69Z"/><path class="cls-1" d="M584.43,251.38c-.22.15-1.28-.11-.54.43C584.11,251.66,584.8,252,584.43,251.38Z"/><polygon class="cls-1" points="576.8 243.56 576.95 243.66 577.87 242.44 576.8 243.56"/><path class="cls-1" d="M567.06,241.08c.48.75.67-.69,1,.1.35-.19-.3-.65,0-.8C567.51,240.41,567.4,240.12,567.06,241.08Z"/><path class="cls-1" d="M568.13,240.38a2.54,2.54,0,0,0,.34,0A.83.83,0,0,0,568.13,240.38Z"/><polygon class="cls-1" points="467.34 252.03 466.7 252.09 467.29 252.3 467.34 252.03"/><path class="cls-1" d="M467.13,253.57l-.68-.72.24.91C466.77,253.65,466.92,253.44,467.13,253.57Z"/><path class="cls-1" d="M537.31,233.56l0-.23c-.07-.25-.19-.27-.43-.31Z"/><polygon class="cls-1" points="530.31 233.09 530.43 233.1 530.13 232.25 530.31 233.09"/><path class="cls-1" d="M524.62,234.94c.24,0,.48-.24.73-.25C524.86,234.94,524.38,233.87,524.62,234.94Z"/><path class="cls-1" d="M611.54,202.4c.23-.15-.28-.54-.33-.64C611,202.18,611.66,202.51,611.54,202.4Z"/><polygon class="cls-1" points="609.39 206.57 609.26 206.33 609.25 207.24 609.39 206.57"/><path class="cls-1" d="M606.5,209.56c1,.45.92-1.21,1.7-1.48l.27.08-.39-.84C607.55,208.07,607.15,209.31,606.5,209.56Z"/><path class="cls-1" d="M603.29,209.59c.4.19-.06.6.45-.29h-.14A1.5,1.5,0,0,1,603.29,209.59Z"/><path class="cls-1" d="M603.6,209.3c.28-.34-.45,0,0,0Z"/><path class="cls-1" d="M602.39,211l.13-.68c-.27-.08-.66.26-.66,0C601.6,210.85,601.87,210.92,602.39,211Z"/><path class="cls-1" d="M602.59,211.88l.09-.33C602.57,211.52,602.49,211.56,602.59,211.88Z"/><path class="cls-1" d="M602.87,210.86l-.19.69c.19.06.45.29.11-.29C603,211.51,602.85,211.21,602.87,210.86Z"/><path class="cls-1" d="M603.24,210.71c.39-.08.78-.29.66.39C604.54,210.19,603.88,209.8,603.24,210.71Z"/><path class="cls-1" d="M607.16,210.47l.52-.09v-.52C607.68,210.12,606.89,210.26,607.16,210.47Z"/><path class="cls-1" d="M599.55,213.23c.15.18.58.27.83.43l.09-.49C600.21,213.23,599.82,213.44,599.55,213.23Z"/><path class="cls-1" d="M600.38,213.66l-.14.73C600.66,214,600.59,213.8,600.38,213.66Z"/><polygon class="cls-1" points="603.4 212.76 603.51 211.44 603.27 212.91 603.4 212.76"/><polygon class="cls-1" points="597.9 215.02 597.74 214.4 597.91 215.41 597.9 215.02"/><path class="cls-1" d="M596.89,216.29c-.15-.49-.79-.22-.81-.61a2.44,2.44,0,0,0-.17,1.38C596,216.67,596.3,216.42,596.89,216.29Z"/><path class="cls-1" d="M595.9,217.81a3.66,3.66,0,0,0,0-.75A1.69,1.69,0,0,0,595.9,217.81Z"/><path class="cls-1" d="M599.43,215.12a1,1,0,0,0-.82-.06l.64.24Z"/><path class="cls-1" d="M599.27,215.31h0l-.39.38Z"/><path class="cls-1" d="M599.47,215.08l0,0C599.49,215.15,599.52,215.15,599.47,215.08Z"/><path class="cls-1" d="M601.85,213.6c0,.52-.23,1.35.68,1.16C602.39,214.27,601.87,214.38,601.85,213.6Z"/><path class="cls-1" d="M600.28,215.38l.56-.4c-.14-.1-.4-.18-.41-.43Z"/><polygon class="cls-1" points="600.21 215.76 600.28 215.38 600.07 215.53 600.21 215.76"/><path class="cls-1" d="M597.12,217.34a1.51,1.51,0,0,1-.39,1,3.74,3.74,0,0,0,.92-.74C597.54,217.39,597.38,217,597.12,217.34Z"/><path class="cls-1" d="M598.21,216.39l0,.07C598.26,216.47,598.29,216.46,598.21,216.39Z"/><path class="cls-1" d="M594.38,221l.13,0-.07-.08Z"/><path class="cls-1" d="M597.78,217.59c.29-.13.29-.37.25-.62a3,3,0,0,1-.38.59C597.7,217.64,597.74,217.68,597.78,217.59Z"/><path class="cls-1" d="M595.47,218.75a3.9,3.9,0,0,0,.59-.14C595.81,218.58,595.38,218.6,595.47,218.75Z"/><path class="cls-1" d="M598,216.42a.11.11,0,0,0,0,0C597.84,216.35,597.89,216.38,598,216.42Z"/><path class="cls-1" d="M598,216.42a1.73,1.73,0,0,0,0,.55,1.67,1.67,0,0,0,.16-.51A.79.79,0,0,1,598,216.42Z"/><path class="cls-1" d="M596.77,224.47a.84.84,0,0,1,.58-1.43c.1-.78-1.65-1.76-2.84-2.06.18.19.36.35.18,1.08.4,0,1.55-.61,1.58.17-.35.86-.63.4-1.15.52.8.21.07,1.55,1,2.12l.22-.83C596.49,224.14,596.51,224.53,596.77,224.47Z"/><path class="cls-1" d="M595.39,220.07l.13-.25a2.58,2.58,0,0,1-1.23.18c-.09.53,0,.75.15.9l.95-1Z"/><path class="cls-1" d="M596.33,218.9c.34.58.11,1.26.9,1.42.5-.63,0-.78.08-1.32-.74,1.07,0-.52-.92-.06a2.55,2.55,0,0,1,.34-.64,3.72,3.72,0,0,1-.67.31h.06c.1,0,.15,0,.07,0s0,0,0,0a.9.9,0,0,1,.14.2c-.35.2-.17-.06-.14-.2l-.07-.08h0l-.59,1.21A3.11,3.11,0,0,0,596.33,218.9Z"/><path class="cls-1" d="M603.1,216.21a.23.23,0,0,1-.14-.07C603,216.25,603,216.31,603.1,216.21Z"/><path class="cls-1" d="M602.45,216.34c0-.13-.14-.36.11-.54s.23.21.4.34c0-.25.09-.79-.53-.57v.12c-.52.24-1.57.2-1.57.07A4.93,4.93,0,0,0,602.45,216.34Z"/><path class="cls-1" d="M599.49,217.75l-.49,1,.79,0-.27-.21C600,218.15,599.63,218,599.49,217.75Z"/><polygon class="cls-1" points="594.06 220.83 593.64 220.27 593.96 221.38 594.06 220.83"/><polygon class="cls-1" points="593.19 221.94 592.78 221.51 592.81 222.02 593.19 221.94"/><path class="cls-1" d="M537.26,277.81l-.28.25A1,1,0,0,0,537.26,277.81Z"/><path class="cls-1" d="M539.58,277.17l0-.3C539.49,277.06,539.48,277.19,539.58,277.17Z"/><path class="cls-1" d="M570.32,247.31c-.72-.07-1.68-.32-1.17.11l.56.36A.79.79,0,0,1,570.32,247.31Z"/><path class="cls-1" d="M555.34,265.53l.22.09c0-.25-.07-.48-.11-.69C555.42,265.11,555.38,265.32,555.34,265.53Z"/><path class="cls-1" d="M556.61,267.93h-.76A1.77,1.77,0,0,0,556.61,267.93Z"/><path class="cls-1" d="M524.61,281.08l-.29.7C524.92,281.7,524.61,281.4,524.61,281.08Z"/><path class="cls-1" d="M583.92,232.87a2.32,2.32,0,0,0-.95.48C583.57,233.24,584.25,233.32,583.92,232.87Z"/><path class="cls-1" d="M536.22,270.92a.45.45,0,0,0-.14.45C536.23,271.21,536.3,271.06,536.22,270.92Z"/><path class="cls-1" d="M582.22,234.2l.25,0a1.89,1.89,0,0,1,.5-.8C582.53,233.42,582.14,233.61,582.22,234.2Z"/><path class="cls-1" d="M479.46,268.6s0-.08,0-.12S479.4,268.57,479.46,268.6Z"/><path class="cls-1" d="M473,255.25a2.33,2.33,0,0,1,.45.3C473.43,255.45,473.3,255.36,473,255.25Z"/><path class="cls-1" d="M589.26,226c.17-.26,0-.09,0,0Z"/><path class="cls-1" d="M592.15,226.6a.45.45,0,0,0,.16.3A.63.63,0,0,1,592.15,226.6Z"/><path class="cls-1" d="M583.27,239.1l0,0C583.4,239.14,583.38,239.13,583.27,239.1Z"/><path class="cls-1" d="M589.78,225.85a1.67,1.67,0,0,0-.4.16A1.38,1.38,0,0,0,589.78,225.85Z"/><path class="cls-1" d="M589.51,225.7l.22-.16C589.67,225.44,589.6,225.42,589.51,225.7Z"/><path class="cls-1" d="M589,226.33a1.36,1.36,0,0,1,.36-.32c-.07,0-.11,0-.12,0Z"/><path class="cls-1" d="M502.63,278.67s0,0-.05-.08C502.2,278.78,502.35,278.77,502.63,278.67Z"/><path class="cls-1" d="M569.49,257.54v0h0Z"/><path class="cls-1" d="M569,258.64c-.21-.91.06-1,.42-1.13l-1.53-1.13Z"/><path class="cls-1" d="M531.73,279.34l.89.42c-.73,1.13-1.49.94-.59,1.6-.31-2,3-.88,2.61-2.89l.61.29c-.15,0-.14.14-.29.15,1.22.7.37-1.58,1.67-1.64.48,0,.86.22.63.54l.83-.77c.29,0,.32.32,0,.36l1.42-.59v.06a9.35,9.35,0,0,1,.59-1.27c.46.15-.12.27.06.47l.64-.74c.49.39,0,1.1-.59,1.22,1.41,1.67.5-.71,2.53-.16l-.68.51c.89.91,1.36.33,2.49.63-.35-.24-2.39-1-1.69-1.83.3.06.65,0,1-.58.27.67.66.32,1.21.05l.33.9c.52-.51.28-.94.47-1.48.71-.21,1.15.39,1.58.89,1.15-.38-1.25-.74,0-1.5,1.05-.09,1.53-.73,2.29-1.8.76,0,.16.57.51.7l.18-1c.14-.06.21.17.24.29.31-.5-.42-.86.16-1.47-.34-1,2.18.5,2.42-1,.36.1.21.56.47.83a6.21,6.21,0,0,0,1-2.6h1.13c-1-.22-.71-1.39-.51-2.41-.4-.14-.73-.27-.93-.31l.66-1.11c.21,0,.31.38.38.82a1.87,1.87,0,0,0,0-.32c.56,0,.7.62.76,1.24l-.69-.23a3.63,3.63,0,0,0,.61,1.77.78.78,0,0,1,.18-.45.54.54,0,0,0,.15.38c.09.05.07-.2.09-.51l.85.7-.19-.38,1.71-.41c.27-1.57.09-3.41,1.18-4.87.15.89.73,1,1.3,1.79-1-.45-.83,1.2-1.7,1.63a.42.42,0,0,1,.63.39c.26-.58.53-1.15.77-1.74.45.61.63.22,1.17.18-1.2-1,.33-1.56.56-2.35.35.36.56.86-.16,1.29,1.44.29-.23-2.1,1.07-1.94-.15.14-.28.15-.17.39.06-.64,1.16-1.12,1.25-.61l-.15.14c1.14-.72,3.06-2.71,2.35-3.78a13.47,13.47,0,0,1,1,1.5c-.37-1.59-.75-3.17-1.17-4.76.6,1,3,2.3,2.58,3.52a1.3,1.3,0,0,0,1-1c-.27,0-1.48-.78-1.34-1.05,1.43.32.86.08,2.31.14-.4.06-1.33-1.43-.92-1.74.12.24,1.21,1.19,1.19,1.45l-.25-2.1c0,.44,1,1.06,1.5,1.2-.33-.14.8-.76.93-1.12l-.66.11c1.2-.85-.67-2.69.39-3.63.13.37,1.23,1.81,1.9,1.44-.39-.84-2-4-1.58-5.31l.52.17.26-1.07a28,28,0,0,1,1.45,5.84c.66-.12.52.3,1.05-.32.53.12.2.81,0,1l1.53-1.15c-.78-.64.27-1.74-.39-2.27l-.66,2.2c-.78-.65-1.24-2.84-.2-3.67.52,0,1.13,1.42,1.39,1.63-.13-.36.38-1.38.64-1.3v.79c.78-.29-.15-1.8,1.16-1.8.26-.18,1.58.22,1.18-.23a12.84,12.84,0,0,1-4.27-3.59,10.71,10.71,0,0,1,2.54-.3c1,.24,1.08,2,1.93,2.22a1.38,1.38,0,0,1-.25-.79c.39-.08.54.67.92.07-.68-.78,1-1-.42-.83.24-.7.64-.39,1.15-1-.66-.26-1.18-2-.94-2.74a1.51,1.51,0,0,0,.68.36c1-1,1.84-1.22,2.71-2.19.27.08.91-.19,1.06.3,0-.26-.15-.62.09-.94,1.18,0-.49.76.7,1-.41-.44.07-1.33.17-2-.8-.48-1,.87-1.1,1.55a3.79,3.79,0,0,1-.83-3.87c.48-1,.93.19.91-.07,1.51-1.37-.52-2.75,1.28-3.41,1,0,1.22,1,1.76,1.31-.35.86-1.27.67-1.64,1.14l.77-.3c0,.39-.22,1-.61,1,.92.06,2.36-2.48,3.9-3.22,0-.39.08-.93-.31-1l-.24.44c-.79-.08-.07-1.29-.71-1,.1-.8.05-1.83.94-2.29l.81.47c-.22-.16-.82.1-.78.48,0-.56,1.88-.26,1.26-1.37l-.92.07c.1-.8-.1-2.07.67-2.5-.93-.32,0,.21-1.24,0,1.34.49-1.43,1.56.15,1.86-1.32-.36-1.08.44-2.39.35.24.18.62.17.05.59a1.66,1.66,0,0,1,.1.29l-.05,0h.05c0,.05,0,.06,0,0a1,1,0,0,1,.58,0c.3.72-.45,1.54-.42,2.06-.38.21-.15-.36-.54-.41l0,.78c-.55-.4-1.57.08-1.22-.91l-.6.64a1.59,1.59,0,0,0-1.28,1.09c-.38.21-.12,1.27-.28.65l-.59,1.3-.14-.1c-.95,1-1,2.83-2.93,3.17a2.45,2.45,0,0,1-1,1.37l-.53-.28c-.24.57-1.6.92-1.31,1.5-1.59-.58-2.15,1.85-3,2.42l.54.54a5.78,5.78,0,0,0-1.18,2l.53.42c-.11.92-1.66,1.09-2.43,2-.13-.24.13-.4.39-.45-2.08,0-1.27,2.91-3,3.07a.56.56,0,0,1-.55.55.13.13,0,0,0,0-.08s-.06.05-.1.08l-.56.06a1.46,1.46,0,0,0,.52,0,3,3,0,0,0-.51.88l-.62-.4-.05.08c-.44.06,0,.44.56.69a1.79,1.79,0,0,0,0,.65c-1-.62-.41,1-1.56.36.25.61-1,1.61-.26,2.66-.12-.12-.26-.1-.12-.24-.4.18-.79.35-.81.86l-.76-.54.2,1.51c-.78,0-1.16-.12-1.25-1-.2,1.69-.49,1-.58,2.54l-.36-.47c-.28.28-.22,1.29-.72,1.09-1.39-.26-3.39,2.79-5.8,3.38,1.43,1.08-1.3.06-.52,1.16-.36-.25-.75-.24-.69-.74-.65,1-1.74.52-1.66,1.9-.36-.25-.18-.63-.41-.75,0,.12-.08.49-.32.36s-.07-.37,0-.62c-.87.72-.22,1.82.41,2.84-.81-.11-1,.12-.89,1-.4-.21-.91-.35-.4-.88-.37.2-2.36.88-1.87,1.72-.24-.14-.51.25-.55.4a7.52,7.52,0,0,0-1.64.92h.29c.28,1.17-.5.62-1.07,1.07l0-.11c-1.86,0-.45.69-2.33.61l.41.6c.54,1.46-1.72-.2-2.31.74l.48.22c-.26.73-2.17-1.32-2.7-1.33-.15-.08.08-.26.18-.41-1.56-.35.21.93-.63,1.51-.36-.4-.27-1.29-.91-1.13-.42-.24-1.23,2.21-2.42,1.59.32.31.64.61.29,1.05-.64.39-2.28-.84-2.54.53a.5.5,0,0,1-.21-.26c-.43.46-1.56,1-1.72,1.72-1.09-2.3-3.08,2-3.58-.27l-1.64.45V273a1.74,1.74,0,0,0-1.66,1.28c-.27-.11-.13-.35-.13-.47-1.65-.22-1.78-.1-2.94,1.24l-.25-.72c-.3.51-2.44-.87-3.88.18a.51.51,0,0,1,.13-.35c-1.67,1.1-4.38-1.68-4.8,1.1l-1.12.76c1.53.08-.14,1.19.51,1.59-.6.22-1.59-.77-.87-.91l.12.13c.18-1.42-1.86-.46-1.83-1.42-.35,0-.71,0-1.06,0l-1-.14c-.69-.12-1.37-.23-2-.4l-3.85-1.14.05,1.14-.9-.27c-.17-.31-.1-.91.52-.72-.17-.68-1.19.26-1.28.48-1.12-.79.83-1.09.45-1.23a4.81,4.81,0,0,1-.53-.07l.08.16c-.53.3-.71.74-1.45.45-.42-.36,0-.72-.21-.82,0-.08,0-.13-.28-.12a11,11,0,0,1-1.05-.48l.13,1c-.63.21-1-.46-.85.67-.12-.87-1.09-1.39-2.07-1.81s-1.95-.79-2.07-1.11a2.74,2.74,0,0,1-2.37-.63c.12.26-.23,1.19-.88.7.62-.81.41-1.18.06-1.53a1.77,1.77,0,0,1-.7-1.53c0,1.12-2-1-2,.66-.48-.48.36-.65.19-1.32-1.74-.21-2.61-2.31-4.34-3.24-.18.2-.14.71-.72.79l-.07-1.67c-.38-.12-1.18,1-1.21-.14-.05.23-.13.59-.39.5-2.33-3.31-6.95-4-8.54-8.39.1.74-.21.55-.55.31.14.26-.41.5-.59.82l-.68-1.82c-.86.58-1.44-1.07-2.17-.44l.52.2c-1.25.43-.79,2.55-1.77,3.61,1.41-.5.43,2.77,2.58,2.16,0,.4-.47.21-.56.56.64-.27,1-.13,1.43.55l-.16.07c1.71,1.16,2,2.2,3.62,3.95l.3-.67a1.64,1.64,0,0,1,.36.91c1.11-.5-1.08-.91.06-1.53-.36,1.56,2.78,2.18,2.18,3.75.62.47.3-.79.92-.32l-.1.48.5-.35a1.11,1.11,0,0,1,0,1.3c-.07-.11-.34-.12-.47-.18.22.83,1.63,1,1.72,1.23l-.46-.66c2,.91,3.83,2.88,6.08,3.22l.05-.36c1.68.29.89,1,2.53,1.63l-.09,0a1.71,1.71,0,0,1,1.36.22c-.58.13.37,1.07-.35,1.17,1.85.24,1,0,2.58-.62v.61c.58-.28.72-.51,1.56-.27-.85.13.15,1-.85,1.23,1.18,1.94,3,0,3.11,2,1.36-1.11-1.17-1.39-.6-1.52-.17-.6,1.08-.8,1.54-.45s.2,2.25,1.69,2.67c-.15-.05-.19.05-.34,0,.43.55,1.23-.16,1.71.66.62-.77.85.31,1.28-.82a12.6,12.6,0,0,1-1.39-.12c.83,0,1.88-1.22,2.93-.28a2.2,2.2,0,0,1-.88.54c.28.43.75-.06,1.05.38-.37,1.12-1.7-.11-2.75.52.25.62,1.79-.45,1,.71,1-1.45,1.45.56,2.72-.44l-.2.69c.19-.08.59-.36.88-.3l-.71.83c1-.65,1.53.93,2.43.63-1.73-.24-.27-.91-.91-1.53,2.16-.65.94,2.08,3.4,1.89-.34.08-1.19-.5-.65-.8a2.87,2.87,0,0,1,1.28.88c1.6-.06-.21-.75.48-1.15.5.91.78-.31,1.44-.61v.72c1.78.42.43-1.51,2-1l-.62,1,.82-.29-.13.83a1.9,1.9,0,0,1,2-.35,1,1,0,0,1,.73-1.4c.54.38-.22.7.81.51-.19.47-.41,1.06-.91.44,0,.24-.2.47-.23.71.58.44,1.37,0,1.75-.05a.66.66,0,0,1-.42-.13l1.42-1.13c.26.25.09.49-.07.72.3-.11.47-.45.92-.57-.06.59,0,1.21-.58,1.54.46-.26.92-.54,1.38-.81.12.24.82.61.66.85.85.24,1.84-1.36,3-1.05a.66.66,0,0,1,.35-.36c1,0,2,.55,3.08-.43l.86.93c.88-.42-1.14-1.13.33-1.82,1-.54.57.8,1,1,.45-.63,1.17-1.88,2.35-1.23C532.32,279.31,532,279.2,531.73,279.34Zm11.15-3.64c-.16.21-.43.81-.74.46C542.11,275.29,542.43,275.6,542.88,275.7Zm14.62-10c0,.29-.27.34-.66.29A.78.78,0,0,1,557.5,265.69Zm30.06-36.86s0,0,0,0C587,229.05,587.24,229,587.56,228.83Zm.9-.55a.26.26,0,0,0-.19-.24c.09.18,0,.35-.26.51C588.2,228.62,588.39,228.61,588.46,228.28ZM501,273.12l.11.23C500.64,273.42,500.81,273.28,501,273.12Z"/><path class="cls-1" d="M556.47,267.65a1.06,1.06,0,0,1-.3-.26C556.17,267.54,556.25,267.65,556.47,267.65Z"/><path class="cls-1" d="M524.67,280.94h0a.68.68,0,0,0,0,.14Z"/><path class="cls-1" d="M582.68,244a.89.89,0,0,1-.55,0C582.26,244.17,582.43,244.2,582.68,244Z"/><path class="cls-1" d="M591,223.46l-.28.61c.18-.25.37-.23.56-.28C591.19,223.69,590.92,223.62,591,223.46Z"/><path class="cls-1" d="M598.1,222.22c0-.13.12-.16.12-.29l-.27-.2C597.7,222.05,597.72,222.44,598.1,222.22Z"/><path class="cls-1" d="M593.25,224.6c.49.36.6-.08.81-.49l0,.06C593.45,223.51,593.35,224.06,593.25,224.6Z"/><path class="cls-1" d="M594.11,224a1,1,0,0,1,.27-.33C594.16,223.43,594.21,223.77,594.11,224Z"/><path class="cls-1" d="M589,227.06c.26-.06-.5-.62-.23-.54C588.34,225.83,588.53,228.21,589,227.06Z"/><polygon class="cls-1" points="594.99 225.65 594.32 225.27 594.61 225.86 594.99 225.65"/><path class="cls-1" d="M592.23,228l.63-.4c-.1-.08-.09-.19-.06-.32C592.49,227.56,592.05,227.83,592.23,228Z"/><path class="cls-1" d="M592.8,227.24a.77.77,0,0,0,.29-.51A1.43,1.43,0,0,0,592.8,227.24Z"/><polygon class="cls-1" points="594.51 226.54 594.26 226.59 593.88 226.94 594.51 226.54"/><path class="cls-1" d="M587,233.69l-.36.73c.14.23.4.17.52-.12S587.28,233.76,587,233.69Z"/><path class="cls-1" d="M590.14,233.26c-.26.06-.4,0-.66-.12l.68.64Z"/><path class="cls-1" d="M588.78,235.13c.14.23-.2,1.35.42.56C589.06,235.46,589.42,234.73,588.78,235.13Z"/><polygon class="cls-1" points="579.98 243.17 580.1 243.01 578.96 242 579.98 243.17"/><path class="cls-1" d="M575.34,253.31c.93-.42-.51-.83.42-1.11-.1-.41-.76.23-.82-.15C574.8,252.72,574.44,252.78,575.34,253.31Z"/><path class="cls-1" d="M574.94,252.05a2,2,0,0,0,0-.37A.91.91,0,0,0,574.94,252.05Z"/><polygon class="cls-1" points="471.82 253.23 471.55 252.61 471.53 253.25 471.82 253.23"/><path class="cls-1" d="M470.21,253.4l.5-.85-.83.46C470,253.06,470.27,253.16,470.21,253.4Z"/><path class="cls-1" d="M545.25,276.86l0-.24c-.19-.19-.34-.15-.64-.08Z"/><polygon class="cls-1" points="536.75 278.95 536.89 278.93 536.4 278.15 536.75 278.95"/><path class="cls-1" d="M529.94,281.62c.3,0,.6-.28.9-.3C530.24,281.6,529.66,280.55,529.94,281.62Z"/><path class="cls-1" d="M490.19,253.14c.07,0-.55.14-.66.17A1.79,1.79,0,0,1,490.19,253.14Z"/><polygon class="cls-1" points="491.57 252.7 491.31 252.7 491.94 252.72 491.57 252.7"/><path class="cls-1" d="M491.53,252.84c1.07,0-.16-.06.23-.07H492l-.86,0C491.27,252.77,491.83,252.83,491.53,252.84Z"/><path class="cls-1" d="M489.22,252.78c.41,0,.35,0,.13,0h-.1S489.25,252.78,489.22,252.78Z"/><path class="cls-1" d="M489.25,252.77Z"/><path class="cls-1" d="M489.47,252.81l-.36,0-.47,0Z"/><path class="cls-1" d="M490.23,252.88l-.15,0Z"/><path class="cls-1" d="M489.76,252.83l.32,0c.17,0,.51,0-.11,0Z"/><path class="cls-1" d="M489.92,252.83c.23,0,.38,0,.74,0A4.07,4.07,0,0,0,489.92,252.83Z"/><path class="cls-1" d="M492.62,252.89h.32l-.35,0C492.76,252.87,492.29,252.88,492.62,252.89Z"/><path class="cls-1" d="M488.91,252.8l.87.08-.25,0Z"/><path class="cls-1" d="M489.78,252.88l.36.05Z"/><polygon class="cls-1" points="491.39 252.97 490.6 252.88 491.39 252.97 491.39 252.97"/><polygon class="cls-1" points="488.87 252.81 488.38 252.75 489.12 252.85 488.87 252.81"/><path class="cls-1" d="M489,252.83l-.94-.12.73.1Z"/><path class="cls-1" d="M489.19,252.88l-.45-.07Z"/><path class="cls-1" d="M490,252.94l-.62-.07.61.07Z"/><path class="cls-1" d="M490,252.94h0Z"/><path class="cls-1" d="M490,252.94h0Z"/><path class="cls-1" d="M490.8,253c.34,0,.69.1,1.23.12Z"/><path class="cls-1" d="M490.79,253h.15l-.56-.06Z"/><polygon class="cls-1" points="490.98 253.04 490.79 253.01 490.74 253.01 490.98 253.04"/><path class="cls-1" d="M489.75,253a2,2,0,0,1,.31.06h.2Z"/><path class="cls-1" d="M489.94,253h0S490,253,489.94,253Z"/><path class="cls-1" d="M490,253.05h0Z"/><path class="cls-1" d="M490.37,253c.12,0,0,0-.2,0l.09,0Z"/><path class="cls-1" d="M489.45,252.93l.33,0Z"/><path class="cls-1" d="M489.81,252.94h0C489.65,252.92,489.71,252.93,489.81,252.94Z"/><path class="cls-1" d="M489.81,252.94l.36.05-.2,0Z"/><path class="cls-1" d="M493.71,253.72c-.66-.12-1.07-.21-.47-.14-.38-.08-2.15-.35-3.14-.52l.74.14c.29.05.72.09,1.18.18.24.07-.21,0-.5,0,.33,0,.56.1.82.15l1.11.22-.36-.09C493.25,253.64,493.54,253.7,493.71,253.72Z"/><path class="cls-1" d="M490.18,253.06h-.06l-.74-.11.62.11h.1Z"/><path class="cls-1" d="M490.14,253l1.46.23a7.31,7.31,0,0,0-.72-.13c.12,0-.32-.06-.68-.09l-.14,0-.28,0h.13l.22,0-.22,0h-.09l.3.07C490.2,253.05,490.19,253.05,490.14,253Z"/><path class="cls-1" d="M493.35,253.24l-.15,0A.54.54,0,0,0,493.35,253.24Z"/><path class="cls-1" d="M493,253.22c-.09,0-.33,0-.26,0a4.38,4.38,0,0,1,.5,0,7.18,7.18,0,0,0-.74-.07h.08c-.23,0-1-.06-1.09-.08Z"/><path class="cls-1" d="M491.67,253.18l.27.06.54.06-.32,0C492.31,253.26,491.91,253.21,491.67,253.18Z"/><polygon class="cls-1" points="489.7 253 489.1 252.9 489.95 253.05 489.7 253"/><polygon class="cls-1" points="489.76 253.03 489.23 252.93 489.54 252.99 489.76 253.03"/><path class="cls-1" d="M497.43,251.6h0Z"/><path class="cls-1" d="M497.36,251.47l-.29,0Z"/><path class="cls-1" d="M489.41,252.76c-.38,0-1,0-.51,0l.45,0C489.27,252.75,489.32,252.76,489.41,252.76Z"/><path class="cls-1" d="M493,251.91l.19,0-.59.1Z"/><path class="cls-1" d="M495.62,251.48l-.38.05Z"/><path class="cls-1" d="M498.09,252.61l.67,0C498.76,252.58,498.42,252.61,498.09,252.61Z"/><path class="cls-1" d="M489.67,253.1l-.31-.07Z"/><path class="cls-1" d="M490.48,252.41l.4,0Z"/><path class="cls-1" d="M489.35,253l.11,0-.1,0C489.15,253,489,253,489.35,253Z"/><path class="cls-1" d="M496.17,255.09l-.09,0Z"/><path class="cls-1" d="M489.55,253.16h0Z"/><path class="cls-1" d="M489.42,253Z"/><path class="cls-1" d="M491.61,253.45l.26.05Z"/><path class="cls-1" d="M492.2,253.66h0C492.35,253.69,492.32,253.68,492.2,253.66Z"/><path class="cls-1" d="M489.67,253.06l-.16,0Z"/><path class="cls-1" d="M489.42,253h0Z"/><path class="cls-1" d="M489.44,253h.07l-.09,0Z"/><path class="cls-1" d="M495.15,253.81h-.07C495.36,253.86,495.32,253.85,495.15,253.81Z"/><path class="cls-1" d="M495.26,252.32h0Z"/><path class="cls-1" d="M495.68,252.21c-.83.08-.76.09-.48.11l-2,.08Z"/><path class="cls-1" d="M497.65,252l.59-.11a4.88,4.88,0,0,0,1.44,0c-2,.14-.19-.28-2.22-.1l.43-.09s.1,0,.08,0c.69-.13-.34,0-.89,0h0c-.23,0-.39,0-.32,0a3.7,3.7,0,0,1,.67-.11h-.55a1.27,1.27,0,0,1,.36,0l-.23,0h.06l-1.06.1c.27-.05.22,0,.47-.06l-.54,0a5.17,5.17,0,0,1,1-.1c2-.31-.55,0,.54-.18h.3a11.94,11.94,0,0,0,1.34-.3c-.36.06-1.71.34-2.25.38.13,0,.19-.06-.24,0,.71-.11.51-.1.44-.1l.95-.15c-.31,0-.79.11-1.24.17.06,0,.78-.15,1.39-.26.09,0-1.13.2-1.38.22.31-.07-.12,0-.74.09l.84-.15-.79.13.37-.06-1.25.21c-1.05.18,1.44-.24.21,0l.94-.16-1.72.32.58-.08-2.29.38-.66.1-.48.1.74-.12-.2,0,1.35-.21-.56.08,1.79-.3-.28,0,.4-.07-.37.07,1-.16-.42.07.59,0c-1.12.2-2.73.46-3.25.58l2.2-.3c-.95.12.47-.12.31-.13.08,0,.53-.06.69-.09l-1,.2a5.57,5.57,0,0,1,.84-.08,7.25,7.25,0,0,0-1.52.27,3.46,3.46,0,0,0,.92-.15c1.09-.09-1.79.27-.87.2,0,0-.06,0,.2,0-.46.07-.15.09.3,0h0c.12,0-.12.26-1.41.35l1.8-.15-2.18.22-1.79.15c.38,0,3.71-.13,4.06-.24s.54,0,.26.11-1.88,0-2,0h1.15l1.12,0c-.36,0-2.44.07-2.37.09l2.43-.05-1.06.07-1.13.05c.41,0,1.89,0,2.52,0-.43,0,0,.11-.21.14l-.51-.06c.32.15-3.18.06-3.07.13.46,0,2.84.09,3.11.18l-5-.16.34,0h-.38l.8.06,1.26.07c1.29.07,2.56.1,3.27.09.51.09.77.06.69.15a2.27,2.27,0,0,0,1,0l.34.27c-1.32-.12-1.36,0-2.45-.08q.71,0,1.41-.09a24.74,24.74,0,0,0-3.55-.11c.52.09,2.34.25,2.78.29-.46,0-.89,0-.57.08l.71,0c.46.16-1.75-.11-.52.15.08,0,1.63.36.87.24s-2.22-.4-3.67-.63l-2.22-.35,1.16.28.72.14,1,.17c.65.11,1.29.2,1.77.31l-.91-.14c.3.08,1.07.19.91.22-1.27-.24.11.13-1.07-.19-.36,0,.26.11.2.15-.54-.12-1.7-.34-2.34-.47h0l-.38-.07.59.14c.18.06.76.21.83.23l1.17.28-.61-.14,1.38.32-1.31-.31c-1.07-.25-.27,0,.14,0l-2.81-.67.51.12c.26.05-1.66-.4-.89-.23l1.75.39c.2.06-.47-.08-.47-.08l.33.07c.2,0,.33.08.13,0l.35.07a.62.62,0,0,0,.17,0,4.61,4.61,0,0,1,.57.07l-.86-.2.07,0-1-.22c-.35-.09-.93-.22-.59-.16l.79.15c-.23,0-.49-.08-.26,0-.34-.08,1.12.19.1,0l-.57-.1a9.36,9.36,0,0,1-.93-.21l-.85-.15c1.16.21-.08,0,1.13.23l-1.37-.26c.25.05.49.1.35.08l.22,0h0s.05,0,0,0l.39.08c.57.12.52.13.81.19l-.56-.12.43.1-1.24-.27h0l-.22-.05.16,0,.3.08-.13,0c-.08,0,.77.18-.16,0,.12,0,.26.06.11,0l-.42-.1c.13,0-.44-.1,0,0l-.22-.05h0c-.74-.17,0,0-.22-.08l.52.1s.11,0,.31,0l.46.07c.37,0-.33-.1-.28-.12-.18,0-.13,0,0,0-1-.13.75,0,0-.1.17,0,.11,0,0,0h0l-.24,0,.24,0h.19l-.49,0h.92c-.8,0,.29,0-.57,0,.42,0,.33,0,1.23-.07h-.18c-.09,0-.19,0,.08,0l-.65,0,.89-.07c-.38,0-.62,0-1.13.05l1.11-.12-.43,0s.62-.07.27-.05c-.82.05,0-.11-.75,0,1.35-.18-.59.06.47-.08l-.79.11c.35-.07-.5.06.44-.09l-.69.1c.07,0,.3,0,.1,0l-.43.07,2.1-.34c-.45.07-.38,0,.29-.06l-.79.13s-.41.05.41-.08c-.2,0,0,0,.06,0s-.09,0,0,0l.13,0,.41-.07-.11,0c-.68.12.39-.06-.41.08L492,252c1.42-.24-.78.13-.2.05l.37-.07c.52-.07-1.92.33-2.1.36l-.31.05c-.84.14.9-.14,1.14-.17l-1.32.21c-.4.06,1.64-.22.71-.08l1.06-.14c.17,0-1.43.22-.17.07l-.31,0,.87-.06h0l.39,0c-2.55.26,1.21,0-1.13.21l.12,0-.24,0a5,5,0,0,0,.94,0c-.16,0-.37,0-.49,0-.48.07-.38.05.74.08h-.75c.42,0-1.18.07-.35.11h-.32c.81.08-2.05,0,.54.14l.61.07c.24,0,1.11.08,1.55.08a3.86,3.86,0,0,1-.93,0h.13c-1.33-.1-.52,0-1.42-.05a5.74,5.74,0,0,1-.89.07l1,.13h-.08l-.7-.11c-.54-.08.42.09.63.12-.42,0-1.09-.18-1.12-.18l.06,0h.11c.37.07.77.14.7.14l-.61-.09h-.14l.73.13a5.93,5.93,0,0,0,.75.15c-1.27-.22-.59,0-1-.1.47.12.43.13.34.12a7.15,7.15,0,0,1,.76.19c-1.5-.36-.71-.14-1.79-.4.71.17.1,0,1.11.3l-.9-.23c.5.16-.45-.09-.31,0l.7.2-.9-.25c.08,0,1,.28.37.11l.41.12-.36-.09-.12,0-.65-.2.31.09.53.16-.56-.18c.5.14,0,0,.46.11h-.07l3.59,1c-1.65-.47,2.51.81.16.13l1,.3c-.79-.23-.94-.27-.57-.15l.2.06a7.3,7.3,0,0,0,1.21.38l-.88-.27.63.19-1.56-.47c1.79.55.16,0,2.16.6,0,0-1-.29-1-.3l.54.16-.68-.2L496,255l.15.05c.64.17-.16-.09.06,0l-.35-.08c-.41-.18.35-.05-.61-.39l-.39-.1c-.64-.22.48.08.22,0l.09,0c-.37-.1-.54-.16-.48-.16.43.12.9.17,1.37.31a17.49,17.49,0,0,0-1.91-.52l.63.13a9.08,9.08,0,0,1-1-.26c.5.14,1,.19,1.64.37,1.43.2-1.25-.38.75,0a4.46,4.46,0,0,0-1.35-.21,3.89,3.89,0,0,1-1.05-.26c.07,0,2.22.38,2.24.3s.11,0,.1,0c.45,0-.54-.16.18-.07-1-.19.09,0-1.2-.25l.24.11c-.31-.1-1.79-.35-1-.29l.76.15c.4.05-.22-.07.18,0,1.29.2.22.12,1.18.32.56.07-.88-.23.5,0-1.75-.3.27-.05-1.05-.3l.77.11a2.72,2.72,0,0,1-.44-.1l1,.16c-.82-.16.79,0,.35-.1a8.6,8.6,0,0,1-1.51-.13c-.95-.22,2,.18,1.73,0a2.2,2.2,0,0,1-.83,0c.17,0,.48,0,.88,0-.11-.12-.78-.06-1.23-.15.94.06-.35-.08-.62-.14l.76.06c.54-.06-1.58-.15-.94-.2l1,.12-.26-.07.87.07c-.63-.1-.45-.1-.19-.15a8.16,8.16,0,0,1-1.37-.13c.46,0,.71.06.63,0,.46,0,1.05.09.34.08l.71.06c.53,0,.15-.1.15-.12a.57.57,0,0,1-.18,0l-1-.15a5.32,5.32,0,0,1,.72,0c-.07,0-.41,0-.47-.08a11.91,11.91,0,0,1,1.51.1l-.65-.13c.27,0,.74-.05,1,0s-1.17-.18-.7-.26a2.32,2.32,0,0,1-.31,0c.13-.08.85-.18.07-.25l1.06-.11c-.23-.07-1.34.14-1.72,0s.91-.08,1.21-.13c-.53,0-1.59,0-.74-.16C497.73,252,497.57,252,497.65,252Zm-.79-.64c.17,0,.65-.06.24,0C496.26,251.5,496.65,251.43,496.86,251.38Zm-2.62.36c.25,0,.14,0-.12,0C494.06,251.76,494.07,251.77,494.24,251.74Zm-4.4,1.38h0C489.63,253.08,489.72,253.1,489.84,253.12Zm.28.06-.25-.06.11,0Zm.31,0,.16,0C490.76,253.2,490.6,253.17,490.43,253.14Z"/><path class="cls-1" d="M495.31,251.53l-.38.06Z"/><path class="cls-1" d="M498,252.61h0Z"/><path class="cls-1" d="M495.67,254.14l-.47-.12A1.75,1.75,0,0,1,495.67,254.14Z"/><path class="cls-1" d="M489.19,252.94l.15,0,.21,0Z"/><path class="cls-1" d="M493.31,253.56l-.08,0-.31-.05A1.51,1.51,0,0,0,493.31,253.56Z"/><path class="cls-1" d="M491.27,253.34c.53.1.36.06.28,0h0C490.81,253.23,491,253.28,491.27,253.34Z"/><path class="cls-1" d="M491.54,253.37s0,0,0,0C491.24,253.3,491.47,253.35,491.54,253.37Z"/><path class="cls-1" d="M489.82,253.1l-.44-.09C488.75,252.87,490.13,253.18,489.82,253.1Z"/><polygon class="cls-1" points="493.02 253.66 492.36 253.54 492.87 253.65 493.02 253.66"/><path class="cls-1" d="M492.37,253.63l.21,0-.2,0C492.33,253.61,492.19,253.59,492.37,253.63Z"/><path class="cls-1" d="M492.38,253.61s0,0-.08,0Z"/><polygon class="cls-1" points="493.21 253.73 493.03 253.7 492.94 253.7 493.21 253.73"/><path class="cls-1" d="M491.88,253.62l.13,0,.26.05Z"/><path class="cls-1" d="M494.07,254.11l-.66-.15,1,.25Z"/><path class="cls-1" d="M494.22,254.17l.77.19Z"/><polygon class="cls-1" points="492.45 253.47 492.44 253.48 491.17 253.26 492.45 253.47"/><path class="cls-1" d="M497.35,253c.46.13-1.26,0-.67.11-.48,0-.48-.1-.9-.09A5.84,5.84,0,0,1,497.35,253Z"/><path class="cls-1" d="M495.78,253l-.31,0Z"/><polygon class="cls-1" points="489.08 253.01 488.91 252.96 489.18 253.03 489.08 253.01"/><path class="cls-1" d="M489.63,253.15l-.49-.13.43.11Z"/><path class="cls-1" d="M498.71,251l-.23,0a.93.93,0,0,0-.28.06Z"/><polygon class="cls-1" points="498.41 251.54 498.42 251.53 497.56 251.64 498.41 251.54"/><path class="cls-1" d="M499.51,252.1s-.15,0-.11-.08S498.41,252.17,499.51,252.1Z"/><path class="cls-1" d="M524.85,268.67c-.1,0,.24.53.29.63C525.2,269.1,524.77,268.53,524.85,268.67Z"/><polygon class="cls-1" points="525.43 266.68 525.53 266.92 525.41 266.26 525.43 266.68"/><path class="cls-1" d="M526.64,266c-.65-.86-.35.41-.76.21l-.16-.19.34.8C526.26,266.52,526.31,265.83,526.64,266Z"/><path class="cls-1" d="M528.47,267.59c-.25-.34,0-.39-.21,0l.08.08A.23.23,0,0,1,528.47,267.59Z"/><path class="cls-1" d="M528.34,267.64c-.12.1.26.25,0,0Z"/><path class="cls-1" d="M528.81,267.08l0,.42c.16.19.34.15.38.33C529.28,267.55,529.12,267.37,528.81,267.08Z"/><path class="cls-1" d="M528.57,266.31v.19C528.63,266.58,528.67,266.6,528.57,266.31Z"/><path class="cls-1" d="M528.55,266.9v-.4c-.11-.13-.29-.43,0,.15C528.39,266.37,528.51,266.66,528.55,266.9Z"/><path class="cls-1" d="M528.36,266.82c-.22-.14-.41-.2-.43-.62C527.68,266.52,528.11,267.14,528.36,266.82Z"/><path class="cls-1" d="M526.14,265l-.28-.2.07.38C525.89,265,526.32,265.27,526.14,265Z"/><path class="cls-1" d="M530.15,266.92c-.1-.2-.37-.49-.53-.73v.3A1.33,1.33,0,0,1,530.15,266.92Z"/><path class="cls-1" d="M529.62,266.19l0-.44C529.41,265.81,529.48,266,529.62,266.19Z"/><polygon class="cls-1" points="527.99 265.27 528.1 266.16 528.04 265.23 527.99 265.27"/><polygon class="cls-1" points="530.89 266.5 531.05 267.02 530.83 266.22 530.89 266.5"/><path class="cls-1" d="M531.31,266.13c.15.42.5.57.56.85a1.73,1.73,0,0,0-.08-.89C531.79,266.32,531.65,266.35,531.31,266.13Z"/><path class="cls-1" d="M531.7,265.57a3.34,3.34,0,0,0,.09.52A1.35,1.35,0,0,0,531.7,265.57Z"/><path class="cls-1" d="M530,265.65c.09.11.3.4.49.46l-.41-.5Z"/><path class="cls-1" d="M530,265.59l0,0,.18-.07Z"/><path class="cls-1" d="M530,265.66h0S529.92,265.58,530,265.66Z"/><path class="cls-1" d="M528.77,265.48c-.07-.37,0-.84-.55-1.17C528.37,264.73,528.66,264.92,528.77,265.48Z"/><path class="cls-1" d="M529.45,265h-.27a1.88,1.88,0,0,1,.29.52Z"/><polygon class="cls-1" points="529.44 264.79 529.45 265.03 529.55 265.03 529.44 264.79"/><path class="cls-1" d="M531,265.27a.43.43,0,0,1,.11-.47.65.65,0,0,0-.45.05C530.79,265,530.93,265.37,531,265.27Z"/><path class="cls-1" d="M530.53,265.38v0S530.47,265.29,530.53,265.38Z"/><path class="cls-1" d="M532.19,264.15l-.08-.08,0,.09Z"/><path class="cls-1" d="M530.62,264.76c-.15-.05-.12.11-.06.31a.42.42,0,0,1,.14-.22C530.66,264.77,530.63,264.72,530.62,264.76Z"/><path class="cls-1" d="M531.83,265.14a2,2,0,0,0-.33-.21C531.65,265.08,531.91,265.29,531.83,265.14Z"/><path class="cls-1" d="M530.65,265.47v0C530.75,265.6,530.71,265.55,530.65,265.47Z"/><path class="cls-1" d="M530.65,265.47a1.84,1.84,0,0,0-.09-.4.56.56,0,0,0,0,.27Z"/><path class="cls-1" d="M530.29,260.48c.31.51.38,1.12-.15.7a10.47,10.47,0,0,0,2,2.89,1.48,1.48,0,0,1-.26-.85c-.24-.23-.83-.37-1-.93.09-.42.32,0,.61.24-.5-.56-.26-1.12-.9-2V261C530.5,260.85,530.44,260.58,530.29,260.48Z"/><path class="cls-1" d="M531.71,264.25l-.05.11c.15,0,.34.19.71.51a1.49,1.49,0,0,0-.21-.71l-.44.18Z"/><path class="cls-1" d="M531.3,264.59c-.27-.59-.23-.94-.72-1.46-.21.19.13.56.13.89.3-.37.08.37.55.51a.42.42,0,0,1-.11.27,2.19,2.19,0,0,1,.35.13l0,0h0c-.06-.06-.09-.1,0-.07a0,0,0,0,1,0,0,1.43,1.43,0,0,1-.11-.21c.18,0,.1.13.11.21l0,.09h0l.19-.54C531.54,264.34,531.44,264.42,531.3,264.59Z"/><path class="cls-1" d="M527.71,263l.09.13C527.78,263,527.76,263,527.71,263Z"/><path class="cls-1" d="M528.07,263.23c0,.1.13.33,0,.33s-.16-.27-.27-.44a.78.78,0,0,0,.38.67l0-.09a3,3,0,0,1,.9.76A13,13,0,0,0,528.07,263.23Z"/><path class="cls-1" d="M529.6,263.77l.15-.46-.45-.38.18.28C529.23,263.21,529.49,263.54,529.6,263.77Z"/><polygon class="cls-1" points="532.4 264.4 532.72 265 532.39 264.07 532.4 264.4"/><polygon class="cls-1" points="532.77 264.07 533.07 264.58 532.99 264.21 532.77 264.07"/><path class="cls-1" d="M541.56,252.43l-.06.2A.39.39,0,0,0,541.56,252.43Z"/><path class="cls-1" d="M542.36,252.24l-.06-.29C542.31,252.12,542.32,252.24,542.36,252.24Z"/><path class="cls-1" d="M542.58,256.7c.49.3,1.21.81.74.33l-.47-.45C542.84,256.75,542.72,256.75,542.58,256.7Z"/><path class="cls-1" d="M545.41,248l-.19-.08c.16.16.3.32.43.46Z"/><path class="cls-1" d="M543.33,246.27l.45.1A1.64,1.64,0,0,0,543.33,246.27Z"/><path class="cls-1" d="M537.37,254.19v.68C537.59,254.82,537.43,254.52,537.37,254.19Z"/><path class="cls-1" d="M536.83,261a.74.74,0,0,0,.51.12C537,261,536.55,260.58,536.83,261Z"/><path class="cls-1" d="M540,245.71a1,1,0,0,0,0,.41A.65.65,0,0,0,540,245.71Z"/><path class="cls-1" d="M537.67,260.92a.71.71,0,0,0-.15-.08c0,.15,0,.28-.18.32C537.61,261.31,537.83,261.36,537.67,260.92Z"/><path class="cls-1" d="M521.13,255.33a.69.69,0,0,1,0-.08C521.09,255.34,521.11,255.35,521.13,255.33Z"/><path class="cls-1" d="M516.9,248.57a.36.36,0,0,1,.18,0S517,248.49,516.9,248.57Z"/><path class="cls-1" d="M534.58,263.23c-.06.09,0,.07,0,0Z"/><path class="cls-1" d="M532.74,261.36a1,1,0,0,0-.14-.29A1.41,1.41,0,0,1,532.74,261.36Z"/><path class="cls-1" d="M536.09,257.05h0C536,257,536,257,536.09,257.05Z"/><path class="cls-1" d="M534.29,263.07a.65.65,0,0,0,.22.08A.68.68,0,0,0,534.29,263.07Z"/><path class="cls-1" d="M534.48,263.31h-.12C534.41,263.41,534.46,263.46,534.48,263.31Z"/><path class="cls-1" d="M534.69,263.12a.22.22,0,0,1-.18,0s.07.06.07.08A.55.55,0,0,1,534.69,263.12Z"/><path class="cls-1" d="M529.63,253.16l0-.06C529.53,253.38,529.57,253.33,529.63,253.16Z"/><path class="cls-1" d="M539.85,250v0h0Z"/><path class="cls-1" d="M539.74,249.4c.48.66.35.65.15.61l1.41,1.24Z"/><path class="cls-1" d="M539.72,253.13l.4.49c-.07,1-.39.75.06,1.49-.46-2,1-.48.49-2.45l.28.36c-.05,0,0,.12-.08.11.59.85-.14-1.49.35-1.32a.66.66,0,0,1,.34.62l.19-.58c.11,0,.18.36.08.35l.45-.31,0,.06a9.26,9.26,0,0,1,0-1.07c.21.24,0,.22.11.46l.13-.56c.26.47.19,1,0,1,.85,1.87.08-.56,1,.41l-.19.32c.52,1.05.6.6,1.12,1.18-.19-.33-1.15-1.54-1-2.12.13.12.27.16.3-.29.23.69.33.47.51.36l.29.92c.13-.33,0-.79,0-1.24.26,0,.55.69.81,1.27.43,0-.65-1-.26-1.36.44.24.54-.21.71-.88.33.23.16.56.33.79l-.06-.79c.05,0,.12.23.15.34.06-.34-.31-.9-.15-1.24-.3-1,1.05,1.26,1,0,.17.22.17.56.33.9a1.15,1.15,0,0,0,0-.43l-3.55-4.59a3.49,3.49,0,0,0,.68,1.15l-.68-.15a3.86,3.86,0,0,1,1.63,1.62c.32.15.61.27.75.32l.16.65a2.71,2.71,0,0,1-.67-.59l.14.2a2.83,2.83,0,0,1-1.12-.91l.55.25a8.38,8.38,0,0,0-1.32-1.22.55.55,0,0,1,.13.25,1.62,1.62,0,0,0-.3-.26c-.08-.05.06.11.22.31l-.9-.58.32.27-.82,0c.62.93,1.64,2.18,1.59,2.93a11.67,11.67,0,0,0-1.66-1.46c.85.52,0-.61.3-.7-.18,0-.5-.26-.59-.38l.36,1c-.58-.5-.51-.29-.83-.39,1.2.9.51,1,.71,1.42-.39-.33-.74-.71-.48-.82-1-.54,1.07,1.44.16,1,0-.06.12,0-.06-.22.24.41-.28.44-.54.08l0-.05c-.41.19-.87.93,0,1.86-.12-.11-1.06-1.11-1.23-1.31q1.28,1.77,2.49,3.58c-.72-.83-2.74-2.5-2.93-3.19-.18,0-.39-.08-.27.35a5.92,5.92,0,0,1,1.24,1.14,11.88,11.88,0,0,0-1.54-.86c.24.1,1.35,1.42,1.18,1.49-.15-.2-1.18-1.22-1.26-1.38l.86,1.5a6.41,6.41,0,0,0-1.36-1.34c.26.21-.27.21-.24.41l.39.17c-.5.12,1.27,2.06.85,2.32-.18-.3-1.32-1.69-1.64-1.7.5.71,2.38,3.43,2.47,4.23l-.38-.32.11.65c-.67-1.14-2-3.58-2.51-4.57-.39-.18-.42-.4-.58-.21-.37-.29-.36-.62-.32-.68l-.64.15c.68.75.32,1.06.87,1.69l-.18-1.22c.68.75,1.57,2.43,1.12,2.58a15,15,0,0,1-1.31-1.68c.18.3.11.76-.08.6l-.2-.53c-.42-.15.55,1.28-.28.71-.12,0-1-.83-.68-.35a38.47,38.47,0,0,1,3.55,4.29,8.63,8.63,0,0,1-1.56-.88c-.69-.61-1.13-1.85-1.73-2.37a2.85,2.85,0,0,1,.35.65c-.23-.12-.49-.69-.6-.46.6.83-.42.21.45.75,0,.37-.32,0-.5.17a5.76,5.76,0,0,1,1.16,2.31,3.24,3.24,0,0,0-.51-.56c-.43.21-.9,0-1.27.23-.17-.18-.52-.3-.71-.71.06.19.22.5.12.6-.72-.57.16-.28-.62-1,.34.49.2.86.26,1.28.58.71.46-.12.4-.53a5.78,5.78,0,0,1,1.2,3.05c-.13.48-.61-.57-.56-.39-.69.22.77,2.16-.23,1.74a9.11,9.11,0,0,1-1.28-1.77c.07-.42.67.16.82,0l-.43-.17c-.07-.28,0-.56.2-.43-.57-.49-1,.55-1.85.29a1.54,1.54,0,0,0,.33.82l.08-.18c.49.45.23.92.58,1.05.07.51.24,1.25-.23,1.12l-.55-.73c.15.22.47.34.39.05.12.42-1.09-.77-.55.32l.53.41c.06.51.35,1.49-.05,1.41.6.69,0-.13.75.65-.87-1,.65-.36-.34-1.36.85.91.59.23,1.4,1-.18-.25-.4-.43-.12-.44a2.16,2.16,0,0,1-.1-.25h0l0,0s0-.05,0,0a1.53,1.53,0,0,1-.36-.32c-.29-.65.05-.84,0-1.21.19,0,.14.32.38.55l-.14-.56c.4.55.95.71.89,1.23l.27-.15c.36.21.65.19.62-.13.21,0-.12-.82.08-.32l.16-.61.1.13c.45-.21.15-1.48,1.31-.81,0-.24.05-.5.38-.51l.39.44c0-.29.85.08.56-.46,1.13,1.11,1-.34,1.49-.36l-.46-.61c.23-.12.29-.45.34-.88l-.44-.51c-.14-.6.85-.06,1.13-.4.15.22,0,.24-.14.17,1.38.82.11-1.55,1.18-1-.07-.26,0-.25.22-.18v.05s0,0,.05,0a2.32,2.32,0,0,0,.36.16,1.51,1.51,0,0,0-.35-.17.64.64,0,0,0,.09-.45l.53.5s0,0,0,0c.28.11-.15-.32-.57-.68a2,2,0,0,0-.16-.44c.86.79,0-.52.94.29-.35-.5.18-.79-.65-1.76.11.12.2.15.15.2.21,0,.41,0,.26-.34l.68.61-.64-1.11a2.27,2.27,0,0,1,1.18,1.08c-.43-1.11,0-.57-.5-1.6l.41.43c.08-.12-.33-.83.08-.55,1,.53,1.19-1,2.51-1-1.43-1,.85.21-.16-.69.34.23.6.29.79.62,0-.59.93-.09.22-1,.36.22.42.45.64.57,0-.09-.19-.33,0-.22s.23.27.33.44c.22-.4-.76-1.23-1.68-2,.57.17.58,0,0-.57.35.18.76.32.71.62.13-.08,1-.4.25-1,.19.09.19-.06.14-.17l-2-4.79-.31,1.76a.13.13,0,0,0,0,.06c-.31.05-.36,0-.62.17l.14.11c.29,1.13-.15.33-.34.55l0-.11c-.81-.6-.1.46-.93-.25l.26.67c.46,1.48-.77-.71-.88-.05l.24.36c0,.56-1.13-1.84-1.35-2s0-.23,0-.34c-.71-.72.24.92,0,1.23-.21-.46-.32-1.25-.56-1.27-.22-.36-.13,1.76-.72.92a1.71,1.71,0,0,1,.29,1c-.19.21-1-1.23-.9,0a1.38,1.38,0,0,1-.13-.28c-.09.36-.44.66-.37,1.34-.81-2.35-.81,1.47-1.39-.75l-.52.26-.05-.23c-.38-.06-.38.5-.38,1.07a.92.92,0,0,1-.13-.48c-.62-.32-.64-.21-.84,1l-.2-.72c0,.45-1-1-1.33,0a1.18,1.18,0,0,1,0-.33c-.42,1-1.74-1.78-1.47.93l-.28.72c.54.12.13,1.18.41,1.58-.18.2-.65-.71-.43-.89l.06.13c-.14-1.41-.71-.39-.85-1.35-1,.23-2-.42-2.94-.38l.23,1.08-.33,0c-.12-.25-.21-.84,0-.82-.18-.61-.32.56-.3.8-.5-.4,0-1.29-.11-1.31l-.17.1,0,.13c-.1.46-.07.93-.35.9-.19-.2-.15-.66-.22-.7s0-.11-.11,0l-.41-.06.24.85c-.15.44-.39,0-.12,1-.4-1.47-1.57-.42-1.77-.88-.21.64-.47.65-.78.59.08.18.18,1.15-.1,1,0-2-.54-.85-.8-2.29.22.95-.75.26-.41,1.61-.23-.15,0-.75-.22-1.21-.51.8-1.17-.5-1.81-.22a3,3,0,0,1,0,1.06l-.34-1.32c-.13.13-.13,1.52-.36.6,0,.22.08.56,0,.64-1.24-1.3-2.7,1-3.84-1.52.14.52,0,.56-.12.57.08.13-.05.65-.06,1l-.46-1c-.19,1-.59,0-.73,1l.19-.15c-.34,1.09.1,2.5,0,3.93.37-1.25.58,1.94,1.17.16.08.3-.12.45-.09.79.16-.6.3-.73.54-.44l0,.15c.73-.11,1,.52,1.81,1l0-.72c.18.1.2.33.28.51.24-1.08-.49-.08-.26-1.26.18,1.45,1.22,0,1.34,1.7.28,0-.06-.83.21-.81l.06.45.08-.58c.17.1.26.66.26,1,0,0-.12.1-.17.13.23.53.66-.18.74,0l-.26-.27c.73-.43,1.65.17,2.34-.77l-.06-.33c.52-.64.44.35,1,0l0,.08c.1-.34.25-.51.42-.48-.14.4.32.75.14,1.19.56-.7.27-.54.58-1.81l.12.55c.1-.51.09-.77.37-.93-.2.49.25.83,0,1.48.72,1.17.83-1.29,1.26.46.15-1.56-.61-.81-.48-1.15-.17-.49.14-1.17.35-1s.5,1.93,1,1.86c0,0,0,.11-.09.11.22.37.31-.57.6.05,0-.94.31,0,.22-1.16l-.43.31c.23-.33.32-1.73.81-1.12a2.5,2.5,0,0,1-.16.76c.16.33.21-.26.38.08.1,1.18-.52.33-.71,1.25.19.49.44-.91.44.39,0-1.65.52.14.71-1.14l.07.71c0-.12.11-.47.21-.46l-.07.94c.18-.82.62.62.84.16-.56.09-.24-.84-.54-1.32.55-1,.64,1.79,1.36,1.34-.09.12-.45-.36-.33-.71a1.76,1.76,0,0,1,.54.72c.49-.23-.19-.71,0-1.18.31.83.2-.39.37-.69l.12.71c.65.37-.09-1.51.51-1l0,1,.22-.3.08.82c.2-.65.31-.51.64-.34-.16-.49-.19-1.3,0-1.37.25.4,0,.7.37.53,0,.46,0,1-.26.41,0,.23,0,.46,0,.69.28.46.49,0,.62,0a.3.3,0,0,1-.17-.14l.33-1.08a1.1,1.1,0,0,1,.09.7c.09-.1.1-.44.24-.53a3.14,3.14,0,0,1,0,1.49l.38-.74c.08.25.39.64.37.86.35.28.45-1.26.91-.89a.51.51,0,0,1,.07-.32c.37.06.83.68,1.06-.2l.47,1c.26-.31-.62-1.22-.19-1.73s.36.84.56,1.09c.06-.56.11-1.68.66-.94C539.93,253.15,539.8,253,539.72,253.13Zm3.71-1.55c0,.17,0,.66-.22.27C543.05,251,543.23,251.39,543.43,251.58Zm.55-4c-.16-.19,0-.18.26-.08C544.24,247.58,544.18,247.62,544,247.57Zm-8.77,14.52,0,0C535.49,262.2,535.38,262.14,535.21,262.09Zm-.47-.06a.65.65,0,0,0,.15.27c-.08-.17,0-.23.08-.23C534.85,261.92,534.73,261.84,534.74,262Zm-6.68-13.61.09.18C528,248.82,528,248.63,528.06,248.42Z"/><path class="cls-1" d="M543.57,246.47a3.15,3.15,0,0,1,.33.22A.65.65,0,0,0,543.57,246.47Z"/><path class="cls-1" d="M537.37,254.07h0v0Z"/><path class="cls-1" d="M535.41,254a1,1,0,0,1,.33.21C535.64,254.05,535.52,254,535.41,254Z"/><path class="cls-1" d="M533.85,264.1l.09-.29c-.07.09-.19,0-.3-.08C533.74,263.87,533.91,264.05,533.85,264.1Z"/><path class="cls-1" d="M529.82,261.36c0,.09-.06.05,0,.14l.18.28A.28.28,0,0,0,529.82,261.36Z"/><path class="cls-1" d="M532.37,262.19c-.34-.5-.35-.25-.42-.07,0,0,0,0,0,0C532.4,262.85,532.39,262.52,532.37,262.19Z"/><path class="cls-1" d="M531.93,262.16a.12.12,0,0,1-.11.09C532,262.54,531.91,262.28,531.93,262.16Z"/><path class="cls-1" d="M534.59,262.62c-.15-.09.4.68.22.49C535.17,263.81,534.71,262.05,534.59,262.62Z"/><polygon class="cls-1" points="531.18 260.58 531.63 261.18 531.37 260.62 531.18 260.58"/><path class="cls-1" d="M532.49,260.37l-.32,0a.37.37,0,0,1,.09.25C532.4,260.52,532.62,260.56,532.49,260.37Z"/><path class="cls-1" d="M532.26,260.59c-.08,0-.13.08-.1.21A.29.29,0,0,0,532.26,260.59Z"/><polygon class="cls-1" points="531.33 260.2 531.48 260.3 531.65 260.25 531.33 260.2"/><path class="cls-1" d="M534.76,259l.1-.33c-.13-.23-.28-.31-.3-.17S534.58,258.82,534.76,259Z"/><path class="cls-1" d="M532.92,257.77a2.26,2.26,0,0,1,.42.41l-.52-.77Z"/><path class="cls-1" d="M533.43,257.16c-.13-.23-.12-.83-.36-.59C533.2,256.8,533.11,257.13,533.43,257.16Z"/><polygon class="cls-1" points="537.31 255.73 537.26 255.78 538.22 256.97 537.31 255.73"/><path class="cls-1" d="M537.54,250.75c-.45-.08.58.75.08.59.19.31.41.13.57.41C538.07,251.34,538.28,251.44,537.54,250.75Z"/><path class="cls-1" d="M538.19,251.75a1.18,1.18,0,0,0,.09.23A1.1,1.1,0,0,0,538.19,251.75Z"/><polygon class="cls-1" points="516.26 247.7 516.1 247.37 516.18 247.89 516.26 247.7"/><path class="cls-1" d="M515.79,248.8l.05-1-.2.87S515.78,248.58,515.79,248.8Z"/><path class="cls-1" d="M544.6,253.26l-.06-.23c-.11-.23-.16-.23-.27-.23Z"/><polygon class="cls-1" points="541.56 253.42 541.62 253.43 541.29 252.6 541.56 253.42"/><path class="cls-1" d="M539.44,255.14c.11,0,.18-.21.29-.2C539.55,255.15,539.15,254.08,539.44,255.14Z"/><path class="cls-1" d="M556.5,401.22h-3.07v-1.1h7.48v1.1h-3.09v9H556.5Z"/><path class="cls-1" d="M570.56,405.79c-.08-1.41-.17-3.12-.17-4.37h0c-.36,1.17-.76,2.45-1.27,3.84l-1.79,4.91h-1l-1.65-4.82c-.48-1.44-.87-2.73-1.15-3.93h0c0,1.26-.11,2.94-.2,4.47l-.27,4.33h-1.24l.7-10.1h1.67l1.72,4.88c.42,1.25.75,2.36,1,3.41h0c.27-1,.63-2.13,1.08-3.41l1.8-4.88h1.67l.63,10.1H570.8Z"/></svg>