<?xml version="1.0" encoding="utf-8"?>
<!-- Generator: Adobe Illustrator 22.0.1, SVG Export Plug-In . SVG Version: 6.00 Build 0)  -->
<svg version="1.1" id="Layer_1" xmlns="http://www.w3.org/2000/svg" xmlns:xlink="http://www.w3.org/1999/xlink" x="0px" y="0px"
	 viewBox="0 0 720 792" style="enable-background:new 0 0 720 792;" xml:space="preserve">
<style type="text/css">
	.st0{fill:#FFFFFF;}
	.st1{fill:none;stroke:#FFFFFF;stroke-miterlimit:10;}
	.st2{font-family:'NanumBrush';}
	.st3{font-size:80px;}
	.st4{fill:none;stroke:#FFFFFF;stroke-width:1.5;stroke-miterlimit:10;}
	.st5{font-family:'MyriadPro-Regular';}
	.st6{font-size:15px;}
</style>
<g>
	<g>
		<g>
			<g>
				<g>
					<path class="st0" d="M467,630.2c-2,0.3-0.9,1.8-1.2,2.2C469,631.2,466.8,629.8,467,630.2z"/>
					<path class="st0" d="M497.2,617.4l-0.3,0.8l1.9-1.6c0.6-0.5,1.3-1.1,1.9-1.7l-1.7,1.3L497.2,617.4z"/>
					<path class="st0" d="M524.5,604.8c-1.9-0.6-4.2,0.9-6.8,2.5s-5.3,3.6-8,4.3l-1.1-0.2l-1.3,3c3-1.4,6.1-3.5,9.2-5.3
						c1.5-0.9,3-1.8,4.3-2.5C522.2,605.8,523.4,605.2,524.5,604.8z"/>
					<path class="st0" d="M541.7,601.9c-1.5-0.4,2.5-2.7-3.4,1.7c0.4-0.1,0.5-0.1,0.7-0.1C539.5,603.1,540.3,602.6,541.7,601.9z"/>
					<path class="st0" d="M539,603.5C536.2,605.3,541.3,603.2,539,603.5L539,603.5z"/>
					<path class="st0" d="M551.1,594.7l-2.9,3.3c1.1,0,4.3-2,3.4-0.8C554.9,594.2,553.8,594.2,551.1,594.7z"/>
					<path class="st0" d="M553.2,590.7l-1.6,1.6C552.1,592.3,552.7,592,553.2,590.7z"/>
					<path class="st0" d="M548.3,595.7l3.3-3.4c-0.8,0-1.4-0.7-1.6,1.5C549.9,592.9,549.6,594.1,548.3,595.7z"/>
					<path class="st0" d="M545.9,596.8c-2.3,0.9-5.1,2.2-2.1-1c-0.8,0.6-1.5,1.2-2.1,1.6c-0.6,0.5-1,0.9-1.3,1.2
						c-0.6,0.7-0.8,1.1-0.5,1.2c0.3,0.1,0.9,0,2-0.5c0.5-0.2,1.1-0.6,1.8-1C544.4,598,545.1,597.4,545.9,596.8z"/>
					<path class="st0" d="M524.4,601.5l-3.1,0.8c-0.6,0.7-1.3,1.4-1.9,2.1C520.4,603.3,525,602.2,524.4,601.5z"/>
					<path class="st0" d="M573,579.4c-0.2-0.6-2.2-0.3-2.9-0.7l-1.9,2.6C569.6,580.6,572.2,578.9,573,579.4z"/>
					<path class="st0" d="M570,578.7c1-1.3,1.9-2.5,2.9-3.8C569.7,577.5,569.4,578.4,570,578.7z"/>
					<path class="st0" d="M551.9,587.7c-1.6,2.1-3.3,4.1-5,6.2l3.1-3.5l1.5-1.7c0.5-0.6,1-1.2,1.5-1.8L551.9,587.7z"/>
					<polygon class="st0" points="586.2,567.1 585.3,570 587.1,565.1 					"/>
					<path class="st0" d="M594.2,558.2c-0.5,2.3,3.3-0.7,2.4,1.3c2-2.6,3.1-5.4,4.1-7.8C599.4,554,597.4,556.1,594.2,558.2z"/>
					<path class="st0" d="M602.4,547.6c-0.6,1.2-1.1,2.6-1.6,4.1C601.4,550.4,602,549.1,602.4,547.6z"/>
					<path class="st0" d="M578.9,569.7c0.5,0,1.7,0.2,3.9-1.3c-0.8,0-1.7,0-2.5,0C579.9,568.8,579.4,569.2,578.9,569.7z"/>
					<path class="st0" d="M580.2,568.4L580.2,568.4c1.6-1.3,2.5-2.3,3-2.7C582.8,566,582,566.9,580.2,568.4z"/>
					<path class="st0" d="M578.6,570c0.1-0.1,0.2-0.2,0.3-0.3C578.7,569.7,578.6,569.7,578.6,570z"/>
					<path class="st0" d="M562.5,581.5c1.5-2.5,5.1-6.9,0-4.5C561.8,579.1,564.7,577.7,562.5,581.5z"/>
					<path class="st0" d="M575.4,570l-3.9,3.1c0.4,0.3,1.5,0.1,0.8,1.4L575.4,570z"/>
					<polygon class="st0" points="576.8,567.9 575.4,570 576.9,568.8 					"/>
					<path class="st0" d="M595.6,553.1c0.9-2.1,2.4-3.9,3.9-6c-2,2-4.1,4.1-6,6.2C593.7,553.9,593.6,555.4,595.6,553.1z"/>
					<path class="st0" d="M588.2,560.6c0.1-0.1,0.2-0.3,0.3-0.4C588.1,560.3,587.9,560.5,588.2,560.6z"/>
					<path class="st0" d="M615.1,526.2c-0.2,0.1-0.3,0.1-0.5,0.2c0.1,0.1,0.1,0.2,0.2,0.2L615.1,526.2z"/>
					<path class="st0" d="M593,553.4c-1.7,1.4-2.2,2.6-2.6,3.9c0.9-1.3,2-2.6,3.2-4C593.5,552.9,593.4,552.8,593,553.4z"/>
					<path class="st0" d="M606.3,541.4c-1,0.7-2,1.5-3.1,2.3C604.4,543.2,606.4,542,606.3,541.4z"/>
					<path class="st0" d="M589.3,560c-0.1,0.1-0.1,0.2-0.2,0.3C589.9,560,589.7,560,589.3,560z"/>
					<path class="st0" d="M589.3,560c0.6-0.9,0.9-1.9,1.2-2.8c-0.7,1.1-1.5,2-2,3C588.7,560.1,589,560,589.3,560z"/>
					<path class="st0" d="M610.1,513.8c1.2,1.1-0.6,6.5-4.6,9.4c-1.6,4.5,4.4,5,9.1,3.2c-0.5-0.5-1-0.9,0.9-5.4
						c-1.7,1-7.6,7.8-6.5,3.6c2.8-5.7,3.3-4,5.7-6.2c-1.6,0.6-1-1.5-0.6-3.8s0.8-4.8-0.8-4.9l-1.9,5.2
						C610.9,514.8,611.3,512.7,610.1,513.8z"/>
					<path class="st0" d="M609.1,533.9l-1,1.7c1.6-1.7,3.1-2.6,5.9-4.4c1.2-3.2,1.1-4.2,0.8-4.6c-1,1.3-1.9,2.7-2.9,4.1l-3,3.9
						L609.1,533.9z"/>
					<path class="st0" d="M602.6,542.8c-0.3-2.3,2-6.5-1.3-5.3c-3.5,4.6-1.4,4.1-3,7.3c5.6-7.6-1,2.7,4.1-2c-0.9,1.6-1.9,3-2.9,4.3
						c1.2-1.2,2.5-2.3,3.7-3.4c-0.1,0-0.1,0.1-0.2,0.1l0,0l0,0c-0.4,0.2-0.6,0.2-0.2-0.1c0,0,0.1-0.1,0.1-0.2
						C602.7,543.4,602.7,543.1,602.6,542.8c2-1.9,0.6-0.1,0.2,0.7c0,0.1,0.1,0.2,0.1,0.2l0,0l2.6-4l2.4-4.1
						C606.7,537.1,605.3,539.2,602.6,542.8z"/>
					<path class="st0" d="M563.9,570.9c0.3-0.1,0.4,0,0.5,0.1C564.7,570.5,564.8,570.2,563.9,570.9z"/>
					<path class="st0" d="M567.5,569.2c-0.3,0.6-0.3,1.5-2.1,2.8c-1.8,0.8-0.5-0.6-1-1c-0.7,1.2-2.7,3.9,1,1.9l0.3-0.6
						c0.8-0.5,1.7-1,2.7-1.4c0.9-0.4,1.8-0.8,2.6-1.2c1.6-0.6,2.8-0.9,2.6-0.6C571.7,568.8,570.3,568.7,567.5,569.2z"/>
					<path class="st0" d="M585.4,556.4c0.8-1,1.6-2.1,2.3-3.2l2.3-3.2l-3.7,2l0.8,0.5c-1.6,1.5-2,2.3-2.1,2.8
						C584.9,555.7,585.3,556,585.4,556.4z"/>
					<polygon class="st0" points="616.3,525.9 617.2,527.8 617.6,522.5 					"/>
					<polygon class="st0" points="621.7,517 622.9,518.2 623.4,515.3 					"/>
					<path class="st0" d="M423.1,91.7l-2.2,0.3C421.9,91.9,422.6,91.8,423.1,91.7z"/>
					<path class="st0" d="M438.9,93.3l0.5-0.7C438.6,92.9,438.2,93.2,438.9,93.3z"/>
					<path class="st0" d="M657.1,272.8c0.6-3.6,1.9-7.9,0.3-7.1l-1.4,1.5C656.8,269.4,657.1,271.3,657.1,272.8z"/>
					<path class="st0" d="M559.5,135.6c0.1,0.3,0.2,0.7,0.3,1.1c1,0.2,1.9,0.4,2.7,0.5C561.6,136.7,560.6,136.2,559.5,135.6z"/>
					<path class="st0" d="M552.7,138.8c-0.7-1.3-1.4-2.6-2.1-3.8C551,135.9,551.7,137.1,552.7,138.8z"/>
					<path class="st0" d="M337.2,98.8l-2.1,2.2C339,100.3,337.1,99.7,337.2,98.8z"/>
					<path class="st0" d="M658.7,418.7c1.2-2.7,1.9-5,2.3-7C659.4,415,657.4,417.5,658.7,418.7z"/>
					<path class="st0" d="M431,73.9c-1.4,0.2-2.1,0.5-2.1,0.9C430.4,74.5,431.2,74.3,431,73.9z"/>
					<path class="st0" d="M662.4,403.4c-0.2,0.5-0.4,1-0.6,1.5c0,1.1,0,2.2-0.1,3.3c-0.1,1.1-0.3,2.3-0.6,3.6
						c0.6-1.2,1.1-2.5,1.5-3.9C662.8,406.4,662.8,404.9,662.4,403.4z"/>
					<path class="st0" d="M122.4,301.5c-0.1,0.2-0.3,0.4-0.4,0.6C122.2,302.2,122.3,301.9,122.4,301.5z"/>
					<path class="st0" d="M89.5,390.9c-0.1-1,0-2.5,0-4C89.4,387.7,89.3,388.8,89.5,390.9z"/>
					<path class="st0" d="M641.3,480.3C640.6,482.4,641.4,480.7,641.3,480.3L641.3,480.3z"/>
					<path class="st0" d="M630.8,487.2c0-0.5-0.1-0.9-0.4-1.1C630.7,486.4,630.8,486.8,630.8,487.2z"/>
					<path class="st0" d="M654.2,380.9c0-0.1,0-0.1,0-0.2C653.9,381.3,653.9,381.2,654.2,380.9z"/>
					<path class="st0" d="M639.3,483c0.5-0.7,1.1-1.5,1.6-2.4C640.6,481,640.1,481.7,639.3,483z"/>
					<path class="st0" d="M640.2,482.9c-0.4,0.7-0.6,1.2-0.9,1.7C639.5,485,639.7,484.9,640.2,482.9z"/>
					<path class="st0" d="M642.5,477.5c-0.5,1.2-1,2.2-1.6,3.2c0.3-0.3,0.4-0.5,0.4-0.3C641.6,479.7,641.9,478.9,642.5,477.5z"/>
					<path class="st0" d="M204.9,155.9c-0.1,0.1-0.3,0.1-0.4,0.2C203.5,158,204,157.3,204.9,155.9z"/>
					<path class="st0" d="M622,226.8c0.1,0.1,0.1,0.1,0.2,0.2c0-0.1-0.1-0.2-0.1-0.3L622,226.8z"/>
					<path class="st0" d="M617.5,220.9c3.3,1.8,4,3.4,4.6,5.8c1.2-1.5,2.3-2.9,3.4-4.4C622.8,221.8,620.2,221.3,617.5,220.9z"/>
					<path class="st0" d="M385.2,91.7c1.7,0.4,3.5,0.9,5.2,1.3c-6.1,2.8-10.6,2.2-5.7,4.1c0.2-2.7,5.2-3.2,10.2-3.3
						c5-0.3,10-0.2,10.4-3l3.4,1.2c-1-0.1-1.1,0.3-2.1,0.2c1.6,0.7,2.8,0.8,3.7,0.6c0.9-0.2,1.6-0.7,2.4-1.3
						c1.5-1.1,3.3-2.6,7.6-1.9c3,0.6,5,1.6,2.9,2.1c2.2-0.3,4.5-0.6,6.7-0.8c1.9,0.3,1.4,1.2-0.5,0.9c3.4,0.2,6.8,0.3,10.1,0.7
						l-0.1,0.1c1.5-0.7,5-1.5,6.7-1.9c2.5,1.1-1.4,0.4-0.8,1.2c1.9-0.2,3.9-0.3,5.8-0.5c1,0.9,0.3,1.5-1.1,1.7
						c-1.4,0.3-3.6,0.2-5.5-0.1c2.2,3,3.4,2.9,5.4,2.6c1-0.2,2.2-0.3,3.8-0.2c0.8,0.1,1.7,0.2,2.8,0.5c1,0.3,2.2,0.8,3.5,1.5
						c-1.8-0.1-3.5-0.3-5.3-0.3c1.4,1.8,3.1,2.6,5.2,3.4s4.5,1.4,7.2,3c-0.3-0.3-1.1-0.9-2-1.7c-0.9-0.7-2.1-1.6-2.9-2.4
						c-1.8-1.6-2.6-3.1,0.5-3.2c0.8,0.4,1.8,0.7,2.9,0.9c1.2,0.2,2.6,0.3,4.3,0.1c-0.4,1.9,2.8,2.1,6.8,3l-0.9,2.4
						c4.3,0.4,4.3-1,7.1-1.5c4.6,1.5,5,3.8,5.6,5.7c7.2,2.5-4.2-4.5,4.7-2.4c2.9,1.5,5.5,2.3,8.4,2.9c2.8,0.6,5.9,1.1,9.8,1.7
						c3.9,2.5-1.3,1.2-0.1,2.4l4.4-0.4c0.9,0.4,0.4,0.9,0.1,1.1c1.7,0.3,2-0.3,2.5-0.8c0.3-0.2,0.6-0.4,1.2-0.5
						c0.6-0.1,1.5,0,2.6,0.4c1.2-1,3.1,1,5.3,3.5c1.1,1.2,2.3,2.6,3.6,3.7c1.3,1,2.8,2.1,4.5,2.4c0.8,1.5-1.6,0.8-1.8,1.8
						c2,0.8,3.4,1.7,4.5,2.2c1.1,0.6,1.9,1,2.7,1.4s1.5,0.8,2.6,1.2c0.5,0.2,1.1,0.5,1.8,0.7c0.7,0.3,1.4,0.6,2.3,1l1.6,2.8l1.6,2.9
						c-0.9-2.3,0.1-2.8,1.9-2.4c0.9,0.2,2.1,0.6,3.3,1.2c1.2,0.6,2.5,1.2,3.7,1.9c-0.5-1.9-0.8-3.5-1.2-4.5c2.3,1.8,4.5,3.6,6.8,5.4
						c0.4,1-0.9,1-2.6,0.7c0.5,0.3,1.1,0.6,1.5,0.7c1.3,2.9-0.8,2.7-3.3,2c-0.3-1.1-0.6-2.2-0.9-3.3c-2.6-0.5-5.1-0.7-5.9,0.6
						c0.6,0.2,1.5,0.8,2.4,1.6c-0.7-0.1-1.2-0.1-1.2,0.2c0,0.4,1,0.6,2.4,1.2l-0.8,3.3l1.2-0.4l6,9.5c7.5,4,15.2,6.6,25.1,14.5
						c-3.6-0.7-2.8,2-4.7,3.7c-0.2-2.1-2.3-3.7-4.8-5.4c-2.4-1.7-5.3-3.6-7.4-6.2c2.2,2.7,0.8,3-0.1,2.6c3.3,2.4,6.7,4.7,10.2,7
						c-0.8,0.6-0.6,1.4,0,2.3c0.5,0.9,1.5,1.9,2.2,3.2c1.2-4.4,7.9,4,11.7,6.8c-0.8,1.1-2.6,1.2-6-3.2c1,3.3,3.1,4,5.3,4.7
						c1.1,0.3,2.3,0.7,3.2,1.3c0.5,0.3,1,0.7,1.3,1.2c0.4,0.5,0.7,1.2,0.9,2c-0.9-1.1-1.1-1.8-2-1.8c2.9,1.8,7,8.6,4.9,7.8l-0.9-1.1
						c0.6,0.9,1.4,2,2.2,3.1c0.8,1.2,1.6,2.4,2.4,3.6c0.9,1.2,1.8,2.5,2.7,3.8c0.5,0.6,0.9,1.2,1.4,1.9c0.4,0.6,0.9,1.3,1.3,1.9
						c1.7,2.4,3.5,4.6,5,6.1c0.8,0.8,1.4,1.4,2,1.8c0.6,0.4,1.1,0.6,1.6,0.6c-0.3,0.3-4.2,0.9-5,0.8c5.8,2.9,11.9,6,17.7,9.6
						c-1.6-0.1-3.4,1.9-5.4,3.1c-2,1.2-4.2,1.6-6.5-1.4c0.5,2.1,1.2,4.7,4,8.5c-0.2-1.5,2.3-5.1,3.4-3.3c-0.1,1.6-0.3,2.7-0.3,3.5
						c-0.1,0.8,0,1.4,0,2c0.1,1.2,0.3,2.5,0.3,6.2c-0.1-1.1,1.1-1.6,2.5-1.3s3.1,1.3,3.6,3c-0.8-0.3-4.1,1.8-5,0.8
						c2.4,2.2,4.7,4.5,7.1,6.8c-1.5-1.8-3.7,0.9-4.3,3.1c0.6-1.2,2.1,7.2,3.2,9.3l-0.1-3.8c0.5,2.4,1.4,4.1,2.3,5.4
						c0.9,1.3,2,2.3,3.1,3.3s2.2,2,3.2,3.3c1,1.4,1.9,3.1,2.3,5.6c-1.2-1-6.2-1.6-5.7,3.4c1.4,0.9,4.6,2.8,7.9,5.6
						c3.3,2.8,6.5,6.7,8.2,11c-0.3,0.6-0.7,1.3-1.1,1.9l2.4,6.7c-1-1-2.3-2.4-3.7-4s-3-3.5-4.7-5.5c-1.6-1.9-3.3-3.9-4.7-5.7
						c-0.7-0.9-1.4-1.8-2-2.7c-0.7-0.8-1.3-1.6-1.8-2.3c-0.3,3.8-1.3,1.3-0.2,6.7c-0.9,2.1-2.3-2.6-2.7-4.2
						c0.5,4.2,0.9,8.5,1.3,12.7c2.6-1,3.9,9.4,6.1,8.6l-2.3-6.8c-0.4-1.1-0.7-2.3-1.2-3.4l-1.3-3.3c1.3-0.5,3.5,1.2,5.5,4.2
						c1,1.5,1.9,3.4,2.6,5.4c0.4,1,0.7,2.1,0.9,3.2c0.3,1.1,0.4,2.3,0.4,3.4c-0.8,2.5-4.9-1.3-5.8-1c1,1.1,2.6,8.5,2,9.4l-1.8-3.7
						c-0.3,2.6,0.8,4.6,1.7,6.7c0.8,2.2,1.5,4.5,0.3,7.6c0,2.1-3.2,6.4-1.6,6.7c3-3.5,12.5-4.6,14.8-2.3c-0.2,0.8-2.6,11.6-4.3,14
						c-2.4,3.5-5.7-5.3-7.8-2.3c0.7,0.1,1.6,2.1,1.9,2.9c-0.7,2.2-2.3-0.9-2,3.9c2.8,0.9-0.5,9.9,2.3,2.4c0.6,4.8-0.8,5.1-0.9,10.7
						c0.9-0.8,2.4,0.5,3.6,2.7c1.2,2.2,2.2,5.2,2.4,7.7c-0.7-0.3-1.7,0.7-2.1,1.2c-0.2,2.5-0.7,4.6-1,6.6c-0.4,2-0.8,3.9-1.1,5.7
						c-0.8,3.6-1.7,7.2-2.4,11.7c-0.7,0.7-2.4,4.9-3.2,2.9c0.2,1.4,0.9,2.7,0.5,5.5c-3.3,4.9,0.8-6.2-2.8-2.7c0.7,0.3,1,2.2,1,4.5
						c0.1,2.3-0.2,5.1-0.1,7.2c1.3-0.3,2-2.6,2.2-5.3c0.2-2.7,0-5.8-0.1-7.9c3.3,0.5,5.7,8.2,5,18.1c-0.4,3.9-1.2,4.6-1.8,4.5
						s-1-1-0.9-0.3c-2.1,7-1.4,10.4-1.1,13.4c0.2,1.5,0.3,3,0.1,4.7c-0.3,1.7-0.9,3.8-2.5,6.5c-3.6,3.9-4.1-1.2-5.9-0.6
						c0.3-1.6,0.8-2.9,1.2-4c0.4-1.2,1-2.2,1.5-3.2c1-1.9,2.1-3.6,2.7-5.7l-2.5,4.7c-0.1-2.1,0.6-6.3,1.8-8.3
						c-0.7,0.8-1.5,2.7-2.4,5.2c-0.5,1.2-0.9,2.6-1.4,4.2c-0.5,1.5-1,3.1-1.6,4.8c-1.2,3.3-2.4,6.8-3.7,10.1
						c-1.4,3.2-2.8,6.3-4.2,8.7c-0.1,2.1-0.8,5.5,0.7,4.4c0.4-1.1,0.8-2.2,1.1-3.4c1.4-1.2,1.4,0.6,1.2,2.2s-0.4,3,0.9,1.1
						c-0.8,4.8-1.1,10.7-5.1,16.3l-2.8,0.1c0.7,0.2,3.2-3.3,3.4-5.4c-0.1,1.5-2,3.5-3.7,5.6c-0.8,1-1.6,2.1-2.1,3.2
						s-0.7,2.1-0.4,3.2c1.2-1.1,2.5-2.2,3.7-3.4c-0.2,1.2-0.5,2.5-0.8,3.9s-0.6,2.8-0.9,4.2c-0.7,2.9-1.8,5.8-3.7,8.2
						c1.8-0.6,1.9-0.9,2.1-1.4c0.3-0.5,0.7-1.1,2.9-2.3c-4.9,1.6,7.5-13.7,1.4-10.1c2.5-1.2,3.6-2.8,4.8-4.6
						c1.2-1.8,2.4-3.7,4.9-5.8c-0.8-0.2-2.2,1.3,0.2-3.3c-0.1-0.3-0.2-0.9-0.2-1.3c0.1-0.1,0.1-0.2,0.2-0.3
						c-0.1,0.1-0.1,0.1-0.2,0.2c0-0.3,0-0.3-0.1,0.1c-0.8,1-1.6,1.7-2.2,1.9c-0.7-3.1,2.6-10.4,2.6-13.4c1.4-2.7,0.4,1.5,1.8,0.3
						l0.1-4.3c0.9,0.1,2.3-1.5,3.3-2.2c1-0.8,1.6-0.7,0.8,2.8c0.8-2,1.5-4,2.3-6c2.2-3.3,4.3-8.1,4.4-11.4c1.3-2.8,0.3-7.9,0.9-5
						c0.7-3.3,1.1-6.7,1.6-10h0.5c1.4-4.8,1.7-10,2.5-15.2c0.4-2.6,0.7-5.3,1.4-7.9c0.6-2.7,1.6-5.3,2.8-8c0-1.7,0-3.4,0.2-5.4
						s0.5-4.2,1-7l1.7-0.9c0-2.2,0.7-5.3,1.3-8.2c0.5-2.9,0.8-5.5,0.1-6.5c1.1-1.1,1.9-2.9,2.3-5.2c0.4-2.3,0.5-5,0.5-7.8
						c0-1.4,0-2.8,0-4.2c-0.1-1.4-0.1-2.8-0.2-4.1c-0.1-2.7-0.1-5.1,0.1-7l-2-0.3c0-2.6-0.2-5.1-0.4-7.8c-0.1-1.3-0.3-2.7-0.5-4.2
						c-0.2-1.4-0.5-3-0.8-4.6l-1.8,0.5c-0.9-2.7-0.7-6.3-0.6-10.2c0.1-2,0.1-4.1,0.2-6.2c0-2.1,0-4.3-0.4-6.5
						c0.8,0.5,0.9,2.7,0.6,4.4c0.8-2.7,0.7-5.4,0.3-8.1c-0.2-1.3-0.5-2.7-0.8-4s-0.7-2.7-1.2-4c-1.8-5.2-3.5-10.2-3.2-15.2
						c-1.1-2.2-1.3-3.9-1.2-5.6c0,0.2,0.1,0.4,0.2,0.6c0-0.2-0.1-0.6-0.2-1c0.1-1.1,0.2-2.2,0.2-3.4c-0.2,1.1-0.3,2.1-0.3,2.9
						c-0.4-1.8-1.4-4.4-2.5-6.9l1.6-1.6c-0.1-0.2-0.1-0.4-0.2-0.6c0-2.8-1.4-1.9-2.5-0.1c-0.7-1.2-1.3-2.4-2-3.2
						c2.4-2.9-3-6.5-0.7-10.3c-1-0.7-2.4-3.8-4-6.8s-3.4-5.9-5.3-5.9c0.4-0.2,0.3-1.1,0.8,0.3c-0.8-2.9-1.5-5.9-3.4-8l1.8-2.1
						c-0.9-0.8-1.9-1.6-2.8-2.4l-2.9-2.3c-0.3-4.2-0.2-6.2,3.1-3.3c-1.7-1.9-2.8-3.3-3.6-4.3c-0.9-1-1.4-1.8-2-2.5
						c-1.1-1.4-2.1-2.7-5.2-5.6l1.6-0.4c-0.7-1.3-2.2-2.6-3.4-4c-1.2-1.3-2.2-2.6-2.1-3.7c-0.1-0.9-0.4-2-0.9-3.3s-1.3-2.7-2.2-4.3
						c-1.9-3.1-4.2-6.9-7.1-10.6c-1.4-1.9-2.9-3.8-4.4-5.8c-1.6-1.9-3.2-3.8-4.7-5.7c-3-3.9-6.3-7.5-8.8-11
						c-0.5,2.8-1.5,1.1-2.8-1.2c-1.2-2.1-2.6-4.5-4.1-3.5c0.1-1.4-0.9-3.4,1.5-2.3c-6.3-5-7-10-13.1-12.2c0.2-1.4,2.4,0.3,2.3-0.8
						c-0.6-0.3-2.5-1.3-2.5-2.4c-0.1-1.1,1.5,0.3,2.7,1c-5.8-6.2-8.9-4.7-11.7-3c-1.8-4.2-3.4-5.7-7.1-6.6c-0.3-1.8-1.2-4.4,2.7-0.8
						c-0.5-0.6-1.4-1.8-2.7-3.2c-1.2-1.4-2.7-3.2-4.2-4.7c-0.8-0.8-1.5-1.5-2.3-2.2s-1.5-1.2-2.1-1.7c-1.3-0.9-2.3-1.3-2.8-0.9
						c-0.3-1.1-3.2-3-4-3.3c-5.4-4.5-5.7-5.1-11.8-8.7l1.5,1.3c-2,0.6-3.3,0-4.8-1c-0.7-0.6-1.6-1.1-2.5-1.7c-1-0.6-2.1-1.3-3.4-1.7
						l0.3-0.2c-10.6-6.7-5.3-1.1-15.8-7.7v2c-0.6,0.9-1.5,0.9-2.6,0.5s-2.4-1.2-3.9-2.2s-3.1-2.1-4.8-3c-1.7-0.9-3.6-1.5-5.4-1.6
						l2.1,1.8c-2,0.1-4.2-2-6.4-4.3c-2.2-2.3-4.4-4.8-6.2-5.5c-0.7-0.6,1.4-0.2,2.7-0.2c-4.7-2.5-5.2-1.9-5.4-0.9
						c-0.2,1-0.3,2.4-4,1.8c-1.1-1.6,2.5-3-2.4-4.3c-1.1-0.9-5.1-0.5-9.4-0.4c-1.1,0-2.2,0-3.3,0c-1.1,0-2.3-0.1-3.3-0.2
						c-2.2-0.2-4.2-0.7-5.8-1.6c1.4,1.3,2.7,2.6-0.9,2.8c-2.7-0.2-6.2-1.6-9.7-2.7c-3.5-1-7-1.6-9.6-0.2c-0.7-0.4-0.9-0.6-0.9-0.9
						c-2.1,0.3-5.5,0.4-8.7,0.6c-3.2,0.3-6.1,0.8-7.4,1.6c-1.8-3.4-8.3-2.7-14.2-1.9c-5.9,1-11.3,2-11.4-1c-4.2,0.3-8.5,0.6-12.7,1
						l0.3-0.6c-4.1,0.1-6.8,0.6-8.8,1.3c-2,0.7-3.4,1.6-4.7,2.5c-1.9-0.2-0.6-0.9-0.5-1.3c-3,0-5.3,0.2-7.2,0.3
						c-1.9,0.2-3.5,0.4-5,0.7c-2.9,0.8-5.6,2-10.2,4.4l-1.4-1.7c-0.6,0.4-2,0.6-3.9,0.8c-1.9,0.2-4.4,0.3-7.1,0.6
						c-2.7,0.3-5.7,0.6-8.7,1.4c-3,0.7-5.9,1.6-8.6,3c0.1-0.2,0.2-0.7,1-1.2c-3,1.4-6.5,2.4-10.1,3.2c-3.6,0.9-7.2,1.5-10.6,2.2
						c-3.4,0.8-6.4,1.7-8.8,2.9c-2.3,1.3-3.9,2.8-4.4,5l-3.7,2.4l-3.6,2.6c5.2-2,5.1-1.1,4.3,0.2c-0.8,1.3-2.3,3,0,2.6
						c-3.8,2.1-11.1,2.5-6.4,0h0.9c0.1-1.1-0.7-1.3-2-1.1c-0.6,0.1-1.3,0.3-2.1,0.5c-0.8,0.3-1.6,0.6-2.5,1
						c-3.4,1.4-6.9,3.1-7.3,1.9c-9.8,5.1-19.4,10.2-28.7,15.7c-2.3,1.4-4.6,2.7-6.9,4.2c-2.2,1.5-4.5,3-6.7,4.5
						c-4.3,3.1-8.6,6.3-12.5,9.7l3.7,0.6l-5.5,4.6c-0.9,0.4-1.8,0.4-1.9-0.1c-0.1-0.5,0.4-1.6,2.4-3.2c-0.8,0.1-1.5,0.6-2.2,1.3
						s-1.2,1.6-1.7,2.4c-0.9,1.7-1.4,3.4-1.2,3.7c-4.1,3-4,1.8-3.1,0s2.5-4.1,1.3-3.1L188,152l0.9-0.4c-1.6,3.2-0.9,4.4-5.3,8.7
						c-1.6,1.2-2.2,1.3-2.7,1.2c-0.4-0.1-0.6-0.4-1.2,0.1c-0.1-0.1-0.6,0.2-1.7,1.7c-2.1,2.2-4.3,4.4-6.2,6.7
						c1.4-0.4,2.7-0.9,4.1-1.3c-1.8,3.8-5.6,6.4-0.9,4.9c-1.7,0.5-4.1,2.3-6.5,4.8c-1.2,1.3-2.5,2.7-3.8,4.2
						c-0.6,0.8-1.3,1.5-1.9,2.3c-0.6,0.8-1.2,1.6-1.8,2.5c-2.4,3.3-4.7,6.6-6.5,9.2c-1.8,2.7-3.2,4.6-4,5.2c-0.8,2.8-1.9,5.4-3.4,8
						c-1.4,2.6-3,5.2-4.8,8.1c1.3-1.2,4-0.8,0.8,4.1c-1.8-2.3-3.6-0.2-5.7,2.7c-1,1.5-2.2,3.1-3.3,4.6c-1.2,1.5-2.4,2.8-3.8,3.4
						c2.1-1.3,0.3,2.5-1.2,6.1c-1.4,3.7-2.6,7.1,0.5,4.8c-2.5,4.2-1.9-0.6-4.7,2.2c-1.5,5.8-4.4,11.5-7.5,17.7c-1.6,3-3,6.2-4.5,9.5
						s-2.7,6.7-3.7,10.2c0.6,0.4,2.4-1.5,2.4,1.8c-2,2-3.8,4.1-5.7,6.2c-0.3,1.4,0.5,2.4,0.8,3.5s0.3,2.4-1.6,4.6
						c0.8-0.5,1.9-1.3,1.6,0.6C101,313.2,98.3,327.6,96,342c-2.2,14.4-4,28.8-8,43.2c1.6-3.9,1.6-1.2,1.4,1.8
						c0.4-1.9,1.7,0.1,2.7-0.2c-0.6,2-1.1,4-1.6,6l-1.5,6c1.3,1.1,1.4,4.4,1.4,7.5s0.2,6.1,1.5,6.7l-0.6-3.8
						c1.6,2.5,3.1,0.7,4.9-1.6c1.8-2.3,3.6-5.1,5.5-4.7c-0.8-1.4-1-3-0.7-4.7c0.3-1.8,0.9-3.7,1.5-5.7c0.3-1,0.6-2,0.8-3.1
						c0.3-1.1,0.5-2.1,0.5-3.2c0.2-2.2-0.1-4.5-1.1-6.8c0.9-1.9,1.1,1.8,2.1,0.8c-1.4-2.4-1.5-5.2-0.4-10.2l0.4,0.6
						c0.3-3.6,0.7-6.6,1.1-9.5c0.5-2.8,1.1-5.4,1.7-8s1.4-5.3,2.2-8.2c0.4-1.5,0.8-3,1.3-4.7s1-3.5,1.5-5.4l-2.1,0.8
						c0.9-3.4,1.6-3.9,2.5-5.4c-0.9-2.2-1.6,0.1-2.1,2.5c-0.6,2.4-1.2,4.9-2.4,2.8c1.2-0.9,2.1-2.9,2.8-5.4c0.8-2.4,1.5-5.4,2.2-8.3
						s1.6-5.7,2.4-7.9c0.5-1.1,0.9-2.1,1.5-2.8c0.5-0.7,1.1-1.2,1.8-1.5c1.5-5.1-2.5,0.9-1-4.2l1.5-1l-1.1-1.7
						c1.2-3.3,3.2-4.5,4.2-4.3c-0.4,0.8-0.5,2.4-0.7,3.3c1.4-1.9,2.2-5,2.8-7.7c0.6-2.7,1.1-5.1,1.6-5.8c-0.8,1.5-1.6,3-2.4,4.6
						c0.9-3.5,2.1-7.2,3.3-10.9c0.7-1.8,1.4-3.7,2.1-5.6s1.4-3.7,2.2-5.6c1.5-3.7,2.9-7.4,4.3-11c0.7-1.8,1.3-3.6,1.9-5.4
						c0.6-1.8,1.2-3.5,1.7-5.2l-1.3,0.6c0.8-2.6,1.5-4.4,2.1-5.7c0.7-1.3,1.3-2.3,2-3.2s1.4-1.9,2.2-3.3c0.4-0.7,0.9-1.5,1.4-2.5
						s1.1-2.1,1.7-3.4v0.5c0.2-1.2,0.6-2.6,1.1-4c0.3-0.7,0.6-1.4,0.9-2.1c0.4-0.7,0.8-1.4,1.2-2.1c-0.6,3.1,4.6-3.8,3.6,0.2
						c1.1-2.7,1.8-4.4,2.1-5.6c0.4-1.2,0.5-1.8,0.6-2.3c0-1.1-0.3-1.8,0.3-6l2.2-0.7c0.3-2.9-0.1-3.5,2.9-8.6
						c-1.7,4.7,4-1.8,2.3,3.6c1.2-1,2.2-2.1,3.1-3.1c0.9-1,1.7-2,2.3-3c1.3-2,2.2-3.9,3.1-5.5c1.8-3.3,3.3-5.9,6.9-6.6
						c0.2-3.4-2-1.8-3.9,0.4c-2,2.2-3.8,5-3.2,3.5c-1.4,0.6-1.2-0.7-0.4-2.7c0.8-1.9,2.3-4.4,3.7-5.7c2.7-3,8.3-1.9,14.8-9.1
						c-0.7,0.7-0.5,1-1.2,1.7c3.2-2,3.9-6.2,8.3-8.3c0-3.6,4.3-3.9,2.7-6.7l-3,3.4c-1,1.1-2,2.3-2.9,3.5c0.8-1.1,1.4-2.3,2-3.5
						s1.3-2.5,2.1-3.8s1.7-2.6,2.9-3.9c1.2-1.3,2.7-2.4,4.6-3.5c-0.1,0.9-1.4,3.2-2.4,4.7c2.5-0.9,3.2-3.6,5.8-4.6
						c0.7,1.4-1.2,3.4-3.6,5.6c-2.4,2.3-5.2,5-6.4,7.7c2.8-0.8,5.9-8.8,6.3-4.4c-0.1-3,1.9-4.4,4.1-6c1.1-0.8,2.3-1.7,3.4-2.7
						c1.1-1,2.2-2.3,3-3.9l0.8,1.8c0.6-0.9,1.7-3,3.3-4.1c-0.5,1.3-0.8,2.7-1.2,4.1c1.4-2.5,3.8-3.6,6.2-4.7c1.2-0.5,2.4-1,3.5-1.6
						s2.2-1.2,3.1-2.2c-2.2,1.5-3.5,2.2-4.3,2.5s-1.1,0.1-1.2-0.3c-0.3-0.7-0.1-2-2.3-1.2c2.3-2.5,4.1-3.7,5.6-4.3s2.7-0.6,4-0.6
						c2.5,0,5.4,0.2,11.4-4c-1.6,1.2-7,3-4.8,0.6c1.3-0.6,2.8-1.2,4.3-1.7c1.5-0.4,2.9-0.7,3.9-0.7c8.3-5.2-2.3-1,0.8-4
						c1,0.1,1.7-0.1,2.3-0.4s1.1-0.8,1.5-1.4c0.9-1.2,1.7-2.7,3.5-4.1l0.9,1.7c2.6-1.1,4-1.8,4.8-2.5c0.7-0.7,0.8-1.3,0.9-1.8
						c0.1-1.1,0.1-2.2,5.1-3.7c-1,1.4-1.9,2.8-2.8,4.3l2.2-1.5l2.3-1.4l-0.1,2.4c4.6-3.8,6.4-4.2,11.8-5.7c-1.7-0.8-0.6-3.6,4.1-5.4
						c3.6-0.1-1.2,2.4,5.4-0.3c-1.1,1.7-2.2,3.7-5.7,3.1c-0.1,0.7-1,1.7-1.1,2.4c1.9-0.1,4.1-0.8,6.1-1.6c2-0.8,3.8-1.8,5-2.2
						c-1,0.2-2.1,0.6-2.7,0.5c1.4-1,2.9-2,4.4-2.9l4.5-2.9c1.8,0.2,0.7,1.1-0.3,2.1c1.9-0.9,3-2.1,5.9-3.1c-0.3,1.7,0.3,3.2-3.6,5.2
						c2.9-1.5,5.9-3,8.8-4.4c0.8,0.5,5.3,0.5,4.2,1.4c2.7-0.2,5.7-1.9,9-3.3c1.6-0.7,3.3-1.5,5.1-2.1c1.7-0.6,3.5-0.9,5.4-1
						c0.3-0.4,1-0.8,2.4-1.3c1.7-0.3,3.3-0.3,5-0.4c1.6-0.1,3.3-0.1,4.9-0.3c3.3-0.3,6.8-0.7,10.6-2.4c1.6,0.7,3.2,1.5,4.8,2.3
						c6.1-1.3-6.5-2.9,3.8-5c7.3-1.5,3,2.2,5.6,2.7c1.8-0.8,4.2-2.2,7.1-2.9c2.9-0.7,6.2-1.1,9.6,0C389,91.7,387.2,91.4,385.2,91.7z
						 M462.3,96.2c-1.6,0.1-4.7,0.8-5.6-0.6C458.8,93.8,459.9,95.1,462.3,96.2z M564.6,146.8c-1.2-0.4-2.2-2-3-3.9
						C562.7,143.8,563.7,145.1,564.6,146.8z M648.3,457.3c0-0.1,0-0.1,0-0.2C650.1,454,649.5,455.1,648.3,457.3z M645.1,464
						c0,0.8,0.3,0.8,0.6,0.6c-0.3-0.7,0.2-2.2,1-4C646.1,461,645.4,461.8,645.1,464z M179.7,162.7l1.3-0.7
						C179.3,164.7,179.5,163.7,179.7,162.7z"/>
					<path class="st0" d="M553.5,138.4c-0.1-0.5,0.1-0.9,0.3-1.2C553.2,137,552.9,137.3,553.5,138.4z"/>
					<path class="st0" d="M337.6,98.4c-0.1,0-0.2,0-0.2,0c-0.1,0.1-0.1,0.3-0.2,0.4L337.6,98.4z"/>
					<path class="st0" d="M647.9,352.4c0.3-1.4,0.7-2.2,1-2.8C648.5,349.5,648.1,350.2,647.9,352.4z"/>
					<path class="st0" d="M632.5,501.3c0.6-1.5,1.1-3,1.7-4.5c-0.9,2.1-1.6,2.7-2.5,3.6C632.1,500.5,633.1,500,632.5,501.3z"/>
					<path class="st0" d="M600.9,529.6c-0.2,0.7-0.8,1.2-1,1.8l0.8,0.4C602.4,529.4,603,527.4,600.9,529.6z"/>
					<path class="st0" d="M624.7,502.2c-1.6-0.4-2.5,2.4-3.8,5.4c0.1-0.2,0.2-0.3,0.3-0.5C622.7,509,623.7,505.6,624.7,502.2z"/>
					<path class="st0" d="M620.6,508.2c-0.5,0.9-0.9,1.8-1.5,2.6C619.6,511.6,619.8,509.9,620.6,508.2z"/>
					<path class="st0" d="M642.8,473.1c-1,1.3,1.6,1.7,0.6,2.3C644.7,477.8,644.9,464.7,642.8,473.1z"/>
					<polygon class="st0" points="618.8,501.9 621.1,501.9 620.5,499.5 					"/>
					<path class="st0" d="M631.3,479.8l-2.6,4.5c0.3,0.1,0.2,0.7,0,1.5C630.2,482.9,631.9,479.9,631.3,479.8z"/>
					<path class="st0" d="M628.8,485.8c-0.8,1.5-1.4,2.9-1.5,3.9C627.6,488.9,628.4,487.1,628.8,485.8z"/>
					<path class="st0" d="M621.6,495.5l1.1-1.1l1.7-3.2C623.4,492.6,622.6,494.1,621.6,495.5z"/>
					<path class="st0" d="M649,427.3l0.6-5.6c-0.5-0.7-1.3,0.7-1.5,2.8C648.4,425.9,648.2,428,649,427.3z"/>
					<path class="st0" d="M639.4,442.2c0.8-1.3,1.3-1.3,2.2-1.9l-2.3-0.8L639.4,442.2z"/>
					<path class="st0" d="M643,426.5c-0.6-0.7-0.2-8.2-1.6-1.4c0.3,0.3,0.3,1.9,0.4,2.8C641.9,428.7,642.2,428.9,643,426.5z"/>
					<polygon class="st0" points="654.7,343.8 654.8,345.2 658.9,344.9 					"/>
					<path class="st0" d="M635.7,272.9c0.6,6.4,2.8,0.9,3,6.8c1.3,1.2-0.2-4.8,1-3.5C637.8,272.6,637.9,270.5,635.7,272.9z"/>
					<path class="st0" d="M639.7,276.1c0.3,0.6,0.7,1.2,1.1,1.8C640.3,276.9,640,276.4,639.7,276.1z"/>
					<path class="st0" d="M87.1,406.9l-0.4,2.2l-0.3,2.2c0.4-1,0.8-1.9,1.3-2.9L87.1,406.9z"/>
					<path class="st0" d="M90.4,415.3l-2.6,1.1l2.4,2.5C90.1,418,89.8,416,90.4,415.3z"/>
					<path class="st0" d="M472.4,103.7l0.4-0.5c-0.5-0.8-1.4-1.1-3.2-1.6L472.4,103.7z"/>
					<path class="st0" d="M417.7,93.9c0.3,0,0.6,0.1,1,0.1c-0.6-0.8-1.1-1.6-1.7-2.4L417.7,93.9z"/>
					<path class="st0" d="M371.2,97.7c1.9,0,4.1-0.7,6-0.8C373.1,97.6,370.5,94.8,371.2,97.7z"/>
				</g>
			</g>
		</g>
	</g>
</g>
<g>
	<g>
		<path class="st1" d="M422.7,341.6"/>
	</g>
</g>
<g>
	<path class="st0" d="M226.3,339.6c-0.7,1.1-1.7,1.9-2.9,2.2c-1.3,0.3-2.4,0.9-3.6,1.5c-1.1,0.7-2.3,1.6-3.4,2.7
		c-1.1,1.1-2.3,2-3.4,2.7c3.2,12.3,5.7,23,7.5,32.1s3,15.9,3.4,20.5c0.5,4.6,0.8,9.6,1,15c0.2,5.5,0.3,10.5,0.3,15
		c0,3.4-0.2,6.2-0.5,8.4c-0.3,2.2-0.9,4.3-1.5,6.3c-2.7-3.4-5-7.1-6.7-10.9c-1.7-3.9-3.5-7.7-5.3-11.6c-3.9-11.6-7.6-23.8-11.1-36.5
		s-7-25.7-10.4-38.9c-6.4-0.2-13.2-0.3-20.5-0.3s-14.6,0-21.9,0c-7.3,0-14.2,0.1-20.7,0.2s-12.1,0.3-16.9,0.5
		c-0.5,1.4-0.9,3-1.4,4.8c-1.4,3-2.5,6.2-3.4,9.7s-1.7,7.3-2.4,11.3c-0.7,4-1.5,8.1-2.4,12.5c-0.9,4.3-2,8.7-3.4,13
		c3,0,5.9-1,8.7-2.9c2.8-1.9,5.7-2.9,8.7-2.9c-2,2-3.8,4.3-5.3,6.8s-2.8,5.8-3.9,9.9c-0.2,1.1-0.9,2.3-2,3.6
		c-1.1,1.3-1.9,2.2-2.4,2.9c-0.5,0.9-0.9,1.9-1.4,2.9s-1,1.8-1.7,2.2c-1.6,0.9-3,1.4-4.1,1.5s-1.9-0.2-2.4-0.9
		c-1.8-2.7-3-5.6-3.6-8.7s-1.1-6.3-1.5-9.7c0-6.1,0.8-14.1,2.4-23.9s3.6-20.3,6.1-31.4c-1.8-0.5-3.6-1.3-5.5-2.6
		c-1.8-1.2-3.4-2.1-4.8-2.6c-2.5-1.1-4.6-1.8-6.1-1.9c-1.6-0.1-3.3-1-5.1-2.6l20.8-5.5c1.1,0,2.6-0.2,4.4-0.7
		c2.7-10.7,5.5-20.9,8.2-30.7c2.7-9.8,5.3-18.1,7.9-24.9c1.8-5.2,4-11.3,6.7-18.1c2.6-6.8,5.7-13.4,9.2-19.6
		c3.5-6.3,7.5-11.7,12-16.2c4.4-4.6,9.3-7.4,14.5-8.5c1.6-0.5,3.2-0.8,4.8-1s3.3-0.3,5.1-0.3s3.2,0.9,4.1,2.6
		c0.9,1.7,2.3,3.8,4.1,6.3c1.1,2,2.2,3.8,3.2,5.3s2.1,4.5,3.2,9.1c5.5,16.6,10.6,33.3,15.4,50c4.8,16.7,9,32.5,12.6,47.3l20.8,4.4
		L226.3,339.6z M156.6,229.9c-3.9,5.2-7.5,11-10.9,17.2c-3.4,6.3-6.8,13.4-10.2,21.5c-3.4,8.1-6.8,17.3-10.2,27.7
		c-3.4,10.4-6.9,22-10.6,35c11.8-1.4,23.7-2.2,35.5-2.4c11.8-0.2,23.6,0.2,35.2,1.4c-4.8-18.4-9.5-36.4-14-53.8
		C166.7,259.1,161.8,243.6,156.6,229.9z"/>
	<path class="st0" d="M310.3,345.8c-0.9,2.6-1.5,4.5-2,5.9s-1.3,1.5-2.3,0.5c-2.4-2.4-5.3-5-8.7-7.7c-3.4-2.7-7.6-4.4-12.6-5.1
		c-3.2-0.3-6.7,0-10.4,1.2c-3.7,1.1-6.4,3.5-8.3,7c-1.7,3.1-2,6.7-0.8,11c1,4.4,3.3,7.6,6.8,9.6s7.4,3.5,11.8,4.6s8.8,2.1,13.3,2.9
		c4.5,0.9,8.4,2.4,11.7,4.6c1,0.5,1.8,1.3,2.4,2.4s1.2,2.1,1.9,2.9c0.9,1,1.7,1.9,2.4,2.6c0.8,0.7,1.5,1.7,2.2,3.1
		c0.5,1,1.1,2.3,1.8,3.7c0.7,1.5,0.9,3,0.5,4.7c-0.5,2.2-2.7,4.6-6.4,7.2c-8.2,5.3-16.8,9.5-25.9,12.7s-18.6,3.7-28.7,1.7
		c-1.2-0.3-2.6-1.5-4.1-3.5s-2.8-3.3-3.8-4c-2.7-1.5-4.6-3.5-5.6-5.9c-1.4-4.4-2-9.3-2-14.6c0-1.7,0.3-2.5,0.9-2.4
		c0.6,0.1,1.2,0.1,1.7,0.1c1,0,2.2,0.7,3.5,2c1.3,1.4,2.6,2.9,4.1,4.7c1.4,1.8,2.8,3.4,4.1,4.9c1.3,1.5,2.3,2.2,3.2,2.2
		c2.9,1.4,6.4,2.1,10.5,2.3c4.1,0.2,8.2-0.2,12.4-1.2c4.2-0.9,8.1-2.5,11.8-4.6c3.7-2.1,6.6-4.8,8.8-8.1c0-0.9-1-1.9-2.9-3.1
		c-2-1.2-4.5-2.5-7.6-4c-3.1-1.4-6.4-2.9-10.1-4.5c-3.7-1.5-7.2-3.2-10.5-4.9c-3.3-1.7-6.2-3.5-8.7-5.4s-4.1-3.8-5-5.6
		c-0.5-1.4-1.1-2.8-1.8-4.2c-0.7-1.4-1.1-2.5-1.3-3.2c-0.9-3.8-1-7.4-0.5-10.9s1.5-6.6,3.1-9.4c1.5-2.7,3.6-5,6.1-6.8
		s5.5-2.9,8.7-3.5c5.1-0.7,10.6-0.7,16.5-0.1s11.1,2.6,15.8,6c1.4,1.2,2.3,2.3,2.9,3.3s1.1,2.2,1.4,3.6c0.2,0.9,0.3,1.7,0.5,2.4
		C311.2,344.1,311,345,310.3,345.8z"/>
	<path class="st0" d="M398.4,339.7c2.2,5.5,4.3,11.4,6.3,17.7c2,6.3,3.3,12.6,4.1,18.8c0.8,6.2,0.8,12.3,0,18.1
		c-0.8,5.8-2.8,10.8-6,15.1c-1.4,1.7-3,2.4-4.9,2c-0.7-0.2-1.3-0.6-1.8-1.3c-0.5-0.7-1.2-1.3-2-1.8c-0.7-0.5-1.4-0.9-2.2-1.3
		c-0.8-0.3-1.5-1-2.2-2c-2.6,0.9-5.1,2.1-7.6,3.7s-5,3.3-7.6,5s-5.2,3.4-7.9,5c-2.7,1.6-5.6,2.8-8.5,3.5c-3.1,0.9-5.3,0.7-6.8-0.4
		s-3-2.3-4.7-3.7c-1.2-1-2-1.7-2.3-1.9c-0.3-0.3-0.7-1.3-1-3.2c-0.5-3.8-0.6-7.8-0.1-12.2c0.4-4.4,1.4-8.8,2.9-13.2
		c4.3-13,13-21.7,26.1-26.1c1.5-0.5,3.1-0.6,4.7-0.4c1.6,0.3,3.2,0.7,4.7,1.4c1.5,0.7,3,1.5,4.5,2.6c1.4,1,2.8,2,4,3.1l4.1,3.3
		c0.9-2.9,0.8-6-0.1-9.4c-0.9-3.3-2.3-6.5-4.2-9.5c-1.9-3-4-5.7-6.4-8.1s-4.7-4-6.9-4.9c-8.7,0-16.5,2-23.4,6s-13.6,9.3-20.1,15.8
		c-0.3,0.3-0.7,0.6-1.2,0.8c-0.4,0.2-0.8,0.3-1.2,0.5c-0.5,0.3-1.1,0.4-1.8,0.3c-0.5-0.2-0.6-0.7-0.3-1.5c1-5.5,3.1-10.4,6.1-14.7
		c3.1-4.4,6.7-8.2,10.8-11.4c4.1-3.2,8.5-6,13.1-8.2s9.1-3.8,13.6-4.9c0.7-0.3,1.3-0.6,1.9-0.6c0.6-0.1,1.3-0.1,2.2-0.1
		c1.2,0,2.3,0.3,3.3,1s2.2,1.5,3.6,2.3c1.7,0.9,3.4,1.8,5.1,2.9s3.2,2.4,4.6,4c1.2,1.4,2.2,2.7,3.1,4.1
		C396.9,337.2,397.7,338.5,398.4,339.7z M389.7,385.3c-1-2.2-2.6-4.3-4.7-6.1c-2.1-1.9-4.6-3.3-7.3-4.2c-2.7-0.9-5.7-1.2-8.8-0.6
		c-3.2,0.5-6.4,2-9.6,4.6c-1,2.2-2,4.7-3.1,7.3c-1,2.6-1.8,5.3-2.3,7.9s-0.7,5.3-0.6,7.9s0.6,5.1,1.7,7.3c6.5-2.2,12.8-4.8,19-7.7
		c6.1-2.9,11.4-5.5,15.9-7.7c1-1,1.6-1.9,1.8-2.6c0.2-0.7,0.1-1.3-0.1-1.8c-0.3-0.5-0.6-1.1-1-1.8
		C389.9,387.1,389.7,386.3,389.7,385.3z"/>
	<path class="st0" d="M448.3,365.8c3.9-5.8,8.6-10.5,14.1-14s11.8-5,19-4.5c1,0.2,2.1,0.6,3.3,1.2c1.2,0.6,2.3,1.2,3.3,1.7
		c2.6,1.4,5,3.4,7.2,6s4.2,5.6,6,9c1.8,3.3,3.3,6.8,4.5,10.4s2,6.9,2.6,10c0.3,1.9,0.6,4.3,0.8,7.2c0.2,2.9,0.3,5.6,0.3,7.9
		c-0.3,0-0.5,0.1-0.5,0.3c0,0.2-0.2,0.2-0.5,0c-1.4-0.7-2.5-1.6-3.3-2.8c-0.3-0.3-0.9-0.7-1.5-1.2c-0.7-0.4-1.1-1-1.3-1.7
		c-0.3-1.7-0.7-4-1.2-6.8c-0.4-2.8-1.2-5.8-2.2-9.1c-1-3.2-2.3-6.4-3.8-9.6s-3.4-5.9-5.6-8.3c-0.9-0.9-1.6-1.5-2.2-1.9
		s-1.3-0.9-2.2-1.4c-0.9-0.7-2.1-1.2-3.8-1.4c-1.7-0.3-3.2-0.2-4.4,0.1c-2.9,0.9-6,2.5-9.2,4.9s-6.1,5.3-8.5,8.8s-4.1,7.6-5.1,12.2
		s-0.6,9.6,1.3,14.9c0.5,1.5,0.9,2.8,1,3.7c0.2,0.9,0.2,1.8,0.1,2.7c-0.1,0.9-0.4,1.8-0.9,2.8s-1.2,2.4-2,4.1
		c-1.4,2-2.9,3.5-4.7,4.4c-1.8,0.9-3.4,1.8-4.7,2.8c-5-14.2-8.8-28.3-11.4-42.5c-2.7-14.2-4.3-27.6-4.9-40.2s-0.2-24.2,1.2-34.7
		c1.4-10.5,3.5-19.3,6.4-26.3c0.5-2,1.6-2.9,3.3-2.6c0.9,0.2,1.5,0.5,2,1s1.2,1.2,2,2c0.7,0.9,1.3,1.6,1.8,2.2s0.9,1.4,1,2.4
		c0.2,0.9,0.6,1.3,1.3,1.3c0.7,0,0.9,0.4,0.8,1.3c-1.5,9.4-2.6,18.1-3.1,26.1s-0.6,15.5-0.4,22.3c0.3,6.8,0.8,13.2,1.7,19
		C446.6,355.2,447.5,360.7,448.3,365.8z"/>
	<path class="st0" d="M549.7,385.9c-0.3-3-0.7-6.1-1.3-9.3c-0.6-3.2-1.4-6.8-2.4-10.8c-0.5-1.4-1.3-2.1-2.4-2.2
		c-1.1-0.1-2.3-0.5-3.5-1.2c-1.4-0.9-2.8-1.7-4.2-2.6c-1.5-0.9-2.8-1.1-4-0.8c-1,0.3-2,0.9-2.8,1.8c-0.9,0.9-1,2.5-0.5,4.9
		c1,4.4,1.7,9,1.9,13.7c0.3,4.7,0.5,9.3,0.8,14c0.3,4.6,0.8,9.1,1.5,13.3c0.8,4.3,2.3,8,4.5,11.3c1.9-1.9,4-3.3,6.4-4.4
		c1-0.5,1.7-0.9,2.2-1.3c0.4-0.3,1-1.3,1.7-2.8c0.3-0.9,0.9-1.7,1.7-2.4s1.2-1.5,1.2-2.2c0-3.6,0-6.9-0.1-10
		C550.1,391.9,549.9,388.9,549.7,385.9z"/>
</g>
<text transform="matrix(1 0 0 1 154.477 526.0367)" class="st0 st2 st3">A healthy choice</text>
<g>
	<g>
		<g>
			<g>
				<g>
					<g>
						<path class="st0" d="M627.9,332.5c0.2,0.1,0.3-0.5,0.4-0.6C627.9,331.9,627.8,332.7,627.9,332.5z"/>
						<polygon class="st0" points="623.8,332.6 624,332.3 623.2,332.7 						"/>
						<path class="st0" d="M620.5,331.1c-0.2,1.1,1.3,0.4,1.7,1v0.3l0.6-0.7C622.1,331.5,620.9,331.6,620.5,331.1z"/>
						<path class="st0" d="M619.9,328.1c-0.1,0.4-0.5,0.1,0.3,0.3c0-0.1,0-0.1,0-0.1C620.1,328.3,620.1,328.2,619.9,328.1z"/>
						<path class="st0" d="M620.2,328.3C620.6,328.4,620.2,327.9,620.2,328.3L620.2,328.3z"/>
						<path class="st0" d="M618.6,327.7l0.6-0.1c0-0.3-0.3-0.5-0.1-0.6C618.6,326.9,618.6,327.2,618.6,327.7z"/>
						<path class="st0" d="M617.8,328.1h0.3C618.1,328,618.1,328,617.8,328.1z"/>
						<path class="st0" d="M618.7,328.1h-0.6c0,0.2-0.2,0.5,0.3,0C618.2,328.4,618.4,328.2,618.7,328.1z"/>
						<path class="st0" d="M618.9,328.4c0.1,0.3,0.4,0.6-0.2,0.7C619.6,329.4,619.8,328.7,618.9,328.4z"/>
						<path class="st0" d="M619.9,332c0.1,0.2,0.1,0.3,0.2,0.5l0.5-0.2C620.3,332.3,620,331.7,619.9,332z"/>
						<path class="st0" d="M616.3,325.6c-0.1,0.2-0.2,0.6-0.3,0.9h0.4C616.3,326.2,616.1,325.9,616.3,325.6z"/>
						<path class="st0" d="M616,326.5h-0.7C615.7,326.8,615.9,326.7,616,326.5z"/>
						<path class="st0" d="M617.1,329.1c0.4-0.1,0.8-0.2,1.2-0.3c-0.4,0.1-0.9,0.2-1.4,0.2L617.1,329.1z"/>
						<polygon class="st0" points="614.6,324.5 615.1,324.2 614.2,324.5 						"/>
						<path class="st0" d="M613.4,323.7c0.4-0.2,0.2-0.8,0.5-0.9c-0.4-0.1-0.8,0-1.3,0.1C613,323,613.2,323.2,613.4,323.7z"/>
						<path class="st0" d="M611.9,323.1c0.2,0,0.4-0.1,0.7-0.1C612.4,322.9,612.2,323,611.9,323.1z"/>
						<path class="st0" d="M614.6,325.9c0-0.1,0.2-0.5,0-0.8l-0.2,0.7C614.4,325.8,614.5,325.9,614.6,325.9z"/>
						<path class="st0" d="M614.4,325.8L614.4,325.8c-0.2-0.2-0.3-0.3-0.4-0.3C614.1,325.5,614.2,325.6,614.4,325.8z"/>
						<path class="st0" d="M614.6,326L614.6,326C614.5,326,614.5,326,614.6,326z"/>
						<path class="st0" d="M616.2,327.9c-0.5,0.1-1.3,0.1-1,0.9C615.6,328.5,615.5,328,616.2,327.9z"/>
						<path class="st0" d="M614.4,326.8l0.4,0.4c0.1-0.1,0.1-0.4,0.4-0.5L614.4,326.8z"/>
						<polygon class="st0" points="614,326.8 614.4,326.8 614.2,326.6 						"/>
						<path class="st0" d="M612.4,324.1c-0.4,0.1-0.6-0.1-0.9-0.2c0.2,0.3,0.5,0.6,0.7,0.7C612.4,324.5,612.7,324.3,612.4,324.1z"/>
						<path class="st0" d="M613.3,325L613.3,325C613.3,325.1,613.3,325.1,613.3,325z"/>
						<path class="st0" d="M609,322v0.1V322L609,322z"/>
						<path class="st0" d="M612.2,324.8c0.1,0.2,0.4,0.2,0.6,0.1c-0.2-0.1-0.4-0.1-0.6-0.3C612.2,324.7,612.1,324.8,612.2,324.8z"/>
						<path class="st0" d="M611.1,322.8c0,0.2,0.1,0.4,0.1,0.6C611.2,323.1,611.2,322.7,611.1,322.8z"/>
						<path class="st0" d="M613.3,324.8L613.3,324.8C613.3,324.6,613.3,324.7,613.3,324.8z"/>
						<path class="st0" d="M613.3,324.8c-0.2,0-0.3,0.1-0.5,0.1c0.2,0,0.3,0.1,0.5,0.1C613.3,324.9,613.3,324.9,613.3,324.8z"/>
						<path class="st0" d="M605.7,324.7c0.4-0.4,1.3-0.5,1.4,0.4c0.7,0,1.6-1.8,1.9-3c-0.2,0.2-0.3,0.4-1,0.3c0,0.4,0.6,1.4-0.1,1.5
							c-0.8-0.2-0.4-0.6-0.5-1c-0.2,0.8-1.5,0.2-2,1.2l0.8,0.1C606,324.4,605.6,324.5,605.7,324.7z"/>
						<path class="st0" d="M609.8,322.9l0.2,0.1c-0.2-0.3-0.2-0.6-0.2-1.1c-0.5,0-0.7,0.1-0.8,0.3l0.9,0.8L609.8,322.9z"/>
						<path class="st0" d="M610.9,323.6c-0.5,0.4-1.2,0.3-1.3,1.1c0.6,0.4,0.7-0.1,1.2-0.1C609.9,324,611.3,324.5,610.9,323.6
							c0.2,0.1,0.4,0.2,0.6,0.3c-0.1-0.2-0.2-0.4-0.3-0.6l0,0l0,0l0,0c0,0.1,0,0.1,0,0.1l0,0C611.1,323.5,611,323.6,610.9,323.6
							c-0.2-0.3,0.1-0.2,0.2-0.2c0,0,0,0,0.1-0.1l0,0l-1.1-0.4C610.2,323.2,610.5,323.4,610.9,323.6z"/>
						<path class="st0" d="M613.9,329.6c0-0.1,0-0.1,0-0.1S613.8,329.5,613.9,329.6z"/>
						<path class="st0" d="M613.7,329c0.1,0,0.3-0.2,0.5,0c0.1,0.3-0.2,0.3-0.3,0.4c0.2-0.1,0.7-0.1,0.5-0.6h-0.1
							c-0.3-0.4-0.4-1.4-0.2-1.5C613.9,328,613.8,328.4,613.7,329z"/>
						<path class="st0" d="M612.2,326.4l-1-0.3l0.1,0.7l0.2-0.3C611.8,327,612,326.6,612.2,326.4z"/>
						<polygon class="st0" points="609.1,321.7 609.6,321.3 608.6,321.7 						"/>
						<polygon class="st0" points="608.1,321 608.5,320.6 608,320.6 						"/>
						<path class="st0" d="M542.1,298.4l-0.3,0.2C541.9,298.5,542,298.4,542.1,298.4z"/>
						<path class="st0" d="M544.1,298.3V298C544,298.2,544,298.3,544.1,298.3z"/>
						<path class="st0" d="M583,301.2c-0.1-0.7,0-1.7-0.3-1.1l-0.2,0.6C582.7,300.7,582.9,300.9,583,301.2z"/>
						<path class="st0" d="M561.1,296.1c0,0.1,0.1,0.1,0.1,0.2c0.1-0.2,0.3-0.4,0.4-0.6C561.4,295.9,561.2,296,561.1,296.1z"/>
						<path class="st0" d="M560.2,298.7l-0.4-0.5C559.9,298.4,560,298.5,560.2,298.7z"/>
						<path class="st0" d="M531.3,300.7l-0.2,0.7C531.6,301.3,531.4,301,531.3,300.7z"/>
						<path class="st0" d="M597.9,312.8c-0.1-0.4-0.3-0.7-0.4-0.9C597.5,312.5,597.4,313.2,597.9,312.8z"/>
						<path class="st0" d="M542.4,291.4c-0.2,0.1-0.2,0.3-0.2,0.4C542.4,291.7,542.5,291.6,542.4,291.4z"/>
						<path class="st0" d="M596.6,311.3c0,0.1,0,0.2,0.1,0.2c0.3,0.1,0.5,0.2,0.8,0.4C597.3,311.5,597.2,311.1,596.6,311.3z"/>
						<path class="st0" d="M494.4,316.5h-0.1C494.3,316.5,494.3,316.5,494.4,316.5z"/>
						<path class="st0" d="M480.7,317.8c0.1-0.1,0.2-0.2,0.4-0.3C480.9,317.5,480.8,317.6,480.7,317.8z"/>
						<path class="st0" d="M604.3,317.6C604.5,317.7,604.4,317.6,604.3,317.6L604.3,317.6z"/>
						<path class="st0" d="M603.7,320.4c-0.1,0-0.2,0.1-0.3,0.2C603.5,320.5,603.6,320.4,603.7,320.4z"/>
						<path class="st0" d="M591.9,312.6L591.9,312.6C591.9,312.8,591.9,312.7,591.9,312.6z"/>
						<path class="st0" d="M604.4,318.1c0-0.1-0.1-0.3-0.1-0.4C604.3,317.8,604.3,317.9,604.4,318.1z"/>
						<path class="st0" d="M604.6,317.8c0.1,0.1,0.1,0.1,0.1,0.2C604.8,317.9,604.8,317.9,604.6,317.8z"/>
						<path class="st0" d="M604,317.4c0.1,0.1,0.2,0.2,0.3,0.3c0-0.1,0-0.1,0-0.1C604.2,317.5,604.1,317.5,604,317.4z"/>
						<path class="st0" d="M512.8,304.5L512.8,304.5C512.6,304.8,512.7,304.7,512.8,304.5z"/>
						<path class="st0" d="M573.4,303.5C573.4,303.5,573.5,303.5,573.4,303.5L573.4,303.5L573.4,303.5z"/>
						<path class="st0" d="M572.4,303.5c0.7-0.5,0.9-0.4,1.1-0.1l0.6-1.8L572.4,303.5z"/>
						<path class="st0" d="M537.3,299.1l0.7,0.5c-0.7,1.1-1.2,0.8-0.5,1.5c-0.2-2,2.4-0.5,2.3-2.6l0.5,0.4c-0.1,0-0.1,0.1-0.3,0.1
							c0.9,0.9,0.5-1.5,1.6-1.3c0.4,0.1,0.7,0.4,0.4,0.7l0.8-0.6c0.2,0,0.2,0.4,0,0.4l1.3-0.2v0.1c0.2-0.3,0.6-0.8,0.8-1.1
							c0.3,0.3-0.2,0.2-0.1,0.5l0.7-0.5c0.3,0.5-0.3,1.1-0.8,1c0.7,2,0.6-0.6,2,0.6l-0.7,0.3c0.4,1.2,1,0.7,1.7,1.5
							c-0.2-0.4-1.5-1.8-0.7-2.3c0.2,0.2,0.5,0.2,0.9-0.2c0,0.7,0.4,0.5,0.9,0.5l-0.1,1c0.5-0.3,0.5-0.7,0.9-1.2
							c0.6,0.1,0.7,0.9,0.8,1.5c1,0.2-0.6-1.2,0.5-1.3c0.8,0.4,1.4,0.1,2.4-0.4c0.5,0.4-0.2,0.6,0,0.9l0.6-0.7c0.1,0,0.1,0.3,0,0.4
							c0.5-0.3,0.1-1,0.8-1.1c0.3-1,1.2,1.7,2.2,0.6c0.2,0.3-0.2,0.6-0.2,0.9c1.2-0.6,1-0.4,2.2-1.3l0.7,0.8
							c-0.4-0.8,0.5-1.5,1.3-2.1c-0.1-0.4-0.3-0.7-0.4-0.9c0.4-0.1,0.8-0.2,1.2-0.3c0.1,0.2-0.1,0.5-0.3,0.8
							c0.1-0.1,0.2-0.1,0.2-0.2c0.3,0.4,0,0.9-0.4,1.4c-0.1-0.2-0.2-0.4-0.3-0.7c-0.4,0.5-0.8,1.1-0.8,1.7c0.1-0.1,0.2-0.2,0.4-0.2
							c-0.1,0.1-0.2,0.3-0.2,0.4s0.2-0.1,0.4-0.3v1.1l0.1-0.4l1.2,1c0.6-0.4,1.2-0.9,1.9-1.4c0.7-0.4,1.4-0.7,2.3-0.7
							c-0.6,0.6-0.5,1.2-0.8,2.1c-0.1-1.1-1.3,0-2-0.4c0.4,0.2,0.2,0.6,0,0.7l1.6-0.4c-0.3,0.7,0.1,0.6,0.4,1c0.2-1.5,1.3-0.7,2-0.9
							c-0.1,0.5-0.4,0.9-1.1,0.6c0.4,1.3,1.5-1.3,2-0.1c-0.2,0-0.2-0.2-0.4,0.1c0.5-0.3,1.4,0.4,1,0.7l-0.2-0.1
							c1,0.6,3.2,1.4,3.9,0.3c-0.1,0.2-0.8,1.3-1,1.5c1.2-1,2.5-1.9,3.8-2.9c-0.7,0.9-1.2,3.5-2.4,3.6c0.2,0.3,0.4,0.6,1.1,0.5
							c-0.1-0.2,0.3-1.6,0.6-1.6c0.1,1.4,0.1,0.8,0.4,2.1c-0.1-0.3,1-1.7,1.3-1.4c-0.2,0.2-0.8,1.5-1,1.6l1.8-0.9
							c-0.4,0.1-0.8,1.2-0.8,1.7c0.1-0.3,0.8,0.5,1.1,0.5l-0.2-0.6c0.9,0.9,2.3-1.4,3.4-0.6c-0.3,0.2-1.5,1.6-1.1,2.1
							c0.7-0.6,3.4-2.7,4.8-2.6l-0.1,0.5l1.1,0.1c-1.2,0.7-4.1,2.1-5.3,2.5c0.2,0.6-0.2,0.6,0.4,0.9c-0.1,0.5-0.7,0.4-0.9,0.3
							l1.2,1.2c0.5-0.9,1.6-0.1,2-0.8c-0.7-0.1-1.4-0.2-2.1-0.2c0.5-0.9,2.5-1.8,3.4-0.9c0,0.5-1.2,1.3-1.4,1.6
							c0.3-0.2,1.3,0.1,1.2,0.4l-0.7,0.1c0.3,0.7,1.7-0.4,1.7,0.8c0.2,0.2-0.2,1.5,0.3,1.1c0.4-1.2,2.5-4.1,3.2-4.6
							c0,0.1,0.5,1.8,0.4,2.4c-0.2,1-1.9,1.3-2,2.1c0.2-0.2,0.6-0.3,0.7-0.3c0.1,0.4-0.6,0.6-0.1,0.9c0.7-0.7,1,0.9,0.8-0.5
							c0.7,0.2,0.4,0.6,1,1c0.2-0.7,1.9-1.3,2.6-1.1c-0.2,0.2-0.3,0.5-0.3,0.7c0.9,0.9,1.2,1.7,2.1,2.5c-0.1,0.3,0.2,0.9-0.3,1
							c0.2,0,0.6-0.2,0.9,0c0,1.1-0.7-0.4-1,0.7c0.4-0.4,1.3,0,1.9,0c0.5-0.8-0.8-0.9-1.5-1c0.8-1,2.4-1.4,3.7-1
							c1,0.4-0.2,0.9,0,0.9c1.3,1.4,2.6-0.7,3.2,1c-0.1,1-1,1.2-1.3,1.8c-0.8-0.3-0.6-1.2-1.1-1.5l0.3,0.7c-0.4,0-0.9-0.2-1-0.5
							c-0.1,0.9,2.3,2.1,3,3.6c0.4,0,0.9,0,0.9-0.4l-0.4-0.2c0.1-0.8,1.2-0.1,1-0.7c0.8,0,1.7-0.1,2.2,0.7l-0.5,0.8
							c0.2-0.2-0.1-0.8-0.4-0.7c0.5-0.1,0.2,1.8,1.3,1.1l-0.1-0.9c0.8,0,2-0.3,2.4,0.4c0.3-0.9-0.2,0,0.1-1.2
							c-0.5,1.3-1.5-1.2-1.7,0.3c0.4-1.3-0.4-1-0.3-2.3c-0.2,0.2-0.2,0.6-0.6,0.1c-0.1,0-0.2,0.1-0.3,0.1l0,0l0,0c-0.1,0-0.1,0,0,0
							c0,0.2,0,0.4,0,0.6c-0.7,0.3-1.4-0.3-1.9-0.3c-0.2-0.4,0.3-0.2,0.4-0.5l-0.7,0.1c0.4-0.5,0-1.5,0.9-1.2l-0.6-0.5
							c-0.1-0.6-0.5-1.1-1-1.2c-0.2-0.4-1.2,0-0.6-0.2l-1.2-0.5l0.1-0.1c-0.9-0.9-2.7-0.8-3-2.7c-0.4-0.1-0.9-0.3-1.3-0.9l0.3-0.5
							c-0.6-0.2-0.9-1.5-1.5-1.2c0.6-1.6-1.9-2-2.5-2.8l-0.5,0.6c-0.5-0.4-1.1-0.7-2-0.9l-0.4,0.6c-0.9,0-1.2-1.5-2.2-2.1
							c0.2-0.2,0.4,0.1,0.5,0.3c-0.2-2.1-3-0.8-3.4-2.4c-0.4,0-0.5-0.2-0.6-0.4h0.1l-0.1-0.1c-0.1-0.2-0.1-0.4-0.2-0.5
							c0,0.2,0,0.4,0.1,0.5c-0.2-0.1-0.6-0.3-0.9-0.3l0.3-0.7c0,0,0,0-0.1,0c-0.2-0.4-0.4,0.1-0.6,0.7c-0.2,0-0.4,0-0.6,0.1
							c0.4-1.1-1-0.1-0.7-1.4c-0.5,0.4-1.8-0.5-2.6,0.5c0.1-0.2,0-0.3,0.2-0.2c-0.3-0.3-0.6-0.6-1-0.5l0.3-0.9l-1.3,0.7
							c-0.2-0.7-0.3-1.1,0.5-1.5c-1.6,0.4-1.1-0.1-2.5,0.4l0.3-0.5c-0.4-0.1-1.2,0.3-1.3-0.2c-0.3-1.4-3.8-1.8-5.6-3.4
							c-0.1,1.8-0.8-1.1-1.2,0.2c0-0.4-0.2-0.7,0.2-1c-1.2,0-1.5-1.1-2.5-0.2c0-0.4,0.4-0.5,0.3-0.8c-0.1,0.1-0.4,0.3-0.5,0
							s0.2-0.3,0.5-0.4c-1.2-0.2-1.6,1-1.9,2.1c-0.4-0.7-0.7-0.6-1.3,0c-0.1-0.4-0.4-0.9,0.4-0.9c-0.4-0.1-2.3-1-2.5-0.1
							c-0.1-0.3-0.5-0.1-0.7-0.1c-0.9-0.2-0.9-0.3-1.8-0.3l0.2,0.2c-0.5,1.1-0.7,0.1-1.5,0.2v-0.1c-1.5-1-0.7,0.3-2.2-0.8v0.7
							c-0.3,1.5-1.3-1-2.3-0.5l0.3,0.4c-0.5,0.5-1.3-2.2-1.8-2.4c-0.1-0.1,0.2-0.2,0.3-0.3c-1.3-0.9-0.2,0.9-1.2,1.1
							c-0.2-0.5,0.3-1.3-0.4-1.4c-0.4-0.4-2,1.6-2.9,0.7c0.2,0.4,0.4,0.8,0,1.1c-0.7,0.2-2-1.4-2.6-0.1c-0.1-0.1-0.1-0.2-0.1-0.3
							c-0.5,0.4-1.7,0.7-2,1.4c-0.8-2.5-3.2,1.6-3.4-0.7c-0.5,0.1-1.1,0.2-1.6,0.4v-0.2c-1.1,0-1.4,0.6-1.6,1.2
							c-0.3-0.1-0.1-0.4-0.1-0.5c-1.6-0.2-1.8,0-2.8,1.3l-0.3-0.7c-0.2,0.5-2.5-0.6-3.7,0.6c0-0.1,0-0.2,0.1-0.4
							c-1.4,1.3-4.6-0.9-4.4,1.9l-0.9,1c1.4-0.2,0.2,1.2,0.9,1.4c-0.5,0.3-1.6-0.3-1-0.7l0.1,0.1c-0.2-1.4-1.9,0.1-2.1-0.8
							c-2.7,1-5.5,1.3-8,2.3l0.7,0.9l-0.9,0.3c-0.3-0.1-0.7-0.7,0-0.9c-0.6-0.4-0.8,0.9-0.7,1.2c-1.4,0.1-0.1-1.4-0.4-1.2l-0.5,0.3
							l0.2,0.1c-0.2,0.6-0.1,1-0.8,1.3c-0.6,0-0.5-0.5-0.7-0.5c0-0.1-0.1-0.1-0.3,0.1l-1.1,0.4l0.8,0.6c-0.3,0.6-1,0.4-0.1,1.1
							c-1.4-1-4.1,1.5-4.8,1.3c-0.3,0.9-1,1.2-1.8,1.6c0.3,0.1,0.9,0.8,0.1,1.1c-0.7-1.9-1.6-0.1-2.9-1c1,0.6-1.8,1.3-0.3,2
							c-0.6,0.2-0.4-0.6-1.1-0.8c-0.9,1.4-3.1,1.3-4.6,2.5c0.1,0.2,0.6,0.4,0.5,1l-1.5-0.6c-0.2,0.3,0.5,1.5-0.5,1.1
							c0.2,0.1,0.5,0.3,0.3,0.5c-3.8,0.9-5.6,5-10,5.1c0.7,0.1,0.5,0.4,0.2,0.6c0.3,0,0.4,0.5,0.6,0.8l-1.8,0.1c0.3,1-1.3,1-0.9,1.9
							l0.3-0.4c0.1,1.3,2.2,1.5,2.9,2.7c-0.1-1.5,2.6,0.4,2.6-1.7c0.4,0.1,0.1,0.5,0.4,0.7c-0.1-0.7,0.1-1,0.8-1.1v0.2
							c1.5-1.2,2.5-1.1,4.4-2l-0.5-0.5c0.4-0.2,0.6,0,0.9,0c-0.2-1.2-1.1,0.7-1.4-0.6c1.3,0.9,2.7-1.7,3.9-0.6
							c0.6-0.4-0.6-0.6,0-0.9l0.4,0.3l-0.2-0.6c0.4-0.2,0.9,0.2,1.1,0.5c-0.1,0-0.2,0.3-0.3,0.3c0.8,0.1,1.3-1,1.6-1l-0.7,0.1
							c1.4-1.4,3.6-2,4.8-3.7l-0.3-0.2c0.9-1.2,1.2-0.2,2.3-1.2v0.1c0.1-0.4,0.4-0.8,0.8-1c-0.1,0.5,1,0.3,0.8,0.9
							c1-1.3,0.4-0.8,0.7-2.4l0.5,0.4c0.1-0.6,0-0.8,0.6-1.3c-0.3,0.7,0.8,0.5,0.5,1.4c2,0.3,1.6-2.2,3-0.9c0-1.7-1.6-0.2-1.4-0.6
							c-0.5-0.3,0-1.3,0.6-1.4c0.5-0.2,1.6,1.4,2.8,0.8c-0.1,0-0.1,0.2-0.2,0.2c0.6,0.2,0.6-0.9,1.4-0.5c-0.1-1,0.7-0.3,0.3-1.4
							l-1,0.7c0.5-0.6,0.5-2.1,1.8-1.9c0,0.3-0.2,0.7-0.3,0.9c0.4,0.2,0.5-0.5,0.9-0.3c0.4,1.1-1.2,0.8-1.5,1.9
							c0.5,0.3,0.9-1.3,1.1,0c-0.2-1.7,1.2-0.3,1.5-1.8l0.2,0.7c0.1-0.2,0.2-0.6,0.4-0.7l-0.1,1c0.3-1,1.5,0.1,1.9-0.5
							c-1.3,0.5-0.6-0.7-1.4-0.9c1.3-1.5,1.6,1.4,3.3,0.4c-0.2,0.2-1.1,0-0.8-0.5c0.4,0,0.9,0.1,1.3,0.4c1.1-0.6-0.4-0.6-0.1-1.2
							c0.7,0.7,0.5-0.5,0.9-1l0.2,0.7c1.5,0-0.1-1.6,1.3-1.5l-0.2,1.1l0.6-0.5l0.1,0.8c0.5-0.8,0.8-0.7,1.5-0.7
							c-0.3-0.4-0.3-1.3,0.3-1.5c0.5,0.3,0,0.7,0.8,0.4c-0.1,0.5-0.1,1.1-0.7,0.6c0,0.2-0.1,0.5,0,0.7c0.6,0.3,1.2-0.2,1.5-0.3
							c-0.1,0-0.3,0-0.4-0.1l1-1.3c0.3,0.2,0.2,0.5,0.1,0.7c0.2-0.1,0.3-0.5,0.7-0.7c0.1,0.6,0.2,1.2-0.2,1.6c0.3-0.3,0.7-0.7,1-1
							c0.1,0.2,0.8,0.5,0.7,0.8c0.7,0.2,1.4-1.5,2.4-1.3c0-0.1,0.1-0.2,0.3-0.4c0.9,0,1.7,0.5,2.6-0.5l0.8,0.9
							c0.7-0.4-1-1.2,0.2-1.8c0.9-0.5,0.5,0.8,0.9,1.1c0.4-0.6,1-1.8,2-1.1C537.8,299.1,537.6,299,537.3,299.1z M547.1,297.9
							c-0.2,0.2-0.6,0.6-0.7,0.2C546.6,297.3,546.7,297.7,547.1,297.9z M562.2,297.8c-0.2,0.2-0.4,0-0.6-0.3
							C561.8,297.5,562,297.6,562.2,297.8z M601.6,316.1L601.6,316.1C601.5,315.6,601.5,315.8,601.6,316.1z M602.1,317
							c0.1,0,0.2-0.1,0.2-0.2c-0.2,0.1-0.3,0-0.5-0.2C601.8,316.7,601.8,316.9,602.1,317z M508.2,301.3l0.2,0.1
							C508.1,301.7,508.1,301.5,508.2,301.3z"/>
						<path class="st0" d="M560.3,298.4c0-0.1,0-0.3,0-0.4C560.2,298.1,560.2,298.3,560.3,298.4z"/>
						<path class="st0" d="M531.4,300.5C531.4,300.5,531.3,300.5,531.4,300.5v0.1V300.5z"/>
						<path class="st0" d="M587.3,312.5c-0.1-0.2-0.1-0.4-0.1-0.5C587.1,312.2,587.1,312.3,587.3,312.5z"/>
						<path class="st0" d="M606.6,319.1l-0.6-0.2c0.2,0.1,0.2,0.3,0.3,0.5C606.4,319.3,606.5,319,606.6,319.1z"/>
						<path class="st0" d="M607.9,325.7c0.1,0,0.2,0.1,0.3,0.1l0.2-0.3C608,325.3,607.7,325.4,607.9,325.7z"/>
						<path class="st0" d="M605.6,321.3c-0.3,0.5,0.1,0.6,0.5,0.7c0,0,0,0-0.1,0C606.6,321.4,606.1,321.4,605.6,321.3z"/>
						<path class="st0" d="M606.1,322.1c0.1,0.1,0.2,0.1,0.3,0.2C606.7,322.1,606.3,322.2,606.1,322.1z"/>
						<path class="st0" d="M603.3,317.4c0,0.2,0.6-0.5,0.5-0.3C604.5,316.7,602.2,317,603.3,317.4z"/>
						<polygon class="st0" points="604.6,323.1 604.9,322.4 604.4,322.7 						"/>
						<path class="st0" d="M602.4,320.6l0.4,0.6c0.1-0.1,0.2-0.1,0.3-0.1C602.8,320.8,602.5,320.4,602.4,320.6z"/>
						<path class="st0" d="M603,321.1c0.2,0.1,0.3,0.3,0.5,0.2C603.4,321.3,603.2,321.1,603,321.1z"/>
						<polygon class="st0" points="603.7,322.7 603.7,322.4 603.3,322.1 						"/>
						<path class="st0" d="M597,315.9l-0.7-0.3c-0.2,0.1-0.2,0.4,0.1,0.5C596.7,316,596.9,316.1,597,315.9z"/>
						<path class="st0" d="M597.4,318.9c0-0.2,0-0.4,0.1-0.6l-0.6,0.7L597.4,318.9z"/>
						<path class="st0" d="M595.6,317.7c-0.2,0.2-1.3-0.1-0.5,0.4C595.3,318,596,318.3,595.6,317.7z"/>
						<polygon class="st0" points="588,309.8 588.1,310 589,308.7 						"/>
						<path class="st0" d="M578.2,307.4c0.5,0.8,0.7-0.7,1,0.1c0.4-0.2-0.3-0.7,0-0.8C578.7,306.7,578.6,306.4,578.2,307.4z"/>
						<path class="st0" d="M579.3,306.7c0.1,0,0.2,0,0.3-0.1C579.5,306.6,579.4,306.6,579.3,306.7z"/>
						<polygon class="st0" points="478.5,318.3 477.9,318.4 478.5,318.6 						"/>
						<path class="st0" d="M478.3,319.9l-0.7-0.7l0.2,0.9C477.9,319.9,478.1,319.7,478.3,319.9z"/>
						<path class="st0" d="M548.5,299.9v-0.2c-0.1-0.3-0.2-0.3-0.4-0.3L548.5,299.9z"/>
						<polygon class="st0" points="541.5,299.4 541.6,299.4 541.3,298.5 						"/>
						<path class="st0" d="M535.8,301.2c0.2,0,0.5-0.2,0.7-0.2C536,301.2,535.6,300.2,535.8,301.2z"/>
					</g>
				</g>
			</g>
		</g>
	</g>
	<g>
		<g>
			<g>
				<g>
					<g>
						<path class="st0" d="M622.7,268.7c0.2-0.2-0.3-0.5-0.3-0.6C622.2,268.5,622.8,268.8,622.7,268.7z"/>
						<polygon class="st0" points="620.6,272.9 620.4,272.6 620.4,273.5 						"/>
						<path class="st0" d="M617.7,275.8c1,0.5,0.9-1.2,1.7-1.5l0.3,0.1l-0.4-0.8C618.7,274.4,618.3,275.6,617.7,275.8z"/>
						<path class="st0" d="M614.5,275.9c0.4,0.2-0.1,0.6,0.4-0.3c-0.1,0-0.1,0-0.1,0C614.7,275.7,614.6,275.7,614.5,275.9z"/>
						<path class="st0" d="M614.8,275.6C615.1,275.2,614.3,275.6,614.8,275.6L614.8,275.6z"/>
						<path class="st0" d="M613.6,277.2l0.1-0.7c-0.3-0.1-0.7,0.3-0.7,0C612.8,277.1,613,277.2,613.6,277.2z"/>
						<path class="st0" d="M613.8,278.2l0.1-0.3C613.7,277.8,613.7,277.8,613.8,278.2z"/>
						<path class="st0" d="M614,277.2l-0.2,0.7c0.2,0.1,0.4,0.3,0.1-0.3C614.2,277.8,614,277.5,614,277.2z"/>
						<path class="st0" d="M614.4,277c0.4-0.1,0.8-0.3,0.7,0.4C615.7,276.5,615.1,276.1,614.4,277z"/>
						<path class="st0" d="M618.3,276.8l0.5-0.1v-0.5C618.9,276.4,618.1,276.5,618.3,276.8z"/>
						<path class="st0" d="M610.7,279.5c0.1,0.2,0.6,0.3,0.8,0.4l0.1-0.5C611.4,279.5,611,279.7,610.7,279.5z"/>
						<path class="st0" d="M611.6,279.9l-0.1,0.7C611.8,280.3,611.8,280.1,611.6,279.9z"/>
						<polygon class="st0" points="614.6,279 614.7,277.7 614.4,279.2 						"/>
						<polygon class="st0" points="609.1,281.3 608.9,280.7 609.1,281.7 						"/>
						<path class="st0" d="M608.1,282.6c-0.1-0.5-0.8-0.2-0.8-0.6c-0.2,0.4-0.2,0.9-0.2,1.4C607.2,283,607.5,282.7,608.1,282.6z"/>
						<path class="st0" d="M607.1,284.1c0-0.2,0-0.5,0-0.7C607,283.6,607,283.8,607.1,284.1z"/>
						<path class="st0" d="M610.6,281.4c-0.1-0.1-0.5-0.2-0.8-0.1l0.6,0.2C610.5,281.5,610.5,281.5,610.6,281.4z"/>
						<path class="st0" d="M610.5,281.6L610.5,281.6c-0.2,0.2-0.4,0.3-0.4,0.4C610.1,281.9,610.2,281.8,610.5,281.6z"/>
						<path class="st0" d="M610.7,281.4L610.7,281.4L610.7,281.4z"/>
						<path class="st0" d="M613,279.9c0,0.5-0.2,1.4,0.7,1.2C613.6,280.6,613,280.7,613,279.9z"/>
						<path class="st0" d="M611.5,281.7l0.6-0.4c-0.1-0.1-0.4-0.2-0.4-0.4L611.5,281.7z"/>
						<polygon class="st0" points="611.4,282.1 611.5,281.7 611.2,281.8 						"/>
						<path class="st0" d="M608.3,283.6c0,0.4-0.2,0.7-0.4,1c0.4-0.2,0.7-0.5,0.9-0.7C608.7,283.7,608.6,283.3,608.3,283.6z"/>
						<path class="st0" d="M609.4,282.7L609.4,282.7C609.4,282.8,609.5,282.7,609.4,282.7z"/>
						<path class="st0" d="M605.6,287.2L605.6,287.2L605.6,287.2L605.6,287.2z"/>
						<path class="st0" d="M609,283.9c0.3-0.1,0.3-0.4,0.2-0.6c-0.1,0.2-0.2,0.4-0.4,0.6C608.9,283.9,608.9,284,609,283.9z"/>
						<path class="st0" d="M606.6,285c0.2,0,0.4-0.1,0.6-0.1C607,284.9,606.6,284.9,606.6,285z"/>
						<path class="st0" d="M609.2,282.7L609.2,282.7C609,282.6,609.1,282.7,609.2,282.7z"/>
						<path class="st0" d="M609.2,282.7c0,0.2,0,0.4,0,0.5c0.1-0.2,0.1-0.3,0.2-0.5C609.3,282.8,609.2,282.7,609.2,282.7z"/>
						<path class="st0" d="M607.9,290.8c-0.4-0.4-0.3-1.4,0.6-1.4c0.1-0.8-1.7-1.8-2.8-2.1c0.2,0.2,0.4,0.3,0.2,1.1
							c0.4,0,1.5-0.6,1.6,0.2c-0.4,0.9-0.6,0.4-1.2,0.5c0.8,0.2,0.1,1.6,1,2.1l0.2-0.8C607.7,290.4,607.7,290.8,607.9,290.8z"/>
						<path class="st0" d="M606.6,286.4l0.1-0.3c-0.3,0.2-0.6,0.2-1.2,0.2c-0.1,0.5,0,0.8,0.1,0.9l1-1L606.6,286.4z"/>
						<path class="st0" d="M607.5,285.2c0.3,0.6,0.1,1.3,0.9,1.4c0.5-0.6,0-0.8,0.1-1.3C607.7,286.4,608.5,284.8,607.5,285.2
							c0.1-0.2,0.3-0.4,0.4-0.6c-0.2,0.1-0.4,0.2-0.7,0.3l0,0l0,0l0,0c0.1,0,0.1,0,0.1,0l0,0C607.4,285,607.5,285.1,607.5,285.2
							c-0.4,0.2-0.2-0.1-0.1-0.2c0,0,0-0.1-0.1-0.1l0,0l-0.6,1.2C606.9,286,607.2,285.7,607.5,285.2z"/>
						<path class="st0" d="M614.3,282.5c-0.1,0-0.1,0-0.1-0.1C614.1,282.5,614.2,282.6,614.3,282.5z"/>
						<path class="st0" d="M613.6,282.6c0-0.1-0.1-0.4,0.1-0.5c0.3-0.1,0.2,0.2,0.4,0.3c0-0.3,0.1-0.8-0.5-0.6v0.1
							c-0.5,0.2-1.6,0.2-1.6,0.1C612.6,282.3,613,282.5,613.6,282.6z"/>
						<path class="st0" d="M610.7,284l-0.5,1h0.8l-0.3-0.2C611.2,284.4,610.8,284.3,610.7,284z"/>
						<polygon class="st0" points="605.2,287.1 604.8,286.6 605.1,287.7 						"/>
						<polygon class="st0" points="604.4,288.2 604,287.8 604,288.3 						"/>
						<path class="st0" d="M548.4,344.1l-0.3,0.3C548.3,344.3,548.4,344.2,548.4,344.1z"/>
						<path class="st0" d="M550.8,343.5v-0.3C550.7,343.3,550.7,343.5,550.8,343.5z"/>
						<path class="st0" d="M581.5,313.6c-0.7-0.1-1.7-0.3-1.2,0.1l0.6,0.4C581,313.8,581.3,313.6,581.5,313.6z"/>
						<path class="st0" d="M566.5,331.8c0.1,0,0.1,0.1,0.2,0.1c0-0.2-0.1-0.5-0.1-0.7C566.6,331.4,566.6,331.6,566.5,331.8z"/>
						<path class="st0" d="M567.8,334.2H567C567.2,334.3,567.5,334.3,567.8,334.2z"/>
						<path class="st0" d="M535.8,347.4l-0.3,0.7C536.1,348,535.8,347.7,535.8,347.4z"/>
						<path class="st0" d="M595.1,299.2c-0.5,0.1-0.7,0.3-0.9,0.5C594.8,299.5,595.4,299.6,595.1,299.2z"/>
						<path class="st0" d="M547.4,337.2c-0.1,0.2-0.2,0.3-0.1,0.5C547.4,337.5,547.5,337.3,547.4,337.2z"/>
						<path class="st0" d="M593.4,300.5c0.1,0,0.2,0,0.3-0.1c0.1-0.3,0.2-0.6,0.5-0.8C593.7,299.7,593.3,299.9,593.4,300.5z"/>
						<path class="st0" d="M490.6,334.9v-0.1C490.5,334.8,490.6,334.9,490.6,334.9z"/>
						<path class="st0" d="M484.2,321.5c0.1,0,0.3,0.2,0.5,0.3C484.6,321.7,484.5,321.6,484.2,321.5z"/>
						<path class="st0" d="M600.4,292.3C600.6,292,600.4,292.2,600.4,292.3L600.4,292.3z"/>
						<path class="st0" d="M603.3,292.9c0,0.1,0.1,0.2,0.2,0.3C603.4,293.1,603.3,293,603.3,292.9z"/>
						<path class="st0" d="M594.4,305.4L594.4,305.4C594.6,305.4,594.6,305.4,594.4,305.4z"/>
						<path class="st0" d="M601,292.1c-0.1,0-0.3,0.1-0.4,0.2C600.6,292.3,600.8,292.2,601,292.1z"/>
						<path class="st0" d="M600.7,292c0.1-0.1,0.2-0.1,0.2-0.2C600.8,291.7,600.8,291.7,600.7,292z"/>
						<path class="st0" d="M600.2,292.6c0.1-0.1,0.2-0.2,0.4-0.3c-0.1,0-0.1,0-0.1,0C600.4,292.4,600.3,292.5,600.2,292.6z"/>
						<path class="st0" d="M513.8,345C513.8,344.9,513.8,344.9,513.8,345C513.4,345.1,513.5,345.1,513.8,345z"/>
						<path class="st0" d="M580.7,323.8L580.7,323.8C580.7,323.8,580.6,323.8,580.7,323.8L580.7,323.8z"/>
						<path class="st0" d="M580.2,324.9c-0.2-0.9,0.1-1,0.4-1.1l-1.5-1.1L580.2,324.9z"/>
						<path class="st0" d="M542.9,345.6l0.9,0.4c-0.7,1.1-1.5,0.9-0.6,1.6c-0.3-2,3-0.9,2.6-2.9l0.6,0.3c-0.1,0-0.1,0.1-0.3,0.2
							c1.2,0.7,0.4-1.6,1.7-1.6c0.5,0,0.9,0.2,0.6,0.5l0.8-0.8c0.3,0,0.3,0.3,0,0.4l1.4-0.6v0.1c0.1-0.4,0.4-1,0.6-1.3
							c0.5,0.2-0.1,0.3,0.1,0.5l0.6-0.7c0.5,0.4,0,1.1-0.6,1.2c1.4,1.7,0.5-0.7,2.5-0.2l-0.7,0.5c0.9,0.9,1.4,0.3,2.5,0.6
							c-0.4-0.2-2.4-1-1.7-1.8c0.3,0.1,0.6,0,1-0.6c0.3,0.7,0.7,0.3,1.2,0.1l0.3,0.9c0.5-0.5,0.3-0.9,0.5-1.5
							c0.7-0.2,1.2,0.4,1.6,0.9c1.2-0.4-1.2-0.7,0-1.5c1-0.1,1.5-0.7,2.3-1.8c0.8,0,0.2,0.6,0.5,0.7l0.2-1c0.1-0.1,0.2,0.2,0.2,0.3
							c0.3-0.5-0.4-0.9,0.2-1.5c-0.3-1,2.2,0.5,2.4-1c0.4,0.1,0.2,0.6,0.5,0.8c0.8-1.4,0.7-1.1,1-2.6h1.1c-1-0.2-0.7-1.4-0.5-2.4
							c-0.4-0.1-0.7-0.3-0.9-0.3l0.7-1.1c0.2,0,0.3,0.4,0.4,0.8c0-0.1,0-0.2,0-0.3c0.6,0,0.7,0.6,0.8,1.2c-0.2-0.1-0.5-0.1-0.7-0.2
							c0.1,0.6,0.2,1.3,0.6,1.8c0-0.1,0.1-0.3,0.2-0.4c0,0.2,0.1,0.3,0.2,0.4c0.1,0.1,0.1-0.2,0.1-0.5l0.8,0.7l-0.2-0.4l1.7-0.4
							c0.3-1.6,0.1-3.4,1.2-4.9c0.2,0.9,0.7,1.1,1.3,1.8c-1-0.4-0.8,1.2-1.7,1.6c0.5-0.2,0.6,0.2,0.6,0.4c0.3-0.6,0.5-1.2,0.8-1.7
							c0.4,0.6,0.6,0.2,1.2,0.2c-1.2-1,0.3-1.6,0.6-2.4c0.4,0.4,0.6,0.9-0.2,1.3c1.4,0.3-0.2-2.1,1.1-1.9c-0.1,0.1-0.3,0.2-0.2,0.4
							c0.1-0.6,1.2-1.1,1.2-0.6l-0.1,0.1c1.1-0.7,3.1-2.7,2.3-3.8c0.1,0.1,0.9,1.3,1,1.5c-0.4-1.6-0.7-3.2-1.2-4.8
							c0.6,0.9,3,2.3,2.6,3.5c0.3-0.1,0.8-0.2,1-1c-0.3,0-1.5-0.8-1.3-1.1c1.4,0.3,0.9,0.1,2.3,0.1c-0.4,0.1-1.3-1.4-0.9-1.7
							c0.1,0.2,1.2,1.2,1.2,1.4l-0.3-2.1c0,0.4,1,1.1,1.5,1.2c-0.3-0.1,0.8-0.8,0.9-1.1l-0.7,0.1c1.2-0.8-0.7-2.7,0.4-3.6
							c0.1,0.4,1.2,1.8,1.9,1.4c-0.4-0.8-2-4-1.6-5.3l0.5,0.2l0.3-1.1c0.5,1.3,1.3,4.4,1.5,5.8c0.7-0.1,0.5,0.3,1.1-0.3
							c0.5,0.1,0.2,0.8,0.1,1l1.5-1.2c-0.8-0.6,0.3-1.7-0.4-2.3l-0.7,2.2c-0.8-0.6-1.2-2.8-0.2-3.7c0.5,0,1.1,1.4,1.4,1.6
							c-0.1-0.4,0.4-1.4,0.6-1.3v0.8c0.8-0.3-0.2-1.8,1.2-1.8c0.3-0.2,1.6,0.2,1.2-0.2c-1.2-0.4-3.9-2.8-4.3-3.6
							c0.1,0,1.9-0.4,2.5-0.3c1,0.2,1.1,2,1.9,2.2c-0.2-0.2-0.3-0.6-0.3-0.8c0.4-0.1,0.5,0.7,0.9,0.1c-0.7-0.8,1-1-0.4-0.8
							c0.2-0.7,0.6-0.4,1.1-1c-0.7-0.3-1.2-2-0.9-2.7c0.2,0.2,0.5,0.3,0.7,0.4c1-1,1.8-1.2,2.7-2.2c0.3,0.1,0.9-0.2,1.1,0.3
							c0-0.3-0.2-0.6,0.1-0.9c1.2,0-0.5,0.8,0.7,1c-0.4-0.4,0.1-1.3,0.2-2c-0.8-0.5-1,0.9-1.1,1.5c-0.9-0.8-1.3-2.5-0.8-3.9
							c0.5-1,0.9,0.2,0.9-0.1c1.5-1.4-0.5-2.8,1.3-3.4c1,0,1.2,1,1.8,1.3c-0.3,0.9-1.3,0.7-1.6,1.1l0.8-0.3c0,0.4-0.2,1-0.6,1
							c0.9,0.1,2.4-2.5,3.9-3.2c0-0.4,0.1-0.9-0.3-1l-0.2,0.4c-0.8-0.1-0.1-1.3-0.7-1c0.1-0.8,0-1.8,0.9-2.3l0.8,0.5
							c-0.2-0.2-0.8,0.1-0.8,0.5c-0.1-0.6,1.9-0.3,1.3-1.4l-0.9,0.1c0.1-0.8-0.1-2.1,0.7-2.5c-0.9-0.3,0,0.2-1.2,0
							c1.3,0.5-1.4,1.6,0.1,1.9c-1.3-0.4-1.1,0.4-2.4,0.3c0.2,0.2,0.6,0.2,0.1,0.6c0,0.1,0.1,0.2,0.1,0.3l0,0h0.1c0,0.1,0,0.1,0,0
							c0.2,0,0.4,0,0.6,0c0.3,0.7-0.4,1.5-0.4,2.1c-0.4,0.2-0.1-0.4-0.5-0.4v0.8c-0.5-0.4-1.6,0.1-1.2-0.9l-0.6,0.6
							c-0.6,0.1-1.2,0.6-1.3,1.1c-0.4,0.2-0.1,1.3-0.3,0.7l-0.6,1.3l-0.1-0.1c-1,1-1,2.8-2.9,3.2c-0.2,0.5-0.3,0.9-1,1.4l-0.5-0.3
							c-0.2,0.6-1.6,0.9-1.3,1.5c-1.6-0.6-2.1,1.8-3,2.4l0.5,0.5c-0.5,0.5-0.8,1.1-1.2,2l0.5,0.4c-0.1,0.9-1.7,1.1-2.4,2
							c-0.1-0.2,0.1-0.4,0.4-0.5c-2.1,0-1.3,2.9-3,3.1c0,0.4-0.3,0.5-0.5,0.5c0,0,0,0,0-0.1l-0.1,0.1c-0.2,0-0.4,0-0.6,0.1
							c0.2,0,0.4,0,0.5,0c-0.2,0.2-0.4,0.5-0.5,0.9l-0.6-0.4c0,0,0,0,0,0.1c-0.4,0.1,0,0.4,0.6,0.7c0,0.2-0.1,0.4,0,0.7
							c-1-0.6-0.4,1-1.6,0.4c0.3,0.6-1,1.6-0.3,2.7c-0.1-0.1-0.3-0.1-0.1-0.2c-0.4,0.2-0.8,0.4-0.8,0.9l-0.8-0.5l0.2,1.5
							c-0.8,0-1.2-0.1-1.3-1c-0.2,1.7-0.5,1-0.6,2.5l-0.4-0.5c-0.3,0.3-0.2,1.3-0.7,1.1c-1.4-0.3-3.4,2.8-5.8,3.4
							c1.4,1.1-1.3,0.1-0.5,1.2c-0.4-0.2-0.7-0.2-0.7-0.7c-0.6,1-1.7,0.5-1.7,1.9c-0.4-0.3-0.2-0.6-0.4-0.8c0,0.1-0.1,0.5-0.3,0.4
							s-0.1-0.4,0-0.6c-0.9,0.7-0.2,1.8,0.4,2.8c-0.8-0.1-1,0.1-0.9,1c-0.4-0.2-0.9-0.3-0.4-0.9c-0.4,0.2-2.4,0.9-1.9,1.7
							c-0.2-0.1-0.5,0.3-0.5,0.4c-0.8,0.4-0.9,0.4-1.6,0.9h0.3c0.3,1.2-0.5,0.6-1.1,1.1V334c-1.9,0-0.4,0.7-2.3,0.6l0.4,0.6
							c0.5,1.5-1.7-0.2-2.3,0.7l0.5,0.2c-0.3,0.7-2.2-1.3-2.7-1.3c-0.2-0.1,0.1-0.3,0.2-0.4c-1.6-0.4,0.2,0.9-0.6,1.5
							c-0.4-0.4-0.3-1.3-0.9-1.1c-0.4-0.2-1.2,2.2-2.4,1.6c0.3,0.3,0.6,0.6,0.3,1c-0.6,0.4-2.3-0.8-2.5,0.5
							c-0.1-0.1-0.2-0.2-0.2-0.3c-0.4,0.5-1.6,1-1.7,1.7c-1.1-2.3-3.1,2-3.6-0.3l-1.6,0.4v-0.2c-1.1,0.1-1.4,0.7-1.7,1.3
							c-0.3-0.1-0.1-0.4-0.1-0.5c-1.7-0.2-1.8-0.1-2.9,1.2l-0.2-0.7c-0.3,0.5-2.4-0.9-3.9,0.2c0-0.1,0-0.2,0.1-0.4
							c-1.7,1.1-4.4-1.7-4.8,1.1l-1.1,0.8c1.5,0.1-0.1,1.2,0.5,1.6c-0.6,0.2-1.6-0.8-0.9-0.9l0.1,0.1c0.2-1.4-1.9-0.5-1.8-1.4
							c-0.4,0-0.7,0-1.1,0c-0.3,0-0.7-0.1-1-0.1c-0.7-0.1-1.4-0.2-2-0.4c-1.3-0.4-2.6-0.8-3.8-1.1l0.1,1.1l-0.9-0.3
							c-0.2-0.3-0.1-0.9,0.5-0.7c-0.2-0.7-1.2,0.3-1.3,0.5c-1.1-0.8,0.8-1.1,0.4-1.2c-0.2,0-0.4,0-0.5-0.1l0.1,0.2
							c-0.5,0.3-0.7,0.7-1.5,0.4c-0.4-0.4,0-0.7-0.2-0.8c0-0.1,0-0.1-0.3-0.1c-0.4-0.1-0.7-0.3-1.1-0.5l0.1,1
							c-0.6,0.2-1-0.5-0.9,0.7c-0.1-0.9-1.1-1.4-2.1-1.8c-1-0.5-2-0.8-2.1-1.1c-1,0.3-1.6-0.1-2.4-0.6c0.1,0.3-0.2,1.2-0.9,0.7
							c0.6-0.8,0.4-1.2,0.1-1.5c-0.3-0.4-0.8-0.7-0.7-1.5c0,1.1-2-1-2,0.7c-0.5-0.5,0.4-0.7,0.2-1.3c-1.7-0.2-2.6-2.3-4.3-3.2
							c-0.2,0.2-0.1,0.7-0.7,0.8l-0.1-1.7c-0.4-0.1-1.2,1-1.2-0.1c-0.1,0.2-0.1,0.6-0.4,0.5c-2.3-3.3-6.9-4-8.5-8.4
							c0.1,0.7-0.2,0.6-0.5,0.3c0.1,0.3-0.4,0.5-0.6,0.8l-0.7-1.8c-0.9,0.6-1.4-1.1-2.2-0.4l0.5,0.2c-1.2,0.4-0.8,2.6-1.8,3.6
							c1.4-0.5,0.4,2.8,2.6,2.2c0,0.4-0.5,0.2-0.6,0.6c0.6-0.3,1-0.1,1.4,0.5l-0.2,0.1c1.7,1.2,2,2.2,3.6,4l0.3-0.7
							c0.3,0.4,0.3,0.6,0.4,0.9c1.1-0.5-1.1-0.9,0.1-1.5c-0.4,1.6,2.8,2.2,2.2,3.7c0.6,0.5,0.3-0.8,0.9-0.3l-0.1,0.5l0.5-0.3
							c0.4,0.4,0.2,1,0,1.3c-0.1-0.1-0.3-0.1-0.5-0.2c0.2,0.8,1.6,1,1.7,1.2l-0.5-0.7c2,0.9,3.8,2.9,6.1,3.2v-0.4
							c1.7,0.3,0.9,1,2.5,1.6h-0.1c0.5-0.1,1,0,1.4,0.2c-0.6,0.1,0.4,1.1-0.4,1.2c1.9,0.2,1,0,2.6-0.6v0.6c0.6-0.3,0.7-0.5,1.6-0.3
							c-0.8,0.1,0.1,1-0.9,1.2c1.2,1.9,3,0,3.1,2c1.4-1.1-1.2-1.4-0.6-1.5c-0.2-0.6,1.1-0.8,1.5-0.5c0.5,0.2,0.2,2.2,1.7,2.7
							c-0.1-0.1-0.2,0.1-0.3,0c0.4,0.5,1.2-0.2,1.7,0.7c0.6-0.8,0.9,0.3,1.3-0.8c-0.5,0-0.9-0.1-1.4-0.1c0.8,0,1.9-1.2,2.9-0.3
							c-0.1,0.2-0.6,0.4-0.9,0.5c0.3,0.4,0.8-0.1,1.1,0.4c-0.4,1.1-1.7-0.1-2.8,0.5c0.3,0.6,1.8-0.4,1,0.7c1-1.4,1.4,0.6,2.7-0.4
							l-0.2,0.7c0.2-0.1,0.6-0.4,0.9-0.3l-0.7,0.8c1-0.6,1.5,0.9,2.4,0.6c-1.7-0.2-0.3-0.9-0.9-1.5c2.2-0.6,0.9,2.1,3.4,1.9
							c-0.3,0.1-1.2-0.5-0.7-0.8c0.4,0.2,1,0.5,1.3,0.9c1.6-0.1-0.2-0.7,0.5-1.1c0.5,0.9,0.8-0.3,1.4-0.6v0.7c1.8,0.4,0.4-1.5,2-1
							l-0.6,1l0.8-0.3l-0.1,0.8c0.9-0.6,1.1-0.5,2-0.4c-0.2-0.5,0-1.3,0.7-1.4c0.5,0.4-0.2,0.7,0.8,0.5c-0.2,0.5-0.4,1.1-0.9,0.4
							c0,0.2-0.2,0.5-0.2,0.7c0.6,0.4,1.4,0,1.8,0c-0.1,0-0.3,0-0.4-0.1l1.4-1.1c0.3,0.3,0.1,0.5-0.1,0.7c0.3-0.1,0.5-0.4,0.9-0.6
							c-0.1,0.6,0,1.2-0.6,1.5c0.5-0.3,0.9-0.5,1.4-0.8c0.1,0.2,0.8,0.6,0.7,0.8c0.9,0.2,1.8-1.4,3-1c0-0.1,0.1-0.2,0.4-0.4
							c1,0,2,0.6,3.1-0.4l0.9,0.9c0.9-0.4-1.1-1.1,0.3-1.8c1-0.5,0.6,0.8,1,1c0.5-0.6,1.2-1.9,2.3-1.2
							C543.5,345.6,543.2,345.5,542.9,345.6z M554.1,342c-0.2,0.2-0.4,0.8-0.7,0.5C553.3,341.6,553.6,341.9,554.1,342z M568.7,332
							c0,0.3-0.3,0.3-0.7,0.3C568.2,332.1,568.4,332,568.7,332z M598.7,295.1L598.7,295.1C598.2,295.3,598.4,295.3,598.7,295.1z
							 M599.6,294.6c0-0.1-0.1-0.2-0.2-0.2c0.1,0.2,0,0.4-0.3,0.5C599.4,294.9,599.6,294.9,599.6,294.6z M512.2,339.4l0.1,0.2
							C511.8,339.7,512,339.6,512.2,339.4z"/>
						<path class="st0" d="M567.7,333.9c-0.1-0.1-0.2-0.2-0.3-0.3C567.3,333.8,567.4,333.9,567.7,333.9z"/>
						<path class="st0" d="M535.8,347.2L535.8,347.2l-0.1,0.1L535.8,347.2z"/>
						<path class="st0" d="M593.9,310.3c-0.2,0.1-0.4,0.1-0.5,0C593.4,310.5,593.6,310.5,593.9,310.3z"/>
						<path class="st0" d="M602.2,289.8l-0.3,0.6c0.2-0.3,0.4-0.2,0.6-0.3C602.4,290,602.1,289.9,602.2,289.8z"/>
						<path class="st0" d="M609.3,288.5c0-0.1,0.1-0.2,0.1-0.3l-0.3-0.2C608.9,288.3,608.9,288.7,609.3,288.5z"/>
						<path class="st0" d="M604.4,290.9c0.5,0.4,0.6-0.1,0.8-0.5c0,0,0,0-0.1,0.1C604.6,289.8,604.5,290.3,604.4,290.9z"/>
						<path class="st0" d="M605.3,290.3c0.1-0.1,0.2-0.2,0.3-0.3C605.3,289.7,605.4,290.1,605.3,290.3z"/>
						<path class="st0" d="M600.2,293.3c0.3-0.1-0.5-0.6-0.2-0.5C599.5,292.1,599.7,294.5,600.2,293.3z"/>
						<polygon class="st0" points="606.2,291.9 605.5,291.6 605.8,292.2 						"/>
						<path class="st0" d="M603.4,294.3l0.6-0.4c-0.1-0.1-0.1-0.2-0.1-0.3C603.7,293.9,603.2,294.1,603.4,294.3z"/>
						<path class="st0" d="M604,293.5c0.2-0.2,0.3-0.3,0.3-0.5C604.2,293.1,604,293.3,604,293.5z"/>
						<polygon class="st0" points="605.7,292.8 605.4,292.9 605.1,293.2 						"/>
						<path class="st0" d="M598.2,300l-0.4,0.7c0.1,0.2,0.4,0.2,0.5-0.1C598.3,300.3,598.5,300.1,598.2,300z"/>
						<path class="st0" d="M601.3,299.6c-0.3,0.1-0.4,0-0.7-0.1l0.7,0.6V299.6z"/>
						<path class="st0" d="M600,301.4c0.1,0.2-0.2,1.3,0.4,0.6C600.2,301.7,600.6,301,600,301.4z"/>
						<polygon class="st0" points="591.2,309.5 591.3,309.3 590.1,308.3 						"/>
						<path class="st0" d="M586.5,319.6c0.9-0.4-0.5-0.8,0.4-1.1c-0.1-0.4-0.8,0.2-0.8-0.1C586,319,585.6,319.1,586.5,319.6z"/>
						<path class="st0" d="M586.1,318.3c0-0.1,0-0.2,0-0.4C586.1,318.2,586.1,318.3,586.1,318.3z"/>
						<polygon class="st0" points="483,319.5 482.7,318.9 482.7,319.5 						"/>
						<path class="st0" d="M481.4,319.7l0.5-0.8l-0.8,0.5C481.2,319.4,481.4,319.4,481.4,319.7z"/>
						<path class="st0" d="M556.4,343.1v-0.2c-0.2-0.2-0.3-0.2-0.6-0.1L556.4,343.1z"/>
						<polygon class="st0" points="547.9,345.2 548.1,345.2 547.6,344.4 						"/>
						<path class="st0" d="M541.1,347.9c0.3,0,0.6-0.3,0.9-0.3C541.4,347.9,540.8,346.8,541.1,347.9z"/>
					</g>
				</g>
			</g>
		</g>
	</g>
	<g>
		<g>
			<path class="st4" d="M507.2,319.1"/>
		</g>
	</g>
	<g>
		<g>
			<g>
				<g>
					<g>
						<path class="st0" d="M501.4,319.4c0.1,0-0.6,0.1-0.7,0.2C500.8,319.5,501.5,319.4,501.4,319.4z"/>
						<polygon class="st0" points="502.7,319 502.5,319 503.1,319 						"/>
						<path class="st0" d="M502.7,319.1c1.1,0-0.2-0.1,0.2-0.1h0.2h-0.9C502.5,319.1,503,319.1,502.7,319.1z"/>
						<path class="st0" d="M500.4,319.1c0.4,0,0.4,0,0.1,0C500.5,319.1,500.5,319.1,500.4,319.1L500.4,319.1z"/>
						<path class="st0" d="M500.4,319.1C500.4,319.1,500.1,319,500.4,319.1L500.4,319.1z"/>
						<path class="st0" d="M500.7,319.1h-0.4c-0.2,0-0.3,0-0.5,0C500,319.1,500.3,319.1,500.7,319.1z"/>
						<path class="st0" d="M501.4,319.2h-0.2C501.2,319.1,501.1,319.1,501.4,319.2z"/>
						<path class="st0" d="M500.9,319.1h0.3c0.2,0,0.5,0-0.1,0C501.5,319.2,501.2,319.1,500.9,319.1z"/>
						<path class="st0" d="M501.1,319.1c0.2,0,0.4,0,0.7,0C501.7,319.1,501,319.1,501.1,319.1z"/>
						<path class="st0" d="M503.8,319.2h0.3H503.8C503.9,319.2,503.5,319.2,503.8,319.2z"/>
						<path class="st0" d="M500.1,319.1c0.2,0,0.6,0.1,0.9,0.1h-0.2C500.6,319.1,500.4,319.1,500.1,319.1z"/>
						<path class="st0" d="M501,319.2h0.4C501.4,319.2,501.2,319.2,501,319.2z"/>
						<path class="st0" d="M502.6,319.3l-0.8-0.1L502.6,319.3z"/>
						<polygon class="st0" points="500.1,319.1 499.6,319 500.3,319.1 						"/>
						<path class="st0" d="M500.1,319.1c-0.4-0.1-0.7-0.1-0.9-0.1c0.1,0,0.4,0.1,0.7,0.1C499.7,319.1,499.8,319.1,500.1,319.1z"/>
						<path class="st0" d="M500.4,319.2c-0.1,0-0.3,0-0.4-0.1C500,319.1,500.1,319.1,500.4,319.2z"/>
						<path class="st0" d="M501.2,319.2c-0.1,0-0.5,0-0.6-0.1L501.2,319.2L501.2,319.2z"/>
						<path class="st0" d="M501.2,319.2L501.2,319.2L501.2,319.2L501.2,319.2z"/>
						<path class="st0" d="M501.2,319.2L501.2,319.2C501.3,319.2,501.3,319.2,501.2,319.2z"/>
						<path class="st0" d="M502,319.3c0.3,0,0.7,0.1,1.2,0.1C502.8,319.3,502.5,319.3,502,319.3z"/>
						<path class="st0" d="M502,319.3h0.2c-0.2,0-0.4,0-0.6-0.1L502,319.3z"/>
						<polygon class="st0" points="502.2,319.3 502,319.3 501.9,319.3 						"/>
						<path class="st0" d="M500.9,319.2c0.3,0,0.3,0,0.3,0.1c0.1,0,0.2,0,0.2,0C501.3,319.3,500.9,319.2,500.9,319.2z"/>
						<path class="st0" d="M501.1,319.2L501.1,319.2C501.2,319.3,501.2,319.3,501.1,319.2z"/>
						<path class="st0" d="M501.2,319.3h0.1H501.2L501.2,319.3z"/>
						<path class="st0" d="M501.5,319.3c0.1,0,0,0-0.2,0c0.1,0,0.1,0,0.1,0C501.5,319.3,501.6,319.3,501.5,319.3z"/>
						<path class="st0" d="M500.6,319.2c0.1,0,0.2,0,0.3,0C500.8,319.2,500.5,319.2,500.6,319.2z"/>
						<path class="st0" d="M501,319.2L501,319.2C500.8,319.2,500.9,319.2,501,319.2z"/>
						<path class="st0" d="M501,319.2c0.1,0,0.2,0,0.4,0.1c0,0-0.1,0-0.2,0C501.1,319.2,501,319.2,501,319.2z"/>
						<path class="st0" d="M504.9,320c-0.7-0.1-1.1-0.2-0.5-0.1c-0.4-0.1-2.2-0.4-3.1-0.5c0.2,0,0.4,0.1,0.7,0.1
							c0.3,0,0.7,0.1,1.2,0.2c0.2,0.1-0.2,0-0.5-0.1c0.3,0.1,0.6,0.1,0.8,0.2c0.3,0.1,0.6,0.1,1.1,0.2l-0.4-0.1
							C504.4,319.9,504.7,320,504.9,320z"/>
						<path class="st0" d="M501.4,319.3L501.4,319.3c-0.2,0-0.4-0.1-0.8-0.1c0.3,0,0.5,0.1,0.6,0.1H501.4L501.4,319.3z"/>
						<path class="st0" d="M501.3,319.3c0.6,0.1,0.8,0.1,1.5,0.2c0,0-0.5-0.1-0.7-0.1C502.2,319.5,501.7,319.4,501.3,319.3
							L501.3,319.3c-0.2,0-0.2,0-0.4-0.1l0,0l0,0l0,0c0.1,0,0.1,0,0.1,0l0,0C501.2,319.3,501.2,319.3,501.3,319.3
							c-0.1,0-0.2,0-0.2,0H501l0,0H501.3C501.4,319.3,501.4,319.3,501.3,319.3z"/>
						<path class="st0" d="M504.5,319.5c-0.1,0-0.1,0-0.1,0C504.5,319.5,504.5,319.5,504.5,319.5z"/>
						<path class="st0" d="M504.1,319.5c-0.1,0-0.3,0-0.3,0c0.2,0,0.3,0,0.5,0c-0.2,0-0.4-0.1-0.7-0.1h0.1c-0.2,0-1-0.1-1.1-0.1
							C503.2,319.4,503.6,319.5,504.1,319.5z"/>
						<path class="st0" d="M502.9,319.5l0.3,0.1l0.5,0.1h-0.3C503.5,319.5,503.1,319.5,502.9,319.5z"/>
						<polygon class="st0" points="500.9,319.3 500.3,319.2 501.1,319.3 						"/>
						<polygon class="st0" points="500.9,319.3 500.4,319.2 500.7,319.3 						"/>
						<path class="st0" d="M508.6,317.9h0.2C508.7,317.9,508.7,317.9,508.6,317.9z"/>
						<path class="st0" d="M508.5,317.8h-0.3C508.4,317.8,508.5,317.8,508.5,317.8z"/>
						<path class="st0" d="M500.6,319.1c-0.4,0-1,0-0.5,0H500.6C500.4,319,500.5,319,500.6,319.1z"/>
						<path class="st0" d="M504.1,318.2c0.1,0,0.1,0,0.2,0c-0.2,0-0.4,0.1-0.6,0.1C503.9,318.3,504,318.2,504.1,318.2z"/>
						<path class="st0" d="M506.8,317.8l-0.4,0.1C506.6,317.8,506.7,317.8,506.8,317.8z"/>
						<path class="st0" d="M509.3,318.9h0.7C509.9,318.9,509.6,318.9,509.3,318.9z"/>
						<path class="st0" d="M500.9,319.4c-0.2,0-0.3-0.1-0.3-0.1C500.8,319.4,501.3,319.5,500.9,319.4z"/>
						<path class="st0" d="M501.7,318.7c0.1,0,0.3,0,0.4,0C501.9,318.7,501.8,318.7,501.7,318.7z"/>
						<path class="st0" d="M500.5,319.3h0.1H500.5C500.3,319.3,500.2,319.2,500.5,319.3z"/>
						<path class="st0" d="M507.4,321.4C507.3,321.4,507.3,321.4,507.4,321.4L507.4,321.4z"/>
						<path class="st0" d="M500.7,319.4L500.7,319.4L500.7,319.4z"/>
						<path class="st0" d="M500.6,319.3C500.6,319.3,500.5,319.3,500.6,319.3L500.6,319.3z"/>
						<path class="st0" d="M502.8,319.7c0.1,0,0.1,0,0.3,0.1C502.9,319.8,502.8,319.7,502.8,319.7z"/>
						<path class="st0" d="M503.4,319.9L503.4,319.9C503.5,320,503.5,320,503.4,319.9z"/>
						<path class="st0" d="M500.9,319.4c-0.1,0-0.1,0-0.2,0C500.7,319.3,500.8,319.3,500.9,319.4z"/>
						<path class="st0" d="M500.6,319.3L500.6,319.3C500.6,319.3,500.5,319.3,500.6,319.3z"/>
						<path class="st0" d="M500.6,319.3L500.6,319.3L500.6,319.3L500.6,319.3z"/>
						<path class="st0" d="M506.3,320.1L506.3,320.1C506.5,320.2,506.5,320.1,506.3,320.1z"/>
						<path class="st0" d="M506.4,318.6L506.4,318.6L506.4,318.6L506.4,318.6z"/>
						<path class="st0" d="M506.9,318.5c-0.8,0.1-0.8,0.1-0.5,0.1l-2,0.1L506.9,318.5z"/>
						<path class="st0" d="M508.8,318.3l0.6-0.1c1,0,0.6,0.1,1.4,0c-2,0.1-0.2-0.3-2.2-0.1l0.4-0.1h0.1c0.7-0.1-0.3,0-0.9,0l0,0l0,0
							c-0.2,0-0.4,0-0.3,0s0.4-0.1,0.7-0.1h-0.5c0,0,0.4-0.1,0.4,0l-0.2-0.1h0.1c-0.3,0-0.8,0.1-1.1,0.1c0.3-0.1,0.2,0,0.5-0.1h-0.5
							c0.5-0.1,1-0.1,1-0.1c2-0.3-0.5,0,0.5-0.2h0.3c1.1-0.2,0.7-0.2,1.3-0.3c-0.4,0.1-1.7,0.3-2.3,0.4c0.1,0,0.2-0.1-0.2,0
							c0.7-0.1,0.5-0.1,0.4-0.1l0.9-0.1c-0.3,0-0.8,0.1-1.2,0.2c0.1,0,0.8-0.2,1.4-0.3c0.1,0-1.1,0.2-1.4,0.2c0.3-0.1-0.1,0-0.7,0.1
							c0.3-0.1,0.6-0.1,0.8-0.1l-0.8,0.1c0,0,0.2,0,0.4-0.1c-0.3,0.1-1,0.2-1.2,0.2c-1.1,0.2,1.4-0.2,0.2,0c0.3,0,0.6-0.1,0.9-0.2
							c-0.8,0.2-0.6,0.1-1.7,0.3l0.6-0.1c-0.7,0.1-1.6,0.3-2.3,0.4c-0.3,0-0.5,0.1-0.7,0.1l-0.5,0.1c0.1,0,0.4-0.1,0.7-0.1
							c-0.1,0-0.1,0-0.2,0c0.3-0.1,0.8-0.1,1.3-0.2c-0.2,0-0.4,0.1-0.6,0.1c0.6-0.1,1.2-0.2,1.8-0.3c-0.1,0-0.2,0-0.3,0.1
							c0.2,0,0.3,0,0.4-0.1c0.1,0-0.1,0-0.4,0.1l1-0.2l-0.4,0.1h0.6c-1.1,0.2-2.7,0.5-3.2,0.6c0.8-0.1,1.3-0.2,2.2-0.3
							c-1,0.1,0.5-0.1,0.3-0.1c0.1,0,0.5-0.1,0.7-0.1l-1,0.2c0.8-0.1,0.5-0.1,0.8-0.1c-1.5,0.2-1,0.2-1.5,0.3c0.5-0.1,1-0.1,0.9-0.2
							c1.1-0.1-1.8,0.3-0.9,0.2c0,0-0.1,0,0.2,0c-0.5,0.1-0.2,0.1,0.3,0l0,0c0.1,0-0.1,0.3-1.4,0.3c0.2,0,1.5-0.1,1.8-0.1l-2.2,0.2
							l-1.8,0.1c0.4,0,3.7-0.1,4.1-0.2c0.2,0,0.5,0,0.3,0.1c-0.2,0-1.9,0-2,0.1c0.8,0,1,0,1.1,0c0.2,0,0.4,0,1.1,0
							c-0.4,0-2.4,0.1-2.4,0.1c0.3,0,2.2,0,2.4-0.1l-1.1,0.1l-1.1,0.1c0.4,0,1.9,0,2.5,0c-0.4,0,0,0.1-0.2,0.1l-0.5-0.1
							c0.3,0.2-3.2,0.1-3.1,0.1c0.5,0,2.8,0.1,3.1,0.2c-0.9,0-4.3-0.1-5-0.2h0.3h-0.4c0.2,0,0.5,0,0.8,0.1c0.4,0,0.8,0,1.3,0.1
							c1.3,0.1,2.6,0.1,3.3,0.1c0.5,0.1,0.8,0.1,0.7,0.2c0.6,0.1,0.9,0,1,0l0.3,0.3c-1.3-0.1-1.4,0-2.5-0.1c0.5,0,0.9,0,1.4-0.1
							c-1.3-0.1-3.8-0.2-3.6-0.1c0.5,0.1,2.3,0.2,2.8,0.3c-0.5,0-0.9,0-0.6,0.1h0.7c0.5,0.2-1.7-0.1-0.5,0.1c0.1,0,1.6,0.4,0.9,0.2
							c-0.7-0.1-2.2-0.4-3.7-0.6c-0.9-0.1-1.9-0.3-2.2-0.3c0.1,0,0.8,0.2,1.2,0.3c0.2,0,0.5,0.1,0.7,0.1c0.3,0.1,0.7,0.1,1,0.2
							c0.7,0.1,1.3,0.2,1.8,0.3c-0.3-0.1-0.8-0.1-0.9-0.1c0.3,0.1,1.1,0.2,0.9,0.2c-1.3-0.2,0.1,0.1-1.1-0.2c-0.4,0,0.3,0.1,0.2,0.2
							c-0.5-0.1-1.7-0.3-2.3-0.5l0,0c-0.2,0-0.3-0.1-0.4-0.1c0.2,0,0.5,0.1,0.6,0.1c0.2,0.1,0.8,0.2,0.8,0.2
							c0.3,0.1,0.6,0.2,1.2,0.3c-0.2,0-0.6-0.1-0.6-0.1c1,0.2,0.2,0,1.4,0.3c-0.7-0.2-0.9-0.2-1.3-0.3c-1.1-0.2-0.3-0.1,0.1,0
							c-1.1-0.3-2.3-0.5-2.8-0.7c-0.2-0.1,0.6,0.1,0.5,0.1c0.3,0.1-1.7-0.4-0.9-0.2c0.6,0.1,1.3,0.3,1.8,0.4
							c0.2,0.1-0.5-0.1-0.5-0.1l0.3,0.1c0.2,0,0.3,0.1,0.1,0c0.2,0,0.3,0.1,0.4,0.1s0.1,0,0.2,0s0.2,0,0.6,0.1
							c-0.3-0.1-0.6-0.1-0.9-0.2h0.1c-0.5-0.1-0.7-0.2-1-0.2c-0.3-0.1-0.9-0.2-0.6-0.2l0.8,0.2c-0.2,0-0.5-0.1-0.3,0
							c-0.3-0.1,1.1,0.2,0.1,0l-0.6-0.1c-0.4-0.1-1.2-0.3-0.9-0.2c-0.8-0.1,0.1,0-0.8-0.1c1.2,0.2-0.1,0,1.1,0.2
							c-1.1-0.2-0.5-0.1-1.4-0.3c0.3,0.1,0.5,0.1,0.4,0.1c0.1,0,0.2,0,0.2,0l0,0l0,0l0,0c0.1,0,0.2,0,0.4,0.1
							c0.6,0.1,0.5,0.1,0.8,0.2c-0.1,0-0.3-0.1-0.6-0.1l0.4,0.1c-0.5-0.1-0.9-0.2-1.2-0.3l0,0c-0.3-0.1-0.4-0.1-0.2,0
							c-0.1,0,0.6,0.1,0.2,0l0.3,0.1h-0.1c-0.1,0,0.8,0.2-0.2,0c0.1,0,0.3,0.1,0.1,0l-0.4-0.1c0.1,0-0.4-0.1,0,0
							c-0.1,0-0.2,0-0.2-0.1l0,0c-0.7-0.2,0,0-0.2-0.1l0.5,0.1c0,0,0.1,0,0.3,0l0.5,0.1c0.4,0-0.3-0.1-0.3-0.1c-0.2,0-0.1,0,0,0
							c-1-0.1,0.7,0,0-0.1c0.2,0,0.1,0,0,0l0,0l0,0c-0.1,0-0.2,0-0.2,0c0.1,0,0.2,0,0.2,0s0.1,0,0.2,0h-0.5l0,0c-0.2,0,0.2,0,0.6,0
							c0.1,0,0.2,0,0.3,0c-0.8,0,0.3,0-0.6,0c0.4,0,0.3,0,1.2-0.1c-0.1,0-0.2,0-0.2,0c-0.1,0-0.2,0,0.1,0h-0.6l0.9-0.1
							c-0.4,0-0.6,0-1.1,0c0.8-0.1,0.3,0,1.1-0.1h-0.4c0,0,0.6-0.1,0.3-0.1c-0.8,0.1,0-0.1-0.8,0c1.4-0.2-0.6,0.1,0.5-0.1
							c-0.3,0-0.5,0.1-0.8,0.1c0.3-0.1-0.5,0.1,0.4-0.1c-0.3,0.1-0.5,0.1-0.7,0.1c0.1,0,0.3,0,0.1,0c-0.2,0-0.3,0-0.4,0.1
							c0.1,0,1.1-0.2,2.1-0.3c-0.4,0.1-0.4,0,0.3-0.1c-0.3,0.1-0.7,0.1-0.8,0.1c0,0-0.4,0.1,0.4-0.1c-0.2,0,0,0,0.1,0c0,0-0.1,0,0,0
							h0.1c1-0.2,0.3,0,0.4-0.1h-0.1c-0.7,0.1,0.4-0.1-0.4,0.1l0.7-0.1c1.4-0.2-0.8,0.1-0.2,0.1l0.4-0.1c0.5-0.1-1.9,0.3-2.1,0.4
							c-0.1,0-0.2,0-0.3,0c-0.8,0.1,0.9-0.1,1.1-0.2c-0.5,0.1-1.2,0.2-1.3,0.2c-0.4,0.1,1.6-0.2,0.7-0.1c0.4-0.1,0.8-0.1,1.1-0.1
							c0.2,0-1.4,0.2-0.2,0.1c-0.1,0-0.2,0-0.3,0c0.3,0,0.5,0,0.9-0.1l0,0l0,0c0.1,0,0.2,0,0.4,0c-2.5,0.3,1.2,0-1.1,0.2h0.1H502
							c-0.2,0,0.4,0,0.9,0c-0.2,0-0.4,0-0.5,0c-0.5,0.1-0.4,0.1,0.7,0.1h-0.7c0.4,0-1.2,0.1-0.4,0.1c-0.1,0-0.2,0-0.3,0
							c0.8,0.1-2,0,0.5,0.1l0.6,0.1c0.2,0,1.1,0.1,1.6,0.1c0.1,0-0.8,0-0.9,0h0.1c-1.3-0.1-0.5,0-1.4-0.1c0,0.1-0.8,0-0.9,0.1l1,0.1
							h-0.1c-0.2,0-0.7-0.1-0.7-0.1c-0.5-0.1,0.4,0.1,0.6,0.1c-0.4,0-1.1-0.2-1.1-0.2h0.1h0.1c0.4,0.1,0.8,0.1,0.7,0.1
							c-0.2,0-0.6-0.1-0.6-0.1c-0.1,0-0.1,0,0,0h-0.1l0.7,0.1c0.3,0.1-0.1,0,0.8,0.2c-1.3-0.2-0.6,0-1-0.1c0.5,0.1,0.4,0.1,0.3,0.1
							c0.1,0,0.9,0.2,0.8,0.2c-1.5-0.4-0.7-0.1-1.8-0.4c0.7,0.2,0.1,0.1,1.1,0.3c-0.1,0-0.5-0.1-0.9-0.2c0.5,0.2-0.5-0.1-0.3,0
							c0.2,0,0.4,0.1,0.7,0.2l-0.9-0.3c0.1,0,1,0.3,0.4,0.1c0.1,0,0.4,0.1,0.4,0.1c-0.5-0.1-0.4-0.1-0.4-0.1s0,0-0.1,0
							s-0.3-0.1-0.6-0.2c0.3,0.1,0.3,0.1,0.3,0.1c0.1,0,0.3,0.1,0.5,0.2l-0.6-0.2c0.5,0.1,0,0,0.5,0.1H501c1,0.3,2.3,0.6,3.6,1
							c-1.7-0.5,2.5,0.8,0.2,0.1c0.4,0.1,0.6,0.2,1,0.3c-0.8-0.2-0.9-0.3-0.6-0.2l0.2,0.1c-0.1,0,0.7,0.2,1.2,0.4l-0.9-0.3
							c0.1,0,0.4,0.1,0.6,0.2c-1.3-0.4-0.1,0-1.6-0.5c1.8,0.5,0.2,0,2.2,0.6l-1-0.3l0.5,0.2l-0.7-0.2c0.1,0,0.8,0.2,1.3,0.3
							c-0.1,0,0.1,0,0.1,0.1c0.6,0.2-0.2-0.1,0.1,0l-0.3-0.1c-0.4-0.2,0.4-0.1-0.6-0.4l-0.4-0.1c-0.6-0.2,0.5,0.1,0.2-0.1h0.1
							c-0.4-0.1-0.5-0.2-0.5-0.2c0.4,0.1,0.9,0.2,1.4,0.3c-0.7-0.2-0.6-0.2-1.9-0.5l0.6,0.1c-0.5-0.1-0.8-0.2-1-0.3
							c0.5,0.1,1,0.2,1.6,0.4c1.4,0.2-1.3-0.4,0.8,0c-1.7-0.4-1-0.1-1.4-0.2c-0.6-0.1-1.2-0.3-1-0.3c0.1,0,2.2,0.4,2.2,0.3h0.1
							c0.4,0-0.5-0.2,0.2-0.1c-1-0.2,0.1,0-1.2-0.2l0.2,0.1c-0.3-0.1-1.8-0.4-1-0.3c0.3,0,0.6,0.1,0.8,0.2c0.4,0-0.2-0.1,0.2,0
							c1.3,0.2,0.2,0.1,1.2,0.3c0.6,0.1-0.9-0.2,0.5,0c-1.8-0.3,0.3-0.1-1-0.3l0.8,0.1c-0.1,0-0.5-0.1-0.4-0.1l1,0.2
							c-0.8-0.2,0.8,0,0.4-0.1c0,0.1-0.9-0.1-1.5-0.1c-1-0.2,2,0.2,1.7,0c0.1,0-0.5,0-0.8,0c0.2,0,0.5,0,0.9,0
							c-0.1-0.1-0.8-0.1-1.2-0.1c0.9,0.1-0.4-0.1-0.6-0.1l0.8,0.1c0.5-0.1-1.6-0.2-0.9-0.2l1,0.1l-0.3-0.1l0.9,0.1
							c-0.6-0.1-0.4-0.1-0.2-0.2c-0.5,0-1.4-0.1-1.4-0.1c0.5,0,0.7,0.1,0.6,0c0.5,0,1.1,0.1,0.3,0.1c0.2,0,0.5,0,0.7,0.1
							c0.5,0,0.1-0.1,0.1-0.1s-0.1,0-0.2,0l-1-0.1c0.3,0,0.5,0,0.7,0c-0.1,0-0.4-0.1-0.5-0.1c0.6,0,1.2,0,1.5,0.1l-0.6-0.1
							c0.3,0,0.7,0,1,0c0.4-0.1-1.2-0.2-0.7-0.3c-0.1,0-0.2,0-0.3,0c0.1-0.1,0.8-0.2,0.1-0.3l1.1-0.1c-0.2-0.1-1.3,0.1-1.7,0
							c-0.3-0.1,0.9-0.1,1.2-0.1c-0.5,0-1.6,0-0.7-0.2C508.9,318.3,508.8,318.3,508.8,318.3z M508,317.7c0.2,0,0.6-0.1,0.2,0
							C507.4,317.8,507.8,317.7,508,317.7z M505.4,318c0.2,0,0.1,0-0.1,0C505.2,318.1,505.2,318.1,505.4,318z M501,319.4L501,319.4
							C500.8,319.4,500.9,319.4,501,319.4z M501.3,319.5l-0.2-0.1c0.1,0,0.2,0,0.1,0C501.3,319.5,501.4,319.5,501.3,319.5z
							 M501.6,319.4h0.2C501.9,319.5,501.8,319.5,501.6,319.4z"/>
						<path class="st0" d="M506.5,317.8c-0.1,0-0.3,0-0.4,0.1C506.2,317.9,506.4,317.8,506.5,317.8z"/>
						<path class="st0" d="M509.1,318.9L509.1,318.9h0.1H509.1z"/>
						<path class="st0" d="M506.8,320.4c-0.1,0-0.3-0.1-0.5-0.1C506.6,320.3,506.8,320.4,506.8,320.4z"/>
						<path class="st0" d="M500.4,319.2h0.2c0,0,0.1,0,0.2,0C500.6,319.3,500.4,319.2,500.4,319.2z"/>
						<path class="st0" d="M504.5,319.8C504.4,319.8,504.5,319.8,504.5,319.8l-0.4-0.1C504.1,319.8,504.3,319.8,504.5,319.8z"/>
						<path class="st0" d="M502.4,319.6c0.5,0.1,0.4,0.1,0.3,0l0,0C502,319.5,502.2,319.6,502.4,319.6z"/>
						<path class="st0" d="M502.7,319.7C502.7,319.6,502.7,319.6,502.7,319.7C502.4,319.6,502.6,319.6,502.7,319.7z"/>
						<path class="st0" d="M501,319.4c0.1,0-0.6-0.1-0.4-0.1C499.9,319.2,501.3,319.5,501,319.4z"/>
						<polygon class="st0" points="504.2,320 503.5,319.8 504,319.9 						"/>
						<path class="st0" d="M503.6,319.9h0.2C503.7,319.9,503.6,319.9,503.6,319.9C503.5,319.9,503.4,319.9,503.6,319.9z"/>
						<path class="st0" d="M503.6,319.9L503.6,319.9C503.5,319.9,503.5,319.9,503.6,319.9z"/>
						<polygon class="st0" points="504.4,320 504.2,320 504.1,320 						"/>
						<path class="st0" d="M503.1,319.9h0.1c0.2,0,0.3,0.1,0.3,0.1C503.3,320,503.2,320,503.1,319.9z"/>
						<path class="st0" d="M505.2,320.4c-0.2,0-0.4-0.1-0.7-0.1l1,0.2L505.2,320.4z"/>
						<path class="st0" d="M505.4,320.5c0.3,0.1,0.8,0.2,0.8,0.2C505.9,320.6,505.6,320.5,505.4,320.5z"/>
						<polygon class="st0" points="503.6,319.8 503.6,319.8 502.4,319.6 						"/>
						<path class="st0" d="M508.5,319.3c0.5,0.1-1.3,0-0.7,0.1c-0.5,0-0.5-0.1-0.9-0.1C507.5,319.2,507.2,319.2,508.5,319.3z"/>
						<path class="st0" d="M507,319.3c-0.1,0-0.2,0-0.3,0C506.8,319.3,506.9,319.3,507,319.3z"/>
						<polygon class="st0" points="500.3,319.3 500.1,319.2 500.4,319.3 						"/>
						<path class="st0" d="M500.8,319.4l-0.5-0.1L500.8,319.4C500.7,319.4,500.7,319.4,500.8,319.4z"/>
						<path class="st0" d="M509.9,317.3h-0.2c-0.2,0-0.3,0-0.3,0.1L509.9,317.3z"/>
						<polygon class="st0" points="509.6,317.8 509.6,317.8 508.7,317.9 						"/>
						<path class="st0" d="M510.7,318.4c0,0-0.2-0.1-0.1-0.1C510.7,318.4,509.6,318.5,510.7,318.4z"/>
					</g>
				</g>
			</g>
		</g>
	</g>
	<g>
		<g>
			<g>
				<g>
					<g>
						<path class="st0" d="M536,335c-0.1,0,0.2,0.5,0.3,0.6C536.4,335.4,535.9,334.8,536,335z"/>
						<polygon class="st0" points="536.6,333 536.7,333.2 536.6,332.6 						"/>
						<path class="st0" d="M537.8,332.3c-0.7-0.9-0.4,0.4-0.8,0.2l-0.2-0.2l0.3,0.8C537.4,332.8,537.5,332.1,537.8,332.3z"/>
						<path class="st0" d="M539.7,333.9c-0.3-0.3,0-0.4-0.2,0l0.1,0.1C539.5,333.9,539.6,333.9,539.7,333.9z"/>
						<path class="st0" d="M539.5,333.9C539.4,334,539.8,334.2,539.5,333.9L539.5,333.9z"/>
						<path class="st0" d="M540,333.4v0.4c0.2,0.2,0.3,0.1,0.4,0.3C540.5,333.8,540.3,333.7,540,333.4z"/>
						<path class="st0" d="M539.7,332.6v0.2C539.8,332.9,539.9,332.9,539.7,332.6z"/>
						<path class="st0" d="M539.7,333.2v-0.4c-0.1-0.1-0.3-0.4,0,0.2C539.6,332.7,539.7,332.9,539.7,333.2z"/>
						<path class="st0" d="M539.5,333.1c-0.2-0.1-0.4-0.2-0.4-0.6C538.9,332.8,539.3,333.4,539.5,333.1z"/>
						<path class="st0" d="M537.3,331.3l-0.3-0.2l0.1,0.4C537.1,331.3,537.5,331.6,537.3,331.3z"/>
						<path class="st0" d="M541.3,333.2c-0.1-0.2-0.4-0.5-0.5-0.7v0.3C541,332.9,541.1,332.9,541.3,333.2z"/>
						<path class="st0" d="M540.8,332.5v-0.4C540.6,332.1,540.7,332.3,540.8,332.5z"/>
						<polygon class="st0" points="539.2,331.6 539.3,332.5 539.2,331.5 						"/>
						<polygon class="st0" points="542.1,332.8 542.2,333.3 542,332.5 						"/>
						<path class="st0" d="M542.5,332.4c0.1,0.4,0.5,0.6,0.6,0.8c0.1-0.1,0-0.5-0.1-0.9C543,332.6,542.8,332.6,542.5,332.4z"/>
						<path class="st0" d="M542.9,331.9c0,0.1,0,0.3,0.1,0.5C543,332.3,543,332.1,542.9,331.9z"/>
						<path class="st0" d="M541.2,331.9c0.1,0.1,0.3,0.4,0.5,0.5L541.2,331.9L541.2,331.9z"/>
						<path class="st0" d="M541.2,331.9L541.2,331.9c0.1,0,0.2,0,0.2-0.1C541.4,331.8,541.3,331.9,541.2,331.9z"/>
						<path class="st0" d="M541.1,331.9L541.1,331.9L541.1,331.9z"/>
						<path class="st0" d="M540,331.8c-0.1-0.4,0-0.8-0.5-1.2C539.6,331,539.8,331.2,540,331.8z"/>
						<path class="st0" d="M540.6,331.3h-0.3c0.1,0.1,0.3,0.3,0.3,0.5V331.3z"/>
						<polygon class="st0" points="540.6,331.1 540.6,331.3 540.7,331.3 						"/>
						<path class="st0" d="M542.2,331.6c-0.1-0.3,0-0.4,0.1-0.5c-0.2,0-0.3,0-0.4,0C542,331.3,542.1,331.7,542.2,331.6z"/>
						<path class="st0" d="M541.7,331.7L541.7,331.7C541.7,331.6,541.6,331.6,541.7,331.7z"/>
						<path class="st0" d="M543.4,330.4C543.3,330.4,543.3,330.4,543.4,330.4L543.4,330.4L543.4,330.4z"/>
						<path class="st0" d="M541.8,331c-0.2-0.1-0.1,0.1-0.1,0.3C541.8,331.3,541.8,331.2,541.8,331C541.8,331.1,541.8,331,541.8,331
							z"/>
						<path class="st0" d="M543,331.4c-0.1-0.1-0.2-0.1-0.3-0.2C542.8,331.4,543.1,331.6,543,331.4z"/>
						<path class="st0" d="M541.8,331.8L541.8,331.8C541.9,331.9,541.9,331.8,541.8,331.8z"/>
						<path class="st0" d="M541.8,331.8c0-0.1-0.1-0.3-0.1-0.4c0,0.1,0,0.2,0,0.3C541.7,331.7,541.8,331.7,541.8,331.8z"/>
						<path class="st0" d="M541.5,326.8c0.3,0.5,0.4,1.1-0.1,0.7c0.1,0.5,1.2,2.1,2,2.9c-0.1-0.2-0.3-0.4-0.3-0.8
							c-0.2-0.2-0.8-0.4-1-0.9c0.1-0.4,0.3,0,0.6,0.2c-0.5-0.6-0.3-1.1-0.9-2v0.5C541.7,327.1,541.6,326.9,541.5,326.8z"/>
						<path class="st0" d="M542.9,330.5v0.1c0.1,0,0.3,0.2,0.7,0.5c0-0.3-0.1-0.5-0.2-0.7L542.9,330.5L542.9,330.5z"/>
						<path class="st0" d="M542.5,330.9c-0.3-0.6-0.2-0.9-0.7-1.5c-0.2,0.2,0.1,0.6,0.1,0.9C542.2,329.9,542,330.7,542.5,330.9
							c-0.1,0.1-0.1,0.1-0.2,0.2c0.1,0,0.2,0.1,0.4,0.1l0,0l0,0l0,0c-0.1-0.1-0.1-0.1,0-0.1l0,0C542.6,331,542.5,331,542.5,330.9
							c0.2,0,0.1,0.1,0.1,0.2v0.1l0,0l0.2-0.5C542.7,330.6,542.6,330.7,542.5,330.9z"/>
						<path class="st0" d="M538.9,329.3l0.1,0.1C539,329.3,538.9,329.3,538.9,329.3z"/>
						<path class="st0" d="M539.2,329.5c0,0.1,0.1,0.3,0,0.3c-0.2-0.1-0.2-0.3-0.3-0.4c0,0.2,0.1,0.5,0.4,0.7V330
							c0.3,0.1,0.9,0.7,0.9,0.8C539.9,330.3,539.6,330,539.2,329.5z"/>
						<path class="st0" d="M540.8,330.1l0.1-0.5l-0.5-0.4l0.2,0.3C540.4,329.5,540.7,329.8,540.8,330.1z"/>
						<polygon class="st0" points="543.6,330.7 543.9,331.3 543.6,330.4 						"/>
						<polygon class="st0" points="543.9,330.4 544.2,330.9 544.2,330.5 						"/>
						<path class="st0" d="M552.7,318.7l-0.1,0.2C552.7,318.9,552.7,318.8,552.7,318.7z"/>
						<path class="st0" d="M553.5,318.5l-0.1-0.3C553.5,318.4,553.5,318.5,553.5,318.5z"/>
						<path class="st0" d="M553.8,323c0.5,0.3,1.2,0.8,0.7,0.3l-0.5-0.4C554,323,553.9,323,553.8,323z"/>
						<path class="st0" d="M556.6,314.3c-0.1,0-0.1-0.1-0.2-0.1c0.2,0.2,0.3,0.3,0.4,0.5C556.8,314.5,556.7,314.4,556.6,314.3z"/>
						<path class="st0" d="M554.5,312.6l0.5,0.1C554.8,312.6,554.7,312.6,554.5,312.6z"/>
						<path class="st0" d="M548.6,320.5v0.7C548.8,321.1,548.6,320.8,548.6,320.5z"/>
						<path class="st0" d="M548,327.3c0.3,0.1,0.4,0.1,0.5,0.1C548.2,327.2,547.7,326.9,548,327.3z"/>
						<path class="st0" d="M551.1,312c0,0.1,0,0.3,0,0.4C551.2,312.3,551.2,312.1,551.1,312z"/>
						<path class="st0" d="M548.9,327.2c-0.1,0-0.1-0.1-0.2-0.1c0,0.1-0.1,0.3-0.2,0.3C548.8,327.6,549,327.7,548.9,327.2z"/>
						<path class="st0" d="M532.3,321.6L532.3,321.6L532.3,321.6z"/>
						<path class="st0" d="M528.1,314.9c0,0,0.1,0,0.2,0C528.2,314.8,528.2,314.8,528.1,314.9z"/>
						<path class="st0" d="M545.8,329.5C545.7,329.6,545.8,329.6,545.8,329.5L545.8,329.5z"/>
						<path class="st0" d="M543.9,327.6c0-0.1-0.1-0.2-0.1-0.3C543.9,327.5,543.9,327.6,543.9,327.6z"/>
						<path class="st0" d="M547.3,323.3L547.3,323.3C547.2,323.2,547.2,323.3,547.3,323.3z"/>
						<path class="st0" d="M545.5,329.4c0.1,0,0.2,0.1,0.2,0.1C545.6,329.4,545.6,329.4,545.5,329.4z"/>
						<path class="st0" d="M545.7,329.6L545.7,329.6C545.6,329.7,545.6,329.7,545.7,329.6z"/>
						<path class="st0" d="M545.9,329.4c0,0-0.1,0-0.2,0l0.1,0.1C545.8,329.5,545.8,329.5,545.9,329.4z"/>
						<path class="st0" d="M540.8,319.4L540.8,319.4C540.7,319.7,540.7,319.6,540.8,319.4z"/>
						<path class="st0" d="M551,316.3L551,316.3L551,316.3L551,316.3z"/>
						<path class="st0" d="M550.9,315.7c0.5,0.7,0.3,0.7,0.1,0.6l1.4,1.2L550.9,315.7z"/>
						<path class="st0" d="M550.9,319.4l0.4,0.5c-0.1,1-0.4,0.8,0.1,1.5c-0.5-2,1-0.5,0.5-2.5l0.3,0.4c-0.1,0,0,0.1-0.1,0.1
							c0.6,0.9-0.1-1.5,0.4-1.3c0.2,0.1,0.4,0.4,0.3,0.6l0.2-0.6c0.1,0,0.2,0.4,0.1,0.3l0.5-0.3v0.1c0-0.3,0-0.8,0-1.1
							c0.2,0.2,0,0.2,0.1,0.5l0.1-0.6c0.3,0.5,0.2,1,0,1c0.9,1.9,0.1-0.6,1,0.4l-0.2,0.3c0.5,1,0.6,0.6,1.1,1.2
							c-0.2-0.3-1.1-1.5-1-2.1c0.1,0.1,0.3,0.2,0.3-0.3c0.2,0.7,0.3,0.5,0.5,0.4l0.3,0.9c0.1-0.3,0-0.8-0.1-1.2
							c0.3,0,0.6,0.7,0.8,1.3c0.4,0-0.6-1-0.3-1.4c0.4,0.2,0.5-0.2,0.7-0.9c0.3,0.2,0.2,0.6,0.3,0.8l-0.1-0.8c0.1,0,0.1,0.2,0.2,0.3
							c0.1-0.3-0.3-0.9-0.1-1.2c-0.3-1,1.1,1.3,1,0c0.2,0.2,0.2,0.6,0.3,0.9c0-0.2,0.1-0.3,0-0.4l-3.6-4.6c0.1,0.4,0.2,0.4,0.7,1.1
							l-0.7-0.1c0.7,0.3,1.2,1,1.6,1.6c0.3,0.1,0.6,0.3,0.8,0.3l0.2,0.6c-0.2-0.1-0.4-0.3-0.7-0.6c0,0.1,0.1,0.1,0.1,0.2
							c-0.4-0.1-0.8-0.5-1.1-0.9c0.2,0.1,0.4,0.2,0.6,0.2c-0.4-0.4-0.9-0.9-1.3-1.2c0.1,0.1,0.1,0.2,0.1,0.3
							c-0.1-0.1-0.2-0.2-0.3-0.3c-0.1-0.1,0.1,0.1,0.2,0.3l-0.9-0.6l0.3,0.3h-0.8c0.6,0.9,1.6,2.2,1.6,2.9c-0.5-0.6-1-0.9-1.7-1.5
							c0.9,0.5,0-0.6,0.3-0.7c-0.2,0.1-0.5-0.3-0.6-0.4l0.4,1c-0.6-0.5-0.5-0.3-0.8-0.4c1.2,0.9,0.5,1,0.7,1.4
							c-0.4-0.3-0.7-0.7-0.5-0.8c-1-0.5,1.1,1.4,0.2,1c0-0.1,0.1,0-0.1-0.2c0.2,0.4-0.3,0.4-0.5,0.1v-0.1c-0.4,0.2-0.9,0.9,0,1.9
							c-0.1-0.1-1.1-1.1-1.2-1.3c0.9,1.2,1.7,2.4,2.5,3.6c-0.7-0.8-2.7-2.5-2.9-3.2c-0.2,0-0.4-0.1-0.3,0.3c0.2,0.1,1.2,1,1.2,1.1
							c-1-0.7-0.6-0.3-1.5-0.9c0.2,0.1,1.3,1.4,1.2,1.5c-0.2-0.2-1.2-1.2-1.3-1.4l0.9,1.5c-0.1-0.3-1-1.1-1.4-1.3
							c0.3,0.2-0.3,0.2-0.2,0.4l0.4,0.2c-0.5,0.1,1.3,2.1,0.8,2.3c-0.2-0.3-1.3-1.7-1.6-1.7c0.5,0.7,2.4,3.4,2.5,4.2l-0.4-0.3
							l0.1,0.6c-0.7-1.1-2-3.6-2.5-4.6c-0.4-0.2-0.4-0.4-0.6-0.2c-0.4-0.3-0.4-0.6-0.3-0.7l-0.6,0.2c0.7,0.7,0.3,1.1,0.9,1.7
							l-0.2-1.2c0.7,0.7,1.6,2.4,1.1,2.6c-0.3-0.2-1.1-1.4-1.3-1.7c0.2,0.3,0.1,0.8-0.1,0.6l-0.2-0.5c-0.4-0.1,0.5,1.3-0.3,0.7
							c-0.1,0-1-0.8-0.7-0.4c0.8,0.8,3.1,3.5,3.6,4.3c-0.1,0-1.1-0.5-1.6-0.9c-0.7-0.6-1.1-1.8-1.7-2.4c0.2,0.2,0.3,0.5,0.3,0.7
							c-0.2-0.1-0.5-0.7-0.6-0.5c0.6,0.8-0.4,0.2,0.4,0.7c0,0.4-0.3,0-0.5,0.2c0.5,0.5,1.2,1.9,1.2,2.3c-0.1-0.2-0.4-0.5-0.5-0.6
							c-0.4,0.2-0.9,0-1.3,0.2c-0.2-0.2-0.5-0.3-0.7-0.7c0.1,0.2,0.2,0.5,0.1,0.6c-0.7-0.6,0.2-0.3-0.6-1c0.3,0.5,0.2,0.9,0.3,1.3
							c0.6,0.7,0.5-0.1,0.4-0.5c0.7,1,1.2,2.3,1.2,3.1c-0.1,0.5-0.6-0.6-0.6-0.4c-0.7,0.2,0.8,2.2-0.2,1.7c-0.6-0.5-0.9-1.3-1.3-1.8
							c0.1-0.4,0.7,0.2,0.8,0l-0.4-0.2c-0.1-0.3,0-0.6,0.2-0.4c-0.6-0.5-1,0.5-1.9,0.3c0.1,0.3,0.1,0.6,0.3,0.8l0.1-0.2
							c0.5,0.5,0.2,0.9,0.6,1.1c0.1,0.5,0.2,1.2-0.2,1.1l-0.6-0.7c0.2,0.2,0.5,0.3,0.4,0.1c0.1,0.4-1.1-0.8-0.6,0.3l0.5,0.4
							c0.1,0.5,0.3,1.5-0.1,1.4c0.6,0.7,0-0.1,0.7,0.7c-0.9-1,0.7-0.4-0.3-1.4c0.9,0.9,0.6,0.2,1.4,1c-0.2-0.2-0.4-0.4-0.1-0.4
							c0-0.1-0.1-0.2-0.1-0.3l0,0l0,0c0,0,0-0.1,0,0c-0.1-0.1-0.2-0.2-0.4-0.3c-0.3-0.6,0.1-0.8,0-1.2c0.2,0,0.1,0.3,0.4,0.5
							l-0.1-0.6c0.4,0.5,0.9,0.7,0.9,1.2l0.3-0.1c0.4,0.2,0.7,0.2,0.6-0.1c0.2,0-0.1-0.8,0.1-0.3l0.2-0.6l0.1,0.1
							c0.4-0.2,0.2-1.5,1.3-0.8c0-0.2,0-0.5,0.4-0.5l0.4,0.4c0-0.3,0.9,0.1,0.6-0.5c1.1,1.1,1-0.3,1.5-0.4l-0.5-0.6
							c0.2-0.1,0.3-0.5,0.3-0.9l-0.4-0.5c-0.1-0.6,0.8-0.1,1.1-0.4c0.1,0.2,0,0.2-0.1,0.2c1.4,0.8,0.1-1.5,1.2-1
							c-0.1-0.3,0-0.3,0.2-0.2l0,0l0,0c0.1,0.1,0.2,0.1,0.4,0.2c-0.1-0.1-0.3-0.2-0.3-0.2c0.1-0.1,0.1-0.2,0.1-0.4l0.5,0.5l0,0
							c0.3,0.1-0.2-0.3-0.6-0.7c0-0.1-0.1-0.3-0.2-0.4c0.9,0.8,0-0.5,0.9,0.3c-0.3-0.5,0.2-0.8-0.6-1.8c0.1,0.1,0.2,0.1,0.2,0.2
							c0.2,0,0.4,0,0.3-0.3l0.7,0.6l-0.6-1.1c0.5,0.3,0.8,0.4,1.2,1.1c-0.4-1.1,0-0.6-0.5-1.6l0.4,0.4c0.1-0.1-0.3-0.8,0.1-0.6
							c1,0.5,1.2-1,2.5-1c-1.4-1,0.8,0.2-0.2-0.7c0.3,0.2,0.6,0.3,0.8,0.6c0-0.6,0.9-0.1,0.2-1c0.4,0.2,0.4,0.4,0.6,0.6
							c0-0.1-0.2-0.3,0-0.2c0.2,0.1,0.2,0.3,0.3,0.4c0.2-0.4-0.8-1.2-1.7-2c0.6,0.2,0.6,0,0.1-0.6c0.4,0.2,0.8,0.3,0.7,0.6
							c0.1-0.1,1-0.4,0.3-1c0.2,0.1,0.2-0.1,0.1-0.2l-2-4.8l-0.3,1.8c0,0,0,0,0,0.1c-0.3,0.1-0.4,0-0.6,0.2l0.1,0.1
							c0.3,1.1-0.1,0.3-0.3,0.5v-0.1c-0.8-0.6-0.1,0.5-0.9-0.2l0.3,0.7c0.5,1.5-0.8-0.7-0.9,0l0.2,0.4c0,0.6-1.1-1.8-1.4-2
							c-0.1-0.1,0-0.2,0-0.3c-0.7-0.7,0.2,0.9,0,1.2c-0.2-0.5-0.3-1.3-0.6-1.3c-0.2-0.4-0.1,1.8-0.7,0.9c0.2,0.4,0.4,0.7,0.3,1
							c-0.2,0.2-1-1.2-0.9,0c-0.1-0.1-0.1-0.2-0.1-0.3c-0.1,0.4-0.4,0.7-0.4,1.3c-0.8-2.4-0.8,1.5-1.4-0.7l-0.5,0.3v-0.2
							c-0.4-0.1-0.4,0.5-0.4,1.1c-0.1-0.1-0.1-0.4-0.1-0.5c-0.6-0.3-0.6-0.2-0.8,1l-0.2-0.7c0,0.4-1-1-1.3,0c0-0.1,0-0.2,0-0.3
							c-0.4,1-1.7-1.8-1.5,0.9l-0.3,0.7c0.5,0.1,0.1,1.2,0.4,1.6c-0.2,0.2-0.7-0.7-0.4-0.9l0.1,0.1c-0.1-1.4-0.7-0.4-0.8-1.3
							c-1,0.2-2-0.4-2.9-0.4l0.2,1.1h-0.3c-0.1-0.2-0.2-0.8,0-0.8c-0.2-0.6-0.3,0.6-0.3,0.8c-0.5-0.4,0-1.3-0.1-1.3l-0.2,0.1
							l0.1,0.1c-0.1,0.5-0.1,0.9-0.4,0.9c-0.2-0.2-0.2-0.7-0.2-0.7c0-0.1,0-0.1-0.1,0l-0.4-0.1l0.2,0.8c-0.1,0.4-0.4,0-0.1,1
							c-0.4-1.5-1.6-0.4-1.8-0.9c-0.2,0.6-0.5,0.7-0.8,0.6c0.1,0.2,0.2,1.1-0.1,1c0-2-0.5-0.9-0.8-2.3c0.2,1-0.7,0.3-0.4,1.6
							c-0.2-0.2,0-0.8-0.2-1.2c-0.5,0.8-1.2-0.5-1.8-0.2c0,0.3,0.1,0.7,0,1.1l-0.3-1.3c-0.1,0.1-0.1,1.5-0.4,0.6
							c0,0.2,0.1,0.6,0,0.6c-1.2-1.3-2.7,1-3.8-1.5c0.1,0.5,0,0.6-0.1,0.6c0.1,0.1,0,0.6-0.1,1l-0.5-1c-0.2,1-0.6,0-0.7,1l0.2-0.2
							c-0.3,1.1,0.1,2.5,0,3.9c0.4-1.2,0.6,1.9,1.2,0.2c0.1,0.3-0.1,0.5-0.1,0.8c0.2-0.6,0.3-0.7,0.5-0.4v0.2c0.7-0.1,1,0.5,1.8,1
							v-0.7c0.2,0.1,0.2,0.3,0.3,0.5c0.2-1.1-0.5-0.1-0.3-1.3c0.2,1.5,1.2,0.1,1.3,1.7c0.3,0-0.1-0.8,0.2-0.8l0.1,0.4l0.1-0.6
							c0.2,0.1,0.3,0.7,0.3,1c0,0-0.1,0.1-0.2,0.1c0.2,0.5,0.7-0.2,0.7,0l-0.3-0.3c0.7-0.4,1.7,0.2,2.3-0.8l-0.1-0.3
							c0.5-0.6,0.4,0.4,1,0v0.1c0.1-0.3,0.3-0.5,0.4-0.5c-0.1,0.4,0.3,0.7,0.1,1.2c0.6-0.7,0.3-0.5,0.6-1.8l0.1,0.5
							c0.1-0.5,0.1-0.8,0.4-0.9c-0.2,0.5,0.2,0.8,0,1.5c0.7,1.2,0.8-1.3,1.3,0.5c0.2-1.6-0.6-0.8-0.5-1.1c-0.2-0.5,0.1-1.2,0.3-1
							c0.2,0,0.5,1.9,1,1.9c-0.1,0,0,0.1-0.1,0.1c0.2,0.4,0.3-0.6,0.6,0.1c0-0.9,0.3,0,0.2-1.2l-0.4,0.3c0.2-0.3,0.3-1.7,0.8-1.1
							c0,0.2-0.1,0.6-0.2,0.8c0.2,0.3,0.2-0.3,0.4,0.1c0.1,1.2-0.5,0.3-0.7,1.3c0.2,0.5,0.4-0.9,0.4,0.4c0-1.7,0.5,0.1,0.7-1.1
							l0.1,0.7c0-0.1,0.1-0.5,0.2-0.5l-0.1,0.9c0.2-0.8,0.6,0.6,0.8,0.2c-0.6,0.1-0.2-0.8-0.5-1.3c0.5-1,0.6,1.8,1.4,1.3
							c-0.1,0.1-0.5-0.4-0.3-0.7c0.2,0.1,0.4,0.4,0.5,0.7c0.5-0.2-0.2-0.7,0-1.2c0.3,0.8,0.2-0.4,0.4-0.7l0.1,0.7
							c0.6,0.4-0.1-1.5,0.5-1l-0.1,1l0.2-0.3l0.1,0.8c0.2-0.7,0.3-0.5,0.6-0.3c-0.2-0.5-0.2-1.3,0.1-1.4c0.2,0.4,0,0.7,0.4,0.5
							c0,0.5,0,1-0.3,0.4c0,0.2,0,0.5,0,0.7c0.3,0.5,0.5,0,0.6,0c-0.1,0-0.1,0-0.2-0.1l0.3-1.1c0.1,0.3,0.1,0.5,0.1,0.7
							c0.1-0.1,0.1-0.4,0.2-0.5c0.1,0.6,0.2,1.2,0,1.5l0.4-0.7c0.1,0.2,0.4,0.6,0.4,0.9c0.4,0.3,0.4-1.3,0.9-0.9
							c0-0.1,0-0.2,0.1-0.3c0.4,0.1,0.8,0.7,1.1-0.2l0.5,1c0.3-0.3-0.6-1.2-0.2-1.7c0.3-0.4,0.4,0.8,0.6,1.1
							c0.1-0.6,0.1-1.7,0.7-0.9C551.1,319.4,551,319.3,550.9,319.4z M554.6,317.9c0,0.2,0,0.7-0.2,0.3
							C554.2,317.3,554.4,317.7,554.6,317.9z M555.2,313.9c-0.2-0.2,0-0.2,0.3-0.1C555.4,313.9,555.4,313.9,555.2,313.9z
							 M546.4,328.4L546.4,328.4C546.7,328.5,546.6,328.4,546.4,328.4z M545.9,328.3c0,0.1,0.1,0.2,0.2,0.3c-0.1-0.2,0-0.2,0.1-0.2
							C546,328.2,545.9,328.1,545.9,328.3z M539.2,314.7l0.1,0.2C539.2,315.1,539.2,314.9,539.2,314.7z"/>
						<path class="st0" d="M554.7,312.8c0.1,0.1,0.2,0.1,0.3,0.2C555,312.9,554.9,312.8,554.7,312.8z"/>
						<path class="st0" d="M548.6,320.4C548.5,320.4,548.5,320.4,548.6,320.4v0.1V320.4z"/>
						<path class="st0" d="M546.6,320.3c0.1,0,0.2,0.1,0.3,0.2C546.8,320.3,546.7,320.2,546.6,320.3z"/>
						<path class="st0" d="M545,330.4l0.1-0.3c-0.1,0.1-0.2,0-0.3-0.1C544.9,330.2,545.1,330.3,545,330.4z"/>
						<path class="st0" d="M541,327.7c0,0.1-0.1,0,0,0.1l0.2,0.3C541.3,328,541.2,327.7,541,327.7z"/>
						<path class="st0" d="M543.5,328.5c-0.3-0.5-0.3-0.3-0.4-0.1l0,0C543.6,329.1,543.6,328.8,543.5,328.5z"/>
						<path class="st0" d="M543.1,328.4l-0.1,0.1C543.2,328.8,543.1,328.6,543.1,328.4z"/>
						<path class="st0" d="M545.8,328.9c-0.1-0.1,0.4,0.7,0.2,0.5C546.4,330.1,545.9,328.3,545.8,328.9z"/>
						<polygon class="st0" points="542.4,326.9 542.8,327.5 542.6,326.9 						"/>
						<path class="st0" d="M543.7,326.7h-0.3c0.1,0.1,0.1,0.2,0.1,0.3C543.6,326.8,543.8,326.8,543.7,326.7z"/>
						<path class="st0" d="M543.4,326.9c-0.1,0-0.1,0.1-0.1,0.2C543.4,327.1,543.4,327,543.4,326.9z"/>
						<polygon class="st0" points="542.5,326.5 542.7,326.6 542.8,326.5 						"/>
						<path class="st0" d="M545.9,325.3l0.1-0.3c-0.1-0.2-0.3-0.3-0.3-0.2C545.8,325,545.8,325.1,545.9,325.3z"/>
						<path class="st0" d="M544.1,324.1c0.1,0.1,0.2,0.2,0.4,0.4l-0.5-0.8L544.1,324.1z"/>
						<path class="st0" d="M544.6,323.4c-0.1-0.2-0.1-0.8-0.4-0.6C544.4,323.1,544.3,323.4,544.6,323.4z"/>
						<polygon class="st0" points="548.5,322 548.4,322.1 549.4,323.3 						"/>
						<path class="st0" d="M548.7,317c-0.5-0.1,0.6,0.7,0.1,0.6c0.2,0.3,0.4,0.1,0.6,0.4C549.2,317.6,549.5,317.7,548.7,317z"/>
						<path class="st0" d="M549.4,318c0,0.1,0,0.1,0.1,0.2C549.4,318.2,549.4,318.1,549.4,318z"/>
						<polygon class="st0" points="527.4,314 527.3,313.7 527.4,314.2 						"/>
						<path class="st0" d="M527,315.1v-1l-0.2,0.9C526.9,314.9,527,314.9,527,315.1z"/>
						<path class="st0" d="M555.8,319.6l-0.1-0.2c-0.1-0.2-0.2-0.2-0.3-0.2L555.8,319.6z"/>
						<polygon class="st0" points="552.7,319.7 552.8,319.7 552.5,318.9 						"/>
						<path class="st0" d="M550.6,321.4c0.1,0,0.2-0.2,0.3-0.2C550.7,321.4,550.3,320.4,550.6,321.4z"/>
					</g>
				</g>
			</g>
		</g>
	</g>
</g>
<text transform="matrix(1 0 0 1 564.6221 476.5145)" class="st0 st5 st6">TM</text>
</svg>
