<svg xmlns="http://www.w3.org/2000/svg" viewBox="0 0 596.2 558.5"><defs><style>.cls-1,.cls-3{fill:#fff;}.cls-2,.cls-3{isolation:isolate;}.cls-3{font-size:15px;font-family:MyriadPro-Regular, Myriad Pro;}</style></defs><title>Asset 3</title><g id="Layer_2" data-name="Layer 2"><g id="Layer_1-2" data-name="Layer 1"><path class="cls-1" d="M394.2,556.3c-2,.3-.9,1.8-1.2,2.2C396.2,557.3,394,555.9,394.2,556.3Z"/><path class="cls-1" d="M424.4,543.5l-.3.8,1.9-1.6c.6-.5,1.3-1.1,1.9-1.7l-1.7,1.3Z"/><path class="cls-1" d="M451.7,530.9c-1.9-.6-4.2.9-6.8,2.5s-5.3,3.6-8,4.3l-1.1-.2-1.3,3c3-1.4,6.1-3.5,9.2-5.3,1.5-.9,3-1.8,4.3-2.5A24.58,24.58,0,0,1,451.7,530.9Z"/><path class="cls-1" d="M468.9,528c-1.5-.4,2.5-2.7-3.4,1.7a2.25,2.25,0,0,1,.7-.1A15.6,15.6,0,0,1,468.9,528Z"/><path class="cls-1" d="M466.2,529.6c-2.8,1.8,2.3-.3,0,0Z"/><path class="cls-1" d="M478.3,520.8l-2.9,3.3c1.1,0,4.3-2,3.4-.8C482.1,520.3,481,520.3,478.3,520.8Z"/><path class="cls-1" d="M480.4,516.8l-1.6,1.6C479.3,518.4,479.9,518.1,480.4,516.8Z"/><path class="cls-1" d="M475.5,521.8l3.3-3.4c-.8,0-1.4-.7-1.6,1.5C477.1,519,476.8,520.2,475.5,521.8Z"/><path class="cls-1" d="M473.1,522.9c-2.3.9-5.1,2.2-2.1-1-.8.6-1.5,1.2-2.1,1.6s-1,.9-1.3,1.2c-.6.7-.8,1.1-.5,1.2s.9,0,2-.5a18,18,0,0,0,1.8-1A12.31,12.31,0,0,0,473.1,522.9Z"/><path class="cls-1" d="M451.6,527.6l-3.1.8c-.6.7-1.3,1.4-1.9,2.1C447.6,529.4,452.2,528.3,451.6,527.6Z"/><path class="cls-1" d="M500.2,505.5c-.2-.6-2.2-.3-2.9-.7l-1.9,2.6C496.8,506.7,499.4,505,500.2,505.5Z"/><path class="cls-1" d="M497.2,504.8c1-1.3,1.9-2.5,2.9-3.8C496.9,503.6,496.6,504.5,497.2,504.8Z"/><path class="cls-1" d="M479.1,513.8c-1.6,2.1-3.3,4.1-5,6.2l3.1-3.5,1.5-1.7,1.5-1.8Z"/><polygon class="cls-1" points="513.4 493.2 512.5 496.1 514.3 491.2 513.4 493.2"/><path class="cls-1" d="M521.4,484.3c-.5,2.3,3.3-.7,2.4,1.3a32.73,32.73,0,0,0,4.1-7.8A19.07,19.07,0,0,1,521.4,484.3Z"/><path class="cls-1" d="M529.6,473.7a31.91,31.91,0,0,0-1.6,4.1A25,25,0,0,0,529.6,473.7Z"/><path class="cls-1" d="M506.1,495.8a5.66,5.66,0,0,0,3.9-1.3h-2.5C507.1,494.9,506.6,495.3,506.1,495.8Z"/><path class="cls-1" d="M507.4,494.5h0c1.6-1.3,2.5-2.3,3-2.7C510,492.1,509.2,493,507.4,494.5Z"/><path class="cls-1" d="M505.8,496.1l.3-.3C505.9,495.8,505.8,495.8,505.8,496.1Z"/><path class="cls-1" d="M489.7,507.6c1.5-2.5,5.1-6.9,0-4.5C489,505.2,491.9,503.8,489.7,507.6Z"/><path class="cls-1" d="M502.6,496.1l-3.9,3.1c.4.3,1.5.1.8,1.4Z"/><polygon class="cls-1" points="504 494 502.6 496.1 504.1 494.9 504 494"/><path class="cls-1" d="M522.8,479.2a34,34,0,0,1,3.9-6c-2,2-4.1,4.1-6,6.2C520.9,480,520.8,481.5,522.8,479.2Z"/><path class="cls-1" d="M515.4,486.7c.1-.1.2-.3.3-.4C515.3,486.4,515.1,486.6,515.4,486.7Z"/><path class="cls-1" d="M542.3,452.3c-.2.1-.3.1-.5.2.1.1.1.2.2.2Z"/><path class="cls-1" d="M520.2,479.5a7.22,7.22,0,0,0-2.6,3.9,50.87,50.87,0,0,1,3.2-4C520.7,479,520.6,478.9,520.2,479.5Z"/><path class="cls-1" d="M533.5,467.5c-1,.7-2,1.5-3.1,2.3C531.6,469.3,533.6,468.1,533.5,467.5Z"/><path class="cls-1" d="M516.5,486.1c-.1.1-.1.2-.2.3C517.1,486.1,516.9,486.1,516.5,486.1Z"/><path class="cls-1" d="M516.5,486.1a11.26,11.26,0,0,0,1.2-2.8c-.7,1.1-1.5,2-2,3A1.88,1.88,0,0,1,516.5,486.1Z"/><path class="cls-1" d="M537.3,439.9c1.2,1.1-.6,6.5-4.6,9.4-1.6,4.5,4.4,5,9.1,3.2-.5-.5-1-.9.9-5.4-1.7,1-7.6,7.8-6.5,3.6,2.8-5.7,3.3-4,5.7-6.2-1.6.6-1-1.5-.6-3.8s.8-4.8-.8-4.9l-1.9,5.2C538.1,440.9,538.5,438.8,537.3,439.9Z"/><path class="cls-1" d="M536.3,460l-1,1.7c1.6-1.7,3.1-2.6,5.9-4.4,1.2-3.2,1.1-4.2.8-4.6-1,1.3-1.9,2.7-2.9,4.1l-3,3.9Z"/><path class="cls-1" d="M529.8,468.9c-.3-2.3,2-6.5-1.3-5.3-3.5,4.6-1.4,4.1-3,7.3,5.6-7.6-1,2.7,4.1-2a35.79,35.79,0,0,1-2.9,4.3c1.2-1.2,2.5-2.3,3.7-3.4-.1,0-.1.1-.2.1h0c-.4.2-.6.2-.2-.1a.35.35,0,0,0,.1-.2c-.2-.1-.2-.4-.3-.7,2-1.9.6-.1.2.7a.35.35,0,0,0,.1.2h0l2.6-4,2.4-4.1C533.9,463.2,532.5,465.3,529.8,468.9Z"/><path class="cls-1" d="M491.1,497a.4.4,0,0,1,.5.1C491.9,496.6,492,496.3,491.1,497Z"/><path class="cls-1" d="M494.7,495.3a4.9,4.9,0,0,1-2.1,2.8c-1.8.8-.5-.6-1-1-.7,1.2-2.7,3.9,1,1.9l.3-.6a17.07,17.07,0,0,1,2.7-1.4c.9-.4,1.8-.8,2.6-1.2,1.6-.6,2.8-.9,2.6-.6A15.75,15.75,0,0,0,494.7,495.3Z"/><path class="cls-1" d="M512.6,482.5a37.12,37.12,0,0,0,2.3-3.2l2.3-3.2-3.7,2,.8.5c-1.6,1.5-2,2.3-2.1,2.8S512.5,482.1,512.6,482.5Z"/><polygon class="cls-1" points="543.5 452 544.4 453.9 544.8 448.6 543.5 452"/><polygon class="cls-1" points="548.9 443.1 550.1 444.3 550.6 441.4 548.9 443.1"/><path class="cls-1" d="M350.3,17.8l-2.2.3C349.1,18,349.8,17.9,350.3,17.8Z"/><path class="cls-1" d="M366.1,19.4l.5-.7C365.8,19,365.4,19.3,366.1,19.4Z"/><path class="cls-1" d="M584.3,198.9c.6-3.6,1.9-7.9.3-7.1l-1.4,1.5A16.62,16.62,0,0,1,584.3,198.9Z"/><path class="cls-1" d="M486.7,61.7c.1.3.2.7.3,1.1,1,.2,1.9.4,2.7.5C488.8,62.8,487.8,62.3,486.7,61.7Z"/><path class="cls-1" d="M479.9,64.9c-.7-1.3-1.4-2.6-2.1-3.8C478.2,62,478.9,63.2,479.9,64.9Z"/><path class="cls-1" d="M264.4,24.9l-2.1,2.2C266.2,26.4,264.3,25.8,264.4,24.9Z"/><path class="cls-1" d="M585.9,344.8a33.23,33.23,0,0,0,2.3-7C586.6,341.1,584.6,343.6,585.9,344.8Z"/><path class="cls-1" d="M358.2,0q-2.1.3-2.1.9C357.6.6,358.4.4,358.2,0Z"/><path class="cls-1" d="M589.6,329.5,589,331c0,1.1,0,2.2-.1,3.3a27,27,0,0,1-.6,3.6,22.56,22.56,0,0,0,1.5-3.9A11.4,11.4,0,0,0,589.6,329.5Z"/><path class="cls-1" d="M49.6,227.6c-.1.2-.3.4-.4.6C49.4,228.3,49.5,228,49.6,227.6Z"/><path class="cls-1" d="M16.7,317c-.1-1,0-2.5,0-4A16.78,16.78,0,0,0,16.7,317Z"/><path class="cls-1" d="M568.5,406.4c-.7,2.1.1.4,0,0Z"/><path class="cls-1" d="M558,413.3a1.25,1.25,0,0,0-.4-1.1A1.5,1.5,0,0,1,558,413.3Z"/><path class="cls-1" d="M581.4,307v-.2C581.1,307.4,581.1,307.3,581.4,307Z"/><path class="cls-1" d="M566.5,409.1a25,25,0,0,0,1.6-2.4C567.8,407.1,567.3,407.8,566.5,409.1Z"/><path class="cls-1" d="M567.4,409c-.4.7-.6,1.2-.9,1.7C566.7,411.1,566.9,411,567.4,409Z"/><path class="cls-1" d="M569.7,403.6a23.87,23.87,0,0,1-1.6,3.2c.3-.3.4-.5.4-.3C568.8,405.8,569.1,405,569.7,403.6Z"/><path class="cls-1" d="M132.1,82c-.1.1-.3.1-.4.2C130.7,84.1,131.2,83.4,132.1,82Z"/><path class="cls-1" d="M549.2,152.9l.2.2c0-.1-.1-.2-.1-.3Z"/><path class="cls-1" d="M544.7,147c3.3,1.8,4,3.4,4.6,5.8,1.2-1.5,2.3-2.9,3.4-4.4C550,147.9,547.4,147.4,544.7,147Z"/><path class="cls-1" d="M312.4,17.8c1.7.4,3.5.9,5.2,1.3-6.1,2.8-10.6,2.2-5.7,4.1.2-2.7,5.2-3.2,10.2-3.3,5-.3,10-.2,10.4-3l3.4,1.2c-1-.1-1.1.3-2.1.2a6,6,0,0,0,3.7.6,6.29,6.29,0,0,0,2.4-1.3,8.53,8.53,0,0,1,7.6-1.9c3,.6,5,1.6,2.9,2.1,2.2-.3,4.5-.6,6.7-.8,1.9.3,1.4,1.2-.5.9,3.4.2,6.8.3,10.1.7l-.1.1a47.17,47.17,0,0,1,6.7-1.9c2.5,1.1-1.4.4-.8,1.2,1.9-.2,3.9-.3,5.8-.5,1,.9.3,1.5-1.1,1.7a17.1,17.1,0,0,1-5.5-.1c2.2,3,3.4,2.9,5.4,2.6a14.45,14.45,0,0,1,3.8-.2,18.59,18.59,0,0,1,2.8.5,19.28,19.28,0,0,1,3.5,1.5c-1.8-.1-3.5-.3-5.3-.3a10.77,10.77,0,0,0,5.2,3.4,39.77,39.77,0,0,1,7.2,3c-.3-.3-1.1-.9-2-1.7a33.57,33.57,0,0,1-2.9-2.4c-1.8-1.6-2.6-3.1.5-3.2a11,11,0,0,0,2.9.9,15,15,0,0,0,4.3.1c-.4,1.9,2.8,2.1,6.8,3l-.9,2.4c4.3.4,4.3-1,7.1-1.5,4.6,1.5,5,3.8,5.6,5.7,7.2,2.5-4.2-4.5,4.7-2.4a31.08,31.08,0,0,0,8.4,2.9c2.8.6,5.9,1.1,9.8,1.7,3.9,2.5-1.3,1.2-.1,2.4l4.4-.4c.9.4.4.9.1,1.1a2.14,2.14,0,0,0,2.5-.8,2.7,2.7,0,0,1,1.2-.5,5.45,5.45,0,0,1,2.6.4c1.2-1,3.1,1,5.3,3.5a41.73,41.73,0,0,0,3.6,3.7,10.91,10.91,0,0,0,4.5,2.4c.8,1.5-1.6.8-1.8,1.8,2,.8,3.4,1.7,4.5,2.2s1.9,1,2.7,1.4a21.66,21.66,0,0,0,2.6,1.2,17.08,17.08,0,0,0,1.8.7l2.3,1,1.6,2.8,1.6,2.9c-.9-2.3.1-2.8,1.9-2.4a15,15,0,0,1,3.3,1.2c1.2.6,2.5,1.2,3.7,1.9-.5-1.9-.8-3.5-1.2-4.5,2.3,1.8,4.5,3.6,6.8,5.4.4,1-.9,1-2.6.7a6.56,6.56,0,0,0,1.5.7c1.3,2.9-.8,2.7-3.3,2l-.9-3.3c-2.6-.5-5.1-.7-5.9.6a8.21,8.21,0,0,1,2.4,1.6c-.7-.1-1.2-.1-1.2.2s1,.6,2.4,1.2l-.8,3.3,1.2-.4,6,9.5c7.5,4,15.2,6.6,25.1,14.5-3.6-.7-2.8,2-4.7,3.7-.2-2.1-2.3-3.7-4.8-5.4s-5.3-3.6-7.4-6.2c2.2,2.7.8,3-.1,2.6,3.3,2.4,6.7,4.7,10.2,7-.8.6-.6,1.4,0,2.3s1.5,1.9,2.2,3.2c1.2-4.4,7.9,4,11.7,6.8-.8,1.1-2.6,1.2-6-3.2,1,3.3,3.1,4,5.3,4.7a11.32,11.32,0,0,1,3.2,1.3,3.74,3.74,0,0,1,1.3,1.2,5.28,5.28,0,0,1,.9,2c-.9-1.1-1.1-1.8-2-1.8,2.9,1.8,7,8.6,4.9,7.8l-.9-1.1c.6.9,1.4,2,2.2,3.1l2.4,3.6c.9,1.2,1.8,2.5,2.7,3.8.5.6.9,1.2,1.4,1.9s.9,1.3,1.3,1.9a49.64,49.64,0,0,0,5,6.1,14.59,14.59,0,0,0,2,1.8,2.9,2.9,0,0,0,1.6.6,18,18,0,0,1-5,.8c5.8,2.9,11.9,6,17.7,9.6-1.6-.1-3.4,1.9-5.4,3.1s-4.2,1.6-6.5-1.4a21.07,21.07,0,0,0,4,8.5c-.2-1.5,2.3-5.1,3.4-3.3-.1,1.6-.3,2.7-.3,3.5a13.28,13.28,0,0,0,0,2,53,53,0,0,1,.3,6.2c-.1-1.1,1.1-1.6,2.5-1.3a4.74,4.74,0,0,1,3.6,3c-.8-.3-4.1,1.8-5,.8,2.4,2.2,4.7,4.5,7.1,6.8-1.5-1.8-3.7.9-4.3,3.1.6-1.2,2.1,7.2,3.2,9.3l-.1-3.8a14.35,14.35,0,0,0,2.3,5.4,19.52,19.52,0,0,0,3.1,3.3,25.14,25.14,0,0,1,3.2,3.3,12.62,12.62,0,0,1,2.3,5.6c-1.2-1-6.2-1.6-5.7,3.4a66.44,66.44,0,0,1,7.9,5.6,29.2,29.2,0,0,1,8.2,11,18.58,18.58,0,0,1-1.1,1.9l2.4,6.7c-1-1-2.3-2.4-3.7-4s-3-3.5-4.7-5.5-3.3-3.9-4.7-5.7c-.7-.9-1.4-1.8-2-2.7s-1.3-1.6-1.8-2.3c-.3,3.8-1.3,1.3-.2,6.7-.9,2.1-2.3-2.6-2.7-4.2.5,4.2.9,8.5,1.3,12.7,2.6-1,3.9,9.4,6.1,8.6l-2.3-6.8c-.4-1.1-.7-2.3-1.2-3.4l-1.3-3.3c1.3-.5,3.5,1.2,5.5,4.2a24.63,24.63,0,0,1,2.6,5.4,16.81,16.81,0,0,1,.9,3.2,13.17,13.17,0,0,1,.4,3.4c-.8,2.5-4.9-1.3-5.8-1,1,1.1,2.6,8.5,2,9.4l-1.8-3.7c-.3,2.6.8,4.6,1.7,6.7s1.5,4.5.3,7.6c0,2.1-3.2,6.4-1.6,6.7,3-3.5,12.5-4.6,14.8-2.3-.2.8-2.6,11.6-4.3,14-2.4,3.5-5.7-5.3-7.8-2.3.7.1,1.6,2.1,1.9,2.9-.7,2.2-2.3-.9-2,3.9,2.8.9-.5,9.9,2.3,2.4.6,4.8-.8,5.1-.9,10.7.9-.8,2.4.5,3.6,2.7a21,21,0,0,1,2.4,7.7c-.7-.3-1.7.7-2.1,1.2-.2,2.5-.7,4.6-1,6.6s-.8,3.9-1.1,5.7c-.8,3.6-1.7,7.2-2.4,11.7-.7.7-2.4,4.9-3.2,2.9.2,1.4.9,2.7.5,5.5-3.3,4.9.8-6.2-2.8-2.7.7.3,1,2.2,1,4.5s-.2,5.1-.1,7.2c1.3-.3,2-2.6,2.2-5.3a67.49,67.49,0,0,0-.1-7.9c3.3.5,5.7,8.2,5,18.1-.4,3.9-1.2,4.6-1.8,4.5s-1-1-.9-.3a28,28,0,0,0-1.1,13.4,18.29,18.29,0,0,1,.1,4.7,18.66,18.66,0,0,1-2.5,6.5c-3.6,3.9-4.1-1.2-5.9-.6a24.16,24.16,0,0,1,1.2-4,23.74,23.74,0,0,1,1.5-3.2,29.74,29.74,0,0,0,2.7-5.7l-2.5,4.7c-.1-2.1.6-6.3,1.8-8.3a19.77,19.77,0,0,0-2.4,5.2c-.5,1.2-.9,2.6-1.4,4.2s-1,3.1-1.6,4.8c-1.2,3.3-2.4,6.8-3.7,10.1a89.23,89.23,0,0,1-4.2,8.7c-.1,2.1-.8,5.5.7,4.4a33.82,33.82,0,0,0,1.1-3.4c1.4-1.2,1.4.6,1.2,2.2s-.4,3,.9,1.1c-.8,4.8-1.1,10.7-5.1,16.3l-2.8.1c.7.2,3.2-3.3,3.4-5.4-.1,1.5-2,3.5-3.7,5.6a16,16,0,0,0-2.1,3.2,4.51,4.51,0,0,0-.4,3.2c1.2-1.1,2.5-2.2,3.7-3.4-.2,1.2-.5,2.5-.8,3.9l-.9,4.2a21,21,0,0,1-3.7,8.2c1.8-.6,1.9-.9,2.1-1.4s.7-1.1,2.9-2.3c-4.9,1.6,7.5-13.7,1.4-10.1a11.27,11.27,0,0,0,4.8-4.6,23.92,23.92,0,0,1,4.9-5.8c-.8-.2-2.2,1.3.2-3.3a5.07,5.07,0,0,1-.2-1.3c.1-.1.1-.2.2-.3l-.2.2c0-.3,0-.3-.1.1a5.85,5.85,0,0,1-2.2,1.9c-.7-3.1,2.6-10.4,2.6-13.4,1.4-2.7.4,1.5,1.8.3l.1-4.3c.9.1,2.3-1.5,3.3-2.2s1.6-.7.8,2.8c.8-2,1.5-4,2.3-6,2.2-3.3,4.3-8.1,4.4-11.4,1.3-2.8.3-7.9.9-5,.7-3.3,1.1-6.7,1.6-10h.5c1.4-4.8,1.7-10,2.5-15.2a72.69,72.69,0,0,1,1.4-7.9,42.38,42.38,0,0,1,2.8-8,51.51,51.51,0,0,1,.2-5.4c.2-2,.5-4.2,1-7l1.7-.9a47.42,47.42,0,0,1,1.3-8.2c.5-2.9.8-5.5.1-6.5a9.68,9.68,0,0,0,2.3-5.2,47.21,47.21,0,0,0,.5-7.8v-4.2c-.1-1.4-.1-2.8-.2-4.1a52.14,52.14,0,0,1,.1-7l-2-.3c0-2.6-.2-5.1-.4-7.8-.1-1.3-.3-2.7-.5-4.2s-.5-3-.8-4.6l-1.8.5c-.9-2.7-.7-6.3-.6-10.2.1-2,.1-4.1.2-6.2a36,36,0,0,0-.4-6.5c.8.5.9,2.7.6,4.4a18.49,18.49,0,0,0,.3-8.1c-.2-1.3-.5-2.7-.8-4a30.38,30.38,0,0,0-1.2-4c-1.8-5.2-3.5-10.2-3.2-15.2a10.34,10.34,0,0,1-1.2-5.6,1.42,1.42,0,0,0,.2.6,5.76,5.76,0,0,0-.2-1c.1-1.1.2-2.2.2-3.4a16.78,16.78,0,0,0-.3,2.9,42.5,42.5,0,0,0-2.5-6.9l1.6-1.6c-.1-.2-.1-.4-.2-.6,0-2.8-1.4-1.9-2.5-.1a22.33,22.33,0,0,0-2-3.2c2.4-2.9-3-6.5-.7-10.3-1-.7-2.4-3.8-4-6.8s-3.4-5.9-5.3-5.9c.4-.2.3-1.1.8.3-.8-2.9-1.5-5.9-3.4-8l1.8-2.1c-.9-.8-1.9-1.6-2.8-2.4l-2.9-2.3c-.3-4.2-.2-6.2,3.1-3.3-1.7-1.9-2.8-3.3-3.6-4.3s-1.4-1.8-2-2.5a41.3,41.3,0,0,0-5.2-5.6l1.6-.4c-.7-1.3-2.2-2.6-3.4-4s-2.2-2.6-2.1-3.7a13.79,13.79,0,0,0-.9-3.3,35.31,35.31,0,0,0-2.2-4.3,108.86,108.86,0,0,0-7.1-10.6c-1.4-1.9-2.9-3.8-4.4-5.8s-3.2-3.8-4.7-5.7c-3-3.9-6.3-7.5-8.8-11-.5,2.8-1.5,1.1-2.8-1.2-1.2-2.1-2.6-4.5-4.1-3.5.1-1.4-.9-3.4,1.5-2.3-6.3-5-7-10-13.1-12.2.2-1.4,2.4.3,2.3-.8-.6-.3-2.5-1.3-2.5-2.4s1.5.3,2.7,1c-5.8-6.2-8.9-4.7-11.7-3-1.8-4.2-3.4-5.7-7.1-6.6-.3-1.8-1.2-4.4,2.7-.8-.5-.6-1.4-1.8-2.7-3.2s-2.7-3.2-4.2-4.7c-.8-.8-1.5-1.5-2.3-2.2s-1.5-1.2-2.1-1.7c-1.3-.9-2.3-1.3-2.8-.9-.3-1.1-3.2-3-4-3.3-5.4-4.5-5.7-5.1-11.8-8.7l1.5,1.3c-2,.6-3.3,0-4.8-1a27.07,27.07,0,0,0-2.5-1.7,15.43,15.43,0,0,0-3.4-1.7l.3-.2c-10.6-6.7-5.3-1.1-15.8-7.7v2c-.6.9-1.5.9-2.6.5a20.32,20.32,0,0,1-3.9-2.2,56,56,0,0,0-4.8-3,13.44,13.44,0,0,0-5.4-1.6l2.1,1.8c-2,.1-4.2-2-6.4-4.3s-4.4-4.8-6.2-5.5c-.7-.6,1.4-.2,2.7-.2-4.7-2.5-5.2-1.9-5.4-.9s-.3,2.4-4,1.8c-1.1-1.6,2.5-3-2.4-4.3-1.1-.9-5.1-.5-9.4-.4h-3.3c-1.1,0-2.3-.1-3.3-.2a14.58,14.58,0,0,1-5.8-1.6c1.4,1.3,2.7,2.6-.9,2.8C374,4.4,370.5,3,367,1.9s-7-1.6-9.6-.2c-.7-.4-.9-.6-.9-.9-2.1.3-5.5.4-8.7.6s-6.1.8-7.4,1.6c-1.8-3.4-8.3-2.7-14.2-1.9-5.9,1-11.3,2-11.4-1-4.2.3-8.5.6-12.7,1l.3-.6a28.65,28.65,0,0,0-8.8,1.3,18.69,18.69,0,0,0-4.7,2.5c-1.9-.2-.6-.9-.5-1.3-3,0-5.3.2-7.2.3s-3.5.4-5,.7A50.71,50.71,0,0,0,266,8.4l-1.4-1.7a11,11,0,0,1-3.9.8c-1.9.2-4.4.3-7.1.6a58.06,58.06,0,0,0-8.7,1.4,36.54,36.54,0,0,0-8.6,3,2.18,2.18,0,0,1,1-1.2,49.78,49.78,0,0,1-10.1,3.2c-3.6.9-7.2,1.5-10.6,2.2a41.25,41.25,0,0,0-8.8,2.9c-2.3,1.3-3.9,2.8-4.4,5L199.7,27l-3.6,2.6c5.2-2,5.1-1.1,4.3.2s-2.3,3,0,2.6c-3.8,2.1-11.1,2.5-6.4,0h.9c.1-1.1-.7-1.3-2-1.1-.6.1-1.3.3-2.1.5s-1.6.6-2.5,1c-3.4,1.4-6.9,3.1-7.3,1.9-9.8,5.1-19.4,10.2-28.7,15.7-2.3,1.4-4.6,2.7-6.9,4.2s-4.5,3-6.7,4.5c-4.3,3.1-8.6,6.3-12.5,9.7l3.7.6L124.4,74c-.9.4-1.8.4-1.9-.1s.4-1.6,2.4-3.2a3.93,3.93,0,0,0-2.2,1.3,13.09,13.09,0,0,0-1.7,2.4c-.9,1.7-1.4,3.4-1.2,3.7-4.1,3-4,1.8-3.1,0S119.2,74,118,75l-2.8,3.1.9-.4c-1.6,3.2-.9,4.4-5.3,8.7-1.6,1.2-2.2,1.3-2.7,1.2s-.6-.4-1.2.1c-.1-.1-.6.2-1.7,1.7-2.1,2.2-4.3,4.4-6.2,6.7,1.4-.4,2.7-.9,4.1-1.3-1.8,3.8-5.6,6.4-.9,4.9-1.7.5-4.1,2.3-6.5,4.8-1.2,1.3-2.5,2.7-3.8,4.2-.6.8-1.3,1.5-1.9,2.3s-1.2,1.6-1.8,2.5c-2.4,3.3-4.7,6.6-6.5,9.2a27.53,27.53,0,0,1-4,5.2,35,35,0,0,1-3.4,8c-1.4,2.6-3,5.2-4.8,8.1,1.3-1.2,4-.8.8,4.1-1.8-2.3-3.6-.2-5.7,2.7-1,1.5-2.2,3.1-3.3,4.6a10.88,10.88,0,0,1-3.8,3.4c2.1-1.3.3,2.5-1.2,6.1s-2.6,7.1.5,4.8c-2.5,4.2-1.9-.6-4.7,2.2-1.5,5.8-4.4,11.5-7.5,17.7-1.6,3-3,6.2-4.5,9.5a73,73,0,0,0-3.7,10.2c.6.4,2.4-1.5,2.4,1.8-2,2-3.8,4.1-5.7,6.2-.3,1.4.5,2.4.8,3.5s.3,2.4-1.6,4.6c.8-.5,1.9-1.3,1.6.6-5.7,13.3-8.4,27.7-10.7,42.1s-4,28.8-8,43.2c1.6-3.9,1.6-1.2,1.4,1.8.4-1.9,1.7.1,2.7-.2-.6,2-1.1,4-1.6,6l-1.5,6c1.3,1.1,1.4,4.4,1.4,7.5s.2,6.1,1.5,6.7l-.6-3.8c1.6,2.5,3.1.7,4.9-1.6s3.6-5.1,5.5-4.7a6.86,6.86,0,0,1-.7-4.7,48.39,48.39,0,0,1,1.5-5.7,28.06,28.06,0,0,0,.8-3.1,11.85,11.85,0,0,0,.5-3.2,13.74,13.74,0,0,0-1.1-6.8c.9-1.9,1.1,1.8,2.1.8-1.4-2.4-1.5-5.2-.4-10.2l.4.6c.3-3.6.7-6.6,1.1-9.5s1.1-5.4,1.7-8,1.4-5.3,2.2-8.2c.4-1.5.8-3,1.3-4.7s1-3.5,1.5-5.4l-2.1.8a14.25,14.25,0,0,1,2.5-5.4c-.9-2.2-1.6.1-2.1,2.5s-1.2,4.9-2.4,2.8c1.2-.9,2.1-2.9,2.8-5.4s1.5-5.4,2.2-8.3a75.76,75.76,0,0,1,2.4-7.9,12.13,12.13,0,0,1,1.5-2.8,4.28,4.28,0,0,1,1.8-1.5c1.5-5.1-2.5.9-1-4.2l1.5-1-1.1-1.7c1.2-3.3,3.2-4.5,4.2-4.3a17.57,17.57,0,0,0-.7,3.3c1.4-1.9,2.2-5,2.8-7.7s1.1-5.1,1.6-5.8c-.8,1.5-1.6,3-2.4,4.6.9-3.5,2.1-7.2,3.3-10.9.7-1.8,1.4-3.7,2.1-5.6s1.4-3.7,2.2-5.6c1.5-3.7,2.9-7.4,4.3-11,.7-1.8,1.3-3.6,1.9-5.4s1.2-3.5,1.7-5.2l-1.3.6a45.85,45.85,0,0,1,2.1-5.7,22.33,22.33,0,0,1,2-3.2,26.83,26.83,0,0,0,2.2-3.3c.4-.7.9-1.5,1.4-2.5s1.1-2.1,1.7-3.4v.5a24.27,24.27,0,0,1,1.1-4l.9-2.1,1.2-2.1c-.6,3.1,4.6-3.8,3.6.2a51.27,51.27,0,0,0,2.1-5.6,15.67,15.67,0,0,0,.6-2.3,23.06,23.06,0,0,1,.3-6l2.2-.7c.3-2.9-.1-3.5,2.9-8.6-1.7,4.7,4-1.8,2.3,3.6a30.2,30.2,0,0,0,3.1-3.1,20,20,0,0,0,2.3-3c1.3-2,2.2-3.9,3.1-5.5,1.8-3.3,3.3-5.9,6.9-6.6.2-3.4-2-1.8-3.9.4s-3.8,5-3.2,3.5c-1.4.6-1.2-.7-.4-2.7a18.7,18.7,0,0,1,3.7-5.7c2.7-3,8.3-1.9,14.8-9.1-.7.7-.5,1-1.2,1.7,3.2-2,3.9-6.2,8.3-8.3,0-3.6,4.3-3.9,2.7-6.7l-3,3.4c-1,1.1-2,2.3-2.9,3.5a24.3,24.3,0,0,0,2-3.5c.6-1.2,1.3-2.5,2.1-3.8a24.56,24.56,0,0,1,2.9-3.9,19.15,19.15,0,0,1,4.6-3.5,17.35,17.35,0,0,1-2.4,4.7c2.5-.9,3.2-3.6,5.8-4.6.7,1.4-1.2,3.4-3.6,5.6s-5.2,5-6.4,7.7c2.8-.8,5.9-8.8,6.3-4.4-.1-3,1.9-4.4,4.1-6a40.13,40.13,0,0,0,3.4-2.7,13.46,13.46,0,0,0,3-3.9l.8,1.8c.6-.9,1.7-3,3.3-4.1-.5,1.3-.8,2.7-1.2,4.1,1.4-2.5,3.8-3.6,6.2-4.7a37.27,37.27,0,0,0,3.5-1.6,11,11,0,0,0,3.1-2.2,22.93,22.93,0,0,1-4.3,2.5c-.8.3-1.1.1-1.2-.3-.3-.7-.1-2-2.3-1.2a15.91,15.91,0,0,1,5.6-4.3,9.75,9.75,0,0,1,4-.6c2.5,0,5.4.2,11.4-4-1.6,1.2-7,3-4.8.6a42.8,42.8,0,0,1,4.3-1.7,17,17,0,0,1,3.9-.7c8.3-5.2-2.3-1,.8-4a3.84,3.84,0,0,0,3.8-1.8,17.39,17.39,0,0,1,3.5-4.1l.9,1.7a19.33,19.33,0,0,0,4.8-2.5,3,3,0,0,0,.9-1.8c.1-1.1.1-2.2,5.1-3.7-1,1.4-1.9,2.8-2.8,4.3l2.2-1.5,2.3-1.4-.1,2.4c4.6-3.8,6.4-4.2,11.8-5.7-1.7-.8-.6-3.6,4.1-5.4,3.6-.1-1.2,2.4,5.4-.3-1.1,1.7-2.2,3.7-5.7,3.1-.1.7-1,1.7-1.1,2.4a20.44,20.44,0,0,0,6.1-1.6c2-.8,3.8-1.8,5-2.2a11.19,11.19,0,0,1-2.7.5c1.4-1,2.9-2,4.4-2.9l4.5-2.9c1.8.2.7,1.1-.3,2.1,1.9-.9,3-2.1,5.9-3.1-.3,1.7.3,3.2-3.6,5.2,2.9-1.5,5.9-3,8.8-4.4.8.5,5.3.5,4.2,1.4,2.7-.2,5.7-1.9,9-3.3,1.6-.7,3.3-1.5,5.1-2.1a19.13,19.13,0,0,1,5.4-1,5.35,5.35,0,0,1,2.4-1.3,42.1,42.1,0,0,1,5-.4c1.6-.1,3.3-.1,4.9-.3a31.51,31.51,0,0,0,10.6-2.4c1.6.7,3.2,1.5,4.8,2.3,6.1-1.3-6.5-2.9,3.8-5,7.3-1.5,3,2.2,5.6,2.7a38.3,38.3,0,0,1,7.1-2.9,17.38,17.38,0,0,1,9.6,0A34.88,34.88,0,0,0,312.4,17.8Zm77.1,4.5c-1.6.1-4.7.8-5.6-.6C386,19.9,387.1,21.2,389.5,22.3ZM491.8,72.9c-1.2-.4-2.2-2-3-3.9A12.53,12.53,0,0,1,491.8,72.9Zm83.7,310.5v-.2C577.3,380.1,576.7,381.2,575.5,383.4Zm-3.2,6.7c0,.8.3.8.6.6-.3-.7.2-2.2,1-4C573.3,387.1,572.6,387.9,572.3,390.1ZM106.9,88.8l1.3-.7C106.5,90.8,106.7,89.8,106.9,88.8Z"/><path class="cls-1" d="M480.7,64.5a1.56,1.56,0,0,1,.3-1.2C480.4,63.1,480.1,63.4,480.7,64.5Z"/><path class="cls-1" d="M264.8,24.5h-.2c-.1.1-.1.3-.2.4Z"/><path class="cls-1" d="M575.1,278.5a10.61,10.61,0,0,1,1-2.8C575.7,275.6,575.3,276.3,575.1,278.5Z"/><path class="cls-1" d="M559.7,427.4c.6-1.5,1.1-3,1.7-4.5a9.22,9.22,0,0,1-2.5,3.6C559.3,426.6,560.3,426.1,559.7,427.4Z"/><path class="cls-1" d="M528.1,455.7c-.2.7-.8,1.2-1,1.8l.8.4C529.6,455.5,530.2,453.5,528.1,455.7Z"/><path class="cls-1" d="M551.9,428.3c-1.6-.4-2.5,2.4-3.8,5.4.1-.2.2-.3.3-.5C549.9,435.1,550.9,431.7,551.9,428.3Z"/><path class="cls-1" d="M547.8,434.3a22,22,0,0,1-1.5,2.6C546.8,437.7,547,436,547.8,434.3Z"/><path class="cls-1" d="M570,399.2c-1,1.3,1.6,1.7.6,2.3C571.9,403.9,572.1,390.8,570,399.2Z"/><polygon class="cls-1" points="546 428 548.3 428 547.7 425.6 546 428"/><path class="cls-1" d="M558.5,405.9l-2.6,4.5c.3.1.2.7,0,1.5C557.4,409,559.1,406,558.5,405.9Z"/><path class="cls-1" d="M556,411.9a12.17,12.17,0,0,0-1.5,3.9C554.8,415,555.6,413.2,556,411.9Z"/><path class="cls-1" d="M548.8,421.6l1.1-1.1,1.7-3.2C550.6,418.7,549.8,420.2,548.8,421.6Z"/><path class="cls-1" d="M576.2,353.4l.6-5.6c-.5-.7-1.3.7-1.5,2.8C575.6,352,575.4,354.1,576.2,353.4Z"/><path class="cls-1" d="M566.6,368.3c.8-1.3,1.3-1.3,2.2-1.9l-2.3-.8Z"/><path class="cls-1" d="M570.2,352.6c-.6-.7-.2-8.2-1.6-1.4.3.3.3,1.9.4,2.8S569.4,355,570.2,352.6Z"/><polygon class="cls-1" points="581.9 269.9 582 271.3 586.1 271 581.9 269.9"/><path class="cls-1" d="M562.9,199c.6,6.4,2.8.9,3,6.8,1.3,1.2-.2-4.8,1-3.5C565,198.7,565.1,196.6,562.9,199Z"/><path class="cls-1" d="M566.9,202.2A17.39,17.39,0,0,0,568,204,7.2,7.2,0,0,0,566.9,202.2Z"/><path class="cls-1" d="M14.3,333l-.4,2.2-.3,2.2c.4-1,.8-1.9,1.3-2.9Z"/><path class="cls-1" d="M17.6,341.4,15,342.5l2.4,2.5C17.3,344.1,17,342.1,17.6,341.4Z"/><path class="cls-1" d="M399.6,29.8l.4-.5c-.5-.8-1.4-1.1-3.2-1.6Z"/><path class="cls-1" d="M344.9,20c.3,0,.6.1,1,.1-.6-.8-1.1-1.6-1.7-2.4Z"/><path class="cls-1" d="M298.4,23.8c1.9,0,4.1-.7,6-.8C300.3,23.7,297.7,20.9,298.4,23.8Z"/><path class="cls-1" d="M153.5,265.7a4.88,4.88,0,0,1-2.9,2.2,16.13,16.13,0,0,0-3.6,1.5,20.08,20.08,0,0,0-3.4,2.7,20.08,20.08,0,0,1-3.4,2.7q4.8,18.45,7.5,32.1c1.8,9.1,3,15.9,3.4,20.5s.8,9.6,1,15,.3,10.5.3,15a63,63,0,0,1-.5,8.4,41.4,41.4,0,0,1-1.5,6.3,51.6,51.6,0,0,1-6.7-10.9c-1.7-3.9-3.5-7.7-5.3-11.6-3.9-11.6-7.6-23.8-11.1-36.5s-7-25.7-10.4-38.9c-6.4-.2-13.2-.3-20.5-.3H74.5c-7.3,0-14.2.1-20.7.2s-12.1.3-16.9.5c-.5,1.4-.9,3-1.4,4.8a55.36,55.36,0,0,0-3.4,9.7c-.9,3.5-1.7,7.3-2.4,11.3s-1.5,8.1-2.4,12.5a124.51,124.51,0,0,1-3.4,13,15.36,15.36,0,0,0,8.7-2.9,15.36,15.36,0,0,1,8.7-2.9,35.44,35.44,0,0,0-5.3,6.8,39.2,39.2,0,0,0-3.9,9.9,8.23,8.23,0,0,1-2,3.6c-1.1,1.3-1.9,2.2-2.4,2.9-.5.9-.9,1.9-1.4,2.9a5,5,0,0,1-1.7,2.2,10.9,10.9,0,0,1-4.1,1.5,2.45,2.45,0,0,1-2.4-.9,23.66,23.66,0,0,1-3.6-8.7c-.6-3.1-1.1-6.3-1.5-9.7a155.32,155.32,0,0,1,2.4-23.9c1.6-9.8,3.6-20.3,6.1-31.4a18.21,18.21,0,0,1-5.5-2.6,23.25,23.25,0,0,0-4.8-2.6,20.38,20.38,0,0,0-6.1-1.9A8.9,8.9,0,0,1,0,265.6l20.8-5.5a17,17,0,0,0,4.4-.7c2.7-10.7,5.5-20.9,8.2-30.7s5.3-18.1,7.9-24.9c1.8-5.2,4-11.3,6.7-18.1a146.29,146.29,0,0,1,9.2-19.6,72.54,72.54,0,0,1,12-16.2,28.08,28.08,0,0,1,14.5-8.5,27.34,27.34,0,0,1,4.8-1,41.16,41.16,0,0,1,5.1-.3,4.45,4.45,0,0,1,4.1,2.6,58.5,58.5,0,0,0,4.1,6.3c1.1,2,2.2,3.8,3.2,5.3s2.1,4.5,3.2,9.1q8.25,24.9,15.4,50c4.8,16.7,9,32.5,12.6,47.3l20.8,4.4ZM83.8,156a144.45,144.45,0,0,0-10.9,17.2c-3.4,6.3-6.8,13.4-10.2,21.5S55.9,212,52.5,222.4s-6.9,22-10.6,35A352.7,352.7,0,0,1,77.4,255a294.3,294.3,0,0,1,35.2,1.4c-4.8-18.4-9.5-36.4-14-53.8Q91.55,176.5,83.8,156Z"/><path class="cls-1" d="M237.5,271.9c-.9,2.6-1.5,4.5-2,5.9s-1.3,1.5-2.3.5a102.4,102.4,0,0,0-8.7-7.7,24.35,24.35,0,0,0-23-3.9,13.68,13.68,0,0,0-8.3,7c-1.7,3.1-2,6.7-.8,11a14.09,14.09,0,0,0,6.8,9.6,46.05,46.05,0,0,0,11.8,4.6c4.4,1.1,8.8,2.1,13.3,2.9a32.21,32.21,0,0,1,11.7,4.6,5.56,5.56,0,0,1,2.4,2.4,16.17,16.17,0,0,0,1.9,2.9c.9,1,1.7,1.9,2.4,2.6a9.89,9.89,0,0,1,2.2,3.1c.5,1,1.1,2.3,1.8,3.7a6.89,6.89,0,0,1,.5,4.7c-.5,2.2-2.7,4.6-6.4,7.2a122,122,0,0,1-25.9,12.7,53.45,53.45,0,0,1-28.7,1.7c-1.2-.3-2.6-1.5-4.1-3.5a18.56,18.56,0,0,0-3.8-4,12.23,12.23,0,0,1-5.6-5.9,48.19,48.19,0,0,1-2-14.6q0-2.55.9-2.4a10.28,10.28,0,0,0,1.7.1c1,0,2.2.7,3.5,2s2.6,2.9,4.1,4.7,2.8,3.4,4.1,4.9,2.3,2.2,3.2,2.2a27.11,27.11,0,0,0,10.5,2.3,43.88,43.88,0,0,0,12.4-1.2,41.38,41.38,0,0,0,11.8-4.6,25.46,25.46,0,0,0,8.8-8.1c0-.9-1-1.9-2.9-3.1s-4.5-2.5-7.6-4-6.4-2.9-10.1-4.5-7.2-3.2-10.5-4.9a59.06,59.06,0,0,1-8.7-5.4,16.67,16.67,0,0,1-5-5.6,37.89,37.89,0,0,0-1.8-4.2,19.29,19.29,0,0,1-1.3-3.2,28.9,28.9,0,0,1-.5-10.9,26.06,26.06,0,0,1,3.1-9.4,20.93,20.93,0,0,1,6.1-6.8,21.58,21.58,0,0,1,8.7-3.5,69.71,69.71,0,0,1,16.5-.1,31.85,31.85,0,0,1,15.8,6,13.63,13.63,0,0,1,2.9,3.3,11.76,11.76,0,0,1,1.4,3.6c.2.9.3,1.7.5,2.4A3.6,3.6,0,0,1,237.5,271.9Z"/><path class="cls-1" d="M325.6,265.8q3.3,8.25,6.3,17.7a107.41,107.41,0,0,1,4.1,18.8,68.53,68.53,0,0,1,0,18.1,32.11,32.11,0,0,1-6,15.1,4.77,4.77,0,0,1-4.9,2,3.24,3.24,0,0,1-1.8-1.3,7,7,0,0,0-2-1.8,15.92,15.92,0,0,0-2.2-1.3,5.1,5.1,0,0,1-2.2-2,35.49,35.49,0,0,0-7.6,3.7c-2.5,1.6-5,3.3-7.6,5s-5.2,3.4-7.9,5a31.17,31.17,0,0,1-8.5,3.5c-3.1.9-5.3.7-6.8-.4s-3-2.3-4.7-3.7c-1.2-1-2-1.7-2.3-1.9a7,7,0,0,1-1-3.2,49.5,49.5,0,0,1-.1-12.2,56.86,56.86,0,0,1,2.9-13.2q6.45-19.5,26.1-26.1a10.64,10.64,0,0,1,4.7-.4,19.54,19.54,0,0,1,4.7,1.4,26,26,0,0,1,4.5,2.6,42.38,42.38,0,0,1,4,3.1l4.1,3.3a16.72,16.72,0,0,0-.1-9.4,34.91,34.91,0,0,0-4.2-9.5,46.62,46.62,0,0,0-6.4-8.1,21.59,21.59,0,0,0-6.9-4.9,45.8,45.8,0,0,0-23.4,6,98.76,98.76,0,0,0-20.1,15.8,3.6,3.6,0,0,1-1.2.8c-.4.2-.8.3-1.2.5a2.67,2.67,0,0,1-1.8.3q-.75-.3-.3-1.5a37,37,0,0,1,6.1-14.7,53.28,53.28,0,0,1,10.8-11.4,71.74,71.74,0,0,1,13.1-8.2,69.74,69.74,0,0,1,13.6-4.9,5.19,5.19,0,0,1,1.9-.6,14.12,14.12,0,0,1,2.2-.1,5.58,5.58,0,0,1,3.3,1c1,.7,2.2,1.5,3.6,2.3,1.7.9,3.4,1.8,5.1,2.9a21.68,21.68,0,0,1,4.6,4,36.82,36.82,0,0,1,3.1,4.1C324.1,263.3,324.9,264.6,325.6,265.8Zm-8.7,45.6a17.91,17.91,0,0,0-4.7-6.1,20.5,20.5,0,0,0-7.3-4.2,17.29,17.29,0,0,0-8.8-.6,20.22,20.22,0,0,0-9.6,4.6c-1,2.2-2,4.7-3.1,7.3a47.09,47.09,0,0,0-2.3,7.9,35.08,35.08,0,0,0-.6,7.9,17.78,17.78,0,0,0,1.7,7.3,184.13,184.13,0,0,0,19-7.7c6.1-2.9,11.4-5.5,15.9-7.7a6.75,6.75,0,0,0,1.8-2.6,2.7,2.7,0,0,0-.1-1.8c-.3-.5-.6-1.1-1-1.8A3.24,3.24,0,0,1,316.9,311.4Z"/><path class="cls-1" d="M375.5,291.9a48.19,48.19,0,0,1,14.1-14,30.44,30.44,0,0,1,19-4.5,13.36,13.36,0,0,1,3.3,1.2c1.2.6,2.3,1.2,3.3,1.7a25,25,0,0,1,7.2,6,50.32,50.32,0,0,1,6,9,64,64,0,0,1,4.5,10.4,78.15,78.15,0,0,1,2.6,10c.3,1.9.6,4.3.8,7.2s.3,5.6.3,7.9c-.3,0-.5.1-.5.3s-.2.2-.5,0a8.25,8.25,0,0,1-3.3-2.8c-.3-.3-.9-.7-1.5-1.2a2.74,2.74,0,0,1-1.3-1.7c-.3-1.7-.7-4-1.2-6.8a62.67,62.67,0,0,0-2.2-9.1,76.51,76.51,0,0,0-3.8-9.6,32.69,32.69,0,0,0-5.6-8.3,15.17,15.17,0,0,0-2.2-1.9c-.6-.4-1.3-.9-2.2-1.4a7.39,7.39,0,0,0-3.8-1.4,10.61,10.61,0,0,0-4.4.1,30.69,30.69,0,0,0-9.2,4.9,37.49,37.49,0,0,0-8.5,8.8,34.26,34.26,0,0,0-5.1,12.2,26.84,26.84,0,0,0,1.3,14.9,21,21,0,0,1,1,3.7,8.17,8.17,0,0,1,.1,2.7,8.27,8.27,0,0,1-.9,2.8c-.5,1-1.2,2.4-2,4.1a13,13,0,0,1-4.7,4.4,29.17,29.17,0,0,0-4.7,2.8A278.83,278.83,0,0,1,360,301.8a289.12,289.12,0,0,1-4.9-40.2,194,194,0,0,1,1.2-34.7c1.4-10.5,3.5-19.3,6.4-26.3.5-2,1.6-2.9,3.3-2.6a3.79,3.79,0,0,1,2,1l2,2c.7.9,1.3,1.6,1.8,2.2a4.39,4.39,0,0,1,1,2.4c.2.9.6,1.3,1.3,1.3s.9.4.8,1.3c-1.5,9.4-2.6,18.1-3.1,26.1s-.6,15.5-.4,22.3a176.52,176.52,0,0,0,1.7,19C373.8,281.3,374.7,286.8,375.5,291.9Z"/><path class="cls-1" d="M476.9,312c-.3-3-.7-6.1-1.3-9.3s-1.4-6.8-2.4-10.8a2.83,2.83,0,0,0-2.4-2.2,8.6,8.6,0,0,1-3.5-1.2c-1.4-.9-2.8-1.7-4.2-2.6a5.13,5.13,0,0,0-4-.8,6.13,6.13,0,0,0-2.8,1.8c-.9.9-1,2.5-.5,4.9a76.64,76.64,0,0,1,1.9,13.7c.3,4.7.5,9.3.8,14s.8,9.1,1.5,13.3a29.81,29.81,0,0,0,4.5,11.3,21.51,21.51,0,0,1,6.4-4.4,12.71,12.71,0,0,0,2.2-1.3,9.13,9.13,0,0,0,1.7-2.8,5.6,5.6,0,0,1,1.7-2.4,3.08,3.08,0,0,0,1.2-2.2c0-3.6,0-6.9-.1-10C477.3,318,477.1,315,476.9,312Z"/><g class="cls-2"><path class="cls-1" d="M118.8,424.22a1.14,1.14,0,0,1-.68.52,3.13,3.13,0,0,0-.84.36,3.81,3.81,0,0,0-.8.64,4.87,4.87,0,0,1-.8.64q1.11,4.32,1.76,7.52c.42,2.13.69,3.73.8,4.8s.18,2.24.24,3.52.08,2.45.08,3.52a13,13,0,0,1-.12,2,9.39,9.39,0,0,1-.36,1.48,11.7,11.7,0,0,1-1.56-2.56c-.4-.91-.82-1.81-1.24-2.72-.91-2.72-1.78-5.58-2.6-8.56s-1.64-6-2.44-9.12c-1.5-.06-3.1-.08-4.8-.08h-5.12c-1.71,0-3.32,0-4.84,0s-2.84.06-4,.12a11.31,11.31,0,0,0-.32,1.12,13,13,0,0,0-.8,2.28c-.22.82-.4,1.7-.56,2.64s-.35,1.9-.56,2.92-.48,2-.8,3a3.63,3.63,0,0,0,2-.68,3.51,3.51,0,0,1,2-.68,7.71,7.71,0,0,0-1.24,1.6,9.24,9.24,0,0,0-.92,2.32,2,2,0,0,1-.48.84,5.17,5.17,0,0,0-.56.68c-.11.21-.22.44-.32.68a1.22,1.22,0,0,1-.4.52,2.75,2.75,0,0,1-1,.36.56.56,0,0,1-.56-.2,5.33,5.33,0,0,1-.84-2q-.21-1.08-.36-2.28a35.53,35.53,0,0,1,.56-5.6q.55-3.45,1.44-7.36a4,4,0,0,1-1.28-.6,7.12,7.12,0,0,0-2.56-1,2.13,2.13,0,0,1-1.2-.6l4.88-1.28a5,5,0,0,0,1-.16q1-3.76,1.92-7.2c.64-2.3,1.25-4.24,1.84-5.84.42-1.23.94-2.64,1.56-4.24a33.33,33.33,0,0,1,2.16-4.6,17.73,17.73,0,0,1,2.8-3.8,6.66,6.66,0,0,1,3.4-2,7.21,7.21,0,0,1,1.12-.24,9,9,0,0,1,1.2-.08,1,1,0,0,1,1,.6,12.61,12.61,0,0,0,1,1.48,13.81,13.81,0,0,0,.76,1.24,7.38,7.38,0,0,1,.76,2.12q1.92,5.83,3.6,11.72t3,11.08l4.88,1Zm-16.32-25.68a34.47,34.47,0,0,0-2.56,4,54.79,54.79,0,0,0-2.4,5q-1.2,2.83-2.4,6.48c-.8,2.42-1.63,5.16-2.48,8.2q4.15-.48,8.32-.56a68.4,68.4,0,0,1,8.24.32q-1.68-6.48-3.28-12.6A107,107,0,0,0,102.48,398.54Z"/><path class="cls-1" d="M153.6,423.1a15,15,0,0,1,4.4-4.36,9.38,9.38,0,0,1,5.92-1.4,3.59,3.59,0,0,1,1,.36l1,.52a7.59,7.59,0,0,1,2.24,1.88,16.48,16.48,0,0,1,1.88,2.8,21.54,21.54,0,0,1,2.2,6.36,22.33,22.33,0,0,1,.24,2.24c.05.9.08,1.73.08,2.48-.11,0-.16,0-.16.08s-.06.05-.16,0a2.8,2.8,0,0,1-1-.88,2.7,2.7,0,0,0-.48-.36.84.84,0,0,1-.4-.52c-.11-.53-.23-1.24-.36-2.12a19.62,19.62,0,0,0-.68-2.84,21.33,21.33,0,0,0-1.2-3,10.52,10.52,0,0,0-1.76-2.6,5.94,5.94,0,0,0-.68-.6c-.19-.14-.42-.28-.68-.44a2.47,2.47,0,0,0-1.2-.44,3.18,3.18,0,0,0-1.36,0,9.17,9.17,0,0,0-2.88,1.52,10.86,10.86,0,0,0-2.64,2.76,10.74,10.74,0,0,0-1.6,3.8,8.29,8.29,0,0,0,.4,4.64,9.8,9.8,0,0,1,.32,1.16,3.43,3.43,0,0,1,0,.84,2.69,2.69,0,0,1-.28.88c-.16.32-.38.74-.64,1.28a3.79,3.79,0,0,1-1.48,1.36,8.64,8.64,0,0,0-1.48.88,89.81,89.81,0,0,1-3.56-13.28,91,91,0,0,1-1.52-12.56,61.09,61.09,0,0,1,.36-10.84,32.14,32.14,0,0,1,2-8.2c.16-.64.5-.91,1-.8a1.22,1.22,0,0,1,.64.32l.64.64.56.68a1.56,1.56,0,0,1,.32.76c.05.26.18.4.4.4s.29.13.24.4q-.72,4.4-1,8.16a69,69,0,0,0-.12,7,54.37,54.37,0,0,0,.52,5.92C153.06,419.79,153.33,421.5,153.6,423.1Z"/><path class="cls-1" d="M193.84,413.9a9.1,9.1,0,0,1,1,1.24,8,8,0,0,1,1.48,4.4,7.17,7.17,0,0,1-1.16,3.56,12.88,12.88,0,0,1-3.48,3.76,10.88,10.88,0,0,1-4.6,1.92,9.26,9.26,0,0,1-3.52,0,8.29,8.29,0,0,1-3.36-1.56,2.56,2.56,0,0,0-.76,1.16,2.84,2.84,0,0,0-.2,1.4,7.55,7.55,0,0,0,.84,2.44,4.28,4.28,0,0,0,1.48,1.8,6.83,6.83,0,0,0,3.8.08,36.51,36.51,0,0,0,5.2-1.48q2.76-1,5.44-2.24l4.6-2.12a.81.81,0,0,1-.2.64,3,3,0,0,0-.52.56,12.73,12.73,0,0,0-.88,1,5.17,5.17,0,0,1-1.12,1,3,3,0,0,0-1.2,1.24,3.87,3.87,0,0,1-1.52,1.4c-1,.53-2,1.08-3.08,1.64s-2.07,1.06-3.08,1.52a17.19,17.19,0,0,1-3.08,1,9.47,9.47,0,0,1-3.08.2,5,5,0,0,1-1.72-.56,13.15,13.15,0,0,1-1.64-1.2,9.53,9.53,0,0,0-1.12-.8,3.89,3.89,0,0,1-1-.8,11.91,11.91,0,0,1-1.84-4.28,13.73,13.73,0,0,1-.2-4.56,17.41,17.41,0,0,1,1.16-4.48,16,16,0,0,1,2.32-4,16.34,16.34,0,0,1,2-2.12,14.88,14.88,0,0,1,2.56-1.92,13.31,13.31,0,0,1,3-1.32,9,9,0,0,1,3.16-.4,3.21,3.21,0,0,1,1.16.36l1.16.6c.26.1.6.25,1,.44A4.48,4.48,0,0,1,193.84,413.9Zm-2.32,4.72a2.25,2.25,0,0,0-.88-1.28,6.66,6.66,0,0,0-1.6-.92,6.06,6.06,0,0,0-1.76-.44,2.82,2.82,0,0,0-1.28.08,6.64,6.64,0,0,0-1.48.84,11,11,0,0,0-1.6,1.4,16.18,16.18,0,0,0-1.44,1.72,7.29,7.29,0,0,0-1,1.72,2.29,2.29,0,0,0-.28.76,1,1,0,0,0,0,.76,3.47,3.47,0,0,0,2.88,1.2,10.55,10.55,0,0,0,4-.88,8.67,8.67,0,0,0,3-1.84,3.83,3.83,0,0,1,.36-.56,8.17,8.17,0,0,0,.52-.88c.16-.32.3-.64.44-1A1.16,1.16,0,0,0,191.52,418.62Z"/><path class="cls-1" d="M222.16,414.94q1,2.55,2,5.52a33.85,33.85,0,0,1,1.28,5.88,22.17,22.17,0,0,1,0,5.64,9.84,9.84,0,0,1-1.88,4.72,1.54,1.54,0,0,1-1.52.64,1,1,0,0,1-.56-.4,2.19,2.19,0,0,0-.64-.56,3.37,3.37,0,0,0-.68-.4,1.69,1.69,0,0,1-.68-.64,9.74,9.74,0,0,0-2.36,1.16c-.78.5-1.56,1-2.36,1.56s-1.63,1.05-2.48,1.56a9.94,9.94,0,0,1-2.64,1.08,2.45,2.45,0,0,1-2.12-.12c-.46-.35-.95-.74-1.48-1.16l-.72-.6a2,2,0,0,1-.32-1,16,16,0,0,1,0-3.8,17.67,17.67,0,0,1,.92-4.12,12.22,12.22,0,0,1,8.16-8.16,3.09,3.09,0,0,1,1.48-.12,5.71,5.71,0,0,1,1.48.44,8.24,8.24,0,0,1,1.4.8c.45.32.86.64,1.24,1l1.28,1a5.28,5.28,0,0,0,0-2.92,11.71,11.71,0,0,0-1.32-3,14.31,14.31,0,0,0-2-2.52,6.36,6.36,0,0,0-2.16-1.52,14.25,14.25,0,0,0-7.32,1.88,30.39,30.39,0,0,0-6.28,4.92,1.41,1.41,0,0,1-.36.24,2,2,0,0,0-.36.16.71.71,0,0,1-.56.08c-.16-.06-.19-.22-.08-.48a11.55,11.55,0,0,1,1.92-4.6,17,17,0,0,1,3.36-3.56,21.28,21.28,0,0,1,4.08-2.56A19.89,19.89,0,0,1,214,409.5a1.7,1.7,0,0,1,.6-.2,4.36,4.36,0,0,1,.68,0,1.8,1.8,0,0,1,1,.32l1.12.72a15.55,15.55,0,0,1,1.6.92,7.06,7.06,0,0,1,1.44,1.24,9.93,9.93,0,0,1,1,1.28Q221.83,414.37,222.16,414.94Zm-2.72,14.24a5.78,5.78,0,0,0-1.48-1.92,6.68,6.68,0,0,0-2.28-1.32,5.55,5.55,0,0,0-2.76-.2,6.57,6.57,0,0,0-3,1.44q-.48,1-1,2.28a14.24,14.24,0,0,0-.72,2.48,10.93,10.93,0,0,0-.2,2.48,5.77,5.77,0,0,0,.52,2.28,61.06,61.06,0,0,0,5.92-2.4q2.88-1.37,5-2.4a2.08,2.08,0,0,0,.56-.8.81.81,0,0,0,0-.56c-.08-.16-.19-.35-.32-.56A1.42,1.42,0,0,1,219.44,429.18Z"/><path class="cls-1" d="M237.11,400.46q1,4.32,1.52,8.64c.38,2.88.72,5.76,1,8.64s.66,5.76,1,8.64.82,5.76,1.4,8.64q-.15,1-.24,1.68c-.05.42-.18.69-.4.8a7.85,7.85,0,0,0-.76.52,3.41,3.41,0,0,1-.76.44,1,1,0,0,0-.32.28.88.88,0,0,1-.36.28.45.45,0,0,1-.36,0,1.41,1.41,0,0,1-.4-.48q-1.51-4.56-2.76-9.2t-2-9.36a84.33,84.33,0,0,1-1-9.56,74.47,74.47,0,0,1,.28-10c0-.8.24-1.31.72-1.52q.33-.17.84.24a4.71,4.71,0,0,0,.92.56,3.84,3.84,0,0,0,.88.28A1.24,1.24,0,0,1,237.11,400.46Z"/><path class="cls-1" d="M277,420.86c.11.1.19.16.24.16s.08.05.08.16a1.19,1.19,0,0,1-.36.36,2.22,2.22,0,0,1-1,.28,4.16,4.16,0,0,0-.64.28,6.66,6.66,0,0,1-.64.28c-1.44.32-3.13.61-5.08.88s-4,.51-6,.72c-.1,1.86-.14,3.6-.12,5.2s.1,3,.2,4.16c.11.9.54,1.34,1.28,1.32a8.61,8.61,0,0,0,2.32-.44,15.16,15.16,0,0,0,1.72-.76l3.28-1.6c1.26-.62,2.58-1.28,4-2l3.76-2a2.94,2.94,0,0,1-1.2,2.16,10.82,10.82,0,0,1-1.4,1c-.5.32-1,.67-1.56,1a3.26,3.26,0,0,0-1.2,1.2,3.87,3.87,0,0,1-1.44,1.36,36.79,36.79,0,0,1-4.48,2.48,24.94,24.94,0,0,1-4.32,1.6,5.68,5.68,0,0,1-1.32.16,3.76,3.76,0,0,0-1.32.24,1.24,1.24,0,0,1-1.48-.16,3.07,3.07,0,0,1-.68-1.6c-.21-2-.36-4.08-.44-6.32s-.09-4.51,0-6.8q-2.4.15-4.44.12a21.34,21.34,0,0,1-3.32-.28,10.91,10.91,0,0,1-2.2-.52,5,5,0,0,1-1.8-1.16c-.48,0-.62-.23-.44-.68s.34-.84.44-1.16c1.12-.06,2.76-.12,4.92-.2l7-.28q.33-6.64,1.12-12.32a39.66,39.66,0,0,1,1.92-8.48,1,1,0,0,1,.6-1,12.88,12.88,0,0,0,1.24-.68,4.56,4.56,0,0,0,.68-.44,1.58,1.58,0,0,1,1-.28,5.64,5.64,0,0,1,1,.68.85.85,0,0,1,.32.68,2.58,2.58,0,0,1-.24,1c-.16.37-.34.85-.56,1.44a10,10,0,0,0-.48,2c-.21,1.17-.44,2.65-.68,4.44s-.49,3.81-.76,6.08-.48,4.55-.64,6.84c1.76,0,3.44,0,5,0s3,.09,4.24.2Z"/><path class="cls-1" d="M288.23,423.1a15.21,15.21,0,0,1,4.4-4.36,9.4,9.4,0,0,1,5.92-1.4,3.49,3.49,0,0,1,1,.36c.38.18.72.36,1,.52a7.47,7.47,0,0,1,2.24,1.88,15.91,15.91,0,0,1,1.88,2.8,20.18,20.18,0,0,1,1.4,3.24,19.93,19.93,0,0,1,.8,3.12,17.66,17.66,0,0,1,.24,2.24c.06.9.08,1.73.08,2.48-.1,0-.16,0-.16.08s-.05.05-.16,0a3,3,0,0,1-1-.88,2.11,2.11,0,0,0-.48-.36.92.92,0,0,1-.4-.52c-.1-.53-.22-1.24-.36-2.12a18.39,18.39,0,0,0-.68-2.84,21.33,21.33,0,0,0-1.2-3,10.25,10.25,0,0,0-1.76-2.6,4.62,4.62,0,0,0-.68-.6,6.77,6.77,0,0,0-.68-.44,2.4,2.4,0,0,0-1.2-.44,3.19,3.19,0,0,0-1.36,0,9.38,9.38,0,0,0-2.88,1.52,11.21,11.21,0,0,0-2.64,2.76,10.93,10.93,0,0,0-1.6,3.8,8.38,8.38,0,0,0,.4,4.64,8.18,8.18,0,0,1,.32,1.16,2.67,2.67,0,0,1,0,.84,2.47,2.47,0,0,1-.28.88l-.64,1.28a3.73,3.73,0,0,1-1.48,1.36,9,9,0,0,0-1.48.88,92.35,92.35,0,0,1-3.56-13.28,94.17,94.17,0,0,1-1.52-12.56,63,63,0,0,1,.36-10.84,33,33,0,0,1,2-8.2c.16-.64.51-.91,1-.8a1.18,1.18,0,0,1,.64.32l.64.64.56.68a1.48,1.48,0,0,1,.32.76c.06.26.19.4.4.4s.3.13.24.4q-.72,4.4-1,8.16a69,69,0,0,0-.12,7,57,57,0,0,0,.52,5.92C287.7,419.79,288,421.5,288.23,423.1Z"/><path class="cls-1" d="M328.31,448.3c-.16.64-.32,1.18-.48,1.64s-.32.87-.48,1.24a6.09,6.09,0,0,1-.56,1q-.32.48-.72,1.2a3.71,3.71,0,0,0-.84,1.24A2.35,2.35,0,0,1,324,455.9a34.58,34.58,0,0,1-4.84,1.52,12.6,12.6,0,0,1-4.44.4.48.48,0,0,0-.36,0,.25.25,0,0,1-.28-.12,1,1,0,0,1,.2-1.32,2.26,2.26,0,0,0,.76-1.16c.11-.27.21-.58.32-.92a1.71,1.71,0,0,1,.56-.84,11.19,11.19,0,0,1,2.32-.76,18.85,18.85,0,0,0,3-1,10.34,10.34,0,0,0,2.72-1.72,5.26,5.26,0,0,0,1.64-3q.48-2.49.8-5.44t.52-6c.14-2,.24-4,.32-6s.15-3.82.2-5.52a17.08,17.08,0,0,1-1.36,2.2,30.14,30.14,0,0,1-1.92,2.44,25.36,25.36,0,0,1-2.08,2.16,9.76,9.76,0,0,1-1.92,1.44,10.69,10.69,0,0,0-1.68,1.08c-.42.34-.85.7-1.28,1.08a1.13,1.13,0,0,1-1.28,0,3.8,3.8,0,0,1-1.44-1.44,19.65,19.65,0,0,1-1.36-3.16c-.42-1.26-.85-2.59-1.28-4s-.85-2.88-1.28-4.4-.85-3-1.28-4.36c-.37-1-.34-1.74.08-2.16a1.75,1.75,0,0,1,1.28-.56c.43,0,.68.12.76.36s.34.38.76.44a1.24,1.24,0,0,1,.84.4,3.13,3.13,0,0,0,.68.56,2.12,2.12,0,0,1,.68.64,4.57,4.57,0,0,1,.44,1.12c.27,1,.49,2,.68,2.84s.38,1.74.56,2.6.4,1.72.64,2.6.52,1.82.84,2.84a22.54,22.54,0,0,0,3.8-3.16,35.18,35.18,0,0,0,3-3.52c.88-1.2,1.67-2.38,2.36-3.52s1.34-2.26,1.92-3.32c.22-.32.48-.78.8-1.36a6,6,0,0,1,.88-1.28,2.41,2.41,0,0,0,.4-.52,1.22,1.22,0,0,1,.4-.44,1.37,1.37,0,0,1,.4.72c.06.26.11.56.16.88a8.46,8.46,0,0,1-.2,2.92,11.46,11.46,0,0,0-.36,2.28v7.36q0,3.75-.24,7.52c-.16,2.51-.42,5-.8,7.56A50.81,50.81,0,0,1,328.31,448.3Z"/><path class="cls-1" d="M376.87,419a1.18,1.18,0,0,1,.2.76,3.51,3.51,0,0,1-.12.6,5.13,5.13,0,0,1-1,1c-.27.16-.72.4-1.36.72a3.84,3.84,0,0,0-.44.32.72.72,0,0,1-.44.16,2.59,2.59,0,0,1-1.24-.64c-.56-.43-1.16-.86-1.8-1.28a7.31,7.31,0,0,0-2-1,2.24,2.24,0,0,0-2,.24A15,15,0,0,0,365,423a21.24,21.24,0,0,0-1.24,4,15,15,0,0,0-.28,4.24,8.86,8.86,0,0,0,1.28,4,13.5,13.5,0,0,0,8.24-1.56,31.24,31.24,0,0,0,6.64-5.08,1.82,1.82,0,0,1-.28,1,9.11,9.11,0,0,0-.52.92c-.21.48-.44.94-.68,1.4a5.61,5.61,0,0,1-1,1.32,24.66,24.66,0,0,1-2.52,2.32,20,20,0,0,1-3,2,15.28,15.28,0,0,1-3.2,1.28,9.18,9.18,0,0,1-3.24.28,2,2,0,0,1-1.24-.44,4.18,4.18,0,0,0-1.24-.76,4.64,4.64,0,0,0-1.24-.56,2.89,2.89,0,0,1-1.16-.64,6.55,6.55,0,0,1-1.2-2.32,12.77,12.77,0,0,1-.56-3.84,28,28,0,0,1,.28-4,21,21,0,0,1,.8-3.56,24,24,0,0,1,.92-2.48,4.79,4.79,0,0,1,1.44-1.8,14.68,14.68,0,0,1,2.12-1.4c.77-.43,1.56-.83,2.36-1.2l2.24-1Q372.79,414.94,376.87,419Z"/><path class="cls-1" d="M390.63,423.1a15.09,15.09,0,0,1,4.4-4.36,9.4,9.4,0,0,1,5.92-1.4,3.49,3.49,0,0,1,1,.36l1,.52a7.47,7.47,0,0,1,2.24,1.88,16.48,16.48,0,0,1,1.88,2.8,20.18,20.18,0,0,1,1.4,3.24,21.11,21.11,0,0,1,.8,3.12,17.66,17.66,0,0,1,.24,2.24c.05.9.08,1.73.08,2.48-.11,0-.16,0-.16.08s-.05.05-.16,0a2.88,2.88,0,0,1-1-.88,2.7,2.7,0,0,0-.48-.36.88.88,0,0,1-.4-.52c-.11-.53-.23-1.24-.36-2.12a18.39,18.39,0,0,0-.68-2.84,21.33,21.33,0,0,0-1.2-3,10.52,10.52,0,0,0-1.76-2.6,5.19,5.19,0,0,0-.68-.6c-.19-.14-.41-.28-.68-.44a2.47,2.47,0,0,0-1.2-.44,3.18,3.18,0,0,0-1.36,0,9.17,9.17,0,0,0-2.88,1.52,11.21,11.21,0,0,0-2.64,2.76,10.74,10.74,0,0,0-1.6,3.8,8.29,8.29,0,0,0,.4,4.64,8.18,8.18,0,0,1,.32,1.16,3,3,0,0,1,0,.84,2.69,2.69,0,0,1-.28.88l-.64,1.28a3.79,3.79,0,0,1-1.48,1.36,9,9,0,0,0-1.48.88,91.06,91.06,0,0,1-3.56-13.28,92.56,92.56,0,0,1-1.52-12.56,61.09,61.09,0,0,1,.36-10.84,32.57,32.57,0,0,1,2-8.2c.16-.64.51-.91,1-.8a1.18,1.18,0,0,1,.64.32l.64.64.56.68a1.48,1.48,0,0,1,.32.76c.05.26.19.4.4.4s.29.13.24.4q-.72,4.4-1,8.16a69,69,0,0,0-.12,7,54.37,54.37,0,0,0,.52,5.92C390.1,419.79,390.36,421.5,390.63,423.1Z"/><path class="cls-1" d="M423.27,415.42l-1.36,1.36c.43-.06,1.08-.18,2-.36a12.31,12.31,0,0,1,2.6-.28,3.55,3.55,0,0,1,1.6.64,2.58,2.58,0,0,1,.8,1.84,23.83,23.83,0,0,0,1,3.88,27.6,27.6,0,0,1,1,3.88,8.73,8.73,0,0,1,0,3.64,5.57,5.57,0,0,1-2.16,3.08,22.29,22.29,0,0,1-4,4.68,8.88,8.88,0,0,1-4.6,2.2,7.32,7.32,0,0,1-3.52-.44,4.88,4.88,0,0,1-2.8-2.36c-.16.1-.29.12-.4,0a4,4,0,0,1-.32-.28c-.11-.11-.2-.13-.28-.08s-.15,0-.2-.08a2.22,2.22,0,0,1-.08-.64v-.32a45.13,45.13,0,0,1,.52-5.64,31.8,31.8,0,0,1,1.36-5.52,23.81,23.81,0,0,1,2.4-5,16.4,16.4,0,0,1,3.8-4.2,2.49,2.49,0,0,1,1.76-.32h.4A.84.84,0,0,1,423.27,415.42Zm-2.72,5.44c-.32-.05-.51-.16-.56-.32a1,1,0,0,1,0-.6c.08-.24.19-.52.32-.84a2.54,2.54,0,0,0,.2-1,10.31,10.31,0,0,0-2.6,3.68,20.58,20.58,0,0,0-1.32,4.44,22.66,22.66,0,0,0-.36,4.44c0,1.44.09,2.69.2,3.76a7.17,7.17,0,0,0,.56,2.2,1.68,1.68,0,0,0,1.2,1,3.42,3.42,0,0,0,2.32-.48,8.89,8.89,0,0,0,3.36-2.88,12.15,12.15,0,0,0,2.6-6.6,8.3,8.3,0,0,0-.12-2.92,3.77,3.77,0,0,0-2-2.68A13.57,13.57,0,0,0,420.55,420.86Z"/><path class="cls-1" d="M446,412.22c.43.42.6.77.52,1a.41.41,0,0,1-.52.32,13.71,13.71,0,0,0-2.28.2c-.83.13-1.71.24-2.64.32a21.7,21.7,0,0,1-2.92,0,12.5,12.5,0,0,1-3-.56c-.43-.43-.41-.81,0-1.16a3.56,3.56,0,0,0,1.08-1.56,1.8,1.8,0,0,1,.68-1,2.33,2.33,0,0,1,.92-.36,8.65,8.65,0,0,1,2.2.36,13.89,13.89,0,0,0,2.2.44,11.5,11.5,0,0,1,2.24.44A2.77,2.77,0,0,1,446,412.22Zm-1.68,10.88c.32,1.22.57,2.34.76,3.36a29.11,29.11,0,0,1,.4,2.92c.08.93.13,1.88.16,2.84s0,2,0,3.12a1,1,0,0,1-.36.68,2.3,2.3,0,0,0-.52.76,2.74,2.74,0,0,1-.52.88,3.78,3.78,0,0,1-.68.4,6.28,6.28,0,0,0-2,1.36,9.07,9.07,0,0,1-1.4-3.52,34.33,34.33,0,0,1-.48-4.16c-.08-1.44-.16-2.9-.24-4.36a24.93,24.93,0,0,0-.6-4.28c-.16-.75-.11-1.26.16-1.52a2.16,2.16,0,0,1,.88-.56,1.54,1.54,0,0,1,1.24.24c.45.26.89.53,1.32.8a2.65,2.65,0,0,0,1.08.36C443.9,422.44,444.15,422.67,444.31,423.1Z"/><path class="cls-1" d="M470.55,419a1.18,1.18,0,0,1,.2.76,3.51,3.51,0,0,1-.12.6,5.13,5.13,0,0,1-1,1c-.27.16-.72.4-1.36.72a3.84,3.84,0,0,0-.44.32.72.72,0,0,1-.44.16,2.59,2.59,0,0,1-1.24-.64c-.56-.43-1.16-.86-1.8-1.28a7.31,7.31,0,0,0-2-1,2.24,2.24,0,0,0-2,.24,15,15,0,0,0-1.68,3.08,21.24,21.24,0,0,0-1.24,4,15,15,0,0,0-.28,4.24,8.86,8.86,0,0,0,1.28,4,13.5,13.5,0,0,0,8.24-1.56,31.24,31.24,0,0,0,6.64-5.08,1.82,1.82,0,0,1-.28,1,9.11,9.11,0,0,0-.52.92c-.21.48-.44.94-.68,1.4a5.61,5.61,0,0,1-1,1.32,24.66,24.66,0,0,1-2.52,2.32,20,20,0,0,1-3,2,15.28,15.28,0,0,1-3.2,1.28,9.18,9.18,0,0,1-3.24.28,2,2,0,0,1-1.24-.44,4.18,4.18,0,0,0-1.24-.76,4.64,4.64,0,0,0-1.24-.56,2.89,2.89,0,0,1-1.16-.64,6.55,6.55,0,0,1-1.2-2.32,12.77,12.77,0,0,1-.56-3.84,28,28,0,0,1,.28-4,21,21,0,0,1,.8-3.56,24,24,0,0,1,.92-2.48,4.79,4.79,0,0,1,1.44-1.8,14.68,14.68,0,0,1,2.12-1.4c.77-.43,1.56-.83,2.36-1.2l2.24-1Q466.47,414.94,470.55,419Z"/><path class="cls-1" d="M495.59,413.9a9.1,9.1,0,0,1,1,1.24,7.87,7.87,0,0,1,.8,1.4,8.24,8.24,0,0,1,.68,3A7.07,7.07,0,0,1,497,423.1a12.88,12.88,0,0,1-3.48,3.76,10.83,10.83,0,0,1-4.6,1.92,9.26,9.26,0,0,1-3.52,0,8.41,8.41,0,0,1-3.36-1.56,2.64,2.64,0,0,0-.76,1.16,3,3,0,0,0-.2,1.4,8.06,8.06,0,0,0,.84,2.44,4.35,4.35,0,0,0,1.48,1.8,6.84,6.84,0,0,0,3.8.08,36.14,36.14,0,0,0,5.2-1.48q2.76-1,5.44-2.24l4.6-2.12a.81.81,0,0,1-.2.64,3.32,3.32,0,0,0-.52.56,12.73,12.73,0,0,0-.88,1,4.94,4.94,0,0,1-1.12,1,3.17,3.17,0,0,0-1.2,1.24A3.8,3.8,0,0,1,497,434l-3.08,1.64c-1,.56-2.07,1.06-3.08,1.52a16.93,16.93,0,0,1-3.08,1,9.47,9.47,0,0,1-3.08.2,5,5,0,0,1-1.72-.56,13.94,13.94,0,0,1-1.64-1.2,8.76,8.76,0,0,0-1.12-.8,3.89,3.89,0,0,1-1-.8,11.91,11.91,0,0,1-1.84-4.28,13.73,13.73,0,0,1-.2-4.56,17.82,17.82,0,0,1,1.16-4.48,16.33,16.33,0,0,1,2.32-4,17.08,17.08,0,0,1,2-2.12,15.28,15.28,0,0,1,2.56-1.92,13.31,13.31,0,0,1,3-1.32,9,9,0,0,1,3.16-.4,3.15,3.15,0,0,1,1.16.36l1.16.6c.27.1.6.25,1,.44A4.48,4.48,0,0,1,495.59,413.9Zm-2.32,4.72a2.25,2.25,0,0,0-.88-1.28,6.48,6.48,0,0,0-1.6-.92A6,6,0,0,0,489,416a2.83,2.83,0,0,0-1.28.08,6.64,6.64,0,0,0-1.48.84,11.54,11.54,0,0,0-1.6,1.4,16.18,16.18,0,0,0-1.44,1.72,7.65,7.65,0,0,0-1,1.72,2.29,2.29,0,0,0-.28.76,1,1,0,0,0,0,.76,3.47,3.47,0,0,0,2.88,1.2,10.47,10.47,0,0,0,4-.88,8.67,8.67,0,0,0,3-1.84,3.83,3.83,0,0,1,.36-.56,6.8,6.8,0,0,0,.52-.88c.16-.32.31-.64.44-1A1.16,1.16,0,0,0,493.27,418.62Z"/></g><path class="cls-1" d="M555.1,258.6c.2.1.3-.5.4-.6C555.1,258,555,258.8,555.1,258.6Z"/><polygon class="cls-1" points="551 258.7 551.2 258.4 550.4 258.8 551 258.7"/><path class="cls-1" d="M547.7,257.2c-.2,1.1,1.3.4,1.7,1v.3l.6-.7C549.3,257.6,548.1,257.7,547.7,257.2Z"/><path class="cls-1" d="M547.1,254.2c-.1.4-.5.1.3.3v-.1C547.3,254.4,547.3,254.3,547.1,254.2Z"/><path class="cls-1" d="M547.4,254.4c.4.1,0-.4,0,0Z"/><path class="cls-1" d="M545.8,253.8l.6-.1c0-.3-.3-.5-.1-.6C545.8,253,545.8,253.3,545.8,253.8Z"/><path class="cls-1" d="M545,254.2h.3C545.3,254.1,545.3,254.1,545,254.2Z"/><path class="cls-1" d="M545.9,254.2h-.6c0,.2-.2.5.3,0C545.4,254.5,545.6,254.3,545.9,254.2Z"/><path class="cls-1" d="M546.1,254.5c.1.3.4.6-.2.7C546.8,255.5,547,254.8,546.1,254.5Z"/><path class="cls-1" d="M547.1,258.1c.1.2.1.3.2.5l.5-.2C547.5,258.4,547.2,257.8,547.1,258.1Z"/><path class="cls-1" d="M543.5,251.7a9.44,9.44,0,0,0-.3.9h.4C543.5,252.3,543.3,252,543.5,251.7Z"/><path class="cls-1" d="M543.2,252.6h-.7C542.9,252.9,543.1,252.8,543.2,252.6Z"/><path class="cls-1" d="M544.3,255.2l1.2-.3a5.9,5.9,0,0,1-1.4.2Z"/><polygon class="cls-1" points="541.8 250.6 542.3 250.3 541.4 250.6 541.8 250.6"/><path class="cls-1" d="M540.6,249.8c.4-.2.2-.8.5-.9a3,3,0,0,0-1.3.1C540.2,249.1,540.4,249.3,540.6,249.8Z"/><path class="cls-1" d="M539.1,249.2c.2,0,.4-.1.7-.1C539.6,249,539.4,249.1,539.1,249.2Z"/><path class="cls-1" d="M541.8,252c0-.1.2-.5,0-.8l-.2.7A.35.35,0,0,0,541.8,252Z"/><path class="cls-1" d="M541.6,251.9h0c-.2-.2-.3-.3-.4-.3C541.3,251.6,541.4,251.7,541.6,251.9Z"/><path class="cls-1" d="M541.8,252.1Z"/><path class="cls-1" d="M543.4,254c-.5.1-1.3.1-1,.9C542.8,254.6,542.7,254.1,543.4,254Z"/><path class="cls-1" d="M541.6,252.9l.4.4c.1-.1.1-.4.4-.5Z"/><polygon class="cls-1" points="541.2 252.9 541.6 252.9 541.4 252.7 541.2 252.9"/><path class="cls-1" d="M539.6,250.2c-.4.1-.6-.1-.9-.2a2.31,2.31,0,0,0,.7.7C539.6,250.6,539.9,250.4,539.6,250.2Z"/><path class="cls-1" d="M540.5,251.1Z"/><path class="cls-1" d="M536.2,248.1v0Z"/><path class="cls-1" d="M539.4,250.9c.1.2.4.2.6.1-.2-.1-.4-.1-.6-.3C539.4,250.8,539.3,250.9,539.4,250.9Z"/><path class="cls-1" d="M538.3,248.9c0,.2.1.4.1.6C538.4,249.2,538.4,248.8,538.3,248.9Z"/><path class="cls-1" d="M540.5,250.9Z"/><path class="cls-1" d="M540.5,250.9c-.2,0-.3.1-.5.1.2,0,.3.1.5.1Z"/><path class="cls-1" d="M532.9,250.8c.4-.4,1.3-.5,1.4.4.7,0,1.6-1.8,1.9-3-.2.2-.3.4-1,.3,0,.4.6,1.4-.1,1.5-.8-.2-.4-.6-.5-1-.2.8-1.5.2-2,1.2l.8.1C533.2,250.5,532.8,250.6,532.9,250.8Z"/><path class="cls-1" d="M537,249l.2.1a1.82,1.82,0,0,1-.2-1.1c-.5,0-.7.1-.8.3l.9.8Z"/><path class="cls-1" d="M538.1,249.7c-.5.4-1.2.3-1.3,1.1.6.4.7-.1,1.2-.1-.9-.6.5-.1.1-1l.6.3-.3-.6h0v.1h0c-.1.1-.2.2-.3.2-.2-.3.1-.2.2-.2l.1-.1h0l-1.1-.4C537.4,249.3,537.7,249.5,538.1,249.7Z"/><path class="cls-1" d="M541.1,255.7v-.1S541,255.6,541.1,255.7Z"/><path class="cls-1" d="M540.9,255.1c.1,0,.3-.2.5,0s-.2.3-.3.4c.2-.1.7-.1.5-.6h-.1c-.3-.4-.4-1.4-.2-1.5A13.64,13.64,0,0,0,540.9,255.1Z"/><path class="cls-1" d="M539.4,252.5l-1-.3.1.7.2-.3C539,253.1,539.2,252.7,539.4,252.5Z"/><polygon class="cls-1" points="536.3 247.8 536.8 247.4 535.8 247.8 536.3 247.8"/><polygon class="cls-1" points="535.3 247.1 535.7 246.7 535.2 246.7 535.3 247.1"/><path class="cls-1" d="M469.3,224.5l-.3.2C469.1,224.6,469.2,224.5,469.3,224.5Z"/><path class="cls-1" d="M471.3,224.4v-.3Q471.15,224.4,471.3,224.4Z"/><path class="cls-1" d="M510.2,227.3c-.1-.7,0-1.7-.3-1.1l-.2.6C509.9,226.8,510.1,227,510.2,227.3Z"/><path class="cls-1" d="M488.3,222.2c0,.1.1.1.1.2.1-.2.3-.4.4-.6C488.6,222,488.4,222.1,488.3,222.2Z"/><path class="cls-1" d="M487.4,224.8l-.4-.5A1.76,1.76,0,0,0,487.4,224.8Z"/><path class="cls-1" d="M458.5,226.8l-.2.7C458.8,227.4,458.6,227.1,458.5,226.8Z"/><path class="cls-1" d="M525.1,238.9a3.92,3.92,0,0,0-.4-.9C524.7,238.6,524.6,239.3,525.1,238.9Z"/><path class="cls-1" d="M469.6,217.5a.4.4,0,0,0-.2.4C469.6,217.8,469.7,217.7,469.6,217.5Z"/><path class="cls-1" d="M523.8,237.4c0,.1,0,.2.1.2a3,3,0,0,1,.8.4C524.5,237.6,524.4,237.2,523.8,237.4Z"/><path class="cls-1" d="M421.6,242.6h0Z"/><path class="cls-1" d="M407.9,243.9a1.38,1.38,0,0,1,.4-.3C408.1,243.6,408,243.7,407.9,243.9Z"/><path class="cls-1" d="M531.5,243.7c.2.1.1,0,0,0Z"/><path class="cls-1" d="M530.9,246.5c-.1,0-.2.1-.3.2C530.7,246.6,530.8,246.5,530.9,246.5Z"/><path class="cls-1" d="M519.1,238.7Z"/><path class="cls-1" d="M531.6,244.2c0-.1-.1-.3-.1-.4A.76.76,0,0,0,531.6,244.2Z"/><path class="cls-1" d="M531.8,243.9c.1.1.1.1.1.2C532,244,532,244,531.8,243.9Z"/><path class="cls-1" d="M531.2,243.5l.3.3v-.1C531.4,243.6,531.3,243.6,531.2,243.5Z"/><path class="cls-1" d="M440,230.6h0C439.8,230.9,439.9,230.8,440,230.6Z"/><path class="cls-1" d="M500.6,229.6Z"/><path class="cls-1" d="M499.6,229.6c.7-.5.9-.4,1.1-.1l.6-1.8Z"/><path class="cls-1" d="M464.5,225.2l.7.5c-.7,1.1-1.2.8-.5,1.5-.2-2,2.4-.5,2.3-2.6l.5.4c-.1,0-.1.1-.3.1.9.9.5-1.5,1.6-1.3.4.1.7.4.4.7l.8-.6c.2,0,.2.4,0,.4l1.3-.2v.1c.2-.3.6-.8.8-1.1.3.3-.2.2-.1.5l.7-.5c.3.5-.3,1.1-.8,1,.7,2,.6-.6,2,.6l-.7.3c.4,1.2,1,.7,1.7,1.5-.2-.4-1.5-1.8-.7-2.3.2.2.5.2.9-.2,0,.7.4.5.9.5l-.1,1c.5-.3.5-.7.9-1.2.6.1.7.9.8,1.5,1,.2-.6-1.2.5-1.3.8.4,1.4.1,2.4-.4.5.4-.2.6,0,.9l.6-.7c.1,0,.1.3,0,.4.5-.3.1-1,.8-1.1.3-1,1.2,1.7,2.2.6.2.3-.2.6-.2.9a8.46,8.46,0,0,0,2.2-1.3l.7.8c-.4-.8.5-1.5,1.3-2.1a3.92,3.92,0,0,0-.4-.9l1.2-.3c.1.2-.1.5-.3.8.1-.1.2-.1.2-.2.3.4,0,.9-.4,1.4a4.88,4.88,0,0,1-.3-.7,3,3,0,0,0-.8,1.7.52.52,0,0,1,.4-.2.76.76,0,0,0-.2.4c0,.1.2-.1.4-.3v1.1l.1-.4,1.2,1c.6-.4,1.2-.9,1.9-1.4a4.45,4.45,0,0,1,2.3-.7c-.6.6-.5,1.2-.8,2.1-.1-1.1-1.3,0-2-.4a.38.38,0,0,1,0,.7l1.6-.4c-.3.7.1.6.4,1,.2-1.5,1.3-.7,2-.9-.1.5-.4.9-1.1.6.4,1.3,1.5-1.3,2-.1-.2,0-.2-.2-.4.1.5-.3,1.4.4,1,.7l-.2-.1c1,.6,3.2,1.4,3.9.3a13,13,0,0,1-1,1.5c1.2-1,2.5-1.9,3.8-2.9-.7.9-1.2,3.5-2.4,3.6a.94.94,0,0,0,1.1.5c-.1-.2.3-1.6.6-1.6a7.12,7.12,0,0,0,.4,2.1c-.1-.3,1-1.7,1.3-1.4-.2.2-.8,1.5-1,1.6l1.8-.9c-.4.1-.8,1.2-.8,1.7.1-.3.8.5,1.1.5l-.2-.6c.9.9,2.3-1.4,3.4-.6-.3.2-1.5,1.6-1.1,2.1.7-.6,3.4-2.7,4.8-2.6l-.1.5,1.1.1a42.23,42.23,0,0,1-5.3,2.5c.2.6-.2.6.4.9-.1.5-.7.4-.9.3l1.2,1.2c.5-.9,1.6-.1,2-.8a14.92,14.92,0,0,0-2.1-.2c.5-.9,2.5-1.8,3.4-.9,0,.5-1.2,1.3-1.4,1.6.3-.2,1.3.1,1.2.4l-.7.1c.3.7,1.7-.4,1.7.8.2.2-.2,1.5.3,1.1a16.28,16.28,0,0,1,3.2-4.6,10.71,10.71,0,0,1,.4,2.4c-.2,1-1.9,1.3-2,2.1a1.33,1.33,0,0,1,.7-.3c.1.4-.6.6-.1.9.7-.7,1,.9.8-.5.7.2.4.6,1,1,.2-.7,1.9-1.3,2.6-1.1a1.08,1.08,0,0,0-.3.7c.9.9,1.2,1.7,2.1,2.5-.1.3.2.9-.3,1,.2,0,.6-.2.9,0,0,1.1-.7-.4-1,.7.4-.4,1.3,0,1.9,0,.5-.8-.8-.9-1.5-1a3.58,3.58,0,0,1,3.7-1c1,.4-.2.9,0,.9,1.3,1.4,2.6-.7,3.2,1-.1,1-1,1.2-1.3,1.8-.8-.3-.6-1.2-1.1-1.5l.3.7c-.4,0-.9-.2-1-.5-.1.9,2.3,2.1,3,3.6.4,0,.9,0,.9-.4l-.4-.2c.1-.8,1.2-.1,1-.7.8,0,1.7-.1,2.2.7l-.5.8c.2-.2-.1-.8-.4-.7.5-.1.2,1.8,1.3,1.1l-.1-.9c.8,0,2-.3,2.4.4.3-.9-.2,0,.1-1.2-.5,1.3-1.5-1.2-1.7.3.4-1.3-.4-1-.3-2.3-.2.2-.2.6-.6.1-.1,0-.2.1-.3.1h0v.6c-.7.3-1.4-.3-1.9-.3-.2-.4.3-.2.4-.5l-.7.1c.4-.5,0-1.5.9-1.2l-.6-.5a1.41,1.41,0,0,0-1-1.2c-.2-.4-1.2,0-.6-.2l-1.2-.5.1-.1c-.9-.9-2.7-.8-3-2.7a2.07,2.07,0,0,1-1.3-.9l.3-.5c-.6-.2-.9-1.5-1.5-1.2.6-1.6-1.9-2-2.5-2.8l-.5.6a4.65,4.65,0,0,0-2-.9l-.4.6c-.9,0-1.2-1.5-2.2-2.1.2-.2.4.1.5.3-.2-2.1-3-.8-3.4-2.4a.57.57,0,0,1-.6-.4h.1l-.1-.1c-.1-.2-.1-.4-.2-.5a.75.75,0,0,0,.1.5,2.39,2.39,0,0,0-.9-.3l.3-.7h-.1c-.2-.4-.4.1-.6.7a1.27,1.27,0,0,0-.6.1c.4-1.1-1-.1-.7-1.4-.5.4-1.8-.5-2.6.5.1-.2,0-.3.2-.2-.3-.3-.6-.6-1-.5l.3-.9-1.3.7c-.2-.7-.3-1.1.5-1.5-1.6.4-1.1-.1-2.5.4l.3-.5c-.4-.1-1.2.3-1.3-.2-.3-1.4-3.8-1.8-5.6-3.4-.1,1.8-.8-1.1-1.2.2,0-.4-.2-.7.2-1-1.2,0-1.5-1.1-2.5-.2,0-.4.4-.5.3-.8-.1.1-.4.3-.5,0s.2-.3.5-.4c-1.2-.2-1.6,1-1.9,2.1-.4-.7-.7-.6-1.3,0-.1-.4-.4-.9.4-.9-.4-.1-2.3-1-2.5-.1-.1-.3-.5-.1-.7-.1a5.66,5.66,0,0,0-1.8-.3l.2.2c-.5,1.1-.7.1-1.5.2v-.1c-1.5-1-.7.3-2.2-.8v.7c-.3,1.5-1.3-1-2.3-.5l.3.4c-.5.5-1.3-2.2-1.8-2.4-.1-.1.2-.2.3-.3-1.3-.9-.2.9-1.2,1.1-.2-.5.3-1.3-.4-1.4-.4-.4-2,1.6-2.9.7.2.4.4.8,0,1.1-.7.2-2-1.4-2.6-.1a.37.37,0,0,1-.1-.3c-.5.4-1.7.7-2,1.4-.8-2.5-3.2,1.6-3.4-.7a9.36,9.36,0,0,0-1.6.4v-.2a1.48,1.48,0,0,0-1.6,1.2c-.3-.1-.1-.4-.1-.5-1.6-.2-1.8,0-2.8,1.3l-.3-.7c-.2.5-2.5-.6-3.7.6a.76.76,0,0,1,.1-.4c-1.4,1.3-4.6-.9-4.4,1.9l-.9,1c1.4-.2.2,1.2.9,1.4-.5.3-1.6-.3-1-.7l.1.1c-.2-1.4-1.9.1-2.1-.8-2.7,1-5.5,1.3-8,2.3l.7.9-.9.3c-.3-.1-.7-.7,0-.9-.6-.4-.8.9-.7,1.2-1.4.1-.1-1.4-.4-1.2l-.5.3.2.1c-.2.6-.1,1-.8,1.3-.6,0-.5-.5-.7-.5,0-.1-.1-.1-.3.1l-1.1.4.8.6c-.3.6-1,.4-.1,1.1-1.4-1-4.1,1.5-4.8,1.3-.3.9-1,1.2-1.8,1.6.3.1.9.8.1,1.1-.7-1.9-1.6-.1-2.9-1,1,.6-1.8,1.3-.3,2-.6.2-.4-.6-1.1-.8-.9,1.4-3.1,1.3-4.6,2.5.1.2.6.4.5,1l-1.5-.6c-.2.3.5,1.5-.5,1.1.2.1.5.3.3.5-3.8.9-5.6,5-10,5.1.7.1.5.4.2.6.3,0,.4.5.6.8l-1.8.1c.3,1-1.3,1-.9,1.9l.3-.4c.1,1.3,2.2,1.5,2.9,2.7-.1-1.5,2.6.4,2.6-1.7.4.1.1.5.4.7-.1-.7.1-1,.8-1.1v.2c1.5-1.2,2.5-1.1,4.4-2l-.5-.5c.4-.2.6,0,.9,0-.2-1.2-1.1.7-1.4-.6,1.3.9,2.7-1.7,3.9-.6.6-.4-.6-.6,0-.9l.4.3-.2-.6c.4-.2.9.2,1.1.5-.1,0-.2.3-.3.3.8.1,1.3-1,1.6-1l-.7.1c1.4-1.4,3.6-2,4.8-3.7l-.3-.2c.9-1.2,1.2-.2,2.3-1.2v.1a1.59,1.59,0,0,1,.8-1c-.1.5,1,.3.8.9,1-1.3.4-.8.7-2.4l.5.4c.1-.6,0-.8.6-1.3-.3.7.8.5.5,1.4,2,.3,1.6-2.2,3-.9,0-1.7-1.6-.2-1.4-.6-.5-.3,0-1.3.6-1.4s1.6,1.4,2.8.8c-.1,0-.1.2-.2.2.6.2.6-.9,1.4-.5-.1-1,.7-.3.3-1.4l-1,.7c.5-.6.5-2.1,1.8-1.9a2.39,2.39,0,0,1-.3.9c.4.2.5-.5.9-.3.4,1.1-1.2.8-1.5,1.9.5.3.9-1.3,1.1,0-.2-1.7,1.2-.3,1.5-1.8l.2.7c.1-.2.2-.6.4-.7l-.1,1c.3-1,1.5.1,1.9-.5-1.3.5-.6-.7-1.4-.9,1.3-1.5,1.6,1.4,3.3.4-.2.2-1.1,0-.8-.5a2.2,2.2,0,0,1,1.3.4c1.1-.6-.4-.6-.1-1.2.7.7.5-.5.9-1l.2.7c1.5,0-.1-1.6,1.3-1.5l-.2,1.1.6-.5.1.8c.5-.8.8-.7,1.5-.7-.3-.4-.3-1.3.3-1.5.5.3,0,.7.8.4-.1.5-.1,1.1-.7.6,0,.2-.1.5,0,.7.6.3,1.2-.2,1.5-.3a.6.6,0,0,1-.4-.1l1-1.3c.3.2.2.5.1.7.2-.1.3-.5.7-.7.1.6.2,1.2-.2,1.6l1-1c.1.2.8.5.7.8.7.2,1.4-1.5,2.4-1.3,0-.1.1-.2.3-.4.9,0,1.7.5,2.6-.5l.8.9c.7-.4-1-1.2.2-1.8.9-.5.5.8.9,1.1.4-.6,1-1.8,2-1.1C465,225.2,464.8,225.1,464.5,225.2Zm9.8-1.2c-.2.2-.6.6-.7.2C473.8,223.4,473.9,223.8,474.3,224Zm15.1-.1c-.2.2-.4,0-.6-.3A.86.86,0,0,1,489.4,223.9Zm39.4,18.3h0C528.7,241.7,528.7,241.9,528.8,242.2Zm.5.9a.22.22,0,0,0,.2-.2c-.2.1-.3,0-.5-.2A.37.37,0,0,0,529.3,243.1Zm-93.9-15.7.2.1C435.3,227.8,435.3,227.6,435.4,227.4Z"/><path class="cls-1" d="M487.5,224.5v-.4A.3.3,0,0,0,487.5,224.5Z"/><path class="cls-1" d="M458.6,226.6h0v0Z"/><path class="cls-1" d="M514.5,238.6a1.09,1.09,0,0,1-.1-.5C514.3,238.3,514.3,238.4,514.5,238.6Z"/><path class="cls-1" d="M533.8,245.2l-.6-.2c.2.1.2.3.3.5C533.6,245.4,533.7,245.1,533.8,245.2Z"/><path class="cls-1" d="M535.1,251.8c.1,0,.2.1.3.1l.2-.3C535.2,251.4,534.9,251.5,535.1,251.8Z"/><path class="cls-1" d="M532.8,247.4c-.3.5.1.6.5.7h-.1C533.8,247.5,533.3,247.5,532.8,247.4Z"/><path class="cls-1" d="M533.3,248.2c.1.1.2.1.3.2C533.9,248.2,533.5,248.3,533.3,248.2Z"/><path class="cls-1" d="M530.5,243.5c0,.2.6-.5.5-.3C531.7,242.8,529.4,243.1,530.5,243.5Z"/><polygon class="cls-1" points="531.8 249.2 532.1 248.5 531.6 248.8 531.8 249.2"/><path class="cls-1" d="M529.6,246.7l.4.6a.37.37,0,0,1,.3-.1C530,246.9,529.7,246.5,529.6,246.7Z"/><path class="cls-1" d="M530.2,247.2c.2.1.3.3.5.2C530.6,247.4,530.4,247.2,530.2,247.2Z"/><polygon class="cls-1" points="530.9 248.8 530.9 248.5 530.5 248.2 530.9 248.8"/><path class="cls-1" d="M524.2,242l-.7-.3c-.2.1-.2.4.1.5C523.9,242.1,524.1,242.2,524.2,242Z"/><path class="cls-1" d="M524.6,245a1.27,1.27,0,0,1,.1-.6l-.6.7Z"/><path class="cls-1" d="M522.8,243.8c-.2.2-1.3-.1-.5.4C522.5,244.1,523.2,244.4,522.8,243.8Z"/><polygon class="cls-1" points="515.2 235.9 515.3 236.1 516.2 234.8 515.2 235.9"/><path class="cls-1" d="M505.4,233.5c.5.8.7-.7,1,.1.4-.2-.3-.7,0-.8C505.9,232.8,505.8,232.5,505.4,233.5Z"/><path class="cls-1" d="M506.5,232.8a.37.37,0,0,0,.3-.1A.37.37,0,0,0,506.5,232.8Z"/><polygon class="cls-1" points="405.7 244.4 405.1 244.5 405.7 244.7 405.7 244.4"/><path class="cls-1" d="M405.5,246l-.7-.7.2.9C405.1,246,405.3,245.8,405.5,246Z"/><path class="cls-1" d="M475.7,226v-.2c-.1-.3-.2-.3-.4-.3Z"/><polygon class="cls-1" points="468.7 225.5 468.8 225.5 468.5 224.6 468.7 225.5"/><path class="cls-1" d="M463,227.3c.2,0,.5-.2.7-.2C463.2,227.3,462.8,226.3,463,227.3Z"/><path class="cls-1" d="M549.9,194.8c.2-.2-.3-.5-.3-.6C549.4,194.6,550,194.9,549.9,194.8Z"/><polygon class="cls-1" points="547.8 199 547.6 198.7 547.6 199.6 547.8 199"/><path class="cls-1" d="M544.9,201.9c1,.5.9-1.2,1.7-1.5l.3.1-.4-.8C545.9,200.5,545.5,201.7,544.9,201.9Z"/><path class="cls-1" d="M541.7,202c.4.2-.1.6.4-.3H542C541.9,201.8,541.8,201.8,541.7,202Z"/><path class="cls-1" d="M542,201.7c.3-.4-.5,0,0,0Z"/><path class="cls-1" d="M540.8,203.3l.1-.7c-.3-.1-.7.3-.7,0C540,203.2,540.2,203.3,540.8,203.3Z"/><path class="cls-1" d="M541,204.3l.1-.3C540.9,203.9,540.9,203.9,541,204.3Z"/><path class="cls-1" d="M541.2,203.3l-.2.7c.2.1.4.3.1-.3C541.4,203.9,541.2,203.6,541.2,203.3Z"/><path class="cls-1" d="M541.6,203.1c.4-.1.8-.3.7.4C542.9,202.6,542.3,202.2,541.6,203.1Z"/><path class="cls-1" d="M545.5,202.9l.5-.1v-.5C546.1,202.5,545.3,202.6,545.5,202.9Z"/><path class="cls-1" d="M537.9,205.6c.1.2.6.3.8.4l.1-.5C538.6,205.6,538.2,205.8,537.9,205.6Z"/><path class="cls-1" d="M538.8,206l-.1.7C539,206.4,539,206.2,538.8,206Z"/><polygon class="cls-1" points="541.8 205.1 541.9 203.8 541.6 205.3 541.8 205.1"/><polygon class="cls-1" points="536.3 207.4 536.1 206.8 536.3 207.8 536.3 207.4"/><path class="cls-1" d="M535.3,208.7c-.1-.5-.8-.2-.8-.6a3.18,3.18,0,0,0-.2,1.4A1.09,1.09,0,0,1,535.3,208.7Z"/><path class="cls-1" d="M534.3,210.2v-.7A.85.85,0,0,0,534.3,210.2Z"/><path class="cls-1" d="M537.8,207.5a1,1,0,0,0-.8-.1l.6.2C537.7,207.6,537.7,207.6,537.8,207.5Z"/><path class="cls-1" d="M537.7,207.7h0c-.2.2-.4.3-.4.4C537.3,208,537.4,207.9,537.7,207.7Z"/><path class="cls-1" d="M540.2,206c0,.5-.2,1.4.7,1.2C540.8,206.7,540.2,206.8,540.2,206Z"/><path class="cls-1" d="M538.7,207.8l.6-.4c-.1-.1-.4-.2-.4-.4Z"/><polygon class="cls-1" points="538.6 208.2 538.7 207.8 538.4 207.9 538.6 208.2"/><path class="cls-1" d="M535.5,209.7a1.78,1.78,0,0,1-.4,1,3.51,3.51,0,0,0,.9-.7C535.9,209.8,535.8,209.4,535.5,209.7Z"/><path class="cls-1" d="M536.6,208.8h0C536.6,208.9,536.7,208.8,536.6,208.8Z"/><path class="cls-1" d="M536.2,210a.4.4,0,0,0,.2-.6,2.09,2.09,0,0,1-.4.6C536.1,210,536.1,210.1,536.2,210Z"/><path class="cls-1" d="M533.8,211.1c.2,0,.4-.1.6-.1C534.2,211,533.8,211,533.8,211.1Z"/><path class="cls-1" d="M536.4,208.8h0C536.2,208.7,536.3,208.8,536.4,208.8Z"/><path class="cls-1" d="M536.4,208.8v.5c.1-.2.1-.3.2-.5A.14.14,0,0,1,536.4,208.8Z"/><path class="cls-1" d="M535.1,216.9a.82.82,0,0,1,.6-1.4c.1-.8-1.7-1.8-2.8-2.1.2.2.4.3.2,1.1.4,0,1.5-.6,1.6.2-.4.9-.6.4-1.2.5.8.2.1,1.6,1,2.1l.2-.8C534.9,216.5,534.9,216.9,535.1,216.9Z"/><path class="cls-1" d="M533.8,212.5l.1-.3a2,2,0,0,1-1.2.2,1.07,1.07,0,0,0,.1.9l1-1Z"/><path class="cls-1" d="M534.7,211.3c.3.6.1,1.3.9,1.4.5-.6,0-.8.1-1.3-.8,1.1,0-.5-1-.1.1-.2.3-.4.4-.6a4.88,4.88,0,0,1-.7.3h.1c.1.1.2.2.2.3-.4.2-.2-.1-.1-.2a.1.1,0,0,0-.1-.1h0l-.6,1.2A2.44,2.44,0,0,0,534.7,211.3Z"/><path class="cls-1" d="M541.5,208.6c-.1,0-.1,0-.1-.1C541.3,208.6,541.4,208.7,541.5,208.6Z"/><path class="cls-1" d="M540.8,208.7c0-.1-.1-.4.1-.5s.2.2.4.3c0-.3.1-.8-.5-.6v.1a3.06,3.06,0,0,1-1.6.1A5.23,5.23,0,0,0,540.8,208.7Z"/><path class="cls-1" d="M537.9,210.1l-.5,1h.8l-.3-.2C538.4,210.5,538,210.4,537.9,210.1Z"/><polygon class="cls-1" points="532.4 213.2 532 212.7 532.3 213.8 532.4 213.2"/><polygon class="cls-1" points="531.6 214.3 531.2 213.9 531.2 214.4 531.6 214.3"/><path class="cls-1" d="M475.6,270.2l-.3.3Q475.6,270.35,475.6,270.2Z"/><path class="cls-1" d="M478,269.6v-.3C477.9,269.4,477.9,269.6,478,269.6Z"/><path class="cls-1" d="M508.7,239.7c-.7-.1-1.7-.3-1.2.1l.6.4A.74.74,0,0,1,508.7,239.7Z"/><path class="cls-1" d="M493.7,257.9c.1,0,.1.1.2.1,0-.2-.1-.5-.1-.7A1.27,1.27,0,0,1,493.7,257.9Z"/><path class="cls-1" d="M495,260.3h-.8A1.1,1.1,0,0,0,495,260.3Z"/><path class="cls-1" d="M463,273.5l-.3.7C463.3,274.1,463,273.8,463,273.5Z"/><path class="cls-1" d="M522.3,225.3a1.52,1.52,0,0,0-.9.5C522,225.6,522.6,225.7,522.3,225.3Z"/><path class="cls-1" d="M474.6,263.3c-.1.2-.2.3-.1.5C474.6,263.6,474.7,263.4,474.6,263.3Z"/><path class="cls-1" d="M520.6,226.6a.37.37,0,0,0,.3-.1,1.37,1.37,0,0,1,.5-.8C520.9,225.8,520.5,226,520.6,226.6Z"/><path class="cls-1" d="M417.8,261v-.1C417.7,260.9,417.8,261,417.8,261Z"/><path class="cls-1" d="M411.4,247.6c.1,0,.3.2.5.3A1.07,1.07,0,0,0,411.4,247.6Z"/><path class="cls-1" d="M527.6,218.4c.2-.3,0-.1,0,0Z"/><path class="cls-1" d="M530.5,219c0,.1.1.2.2.3C530.6,219.2,530.5,219.1,530.5,219Z"/><path class="cls-1" d="M521.6,231.5Z"/><path class="cls-1" d="M528.2,218.2a.76.76,0,0,0-.4.2Z"/><path class="cls-1" d="M527.9,218.1c.1-.1.2-.1.2-.2S528,217.8,527.9,218.1Z"/><path class="cls-1" d="M527.4,218.7a1.38,1.38,0,0,1,.4-.3h-.1Z"/><path class="cls-1" d="M441,271.1h0C440.6,271.2,440.7,271.2,441,271.1Z"/><path class="cls-1" d="M507.9,249.9Z"/><path class="cls-1" d="M507.4,251c-.2-.9.1-1,.4-1.1l-1.5-1.1Z"/><path class="cls-1" d="M470.1,271.7l.9.4c-.7,1.1-1.5.9-.6,1.6-.3-2,3-.9,2.6-2.9l.6.3c-.1,0-.1.1-.3.2,1.2.7.4-1.6,1.7-1.6.5,0,.9.2.6.5l.8-.8c.3,0,.3.3,0,.4l1.4-.6v.1a5.17,5.17,0,0,1,.6-1.3c.5.2-.1.3.1.5l.6-.7c.5.4,0,1.1-.6,1.2,1.4,1.7.5-.7,2.5-.2l-.7.5c.9.9,1.4.3,2.5.6-.4-.2-2.4-1-1.7-1.8.3.1.6,0,1-.6.3.7.7.3,1.2.1l.3.9c.5-.5.3-.9.5-1.5.7-.2,1.2.4,1.6.9,1.2-.4-1.2-.7,0-1.5,1-.1,1.5-.7,2.3-1.8.8,0,.2.6.5.7l.2-1c.1-.1.2.2.2.3.3-.5-.4-.9.2-1.5-.3-1,2.2.5,2.4-1,.4.1.2.6.5.8a5.24,5.24,0,0,0,1-2.6h1.1c-1-.2-.7-1.4-.5-2.4a9.2,9.2,0,0,0-.9-.3l.7-1.1c.2,0,.3.4.4.8V257c.6,0,.7.6.8,1.2-.2-.1-.5-.1-.7-.2a3.85,3.85,0,0,0,.6,1.8.76.76,0,0,1,.2-.4.52.52,0,0,0,.2.4c.1.1.1-.2.1-.5l.8.7-.2-.4,1.7-.4c.3-1.6.1-3.4,1.2-4.9.2.9.7,1.1,1.3,1.8-1-.4-.8,1.2-1.7,1.6.5-.2.6.2.6.4.3-.6.5-1.2.8-1.7.4.6.6.2,1.2.2-1.2-1,.3-1.6.6-2.4.4.4.6.9-.2,1.3,1.4.3-.2-2.1,1.1-1.9-.1.1-.3.2-.2.4.1-.6,1.2-1.1,1.2-.6l-.1.1c1.1-.7,3.1-2.7,2.3-3.8.1.1.9,1.3,1,1.5-.4-1.6-.7-3.2-1.2-4.8.6.9,3,2.3,2.6,3.5a1.24,1.24,0,0,0,1-1c-.3,0-1.5-.8-1.3-1.1a6,6,0,0,0,2.3.1c-.4.1-1.3-1.4-.9-1.7.1.2,1.2,1.2,1.2,1.4l-.3-2.1c0,.4,1,1.1,1.5,1.2-.3-.1.8-.8.9-1.1l-.7.1c1.2-.8-.7-2.7.4-3.6.1.4,1.2,1.8,1.9,1.4-.4-.8-2-4-1.6-5.3l.5.2.3-1.1a38,38,0,0,1,1.5,5.8c.7-.1.5.3,1.1-.3.5.1.2.8.1,1l1.5-1.2c-.8-.6.3-1.7-.4-2.3l-.7,2.2c-.8-.6-1.2-2.8-.2-3.7.5,0,1.1,1.4,1.4,1.6-.1-.4.4-1.4.6-1.3v.8c.8-.3-.2-1.8,1.2-1.8.3-.2,1.6.2,1.2-.2a12.91,12.91,0,0,1-4.3-3.6,13.06,13.06,0,0,1,2.5-.3c1,.2,1.1,2,1.9,2.2a1.33,1.33,0,0,1-.3-.8c.4-.1.5.7.9.1-.7-.8,1-1-.4-.8.2-.7.6-.4,1.1-1a2.71,2.71,0,0,1-.9-2.7,2.51,2.51,0,0,0,.7.4c1-1,1.8-1.2,2.7-2.2.3.1.9-.2,1.1.3,0-.3-.2-.6.1-.9,1.2,0-.5.8.7,1-.4-.4.1-1.3.2-2-.8-.5-1,.9-1.1,1.5a3.81,3.81,0,0,1-.8-3.9c.5-1,.9.2.9-.1,1.5-1.4-.5-2.8,1.3-3.4,1,0,1.2,1,1.8,1.3-.3.9-1.3.7-1.6,1.1l.8-.3c0,.4-.2,1-.6,1,.9.1,2.4-2.5,3.9-3.2,0-.4.1-.9-.3-1l-.2.4c-.8-.1-.1-1.3-.7-1,.1-.8,0-1.8.9-2.3l.8.5c-.2-.2-.8.1-.8.5-.1-.6,1.9-.3,1.3-1.4l-.9.1c.1-.8-.1-2.1.7-2.5-.9-.3,0,.2-1.2,0,1.3.5-1.4,1.6.1,1.9-1.3-.4-1.1.4-2.4.3.2.2.6.2.1.6,0,.1.1.2.1.3h.7c.3.7-.4,1.5-.4,2.1-.4.2-.1-.4-.5-.4v.8c-.5-.4-1.6.1-1.2-.9l-.6.6a1.65,1.65,0,0,0-1.3,1.1c-.4.2-.1,1.3-.3.7l-.6,1.3-.1-.1c-1,1-1,2.8-2.9,3.2a2.46,2.46,0,0,1-1,1.4l-.5-.3c-.2.6-1.6.9-1.3,1.5-1.6-.6-2.1,1.8-3,2.4l.5.5a6.22,6.22,0,0,0-1.2,2l.5.4c-.1.9-1.7,1.1-2.4,2-.1-.2.1-.4.4-.5-2.1,0-1.3,2.9-3,3.1a.47.47,0,0,1-.5.5v-.1l-.1.1a1.27,1.27,0,0,0-.6.1h.5a1.93,1.93,0,0,0-.5.9l-.6-.4v.1c-.4.1,0,.4.6.7a1.63,1.63,0,0,0,0,.7c-1-.6-.4,1-1.6.4.3.6-1,1.6-.3,2.7-.1-.1-.3-.1-.1-.2-.4.2-.8.4-.8.9l-.8-.5.2,1.5c-.8,0-1.2-.1-1.3-1-.2,1.7-.5,1-.6,2.5l-.4-.5c-.3.3-.2,1.3-.7,1.1-1.4-.3-3.4,2.8-5.8,3.4,1.4,1.1-1.3.1-.5,1.2-.4-.2-.7-.2-.7-.7-.6,1-1.7.5-1.7,1.9-.4-.3-.2-.6-.4-.8,0,.1-.1.5-.3.4s-.1-.4,0-.6c-.9.7-.2,1.8.4,2.8-.8-.1-1,.1-.9,1-.4-.2-.9-.3-.4-.9-.4.2-2.4.9-1.9,1.7-.2-.1-.5.3-.5.4a8.27,8.27,0,0,0-1.6.9h.3c.3,1.2-.5.6-1.1,1.1v-.1c-1.9,0-.4.7-2.3.6l.4.6c.5,1.5-1.7-.2-2.3.7l.5.2c-.3.7-2.2-1.3-2.7-1.3-.2-.1.1-.3.2-.4-1.6-.4.2.9-.6,1.5-.4-.4-.3-1.3-.9-1.1-.4-.2-1.2,2.2-2.4,1.6.3.3.6.6.3,1-.6.4-2.3-.8-2.5.5-.1-.1-.2-.2-.2-.3-.4.5-1.6,1-1.7,1.7-1.1-2.3-3.1,2-3.6-.3l-1.6.4v-.2a1.88,1.88,0,0,0-1.7,1.3c-.3-.1-.1-.4-.1-.5-1.7-.2-1.8-.1-2.9,1.2l-.2-.7c-.3.5-2.4-.9-3.9.2a.76.76,0,0,1,.1-.4c-1.7,1.1-4.4-1.7-4.8,1.1l-1.1.8c1.5.1-.1,1.2.5,1.6-.6.2-1.6-.8-.9-.9l.1.1c.2-1.4-1.9-.5-1.8-1.4h-1.1c-.3,0-.7-.1-1-.1a11.8,11.8,0,0,1-2-.4c-1.3-.4-2.6-.8-3.8-1.1l.1,1.1-.9-.3c-.2-.3-.1-.9.5-.7-.2-.7-1.2.3-1.3.5-1.1-.8.8-1.1.4-1.2a.75.75,0,0,1-.5-.1l.1.2c-.5.3-.7.7-1.5.4-.4-.4,0-.7-.2-.8,0-.1,0-.1-.3-.1a5.36,5.36,0,0,1-1.1-.5l.1,1c-.6.2-1-.5-.9.7-.1-.9-1.1-1.4-2.1-1.8s-2-.8-2.1-1.1a2.63,2.63,0,0,1-2.4-.6c.1.3-.2,1.2-.9.7.6-.8.4-1.2.1-1.5s-.8-.7-.7-1.5c0,1.1-2-1-2,.7-.5-.5.4-.7.2-1.3-1.7-.2-2.6-2.3-4.3-3.2-.2.2-.1.7-.7.8l-.1-1.7c-.4-.1-1.2,1-1.2-.1-.1.2-.1.6-.4.5-2.3-3.3-6.9-4-8.5-8.4.1.7-.2.6-.5.3.1.3-.4.5-.6.8l-.7-1.8c-.9.6-1.4-1.1-2.2-.4l.5.2c-1.2.4-.8,2.6-1.8,3.6,1.4-.5.4,2.8,2.6,2.2,0,.4-.5.2-.6.6.6-.3,1-.1,1.4.5l-.2.1c1.7,1.2,2,2.2,3.6,4l.3-.7a2.26,2.26,0,0,1,.4.9c1.1-.5-1.1-.9.1-1.5-.4,1.6,2.8,2.2,2.2,3.7.6.5.3-.8.9-.3l-.1.5.5-.3a1,1,0,0,1,0,1.3c-.1-.1-.3-.1-.5-.2.2.8,1.6,1,1.7,1.2l-.5-.7c2,.9,3.8,2.9,6.1,3.2v-.4c1.7.3.9,1,2.5,1.6h-.1a2.2,2.2,0,0,1,1.4.2c-.6.1.4,1.1-.4,1.2,1.9.2,1,0,2.6-.6v.6a1.71,1.71,0,0,1,1.6-.3c-.8.1.1,1-.9,1.2,1.2,1.9,3,0,3.1,2,1.4-1.1-1.2-1.4-.6-1.5-.2-.6,1.1-.8,1.5-.5s.2,2.2,1.7,2.7c-.1-.1-.2.1-.3,0,.4.5,1.2-.2,1.7.7.6-.8.9.3,1.3-.8-.5,0-.9-.1-1.4-.1.8,0,1.9-1.2,2.9-.3-.1.2-.6.4-.9.5.3.4.8-.1,1.1.4-.4,1.1-1.7-.1-2.8.5.3.6,1.8-.4,1,.7,1-1.4,1.4.6,2.7-.4l-.2.7c.2-.1.6-.4.9-.3l-.7.8c1-.6,1.5.9,2.4.6-1.7-.2-.3-.9-.9-1.5,2.2-.6.9,2.1,3.4,1.9-.3.1-1.2-.5-.7-.8a3.81,3.81,0,0,1,1.3.9c1.6-.1-.2-.7.5-1.1.5.9.8-.3,1.4-.6v.7c1.8.4.4-1.5,2-1l-.6,1,.8-.3-.1.8a2.14,2.14,0,0,1,2-.4,1,1,0,0,1,.7-1.4c.5.4-.2.7.8.5-.2.5-.4,1.1-.9.4,0,.2-.2.5-.2.7.6.4,1.4,0,1.8,0a.6.6,0,0,1-.4-.1l1.4-1.1c.3.3.1.5-.1.7.3-.1.5-.4.9-.6-.1.6,0,1.2-.6,1.5.5-.3.9-.5,1.4-.8.1.2.8.6.7.8.9.2,1.8-1.4,3-1,0-.1.1-.2.4-.4,1,0,2,.6,3.1-.4l.9.9c.9-.4-1.1-1.1.3-1.8,1-.5.6.8,1,1,.5-.6,1.2-1.9,2.3-1.2A6.53,6.53,0,0,1,470.1,271.7Zm11.2-3.6c-.2.2-.4.8-.7.5C480.5,267.7,480.8,268,481.3,268.1Zm14.6-10c0,.3-.3.3-.7.3A.91.91,0,0,1,495.9,258.1Zm30-36.9h0C525.4,221.4,525.6,221.4,525.9,221.2Zm.9-.5a.22.22,0,0,0-.2-.2c.1.2,0,.4-.3.5C526.6,221,526.8,221,526.8,220.7Zm-87.4,44.8.1.2C439,265.8,439.2,265.7,439.4,265.5Z"/><path class="cls-1" d="M494.9,260l-.3-.3Q494.45,260,494.9,260Z"/><path class="cls-1" d="M463,273.3h0l-.1.1Z"/><path class="cls-1" d="M521.1,236.4a.45.45,0,0,1-.5,0C520.6,236.6,520.8,236.6,521.1,236.4Z"/><path class="cls-1" d="M529.4,215.9l-.3.6c.2-.3.4-.2.6-.3C529.6,216.1,529.3,216,529.4,215.9Z"/><path class="cls-1" d="M536.5,214.6c0-.1.1-.2.1-.3l-.3-.2C536.1,214.4,536.1,214.8,536.5,214.6Z"/><path class="cls-1" d="M531.6,217c.5.4.6-.1.8-.5l-.1.1C531.8,215.9,531.7,216.4,531.6,217Z"/><path class="cls-1" d="M532.5,216.4l.3-.3C532.5,215.8,532.6,216.2,532.5,216.4Z"/><path class="cls-1" d="M527.4,219.4c.3-.1-.5-.6-.2-.5C526.7,218.2,526.9,220.6,527.4,219.4Z"/><polygon class="cls-1" points="533.4 218 532.7 217.7 533 218.3 533.4 218"/><path class="cls-1" d="M530.6,220.4l.6-.4a.37.37,0,0,1-.1-.3C530.9,220,530.4,220.2,530.6,220.4Z"/><path class="cls-1" d="M531.2,219.6c.2-.2.3-.3.3-.5A.85.85,0,0,0,531.2,219.6Z"/><polygon class="cls-1" points="532.9 218.9 532.6 219 532.3 219.3 532.9 218.9"/><path class="cls-1" d="M525.4,226.1l-.4.7c.1.2.4.2.5-.1S525.7,226.2,525.4,226.1Z"/><path class="cls-1" d="M528.5,225.7c-.3.1-.4,0-.7-.1l.7.6Z"/><path class="cls-1" d="M527.2,227.5c.1.2-.2,1.3.4.6C527.4,227.8,527.8,227.1,527.2,227.5Z"/><polygon class="cls-1" points="518.4 235.6 518.5 235.4 517.3 234.4 518.4 235.6"/><path class="cls-1" d="M513.7,245.7c.9-.4-.5-.8.4-1.1-.1-.4-.8.2-.8-.1C513.2,245.1,512.8,245.2,513.7,245.7Z"/><path class="cls-1" d="M513.3,244.4v0Z"/><polygon class="cls-1" points="410.2 245.6 409.9 245 409.9 245.6 410.2 245.6"/><path class="cls-1" d="M408.6,245.8l.5-.8-.8.5C408.4,245.5,408.6,245.5,408.6,245.8Z"/><path class="cls-1" d="M483.6,269.2V269c-.2-.2-.3-.2-.6-.1Z"/><polygon class="cls-1" points="475.1 271.3 475.3 271.3 474.8 270.5 475.1 271.3"/><path class="cls-1" d="M468.3,274c.3,0,.6-.3.9-.3C468.6,274,468,272.9,468.3,274Z"/><path class="cls-1" d="M428.6,245.5c.1,0-.6.1-.7.2C428,245.6,428.7,245.5,428.6,245.5Z"/><polygon class="cls-1" points="429.9 245.1 429.7 245.1 430.3 245.1 429.9 245.1"/><path class="cls-1" d="M429.9,245.2c1.1,0-.2-.1.2-.1h-.7C429.7,245.2,430.2,245.2,429.9,245.2Z"/><path class="cls-1" d="M427.6,245.2h0Z"/><path class="cls-1" d="M427.6,245.2Z"/><path class="cls-1" d="M427.9,245.2h0Z"/><path class="cls-1" d="M428.6,245.3h-.2C428.4,245.2,428.3,245.2,428.6,245.3Z"/><path class="cls-1" d="M428.1,245.2h.2C428.7,245.3,428.4,245.2,428.1,245.2Z"/><path class="cls-1" d="M428.3,245.2h0Z"/><path class="cls-1" d="M431,245.3h0Z"/><path class="cls-1" d="M427.3,245.2c.2,0,.6.1.9.1H428A1.48,1.48,0,0,0,427.3,245.2Z"/><path class="cls-1" d="M428.2,245.3h0Z"/><path class="cls-1" d="M429.8,245.4l-.8-.1Z"/><polygon class="cls-1" points="427.3 245.2 426.8 245.1 427.5 245.2 427.3 245.2"/><path class="cls-1" d="M427.3,245.2a3.44,3.44,0,0,0-.9-.1,5.64,5.64,0,0,0,.7.1Z"/><path class="cls-1" d="M427.6,245.3a.6.6,0,0,1-.4-.1A1.58,1.58,0,0,1,427.6,245.3Z"/><path class="cls-1" d="M428.4,245.3c-.1,0-.5,0-.6-.1l.6.1Z"/><path class="cls-1" d="M428.4,245.3Z"/><path class="cls-1" d="M429.2,245.4c.3,0,.7.1,1.2.1A4.48,4.48,0,0,0,429.2,245.4Z"/><path class="cls-1" d="M429.2,245.4h.2a1.27,1.27,0,0,1-.6-.1Z"/><polygon class="cls-1" points="429.4 245.4 429.2 245.4 429.1 245.4 429.4 245.4"/><path class="cls-1" d="M428.1,245.3c.3,0,.3,0,.3.1h.2A4.33,4.33,0,0,1,428.1,245.3Z"/><path class="cls-1" d="M428.3,245.3Z"/><path class="cls-1" d="M428.4,245.4h0Z"/><path class="cls-1" d="M428.7,245.4h0Z"/><path class="cls-1" d="M427.8,245.3h0Z"/><path class="cls-1" d="M428.2,245.3Z"/><path class="cls-1" d="M428.2,245.3a.76.76,0,0,1,.4.1h-.2A.31.31,0,0,0,428.2,245.3Z"/><path class="cls-1" d="M432.1,246.1c-.7-.1-1.1-.2-.5-.1-.4-.1-2.2-.4-3.1-.5.2,0,.4.1.7.1a7.38,7.38,0,0,1,1.2.2c.2.1-.2,0-.5-.1.3.1.6.1.8.2s.6.1,1.1.2l-.4-.1C431.6,246,431.9,246.1,432.1,246.1Z"/><path class="cls-1" d="M428.6,245.4h0c-.2,0-.4-.1-.8-.1a3.54,3.54,0,0,1,.6.1Z"/><path class="cls-1" d="M428.5,245.4c.6.1.8.1,1.5.2a5.64,5.64,0,0,0-.7-.1c.1.1-.4,0-.8-.1h0a.6.6,0,0,1-.4-.1h.1c.2.1.2.1.3.1h0Z"/><path class="cls-1" d="M431.7,245.6h0Z"/><path class="cls-1" d="M431.3,245.6h.2c-.2,0-.4-.1-.7-.1h.1c-.2,0-1-.1-1.1-.1A8.87,8.87,0,0,0,431.3,245.6Z"/><path class="cls-1" d="M430.1,245.6l.3.1.5.1h-.3C430.7,245.6,430.3,245.6,430.1,245.6Z"/><polygon class="cls-1" points="428.1 245.4 427.5 245.3 428.3 245.4 428.1 245.4"/><polygon class="cls-1" points="428.1 245.4 427.6 245.3 427.9 245.4 428.1 245.4"/><path class="cls-1" d="M435.8,244h0Z"/><path class="cls-1" d="M435.7,243.9h0Z"/><path class="cls-1" d="M427.8,245.2h0C427.6,245.1,427.7,245.1,427.8,245.2Z"/><path class="cls-1" d="M431.3,244.3h.2c-.2,0-.4.1-.6.1C431.1,244.4,431.2,244.3,431.3,244.3Z"/><path class="cls-1" d="M434,243.9l-.4.1A.76.76,0,0,1,434,243.9Z"/><path class="cls-1" d="M436.5,245h0Z"/><path class="cls-1" d="M428.1,245.5a.44.44,0,0,1-.3-.1C428,245.5,428.5,245.6,428.1,245.5Z"/><path class="cls-1" d="M428.9,244.8h0Z"/><path class="cls-1" d="M427.7,245.4h0C427.5,245.4,427.4,245.3,427.7,245.4Z"/><path class="cls-1" d="M434.6,247.5Z"/><path class="cls-1" d="M427.8,245.4Z"/><path class="cls-1" d="M430,245.8c.1,0,.1,0,.3.1A.44.44,0,0,1,430,245.8Z"/><path class="cls-1" d="M430.6,246Z"/><path class="cls-1" d="M428.1,245.5h-.2C427.9,245.4,428,245.4,428.1,245.5Z"/><path class="cls-1" d="M427.8,245.4Z"/><path class="cls-1" d="M433.5,246.2h0C433.7,246.3,433.7,246.2,433.5,246.2Z"/><path class="cls-1" d="M434.1,244.6c-.8.1-.8.1-.5.1l-2,.1Z"/><path class="cls-1" d="M436,244.4l.6-.1a6.48,6.48,0,0,0,1.4,0c-2,.1-.2-.3-2.2-.1l.4-.1h.1c.7-.1-.3,0-.9,0h-.3a5.64,5.64,0,0,1,.7-.1h-.5s.4-.1.4,0l-.2-.1h.1c-.3,0-.8.1-1.1.1.3-.1.2,0,.5-.1h-.5a5.81,5.81,0,0,1,1-.1c2-.3-.5,0,.5-.2h.3c1.1-.2.7-.2,1.3-.3-.4.1-1.7.3-2.3.4.1,0,.2-.1-.2,0,.7-.1.5-.1.4-.1l.9-.1a6,6,0,0,0-1.2.2c.1,0,.8-.2,1.4-.3a11.28,11.28,0,0,1-1.4.2c.3-.1-.1,0-.7.1a2.49,2.49,0,0,1,.8-.1l-.8.1a1,1,0,0,0,.4-.1,6,6,0,0,1-1.2.2c-1.1.2,1.4-.2.2,0a2.92,2.92,0,0,0,.9-.2c-.8.2-.6.1-1.7.3l.6-.1c-.7.1-1.6.3-2.3.4-.3,0-.5.1-.7.1l-.5.1a5.64,5.64,0,0,1,.7-.1h-.2c.3-.1.8-.1,1.3-.2-.2,0-.4.1-.6.1l1.8-.3a.37.37,0,0,0-.3.1c.2,0,.3,0,.4-.1s-.1,0-.4.1l1-.2-.4.1h.6l-3.2.6c.8-.1,1.3-.2,2.2-.3-1,.1.5-.1.3-.1.1,0,.5-.1.7-.1l-1,.2a4.53,4.53,0,0,1,.8-.1,6.07,6.07,0,0,0-1.5.3c.5-.1,1-.1.9-.2,1.1-.1-1.8.3-.9.2h.2c-.5.1-.2.1.3,0h0c.1,0-.1.3-1.4.3.2,0,1.5-.1,1.8-.1l-2.2.2-1.8.1c.4,0,3.7-.1,4.1-.2.2,0,.5,0,.3.1a12.75,12.75,0,0,0-2,.1h2.2c-.4,0-2.4.1-2.4.1a18.48,18.48,0,0,0,2.4-.1l-1.1.1-1.1.1h2.5c-.4,0,0,.1-.2.1l-.5-.1c.3.2-3.2.1-3.1.1a28.51,28.51,0,0,1,3.1.2c-.9,0-4.3-.1-5-.2h-.1a2.49,2.49,0,0,1,.8.1,6.15,6.15,0,0,1,1.3.1c1.3.1,2.6.1,3.3.1.5.1.8.1.7.2a2.89,2.89,0,0,0,1,0l.3.3c-1.3-.1-1.4,0-2.5-.1a6.6,6.6,0,0,0,1.4-.1,24.67,24.67,0,0,0-3.6-.1c.5.1,2.3.2,2.8.3-.5,0-.9,0-.6.1h.7c.5.2-1.7-.1-.5.1.1,0,1.6.4.9.2s-2.2-.4-3.7-.6c-.9-.1-1.9-.3-2.2-.3.1,0,.8.2,1.2.3.2,0,.5.1.7.1s.7.1,1,.2q1.05.15,1.8.3a3.44,3.44,0,0,0-.9-.1c.3.1,1.1.2.9.2-1.3-.2.1.1-1.1-.2-.4,0,.3.1.2.2-.5-.1-1.7-.3-2.3-.5h0c-.2,0-.3-.1-.4-.1.2,0,.5.1.6.1a4.5,4.5,0,0,0,.8.2,6.81,6.81,0,0,0,1.2.3,3.54,3.54,0,0,1-.6-.1,12.08,12.08,0,0,1,1.4.3c-.7-.2-.9-.2-1.3-.3-1.1-.2-.3-.1.1,0-1.1-.3-2.3-.5-2.8-.7-.2-.1.6.1.5.1.3.1-1.7-.4-.9-.2.6.1,1.3.3,1.8.4.2.1-.5-.1-.5-.1l.3.1c.2,0,.3.1.1,0,.2,0,.3.1.4.1h.2a2.14,2.14,0,0,1,.6.1c-.3-.1-.6-.1-.9-.2h.1a5.76,5.76,0,0,0-1-.2c-.3-.1-.9-.2-.6-.2l.8.2c-.2,0-.5-.1-.3,0-.3-.1,1.1.2.1,0l-.6-.1c-.4-.1-1.2-.3-.9-.2-.8-.1.1,0-.8-.1,1.2.2-.1,0,1.1.2-1.1-.2-.5-.1-1.4-.3.3.1.5.1.4.1h.2a.76.76,0,0,1,.4.1,2.91,2.91,0,0,1,.8.2,3.54,3.54,0,0,0-.6-.1l.4.1a10.38,10.38,0,0,1-1.2-.3h0c-.3-.1-.4-.1-.2,0-.1,0,.6.1.2,0l.3.1h-.1c-.1,0,.8.2-.2,0,.1,0,.3.1.1,0l-.4-.1c.1,0-.4-.1,0,0-.1,0-.2,0-.2-.1h0c-.7-.2,0,0-.2-.1l.5.1h.3l.5.1c.4,0-.3-.1-.3-.1h0c-1-.1.7,0,0-.1h0a7.5,7.5,0,0,0,1.2-.1h-.7l.9-.1h-1.1c.8-.1.3,0,1.1-.1h-.4s.6-.1.3-.1c-.8.1,0-.1-.8,0,1.4-.2-.6.1.5-.1-.3,0-.5.1-.8.1.3-.1-.5.1.4-.1a2,2,0,0,1-.7.1h.1c-.2,0-.3,0-.4.1.1,0,1.1-.2,2.1-.3-.4.1-.4,0,.3-.1a2.81,2.81,0,0,1-.8.1l.4-.1h.2c1-.2.3,0,.4-.1h-.1c-.7.1.4-.1-.4.1l.7-.1c1.4-.2-.8.1-.2.1l.4-.1c.5-.1-1.9.3-2.1.4H428c-.8.1.9-.1,1.1-.2-.5.1-1.2.2-1.3.2-.4.1,1.6-.2.7-.1a4.48,4.48,0,0,1,1.1-.1c.2,0-1.4.2-.2.1h-.3a3.08,3.08,0,0,0,.9-.1h.4c-2.5.3,1.2,0-1.1.2h.3c-.5.1-.4.1.7.1h-.7c.4,0-1.2.1-.4.1h-.3c.8.1-2,0,.5.1l.6.1c.2,0,1.1.1,1.6.1h-.8c-1.3-.1-.5,0-1.4-.1,0,.1-.8,0-.9.1l1,.1h-.1a5.64,5.64,0,0,1-.7-.1c-.5-.1.4.1.6.1a5.43,5.43,0,0,1-1.1-.2h.2a4.18,4.18,0,0,0,.7.1,3.54,3.54,0,0,1-.6-.1h-.1l.7.1a3.27,3.27,0,0,0,.8.2c-1.3-.2-.6,0-1-.1.5.1.4.1.3.1a4.54,4.54,0,0,1,.8.2c-1.5-.4-.7-.1-1.8-.4a5.31,5.31,0,0,0,1.1.3,8.14,8.14,0,0,1-.9-.2c.5.2-.5-.1-.3,0a2.54,2.54,0,0,1,.7.2l-.9-.3c.1,0,1,.3.4.1a2.27,2.27,0,0,1,.4.1c-.5-.1-.4-.1-.4-.1h-.1a3.93,3.93,0,0,1-.6-.2l.3.1a1.69,1.69,0,0,1,.5.2l-.6-.2.5.1h-.1c1,.3,2.3.6,3.6,1-1.7-.5,2.5.8.2.1.4.1.6.2,1,.3-.8-.2-.9-.3-.6-.2l.2.1c-.1,0,.7.2,1.2.4l-.9-.3a2.07,2.07,0,0,1,.6.2c-1.3-.4-.1,0-1.6-.5,1.8.5.2,0,2.2.6l-1-.3.5.2-.7-.2c.1,0,.8.2,1.3.3-.1,0,.1,0,.1.1.6.2-.2-.1.1,0l-.3-.1c-.4-.2.4-.1-.6-.4l-.4-.1c-.6-.2.5.1.2-.1h.1a1.19,1.19,0,0,1-.5-.2c.4.1.9.2,1.4.3-.7-.2-.6-.2-1.9-.5l.6.1a4.05,4.05,0,0,1-1-.3,12.44,12.44,0,0,1,1.6.4c1.4.2-1.3-.4.8,0-1.7-.4-1-.1-1.4-.2-.6-.1-1.2-.3-1-.3a19.19,19.19,0,0,0,2.2.3h.1c.4,0-.5-.2.2-.1a9.68,9.68,0,0,0-1.2-.2l.2.1c-.3-.1-1.8-.4-1-.3a1.88,1.88,0,0,1,.8.2c.4,0-.2-.1.2,0,1.3.2.2.1,1.2.3.6.1-.9-.2.5,0-1.8-.3.3-.1-1-.3l.8.1c-.1,0-.5-.1-.4-.1l1,.2c-.8-.2.8,0,.4-.1a11.45,11.45,0,0,1-1.5-.1c-1-.2,2,.2,1.7,0h.1a3.78,3.78,0,0,0-1.2-.1c.9.1-.4-.1-.6-.1l.8.1c.5-.1-1.6-.2-.9-.2l1,.1-.3-.1.9.1c-.6-.1-.4-.1-.2-.2-.5,0-1.4-.1-1.4-.1.5,0,.7.1.6,0,.5,0,1.1.1.3.1a1.7,1.7,0,0,1,.7.1c.5,0,.1-.1.1-.1h-.2l-1-.1h.7c-.1,0-.4-.1-.5-.1a6.18,6.18,0,0,1,1.5.1l-.6-.1h1c.4-.1-1.2-.2-.7-.3H436c.1-.1.8-.2.1-.3l1.1-.1c-.2-.1-1.3.1-1.7,0s.9-.1,1.2-.1c-.5,0-1.6,0-.7-.2C436.1,244.4,436,244.4,436,244.4Zm-.8-.6c.2,0,.6-.1.2,0C434.6,243.9,435,243.8,435.2,243.8Zm-2.6.3h-.1C432.4,244.2,432.4,244.2,432.6,244.1Zm-4.4,1.4Zm.3.1-.2-.1h.1C428.5,245.6,428.6,245.6,428.5,245.6Zm.3-.1h.2C429.1,245.6,429,245.6,428.8,245.5Z"/><path class="cls-1" d="M433.7,243.9a.6.6,0,0,0-.4.1C433.4,244,433.6,243.9,433.7,243.9Z"/><path class="cls-1" d="M436.3,245Z"/><path class="cls-1" d="M434,246.5a4.33,4.33,0,0,0-.5-.1A1.21,1.21,0,0,1,434,246.5Z"/><path class="cls-1" d="M427.6,245.3h.4A.48.48,0,0,1,427.6,245.3Z"/><path class="cls-1" d="M431.7,245.9h0l-.4-.1C431.3,245.9,431.5,245.9,431.7,245.9Z"/><path class="cls-1" d="M429.6,245.7c.5.1.4.1.3,0h0C429.2,245.6,429.4,245.7,429.6,245.7Z"/><path class="cls-1" d="M429.9,245.8h0C429.6,245.7,429.8,245.7,429.9,245.8Z"/><path class="cls-1" d="M428.2,245.5c.1,0-.6-.1-.4-.1C427.1,245.3,428.5,245.6,428.2,245.5Z"/><polygon class="cls-1" points="431.4 246.1 430.7 245.9 431.2 246 431.4 246.1"/><path class="cls-1" d="M430.8,246h0Z"/><path class="cls-1" d="M430.8,246Z"/><polygon class="cls-1" points="431.6 246.1 431.4 246.1 431.3 246.1 431.6 246.1"/><path class="cls-1" d="M430.3,246h.1a.44.44,0,0,1,.3.1C430.5,246.1,430.4,246.1,430.3,246Z"/><path class="cls-1" d="M432.4,246.5c-.2,0-.4-.1-.7-.1l1,.2Z"/><path class="cls-1" d="M432.6,246.6c.3.1.8.2.8.2A3.09,3.09,0,0,0,432.6,246.6Z"/><polygon class="cls-1" points="430.8 245.9 430.8 245.9 429.6 245.7 430.8 245.9"/><path class="cls-1" d="M435.7,245.4c.5.1-1.3,0-.7.1-.5,0-.5-.1-.9-.1A3.85,3.85,0,0,1,435.7,245.4Z"/><path class="cls-1" d="M434.2,245.4h0Z"/><polygon class="cls-1" points="427.5 245.4 427.3 245.3 427.6 245.4 427.5 245.4"/><path class="cls-1" d="M428,245.5l-.5-.1.5.1Z"/><path class="cls-1" d="M437.1,243.4h-.2c-.2,0-.3,0-.3.1Z"/><polygon class="cls-1" points="436.8 243.9 436.8 243.9 435.9 244 436.8 243.9"/><path class="cls-1" d="M437.9,244.5s-.2-.1-.1-.1S436.8,244.6,437.9,244.5Z"/><path class="cls-1" d="M463.2,261.1c-.1,0,.2.5.3.6C463.6,261.5,463.1,260.9,463.2,261.1Z"/><polygon class="cls-1" points="463.8 259.1 463.9 259.3 463.8 258.7 463.8 259.1"/><path class="cls-1" d="M465,258.4c-.7-.9-.4.4-.8.2l-.2-.2.3.8C464.6,258.9,464.7,258.2,465,258.4Z"/><path class="cls-1" d="M466.9,260c-.3-.3,0-.4-.2,0l.1.1C466.7,260,466.8,260,466.9,260Z"/><path class="cls-1" d="M466.7,260c-.1.1.3.3,0,0Z"/><path class="cls-1" d="M467.2,259.5v.4c.2.2.3.1.4.3C467.7,259.9,467.5,259.8,467.2,259.5Z"/><path class="cls-1" d="M466.9,258.7v.2C467,259,467.1,259,466.9,258.7Z"/><path class="cls-1" d="M466.9,259.3v-.4c-.1-.1-.3-.4,0,.2C466.8,258.8,466.9,259,466.9,259.3Z"/><path class="cls-1" d="M466.7,259.2a.57.57,0,0,1-.4-.6C466.1,258.9,466.5,259.5,466.7,259.2Z"/><path class="cls-1" d="M464.5,257.4l-.3-.2.1.4C464.3,257.4,464.7,257.7,464.5,257.4Z"/><path class="cls-1" d="M468.5,259.3c-.1-.2-.4-.5-.5-.7v.3A.89.89,0,0,1,468.5,259.3Z"/><path class="cls-1" d="M468,258.6v-.4C467.8,258.2,467.9,258.4,468,258.6Z"/><polygon class="cls-1" points="466.4 257.7 466.5 258.6 466.4 257.6 466.4 257.7"/><polygon class="cls-1" points="469.3 258.9 469.4 259.4 469.2 258.6 469.3 258.9"/><path class="cls-1" d="M469.7,258.5c.1.4.5.6.6.8.1-.1,0-.5-.1-.9C470.2,258.7,470,258.7,469.7,258.5Z"/><path class="cls-1" d="M470.1,258a1.09,1.09,0,0,0,.1.5A1.09,1.09,0,0,0,470.1,258Z"/><path class="cls-1" d="M468.4,258c.1.1.3.4.5.5l-.5-.5Z"/><path class="cls-1" d="M468.4,258h0c.1,0,.2,0,.2-.1A.35.35,0,0,1,468.4,258Z"/><path class="cls-1" d="M467.2,257.9c-.1-.4,0-.8-.5-1.2C466.8,257.1,467,257.3,467.2,257.9Z"/><path class="cls-1" d="M467.8,257.4h-.3a.85.85,0,0,1,.3.5Z"/><polygon class="cls-1" points="467.8 257.2 467.8 257.4 467.9 257.4 467.8 257.2"/><path class="cls-1" d="M469.4,257.7a.4.4,0,0,1,.1-.5h-.4C469.2,257.4,469.3,257.8,469.4,257.7Z"/><path class="cls-1" d="M468.9,257.8h0C468.9,257.7,468.8,257.7,468.9,257.8Z"/><path class="cls-1" d="M470.6,256.5Z"/><path class="cls-1" d="M469,257.1c-.2-.1-.1.1-.1.3.1,0,.1-.1.1-.3Z"/><path class="cls-1" d="M470.2,257.5c-.1-.1-.2-.1-.3-.2C470,257.5,470.3,257.7,470.2,257.5Z"/><path class="cls-1" d="M469,257.9h0C469.1,258,469.1,257.9,469,257.9Z"/><path class="cls-1" d="M469,257.9c0-.1-.1-.3-.1-.4v.3A.1.1,0,0,1,469,257.9Z"/><path class="cls-1" d="M468.7,252.9c.3.5.4,1.1-.1.7a10.08,10.08,0,0,0,2,2.9,1.49,1.49,0,0,1-.3-.8c-.2-.2-.8-.4-1-.9.1-.4.3,0,.6.2-.5-.6-.3-1.1-.9-2v.5A1.63,1.63,0,0,0,468.7,252.9Z"/><path class="cls-1" d="M470.1,256.6v.1c.1,0,.3.2.7.5a1.45,1.45,0,0,0-.2-.7l-.5.1Z"/><path class="cls-1" d="M469.7,257c-.3-.6-.2-.9-.7-1.5-.2.2.1.6.1.9.3-.4.1.4.6.6l-.2.2c.1,0,.2.1.4.1h0c-.1-.1-.1-.1,0-.1h0c-.1-.1-.2-.1-.2-.2.2,0,.1.1.1.2v.1h0l.2-.5C469.9,256.7,469.8,256.8,469.7,257Z"/><path class="cls-1" d="M466.1,255.4l.1.1A.1.1,0,0,0,466.1,255.4Z"/><path class="cls-1" d="M466.4,255.6c0,.1.1.3,0,.3s-.2-.3-.3-.4a.87.87,0,0,0,.4.7v-.1a2.42,2.42,0,0,1,.9.8A11.32,11.32,0,0,0,466.4,255.6Z"/><path class="cls-1" d="M468,256.2l.1-.5-.5-.4.2.3C467.6,255.6,467.9,255.9,468,256.2Z"/><polygon class="cls-1" points="470.8 256.8 471.1 257.4 470.8 256.5 470.8 256.8"/><polygon class="cls-1" points="471.1 256.5 471.4 257 471.4 256.6 471.1 256.5"/><path class="cls-1" d="M479.9,244.8l-.1.2C479.9,245,479.9,244.9,479.9,244.8Z"/><path class="cls-1" d="M480.7,244.6l-.1-.3A.77.77,0,0,1,480.7,244.6Z"/><path class="cls-1" d="M481,249.1c.5.3,1.2.8.7.3l-.5-.4C481.2,249.1,481.1,249.1,481,249.1Z"/><path class="cls-1" d="M483.8,240.4c-.1,0-.1-.1-.2-.1a1.76,1.76,0,0,1,.4.5A.52.52,0,0,0,483.8,240.4Z"/><path class="cls-1" d="M481.7,238.7l.5.1A.9.9,0,0,0,481.7,238.7Z"/><path class="cls-1" d="M475.8,246.6v.7C476,247.2,475.8,246.9,475.8,246.6Z"/><path class="cls-1" d="M475.2,253.4a1.34,1.34,0,0,0,.5.1C475.4,253.3,474.9,253,475.2,253.4Z"/><path class="cls-1" d="M478.3,238.1v.4A.3.3,0,0,0,478.3,238.1Z"/><path class="cls-1" d="M476.1,253.3c-.1,0-.1-.1-.2-.1s-.1.3-.2.3C476,253.7,476.2,253.8,476.1,253.3Z"/><path class="cls-1" d="M455.3,241h.2C455.4,240.9,455.4,240.9,455.3,241Z"/><path class="cls-1" d="M473,255.6c-.1.1,0,.1,0,0Z"/><path class="cls-1" d="M471.1,253.7c0-.1-.1-.2-.1-.3A.77.77,0,0,1,471.1,253.7Z"/><path class="cls-1" d="M474.5,249.4h0C474.4,249.3,474.4,249.4,474.5,249.4Z"/><path class="cls-1" d="M472.7,255.5a.35.35,0,0,1,.2.1C472.8,255.5,472.8,255.5,472.7,255.5Z"/><path class="cls-1" d="M472.9,255.7Z"/><path class="cls-1" d="M473.1,255.5h-.2l.1.1Z"/><path class="cls-1" d="M468,245.5h0C467.9,245.8,467.9,245.7,468,245.5Z"/><path class="cls-1" d="M478.1,241.8c.5.7.3.7.1.6l1.4,1.2Z"/><path class="cls-1" d="M478.1,245.5l.4.5c-.1,1-.4.8.1,1.5-.5-2,1-.5.5-2.5l.3.4c-.1,0,0,.1-.1.1.6.9-.1-1.5.4-1.3.2.1.4.4.3.6l.2-.6c.1,0,.2.4.1.3l.5-.3v-1c.2.2,0,.2.1.5l.1-.6c.3.5.2,1,0,1,.9,1.9.1-.6,1,.4l-.2.3c.5,1,.6.6,1.1,1.2-.2-.3-1.1-1.5-1-2.1.1.1.3.2.3-.3.2.7.3.5.5.4l.3.9a2.55,2.55,0,0,0-.1-1.2c.3,0,.6.7.8,1.3.4,0-.6-1-.3-1.4.4.2.5-.2.7-.9.3.2.2.6.3.8l-.1-.8c.1,0,.1.2.2.3.1-.3-.3-.9-.1-1.2-.3-1,1.1,1.3,1,0,.2.2.2.6.3.9,0-.2.1-.3,0-.4l-3.6-4.6c.1.4.2.4.7,1.1l-.7-.1a4.1,4.1,0,0,1,1.6,1.6,4.12,4.12,0,0,0,.8.3l.2.6a3.19,3.19,0,0,1-.7-.6c0,.1.1.1.1.2a2.33,2.33,0,0,1-1.1-.9,1.42,1.42,0,0,0,.6.2,14.2,14.2,0,0,0-1.3-1.2.37.37,0,0,1,.1.3l-.3-.3c-.1-.1.1.1.2.3l-.9-.6.3.3h-.8c.6.9,1.6,2.2,1.6,2.9a12.94,12.94,0,0,0-1.7-1.5c.9.5,0-.6.3-.7-.2.1-.5-.3-.6-.4l.4,1c-.6-.5-.5-.3-.8-.4,1.2.9.5,1,.7,1.4-.4-.3-.7-.7-.5-.8-1-.5,1.1,1.4.2,1,0-.1.1,0-.1-.2.2.4-.3.4-.5.1v-.1c-.4.2-.9.9,0,1.9a15.38,15.38,0,0,1-1.2-1.3c.9,1.2,1.7,2.4,2.5,3.6-.7-.8-2.7-2.5-2.9-3.2-.2,0-.4-.1-.3.3a6.53,6.53,0,0,1,1.2,1.1c-1-.7-.6-.3-1.5-.9.2.1,1.3,1.4,1.2,1.5a16.61,16.61,0,0,1-1.3-1.4l.9,1.5a4.42,4.42,0,0,0-1.4-1.3c.3.2-.3.2-.2.4l.4.2c-.5.1,1.3,2.1.8,2.3-.2-.3-1.3-1.7-1.6-1.7.5.7,2.4,3.4,2.5,4.2l-.4-.3.1.6c-.7-1.1-2-3.6-2.5-4.6-.4-.2-.4-.4-.6-.2-.4-.3-.4-.6-.3-.7l-.6.2c.7.7.3,1.1.9,1.7l-.2-1.2c.7.7,1.6,2.4,1.1,2.6a10.92,10.92,0,0,1-1.3-1.7c.2.3.1.8-.1.6l-.2-.5c-.4-.1.5,1.3-.3.7-.1,0-1-.8-.7-.4a45.59,45.59,0,0,1,3.6,4.3,7,7,0,0,1-1.6-.9c-.7-.6-1.1-1.8-1.7-2.4a1.08,1.08,0,0,1,.3.7c-.2-.1-.5-.7-.6-.5.6.8-.4.2.4.7,0,.4-.3,0-.5.2a5.68,5.68,0,0,1,1.2,2.3,3.17,3.17,0,0,0-.5-.6c-.4.2-.9,0-1.3.2-.2-.2-.5-.3-.7-.7.1.2.2.5.1.6-.7-.6.2-.3-.6-1a3.45,3.45,0,0,1,.3,1.3c.6.7.5-.1.4-.5a6.39,6.39,0,0,1,1.2,3.1c-.1.5-.6-.6-.6-.4-.7.2.8,2.2-.2,1.7a10.15,10.15,0,0,1-1.3-1.8c.1-.4.7.2.8,0l-.4-.2c-.1-.3,0-.6.2-.4-.6-.5-1,.5-1.9.3.1.3.1.6.3.8l.1-.2c.5.5.2.9.6,1.1.1.5.2,1.2-.2,1.1l-.6-.7c.2.2.5.3.4.1.1.4-1.1-.8-.6.3l.5.4c.1.5.3,1.5-.1,1.4.6.7,0-.1.7.7-.9-1,.7-.4-.3-1.4.9.9.6.2,1.4,1-.2-.2-.4-.4-.1-.4,0-.1-.1-.2-.1-.3h0a1.38,1.38,0,0,0-.4-.3c-.3-.6.1-.8,0-1.2.2,0,.1.3.4.5l-.1-.6c.4.5.9.7.9,1.2l.3-.1c.4.2.7.2.6-.1.2,0-.1-.8.1-.3l.2-.6.1.1c.4-.2.2-1.5,1.3-.8,0-.2,0-.5.4-.5l.4.4c0-.3.9.1.6-.5,1.1,1.1,1-.3,1.5-.4l-.5-.6c.2-.1.3-.5.3-.9l-.4-.5c-.1-.6.8-.1,1.1-.4.1.2,0,.2-.1.2,1.4.8.1-1.5,1.2-1-.1-.3,0-.3.2-.2h0c.1.1.2.1.4.2a1.44,1.44,0,0,0-.3-.2c.1-.1.1-.2.1-.4l.5.5h0c.3.1-.2-.3-.6-.7a.76.76,0,0,0-.2-.4c.9.8,0-.5.9.3-.3-.5.2-.8-.6-1.8.1.1.2.1.2.2.2,0,.4,0,.3-.3l.7.6-.6-1.1a2.49,2.49,0,0,1,1.2,1.1c-.4-1.1,0-.6-.5-1.6l.4.4c.1-.1-.3-.8.1-.6,1,.5,1.2-1,2.5-1-1.4-1,.8.2-.2-.7a2.41,2.41,0,0,1,.8.6c0-.6.9-.1.2-1,.4.2.4.4.6.6,0-.1-.2-.3,0-.2s.2.3.3.4c.2-.4-.8-1.2-1.7-2,.6.2.6,0,.1-.6.4.2.8.3.7.6.1-.1,1-.4.3-1,.2.1.2-.1.1-.2l-2-4.8-.3,1.8v.1c-.3.1-.4,0-.6.2l.1.1c.3,1.1-.1.3-.3.5V238c-.8-.6-.1.5-.9-.2l.3.7c.5,1.5-.8-.7-.9,0l.2.4c0,.6-1.1-1.8-1.4-2-.1-.1,0-.2,0-.3-.7-.7.2.9,0,1.2-.2-.5-.3-1.3-.6-1.3-.2-.4-.1,1.8-.7.9.2.4.4.7.3,1s-1-1.2-.9,0a.37.37,0,0,1-.1-.3,4,4,0,0,0-.4,1.3c-.8-2.4-.8,1.5-1.4-.7l-.5.3v-.2c-.4-.1-.4.5-.4,1.1-.1-.1-.1-.4-.1-.5-.6-.3-.6-.2-.8,1l-.2-.7c0,.4-1-1-1.3,0v-.3c-.4,1-1.7-1.8-1.5.9l-.3.7c.5.1.1,1.2.4,1.6-.2.2-.7-.7-.4-.9l.1.1c-.1-1.4-.7-.4-.8-1.3-1,.2-2-.4-2.9-.4l.2,1.1h-.3c-.1-.2-.2-.8,0-.8-.2-.6-.3.6-.3.8-.5-.4,0-1.3-.1-1.3l-.2.1.1.1c-.1.5-.1.9-.4.9a1.23,1.23,0,0,1-.2-.7c0-.1,0-.1-.1,0l-.4-.1.2.8c-.1.4-.4,0-.1,1-.4-1.5-1.6-.4-1.8-.9-.2.6-.5.7-.8.6.1.2.2,1.1-.1,1,0-2-.5-.9-.8-2.3.2,1-.7.3-.4,1.6-.2-.2,0-.8-.2-1.2-.5.8-1.2-.5-1.8-.2a4,4,0,0,1,0,1.1l-.3-1.3c-.1.1-.1,1.5-.4.6,0,.2.1.6,0,.6-1.2-1.3-2.7,1-3.8-1.5.1.5,0,.6-.1.6.1.1,0,.6-.1,1l-.5-1c-.2,1-.6,0-.7,1l.2-.2c-.3,1.1.1,2.5,0,3.9.4-1.2.6,1.9,1.2.2.1.3-.1.5-.1.8.2-.6.3-.7.5-.4v.2c.7-.1,1,.5,1.8,1v-.7c.2.1.2.3.3.5.2-1.1-.5-.1-.3-1.3.2,1.5,1.2.1,1.3,1.7.3,0-.1-.8.2-.8l.1.4.1-.6c.2.1.3.7.3,1a.35.35,0,0,1-.2.1c.2.5.7-.2.7,0l-.3-.3c.7-.4,1.7.2,2.3-.8l-.1-.3c.5-.6.4.4,1,0v.1c.1-.3.3-.5.4-.5-.1.4.3.7.1,1.2.6-.7.3-.5.6-1.8l.1.5c.1-.5.1-.8.4-.9-.2.5.2.8,0,1.5.7,1.2.8-1.3,1.3.5.2-1.6-.6-.8-.5-1.1-.2-.5.1-1.2.3-1,.2,0,.5,1.9,1,1.9-.1,0,0,.1-.1.1.2.4.3-.6.6.1,0-.9.3,0,.2-1.2l-.4.3c.2-.3.3-1.7.8-1.1a2.35,2.35,0,0,1-.2.8c.2.3.2-.3.4.1.1,1.2-.5.3-.7,1.3.2.5.4-.9.4.4,0-1.7.5.1.7-1.1l.1.7c0-.1.1-.5.2-.5l-.1.9c.2-.8.6.6.8.2-.6.1-.2-.8-.5-1.3.5-1,.6,1.8,1.4,1.3-.1.1-.5-.4-.3-.7a1.28,1.28,0,0,1,.5.7c.5-.2-.2-.7,0-1.2.3.8.2-.4.4-.7l.1.7c.6.4-.1-1.5.5-1l-.1,1,.2-.3.1.8c.2-.7.3-.5.6-.3-.2-.5-.2-1.3.1-1.4.2.4,0,.7.4.5,0,.5,0,1-.3.4v.7c.3.5.5,0,.6,0-.1,0-.1,0-.2-.1l.3-1.1a2,2,0,0,1,.1.7c.1-.1.1-.4.2-.5a2.5,2.5,0,0,1,0,1.5l.4-.7a2.47,2.47,0,0,1,.4.9c.4.3.4-1.3.9-.9a.37.37,0,0,1,.1-.3c.4.1.8.7,1.1-.2l.5,1c.3-.3-.6-1.2-.2-1.7s.4.8.6,1.1c.1-.6.1-1.7.7-.9C478.3,245.5,478.2,245.4,478.1,245.5Zm3.7-1.5c0,.2,0,.7-.2.3C481.4,243.4,481.6,243.8,481.8,244Zm.6-4c-.2-.2,0-.2.3-.1C482.6,240,482.6,240,482.4,240Zm-8.8,14.5h0C473.9,254.6,473.8,254.5,473.6,254.5Zm-.5-.1c0,.1.1.2.2.3-.1-.2,0-.2.1-.2C473.2,254.3,473.1,254.2,473.1,254.4Zm-6.7-13.6.1.2C466.4,241.2,466.4,241,466.4,240.8Z"/><path class="cls-1" d="M481.9,238.9c.1.1.2.1.3.2C482.2,239,482.1,238.9,481.9,238.9Z"/><path class="cls-1" d="M475.8,246.5h0v0Z"/><path class="cls-1" d="M473.8,246.4c.1,0,.2.1.3.2C474,246.4,473.9,246.3,473.8,246.4Z"/><path class="cls-1" d="M472.2,256.5l.1-.3c-.1.1-.2,0-.3-.1C472.1,256.3,472.3,256.4,472.2,256.5Z"/><path class="cls-1" d="M468.2,253.8c0,.1-.1,0,0,.1l.2.3A.27.27,0,0,0,468.2,253.8Z"/><path class="cls-1" d="M470.7,254.6c-.3-.5-.3-.3-.4-.1h0C470.8,255.2,470.8,254.9,470.7,254.6Z"/><path class="cls-1" d="M470.3,254.5l-.1.1C470.4,254.9,470.3,254.7,470.3,254.5Z"/><path class="cls-1" d="M473,255c-.1-.1.4.7.2.5C473.6,256.2,473.1,254.4,473,255Z"/><polygon class="cls-1" points="469.6 253 470 253.6 469.8 253 469.6 253"/><path class="cls-1" d="M470.9,252.8h-.3a.37.37,0,0,1,.1.3C470.8,252.9,471,252.9,470.9,252.8Z"/><path class="cls-1" d="M470.6,253c-.1,0-.1.1-.1.2S470.6,253.1,470.6,253Z"/><polygon class="cls-1" points="469.7 252.6 469.9 252.7 470 252.6 469.7 252.6"/><path class="cls-1" d="M473.1,251.4l.1-.3c-.1-.2-.3-.3-.3-.2S473,251.2,473.1,251.4Z"/><path class="cls-1" d="M471.3,250.2l.4.4-.5-.8Z"/><path class="cls-1" d="M471.8,249.5c-.1-.2-.1-.8-.4-.6C471.6,249.2,471.5,249.5,471.8,249.5Z"/><polygon class="cls-1" points="475.7 248.1 475.6 248.2 476.6 249.4 475.7 248.1"/><path class="cls-1" d="M475.9,243.1c-.5-.1.6.7.1.6.2.3.4.1.6.4C476.4,243.7,476.7,243.8,475.9,243.1Z"/><path class="cls-1" d="M476.6,244.1c0,.1,0,.1.1.2C476.6,244.3,476.6,244.2,476.6,244.1Z"/><polygon class="cls-1" points="454.6 240.1 454.5 239.8 454.6 240.3 454.6 240.1"/><path class="cls-1" d="M454.2,241.2v-1l-.2.9C454.1,241,454.2,241,454.2,241.2Z"/><path class="cls-1" d="M483,245.7l-.1-.2c-.1-.2-.2-.2-.3-.2Z"/><polygon class="cls-1" points="479.9 245.8 480 245.8 479.7 245 479.9 245.8"/><path class="cls-1" d="M477.8,247.5c.1,0,.2-.2.3-.2C477.9,247.5,477.5,246.5,477.8,247.5Z"/><text class="cls-3" transform="translate(491.82 402.61)">TM</text></g></g></svg>